<svg xmlns="http://www.w3.org/2000/svg" viewBox="0 0 179.31 51.1">
    <g>
        <g>
            <path fill="currentColor" d="M56.15,48c0,2-1.29,2.93-3.91,2.93H50c-.44,0-.79-.25-.79-.57V41.6c0-.3.35-.55.79-.55H52c2.3,0,3.37.84,3.37,2.67a2.73,2.73,0,0,1-.29,1.35c-.13.3-.28.53-.24.56l.13.08A2.53,2.53,0,0,1,56.15,48ZM51,44.53a.54.54,0,0,0,.52.56H52c.92,0,1.13-.17,1.19-.21a1.5,1.5,0,0,0,.33-1.15c0-1.38-.61-1.38-1.53-1.38H51.5a.55.55,0,0,0-.5.57v1.61Zm3.3,3.5c0-1.4-.68-1.62-2.27-1.62h-.51A.55.55,0,0,0,51,47v2.11a.59.59,0,0,0,.61.56h.61C54,49.64,54.31,49.12,54.31,48Z"/>
            <path fill="currentColor" d="M67.39,51h-.58a1.74,1.74,0,0,1-1.21-.49L64.28,49a1.47,1.47,0,0,0-.74-.47c-.15,0-.31.25-.31.56v1.3c0,.32-.35.57-.76.57H62.2c-.44,0-.79-.25-.79-.57V41.61c0-.3.35-.56.79-.56h2.23a3.91,3.91,0,0,1,2.93,6.24,3,3,0,0,1-.85.75c-.32.2-.48.52-.24.77l1.49,1.66C68,50.74,67.83,51,67.39,51Zm-1.61-4.31a2.92,2.92,0,0,0,.52-1.71c0-1.27-.7-2.57-1.85-2.57h-.59a.59.59,0,0,0-.61.56v3.73a.65.65,0,0,0,.7.57h.7A1.34,1.34,0,0,0,65.78,46.65Z"/>
            <path fill="currentColor" d="M75.25,42.92v2c0,.32.34.56.76.56h1.08c.44,0,.79.25.79.57v.18c0,.32-.35.57-.79.57H76c-.42,0-.76.25-.76.56v1.7c0,.31.34.56.76.56H78.4c.41,0,.76.25.76.57v.18c0,.32-.35.57-.76.57H74.19c-.44,0-.78-.25-.78-.57V41.6c0-.3.34-.55.78-.55H78.4c.44,0,.78.24.78.55v.18c0,.32-.34.57-.78.57H76C75.59,42.35,75.25,42.6,75.25,42.92Z"/>
            <path fill="currentColor" d="M96,41.6,93.9,50.39A.93.93,0,0,1,93,51h-.77a.92.92,0,0,1-.92-.57l-1.16-4.92c-.06-.29-.18-.29-.26,0l-1.18,4.92a1,1,0,0,1-.92.57H87a.91.91,0,0,1-.9-.57L84,41.6c-.06-.32.22-.55.66-.55H85a.94.94,0,0,1,.93.55l1.37,5.91c.06.31.18.31.27,0L89,41.6c.06-.32.48-.55.92-.55h.29a.9.9,0,0,1,.92.55l1.38,5.91c.06.31.19.31.26,0l1.45-5.91c.06-.32.48-.55.92-.55h.28C95.83,41.05,96.11,41.29,96,41.6Z"/>
            <path fill="currentColor" d="M103.35,41.6v8.79c0,.32-.35.57-.77.57h-.26c-.44,0-.79-.25-.79-.57V41.6c0-.3.35-.55.79-.55h.26C103,41.05,103.35,41.3,103.35,41.6Z"/>
            <path fill="currentColor" d="M115.86,41.6v8.79a.67.67,0,0,1-.74.57,1.3,1.3,0,0,1-1.08-.52L111,45.36c-.17-.28-.31-.27-.31,0v5c0,.32-.37.57-.79.57h-.26c-.44,0-.79-.25-.79-.57V41.59c0-.3.33-.55.75-.55a1.34,1.34,0,0,1,1.07.5l3.09,5.08c.18.28.32.27.32,0v-5c0-.3.35-.55.77-.55h.26C115.51,41.05,115.86,41.3,115.86,41.6Z"/>
            <path fill="currentColor" d="M129.23,46.05V49a3.92,3.92,0,0,1,0,.62l-.05.06a3.92,3.92,0,0,1-3.22,1.44c-4,0-4.81-2.78-4.81-5.12a5.14,5.14,0,0,1,1.33-3.9,4.81,4.81,0,0,1,3.48-1.18,4.17,4.17,0,0,1,2.65.86c.31.21.19.58-.18.75l-.2.11a1.33,1.33,0,0,1-1.18-.13,2.19,2.19,0,0,0-1.09-.3c-.81,0-3,0-3,3.78s2.17,3.8,3,3.8a2.21,2.21,0,0,0,.87-.17,1.07,1.07,0,0,0,.59-.94V47.33c0-.3-.35-.55-.79-.55h-.32c-.44,0-.79-.25-.79-.57V46c0-.32.35-.57.79-.57h2.14C128.87,45.49,129.23,45.73,129.23,46.05Z"/>
            <path fill="currentColor" d="M17.09,23.23a5.07,5.07,0,0,1,.31,2.2,10.22,10.22,0,0,1-.51,2.21c-.07.17-.12.32-.17.45l-.18.45a9.55,9.55,0,0,1-.75,1.4L15,31a3,3,0,0,1-.58.6c-.21.17-.44.34-.68.51a9.32,9.32,0,0,1-2.91,1.27,12.15,12.15,0,0,1-3.16.48H6.54c-.86,0-1.73,0-2.58,0s-1.72,0-2.59,0H1.23a.45.45,0,0,1-.2,0c-.21-.14-.3-.41-.28-.83A1.81,1.81,0,0,1,1,32a1.83,1.83,0,0,1,.33-.48c.11-.12.22-.23.32-.35a2,2,0,0,0,.28-.42,2.42,2.42,0,0,0,.18-.65,4.18,4.18,0,0,0,.07-1c0-.32,0-.66,0-1s0-.72,0-1.05a7.59,7.59,0,0,0,0-1.06,10.83,10.83,0,0,1,0-1.27c0-.42,0-.85,0-1.28V19.73a1.46,1.46,0,0,0-.32-1A10.29,10.29,0,0,0,.93,18a3.27,3.27,0,0,1-.7-.72A1.59,1.59,0,0,1,0,16.6a2.06,2.06,0,0,1,.1-.71c.09-.24.18-.55.28-.93a2.48,2.48,0,0,1,.41-1,.5.5,0,0,1,.4-.21,1.43,1.43,0,0,1,.38.13.34.34,0,0,0,.38,0c.17-.13.24-.45.22-1s0-.85,0-1V4.68a3,3,0,0,0-.08-.8,1.92,1.92,0,0,0-.18-.43,1.27,1.27,0,0,0-.3-.32,2.12,2.12,0,0,1-.45-.55,2.8,2.8,0,0,1-.4-1.13.79.79,0,0,1,.6-.93A5.23,5.23,0,0,1,2.6.44L4,.47H8.82l.95.14a7.42,7.42,0,0,1,1.8.45,5.09,5.09,0,0,1,.6.25l.61.3a8.84,8.84,0,0,1,1.2.85,9.7,9.7,0,0,1,1.41,1.66,6.42,6.42,0,0,1,.95,2.36,1.75,1.75,0,0,1,.11.58,4,4,0,0,0,0,.58c0,.2.06.41.08.62a3.27,3.27,0,0,1,0,.63,6.53,6.53,0,0,1-.05.78c0,.25-.09.51-.15.78A9.09,9.09,0,0,1,16,11.82c-.15.45-.31.92-.48,1.38a9.38,9.38,0,0,1-1.11,2,8.94,8.94,0,0,1-1,1.26,8.8,8.8,0,0,1-1.18,1,3.46,3.46,0,0,0-.53.41c-.18.17-.14.33.13.5a3.58,3.58,0,0,0,.62.28,4.08,4.08,0,0,1,.73.32,3,3,0,0,1,.65.4,11.27,11.27,0,0,1,1.41,1.06,6,6,0,0,1,1.05,1.3A8,8,0,0,1,17.09,23.23ZM2.44,33.32c0,.2,0,.22.08.07s0-.2,0-.17S2.47,33.28,2.44,33.32Zm.16-2-.05-.05c-.07-.07-.09,0-.08,0S2.53,31.43,2.6,31.36Zm.09-.3h-.1c-.07-.07,0-.08,0,0Zm0-.4a.3.3,0,0,0,.28-.13c.05-.08,0-.09-.18,0a.14.14,0,0,0-.1,0A.08.08,0,0,0,2.64,30.66Zm.61-.51s0,.08-.13.13,0,.07.13.07.28-.09.14-.17S3.22,30,3.29,30a.11.11,0,0,0,.08,0,.13.13,0,0,1,.08,0c.07-.17.14-.27.22-.3s.08-.09,0-.15a1.29,1.29,0,0,0-.3.25.43.43,0,0,0-.1.12v.05s0,0,0,0l-.2.12c-.1.07-.09.1,0,.1A.27.27,0,0,0,3.25,30.15ZM3,26.54c.07.07.07,0,0-.1s-.1-.13-.1,0S3,26.54,3,26.54Zm-.1,4.16a.21.21,0,0,0,.13.18c.08.05.09,0,0-.08a.54.54,0,0,1,0-.22C3,30.5,3,30.54,2.94,30.7Zm.15-1.25c-.17.1-.17.17,0,.2s.22,0,.15-.2A.14.14,0,0,0,3.09,29.45Zm.2-15.2A.2.2,0,0,0,3,14.14c-.1,0,0,.09.25.15h0ZM3,27.75c0,.17,0,.21.08.12s0-.14,0-.18S3,27.68,3,27.75Zm.35-3.17c.1,0,.09-.07,0-.2s-.17-.12-.1.05S3.33,24.58,3.39,24.58Zm0,9c.1.07.15.08.15.05a.27.27,0,0,0,0-.13.63.63,0,0,0-.1-.12s0,0,0,0A.25.25,0,0,0,3.39,33.62ZM3.49,31s0,0,0,0,0,0,0,.05,0,.14.14,0,.12-.21,0-.28a.07.07,0,0,0-.1,0,.25.25,0,0,0-.05.15h.09Zm.26,2.26c.07-.14.06-.2,0-.18a.52.52,0,0,0-.23.08c-.07,0,0,.07.08.1S3.75,33.25,3.75,33.22ZM3.59,11.79s-.06,0-.07.08a.21.21,0,0,0,0,.18c.07.1.1.13.1.1a.43.43,0,0,1,0-.15ZM4,27.34s0-.1.1-.2a.37.37,0,0,0,.12-.24c0-.11,0-.09-.12,0l-.3.28c-.13.12-.17.19-.1.22s.11,0,.14,0,.09,0,.15.08.06.08.08.05A.33.33,0,0,0,4,27.34Zm-.1,2.87c-.17,0-.24,0-.23,0l.18.22L4,30.21Zm-.16-1.16A.19.19,0,0,0,3.9,29c.07-.07.07-.1,0-.1S3.69,29,3.69,29.05Zm.16-2.91c.07-.07,0-.12-.05-.15s-.11,0,0,.15S3.78,26.21,3.85,26.14Zm.25-1.6c0-.14-.15-.17-.35-.11a.26.26,0,0,0,.22.15C4.06,24.58,4.1,24.57,4.1,24.54Zm-.1-10c0-.13,0-.2-.15-.2s-.12,0,0,.1,0,.08,0,.14-.07.19,0,.15A.28.28,0,0,0,4,14.55Zm0,17.61c.1-.1,0-.14-.15-.14s-.11,0,0,.07A.5.5,0,0,0,4.05,32.16ZM4.3,29.3c.1,0,.14,0,.14-.15v0c-.37.07-.49.08-.37,0a.45.45,0,0,0,.27-.24c0-.07,0-.09-.14-.05s-.23.21-.2.33S4.13,29.33,4.3,29.3ZM4.05,14.85c0,.1,0,.15.1.15H4.4l0-.05Zm.25.7a.14.14,0,0,0,.1,0l-.15-.15h-.1s-.05,0-.05.05v0Zm-.15-2.1c0,.07,0,.16,0,.28s0,.12.12,0V13.6S4.21,13.51,4.15,13.45Zm.1,14.1a.18.18,0,0,0,0,.17c0,.09.12,0,.32-.17s.1-.2,0-.28-.13-.07-.1.07.07.19,0,.15A.17.17,0,0,0,4.25,27.55Zm.4-13.8c-.17,0-.25.12-.25.35l.1-.1.15.1a.28.28,0,0,0-.1-.2s0,0,0,0h.2C4.83,13.84,4.79,13.78,4.65,13.75ZM4.44,25.14a.27.27,0,0,0,.31,0c.1,0,.11-.11,0-.18s0-.07,0,0a.26.26,0,0,1-.1.18Q4.5,25,4.44,25.14Zm.31,4.11c.07-.07.07-.1,0-.08s-.11,0-.18-.12a1.07,1.07,0,0,1-.1-.23s0,.06,0,.23A1.11,1.11,0,0,0,4.75,29.25Zm0-18.32c-.1,0-.16,0-.18.1a.2.2,0,0,1-.12.15l.15.15s0,0,0,0,0,0,0,0V11l.15.1C4.93,11,4.9,10.9,4.8,10.93ZM5.05,28.8c0-.07.08-.09.12-.08s0,0,0-.18l-.2-.2a.16.16,0,0,0,0,.1.18.18,0,0,1-.05-.07s0,0-.1-.08-.08,0-.14,0c.07.24.14.35.22.35s.14.09.18.25ZM5.1,26c0-.07,0-.1-.14-.1s-.13.24-.08.32.18.09.38,0c0-.07,0-.1-.1-.1S5.06,26.14,5.1,26Zm.1-13.9a.63.63,0,0,1-.12.1.14.14,0,0,0-.08.1l0,.05c.13-.07.2-.11.2-.13Zm.1,20.47a.22.22,0,0,0,.2-.24c.11-.11.14-.15.11-.15a0,0,0,0,0-.05,0l-.2.1.14.1a1.86,1.86,0,0,1-.34.1Zm.15-6.88c0-.2-.07-.3-.2-.3A1,1,0,0,0,5.45,25.73Zm0,2.62s0,0-.07,0-.13.06-.13.12Zm.21-17.66c0,.1,0,.16-.1.17a.9.9,0,0,0-.21.08.14.14,0,0,1,.1.05.19.19,0,0,0,.21-.13.74.74,0,0,1,.14-.22c0-.07-.07-.09-.1-.08S5.71,10.62,5.71,10.69Zm0,4.51a.48.48,0,0,0-.18.08c-.09.05-.13.09-.13.13l0,0C5.62,15.45,5.71,15.37,5.71,15.2ZM5.55,28c-.1.07-.13.1-.1.1A.25.25,0,0,0,5.6,28Zm0-10.13.15-.15s0-.1-.15-.2a.8.8,0,0,1,0,.3A0,0,0,0,1,5.5,17.86Zm.35,15.3a0,0,0,0,0,.05.05l.1,0A1.08,1.08,0,0,1,6,33l-.14,0a.32.32,0,0,1-.15,0l-.2.1v.05l.2,0Zm-.24-5.51c.27.17.37.2.32.1a.33.33,0,0,0-.32-.15c-.07,0-.1,0-.08,0A.08.08,0,0,0,5.61,27.65Zm.24-1c.07,0,.1,0,.08-.1s-.11-.13-.28-.1-.15.08,0,.25c.07,0,.09,0,.07-.08S5.72,26.58,5.85,26.64Zm-.14,3.81c-.17.07-.21.21-.1.41l0-.05a.52.52,0,0,1,0-.18A.84.84,0,0,0,5.71,30.45Zm.14-1.9c0-.1,0-.1-.12,0s-.11.13,0,.1Zm-.1-.3c.13-.07.15-.1,0-.1s-.15,0-.15.1Zm.1,1a.25.25,0,0,0-.1-.15c-.07-.07-.08,0,0,.08S5.78,29.32,5.85,29.25Zm-.14,2.11,0,.05a.29.29,0,0,1,.1-.13A.24.24,0,0,0,6,31.2V31Zm.44-8.08c-.13-.07-.2-.06-.22,0s-.06.12-.12.12h0c-.07.1,0,.12.18.08S6.19,23.38,6.15,23.28ZM6,11.89c-.13,0-.2,0-.2,0a2.18,2.18,0,0,0,.1.27.39.39,0,0,1,.05-.14A.38.38,0,0,0,6,11.89ZM6.1,29.45c-.13,0-.12,0,0,.1s.26.07.33,0,0-.1-.13-.1ZM6.46,31c.13-.07.11-.19,0-.35s-.1-.08-.1,0a.35.35,0,0,0,.05.17.54.54,0,0,1-.18,0c-.09,0-.13,0-.13,0s0,.09.1,0,.14,0,.21.15l0,0Zm-.2.55a.08.08,0,0,0,.07,0l.08,0v-.05a1,1,0,0,1-.3,0l.2.45h.05Zm.1-13.6a.19.19,0,0,1,0,.1.54.54,0,0,0,0,.15l.1.1a1.23,1.23,0,0,0,0-.35Zm0,11.89c-.07,0,0,.13.08.28s.14.14.08,0Zm.1-10.33a.3.3,0,0,0,.2,0l0-.1-.08,0a.17.17,0,0,1-.12,0C6.46,19.44,6.47,19.47,6.5,19.47Zm.26,10.78c-.07.07,0,.1,0,.1s.14-.07.11-.12S6.82,30.19,6.76,30.25Zm0,.71s.08,0,.15-.05C6.8,30.9,6.76,30.93,6.76,31Zm.45-.2c-.27-.07-.37-.07-.28,0s.09.11,0,.14a1.89,1.89,0,0,0,.35,0C7.41,30.86,7.38,30.83,7.21,30.76Zm3-1.56A2.57,2.57,0,0,1,10.5,29a.75.75,0,0,0,.27-.18,4.11,4.11,0,0,1,.61-.72,2.49,2.49,0,0,0,.45-.88,8.92,8.92,0,0,0,.17-1,2.69,2.69,0,0,0,0-1c-.17-.56-.34-1.1-.53-1.58a3.89,3.89,0,0,0-.92-1.37,3.78,3.78,0,0,0-2.77-1.16c-.4,0-.61.12-.65.45s0,.65,0,.95c0,.54,0,1.06,0,1.58s0,1.05,0,1.58v1.43A9.15,9.15,0,0,1,7,28.59a4.55,4.55,0,0,0,.1,1c.07.3.34.41.81.34l.75-.12a3.32,3.32,0,0,0,.7-.18ZM7.06,12.74c0,.17,0,.33,0,.48a1.57,1.57,0,0,1,0,.48c0,.2,0,.42,0,.65a1.43,1.43,0,0,0,.07.63.7.7,0,0,0,.33.4.94.94,0,0,0,.68,0,4,4,0,0,0,3.06-2.77,11,11,0,0,0,.48-2.7,11.64,11.64,0,0,0-.17-2.77,7.52,7.52,0,0,0-.93-2.63A3.05,3.05,0,0,0,8.22,3.17c-.57-.1-.91,0-1,.32a2.86,2.86,0,0,0-.12,1.18c0,.47,0,.9,0,1.3v4.92C7.11,11.49,7.09,12.11,7.06,12.74Zm.1,6.93.25.18a1.58,1.58,0,0,1,.1-.28Zm.1,11.49a.36.36,0,0,1,0,.1.19.19,0,0,0,0,.1l.23-.08c.08,0,0-.06-.12-.12Zm.25.45a.19.19,0,0,0,0-.08s0,0,0,0l-.25.3c.14.07.21.09.21,0A.81.81,0,0,1,7.51,31.61Zm.5.76c.07-.07.06-.14,0-.23s-.13,0-.13.12S7.91,32.46,8,32.37Zm0-1.71c-.13.13-.13.24,0,.34s.17.05.1-.14A.28.28,0,0,0,8,30.66ZM8.31,19l-.24.25h.1a.54.54,0,0,0,.2-.25Zm.25,12.3a.67.67,0,0,0,.5-.51H9c-.07,0-.1,0-.1.08s-.05.11-.15.18a1.91,1.91,0,0,1-.28.2C8.34,31.36,8.36,31.37,8.56,31.31Zm.06.55c-.07,0-.11.07-.11.2s0,.17.11.1.14-.1.14-.12S8.72,32,8.62,31.86Zm.24,1.26a.2.2,0,0,0-.1-.25c-.1-.07-.11,0,0,.1a.35.35,0,0,1,0,.2C8.72,33.23,8.76,33.22,8.86,33.12Zm.36-14a.22.22,0,0,1,0-.12.19.19,0,0,0,0-.13l0-.1H9a.31.31,0,0,1-.2,0,1,1,0,0,1,.05.3h.1l.1.2h0V19l0,0Zm-.06,1.36q.11-.15,0-.18c-.07,0,0-.1.05-.23L9.16,20c-.07.07-.08.11,0,.13s0,.06,0,.12-.08.11,0,.12A.72.72,0,0,0,9.16,20.47Zm.41.55q0-.11,0-.12a.38.38,0,0,1,0-.18H9.52c-.07.1-.13.13-.2.1s0,.07.08.1A.63.63,0,0,1,9.57,21Zm-.06-.75a.74.74,0,0,0,.3-.08c.14,0,.21-.1.21-.17l0,0c-.33,0-.49,0-.45,0h.2l-.35-.2ZM10,30.61l0-.15.25.1c-.1-.27-.2-.32-.3-.18s-.12.27,0,.33Zm0-10.84a.78.78,0,0,0,.1.25v-.15l.25.15a.78.78,0,0,1-.1-.25Zm.3,12.89c0-.07,0-.08-.08,0s-.09.07,0,.07.05,0,.05,0S10.23,32.66,10.27,32.66Zm-.1-13.59c.27,0,.36,0,.28,0s-.11-.06-.08-.13a.14.14,0,0,0,.1,0c.07-.07.09-.1,0-.1s-.17,0-.2,0A.91.91,0,0,1,10.17,19.07Zm.45.9-.15,0a.26.26,0,0,1-.14,0c0,.1.13.14.3.14V20Zm0,11.54c-.07-.07-.14-.07-.23,0s0,.09.18,0Zm.05-1.2c.07,0,.1,0,.08,0l-.08-.12-.1-.1c-.07-.07-.11,0-.14.05s0,.13,0,.1.13-.07.12,0S10.57,30.31,10.67,30.31Zm.2-10.84a.41.41,0,0,0,.31-.1l0-.05c-.1-.17-.16-.22-.18-.18S10.91,19.3,10.87,19.47Zm.2,1.35c.1-.07.12-.12.08-.18a.12.12,0,0,1,0-.17h0a.54.54,0,0,1-.05.24l-.15-.1A.17.17,0,0,0,11.07,20.82Zm.25-.6c.13-.17,0-.29-.4-.35Zm-.1,9.43a.14.14,0,0,1,0-.1v-.1h-.1A.18.18,0,0,1,11,29.4v.25Zm0-7.27c-.07.17,0,.19.05.07s.1-.2,0-.27A.3.3,0,0,0,11.27,22.38Zm.15,6.67h.25l.15-.21-.25-.2-.15.25Zm.05.55,0,.1a.14.14,0,0,1,.1,0,.39.39,0,0,0,.14-.05s0,0,0-.05,0,0-.05,0S11.54,29.53,11.47,29.6Zm.36-7.52c-.07-.07-.11-.1-.13-.08l-.12.12a.8.8,0,0,0,.3,0Zm.1-6.53c0-.07,0-.08,0,0v.14a.57.57,0,0,1-.2-.07c-.1-.05-.1,0,0,.07a.52.52,0,0,0,.2.1C12,15.78,12,15.72,11.93,15.55Zm0,15.81-.28.22s0,0,0,0a1.1,1.1,0,0,0,.28-.17S12,31.36,11.93,31.36Zm-.26-.66a1.28,1.28,0,0,1,.28.05c.12,0,.15,0,.12-.15a.2.2,0,0,0-.22-.15c-.12,0-.08,0,.12-.1l-.1-.1A2.9,2.9,0,0,0,11.67,30.7Zm.66-9c-.1-.17-.27-.17-.5,0Zm-.46,7.78c.07.1.12.11.15,0a.16.16,0,0,1,.15-.1.77.77,0,0,0,.24-.1.18.18,0,0,1,.05.15,2.62,2.62,0,0,0,.35-.3h-.2c-.1.07-.15.05-.15-.05a.18.18,0,0,1,0-.14h-.2v-.31h0l-.14-.1a.28.28,0,0,1,0,.15.54.54,0,0,0,0,.15V29a.21.21,0,0,1,.15,0c.07.1,0,.14,0,.14s-.12,0-.12.11a.14.14,0,0,0,.1,0l.05.05Zm.3-13.09c-.13,0-.17,0-.12,0s.11.07.18,0Zm.26,11.08c-.27,0-.38,0-.33.13s.16.09.33,0a.19.19,0,0,1,0-.08s0,0,0-.07Zm-.1-12a.14.14,0,0,1-.1,0h-.1a2.33,2.33,0,0,0,.12.27S12.29,15.62,12.33,15.45Zm.4,15.25,0,0a.19.19,0,0,1-.13,0,.1.1,0,0,0-.07,0,.16.16,0,0,1-.05-.1h0v.15a.31.31,0,0,1-.2,0c0,.13.1.19.2.15Zm-.3-3.56c.17,0,.19-.1.08-.2s-.17-.07-.13.1S12.39,27.14,12.43,27.14Zm.2,4.27a.14.14,0,0,1,0-.1l-.15-.25-.1.1Zm0-7c.1-.1.09-.18,0-.22s-.12,0,0,.12ZM12.92,29c-.1-.11-.14-.17-.14-.21s-.1-.08-.2,0a.26.26,0,0,0,0,.14.34.34,0,0,1,0,.15.16.16,0,0,0,.05.1c0-.17,0-.21.1-.14S12.89,29,12.92,29Zm-.29.95c.17,0,.25-.1.25-.2a.72.72,0,0,1,.1-.34.11.11,0,0,0-.08,0l-.08,0h0a.49.49,0,0,0,0,.15.18.18,0,0,1,0,.1l-.24.1v.05A.11.11,0,0,0,12.63,29.9Zm.6-2.61c-.07,0-.13,0-.18.1s-.16.13-.33.1,0,0,.08-.12.06-.1-.18,0c0,0,0,.05,0,.15s.06.15.12.15a.61.61,0,0,0,.31-.05l.2-.2S13.27,27.33,13.23,27.29Zm-.45-3.61a0,0,0,0,0,0,.05c0,.13.13.2.3.2-.17-.13-.22-.2-.17-.2s.06,0,0-.05Zm.2,4.11q-.11,0-.15.15a.21.21,0,0,0,0,.15c.07,0,.1,0,.1-.05Zm-.1,2.72.2,0a.9.9,0,0,1,.25,0l-.3-.2Zm.5-1.06c-.13,0-.17.08-.1.12s.07.11,0,.18l-.1,0a.31.31,0,0,0-.15,0,.45.45,0,0,1,0,.2c.2-.13.31-.11.34.05l.11.05,0-.05,0-.05a.19.19,0,0,0,0-.1v-.35Zm-.1,1.35c.17,0,.25,0,.25-.14s-.11,0-.13,0-.06,0-.12,0-.13,0-.1.14V31s0,.07-.15.1c.07.07.12.1.15.1l.05-.1A.47.47,0,0,0,13.28,30.8Zm.05-2.65a.42.42,0,0,1-.05-.25l-.2.25Zm.3-1.51c-.17,0-.26,0-.28,0a.66.66,0,0,0-.12.17h.34A.3.3,0,0,1,13.63,26.64Zm-.3,2.41a.77.77,0,0,0,0,.27c0,.09.13.1.31,0a.16.16,0,0,1-.18-.15A.15.15,0,0,0,13.33,29.05Zm.25-4.11-.2.25.25.14v0c-.1-.07-.14-.11-.13-.13a.72.72,0,0,0,.13-.22Zm.2,5.11a.31.31,0,0,1,0-.15.46.46,0,0,0,0-.14.21.21,0,0,1-.15-.05l-.15.09v.05l.08,0s.05,0,.12,0v.25Zm0-2.5-.14.14s0,0,0,0l.08,0a.1.1,0,0,1,.08,0s.08,0,.14.1l0,0Zm.8,1.7a.94.94,0,0,0-.08-.15.49.49,0,0,1,0-.15s-.05,0-.05,0,0,0,0,0a.08.08,0,0,1,0,.07.19.19,0,0,0,0,.08.15.15,0,0,0,.08.05s0,0,.08.1h-.25L13.8,29v.3c.17,0,.27,0,.3.05a.36.36,0,0,0,.25,0,.29.29,0,0,1,.15-.05A.18.18,0,0,0,14.58,29.25ZM14,30.7c.11,0,.15,0,.15-.08a.51.51,0,0,1,0-.17,0,0,0,0,1,0-.05l-.2.25-.15-.25C13.78,30.64,13.85,30.74,14,30.7Zm.55-.45a1.2,1.2,0,0,0,.1-.32c0-.05-.07-.11-.2-.18a.28.28,0,0,1-.2.1.62.62,0,0,1-.3-.05,0,0,0,0,0,0,.05c.21.1.22.23,0,.4v.05l.55-.45A1.87,1.87,0,0,0,14.53,30.25Zm0-2.4a.46.46,0,0,0-.25.3.5.5,0,0,0,0,.3Zm0-2.81a.5.5,0,0,1-.05.15c0,.06,0,.11,0,.14h.05C14.62,25.2,14.62,25.1,14.49,25Zm.39,3.56c.13,0,.21,0,.23,0a.29.29,0,0,1,.07-.12.41.41,0,0,1,0-.15.16.16,0,0,0-.05-.1.25.25,0,0,0-.25-.07.52.52,0,0,0-.24.07l-.1.1,0,.05.3-.15.31.25Zm-.14-3c.13,0,.2-.13.2-.3a1.64,1.64,0,0,0-.18.12l-.18.12s0,0,.05,0h.11Zm-.16,3.66a.25.25,0,0,1,.05.28.22.22,0,0,0,.14.27c-.07-.2-.07-.31,0-.34s0-.11,0-.13a.22.22,0,0,1,0-.12.31.31,0,0,1,0-.13s0,0,0-.12a.12.12,0,0,1-.1-.05A1.1,1.1,0,0,1,14.58,29.25Zm.36-1.81a.26.26,0,0,1,.14-.07c.07,0,.1,0,.1-.08v-.05C15.08,27.14,15,27.21,14.94,27.44Zm.55.51c.13-.17.18-.24.14-.23s-.1,0-.2-.22-.06-.08-.08,0a.6.6,0,0,0,0,.12.51.51,0,0,0,0,.3C15.37,28,15.42,28,15.49,28Zm-.1-2c0,.07,0,.06.14,0s.12-.14.05-.18-.07,0-.1.08A1.25,1.25,0,0,1,15.39,26Zm.45,2.06a1.73,1.73,0,0,0,.1-.28c0-.12,0-.14-.14-.08s-.09.09-.05.18A.34.34,0,0,0,15.84,28.05Zm.1-1.05q.11-.21,0-.15l-.18.1a.16.16,0,0,0,0,.22C15.81,27.25,15.87,27.2,15.94,27Zm0-2.22c.07,0,.08-.05,0-.07s-.08,0-.08.07Z"/>
            <path fill="currentColor" d="M33.9,31.66a1.16,1.16,0,0,1,.45.63,2.51,2.51,0,0,1-.05.78c-.1.5-.33.76-.7.78a8.92,8.92,0,0,1-1.15,0c-.48,0-1,0-1.51,0a4.65,4.65,0,0,1-1.51-.14l-.05,0a1,1,0,0,1-.4-.55,5.36,5.36,0,0,1-.25-.88c-.07-.32-.12-.63-.18-.93s-.09-.55-.12-.75l-.15-1.15a9.44,9.44,0,0,1-.12-1.23c0-.39,0-.8-.08-1.23a11.16,11.16,0,0,0-.38-2,6.47,6.47,0,0,0-.83-1.84,1.29,1.29,0,0,0-.2-.3c-.1-.1-.28-.27-.55-.5a7.47,7.47,0,0,0-.85-.63,2.6,2.6,0,0,0-.85-.35.47.47,0,0,0-.55.38,3.33,3.33,0,0,0-.07,1c0,.45,0,.81,0,1.08v1.47c0,.32,0,.66-.05,1a12.23,12.23,0,0,0,0,1.36c0,.47,0,.92,0,1.35a5.21,5.21,0,0,0,.25,1.7,1.27,1.27,0,0,0,.32.51,5.22,5.22,0,0,1,.41.4,2.67,2.67,0,0,1,.32.48,1.13,1.13,0,0,1,.1.68.75.75,0,0,1-.1.35.73.73,0,0,1-.73.55c-.34,0-.68,0-1,0a13.88,13.88,0,0,1-1.58,0,13.88,13.88,0,0,0-1.58,0c-.33,0-.76,0-1.27,0a1.81,1.81,0,0,1-1.18-.38l-.1-.1a.93.93,0,0,1-.1-1,6.53,6.53,0,0,1,.55-.9,4.22,4.22,0,0,0,.45-.6,2.34,2.34,0,0,0,.24-.71l.05-.15v-12c0-.5,0-1,0-1.53s0-1,0-1.58V4.47a3,3,0,0,0-.28-1.06,4.22,4.22,0,0,0-.68-.8A1.44,1.44,0,0,1,17.49,1a.68.68,0,0,1,.65-.53c.33,0,.66,0,1-.07s.66,0,1,0l1.05,0h2.66c.41,0,.81,0,1.21,0a11.28,11.28,0,0,1,4,1.13,7.39,7.39,0,0,1,3,2.78l0,.1a8.7,8.7,0,0,1,.91,2c.07.27.12.52.18.77s.11.51.17.78a5.35,5.35,0,0,1,.21,1c0,.33,0,.69,0,1v1c0,.17,0,.35,0,.55s0,.4-.08.6,0,.33,0,.5a4.5,4.5,0,0,1-.08.51l-.35,1.3c-.07.24-.12.45-.18.65a4.63,4.63,0,0,1-.17.61c-.24.6-.52,1.23-.85,1.9a6.63,6.63,0,0,1-1.21,1.71,1,1,0,0,0-.3,1.18,11.72,11.72,0,0,1,.45,1.23,4.77,4.77,0,0,1,.22.8c.05.27.11.55.18.85l.25,1a4.35,4.35,0,0,0,.24,1L32,26.79l.4,1.41a6.67,6.67,0,0,1,.15.72,6.47,6.47,0,0,0,.15.68,7.43,7.43,0,0,1,.22.73,1.75,1.75,0,0,0,.18.45,2,2,0,0,0,.28.38C33.49,31.29,33.67,31.46,33.9,31.66Zm-15.45,1.2c.07,0,.09-.11.08-.22s-.07-.1-.13.07S18.41,32.86,18.45,32.86Zm.7-.75c0-.07,0-.09-.07,0s0,.09,0,.15S19.15,32.18,19.15,32.11Zm.1-12.84c-.07,0-.06,0,0,0s.09,0,0,0Zm.2,2.76a1.59,1.59,0,0,1,.07.2c0,.07-.06.08-.22.05l.25.1a.88.88,0,0,0,.1-.23A.49.49,0,0,0,19.45,22Zm-.15,1.25c.17,0,.23-.07.2-.2l-.1,0a.19.19,0,0,0-.1,0v.25Zm.45-2.41c0-.13-.06-.12-.18,0s-.14.29-.08.35.12.1.15.1c0-.23,0-.33,0-.3S19.75,21,19.75,20.87Zm-.25,2.06a.18.18,0,0,1,.1,0l.1,0a.28.28,0,0,1,.18-.1,4.06,4.06,0,0,1,.53.1l-.2-.35Zm0,7.93c.07.17.11.17.13,0s0-.24-.13-.28Zm.15-10.74c-.1-.07-.09,0,0,.12s.17.18.11.08S19.75,20.22,19.65,20.12Zm.45,1.71-.1,0-.1,0v-.15a.08.08,0,0,0-.07,0l-.08,0c-.07.07-.12.1-.15.1a.23.23,0,0,0,.15,0s.05,0,.05,0h.3v0Zm-.45,3.51a.21.21,0,0,0,.15.05l.2-.15c-.07-.07-.12-.09-.15,0a.23.23,0,0,1-.15,0s0,0,0,.05v.05Zm.3-6.17a.2.2,0,0,0-.05.14c0,.07.07.05.1-.07S20,19.1,20,19.17Zm-.05,12c.07.41.14.55.2.45a.57.57,0,0,0,.11-.2c0-.07,0-.1-.08-.1a.26.26,0,0,1-.18-.1V31.2ZM20,15.55s0,0,0,.08a.24.24,0,0,0,.07.12.52.52,0,0,0,.21,0v-.05c-.07,0-.11,0-.13-.08S20,15.48,20,15.55Zm.36,11.09a.25.25,0,0,0-.15-.05l-.2.15.25.15h0a.31.31,0,0,0,0-.13s0-.06,0-.12a.14.14,0,0,0,.1.05v-.05Zm-.26-5.72c.33.07.43,0,.28-.08a.86.86,0,0,0-.28-.17s-.05,0-.05.1A.21.21,0,0,0,20.05,20.92Zm.2.81-.1.3a.27.27,0,0,0,0,.4l.21-.65Zm-.1,11.43c.07,0,.11,0,.12-.1s0-.08-.12,0,0,0,0,0S20.12,33.16,20.15,33.16Zm0-2.4c-.07.17,0,.27.08.3s.19,0,.22-.25c0,0-.07,0-.2,0Zm.2-11.35c-.07,0-.12.12-.18.25s-.06.22,0,.25.12,0,.15,0,.08,0,.15.05.12,0,.17-.05.11-.07.18.1.12,0,.15-.1,0-.22,0-.25a.1.1,0,0,0-.13,0,.24.24,0,0,1-.12.05c-.2.07-.29,0-.28-.05A.24.24,0,0,0,20.35,19.41Zm.4,12.1c-.1-.07-.23,0-.4.2s-.21.3-.14.3.12-.06.17-.18a.58.58,0,0,1,.28-.28Zm-.5.86s0,0,.05,0,.07-.05,0,0Zm.16-10.64a1.45,1.45,0,0,0,.4,0,1.44,1.44,0,0,1,0-.24.76.76,0,0,0,0-.21v-.1c-.07.17-.14.2-.21.08s-.13-.11-.2,0a.49.49,0,0,0,.25.05.16.16,0,0,0,.05.1l-.15.15a.21.21,0,0,1-.15-.05l-.1,0h0Zm-.1,7.17c.1,0,.14,0,.14,0a.77.77,0,0,1,.1-.24h-.1Zm.55-8.13-.15-.2s-.12,0-.25.1,0,.1.1.1h.25c-.07.07-.1.09-.1.07s-.05,0-.15.08,0,.12.05.25c0,0,0-.05,0-.05s0,0,0,0l.05,0h.2A.49.49,0,0,0,20.86,20.77Zm-.31-.6c.2.07.27,0,.2-.08s-.13-.1-.2,0ZM21,22.48l-.18,0a.5.5,0,0,1-.18,0,.88.88,0,0,1,.1.25Zm.24,8.68c.2,0,.26,0,.18-.18a.78.78,0,0,0-.22-.28c-.07-.07-.11-.1-.13-.1s0,0-.07-.1-.07-.09-.1-.08,0,0,0,.08,0,.11-.08.12a.21.21,0,0,0-.18.23c0,.1.07.1.1,0s.07-.13.1-.1.19.14.25.12.08,0,.05.08a.72.72,0,0,1-.18.1C20.85,31.09,20.94,31.13,21.2,31.16Zm-.59.9s.05,0,.07,0,0,0-.07,0Zm0,.7s0,0,0,.05.05.07,0,0Zm0-16.3c0,.1,0,.17.15.2a.19.19,0,0,0,0-.08s0,0,0-.08v0c.07-.13,0-.2-.1-.2Zm.06,1.8c.23.1.28.09.15-.05s-.21-.13-.21,0Zm-.06,8.18c.17.17.29.13.35-.1Zm.25,5.12c.07.07.11.09.13.05a.34.34,0,0,0,0-.18.68.68,0,0,0-.14-.23c-.07-.06-.12-.08-.15,0s-.06.11,0,.22S20.87,31.56,20.9,31.56Zm-.15-2.21a.26.26,0,0,1-.07.18c-.05,0,0,.06.28,0a.7.7,0,0,0,.34-.2.26.26,0,0,1-.4-.1c.1-.1.17-.15.2-.15h.2v-.2a.42.42,0,0,0-.14.1.65.65,0,0,1-.15.1l-.08,0a.08.08,0,0,1-.07,0c-.14,0-.2,0-.18,0S20.72,29.22,20.75,29.35Zm0-4.31.2.15.1-.25Zm0,3.36a.23.23,0,0,0,.05.24c.07.07,0,.14-.1.2a0,0,0,0,1,.05.05.08.08,0,0,1,.1,0s0,0,0,0,.09-.23.05-.3S20.89,28.53,20.75,28.4Zm.21-.2s.1,0,.2-.05v0H21l-.1-.1a.16.16,0,0,1-.05.1C20.87,28.16,20.92,28.2,21,28.2ZM20.86,30c0,.07,0,.09,0,.05a.16.16,0,0,1,.05-.1c.07,0,.11,0,.15,0s0,0,0-.12,0-.14.1-.13.07,0-.1-.07-.07,0-.11,0-.06.2-.07.1S20.89,29.72,20.86,30Zm.3-9.53-.1.2a.87.87,0,0,1-.15.2,1.4,1.4,0,0,0,.4.05v-.05a.31.31,0,0,1-.2,0l.1-.31Zm-.1,3.11c.2-.07.24-.17.14-.3l-.14.1c0-.07,0-.11,0-.13s0,0,0-.07-.11,0-.12,0,0,0-.08,0Zm.2-13.45a.12.12,0,0,1-.15.08q-.11,0-.15.18l.35-.2S21.29,10.08,21.26,10.08ZM21,20.22c0,.07.07.1.2.1,0,0,0-.05.1-.15C21.24,20.1,21.14,20.12,21,20.22Zm.06-10.64h.1a.28.28,0,0,0,0-.15.46.46,0,0,1,0-.14h-.05v.29Zm.3,20.83a.23.23,0,0,0-.18-.13c-.08,0-.12,0-.12.08a.86.86,0,0,0,.22.15C21.4,30.57,21.42,30.54,21.36,30.41Zm0,1.65c0-.07,0-.07-.13,0s-.12.09,0,0l.08,0A.08.08,0,0,1,21.36,32.06Zm.1-3.36s-.12,0-.25,0l.25.21a0,0,0,0,0,.05-.05A.3.3,0,0,0,21.46,28.7Zm-.16,1.05.21-.05-.15-.2a.65.65,0,0,0-.1.15C21.23,29.72,21.24,29.75,21.3,29.75ZM21.36,21a.11.11,0,0,0-.08.13.22.22,0,0,1,0,.17c.07-.1.11-.13.12-.1a.35.35,0,0,0,.08.1l.4-.2-.25-.1a.14.14,0,0,0-.07-.14c-.05,0,0-.09.17-.15a.3.3,0,0,1-.2-.05C21.44,20.91,21.39,21,21.36,21Zm.2,6.87a1.19,1.19,0,0,0-.23.15s.08.05.18.15h0A.27.27,0,0,0,21.56,27.89Zm0,2.46s-.09,0-.15.18-.07.23,0,.23a.2.2,0,0,1,.05.14c0,.07,0,.09.05.05a.3.3,0,0,0,.07-.18,1.07,1.07,0,0,0,0-.25A.26.26,0,0,0,21.56,30.35Zm.1-3.21c0-.13-.1-.14-.2,0s-.07.13.1.1S21.66,27.17,21.66,27.14Zm.05,5.12a2.42,2.42,0,0,1,.45-.1c.23,0,.24-.08,0-.14s-.24-.13-.22-.18-.06-.11-.23-.18-.12,0-.07.1a.45.45,0,0,1-.18.45c-.1.07-.11.09,0,.08Zm-.2-3.11a.17.17,0,0,1,.14.24c0,.14,0,.09.05-.14l.2.2h.18c.08,0,.11,0,.08-.1s-.1-.1-.28-.2A1.06,1.06,0,0,0,21.5,29v.15Zm1.15,1.61q0-.11-.18-.21c-.15-.06-.24-.06-.28,0l0,.05c-.07.07-.18.06-.31,0s-.17-.06-.1.08,0,.09.1.07,0,0,0,.08a.33.33,0,0,0-.2.3c0,.13,0,.12.1,0s.14-.11.24,0,.19,0,.25-.12.1-.07.2,0S22.6,30.93,22.66,30.76Zm-.7-21c0-.07-.06-.09-.18-.07s-.14,0-.07.07a.49.49,0,0,1,.2,0C22,9.82,22,9.8,22,9.73Zm-.2,17.56a0,0,0,0,1-.05.05c.17.17.27.18.31,0S22,27.23,21.76,27.29Zm0-2.35c-.1,0-.1,0,0,.1s.18.07.18,0A.32.32,0,0,1,21.81,24.94Zm.05-16.61a.21.21,0,0,0-.05.24c0,.1.07,0,.11-.2a.82.82,0,0,0,0-.2S21.92,8.19,21.86,8.33Zm.35,11.59c0-.07,0-.1.08-.1s0,0-.28-.1h-.1v0a.9.9,0,0,0,.22.25C22.26,20.12,22.28,20.09,22.21,19.92Zm.35,10.33a.76.76,0,0,0,.24.25c.14.1.18.07.11-.1a.48.48,0,0,0-.11-.15,1.21,1.21,0,0,1-.14-.2,2.21,2.21,0,0,0-.15-.25.12.12,0,0,0-.08,0s0,0,0-.05,0-.13.05-.3,0-.1-.08-.1-.08,0-.08.1l-.1.28s-.07-.06-.2-.13c0,.14,0,.21,0,.23a.16.16,0,0,0,.1,0h.18a.14.14,0,0,1,.14.1c.07.1.1.14.1.13S22.53,30.09,22.56,30.25Zm-.25-1.85c.2,0,.25,0,.15,0s-.12-.13-.05-.2a1.68,1.68,0,0,1,.28-.18c.15-.08.18-.15.08-.22s-.15,0-.25.12a.64.64,0,0,1-.4.22H22c-.07.11,0,.14.1.13s.17,0,.1.08l0,.1Zm-.2.6c0,.07,0,.12.1.15a.12.12,0,0,0,.2,0l-.05,0c-.17,0-.19-.08-.07-.15s.12-.13,0-.2a.15.15,0,0,0-.15.1A.29.29,0,0,0,22.11,29Zm.1-8.08c0,.07,0,.13.08.2s.09,0,0-.14S22.28,20.85,22.21,20.92Zm.25,9.23c-.07-.13-.11-.14-.14,0a.33.33,0,0,0,0,.24C22.41,30.35,22.46,30.28,22.46,30.15Zm0-11a.16.16,0,0,0,.05.1c.17.17.24.21.23.12s0-.19.17-.32,0-.09,0-.15l-.1,0a.18.18,0,0,1-.1,0s0,.09.1.15a.62.62,0,0,1-.25.05h-.06Zm.15-1.26c-.07.07-.08.1,0,.1.23,0,.34,0,.32-.07S22.78,17.88,22.61,17.91Zm0,11.59c-.07.07-.07.1,0,.1s.23,0,.18-.07S22.68,29.43,22.61,29.5Zm.05-9.89c.1.07.18.08.25,0s.07-.11,0-.18-.14-.15-.11-.05,0,.15-.2.15Zm.4,9s0,0,0-.05-.22-.12-.25-.08S22.86,28.57,23.06,28.6Zm.3,1.2c0-.13,0-.14,0,0s-.09.07-.15-.1-.14-.16-.13,0,.1.28.23.28S23.36,29.9,23.36,29.8Zm0-11.49a.67.67,0,0,0-.18-.1c-.08,0-.1,0-.07.05S23.23,18.45,23.36,18.31Zm0,1.76c.07-.07.07-.1,0-.1s-.22.1-.18.2S23.3,20.23,23.36,20.07Zm.06-.46c-.07-.1-.14-.1-.2,0s0,.12.14.05S23.42,19.65,23.42,19.61Zm.2,10c.07-.07,0-.14-.15-.22s-.23-.06-.2.08.07.07.1,0,.07-.06.1,0Zm-.06,3c-.07,0-.07,0,0,0s.08.07.08,0A.06.06,0,0,0,23.56,32.61Zm0-.55c.13.07.2.07.18,0s-.08-.09-.18,0S23.53,32,23.56,32.06Zm4.27-15.9a6.1,6.1,0,0,0,.9-2.11,5.58,5.58,0,0,0,.13-.9,9.06,9.06,0,0,1,.07-.91,3.25,3.25,0,0,0,0-.63c0-.21,0-.42,0-.62s-.07-.53-.1-.78-.08-.51-.14-.78a6,6,0,0,0-.35-1.25c-.07-.17-.14-.34-.23-.53a5.21,5.21,0,0,0-.28-.52c-.13-.17-.26-.34-.38-.53A3.36,3.36,0,0,0,27,6.07a5.24,5.24,0,0,0-1-.72,3.68,3.68,0,0,0-1.23-.43.83.83,0,0,0-.65.13,1,1,0,0,0-.28.44,1.75,1.75,0,0,0,0,.61c0,.21,0,.42,0,.62s0,.41,0,.61a2.41,2.41,0,0,0,0,.6v.25c0,.37,0,.73,0,1.11a8.08,8.08,0,0,0,0,1.1c0,.37,0,.74-.05,1.11a7.36,7.36,0,0,0,0,1.15,6.72,6.72,0,0,1,.05.73v.73c0,.37,0,.74,0,1.13a8.53,8.53,0,0,0,0,1.13c0,.13,0,.32,0,.58a4.69,4.69,0,0,0,0,.75,1.32,1.32,0,0,0,.17.62.46.46,0,0,0,.51.2,3,3,0,0,0,1.13-.34,5.45,5.45,0,0,0,1-.65c.3-.28.53-.48.7-.63A3.93,3.93,0,0,0,27.83,16.16Zm-2,4.81c0,.07,0,.09,0,.08s0-.07,0-.13S25.74,20.94,25.78,21Zm2.85,3.57s.06,0,.08,0,0-.05-.08-.05ZM29,22.28a.26.26,0,0,0-.1-.2l-.16.14.25.1v0Zm-.06,6.12a.48.48,0,0,0,.18,0c.05,0,0-.06,0-.12a.32.32,0,0,0-.25,0C28.73,28.32,28.76,28.37,28.93,28.4Zm.16-4.29c0-.12,0-.11-.1,0v.2A.22.22,0,0,0,29.09,24.11Zm.2,4.89a.3.3,0,0,0-.2-.05v.15h.2Zm-.1-.91a.22.22,0,0,0,.15.13c.06,0,.08-.06,0-.23a1.15,1.15,0,0,0,0-.14c0-.07-.06-.09-.13-.05s.06.16,0,.18S29.12,28,29.19,28.09Zm.19-4.26c0-.07,0-.08-.12,0s-.14.09-.08.15S29.29,23.93,29.38,23.83Zm.06,3.61c0,.07.07.17.3.31.07.07.09.06.07,0a.55.55,0,0,1,.08-.32l.05,0a.2.2,0,0,0-.2-.22C29.61,27.1,29.51,27.21,29.44,27.44ZM29.68,31a.39.39,0,0,0,.25.12c.1,0,.07,0-.1-.12s-.12-.13,0-.18,0-.06-.14,0-.08.07,0,.1A.13.13,0,0,1,29.68,31Zm.2-5s0,0,0,0-.07,0,0,0ZM30,28.45a.92.92,0,0,1-.08-.3s0,.07-.18.2Zm0-4.17c.07-.13.08-.19.05-.18s-.09,0-.15-.18l-.05,0Zm.45,5.93.14-.1c0-.07,0-.1-.1-.1a1.18,1.18,0,0,0-.34,0c.07,0,.1.06.1.08a.18.18,0,0,0,0,.08c0,.1,0,.17,0,.2Zm-.25,1.65c.1.07.13,0,.1-.07s-.08-.14-.15-.08v.1S30.2,31.86,30.24,31.86Zm.45-2.11a.92.92,0,0,0-.35-.08.44.44,0,0,0-.1.23c.07-.07.13-.09.2,0s.11.08.13,0S30.62,29.79,30.69,29.75Zm-.05-2.41c0-.17-.07-.27-.2-.3l.2.35Zm-.1,3.32.05-.05a.14.14,0,0,1,0-.1l.11-.1c-.07,0-.11,0-.11-.05a.9.9,0,0,0-.12.18Q30.44,30.66,30.54,30.66Zm.3-1.31c0-.13-.08-.2-.34-.2Zm-.2-3.16c-.1.13-.14.22-.12.25s0,0,.08,0a.59.59,0,0,0,.14-.12C30.74,26.24,30.7,26.19,30.64,26.19Zm.05,5a.25.25,0,0,0,.15-.3.27.27,0,0,0,0-.35h0a.67.67,0,0,0-.13.32A.8.8,0,0,1,30.69,31.16Zm.1-4.26a.54.54,0,0,1,.05.24l-.1.1c0,.1.08.1.14,0a.14.14,0,0,0,.1,0l.1-.1,0-.05a.16.16,0,0,0-.1-.05l-.1-.1Zm.35,2.6a.78.78,0,0,0-.05-.3l-.2.1-.05.05Zm.05,1.81c-.13.1-.11.13.08.1s.24-.09.18-.15S31.29,31.2,31.19,31.31Zm.3-.45a.9.9,0,0,1,0-.28s.11-.08.28-.08a.24.24,0,0,0-.25-.15.78.78,0,0,0-.3,0s-.05.07-.05.2c.17,0,.22,0,.18,0s-.05-.11,0-.18.12.12.08.15S31.42,30.69,31.49,30.86Zm-.15,1.2c0-.07,0-.07,0,0s0,.07.07,0Zm.3-4h-.2c-.07,0-.09.07-.05.2A.61.61,0,0,0,31.64,28.05Zm.16,3.71s0,0,0,0,.07,0,0,0Zm.14-.3c.17.1.29.07.35-.1s0-.17-.3,0A.16.16,0,0,0,31.94,31.46Zm.4-1.51s0-.08,0-.15l-.2.25v.05Zm.41,1.19c.07-.12,0-.11-.15,0s-.05,0-.05,0v.11C32.62,31.31,32.68,31.25,32.75,31.14Z"/>
            <path fill="currentColor" d="M43.49,1.5a1.54,1.54,0,0,1-.25.73,5.52,5.52,0,0,1-.43.53,4.2,4.2,0,0,0-.42.6,2.3,2.3,0,0,0-.25.95V21.53c0,.17,0,.31,0,.44a2.93,2.93,0,0,0,0,.41V26.9c0,.47,0,1,0,1.45s0,1,0,1.45a1.62,1.62,0,0,0,.4,1.38c.13.15.29.31.45.48a1.84,1.84,0,0,1,.4.65,1.39,1.39,0,0,1,0,1.21,1.25,1.25,0,0,1-1.11.45c-.33,0-.64,0-.93,0h-.93l-1.05,0a7.44,7.44,0,0,0-1,0,4.41,4.41,0,0,1-.91,0l-.85,0a.89.89,0,0,1-.8-.7A1.33,1.33,0,0,1,36,32.16l.44-.6a3.48,3.48,0,0,0,.41-.65,4.38,4.38,0,0,0,.34-2c0-.74-.06-1.43-.1-2.06s0-1.41,0-2.11,0-1.42,0-2.15c0-.38,0-.75,0-1.16s0-.79,0-1.15V18.77c0-.76,0-1.52,0-2.26V9.89q0-.11,0-.12a.31.31,0,0,0,0-.13c0-.37,0-.73,0-1.07V4a2.19,2.19,0,0,0-.3-.78,5.28,5.28,0,0,0-.42-.5,3.31,3.31,0,0,1-.41-.5,1.91,1.91,0,0,1-.22-.79.94.94,0,0,1,.15-.72,1.11,1.11,0,0,1,.55-.33,2.28,2.28,0,0,1,.75-.08l.75,0h4.21a2.44,2.44,0,0,1,1.06.2C43.45.64,43.55,1,43.49,1.5Zm-6.58,31s0,.07.08.1.07,0,.07,0c-.1-.31-.23-.46-.4-.48S36.58,32.21,36.91,32.51Zm.25-.4c.07,0,.08-.08,0-.12s-.08,0-.08.07Zm.21.75c.07.07.12,0,.17,0a.7.7,0,0,0,.08-.2c-.07-.1-.14-.11-.22,0A.18.18,0,0,0,37.37,32.86Zm.34-1.66c0-.06,0-.1-.17-.1s-.18,0-.08.1Zm.15,2a.12.12,0,0,0,.08-.14.13.13,0,0,0-.13-.11.31.31,0,0,0-.12.21C37.68,33.22,37.73,33.23,37.86,33.16Zm0-.79c0-.07,0,0,0,.1s0,.14.08,0a.19.19,0,0,0,0-.08A.05.05,0,0,1,37.81,32.37Zm.55,0s.06-.07.06-.21-.17-.07-.2,0-.09,0-.15-.1-.19.07,0,.18S38.26,32.4,38.36,32.37Zm-.1-11.55c-.07-.17-.14-.18-.22,0s0,.18.12.14S38.26,20.89,38.26,20.82Zm-.14,10.49c0-.11,0-.16,0-.18s-.06,0,0,.18,0,0,0,0S38.12,31.34,38.12,31.31Zm.45-10.74s0-.08-.11-.13-.1,0-.1,0C38.43,20.71,38.5,20.74,38.57,20.57Zm-.11,5.16s0,0,0,0a.06.06,0,0,0,.06-.05s0-.08-.11-.15-.1,0-.1.05A.3.3,0,0,0,38.46,25.73Zm.06-4.46c.1-.13.17-.17.2-.1s.07.07.1,0v-.05c-.17-.1-.27-.1-.3,0S38.48,21.24,38.52,21.27ZM38.77,20s-.1,0-.2.2-.11.21,0,.15h0l.18-.18C38.84,20.14,38.84,20.09,38.77,20Zm.2,2.81c-.07,0-.15,0-.25,0l.12.15c.06.07.1.1.13.1v-.05A.16.16,0,0,1,39,22.83ZM39,24.68c0-.1,0-.11-.1,0s-.08.09,0,.17a.39.39,0,0,0,.18.18.31.31,0,0,0,0-.15A.35.35,0,0,1,39,24.68ZM39,33c-.1.1-.15.17-.15.2s0,0,.07,0a.36.36,0,0,0,.15-.1c.06,0,.06-.08,0-.08S39.08,33,39,33Zm0-7.33a.22.22,0,0,0-.08.2c0,.07,0,.1.08.1a.43.43,0,0,1,0-.15l.1-.2Zm.1,5a.55.55,0,0,0,.25-.21l0,0c-.17.07-.25.14-.27.22S39.05,30.73,39.12,30.66Zm.4-5.32a.12.12,0,0,1,0-.08s0,0,0-.07a.18.18,0,0,0-.1,0l-.1,0a.3.3,0,0,0-.2.05s0,0,.05,0h.31Zm-.1,4.77.13.07s0,0,0-.17-.1-.05-.2-.05c-.13.27-.17.37-.1.3A.55.55,0,0,1,39.42,30.11Zm-.15-9.94c0,.1,0,.17,0,.2a.08.08,0,1,0,.15-.05.55.55,0,0,1-.1-.18.32.32,0,0,1,.1-.12C39.35,20,39.3,20,39.27,20.17Zm.2,5.77q-.26,0,0,.3h.05a.3.3,0,0,0,0-.15A.28.28,0,0,1,39.47,25.94Zm.2-8.08a1.2,1.2,0,0,1-.3.15s0,0,.2.1a.19.19,0,0,0,0-.1A.43.43,0,0,1,39.67,17.86Zm.2,5.37c0-.17-.11-.25-.35-.25l.21.3h.05A.12.12,0,0,0,39.87,23.23Zm.15,8,0-.1h-.45v0s0,.05.05.05a.35.35,0,0,0,.18-.05A.15.15,0,0,1,40,31.2Zm.1-11-.45-.1v.1a1.64,1.64,0,0,0,.45,0Zm0,4.51v-.1l-.3-.4-.05.05.1.14c.1.1.15.17.15.2a.11.11,0,0,0,.05.1h0Zm0,.86a2,2,0,0,0-.2-.35s-.06,0-.07,0a.33.33,0,0,0,0,.2.3.3,0,0,0,.07.18.19.19,0,0,0,.1,0A.19.19,0,0,1,40.07,25.54Zm0-4.22a.28.28,0,0,1,0-.2.22.22,0,0,0-.08-.2h-.05a.85.85,0,0,0,.1.4ZM41,25.79c.1,0,.11-.07,0-.1s-.1,0-.07,0S40.94,25.79,41,25.79Z"/>
            <path fill="currentColor" d="M60.35,17.31a1.69,1.69,0,0,1,.85.08.58.58,0,0,1,.32.42,2.24,2.24,0,0,1,.06.71c0,.27,0,.55,0,.85s0,.57,0,.9a2.73,2.73,0,0,1-.08.85.57.57,0,0,1-.35.43,1.33,1.33,0,0,1-.53.05l-.55-.05a.84.84,0,0,0-.48.08l0,0a1,1,0,0,0-.25.75v6.27A2.82,2.82,0,0,0,59.55,30a2.53,2.53,0,0,1,.3,1.13,1.19,1.19,0,0,1-.12.73,1.88,1.88,0,0,1-.58.52,5.53,5.53,0,0,1-.75.35c-.34.13-.69.27-1.06.38l-1.07.33a7.24,7.24,0,0,1-.83.2,3.57,3.57,0,0,1-.73.12l-.72.08a8.66,8.66,0,0,1-1.51,0A13,13,0,0,1,51,33.56l-.65-.2a5,5,0,0,1-.6-.24l-.16,0-.4-.2a1.78,1.78,0,0,1-.32-.2,2.39,2.39,0,0,0-.33-.2,5.35,5.35,0,0,1-1.27-1.16,12,12,0,0,1-1-1.41,7.62,7.62,0,0,1-.73-1.4c-.22-.54-.41-1-.58-1.51a22,22,0,0,1-.63-2.76c-.15-.94-.25-1.89-.32-2.87a1.27,1.27,0,0,0,0-.28,1.8,1.8,0,0,1,0-.22v-.34c0-.23,0-.45,0-.65s0-.4-.08-.6,0-.34,0-.51a4.19,4.19,0,0,0,0-.5A4.48,4.48,0,0,1,43.84,17c0-.57.07-1,.1-1.31a11.2,11.2,0,0,0,.13-1.23,11.1,11.1,0,0,1,.12-1.23c0-.27.06-.53.08-.78a4.48,4.48,0,0,1,.12-.78,7.2,7.2,0,0,1,.3-1.65L45,8.82a10.15,10.15,0,0,1,.41-1.21c.13-.37.27-.71.4-1s.29-.65.45-1a13.65,13.65,0,0,1,1.68-2.68A7.93,7.93,0,0,1,50.26.84,4.73,4.73,0,0,1,52.62,0h.1l.43,0,.43.08a2.53,2.53,0,0,1,.77.12l.77.28.88.3a.81.81,0,0,0,.5.05A1.45,1.45,0,0,0,57,.67c.17-.12.43-.3.8-.53s.43-.19.58-.05a1.16,1.16,0,0,1,.33.61,6.42,6.42,0,0,1,.08.68c0,.28,0,.59,0,.9V7.37a3.73,3.73,0,0,1,0,.91c-.06.23-.3.42-.73.55a.94.94,0,0,1-.93-.08,1.47,1.47,0,0,1-.53-.83c-.06-.33-.13-.63-.2-.9s-.14-.57-.24-.91-.2-.58-.31-.85a5.82,5.82,0,0,0-.4-.85A5.67,5.67,0,0,0,54.12,2.9a2.15,2.15,0,0,0-1.9-.35,2.66,2.66,0,0,0-1.07.61,3.52,3.52,0,0,0-.71,1A4.76,4.76,0,0,0,50,5.26c-.09.4-.16.81-.22,1.21l-.15,1c0,.17-.06.34-.08.54s0,.39,0,.55l-.1,1.11-.15,2v.62a4.23,4.23,0,0,1,0,.63,5,5,0,0,1,0,.53c0,.18,0,.35,0,.52,0,.37,0,.73,0,1.08V17.6a1.51,1.51,0,0,1,0,.3,1.67,1.67,0,0,0,0,.31,2.58,2.58,0,0,1,0,.45v.9a3.49,3.49,0,0,0,0,.35,1.53,1.53,0,0,1,0,.3v.95a5.34,5.34,0,0,0,0,.55,5.43,5.43,0,0,1,0,.55.43.43,0,0,1,0,.23.32.32,0,0,0,0,.22,2.57,2.57,0,0,0,0,.55l.1,1.35c0,.27.07.52.1.75a7.51,7.51,0,0,0,.14.75c0,.27.07.51.08.73a4.52,4.52,0,0,0,.13.73c.13.47.24.87.32,1.23A6,6,0,0,0,50.72,30a3.18,3.18,0,0,0,1.05,1.23,2,2,0,0,0,1.61.12,1.75,1.75,0,0,0,.91-.62,2.55,2.55,0,0,0,.4-1,5.56,5.56,0,0,0,.1-1.1V24.51a3.32,3.32,0,0,1,0-.38,1,1,0,0,0,0-.38V22.18a5,5,0,0,0-.2-1.46,1.45,1.45,0,0,0-.75-.9,2.56,2.56,0,0,0-1.76.07l-.75.3a2.3,2.3,0,0,1-.65.21.51.51,0,0,1-.42-.23.55.55,0,0,1-.13-.48V18.54a1.69,1.69,0,0,0,0-.43,1.25,1.25,0,0,1,0-.42,1,1,0,0,1,.45-.81,1.29,1.29,0,0,1,.55-.34,3.29,3.29,0,0,1,.6-.15,5.79,5.79,0,0,1,1.31-.15h.52a3,3,0,0,1,.53.05l2,.45,2.1.5a7.49,7.49,0,0,0,1.08.15A5.76,5.76,0,0,0,60.35,17.31ZM44.84,21.87s0,0-.08,0-.09-.09,0-.25c-.13,0-.17.12-.1.25S44.71,21.94,44.84,21.87Zm-.15-3.25s0,0,0,0l.15.2h.05v-.2a.11.11,0,0,1-.08,0S44.72,18.62,44.69,18.62Zm.75,2.45-.24-.25-.1.2C45.16,21.15,45.27,21.17,45.44,21.07Zm.25,5a0,0,0,0,0,.05-.05c-.17-.07-.24,0-.23.05s-.09.14-.32.14c0,0,0,0,0,.1a.36.36,0,0,1,.08.15c.27-.17.35-.28.28-.32S45.52,26,45.69,26Zm-.45-5.52a.19.19,0,0,1,0,.08s0,0,0,.07l.1.11C45.39,20.67,45.37,20.59,45.24,20.52Zm.3.91s0-.07,0-.08a.15.15,0,0,0,0-.08s0-.05-.05-.05l-.2.25.3.15,0-.05Zm-.15-1.82c.13,0,.21-.07.22-.1a.66.66,0,0,0,0-.3Zm.15-5.71V14c.17,0,.22,0,.16-.15s-.12-.15-.16,0ZM46,22.83s0,0,.12,0a.56.56,0,0,0,.18-.11A.2.2,0,0,0,46,22.83ZM46,20a.41.41,0,0,1,0,.14.31.31,0,0,0,0,.15C46.16,20.19,46.18,20.09,46,20Zm.4,7-.1-.2a.92.92,0,0,0-.35-.05Zm0,.85a.16.16,0,0,0,.1,0,.08.08,0,0,0,.07,0,.15.15,0,0,1,.08,0,.49.49,0,0,0,0-.15.26.26,0,0,1,0-.14c-.1,0-.14,0-.12,0a.32.32,0,0,1,0,.15s0,.07-.1.1S46.33,27.86,46.4,27.89Zm.34-4.81H46.5l.2.25c0-.07,0-.11,0-.13S46.74,23.14,46.74,23.08Zm-.1-5.83a.3.3,0,0,1,0,.15.32.32,0,0,0,0,.15s0,0,.14.1a1.2,1.2,0,0,0,0-.4Zm0,9.89c0,.1,0,.14.14.13l.25,0L46.74,27ZM46.9,11a2.49,2.49,0,0,0-.25.45l.3-.14A.64.64,0,0,1,46.9,11Zm-.26,10.34v.35h.06l.14-.35Zm.41,1.25c-.07-.27-.11-.41-.11-.44l-.1.1-.14-.21v.11l.3.44Zm-.31,5.07a.22.22,0,0,1,.18-.12c.09,0,.11-.08.08-.18h0A.28.28,0,0,0,46.74,27.69Zm.06.61c.1,0,.14-.07.14-.21h0Q46.69,28.09,46.8,28.3ZM47.05,21l.1-.25,0-.1c-.07.2-.15.22-.25.05v0Zm.3-2.51c-.1-.13-.24-.13-.41,0l.15.25h.1l-.1-.2A.5.5,0,0,0,47.35,18.46Zm0,2.66a1.72,1.72,0,0,0-.45,0l.25.2Zm-.25-1.3L47,20a.31.31,0,0,0,.2,0v-.2Zm0,6.42a.29.29,0,0,0,0,.14s0,.09-.1.15l.35-.1A.32.32,0,0,0,47.15,26.24Zm-.1,2.86c.1-.17.13-.26.12-.28a1.1,1.1,0,0,1,.28.08c.17,0,.19,0,.07-.15a.34.34,0,0,0-.42-.1s0,0,0,0,0,0,0,.08a.49.49,0,0,0-.05.2.5.5,0,0,0,0,.15S47,29.13,47.05,29.1Zm.45-10.24a.78.78,0,0,1-.35.21l.2.14a.84.84,0,0,1,.21-.35Zm0,.75h-.35l.2.25ZM47.15,25l.15.1s0,.05,0,.05,0,0,0,.05l.06,0,.15-.24Zm0,3h.15c.07,0,.09.05.08.15a.16.16,0,0,0,.12.2h.1v0a1.73,1.73,0,0,1-.1-.28q0-.18-.15-.18C47.28,27.82,47.22,27.86,47.15,28Zm.15-.75a1.2,1.2,0,0,1,.35-.2l-.4-.2a.73.73,0,0,0,0,.35Zm0-6.87a1,1,0,0,1,.35,0,.8.8,0,0,0,0-.31l-.2.11.1.14h-.2v.1Zm.25,9.13s.11,0,.25,0,.2-.12.2-.22,0-.1-.1-.08a.2.2,0,0,0-.15.12c-.07.07-.16.05-.28,0s-.11-.05,0,.14c0,0,0,.05,0,.05S47.55,29.47,47.55,29.5Zm0-12.35a.63.63,0,0,1-.06.31l.25-.21A.28.28,0,0,0,47.55,17.15Zm0,3.37h-.06a2.5,2.5,0,0,1,.1.4s.07,0,.21,0a.37.37,0,0,1-.06-.15.14.14,0,0,0,0-.1Zm.25-1.35h-.1l.1.2a.16.16,0,0,1-.1-.05h-.05l-.1.15c.17-.07.25,0,.25.1l.14.15h.15v0ZM47.55,24c.26,0,.38-.07.35-.2h-.2C47.73,23.93,47.68,24,47.55,24Zm.2,6.77s0-.07-.1-.12-.1,0-.1.18,0,.14.15.24v0A.49.49,0,0,1,47.75,30.8Zm-.1-.85q.3.11.3,0c0-.07-.07-.13-.2-.2C47.65,29.85,47.62,29.92,47.65,30Zm.35-1.6a.49.49,0,0,1-.2-.1c-.1-.07-.12,0-.06.1S47.93,28.41,48,28.35Zm-.15-.3a.84.84,0,0,0,.22.28s.09,0,.1,0a.13.13,0,0,0,0-.07s0,0,0,.07a.56.56,0,0,1,.13.18.67.67,0,0,0,.08.18c.1-.17.13-.23.1-.2s-.1,0-.21-.2-.06-.09,0-.15l.21.1v-.05a.43.43,0,0,0-.41-.2.52.52,0,0,1,0-.18.72.72,0,0,0,0-.17l0-.05a1.73,1.73,0,0,0-.2.28,2.47,2.47,0,0,0,.2.28c.1.13.1.14,0,0S47.92,28,47.85,28.05Zm.3,1A.78.78,0,0,0,48.5,29c.1,0,.12-.14,0-.28s0,0-.14,0-.14.12-.13.15,0,0-.12-.05-.16.07-.16.2A.19.19,0,0,0,48.15,29.05Zm.15-3.71c-.07.07-.12.1-.15.1l.3.25ZM48.2,27c-.07.17-.06.24,0,.23a.23.23,0,0,1,.23.07l0,0Zm0-2.3,0,.1,0,0h.4v0ZM49,28a.45.45,0,0,0-.23-.13c-.08,0-.11-.09-.08-.22-.07.13-.12.19-.17.18a.56.56,0,0,1-.18-.13s0,.05,0,.05,0,0,0,.05a.14.14,0,0,1,.1,0,.16.16,0,0,0,.1.05c.13,0,.22,0,.25.1S48.89,28.05,49,28Zm-.1-8a.48.48,0,0,1-.18,0l-.18,0,.15.25ZM49,29.15a.83.83,0,0,1-.32-.08s0,0,0,0a1,1,0,0,1,0,.15q0,.11-.12.3c.23.07.31.09.22.05s0-.13.13-.3.1-.12.1-.15h0Zm-.2-2c.07-.07.09-.11.05-.14a1,1,0,0,1-.1-.15C48.62,27,48.64,27.07,48.8,27.14Zm0,3a1.2,1.2,0,0,0,.28.14s0-.08,0-.24l.25-.11-.25-.14-.1-.2-.14.14.2.15-.15.2C48.83,30.05,48.8,30.07,48.8,30.11Zm.2-1.86a1.25,1.25,0,0,1,0,.35h0l.1-.05a.52.52,0,0,0,0-.18.27.27,0,0,1,0-.12Zm.1.85a.32.32,0,0,1,.25.1l.2-.35V28.8Zm.25,2.51c.13,0,.12-.1,0-.2s-.23-.12-.23-.05l.06.05c.17.07.23.1.2.1S49.32,31.55,49.35,31.61Zm-.19-3.11.3-.2v-.1ZM49.45,30c-.1.13-.12.23-.08.28s.08,0,.08,0Zm0-.55a.9.9,0,0,1,.23-.15s0,0-.08-.14A.43.43,0,0,0,49.45,29.4ZM50.66,33c.07.13.11.12.12-.05s-.08-.28-.28-.34h-.15l.12.1A.61.61,0,0,1,50.66,33Zm-.1-.8c-.07-.07-.11,0-.13,0s0,.09.08,0S50.56,32.2,50.56,32.16Zm0-.55a.07.07,0,0,0,.1,0s0-.05,0-.05Zm.4,1.1c.1,0,.15,0,.15-.1s-.07-.07-.2,0S50.94,32.71,51,32.71Zm4.07-.9q.2,0,.24,0l.21-.2c-.07-.13-.12-.17-.15-.1a.54.54,0,0,1-.25.2.32.32,0,0,1-.15-.13s0,0,0,.13S55,31.81,55.08,31.81Zm1.25-2.46c-.07-.17-.13-.14-.2.08s-.07.29,0,.22a1.13,1.13,0,0,0,.18-.12A.17.17,0,0,0,56.33,29.35Zm-.25,1.1c.17,0,.27,0,.3-.1-.17.1-.23.11-.2,0s0-.11,0-.08S56.08,30.35,56.08,30.45Zm1.2-1.35q-.2,0-.18,0a1.68,1.68,0,0,1,.13.3l.15-.25h-.05Zm.06,1c.2.07.3,0,.3-.2s-.12-.08-.16-.05Z"/>
            <path fill="currentColor" d="M81.31,10.38a.7.7,0,0,1,.51.35,1.59,1.59,0,0,1,.1.61c0,.63,0,1.26,0,1.9a1.57,1.57,0,0,1-.28,1,3.3,3.3,0,0,1-.93.61c-.53.27-.81.55-.83.87s0,.73,0,1.23v5.52a3,3,0,0,1,0,.85,4,4,0,0,0,0,.85,2.4,2.4,0,0,1,0,.62q0,.38,0,.63v3c0,.23,0,.46,0,.68a3.92,3.92,0,0,0,0,.68,1.76,1.76,0,0,0,.18.85,3.32,3.32,0,0,0,.38.55l.43.53a2,2,0,0,1,.32.68,1.84,1.84,0,0,1,0,.95.77.77,0,0,1-.83.5c-.39,0-.75,0-1.08,0a9,9,0,0,0-1.17,0c-.42,0-.82,0-1.18.07h-.1l-1.28,0a5,5,0,0,1-1.23-.08.87.87,0,0,1-.75-.88,2.08,2.08,0,0,1,.4-1.23l.33-.4.25-.3a1.68,1.68,0,0,0,.2-.35,3.26,3.26,0,0,0,.12-.6l.05-.3a3.19,3.19,0,0,0,0-.65,5.51,5.51,0,0,1,0-.81v-9a1.62,1.62,0,0,0-.13-.8.31.31,0,0,0-.37-.15,1.84,1.84,0,0,0-.58.25c-.22.13-.43.25-.63.35L72,19.48,70.88,20a1.52,1.52,0,0,0-1,1,4.78,4.78,0,0,0,0,1.48c0,.57,0,1.11,0,1.63s0,1.06,0,1.63q0,.3,0,.6c0,.21,0,.41,0,.61V28a9.56,9.56,0,0,1-.05,1.05c0,.2,0,.49,0,.85a1.86,1.86,0,0,0,.18.81,2.35,2.35,0,0,0,.48.6A2.55,2.55,0,0,1,71,32a2.86,2.86,0,0,1,.28.55,1.13,1.13,0,0,1-.08.65,1,1,0,0,1-.6.6,2.81,2.81,0,0,1-1,.08l-1.11,0-1.1,0q-.56,0-1.11,0h-.45l-.83.08-.82,0a.72.72,0,0,1-.63-.8A2.21,2.21,0,0,1,63.8,32a5.4,5.4,0,0,1,.71-1,2,2,0,0,0,.4-1.15,1.56,1.56,0,0,0,0-.48c0-.15,0-.31,0-.48,0-.4,0-.8,0-1.21a9.61,9.61,0,0,0,0-1.2V23.31a7.37,7.37,0,0,0,0-.82.66.66,0,0,0-.41-.63,1.47,1.47,0,0,0-.58-.1,6.13,6.13,0,0,1-.62,0,.83.83,0,0,1-.51-.2.79.79,0,0,1-.2-.62c0-.27,0-.51,0-.73s0-.46,0-.73v-.68a5.45,5.45,0,0,0,0-.68,1.15,1.15,0,0,1,.2-.8.69.69,0,0,1,.5-.28q.3,0,.6,0a1.7,1.7,0,0,0,.53-.07.72.72,0,0,0,.38-.43,1.57,1.57,0,0,0,.08-.7q0-.51,0-.75V11.31a7.7,7.7,0,0,1,0-1.07c0-.35,0-.71,0-1.08V7.06c0-.27,0-.54,0-.83s0-.56,0-.83,0-.41,0-.63a6.17,6.17,0,0,0-.08-.62,2.39,2.39,0,0,0-.33-.93,4.66,4.66,0,0,0-.45-.58,5.25,5.25,0,0,1-.4-.53,1.58,1.58,0,0,1-.18-.82,1,1,0,0,1,.23-.73,1.11,1.11,0,0,1,.58-.3,2.08,2.08,0,0,1,.75,0,6.9,6.9,0,0,0,.75.05h5.11c.24.1.35.39.35.85a2.45,2.45,0,0,1-.15,1,1.8,1.8,0,0,1-.35.48,3.41,3.41,0,0,0-.38.38,1.63,1.63,0,0,0-.3.48,2.49,2.49,0,0,0-.18.78V8.67c0,.41,0,.82,0,1.23s0,.85,0,1.28v1.71a3,3,0,0,0,0,.45c0,.13,0,.29,0,.45s0,.4-.05.8a1.45,1.45,0,0,0,.05.75.49.49,0,0,0,.7.2,5.26,5.26,0,0,0,.76-.4l1.3-.65.65-.4c.27-.17.58-.35.93-.55a1.18,1.18,0,0,0,.63-.8,5.38,5.38,0,0,0,0-1c0-.49,0-.84,0-1.07v-6A5.45,5.45,0,0,0,74.82,4a1.53,1.53,0,0,0-.25-.81,1.75,1.75,0,0,0-.4-.44,2.77,2.77,0,0,1-.35-.33A1.18,1.18,0,0,1,73.6,2a2.41,2.41,0,0,1-.08-.73q0-.84.45-.9c.3,0,.69,0,1.15,0h2.69c.88,0,1.76,0,2.63,0,.33,0,.53,0,.6.1a1.17,1.17,0,0,1,.15.6,2.24,2.24,0,0,1,0,1.11,1.81,1.81,0,0,1-.42.6,4.25,4.25,0,0,0-.53.58,1.88,1.88,0,0,0-.3,1V7.74c0,.07,0,.23,0,.5s0,.54,0,.83v.77a.78.78,0,0,0,.06.41.6.6,0,0,0,.7.22A1.67,1.67,0,0,1,81.31,10.38ZM63.7,20.17c0-.07,0-.09,0-.08s0,.07,0,.13ZM64.31,18c-.07,0-.13,0-.18.13s0,.22.22.32.3.13,0-.1c-.13-.1-.17-.17-.1-.2A.1.1,0,0,0,64.31,18Zm0,2.31c-.07-.07-.1-.08-.1,0s0,.07.1.07Zm.2-.71c.23,0,.28,0,.12-.12s-.24-.11-.28,0S64.41,19.61,64.51,19.61Zm.1.56s0,0,0-.1,0-.21,0-.22-.07,0-.1,0a.35.35,0,0,0-.06.18C64.45,20.13,64.51,20.17,64.61,20.17Zm.1,12.95s.05,0,.05,0,0-.09-.05,0ZM65,21c0-.07,0-.1,0-.1a.21.21,0,0,0-.1.25Q64.86,21.27,65,21Zm.5-.8v-.1a1.54,1.54,0,0,1-.28-.18c-.12-.08-.18,0-.18.13h0a.31.31,0,0,1,.2.14.09.09,0,0,0,.15.05Zm.15-.8c-.27-.27-.44-.39-.55-.35s0,.18.35.45l.15.1.15-.1a0,0,0,0,1,0,0Zm-.45,5.71c.13.07.18.05.14,0s-.08-.12-.14-.05S65.09,25.08,65.16,25.08Zm0-6.62h.06c.17-.1.21-.11.14,0s0,.13.1.2.07-.16,0-.28S65.31,18.26,65.21,18.46Zm.05,2.71s0,0,.15,0,.08-.11,0-.18-.11,0-.13.05A.17.17,0,0,0,65.26,21.17Zm.25,8.58c.14.07.19,0,.15-.12s-.08-.14-.15,0Zm.15-1.15c-.07,0-.08,0,0,.18s.07.13.07,0a.11.11,0,0,0,0-.08A.08.08,0,0,1,65.66,28.6Zm0-10.24c.17,0,.21-.15.1-.35a.19.19,0,0,0-.1,0Zm.33,3.37c.12,0,.09,0-.08-.1a.21.21,0,0,0-.15-.05c-.07,0-.09,0,0,.1v.05ZM65.76,27c-.07-.1-.08-.1-.05,0s.07.12.1.05A0,0,0,0,0,65.76,27Zm0-.55c.1-.07.11-.1,0-.1s-.11,0-.08.1S65.81,26.52,65.81,26.49Zm.1-6.12c.07.07.1.12.1.15h0a.78.78,0,0,0,0-.3h0Zm.15-5.17c-.07.24-.07.34,0,.31a.52.52,0,0,1,.06-.18c0-.09,0-.13,0-.13S66.06,15.17,66.06,15.2Zm.2,10.43c0-.07,0-.1-.1-.1s-.07.13,0,.18S66.23,25.73,66.26,25.63Zm-.1,4.88c.17.07.3.08.38,0s0-.08-.28-.08h-.12S66.09,30.47,66.16,30.51Zm.1-12.15c-.07.13-.09.2-.07.2a1.13,1.13,0,0,0,.22-.1.21.21,0,0,0-.1-.12S66.26,18.33,66.26,18.36Zm0,3.21a.57.57,0,0,1-.05.61.37.37,0,0,1,.2-.05v-.5l-.1-.05h0Zm.31-2.5c-.07-.17-.17-.25-.31-.25l.15.25ZM66.31,29a0,0,0,0,0,0,.05c.07.1.14.13.23.1s0-.09-.13-.15Zm.3-8.68.51-.15-.41-.2s0,.05,0,.05.11.1.15.1v0a1.72,1.72,0,0,0-.45,0v0Zm.16,11.84c.07,0,0-.07-.08-.1s-.12,0,0,0A.14.14,0,0,0,66.77,32.16Zm0-16.51a.73.73,0,0,0-.1.3c.07,0,.1,0,.1,0a2,2,0,0,1,.1-.28Zm.1,3.11-.1.2.3-.14a.25.25,0,0,0-.1-.15Zm.25,2q-.16-.15-.18,0c0,.09-.06.13-.13.13a.18.18,0,0,1,.06.1.41.41,0,0,0,0,.15.29.29,0,0,0,.1-.21ZM66.81,31c.07.23.12.28.16.12a.35.35,0,0,0-.16-.38Zm.36-7.23a.48.48,0,0,0-.15.1.16.16,0,0,1-.1.05H67c.17.07.24.09.24.08S67.2,23.86,67.17,23.73ZM67,26.14c.11,0,.17,0,.21-.05L67,26C66.87,25.91,66.88,26,67,26.14Zm.16-3.82-.2-.14s0,0-.06,0l.15.3Zm0-2.4a.83.83,0,0,0,0-.31l.25-.2-.05,0c-.07.07-.11.1-.15.1-.2-.1-.32,0-.35.2Zm0-1.16a.15.15,0,0,1,0,.08.17.17,0,0,0,0,.12s-.05,0-.05.11a.52.52,0,0,0,.18,0l.17,0a.21.21,0,0,0-.1-.12A1.55,1.55,0,0,1,67.17,18.76Zm0,2.26c.23-.2.22-.28,0-.24a.08.08,0,0,0,0,.07.15.15,0,0,1,0,.08s0,.05,0,.05,0,0,0,0Zm.1-3.61a.16.16,0,0,1,0,.1.31.31,0,0,1,.13,0s.05,0,.12,0l0-.1a.28.28,0,0,1-.15,0Zm0,2.71c.1.07.21,0,.34-.05a.77.77,0,0,0-.24-.1A.25.25,0,0,0,67.22,20.12ZM67.56,18v.2h.25l-.2-.2Zm0,5c0,.13,0,.2.1.2s.23-.09.18-.18S67.7,22.91,67.56,23Zm.26-1.51a.48.48,0,0,0,.1-.15c0-.07,0-.07-.25,0s-.07,0,0,.08A.27.27,0,0,0,67.82,21.47Zm.1,9.49c.07-.07,0-.13,0-.18s-.14,0-.14.18,0,.16,0,.07.07-.1.1-.07Zm-.15-7.07c-.07,0,0,0,.07.14s.16.1.13,0S67.9,23.89,67.77,23.89Zm.35-.51q0-.15-.18-.18c-.11,0-.12,0,0,.18a.5.5,0,0,0,.12.08C68.1,23.48,68.12,23.44,68.12,23.38Zm0-1c-.07-.07-.13-.05-.2,0s0,.13.1.1S68.17,22.48,68.17,22.38Zm0,5.92c.07,0,.08,0,0-.1s-.09-.11-.12-.11L68,28.3ZM68,31.66c.07,0,.1-.11.1-.22s-.05-.11-.15,0S68,31.66,68,31.66Zm.35-10.44c0-.07-.1-.1-.2-.1s-.12.05,0,.15h.15A.14.14,0,0,0,68.37,21.22Zm-.2-1.5a.49.49,0,0,0,.24.5.15.15,0,0,0,.16,0c.07,0,.07-.07,0-.1a1,1,0,0,0-.25-.13c-.07,0-.08-.1,0-.27a.19.19,0,0,0,0-.13S68.21,19.61,68.17,19.72Zm.2-3.32c-.07-.07-.12-.08-.15,0l.3.4v-.05c.07-.07.1-.11.08-.12Zm0,13.81s-.05.06-.05.17,0,.1.1-.07S68.4,30.21,68.37,30.21Zm.55,1.05c0-.17-.07-.19-.2-.05s-.25.16-.15.18.05.06-.16.12-.06.07.13.1S68.86,31.52,68.92,31.26Zm-.45-9.39c.1-.07.12-.1.08-.1a.14.14,0,0,0-.13.1Zm0-2.46c0,.07.1.09.2.05l-.2-.2c-.1-.1-.11-.07,0,.1Zm0,11.29s0,.05,0,.05h.05c.2,0,.25,0,.17-.08A.18.18,0,0,0,68.57,30.7ZM69,17a.27.27,0,0,0-.4.05l.2.2Zm-.35,6.42c-.07.07,0,.08.08,0s.11-.07,0,0Zm.25-5.87a.21.21,0,0,0,.1-.25l-.25.15,0,.05a.18.18,0,0,1,.1,0A.19.19,0,0,0,68.87,17.51Zm-.05,5.57c.07-.07.06-.08,0,0s-.09.07,0,.1Zm0-.76q-.09.11,0,.15c.07.07.11,0,.11-.08S68.89,22.26,68.82,22.32Zm.2-3.41c0,.13,0,.19.08.18l.32-.13a.42.42,0,0,0-.18,0,.3.3,0,0,1-.18-.1Zm0,12.29c0,.17,0,.22.08.15a.21.21,0,0,0,0-.25S69.07,31.17,69.07,31.2Zm.15-11c0-.1-.06-.1-.08,0s0,.12.08,0Zm0,12.09v0ZM69.68,17a.94.94,0,0,1-.16-.2q0-.11-.15,0l.25.24Zm-.26,14.55c.1.1.17.13.2.1s0-.29-.15-.35S69.36,31.33,69.42,31.56Zm.26,1c.1,0,.15-.06.17-.18a.75.75,0,0,0,0-.3c0-.09-.06-.12-.12-.12s-.12.08-.15.24S69.61,32.53,69.68,32.56Zm0-12.39c0-.1-.07-.09-.1,0s0,.18.06.18A.33.33,0,0,0,69.72,20.17Zm.3-2.36c.14,0,.21-.15.21-.35a.18.18,0,0,0-.11.05h0A.61.61,0,0,0,70,17.81Zm.36,13.9q0-.11-.18,0c-.11.05-.14.18-.08.38,0,0,0,0,.13-.12A.7.7,0,0,0,70.38,31.71Zm0,.85a.19.19,0,0,0-.22,0c-.09.06,0,.06.12,0Zm0-13.39c.1-.1.09-.17,0-.21s-.07.08-.12,0S70.21,19,70.38,19.17Zm.5-.31a.2.2,0,0,0,.05-.14l-.15-.16c0,.17,0,.22,0,.15a.65.65,0,0,0-.25.05c-.1,0-.15.08-.15.14V19a.7.7,0,0,1,.28-.05A.46.46,0,0,0,70.88,18.86Zm1.85-.65c0-.17,0-.24.13-.24s.12,0,.12-.1-.07-.05-.2,0-.19.19-.15.25l.1.1S72.77,18.28,72.73,18.21ZM74.84,32c.07.1.09.09,0,0s-.07-.14-.1-.08Zm.35.1c.07,0,.07,0,0-.08s-.08-.07,0,0Zm.46-.4c.07,0,.08-.1,0-.2s-.12,0-.17.07S75.51,31.75,75.65,31.71Zm0-7.23a0,0,0,0,0-.05.05c0,.1.05.14.15.14H76l-.1-.2-.2.15a.11.11,0,0,0,0-.08S75.65,24.52,75.65,24.48Zm.15,6.68c.07-.07.13-.08.2,0s.11,0,.14-.18,0-.08-.07,0-.17.07-.23,0l-.14-.15s-.06,0-.06.2a.3.3,0,0,0,0,.23C75.68,31.31,75.73,31.29,75.8,31.16Zm0-4.32c0,.07.07.1.1.1s.05,0,.05,0v-.11l-.1-.1-.1-.1C75.63,26.59,75.65,26.68,75.75,26.84Zm.49-3.51c-.2-.13-.3-.07-.3.2A1.72,1.72,0,0,1,76.24,23.33Zm0,8.68c0-.07.07,0,.08.1s.1.12.23,0a.27.27,0,0,0-.23-.14c-.08,0,0-.09.13-.25-.07-.07-.14-.07-.23,0a.32.32,0,0,0-.12.25.88.88,0,0,1-.08.2.28.28,0,0,0,0,.14c0,.11,0,.14.1.11s.07,0,.1-.15A1,1,0,0,0,76.24,32Zm.26-6.87c-.2-.1-.33,0-.4.25l.2-.1A1.3,1.3,0,0,0,76.5,25.14Zm-.3,3.56c0-.17.08-.26.12-.28s0-.06,0-.12h0a.42.42,0,0,0-.14.3C76.1,28.7,76.13,28.73,76.2,28.7Zm.4.05c0,.1,0,.13-.12.08s-.14,0-.18,0,0,.12.15.15.21,0,.23-.08a.54.54,0,0,0,0-.18c0-.07,0-.1-.08-.12S76.56,28.65,76.6,28.75Zm-.2,1c.13,0,.2,0,.2,0a.45.45,0,0,1,0,.08.24.24,0,0,1-.06.08s0,0,.13,0,.1,0,.1-.14a.13.13,0,0,0-.15-.15.29.29,0,0,0-.2.08Q76.29,29.75,76.4,29.75Zm.2,3.11c0,.23.09.3.25.2l-.1-.15v-.24c0-.07,0-.1-.08-.1S76.6,32.66,76.6,32.86Zm.2-.6a.23.23,0,0,0-.15.05s0,0,.15,0,.06,0,.08.14.06.12.12,0S77,32.33,76.8,32.26Zm0-1.95c-.1-.07-.11,0,0,.1a.17.17,0,0,0,.07.12l.13.13c.07-.07,0-.15-.06-.25ZM77,23.58a.28.28,0,0,0-.2.1c.07.07.1.12.1.15l.15-.2Zm-.2,4.47c0,.07.08.06.12,0s0-.17-.12-.27Zm.35,4.81q.11-.11-.12-.12c-.15,0-.21,0-.18.07s.08.1.13.08A.4.4,0,0,1,77.1,32.86Zm-.25-1.7a.3.3,0,0,1,.2-.05.87.87,0,0,1,.2-.15l.2-.1a.56.56,0,0,0-.42,0C76.87,30.84,76.82,31,76.85,31.16Zm.35-2.81a.18.18,0,0,0-.14.25.42.42,0,0,0,.14-.1Q77.35,28.35,77.2,28.35Zm0,1.66a.48.48,0,0,1-.08.2c0,.1,0,.17,0,.2v-.05c0-.07.07-.14.1-.22S77.22,30,77.15,30Zm.6,2.25q.1-.09,0-.12c-.07,0-.08-.06,0-.12s.07-.11,0-.13a.2.2,0,0,0-.18.08,1,1,0,0,0,0,.12s0,0-.1,0a.49.49,0,0,1,0-.15.3.3,0,0,0,0-.15h-.2a.08.08,0,0,1,0-.07.15.15,0,0,0,0-.08l-.25-.2a.48.48,0,0,0,.3.5c-.07.07-.08.12,0,.18a1.45,1.45,0,0,1,.1.18l.15-.15C77.65,32.26,77.72,32.3,77.75,32.26Zm-.55-19c-.13,0-.14.05,0,.15v.05a.23.23,0,0,0,.25-.15.31.31,0,0,1-.13,0S77.24,13.29,77.2,13.29Zm.1,16.26c.07.1.14.11.23,0s.06-.15-.08-.22-.08,0,0,0a.28.28,0,0,1,0,.12.37.37,0,0,0-.15,0C77.17,29.45,77.17,29.49,77.3,29.55Zm0,1.06c.13,0,.19,0,.18,0s0,0,.08.18v-.3C77.34,30.51,77.25,30.54,77.25,30.61Zm0-1.86.11.1a.16.16,0,0,0,.1,0,.6.6,0,0,1,0-.2c0-.1,0-.13,0-.1ZM77.45,17c.13.2.25.18.35-.05h-.3ZM77.6,29.1a.24.24,0,0,0,0,.3,2.16,2.16,0,0,0,.1-.25C77.74,29.05,77.7,29,77.6,29.1Zm.4-1.45-.25.1-.1,0h.41v0A.14.14,0,0,0,78,27.65Zm0,3.15c.07-.2.08-.29,0-.28a2.27,2.27,0,0,0-.33.23s.06,0,.16,0a.16.16,0,0,1,.1.05Zm.21-.9c0-.13,0-.21-.13-.24a.66.66,0,0,1-.22-.15c0,.13,0,.19.1.15s.13,0,.2.2V30Zm-.1-17.46c-.17,0-.22.13-.16.3Zm-.06,18a1,1,0,0,0,.43.08s0-.14-.13-.38c-.07.1-.08.17,0,.2s-.07,0-.3,0Zm.3-7c-.17,0-.24,0-.24,0a1.53,1.53,0,0,1-.06.22h.1A.29.29,0,0,0,78.3,23.48ZM78,29.35c.07.07.12.08.15,0s.1,0,.2.05a.5.5,0,0,0,.08-.12c0-.05,0-.08-.08-.08Zm.5,3.16a.12.12,0,0,0,.13-.1c0-.07,0-.07-.08,0a.41.41,0,0,1-.22,0s-.14,0-.28.1c0,.07,0,.07.07,0s0,0,.08.12.11.24.13.13A.25.25,0,0,1,78.5,32.51ZM78.2,29l.28-.18s-.08,0-.28-.08c.07.17.09.23,0,.2s-.07,0-.1.05,0,0,0,0S78.2,29,78.2,29Zm.06,2.56a.65.65,0,0,0,.2-.18c.07-.09,0-.08-.2,0s-.1.07-.1.1S78.19,31.51,78.26,31.51Zm.6-.05c.1-.07.1-.12,0-.18s-.15-.06-.15,0,0,.11,0,.12,0,0-.1.08-.16.07,0,.1.25,0,.22,0S78.82,31.49,78.86,31.46Zm-.3-2.56c0,.07,0,.09.12.08s.16,0,.23.12.11.07.14,0,0-.09,0-.08,0,0,0-.12,0-.11,0-.12-.09,0-.15.07a.16.16,0,0,1-.22,0C78.65,28.82,78.59,28.83,78.56,28.9Zm.15,4c-.11.07-.1.07,0,0s.14-.1.08-.1A.09.09,0,0,0,78.71,32.91Zm0,.25c-.07.07-.07.11,0,.13s.08,0,0-.08Zm.1-3.86a.16.16,0,0,1,.1.05s0,0,0-.05a1.92,1.92,0,0,0-.22-.18C78.65,29.08,78.67,29.13,78.81,29.3Zm.1-2.46V27c.07,0,.1-.11.1-.25S79,26.68,78.91,26.84Zm.3,3.21a.19.19,0,0,1,0-.08s0,0,0-.07-.14,0-.14,0,0,0-.1-.14-.1-.07-.08.12S79,30.15,79.21,30.05Zm.35,3s0,0,0,0-.06,0-.06,0Z"/>
            <path fill="currentColor" d="M100,3.41V5.67c0,.74,0,1.49,0,2.26a1.09,1.09,0,0,1-.12.61,1.09,1.09,0,0,1-.58.24q-.81.15-1.08-.18a2.85,2.85,0,0,1-.48-1,2.62,2.62,0,0,0-.7-1.34,5.32,5.32,0,0,0-1.31-.72,5.56,5.56,0,0,0-.65-.18,1.94,1.94,0,0,0-.68,0,1.09,1.09,0,0,0-.55.22.86.86,0,0,0-.28.58V9c0,.57,0,1.11,0,1.63s0,1.05,0,1.58q0,2,0,4v1.4c0,.68,0,1.32,0,1.94s0,1.26,0,1.93V25c0,.53,0,1.05,0,1.55s0,1,0,1.51c0,.34,0,.8,0,1.38a2.25,2.25,0,0,0,.2,1.28,4.22,4.22,0,0,0,.43.6,4.38,4.38,0,0,1,.4.5,2.19,2.19,0,0,1,.28.55,1.63,1.63,0,0,1,.05.75,1.79,1.79,0,0,1-.07.48.32.32,0,0,1-.33.28c-1.8-.07-3.64-.07-5.51,0h-.86a.71.71,0,0,1-.8-.65,1.68,1.68,0,0,1,.1-1,3.22,3.22,0,0,1,.48-.68,4.71,4.71,0,0,0,.53-.68,1.91,1.91,0,0,0,.24-1.07,10.44,10.44,0,0,0,0-1.68,10.46,10.46,0,0,1,0-1.68,9.77,9.77,0,0,0,0-1.21c0-.4,0-.8,0-1.21a8.46,8.46,0,0,0,0-1.13c0-.38,0-.75,0-1.13a6.1,6.1,0,0,0,0-.95,8.62,8.62,0,0,1,0-1c0-.51,0-1,0-1.51s0-1,0-1.56,0-.93,0-1.4,0-.94,0-1.41,0-1.21,0-1.81,0-1.2,0-1.8c0-.3,0-.58,0-.83a4.62,4.62,0,0,0,0-.82c0-.28,0-.55,0-.83a4.56,4.56,0,0,0,0-.83,6.18,6.18,0,0,1,0-.73.68.68,0,0,0-.2-.62.87.87,0,0,0-.85-.38c-.4,0-.75,0-1,.07a2,2,0,0,0-1.56.81,5.1,5.1,0,0,0-.6,1.33A3.82,3.82,0,0,1,84,8.59c-.22.3-.65.35-1.28.15-.3-.07-.46-.21-.48-.43s0-.46,0-.73c0-.83,0-1.67.07-2.5a23.38,23.38,0,0,0-.07-2.51V2.42a1.22,1.22,0,0,1,.2-.78,1.46,1.46,0,0,1,.85-.32,4.82,4.82,0,0,1,1.31.1,11.6,11.6,0,0,0,1.3.2l.63.08.63,0h.1l.78,0c.39,0,.61,0,.68-.08a.71.71,0,0,0,.35-.48,4.37,4.37,0,0,1,.12-.52.67.67,0,0,1,.38-.4,2.51,2.51,0,0,1,1.15-.1h1.21c.23,0,.45,0,.65,0A1.45,1.45,0,0,1,93,.26c.3.1.48.23.52.4a4.94,4.94,0,0,1,.13.48.66.66,0,0,0,.28.4,1.72,1.72,0,0,0,1,.18c.64,0,1.16-.05,1.58-.05a9,9,0,0,0,1.63-.2c.13,0,.31-.07.53-.1a2.68,2.68,0,0,1,.63,0,1.65,1.65,0,0,1,.55.14.44.44,0,0,1,.24.43c0,.23,0,.49,0,.75S100,3.17,100,3.41ZM90.19,17.15c-.23-.07-.31,0-.24.05a.54.54,0,0,0,.2.2S90.19,17.29,90.19,17.15Zm0,10.64c0-.07,0-.09-.08-.07s-.06.06,0,.12.11.24.14.22S90.21,28,90.15,27.79Zm.1-1.3.1-.2H90.1a.21.21,0,0,0,.05.15C90.18,26.51,90.21,26.52,90.25,26.49Zm-.1,6.42q.19.26.15,0c0-.17-.11-.21-.21-.14S90.15,32.81,90.15,32.91Zm.15-4.16c.13.1.17.09.12,0s-.12-.19-.23-.15-.07.08,0,.12S90.26,28.75,90.3,28.75Zm.1-8.53s-.07,0-.1,0a.43.43,0,0,0-.15-.15.85.85,0,0,0,0,.25.21.21,0,0,0,.21.15c.07,0,.1,0,.1-.1S90.47,20.22,90.4,20.22Zm-.21,4.36a.35.35,0,0,1,.16,0l.15,0-.2-.35q-.1,0-.15,0a.63.63,0,0,0,.12.15S90.26,24.48,90.19,24.58Zm.36-5.67v.25h.2s0-.05-.1-.15Zm.3,4.52c0-.07,0-.09,0-.05a.32.32,0,0,1-.12.1.82.82,0,0,0-.11-.35.74.74,0,0,0,0,.28c0,.12.07.18.2.18S90.85,23.47,90.85,23.43Zm.3-3c0,.13,0,.2-.13.2h.23a.46.46,0,0,0,.35-.2,2.18,2.18,0,0,0,.17.22s0-.05,0-.22c-.1,0-.17,0-.2-.2s-.07-.17-.11,0a1.39,1.39,0,0,1-.07.28s-.08,0-.18-.08q.11-.15,0-.12A.11.11,0,0,0,91.15,20.42ZM91,18.76s0,0,0,.1a.5.5,0,0,1,0,.15c.07.07.09.09.07.08s0-.08.08-.18S91.13,18.76,91,18.76ZM91.4,13a.65.65,0,0,1-.15-.1c-.1,0-.14,0-.14,0a.16.16,0,0,0,.1,0,.14.14,0,0,0,.1,0C91.37,13.06,91.4,13.06,91.4,13Zm-.25,8.64c.07.13.09.21.07.24s0,0,.08-.1.14-.24.12-.24Zm.3,5.92c0,.13,0,.18.1.14l.2-.14-.25-.05a.22.22,0,0,1,0-.23.91.91,0,0,0,.1-.1s0,0,0,0a1,1,0,0,1-.23,0c-.07.21-.07.3,0,.28S91.49,27.41,91.45,27.55Zm.56,1.1c0-.07-.05-.1-.15-.1h-.2s0,.05,0,.05C91.82,28.77,91.94,28.78,92,28.65Zm0,2.86c0-.07,0-.08-.05,0l-.16.13c0,.07,0,.1.06.1S92,31.65,92,31.51Zm-.11-9.84c-.06,0-.1,0-.1.15h.06l.2-.08C92.12,21.73,92.07,21.71,91.9,21.67Zm0,4.37c-.06.07-.06.1,0,.1a.3.3,0,0,0,.18-.05c.17-.07.19-.11.07-.12A.3.3,0,0,0,91.9,26Zm.25,6.17c.13,0,.2,0,.2-.1s-.08-.09-.24,0S92.08,32.21,92.15,32.21Zm.1-13.69a.44.44,0,0,1,.38,0c.09.05.09,0,0-.07s-.3-.11-.38,0S92.18,18.55,92.25,18.52Zm.16,5.86c-.07.1-.1.15-.08.15l.1-.05a.63.63,0,0,0,.12-.1s0-.05-.1-.05S92.41,24.35,92.41,24.38Zm.35-6.77s0-.1,0-.2a.26.26,0,0,0-.21,0c-.07,0-.07.07,0,.1s.11,0,.11.1S92.69,17.68,92.76,17.61Z"/>
            <path fill="currentColor" d="M130.23,9.13c0,.27.07.49.08.65s0,.42,0,.75a15.91,15.91,0,0,1-.3,3,16.35,16.35,0,0,1-.85,3l-.55,1.11a3.15,3.15,0,0,1-.22.45c-.09.13-.18.27-.28.4l-.75.95-.55.65-.91.75a8.23,8.23,0,0,1-1.8.91,4.27,4.27,0,0,1-2.06.2l-1.2-.4a.42.42,0,0,0-.38.3,1.74,1.74,0,0,0-.08.5,3.53,3.53,0,0,0,0,.73c0,.25,0,.51,0,.78,0,.54,0,1.05,0,1.56s0,1,0,1.55c0,.17,0,.43,0,.81s0,.75,0,1.15,0,.78,0,1.13a1.9,1.9,0,0,0,.12.73,2.68,2.68,0,0,0,.35.44c.27.34.51.62.73.86a1.23,1.23,0,0,1,.17,1.1c-.1.51-.32.76-.68.78a11.15,11.15,0,0,1-1.13,0l-.82,0c-.29,0-.56,0-.83,0s-.73,0-1.08,0l-1.07,0-.93,0a1.87,1.87,0,0,1-.93-.18.87.87,0,0,1-.32-.93,2,2,0,0,1,.32-1,6.64,6.64,0,0,1,.63-.65,2.18,2.18,0,0,0,.5-1.48,3.53,3.53,0,0,1,0-.73V28c0-.44,0-.87,0-1.31s0-.87,0-1.31V22.22a6.34,6.34,0,0,0,0-1c0-.32,0-.66,0-1,0-1.51,0-3,0-4.57s0-3.08,0-4.62V7.37c0-.33,0-.65,0-1s0-.63,0-.93,0-.46,0-.68,0-.44,0-.68a1.4,1.4,0,0,0-.31-.85l-.52-.61a3.69,3.69,0,0,1-.48-.64A1.72,1.72,0,0,1,114,1c.07-.37.18-.56.35-.6a4.12,4.12,0,0,1,.7,0h2.91c1,0,1.94,0,2.91,0a6.29,6.29,0,0,1,.9.08c.41,0,.72.09,1,.12a10.09,10.09,0,0,1,4,1.61,7.7,7.7,0,0,1,2.68,3.41.79.79,0,0,1,.13.33,1.37,1.37,0,0,0,.12.38c.17.53.29,1,.38,1.4S130.17,8.56,130.23,9.13Zm-15.5,23.53c.07,0,0,0-.06,0s-.11,0,0,0Zm1.31-.95a.13.13,0,0,0,0-.15c-.07-.07-.13,0-.18.1S115.87,31.81,116,31.71Zm.55-.45a.14.14,0,0,0,0-.1s0,0,0,0,0,0-.06,0-.18-.06-.15-.1-.06,0-.3,0a.34.34,0,0,0,.25.15C116.47,31.34,116.55,31.33,116.59,31.26Zm-.35,1.35c-.07,0,0,0,0,0s.12,0,.06-.08h-.06S116.24,32.58,116.24,32.61Zm0-1.95c0,.1,0,.13,0,.12s0,0,.1,0l0,0a.92.92,0,0,1,0-.18c0-.09,0-.13,0-.13S116.28,30.52,116.28,30.66Zm.41-1c-.14,0-.2,0-.18.08s0,.14,0,.18,0,.05,0,.05Zm-.1-6.52c-.14.07-.12.09,0,.08s.22-.06.15-.13S116.66,23.11,116.59,23.18Zm0,5.32c.13.1.13.24,0,.45h.2l.1-.31-.1-.07a.36.36,0,0,1-.1-.13A.21.21,0,0,0,116.54,28.5Zm.35,1.75s0,0,0,0l-.3-.2v0a.25.25,0,0,0,.1.15A.18.18,0,0,0,116.89,30.25Zm0-5.27a.47.47,0,0,0-.18-.1c-.08,0-.09,0,0,.1v.15c0,.07.07,0,.2-.1Zm-.1-1.25.2.2c.1.1.13.1.1,0a.49.49,0,0,1,0-.38q0-.12-.15,0A.15.15,0,0,0,116.84,23.73Zm.2-3.36c-.07,0-.08,0,0,.13s.08.14.14.07.07,0,0-.1Zm0,.7.23-.12s0,0,0,0l-.15,0s-.06,0,0,.07v.05Zm.35,5.67c-.1-.1-.22-.07-.35.1A.75.75,0,0,0,117.39,26.74Zm0-8.43s-.07-.06-.2-.1-.17,0-.1.05a.48.48,0,0,0,.15.1.49.49,0,0,0,.2.05C117.44,18.35,117.42,18.31,117.39,18.31Zm.16,7.28s0-.05-.06-.05l-.22,0c-.09,0-.11,0-.08.08l.18,0A.25.25,0,0,0,117.55,25.59Zm-.21-4.12q.25-.25.15-.3c-.07,0-.11,0-.15.2Zm.1,6.32.21-.1c-.14-.07-.19-.1-.15-.1l.1-.2-.15.15c-.07,0-.1,0-.1.1Zm.25-1.6c.1-.07.13-.12.08-.18s0-.11,0-.17-.1,0-.1.1a.43.43,0,0,1,0,.24h0Zm.15-1.35s0,0,0,0H118a.2.2,0,0,0,0-.14.19.19,0,0,0,0-.1s0,0-.07,0Zm.46-3.27c-.1-.13-.2-.15-.28-.08s-.11.13-.08.13l0,0Zm-.21-1.1-.14.27c0,.05,0,.13.14.23v-.15l.15-.1v0H118Zm.15,8.48c.07-.17.09-.24.08-.23a1.26,1.26,0,0,1-.33.12.38.38,0,0,0,.25.15Zm.26-5.52c-.1.07-.09.08,0,0s.2-.11.2-.18a1.82,1.82,0,0,0-.22-.34,3.11,3.11,0,0,0-.28-.35c-.1.17-.13.24-.1.22s.1,0,.2.08a.28.28,0,0,1,.1.2.43.43,0,0,1,.08.2Q118.55,23.43,118.5,23.43Zm0-1a.11.11,0,0,1-.08,0s0,0-.08,0a.24.24,0,0,1,0-.18c0-.05,0-.08-.18-.08a.46.46,0,0,0,.1.35s.09.05.25.05v-.1ZM118.24,28a.32.32,0,0,0,.1.25s0,0,0-.12,0-.17-.05-.25,0-.12-.06-.12S118.24,27.83,118.24,28Zm.1,2.46a.8.8,0,0,0,.3,0v-.05a.25.25,0,0,1-.12,0,.17.17,0,0,0-.12,0c-.07,0-.1,0-.1.11Zm.4-9.23-.1-.2c0-.07-.06-.07-.07,0a.1.1,0,0,0,0,.12Zm.16-1.95h-.2c-.07,0,0,0,.1.1a.47.47,0,0,0,.18.1c.08,0,.12,0,.12-.1s0-.05-.08-.05A.22.22,0,0,1,118.9,19.27Zm-.16-1s0,0,0,0a.08.08,0,0,0,.08,0c.13-.07.19-.09.18-.07s0,0,.07,0,0,0,0-.12S118.91,18.13,118.74,18.26ZM118.8,30a.62.62,0,0,0,.08.27s.06,0,.12,0v-.05l0,0,.31-.1c0-.1-.07-.14-.08-.13a1.1,1.1,0,0,1-.28.08h-.1Zm.35.75c-.2.23-.27.37-.18.4s.16-.1.22-.4Zm0-3.07c-.07-.1-.12-.12-.16-.08s0,.08.1.08Zm0-3.91c-.07.07-.07.12,0,.15s.09.1,0,.2l.2-.1a.47.47,0,0,1-.1-.18c0-.08-.07-.12-.1-.12Zm.1,5.12c-.07,0-.11,0-.13,0s0,0,0,.07c.2.13.36.17.5.1,0-.1-.09-.14-.15-.12A.59.59,0,0,1,119.25,28.9Zm0,3.06c.07-.07.08-.11,0-.14s-.07,0-.1.14,0,0,0,0S119.25,32,119.25,32Zm.15-6c-.17.07-.21.14-.12.22s.12,0,.12-.18Zm-.05-14.81c.13,0,.14-.1,0-.2s-.16-.07-.12.1l0,.05S119.32,11.13,119.35,11.13Zm.05,16.46c0-.07,0-.08-.08,0s0,.06,0,.1S119.4,27.63,119.4,27.59Zm-.05,1.91c0,.13.07.17.2.1v0a.25.25,0,0,1-.15-.1C119.33,29.39,119.32,29.4,119.35,29.5Zm.25-.95c.07-.17,0-.22-.08-.18s-.11.13,0,.23S119.6,28.61,119.6,28.55Zm0,2.41c.07.07.11.09.14.07l.2-.12a.74.74,0,0,1-.17-.12c-.06-.05-.11,0-.18,0l0,.05Zm.05-2.76c0,.06,0,.1,0,.1s.07,0,.1-.1.07-.25,0-.25S119.68,28,119.65,28.2Zm.35,3.61c.07-.23,0-.28,0-.13s-.09.26,0,.33S120,31.94,120,31.81Zm0-12.34c-.1,0-.13.11-.1.25s.2.11.2,0S120.11,19.44,120.05,19.47Zm.2,11.49s0,0,0,0-.09-.2-.25-.2S120.08,30.86,120.25,31Zm5.27-17.81a9.47,9.47,0,0,0,0-2.26,13.94,13.94,0,0,0-.43-2.21,6.86,6.86,0,0,0-.91-2,4.4,4.4,0,0,0-2.9-1.85.64.64,0,0,0-.9.55,3.46,3.46,0,0,0,0,.65c0,.24,0,.45,0,.65V9.49q0,.9,0,1.83c0,.62,0,1.25,0,1.88V15a4.29,4.29,0,0,0,0,.72c0,.25,0,.51,0,.79v1a3.6,3.6,0,0,0,0,.58.87.87,0,0,0,.15.38,1.06,1.06,0,0,0,.81.08,4.72,4.72,0,0,0,.92-.38,5.45,5.45,0,0,0,.89-.58c.26-.22.48-.41.65-.58a5.94,5.94,0,0,0,1.1-1.78A13.5,13.5,0,0,0,125.52,13.15Zm-5,19.71c-.07.07-.06.08,0,0l.23-.12a.15.15,0,0,0,0-.2C120.77,32.5,120.67,32.6,120.5,32.86Z"/>
            <path fill="currentColor" d="M145,31.51a1.45,1.45,0,0,1,.6,1.75.66.66,0,0,1-.68.53c-.32,0-.63,0-.93-.08l-1.45,0-1.46,0-.7,0c-.3,0-.62,0-1,0s-.64,0-.93,0a1.29,1.29,0,0,1-.58-.12.71.71,0,0,1-.48-.85,2.15,2.15,0,0,1,.32-1,2.06,2.06,0,0,1,.51-.45,1.25,1.25,0,0,0,.4-.35,1.63,1.63,0,0,0,.25-.45,1.75,1.75,0,0,0,0-.8c-.07-.46-.17-1-.3-1.55s-.25-1.09-.35-1.56l-.24-1.45c-.17-.84-.37-1.26-.58-1.26a4,4,0,0,0-1.33.55c-.28.13-.52.26-.73.38a7.2,7.2,0,0,1-.73.33,1.18,1.18,0,0,1-.55.24l-.55.2a4,4,0,0,1-.77.21q-.37,0-.63.6c-.07.2-.14.47-.22.8s-.17.68-.23,1a9.75,9.75,0,0,0-.14,1,2.72,2.72,0,0,0,0,.81,1.84,1.84,0,0,0,.37.77l.55.63a2.24,2.24,0,0,1,.45.68,1.69,1.69,0,0,1,.13.93.61.61,0,0,1-.28.44,1.37,1.37,0,0,1-.53.21,3.19,3.19,0,0,1-.62,0c-.22,0-.41,0-.58,0s-.43,0-.78,0l-1.13,0c-.4,0-.76,0-1.07,0a1.88,1.88,0,0,1-.63-.15.9.9,0,0,1-.22-.78,2.81,2.81,0,0,1,.12-.83,2.29,2.29,0,0,1,.35-.58l.38-.43a4.63,4.63,0,0,0,.32-.42,3,3,0,0,0,.3-.68,7.68,7.68,0,0,0,.35-1.53,15.11,15.11,0,0,1,.3-1.58,1.14,1.14,0,0,0,0-.73.93.93,0,0,0-.33-.35l-.44-.28a1.23,1.23,0,0,1-.45-.55,3.06,3.06,0,0,1-.18-1.1,2.08,2.08,0,0,1,.18-1.11.67.67,0,0,1,.6-.38,5.62,5.62,0,0,1,.7.1,1.25,1.25,0,0,0,.61,0c.17,0,.28-.28.35-.68a.68.68,0,0,1,0-.2.68.68,0,0,0,0-.2,4.6,4.6,0,0,0,.15-.65c0-.2.07-.42.1-.65a8.83,8.83,0,0,0,.2-1l.2-.95.1-.31a2.22,2.22,0,0,1,0-.37c0-.12,0-.26.07-.43l.21-.75.24-1.41.3-1.51a.52.52,0,0,1,0-.18.72.72,0,0,0,0-.17l.15-.55.35-2a3.26,3.26,0,0,0,.14-.6c0-.2.07-.39.1-.55l.31-1.51a1.27,1.27,0,0,1,0-.28,1.21,1.21,0,0,1,.08-.28l.34-1.8c0-.17.07-.32.1-.48a1.86,1.86,0,0,0,.06-.48L133.54,3a1.53,1.53,0,0,0,0-.3.82.82,0,0,1,0-.31.82.82,0,0,1,.6-.65l.6-.3c.37-.17.71-.32,1-.48s.62-.31.95-.48c.57-.27.94-.3,1.11-.1a2.56,2.56,0,0,1,.4,1.11c.1.4.19.8.25,1.21s.15.82.25,1.25a1.48,1.48,0,0,0,.1.45l.3,1.61.4,1.8.3,1.7c.1.57.22,1.14.35,1.71l.5,2.41c0,.17.09.45.15.85s.14.82.23,1.25.17.83.24,1.18.14.58.18.68a.7.7,0,0,0,.5.45,1.62,1.62,0,0,1,.55.18,1.16,1.16,0,0,1,.48.5,3.67,3.67,0,0,1,.33,1.43,3.31,3.31,0,0,1,0,.95,2.15,2.15,0,0,1-.6.73c-.27.22-.37.44-.3.68s.12.5.17.7.11.44.18.71l.25,1.31a6,6,0,0,0,.25,1.15,1.48,1.48,0,0,1,.1.45l.3,1.61.25,1.2a9.37,9.37,0,0,0,.32,1.06A2.9,2.9,0,0,0,145,31.51Zm-17.06.9c0,.07,0,.09,0,.08s0-.06,0-.12Zm.1,1c-.07.07-.07.08,0,0a.15.15,0,0,0,.1-.14C128.06,33.32,128,33.35,128,33.42Zm.45-1.26s0,0-.06,0-.07.05,0,.05Zm.15-8.13s.05,0,.05,0-.07-.12-.1,0S128.56,24,128.63,24Zm.55,8.63h0a.46.46,0,0,0-.35.32c0,.15.08.08.35-.22Zm0-1.4c.07-.1,0-.16-.08-.18s-.13.06-.07.23S129.08,31.36,129.18,31.26ZM129,33.32c.07,0,.09,0,.06-.08s-.06,0-.06,0Zm.31-2.87c.13.1.19.11.17,0s-.09-.18-.22-.28-.18-.06-.12,0a1.36,1.36,0,0,0,.12.18Zm.24,2.41s0,0-.05,0,0,0,0,.08S129.55,32.93,129.58,32.86Zm.31-8.28c-.14,0-.14.07,0,.2s.11,0,.24,0l-.2,0S130,24.68,129.89,24.58Zm0,7.18a.27.27,0,0,0,.1.38l.34.23c.14.1.14.06,0-.11l-.24-.3A.31.31,0,0,1,129.89,31.76Zm.14-4.21c0-.07,0-.08,0,0a1.26,1.26,0,0,1-.08.18,1.67,1.67,0,0,0-.08.2c0,.07,0,.07.08,0A.47.47,0,0,0,130,27.55Zm-.1,2.15c0-.07,0-.08,0,0s0,.07,0,.1Zm0-4.66a.17.17,0,0,0,.17.1c.09,0,.06-.09-.07-.25S129.89,24.9,129.89,25Zm.3,8c.1.1.18.13.22.08a.22.22,0,0,0,.08-.18c0-.07,0-.11-.08-.12s-.12,0-.22.12Zm.25-1.4a.14.14,0,0,0-.16-.08c-.07,0-.07.11,0,.28s.11,0,.12,0A.45.45,0,0,0,130.44,31.66Zm-.05-3.26c.13,0,.18,0,.12-.1s-.11-.12-.18-.05S130.32,28.33,130.39,28.4Zm.35-3a.78.78,0,0,1,.1-.25h-.4l-.06.1.06.05c.06-.07.11-.07.14,0A.19.19,0,0,0,130.74,25.44Zm-.15,7.68c0,.17,0,.18.12,0s.13-.21,0-.25-.06,0-.08.08A.4.4,0,0,1,130.59,33.12Zm.1-.71c-.07.13-.05.19.05.15s.11-.09,0-.15Zm.25-4.06s0,0,0-.05-.06-.1-.08,0S130.87,28.38,130.94,28.35Zm.65-1.71s0-.1,0-.2-.09-.09-.15,0-.07.1,0,.12Zm.76-9.93c.1.2.23.28.4.24a.16.16,0,0,0,.05-.1.39.39,0,0,1,0-.14h0a.28.28,0,0,0-.2.1Zm0,4.51c.07.14.1.12.1,0s0-.23-.14-.2S132.36,21.19,132.39,21.22Zm.06,11.64c-.07-.07-.08-.06,0,0s.07.1,0,0Zm.24-8.53c.17-.13.34-.1.51.1a.38.38,0,0,0-.1-.22c-.07-.08-.13-.11-.2-.08h-.16C132.67,24.13,132.66,24.2,132.69,24.33Zm.61.65c-.07,0-.11,0-.13,0a.25.25,0,0,0-.12,0l-.1,0,.1.1a.6.6,0,0,0,.25,0Zm.6-2.66a6.58,6.58,0,0,0,.75-.38c.33-.18.67-.38,1-.6a4.67,4.67,0,0,0,.85-.7,1.06,1.06,0,0,0,.35-.63,2.21,2.21,0,0,0-.08-.4q-.08-.3-.18-.63c-.07-.22-.12-.42-.18-.6a4.46,4.46,0,0,0-.12-.43l-.65-2.61c-.07-.13-.14-.29-.22-.48s-.21-.19-.38,0a.79.79,0,0,0-.13.28c0,.15-.1.32-.14.5s-.1.36-.13.53a1.55,1.55,0,0,1-.1.35c-.17.73-.35,1.47-.58,2.2s-.44,1.49-.68,2.26c0,.13-.08.3-.12.5a1.57,1.57,0,0,0-.06.55.43.43,0,0,0,.2.35C133.44,22.45,133.63,22.42,133.9,22.32Zm-.6-5.86a.84.84,0,0,1,0,.18s0,0-.14.07c.1.07.16.09.18.05a.42.42,0,0,1,.12-.15s-.06,0-.06,0,0-.05,0-.05,0,0,0-.05l-.1-.1S133.27,16.42,133.3,16.46Zm1.5,7.12-.3.2a.74.74,0,0,0,.3.11Zm1-.5a.25.25,0,0,0-.1-.3,2,2,0,0,1,.06.22s-.07,0-.2-.07,0,0,0,0,.11.09.12.05S135.74,23,135.8,23.08Zm.86,0s-.07,0-.21,0a1.15,1.15,0,0,0-.2.15.14.14,0,0,1,.1.12.16.16,0,0,0,.1.13c-.06-.13-.09-.2-.07-.2a1.53,1.53,0,0,0,.22-.2Zm1.85-2.71a1.19,1.19,0,0,0,.13-.23s-.07-.07-.23-.07-.08.09,0,.17S138.48,20.32,138.51,20.32Zm-.14,13c.07.1.13.13.22.1s.06-.1-.08-.2S138.37,33.22,138.37,33.32Zm.3-.61c-.07.13,0,.19.18.15s.17-.08,0-.15A.14.14,0,0,0,138.67,32.71Zm.55-9.93h-.05a.88.88,0,0,0-.4-.05c-.07,0-.08.07,0,.1s.13,0,.23,0V23s0,0,.05,0Zm-.41,1.8q.1.15.18,0a.42.42,0,0,0,.08-.23.24.24,0,0,0-.15.08C138.85,24.51,138.81,24.55,138.81,24.58Zm.41-1.6-.13.12s0,.08,0,.08a1,1,0,0,1,.24,0S139.35,23.14,139.22,23Zm.15,1.4a.25.25,0,0,0,.08-.22,1,1,0,0,1,0-.23c0-.1-.07-.12-.1-.08a.19.19,0,0,1-.15.08c-.13-.07-.14,0,0,.05l.23.2a.16.16,0,0,0,0,.1C139.32,24.35,139.33,24.38,139.37,24.38Zm-.15,7.93c-.07-.1-.1-.08-.1,0s0,.14.1,0Zm.1.45c.07.1.1.12.1.08a.28.28,0,0,0-.1-.18s-.06,0-.06.05A.06.06,0,0,0,139.32,32.76Zm.45-6.57c.1.13.19.13.25,0-.13.07-.2,0-.2-.05a1,1,0,0,0-.3,0l-.05,0a.3.3,0,0,1,.2.05Zm-.05,6.37q-.15,0,0,.12c.1.09.12.08.05,0A.19.19,0,0,0,139.72,32.56Zm-.05-9.78.08,0a.1.1,0,0,0,.08,0h0l.11-.21s0,0,0,0Zm.5,10.08s0,0,0,0-.07-.1-.12-.1a.21.21,0,0,0-.12,0,.05.05,0,0,0,0,.07S140,32.86,140.17,32.86Zm-.1-6c-.07.1-.08.17,0,.22s.1.06.13,0,0-.19,0-.18,0,0-.1-.12h0Zm.05,3c.23,0,.29,0,.16-.1S140.09,29.79,140.12,29.85Zm.35,2.71c0-.1,0-.17-.1-.2s-.07,0,0,.2S140.41,32.63,140.47,32.56Zm.15.35s0,0,.11,0,.11-.14.14-.38c0,0,0-.06-.07-.08s-.08,0-.08.13,0,.24,0,.22S140.69,32.85,140.62,32.91Zm.15-1c-.07,0-.1,0-.1.05a.23.23,0,0,0,.05.15q0,.11.18,0C141,32,140.94,31.92,140.77,31.86Zm0-1.65c0,.07,0,.1.08.1s.08,0,.08-.1.14-.05.24,0V30Zm.2,3.31c.1,0,.1-.09,0-.15.1-.1.09-.17,0-.2a.85.85,0,0,0-.08.28C140.83,33.56,140.87,33.58,141,33.52Zm-.1-9.19.16.15.14-.2h-.3Zm.3,6.93q.15,0,0-.15L141,31,141,31C140.94,31.17,141,31.26,141.17,31.26Zm.15,1.5c.07-.17,0-.2-.15-.1s-.1.11-.1.22,0,.2.1.23a.16.16,0,0,0,.1-.15A.53.53,0,0,1,141.32,32.76Zm.26-10.44c-.07.13-.07.2,0,.2s.08-.07,0-.2Zm-.06,10.74c0,.07.13,0,.28-.1s.12-.17-.08-.1S141.52,33,141.52,33.06Zm.16-1c-.1-.07-.07-.1.1-.1s.18-.1,0-.3-.1-.15-.1-.05v.25h-.14s0,.07,0,.2l.2.1Zm.2-.85c-.1,0-.08.06.08.08a.4.4,0,0,0,.32-.08.28.28,0,0,0-.2,0Zm.2-.46,0,.05c.07,0,.1,0,.08.12s0,.1.08,0,0-.27,0-.41-.07-.08-.13.15Zm.15,1.36a.84.84,0,0,0,.4-.32.51.51,0,0,0,.05-.48c-.11-.07-.17,0-.18.2s0,.32-.08.35a1.54,1.54,0,0,0-.28.18C142,32.17,142.06,32.2,142.23,32.16Zm-.1-.35c0,.07,0,.09,0,.08a.13.13,0,0,0,.08-.13C142.16,31.69,142.13,31.71,142.13,31.81Zm.7-1.15c.07.07.1.06.1,0v-.18l-.05,0a.41.41,0,0,0-.17,0S142.73,30.52,142.83,30.66Zm.1,2.1c0,.07,0,.08.1,0s.05-.07-.05-.07Zm.7-1.15c0,.07,0,.1.08.1s.09,0,0-.1Zm.25,1v0ZM144,32v-.1c0-.07,0-.05,0,.05S144,32.08,144,32Z"/>
            <path fill="currentColor" d="M159.59,7.07a1.18,1.18,0,0,1-.15.91,1.12,1.12,0,0,1-1,.52.92.92,0,0,1-.86-.72,2.93,2.93,0,0,1-.27-.83,2.16,2.16,0,0,0-.43-.83,3,3,0,0,0-1.15-.8A5.79,5.79,0,0,0,154.37,5a1.18,1.18,0,0,0-.68.15.76.76,0,0,0-.3.42,1.84,1.84,0,0,0,0,.63c0,.23,0,.47,0,.7v8.54c0,1.84,0,3.69-.06,5.57,0,.57,0,1.13,0,1.71s0,1.13,0,1.71,0,1.31,0,1.93,0,1.26,0,1.93a15.1,15.1,0,0,0,0,1.94,2.71,2.71,0,0,0,.93,1.68,1.71,1.71,0,0,1,.37.93,1.09,1.09,0,0,1-.22.92,1.36,1.36,0,0,1-.93.23c-.42,0-.74,0-1,0h-.81a7.16,7.16,0,0,1-.8,0,10.46,10.46,0,0,0-1.26,0c-.43,0-.86,0-1.3.07a1.49,1.49,0,0,1-.78-.1.8.8,0,0,1-.38-.7,1.65,1.65,0,0,1,.15-.85,1.9,1.9,0,0,1,.4-.63,2.11,2.11,0,0,0,.35-.38,2.54,2.54,0,0,0,.28-.5,2.76,2.76,0,0,0,.12-1v-.4q.1-1.56.06-3.12c0-1-.06-2.08-.06-3.16V5.82c0-.5-.18-.77-.55-.81s-.73,0-1.1,0a3.49,3.49,0,0,0-1,.18,2.31,2.31,0,0,0-.83.72,2.45,2.45,0,0,0-.65,1.33,1.47,1.47,0,0,1-.5,1,.91.91,0,0,1-1,.18,1,1,0,0,1-.68-.93,4.8,4.8,0,0,1,0-.78c0-.28,0-.56,0-.83,0-.5,0-1,0-1.47V2.92a5.49,5.49,0,0,0-.07-.93.79.79,0,0,1,.42-.78,1.31,1.31,0,0,1,.88-.13l.93.13,1,.15c.27,0,.52.06.75.07s.49,0,.75,0a8.89,8.89,0,0,0,.95,0,2.42,2.42,0,0,0,.91-.14c.23-.11.41-.2.54-.28a1.6,1.6,0,0,1,.41-.18A1.93,1.93,0,0,1,150,.85h.68l1,0a3.94,3.94,0,0,1,1,.12l.32.12a1.74,1.74,0,0,1,.33.18,1.24,1.24,0,0,0,.68.18c.21,0,.44,0,.68,0,.5,0,.94,0,1.33,0a6.92,6.92,0,0,0,1.38-.23,8.2,8.2,0,0,1,1-.17.93.93,0,0,1,.91.28,1.52,1.52,0,0,1,.25,1.1c0,.5,0,.91,0,1.21V5.38C159.54,5.94,159.56,6.51,159.59,7.07ZM149,30.05a1,1,0,0,0,.25-.12s-.08-.08-.25-.18-.09,0-.07.08A.4.4,0,0,0,149,30.05Zm.31-1.45a.06.06,0,0,0,0,.1c.07.07.1,0,.12-.05S149.41,28.53,149.31,28.6Zm.24.7c-.1-.17-.17-.25-.22-.25s0,.09,0,.25Zm0-5.07c0-.07-.09-.05-.16,0s0,.14.1.17.1,0,.1-.07A.18.18,0,0,0,149.51,24.23Zm-.06,7.43c-.07.07-.07.11,0,.13s.12,0,.15-.18a.11.11,0,0,0-.08,0A.08.08,0,0,1,149.45,31.66Zm.2-13.65c-.13-.07-.21,0-.24,0a.36.36,0,0,0,.2.12.57.57,0,0,1,.2.13c-.07-.07-.1-.12-.1-.15A.33.33,0,0,0,149.65,18Zm.1,6.53q.1-.11,0,.12c-.06.15,0,.19,0,.12a.33.33,0,0,1,.25-.1c0-.07,0-.15-.1-.28s-.23-.07-.4.13-.07.1,0,.1A.22.22,0,0,0,149.75,24.54Zm-.24-1.82c.1.14.23.14.4,0Zm0,2.52c0,.07,0,.09.1.08s.09-.07-.05-.13S149.55,25.2,149.55,25.24Zm.31-6.88s-.05,0-.05-.05a.24.24,0,0,1-.18,0s-.08,0-.08.12.12.07.15,0A.17.17,0,0,1,149.86,18.36Zm-.25,11.39c0,.1,0,.16.08.18l.17.08a.21.21,0,0,0,0-.15c-.1-.07-.12-.1,0-.1s.09,0,0-.1,0-.09-.13-.05S149.57,29.69,149.61,29.75Zm.19-5.86c-.2.13-.22.2-.08.2s.21,0,.18-.1a.16.16,0,0,1-.05-.1Zm.06,7h-.05c-.07,0-.12.09-.15.25s0,.19.05.05.08-.11,0-.13,0-.06.05-.12Zm.3-8.48a.9.9,0,0,1-.25,0,.68.68,0,0,0-.2,0v0l.3.15.05-.05ZM150.3,30s0-.05,0-.08l-.23-.22-.24.15Zm0-1.05c-.07-.17-.06-.23,0-.2s.12,0,.12-.1c-.23-.17-.41-.19-.53-.05s0,.25.23.35q0,.15.15.15V28.9Zm-.14-5.72c-.13,0-.21,0-.23.05a1.21,1.21,0,0,0,.08.4c.07-.07.12-.1.15-.1Zm-.2,9.19c.07-.07.09-.13.07-.18s0,0-.07.12S149.92,32.37,150,32.37Zm.2-12.45a1.29,1.29,0,0,0-.2.3v0c.1-.1.14-.13.14-.1s0-.17.16-.3a.24.24,0,0,1,0-.08s0,0,0-.07,0-.1.1-.2a.21.21,0,0,1,0-.15s0,0,0,0,0,0-.05,0a.39.39,0,0,1-.18.18c-.08.05-.09.16,0,.33v.1Zm-.2,1.71c.1.07.17.07.2,0a.66.66,0,0,1,.14-.2.16.16,0,0,1-.1-.05.18.18,0,0,1-.14-.05.21.21,0,0,1-.05.15.19.19,0,0,1,0,.08S150,21.59,150,21.63Zm.34,2.6q0,.21.15.18a.22.22,0,0,0,.2-.12v-.1l-.28-.08q.13,0,0,.12s0,0-.06,0Zm.26,6.63c-.23-.07-.27,0-.1.14a.86.86,0,0,0,.22,0C150.77,31,150.72,30.93,150.56,30.86Zm.2-8.08.05-.05c-.07,0-.1-.07-.1-.1s0,0-.1,0-.07,0-.1,0a.25.25,0,0,1-.16,0l.05.05Zm-.25-2.16s0,0-.06,0,0,0,0,.1h.45v0a.44.44,0,0,1-.17,0A.43.43,0,0,0,150.51,20.62Zm.05,2.71a.16.16,0,0,0-.05-.1l-.1,0v.1s0,.07,0,.08a.15.15,0,0,1,0,.08.19.19,0,0,0,0,.08.08.08,0,0,1,0,.07l0,0v-.31ZM150.51,32c.26.07.38.05.34,0s-.15-.11-.34,0S150.44,32,150.51,32Zm.3-15.45a1.51,1.51,0,0,1-.3.25C150.78,16.81,150.88,16.72,150.81,16.56Zm-.3,2.65a2.85,2.85,0,0,0,.22.28s.06,0,.12-.08c-.1,0-.15,0-.15,0a.49.49,0,0,0,0-.18Zm.15,4.12a.28.28,0,0,0,.2.1,0,0,0,0,0,0-.05l-.15-.2.18,0a.48.48,0,0,1,.18,0v0l-.41-.1s0,.08-.1.14a.19.19,0,0,0,0,.13A.12.12,0,0,1,150.66,23.33Zm.5,7.93a.23.23,0,0,0,.05-.15c0-.07,0,0-.1.05a.34.34,0,0,1-.3.15c-.2.06-.22.1-.05.1A.55.55,0,0,0,151.16,31.26Zm-.2-5.07c.13.13.16.12.06,0s-.19-.16-.25,0-.07.12,0,.25c.07-.07.1-.11.1-.14S150.89,26.19,151,26.19Zm-.15,3.26c-.07,0-.1.08-.1.25l0,0,.15-.25Zm.25-1.1c-.2,0-.28,0-.22.08a.56.56,0,0,0,.32.07C151.06,28.4,151,28.35,151.06,28.35Zm.2-9.59c-.3,0-.39.07-.28.08s.14.09.08.23l0,0h.1a.14.14,0,0,0,.1-.12A.58.58,0,0,1,151.26,18.76Zm-.2,6.38a.18.18,0,0,0,.06-.1l.17-.05c.09,0,.11,0,.08,0V24.9l-.08,0s0,0-.07,0-.24-.07-.2,0a.23.23,0,0,1,0,.2h0Zm.1,1.4a.56.56,0,0,0,.35.2c-.17,0-.22-.08-.18-.15s0-.1-.12-.1h-.05Zm.05-2.71a.23.23,0,0,1,0,.15.37.37,0,0,1,0,.2h.2a1.85,1.85,0,0,1-.1-.35Zm.1-3.61a.25.25,0,0,0-.08.22c0,.09.08,0,.18-.12s0-.11,0-.13A.1.1,0,0,0,151.31,20.22Zm.15,2.36.35-.15.05.05.2-.2c-.07,0-.1,0-.1,0s0,0-.05,0h-.24l-.18.18a1.52,1.52,0,0,0-.18.18.11.11,0,0,1,.08,0l.07,0v-.05Zm-.05,2.81c-.07-.07-.09-.08-.08,0a.52.52,0,0,1,0,.18l.14.3c.07-.07.1-.11.08-.14l-.12-.25Zm.3-4.87c.07,0,.1-.1.1-.2s-.1-.09-.1,0-.07.16-.2.13-.21-.06-.12,0A.24.24,0,0,0,151.71,20.52Zm-.2-3.06s0,0,0,0,0,0,0,.05a.14.14,0,0,0,0,.1h0l.35-.22C151.87,17.39,151.78,17.39,151.51,17.46Zm.4,4c.17,0,.24-.05.2-.15s-.09-.08-.17,0a.57.57,0,0,1-.28.08h-.1l.05.15v.05c.07.13.11.19.13.17s0-.07,0-.17S151.74,21.43,151.91,21.43Zm-.3,5.57c0,.07,0,.1,0,.1a.37.37,0,0,0,.15,0,.12.12,0,0,0,.1-.1s0-.07-.07-.07A.28.28,0,0,0,151.61,27Zm.15,5s.06,0,.08.08,0,0,0-.08a.14.14,0,0,0-.12-.1C151.69,31.86,151.7,31.89,151.76,32Zm0-10.94a.17.17,0,0,0,.05.15c.06,0,.07-.08,0-.22S151.76,20.82,151.76,21Zm.05-5.17a.77.77,0,0,1,.06.31.26.26,0,0,0,.12-.08l.12-.08A.21.21,0,0,0,152,16l-.1-.1Zm.41,7.33c-.07-.13,0-.17.1-.1l.05,0-.1-.14a.16.16,0,0,0,.1-.05v-.1l-.1,0-.05.1a.22.22,0,0,1,0,.11.16.16,0,0,0,0,.1l-.15-.21a.16.16,0,0,0-.1.05l.15.3h-.25v.05a.78.78,0,0,1,.35.1C152.16,23.24,152.18,23.21,152.22,23.18Zm-.16,2.16s0-.05-.15-.05-.08.09,0,.25l0,.05s.05,0,.05-.08A.28.28,0,0,1,152.06,25.34Zm-.1-4.72c-.1,0-.09.06,0,.08s.14,0,.08-.08Zm0,.4c0,.13.06.13.08,0s0-.17-.08-.1S151.9,21,152,21Zm.2,2.81a.3.3,0,0,1-.2.05.92.92,0,0,0-.05.35H152l.3-.21Zm-.15-.1.08,0a.19.19,0,0,0,.13,0v-.05l-.16-.2a.22.22,0,0,1,0,.12A.13.13,0,0,0,152,23.73Zm.15,6.62c0,.07.06,0,.06-.1s0-.22-.08-.17S152.1,30.22,152.16,30.35Zm0-3c.07.07.11,0,.13-.08s0-.14-.08-.07A.23.23,0,0,0,152.11,27.39Zm.11-5.76s-.06,0-.06,0a1.36,1.36,0,0,0,.25.48q.1.08.12,0a.44.44,0,0,0,0-.25.75.75,0,0,0-.23-.27Zm.2,10.88s0-.1,0-.2-.09-.05-.08,0S152.35,32.51,152.42,32.51Zm0-1.31a0,0,0,0,0,0,.05c0,.07,0,.06,0,0S152.48,31.14,152.42,31.2Zm.3-8.48a1.19,1.19,0,0,1-.08-.2c0-.07-.08-.1-.18-.1h-.05v0Zm0,8.69s0,0,.08,0h.14c.06,0,.08,0,.08,0s-.07,0-.2,0S152.75,31.37,152.72,31.41Zm.59.6a.27.27,0,0,0-.2.12,1.57,1.57,0,0,1-.2.23c-.07.1-.08.14,0,.12a.61.61,0,0,0,.18-.12Zm.16.55c-.13,0-.16.06-.08.08s.12,0,.12-.08Zm.3-.3c.07,0,.06,0,0,0s-.11,0-.08,0Z"/>
            <path fill="currentColor" d="M179.31,11.39V12.7c0,.27,0,.52,0,.75a2.06,2.06,0,0,1-.08.5,1.22,1.22,0,0,1-.58.65,7.25,7.25,0,0,1-.77.4,1.06,1.06,0,0,0-.43.33.76.76,0,0,0-.18.48V37a1.6,1.6,0,0,0,.2.93,5.15,5.15,0,0,0,.81,1,1.5,1.5,0,0,1,.4,1.23.92.92,0,0,1-.28.65,1.25,1.25,0,0,1-.55.28,1.81,1.81,0,0,1-.7,0,5.71,5.71,0,0,0-.68,0l-1.18,0-1.17,0-1.36.1a3.51,3.51,0,0,1-1.25-.1l-.3-.15a1,1,0,0,1-.33-1,1.83,1.83,0,0,1,.38-.95l.33-.33a1.87,1.87,0,0,0,.27-.37c.17-.28.28-.45.33-.55a1.74,1.74,0,0,0,.08-.65V18.76a.49.49,0,0,0-.18-.42.43.43,0,0,0-.43,0l-.75.35a4.1,4.1,0,0,0-.4.23,4,4,0,0,1-.4.22l-1.05.48-1.06.48a1.33,1.33,0,0,0-.5.35,1,1,0,0,0-.2.6v3.27a1.36,1.36,0,0,1,0,.2.69.69,0,0,0,0,.2,1.53,1.53,0,0,0,0,.3c0,.1,0,.19,0,.25v1.21c0,.53,0,1.06,0,1.61s0,1.06,0,1.61a2.21,2.21,0,0,0,.22,1.1,8.43,8.43,0,0,0,.73.91,1.72,1.72,0,0,1,.38.62,1.68,1.68,0,0,1,0,.68c-.07.58-.29.86-.68.89l-1.23,0h-1.51l-.48,0a3.53,3.53,0,0,0-.48,0l-.6,0-.83,0H162a2,2,0,0,1-.53,0,1,1,0,0,1-.6-.85,1.81,1.81,0,0,1,.2-1.05,1.79,1.79,0,0,1,.38-.45l.32-.3a1.14,1.14,0,0,0,.25-.38,3.87,3.87,0,0,0,.2-.68,2.3,2.3,0,0,0,.06-.6v-1c0-.37,0-.71,0-1s0-.56,0-.73v-2.7c0-.17,0-.32,0-.45a3.09,3.09,0,0,0,0-.45,4.2,4.2,0,0,0-.08-1,.44.44,0,0,0-.28-.34,1.52,1.52,0,0,0-.53-.08,3,3,0,0,1-.82-.15c-.48-.13-.7-.32-.68-.55s0-.55.07-.95q0-1,0-2.1a1.46,1.46,0,0,1,.13-.61.68.68,0,0,1,.48-.4h1.2a.57.57,0,0,0,.45-.65v-12a2.87,2.87,0,0,0-.1-.71,1.68,1.68,0,0,0-.3-.58l-.45-.48-.28-.3a1,1,0,0,1-.18-.4c0-.17-.06-.32-.07-.45a1.4,1.4,0,0,1,0-.45.69.69,0,0,1,.25-.48.75.75,0,0,1,.5-.22h.06c1,0,2.06,0,3.08,0l3,0c.56,0,.85.27.85.8v.45a.85.85,0,0,0-.08.28.56.56,0,0,1-.12.28,2.43,2.43,0,0,1-.28.4c-.12.13-.23.27-.33.4a1.93,1.93,0,0,0-.6,1.41V15.1a.46.46,0,0,0,.2.42.45.45,0,0,0,.45,0l.3-.14,1.41-.71,1.8-1a2.64,2.64,0,0,0,.63-.52,1.37,1.37,0,0,0,.22-.83c0-1.34,0-2.67,0-4v-4a2.06,2.06,0,0,0-.05-.45,2.55,2.55,0,0,0-.15-.44,1.43,1.43,0,0,0-.27-.43l-.38-.38a2.91,2.91,0,0,1-.33-.4,1.54,1.54,0,0,1-.18-.5V1.09a.83.83,0,0,1,.23-.52.64.64,0,0,1,.52-.28c.81,0,1.61,0,2.41,0l2.36,0h1.51a.78.78,0,0,1,.48.18.51.51,0,0,1,.22.42,1.93,1.93,0,0,1-.1,1.25,4.2,4.2,0,0,1-.3.38,2.2,2.2,0,0,1-.35.33,2.16,2.16,0,0,0-.6,1.41v5a3.28,3.28,0,0,0,.05.91.43.43,0,0,0,.45.27l.63,0a1,1,0,0,1,.58.18C179.12,10.68,179.24,11,179.31,11.39ZM162.8,20.62s0-.05,0-.05,0,0,0,0-.2,0-.2,0v.23Zm-.2,12c0,.07.05.05.15,0s.08-.18-.05-.24a.14.14,0,0,0-.1,0c0,.07.06.09.08.05A2,2,0,0,1,162.6,32.66Zm.4-.5c0-.2,0-.31,0-.32s0,0-.07.05a.42.42,0,0,0-.08.2c0,.08,0,.12.08.12Zm.15-4c.13-.13.11-.18-.06-.13s-.21.11-.14.18a.07.07,0,0,0,.1,0A.14.14,0,0,1,163.15,28.15Zm-.1,3s0,0,.15,0h.05c.1-.07.11-.12,0-.15a.19.19,0,0,0-.18,0A.27.27,0,0,1,163.05,31.1Zm.15,1.41c0,.1.08.15.13.15a.28.28,0,0,0,.17-.1l-.14,0S163.27,32.58,163.2,32.51Zm.61.75v0a1.3,1.3,0,0,0-.13-.23s-.06,0-.12.18.07.1.2.1h.05Zm.1-2.26a.35.35,0,0,0-.16,0l-.1,0a.78.78,0,0,0,.1.25Zm-.06,1v-.12s0-.07-.1-.13a.66.66,0,0,0-.08.28,1,1,0,0,1,.13.28.49.49,0,0,1,0-.15A.35.35,0,0,0,163.85,32Zm.3-2.51s-.06,0-.17,0-.14.09-.08.15l.25.25.24.24s.05,0,.05,0l-.4-.45a.47.47,0,0,1,.14,0S164.22,29.57,164.15,29.5Zm0,1.36-.1.1s0,0,0,0,0,0,0,0a.18.18,0,0,0,.1,0,.3.3,0,0,1,.15,0l.05-.1Zm.49-.41a.2.2,0,0,0-.14,0c0,.2-.11.27-.31.2l-.1.05v0a.94.94,0,0,0,.35,0s.1-.05.2-.15l.25-.2a0,0,0,0,1,0,0,.16.16,0,0,1-.1,0c0-.07,0-.13-.24-.2Zm-.19,2.06a.07.07,0,0,0,.1,0s0,0,0,0,0,0,0,0l-.14-.15c.07-.07.1-.11.1-.14v-.05a.16.16,0,0,1-.23,0c-.08,0-.11,0-.08.08a.48.48,0,0,0,.11.15c0,.1.08.14.14.14S164.37,32.51,164.41,32.51Zm-.06-7.93a.16.16,0,0,0-.1.05l.1.1a.19.19,0,0,1,.18,0c.05,0,.11,0,.18-.05a.14.14,0,0,1,.1,0s0-.05-.1-.05h-.36Zm.81,5.83q.15-.11.15-.15s0-.05-.08-.08a.56.56,0,0,1-.16-.07s-.06-.1,0-.21l-.2-.1-.25-.1,0,0a.13.13,0,0,0-.1,0,.18.18,0,0,1-.11.05.61.61,0,0,0,.61.15,1,1,0,0,0,0,.24A2,2,0,0,0,165.16,30.41ZM164.7,29c-.17.17-.25.24-.28.24h.33V29Zm0-1.56a.16.16,0,0,1-.07.15,1,1,0,0,0-.18.14l.2.05a.12.12,0,0,0,.1-.05l.05-.17A.71.71,0,0,0,164.7,27.39Zm-.14,5.07a.69.69,0,0,1,.3-.1s0,0,0,0,0,0,0-.05-.08.08-.15,0S164.56,32.3,164.56,32.46Zm.2-4.37c0,.07,0,.11,0,.13s0,0,.08.08a1.5,1.5,0,0,1,.1-.41c-.17-.07-.25-.09-.25-.07A1.36,1.36,0,0,0,164.76,28.09Zm.24-6.87c-.07.07-.1.12-.1.15a.29.29,0,0,1-.05.15l.25-.15S165.07,21.29,165,21.22Zm0,7.43a.5.5,0,0,0-.05.15.12.12,0,0,1,0,.1l0,.05c.13-.07.2-.11.2-.13A.9.9,0,0,0,165,28.65Zm-.06-2.06a.83.83,0,0,0,0,.31l.15-.15L165,26.6h0Zm.26,6.32.05,0a1.29,1.29,0,0,1-.21-.3H165v-.15l0,.12a1.58,1.58,0,0,0,.1.28A.29.29,0,0,0,165.16,32.91Zm-.1-17.4-.05,0c.07.07.1.12.1.15a.31.31,0,0,0,.13,0s0,0,.12,0Zm.45,13.59q.15-.11,0-.15c-.11,0-.26,0-.42.2a.55.55,0,0,0,.18.1Zm.05-4.26a.4.4,0,0,0-.25-.05.12.12,0,0,0,0-.08.12.12,0,0,1,0-.07c-.07.13-.1.21-.08.24a.68.68,0,0,0,.28.15l-.1.15C165.59,25.12,165.66,25,165.56,24.84Zm.05,5.06c0-.06,0-.14-.2-.24-.1.07-.09.11,0,.12S165.64,29.84,165.61,29.9Zm-.1-.35q.15.25.3,0s0-.05-.05-.05h-.14A.21.21,0,0,1,165.51,29.55Zm.35-2c-.17.17-.2.32-.1.45a.21.21,0,0,1,.1-.12.09.09,0,0,0,0-.08A.47.47,0,0,0,165.86,27.59Zm-.15,1.16c.1.1.11.19,0,.25.17.07.24,0,.23-.08a1.67,1.67,0,0,0-.08-.32.14.14,0,0,0-.1,0,.16.16,0,0,1-.1.05Zm.15,2.61a1.31,1.31,0,0,0-.1.3s0,0,.05,0a.35.35,0,0,0,.08-.15.35.35,0,0,0,0-.2Zm0-.81c.07-.06.05-.14,0-.24s-.11,0-.05.2A.14.14,0,0,0,165.91,30.55Zm0-1.35c0,.13,0,.18.18.12s.12-.1-.08-.17A.16.16,0,0,0,165.91,29.2Zm.25-1.05a1.17,1.17,0,0,1-.1-.25,2.16,2.16,0,0,0-.1.25.82.82,0,0,0,0,.2q.26-.11.3,0c0,.07.05.07.05,0ZM166,32.76a.43.43,0,0,0,.15-.25c-.07-.13-.13-.14-.18,0s-.06.17,0,.2A.14.14,0,0,0,166,32.76Zm.05-2s0,0,0,0,.18.07.22,0,0-.1-.12-.1Zm.4-.25c0-.07-.08-.14-.23-.23s-.19,0-.12.13l0,.14.2,0Zm-.05-1.86h.23c.11,0,.14,0,.07-.1h-.2c-.17,0-.21,0-.14.1Zm.1.55c0,.07.07.06.1,0a.45.45,0,0,0,0-.28c-.13,0-.21,0-.24.05l.14.07S166.48,29.07,166.51,29.2Zm.1,2.66c0,.1.07.1.1,0s0-.14-.05-.08S166.61,31.79,166.61,31.86ZM172,39.28c.07,0,.09,0,.06-.1S172,39,171.89,39Zm.45-.59c-.13.07-.17.13-.1.2s.13,0,.2-.1S172.56,38.62,172.43,38.69Zm0,1.05c.1,0,.14,0,.14-.1s-.07-.07-.2,0S172.32,39.7,172.39,39.74Zm.14-2.06c.2,0,.3-.08.3-.25a1.28,1.28,0,0,0-.17.1l-.18.1S172.5,37.68,172.53,37.68Zm.26-1.66s.1,0,.2-.14a.23.23,0,0,0-.16-.05.11.11,0,0,1,0,.08A.2.2,0,0,0,172.79,36Zm.25,3.82c-.07,0-.08,0,0,0s.08,0,.08,0Zm.14-2.21.08-.18c0-.05.08-.09.18-.13l-.3-.2h-.06c.07.07.1.12.1.15a.31.31,0,0,1,0,.2l-.1.2.1,0Zm0,1.85c.07,0,.1,0,.1-.1s-.13-.11-.18,0S173,39.45,173.14,39.48Zm.3-8.68a.78.78,0,0,0-.25.1h.05a.1.1,0,0,1,.08,0l.08,0,.1.15h.05Zm-.26,4.07.3-.1,0-.1a.16.16,0,0,1-.1,0,.37.37,0,0,0-.15,0Zm.46,2.26c-.13-.2-.25-.25-.35-.15a.54.54,0,0,0,.05.21c.07-.07.11-.07.15,0S173.57,37.23,173.64,37.13Zm-.16.8c.07,0,.1,0,.08-.1a1.36,1.36,0,0,1,0-.2h0l0-.05-.08,0s0,0-.08,0v.25C173.38,37.88,173.42,37.93,173.48,37.93Zm0-7.13h.05s0,0,0,0,0,0,0-.05v.09Zm.9,6.88c.07-.1.11-.15.13-.15h-.18l.05-.1a.49.49,0,0,1,0-.2c-.13.1-.22.14-.25.13l-.15-.13q0,.26-.15.18a.21.21,0,0,0-.25,0,2.63,2.63,0,0,1,.43,0A.49.49,0,0,1,174.34,37.68Zm-.6-12.24a.49.49,0,0,1,0,.15.19.19,0,0,0,0,.1.14.14,0,0,0,.1,0,.77.77,0,0,1,.1-.24s0,0,0,0,0,0,0-.05,0,0,0,0A.08.08,0,0,1,173.74,25.44Zm.35,11.69a.33.33,0,0,1-.1-.25,1,1,0,0,1-.18.15.1.1,0,0,0,0,.15.24.24,0,0,0,.14,0Zm-.25,2c0,.07.06,0,.08-.05s0-.11-.08,0S173.8,39.05,173.84,39.09Zm.25-19.32a.49.49,0,0,1-.2.05.18.18,0,0,0,0,.1.18.18,0,0,1,0,.1A.06.06,0,0,0,174,20Zm0,1.7c.07-.07.1-.11.1-.15l-.3-.1-.05.05Zm.8,14a.88.88,0,0,0-.3.07.43.43,0,0,0-.25.18l.2.1c0-.17,0-.25.1-.25A.36.36,0,0,0,174.94,35.48Zm.2-12.65a.81.81,0,0,0-.35-.21.4.4,0,0,0-.25.15.5.5,0,0,1,.15-.05.14.14,0,0,0,.1,0v.15Zm-.6,14.3a.53.53,0,0,1,.15-.12.29.29,0,0,0,.1-.13s0,0,0,0,0-.05,0-.05,0,0-.06,0l-.1.11a.16.16,0,0,1,0,.1l-.1-.15v.33Zm.25,1.8c.07,0,.09,0,.08,0s-.06-.07-.12,0,0,0,0,0S174.76,38.93,174.79,38.93Zm.06-3.16a.78.78,0,0,1,.3-.05l0,.1h.06v-.14a.11.11,0,0,1-.08,0l-.08,0a.3.3,0,0,0-.24.1Zm.59,1-.2-.11s-.05,0-.05-.14l-.1.1.1.15-.1.1a.43.43,0,0,0,.17,0l.18,0Zm-.1.55a.41.41,0,0,0,0-.14.33.33,0,0,1,0-.15h-.14v.1l.14.2h.05Zm-.15-.8.21.1v-.05c-.07-.07-.12-.1-.15-.1Zm.41-12.85a1,1,0,0,0,0-.4h0Zm0,13.3a1.16,1.16,0,0,0,.34,0l-.07-.15s0,0,.12,0c-.1-.1-.18-.07-.25.1l-.14.1Zm.1-5a.61.61,0,0,0-.06.25l.1,0a.31.31,0,0,0,.15,0Zm.35,2.31-.11,0a.28.28,0,0,1-.15,0c0-.07,0-.11-.1-.11h-.05l.14.25Zm0,4.16h.22c.05,0,0-.07,0-.2a2,2,0,0,1-.35.12c-.07,0-.1,0-.1,0S175.93,38.43,176.1,38.43Zm.65-.45c0-.07,0,0-.1.1l-.05.05c0,.1,0,.15,0,.15a.68.68,0,0,0,.18-.1V38Z"/>
            <path fill="currentColor" d="M164.48,46v.18c0,.31-.36.57-.8.57H137.19c-.44,0-.8-.26-.8-.57V46c0-.32.36-.57.8-.57h26.49C164.12,45.46,164.48,45.71,164.48,46Z"/>
            <path fill="currentColor" d="M42.21,46v.18c0,.31-.36.57-.8.57H14.92c-.44,0-.8-.26-.8-.57V46c0-.32.36-.57.8-.57H41.41C41.85,45.46,42.21,45.71,42.21,46Z"/>
        </g>
    </g>
</svg>
