<svg xmlns="http://www.w3.org/2000/svg" viewBox="0 0 92.05 100">
    <defs><style>.bp-hop-fill { fill-rule:evenodd; }</style></defs>
    <g>
        <g>
            <rect width="92.05" height="100"/>
            <path class="bp-hop-fill" fill="currentColor" d="M59.47,44.91c.49.44,1,.85,1.48,1.25,0-.86-.05-1.71-.11-2.43A13.7,13.7,0,0,1,62,47c.56.41,1.14.79,1.71,1.15,0-1.33,0-3.78-.11-4.59a21.13,21.13,0,0,1,1.74,5.53,15.66,15.66,0,0,0,1.69.83,46.85,46.85,0,0,0-.67-6.65,23,23,0,0,1,2.34,7.35c.62.24,1.27.46,1.92.67a44.33,44.33,0,0,0-.95-7.82,24.56,24.56,0,0,1,2.55,8.3c.85.23,1.72.44,2.61.64C73,45.27,71.26,41.1,68.29,37.13c-1.31-.47-2.57-1-3.79-1.56l-.15.35c-.11.25-.24.51-.37.76L63.26,38l-1.37-.55a16.14,16.14,0,0,1-1.76-.83,16.37,16.37,0,0,1,.23,2.72,18.35,18.35,0,0,1-.89,5.61ZM55.9,31.81c.12-.35.23-.72.34-1.07a16.3,16.3,0,0,0,4,1.59,33.59,33.59,0,0,1-3.63-3c.09-.45.16-.9.22-1.35a15.22,15.22,0,0,0,3.7,1.45,32.61,32.61,0,0,1-3.59-3,14.9,14.9,0,0,0,0-1.64A14.23,14.23,0,0,0,60.18,26a33.27,33.27,0,0,1-3.57-3,14.8,14.8,0,0,0-.47-1.7,12,12,0,0,0,2.63.93C58.45,22,56.29,20,55.09,19a15.61,15.61,0,0,0-3.24-3.91c7.77,2.31,14.41,14,10.66,20.76a30.46,30.46,0,0,1-6.61-4.05ZM46,40.13c-4.74-5-6.89-9.83-6.89-14.65,0-4.19,2.37-8.36,5.4-11.38-5.52,3.09-7.74,7.32-7.74,11.73C36.79,32.09,41,38.74,46,43a23.61,23.61,0,0,0,4.45-4.71c5.18-6.81,7.4-15.88.18-22.07C49.39,15.19,47.31,14,46,14v1.73a6.65,6.65,0,0,0,2.63,1.88A4.89,4.89,0,0,1,46,17.41V19a13.5,13.5,0,0,0,3,1.06,13.18,13.18,0,0,1-3,.73V22.3a9.52,9.52,0,0,0,3-.17,7.26,7.26,0,0,1-3,1.73v1.92a17.88,17.88,0,0,0,3.56-1.57A12.29,12.29,0,0,1,46,27.55v2.08a23.62,23.62,0,0,0,4.33-3.43A14.4,14.4,0,0,1,46,31.68v2a19.49,19.49,0,0,0,4.35-3.38A10.22,10.22,0,0,1,46,35.76v2a25.38,25.38,0,0,0,4.71-3.91A22.61,22.61,0,0,1,46,40.13Zm-9.88-8.32a30,30,0,0,1-6.62,4.05c-3.75-6.75,2.89-18.45,10.66-20.76A16.84,16.84,0,0,0,38,17.46c-3.74,3.43-7.76,9.3-7,15.24a43.87,43.87,0,0,0,4.46-3.51,20.71,20.71,0,0,0,.7,2.62Zm29.05.7a14.38,14.38,0,0,0,4.16,1.64A29.28,29.28,0,0,1,65.26,31q0-.64-.09-1.29a10.35,10.35,0,0,0,3.32,1.73c-1-.78-2.8-2.68-3.65-3.55a15,15,0,0,0-.47-1.62,11.12,11.12,0,0,0,3.28,2.29c-1.28-1.43-2.88-3.13-4.41-5a22.22,22.22,0,0,0-1.53-2.62c-.42-.61-.87-1.22-1.36-1.8C67.84,24.32,71.27,33,74.78,37.29c-2.4-.57-7.82-2-9.81-3.39a8.83,8.83,0,0,0,.22-1.39Zm-38.42-1a33.31,33.31,0,0,1-4,1.74c.86-1.39,1.73-2.78,2.66-4.14s1.88-2.81,2.69-4a23.3,23.3,0,0,1,2.21-4.11c.42-.62.87-1.22,1.36-1.81C24.2,24.3,20.77,32.93,17.26,37.28A48.5,48.5,0,0,0,27,34a12.08,12.08,0,0,1-.27-2.48ZM22.19,66.69a77,77,0,0,1,3.36,11.67l2.84-2.88q-.48-.89-.9-1.77l-1,1.07C25.6,71.28,25,68.55,24,65.54l-1.77,1.15ZM20.67,53.22c.86-.25,1.68-.51,2.49-.8C23,54,22.4,58.56,22.31,59.2c-.12.95-.26,1.92-.39,2.88l3.9-2.53a20.4,20.4,0,0,0,1,2.13l-8,5.22c.46-2.55,1.46-9.47,1.88-13.68ZM37.06,68.29,32.88,79.57c-3.56-5.21-6-10-6.22-15.79l1-.65c.56,2,2.1,7.42,4.68,11.19L35.41,66q.78,1.17,1.65,2.28Zm9,17.76a63.34,63.34,0,0,0,10.13-9.77l-2.41-6.51a60.21,60.21,0,0,1-6.65,6.39L46,77.07v1.56a22.18,22.18,0,0,0,4.32-2.75A11,11,0,0,1,46,80.06v1.25a27.36,27.36,0,0,0,6.55-4.49A17.38,17.38,0,0,1,46,83.15a82.58,82.58,0,0,1-7.46-7.34l1.54-4.09c-.62-.63-1.22-1.28-1.81-1.94l-2.41,6.51A63.81,63.81,0,0,0,46,86.05Zm0-11.17c4-3.39,8.15-7.45,10.5-12l-4.38-6.7a63.52,63.52,0,0,1-5.07,4.58l-1,.86v2a40.83,40.83,0,0,0,3.65-2.4A17.1,17.1,0,0,1,46,65.09v1.36a49.82,49.82,0,0,0,5.7-4.18A24.86,24.86,0,0,1,46,68.4v1.41c2.44-1,6.13-4.29,7.54-5.59A23.39,23.39,0,0,1,46,71.94,40.32,40.32,0,0,1,38.24,63l3.37-5.14c-.58-.53-1.15-1.09-1.71-1.66l-4.39,6.7c2.36,4.53,6.48,8.59,10.51,12Zm-7.3-19.94-7.18,11c-4.13-5.72-5.43-8.61-5.47-14.68.83-.39,1.64-.81,2.44-1.27a24,24,0,0,0,.21,5.19,16.83,16.83,0,0,0,2.76,6.57l5.42-8.92c.57.74,1.19,1.46,1.82,2.15Zm-6.15-10a19.14,19.14,0,0,1-.75-3.39,6.18,6.18,0,0,1-1.9,2.57,28.18,28.18,0,0,1-9.35,5,33.7,33.7,0,0,1,4.65-10,37.11,37.11,0,0,1,2.61-2.89l-.14-.28-.14-.35a39.62,39.62,0,0,1-3.79,1.56c-3,4-4.68,8.14-6.55,15.24,5.88-1.3,10.69-3.26,15.36-7.46Zm1.3-9.45a14.81,14.81,0,0,0-.51,3.84c0,7.7,5.37,14.2,12.66,20.17C53.31,53.5,58.68,47,58.68,39.3a15,15,0,0,0-.51-3.86c-.77-.49-2-1.37-2.89-2a28.47,28.47,0,0,1-3.44,5.86,25.58,25.58,0,0,1-4.74,5L46,45.23v1.83a53,53,0,0,0,4.53-3.12A24.7,24.7,0,0,1,46,48.86v2.08a60.35,60.35,0,0,0,6.34-4.68A26.59,26.59,0,0,1,46,52.75V54.6c2.39-1,6.16-4.57,7.61-5.9A24.47,24.47,0,0,1,46,56.63c-6.17-5.46-10.5-10.88-10.5-18.33a14.26,14.26,0,0,1,.91-4.53l0-.12c-.82.62-1.7,1.24-2.6,1.81Zm36,31.23a77,77,0,0,0-3.36,11.67l-1.16-1.17a15.56,15.56,0,0,0,.89-4.08,36,36,0,0,1-1.79,3.16l-.78-.79A26.59,26.59,0,0,0,67,64.83l2.86,1.86Zm1.52-13.47c.42,4.21,1.42,11.13,1.88,13.68l-2.14-1.39a21,21,0,0,0-.1-4.88c-.19.9-.53,2.51-1,4.17l-1.57-1a20.36,20.36,0,0,0,.34-4.43c-.23.86-.8,2.24-1.34,3.78l-2.24-1.45a19.73,19.73,0,0,0,2.42-9.74,38.19,38.19,0,0,0,3.74,1.28ZM55,68.29a30.19,30.19,0,0,0,2.59-3.82l2.87,4.38,1.42-2c1-1.37,1.83-2.59,2.53-3.74l1,.65c-.22,5.82-2.66,10.57-6.22,15.79l-.51-1.37a17.16,17.16,0,0,0,2.69-6.6,32.92,32.92,0,0,1-3.29,5l-.56-1.5A17.5,17.5,0,0,0,59,70.44c-.5.89-1.25,2-2,3.28l-.56-1.52a21.81,21.81,0,0,0,.89-3.47,19.72,19.72,0,0,1-1.4,2.11L55,68.29ZM53.32,54.94a29.22,29.22,0,0,0,5.54-8.35A29.8,29.8,0,0,0,66,51.23c0,6.06-1.34,9-5.47,14.67L59.27,64a22.54,22.54,0,0,0,3.45-5.57,39.23,39.23,0,0,1-4.3,4.27l-1-1.44a21.52,21.52,0,0,0,2.8-4.91c-.71.81-2.09,2.33-3.58,3.73l-1.06-1.62A21.08,21.08,0,0,0,58.12,54c-.66.74-1.94,2-3.28,3.29Z"/>
        </g>
    </g>
</svg>
