<?xml version="1.0" encoding="utf-8"?>
<!-- Generator: Adobe Illustrator 25.4.1, SVG Export Plug-In . SVG Version: 6.00 Build 0)  -->
<svg version="1.1" id="Layer_1" xmlns="http://www.w3.org/2000/svg" xmlns:xlink="http://www.w3.org/1999/xlink" x="0px" y="0px"
	 viewBox="0 0 180 180" style="enable-background:new 0 0 180 180;" xml:space="preserve">
<style type="text/css">
	.st0{fill-rule:evenodd;clip-rule:evenodd;fill:#092628;}
	.st1{fill-rule:evenodd;clip-rule:evenodd;fill:#D9B767;}
</style>
<path class="st0" d="M117.38,79.56c0.99,0.89,1.98,1.73,2.98,2.52c-0.02-1.72-0.1-3.45-0.21-4.9c0.66,1.03,1.63,3.68,2.37,6.53
	c1.14,0.83,2.28,1.6,3.44,2.32c0-2.68,0.01-7.65-0.22-9.27c1.06,1.61,2.92,7.49,3.51,11.17c1.18,0.65,2.03,1.06,3.43,1.68
	c-0.1-5.1-0.86-10.65-1.35-13.45c2.08,3.82,3.98,9.52,4.71,14.84c1.27,0.49,2.56,0.94,3.88,1.36c0.03-5.4-1.3-12.66-1.92-15.79
	c2.39,4.18,4.49,11.09,5.16,16.76c1.71,0.47,3.46,0.9,5.26,1.29c-3.77-14.34-7.22-22.77-13.22-30.76c-2.64-0.94-5.19-1.98-7.66-3.15
	c-0.09,0.23-0.19,0.46-0.29,0.69c-0.23,0.52-0.49,1.03-0.76,1.52l-1.45,2.6l-2.76-1.11c-1.14-0.46-2.33-1.02-3.57-1.68
	c0.3,1.8,0.47,3.63,0.47,5.49C119.16,72.19,118.52,75.97,117.38,79.56L117.38,79.56z M110.17,53.12c0.25-0.73,0.47-1.45,0.67-2.18
	c3.1,1.66,6.58,3.02,8.03,3.21c-2.29-1.66-5.29-4.09-7.33-6.15c0.18-0.91,0.32-1.81,0.43-2.72c2.95,1.53,6.12,2.74,7.48,2.92
	c-2.26-1.64-5.21-4.03-7.25-6.06c0.03-1.11,0-2.22-0.09-3.31c2.72,1.34,5.47,2.37,6.72,2.54c-2.25-1.63-5.19-4-7.22-6.04
	c-0.24-1.16-0.55-2.3-0.95-3.43c2.22,1,4.27,1.73,5.31,1.87c-0.64-0.46-5.02-4.43-7.42-6.52c-1.71-2.98-3.97-5.64-6.55-7.9
	c15.7,4.66,29.11,28.28,21.53,41.93C119.49,59.67,114.8,56.66,110.17,53.12L110.17,53.12z M90.21,69.92
	C80.63,59.72,76.3,50.06,76.3,40.32c0-8.46,4.8-16.88,10.91-22.98c-11.15,6.23-15.64,14.77-15.64,23.69
	c0,12.64,8.41,26.06,18.64,34.75c4.26-3.61,7.02-6.55,9-9.51c10.45-13.75,14.93-32.06,0.34-44.56c-2.53-2.17-6.74-4.68-9.34-4.68
	v3.5c1.67,2.1,3.8,3.12,5.31,3.79c-2.09,0.47-4.14,0.15-5.31-0.3v3.26c1.17,0.67,4.08,1.74,5.97,2.14c-1.5,0.69-4.6,1.3-5.97,1.48v3
	c1.43,0.34,4.29,0.04,6.16-0.34c-1.3,1.44-4.6,3.25-6.16,3.5v3.87c2.08-0.52,5.66-2.26,7.18-3.18c-1.24,2.18-4.3,4.84-7.18,6.75
	v4.21c2.95-1.75,6.57-4.68,8.74-6.94c-1.61,3.89-5.12,8.35-8.74,11.08v4.11c2.9-1.76,5.62-3.56,8.78-6.83
	c-1.76,4.9-4.24,7.82-8.78,10.97v4.11c2.12-1.06,6.93-5.16,9.51-7.9C98.22,60.95,93.7,66.73,90.21,69.92L90.21,69.92z M70.26,53.12
	c-4.63,3.54-9.33,6.55-13.36,8.17c-7.58-13.65,5.83-37.27,21.53-41.93c-1.73,1.51-3.22,3.1-4.48,4.76
	c-7.55,6.91-15.67,18.77-14.1,30.78c2.25-1.46,5.48-4.01,9.01-7.09C69.2,49.59,69.67,51.36,70.26,53.12L70.26,53.12z M128.92,54.51
	c1.95,1.19,5.3,2.67,8.41,3.32c-2.59-1.79-6.25-4.3-8.25-6.43c-0.03-0.87-0.1-1.73-0.2-2.6c1.45,1.14,4.51,2.98,6.71,3.49
	c-1.95-1.57-5.65-5.41-7.38-7.18c-0.29-1.31-0.51-1.99-0.94-3.27c1.78,1.73,4.44,3.79,6.62,4.62c-2.59-2.87-5.82-6.32-8.89-10.06
	c-0.94-1.88-1.98-3.66-3.1-5.29c-0.84-1.23-1.76-2.45-2.76-3.64c15.13,10.48,22.06,27.91,29.15,36.7
	c-4.86-1.17-15.8-4.07-19.81-6.84C128.69,56.6,128.83,55.58,128.92,54.51L128.92,54.51z M51.33,52.44c-2.59,1.34-5.27,2.5-8.08,3.52
	c1.74-2.82,3.49-5.63,5.37-8.36c2.04-2.97,3.81-5.69,5.43-8.19c1.22-2.99,2.77-5.82,4.47-8.31c0.84-1.23,1.76-2.45,2.76-3.64
	c-15.13,10.48-22.06,27.91-29.15,36.7c7.46-1.8,13.92-3.9,19.75-6.71C51.52,55.81,51.34,54.13,51.33,52.44L51.33,52.44z
	 M42.07,123.56c3.25,8.25,4.69,14.66,6.8,23.58l5.73-5.82c-0.64-1.19-1.25-2.38-1.81-3.58l-2.13,2.17c-1.68-7.08-2.93-12.58-5-18.67
	L42.07,123.56L42.07,123.56z M39.02,96.35c1.72-0.49,3.4-1.03,5.02-1.61c-0.4,3.21-1.54,12.4-1.72,13.7
	c-0.26,1.93-0.52,3.87-0.79,5.81l7.87-5.11c0.57,1.42,1.25,2.85,2.04,4.31l-16.23,10.54C36.14,118.83,38.17,104.86,39.02,96.35
	L39.02,96.35z M72.12,126.79l-8.44,22.79c-7.2-10.52-12.12-20.14-12.57-31.89l2.01-1.3c1.13,4.1,4.23,14.98,9.44,22.6l6.22-16.79
	C69.82,123.76,70.94,125.29,72.12,126.79L72.12,126.79z M90.21,162.66c8.23-6.38,14.44-12.53,20.46-19.73l-4.87-13.15
	c-4.19,4.79-8.91,9.11-13.42,12.91l-2.17,1.83v3.16c2.84-1.33,6.7-3.8,8.73-5.56c-2.03,3.88-5.23,6.26-8.73,8.44v2.52
	c3.97-1.48,10.32-6.39,13.23-9.07c-2.97,5.21-7.99,9.94-13.23,12.8c-4.36-3.58-11.9-11.2-15.07-14.83l3.12-8.26
	c-1.25-1.27-2.47-2.58-3.64-3.93l-4.87,13.15C75.77,150.14,81.98,156.29,90.21,162.66L90.21,162.66z M90.21,140.1
	c8.15-6.85,16.46-15.04,21.23-24.22l-8.87-13.53c-3.26,3.32-6.75,6.4-10.22,9.23l-2.14,1.75v3.96c2.75-1.68,5.91-3.64,7.36-4.85
	c-1.56,2.54-4.42,5.51-7.36,7.88v2.74c4.42-2.63,9.3-6.59,11.52-8.44c-2.39,3.89-7.07,9.06-11.52,12.37v2.86
	c4.93-2.02,12.4-8.67,15.24-11.29c-2.97,5.39-10.01,12.71-15.24,15.57c-6.27-5.69-12.18-11.95-15.7-18.06l6.8-10.37
	c-1.17-1.09-2.33-2.21-3.45-3.36l-8.87,13.53C73.75,125.06,82.06,133.25,90.21,140.1L90.21,140.1z M75.47,99.83l-14.51,22.13
	c-8.34-11.56-10.98-17.39-11.05-29.63c1.69-0.79,3.33-1.65,4.93-2.58c-0.34,3.21,0.07,8.42,0.43,10.48c0.88,5,2.69,8.84,5.58,13.29
	l10.94-18.03C72.95,96.98,74.19,98.42,75.47,99.83L75.47,99.83z M63.04,79.56c-0.7-2.21-1.21-4.49-1.51-6.84
	c-0.76,2.14-2.45,4.1-3.85,5.21c-5.94,4.73-11.97,7.85-18.88,10.03c2.2-7.14,4.92-13.92,9.4-20.14c0.74-1.03,2.76-3.25,5.25-5.83
	c-0.09-0.19-0.18-0.38-0.27-0.57c-0.1-0.23-0.2-0.46-0.29-0.69c-2.47,1.17-5.02,2.21-7.66,3.15c-6,8-9.45,16.43-13.22,30.76
	C43.89,92.02,53.61,88.04,63.04,79.56L63.04,79.56z M65.66,60.48c-0.69,2.65-1.02,5.23-1.02,7.75c0,15.56,10.85,28.69,25.58,40.74
	c14.73-12.04,25.57-25.18,25.57-40.74c0-2.53-0.34-5.13-1.03-7.79c-1.56-0.99-4.09-2.77-5.83-4.05c-1.72,4.04-4.08,8.02-6.97,11.84
	c-2.59,3.85-6.04,7.13-9.56,10.12l-2.19,1.85v3.71c3.5-2.15,7.3-4.84,9.15-6.31c-1.98,3.06-5.49,6.85-9.15,9.95v4.19
	c4.7-2.74,10.34-7.47,12.82-9.44c-2.64,4.08-8.01,9.82-12.82,13.12v3.73c4.84-2.1,12.45-9.24,15.37-11.93
	c-2.97,5.39-10.14,13.16-15.37,16.02c-12.45-11.03-21.2-21.98-21.2-37.02c0-3.16,0.75-5.79,1.84-9.16l0.08-0.23
	C69.26,58.08,67.48,59.32,65.66,60.48L65.66,60.48z M138.35,123.56c-3.25,8.25-4.69,14.66-6.8,23.58l-2.33-2.37
	c1.09-3.27,1.83-6.81,1.79-8.24c-0.96,1.92-2.29,4.32-3.61,6.38l-1.57-1.6c3.61-6.69,6.12-13.64,6.75-21.51L138.35,123.56
	L138.35,123.56z M141.4,96.35c0.85,8.51,2.88,22.49,3.81,27.65l-4.33-2.81c0.41-3.48,0.13-7.18-0.21-9.86
	c-0.37,1.83-1.06,5.07-1.99,8.43l-3.18-2.06c0.57-3.23,0.85-6.41,0.7-8.94c-0.47,1.72-1.62,4.51-2.71,7.64l-4.52-2.94
	c3.36-6.26,4.7-11.77,4.88-19.67C136.28,94.75,138.78,95.6,141.4,96.35L141.4,96.35z M108.3,126.79c1.94-2.46,3.72-5.03,5.24-7.7
	l5.79,8.84l2.87-3.98c1.99-2.77,3.68-5.24,5.09-7.56l2.01,1.3c-0.45,11.75-5.36,21.36-12.57,31.89l-1.02-2.77
	c2.72-3.9,4.56-8.58,5.43-13.32c-1.47,2.66-3.94,6.86-6.63,10.07l-1.13-3.04c1.47-2.95,2.53-6.16,3.12-9.4
	c-0.99,1.8-2.51,4.11-4.14,6.62l-1.13-3.07c0.8-2.09,1.39-4.83,1.79-7.02c-0.67,1.22-1.82,2.98-2.81,4.27L108.3,126.79L108.3,126.79
	z M104.96,99.83c4.62-5.07,8.61-10.69,11.18-16.87c4.55,3.94,9.26,6.97,14.38,9.37c-0.08,12.25-2.72,18.07-11.05,29.63l-2.5-3.81
	c3.07-3.57,5.54-7.87,6.97-11.25c-1.69,1.91-5.12,5.69-8.69,8.62l-1.91-2.92c2.51-3.16,4.44-7.04,5.66-9.91
	c-1.45,1.64-4.23,4.7-7.22,7.52l-2.14-3.27c2.24-2.94,3.92-6.45,5.03-9.07c-1.33,1.5-3.91,4.03-6.62,6.64L104.96,99.83z"/>
</svg>
