<?xml version="1.0" encoding="utf-8"?>
<!-- Generator: Adobe Illustrator 26.0.3, SVG Export Plug-In . SVG Version: 6.00 Build 0)  -->
<svg version="1.1" id="Layer_1" xmlns="http://www.w3.org/2000/svg" xmlns:xlink="http://www.w3.org/1999/xlink" x="0px" y="0px"
	 viewBox="0 0 180 180" style="enable-background:new 0 0 180 180;" xml:space="preserve">
<style type="text/css">
	.st0{display:none;}
	.st1{display:inline;fill:#D9B767;}
	.st2{fill:#D9B767;stroke:#002B49;stroke-width:2.1276;stroke-linecap:round;stroke-linejoin:round;stroke-miterlimit:10;}
	.st3{fill:#002B49;}
	.st4{fill:#D9B767;}
	.st5{fill-rule:evenodd;clip-rule:evenodd;fill:#D9B767;}
</style>
<g id="Backgrounds" class="st0">
	<rect x="0" y="0" class="st1" width="179.1" height="179"/>
</g>
<g id="Layer_3">
</g>
<g>
	<path class="st2" d="M157.2,61.5c0,0-24.8,0-26.5,0c-4.2,0-13.1-1.4-19.6-8.7c-6.5-7-12.7-9.1-22.1-9.1c-9.8,0-15.8,2.1-22.1,9.1
		c-6.6,7.3-15.6,8.7-19.6,8.7c-1.7,0-26.5,0-26.5,0c-2.1,0-3.8,1.7-3.8,3.8v68.1c0,2.1,1.7,3.8,3.8,3.8h136.4c2.1,0,3.8-1.7,3.8-3.8
		V65.4C161.1,63.2,159.3,61.5,157.2,61.5z"/>
	<path class="st3" d="M153.2,65.7c0,0-25.3,0-26.9,0c-3.7,0-11.7-2.3-17.5-8.8c-5.8-6.3-11.3-8.3-19.7-8.3c-8.7,0-14.1,2-19.8,8.3
		c-5.9,6.5-14,8.8-17.5,8.8c-1.5,0-26.9,0-26.9,0c-1.9,0-3.4,1.5-3.4,3.4v60.5c0,1.9,1.5,3.4,3.4,3.4h128.3c1.9,0,3.4-1.5,3.4-3.4
		V69.1C156.6,67.2,155.1,65.7,153.2,65.7z"/>
	<g>
		<path class="st4" d="M28.2,87.4c0.5-1.1,1.2-2,2-2.8c0.9-0.8,1.9-1.3,3-1.7c1.1-0.4,2.3-0.6,3.6-0.6c1.3,0,2.5,0.1,3.4,0.3
			s1.6,0.5,2.1,0.8l0.1,4.4H42c-0.2-1-0.5-1.8-1-2.6c-0.4-0.7-1-1.3-1.7-1.7C38.7,83.2,37.9,83,37,83c-1.1,0-2.1,0.3-2.9,1
			s-1.5,1.6-1.9,2.8c-0.4,1.2-0.7,2.6-0.7,4.2c0,1.1,0.1,2.2,0.4,3.2c0.2,1,0.6,1.9,1.1,2.7c0.5,0.8,1.1,1.4,1.7,1.9
			c0.7,0.5,1.5,0.7,2.4,0.7c0.8,0,1.6-0.2,2.2-0.6c0.7-0.4,1.2-0.9,1.7-1.7s0.8-1.6,1-2.7h0.5L42.4,99c-0.3,0.2-0.7,0.4-1.3,0.6
			c-0.6,0.2-1.2,0.3-1.9,0.5c-0.7,0.1-1.5,0.2-2.3,0.2c-1.3,0-2.6-0.2-3.7-0.6c-1.1-0.4-2.1-1-3-1.8c-0.8-0.8-1.5-1.7-2-2.8
			c-0.5-1.1-0.7-2.4-0.7-3.8C27.5,89.8,27.7,88.5,28.2,87.4z"/>
		<path class="st4" d="M50.2,98.8c0.1,0.2,0.2,0.3,0.5,0.4s0.6,0.2,1,0.3v0.5h-6.9v-0.5c0.5-0.1,0.8-0.2,1.1-0.3s0.4-0.3,0.5-0.5
			c0.1-0.2,0.1-0.5,0.1-0.8V84.7c0-0.4,0-0.6-0.1-0.8c-0.1-0.2-0.2-0.4-0.5-0.5c-0.2-0.1-0.6-0.2-1.1-0.3v-0.5h6.9v0.5
			c-0.4,0.1-0.8,0.2-1,0.3c-0.2,0.1-0.4,0.2-0.5,0.4c-0.1,0.2-0.1,0.5-0.1,0.8V98C50.1,98.3,50.1,98.6,50.2,98.8z M48.3,90.7h11.3
			v0.7H48.3V90.7z M61.5,98.7c0.1,0.2,0.2,0.4,0.5,0.5c0.2,0.1,0.6,0.2,1,0.3v0.5h-6.9v-0.5c0.5-0.1,0.8-0.2,1-0.3
			c0.2-0.1,0.4-0.2,0.5-0.4c0.1-0.2,0.1-0.5,0.1-0.8V84.6c0-0.4,0-0.6-0.1-0.8c-0.1-0.2-0.2-0.3-0.5-0.4c-0.2-0.1-0.6-0.2-1-0.3
			v-0.5H63v0.5c-0.5,0.1-0.8,0.2-1,0.3c-0.2,0.1-0.4,0.3-0.5,0.5s-0.1,0.5-0.1,0.8v13.2C61.3,98.2,61.4,98.5,61.5,98.7z"/>
		<path class="st4" d="M66.1,83.8c-0.1-0.2-0.2-0.3-0.5-0.4c-0.2-0.1-0.6-0.2-1-0.3v-0.5h6.9v0.5c-0.5,0.1-0.8,0.2-1.1,0.3
			c-0.2,0.1-0.4,0.3-0.5,0.5c-0.1,0.2-0.1,0.5-0.1,0.8v8.5c0,1.3,0.2,2.4,0.6,3.3c0.4,0.9,1,1.5,1.7,1.9c0.7,0.4,1.5,0.6,2.4,0.6
			c1.4,0,2.6-0.5,3.4-1.5c0.9-1,1.3-2.4,1.3-4.2l-0.1-7.5c0-0.7-0.1-1.2-0.1-1.5s-0.3-0.6-0.5-0.8c-0.3-0.2-0.6-0.3-1.2-0.4v-0.5
			h4.5v0.5c-0.5,0.1-0.8,0.2-1,0.4s-0.4,0.4-0.5,0.8s-0.1,0.9-0.1,1.5L80,93.4c0,1.4-0.3,2.6-0.8,3.6c-0.5,1-1.3,1.8-2.3,2.4
			c-1,0.6-2.2,0.9-3.7,0.9c-0.9,0-1.8-0.1-2.7-0.4s-1.6-0.7-2.3-1.2c-0.7-0.6-1.2-1.3-1.6-2.2c-0.4-0.9-0.6-2-0.6-3.2v-8.6
			C66.2,84.3,66.2,84,66.1,83.8z"/>
		<path class="st4" d="M97.8,96.8h-0.3l-0.2-11.1c0-0.7-0.1-1.2-0.1-1.6c-0.1-0.4-0.3-0.6-0.5-0.8c-0.2-0.2-0.6-0.3-1.1-0.3v-0.5
			h4.6v0.5c-0.5,0.1-0.9,0.2-1.1,0.4s-0.4,0.4-0.5,0.8c-0.1,0.4-0.1,0.9-0.1,1.5L98.2,100h-2.9L85.1,84.1h0.4l0.2,12.7
			c0,0.7,0.1,1.2,0.2,1.5c0.1,0.4,0.3,0.6,0.5,0.8s0.6,0.3,1.1,0.3v0.5h-4.6v-0.5c0.5-0.1,0.9-0.2,1.1-0.4c0.2-0.2,0.4-0.4,0.5-0.8
			c0.1-0.4,0.1-0.9,0.1-1.5L84.8,85c0-0.4,0-0.8-0.1-1c-0.1-0.3-0.3-0.5-0.5-0.6c-0.2-0.1-0.6-0.3-1-0.4v-0.5h5.5L97.8,96.8z"/>
		<path class="st4" d="M107.1,98.8c0.1,0.2,0.2,0.3,0.5,0.4c0.2,0.1,0.6,0.2,1,0.3v0.5h-6.9v-0.5c0.5-0.1,0.8-0.2,1.1-0.3
			c0.2-0.1,0.4-0.3,0.5-0.5c0.1-0.2,0.1-0.5,0.1-0.8V84.7c0-0.4,0-0.6-0.1-0.8c-0.1-0.2-0.2-0.4-0.5-0.5c-0.2-0.1-0.6-0.2-1.1-0.3
			v-0.5h6.9v0.5c-0.4,0.1-0.8,0.2-1,0.3c-0.2,0.1-0.4,0.2-0.5,0.4c-0.1,0.2-0.1,0.5-0.1,0.8V98C106.9,98.3,107,98.6,107.1,98.8z
			 M106.1,91.3v-0.6l2.6,0v0.7L106.1,91.3z M108.1,91l4.3-5.1c0.6-0.7,0.9-1.2,1.1-1.6c0.2-0.4,0.2-0.7,0-0.8
			c-0.2-0.2-0.5-0.3-1.1-0.4v-0.5h5.1v0.5c-0.5,0.1-0.9,0.3-1.3,0.5c-0.4,0.2-0.8,0.5-1.3,0.9s-1,0.9-1.6,1.5
			c-0.6,0.6-1.1,1.2-1.7,1.8c-0.5,0.6-1,1.1-1.5,1.6l0.4-0.9l4.5,7.7c0.5,0.8,0.9,1.5,1.2,1.9s0.6,0.8,0.9,1
			c0.3,0.2,0.5,0.4,0.8,0.5v0.5h-4.6L108.1,91z"/>
		<path class="st4" d="M132.4,87.1h-0.5c-0.2-0.7-0.4-1.3-0.6-1.8c-0.2-0.5-0.6-0.8-0.9-1.1c-0.4-0.3-0.9-0.5-1.4-0.6
			c-0.6-0.1-1.3-0.2-2.1-0.3l-2.3-0.1v7.6l2.8-0.1c0.5,0,0.9-0.1,1.2-0.3c0.3-0.2,0.5-0.4,0.6-0.8c0.1-0.4,0.3-0.8,0.4-1.4h0.5v5.7
			h-0.5c-0.1-0.6-0.2-1.1-0.4-1.4c-0.1-0.4-0.4-0.6-0.6-0.8c-0.3-0.2-0.7-0.3-1.2-0.3l-2.8-0.1v8l2.7-0.1c0.9,0,1.6-0.1,2.2-0.3
			s1.1-0.4,1.5-0.7s0.7-0.7,0.9-1.3c0.2-0.5,0.5-1.2,0.6-2h0.5l-0.2,4.9h-13.6v-0.5c0.5-0.1,0.8-0.2,1.1-0.3
			c0.2-0.1,0.4-0.3,0.5-0.5c0.1-0.2,0.1-0.5,0.1-0.8V84.7c0-0.4,0-0.6-0.1-0.8c-0.1-0.2-0.2-0.4-0.5-0.5c-0.2-0.1-0.6-0.2-1.1-0.3
			v-0.5h13L132.4,87.1z"/>
		<path class="st4" d="M148.8,89.1c-0.3,0.6-0.8,1-1.3,1.4s-1.2,0.6-1.9,0.8v-0.6l2.8,5.6c0.4,0.8,0.8,1.5,1.1,1.9
			c0.3,0.4,0.5,0.7,0.8,0.9c0.2,0.2,0.4,0.3,0.7,0.4v0.5h-4.4l-3.9-8.1h-2.3v6c0,0.3,0,0.6,0.1,0.8c0.1,0.2,0.2,0.3,0.5,0.4
			c0.2,0.1,0.6,0.2,1,0.3v0.5H135v-0.5c0.5-0.1,0.8-0.2,1.1-0.3c0.2-0.1,0.4-0.3,0.5-0.5c0.1-0.2,0.1-0.5,0.1-0.8V84.7
			c0-0.4,0-0.7-0.1-0.9c-0.1-0.2-0.2-0.4-0.5-0.5c-0.2-0.1-0.6-0.2-1.1-0.3v-0.5h7.1c2.4,0,4.2,0.4,5.4,1.2s1.8,2,1.8,3.4
			C149.3,87.9,149.1,88.6,148.8,89.1z M145.2,85.3c-0.3-0.6-0.8-1.1-1.4-1.5s-1.5-0.6-2.5-0.6l-1.1,0v8.2l1.3,0c1.2,0,2.2-0.4,3-1.1
			c0.7-0.7,1.1-1.6,1.1-2.9C145.7,86.6,145.5,85.9,145.2,85.3z"/>
	</g>
	<g>
		<path class="st4" d="M38.3,126.4c-0.3-0.1-0.5-0.1-0.7-0.2c-0.2-0.1-0.4-0.2-0.5-0.3l-0.1-1.6h0.2c0.1,0.4,0.3,0.8,0.5,1.1
			c0.2,0.3,0.5,0.5,0.8,0.6s0.6,0.2,1,0.2c0.5,0,0.8-0.1,1.1-0.4c0.3-0.3,0.4-0.6,0.4-1c0-0.4-0.1-0.7-0.4-0.9
			c-0.2-0.2-0.6-0.5-1.1-0.7l-0.5-0.2c-0.6-0.2-1-0.5-1.3-0.8c-0.3-0.3-0.5-0.8-0.5-1.3c0-0.4,0.1-0.8,0.3-1.1
			c0.2-0.3,0.5-0.5,0.9-0.7c0.4-0.1,0.8-0.2,1.2-0.2s0.8,0,1.1,0.1c0.3,0.1,0.6,0.2,0.7,0.3l0.1,1.5h-0.2c-0.1-0.4-0.2-0.7-0.4-1
			c-0.2-0.3-0.4-0.5-0.6-0.6c-0.2-0.1-0.5-0.2-0.8-0.2c-0.5,0-0.9,0.1-1.1,0.3c-0.3,0.2-0.4,0.5-0.4,0.9c0,0.4,0.1,0.7,0.4,0.9
			c0.3,0.2,0.6,0.4,1.1,0.6l0.5,0.2c0.6,0.2,1.1,0.5,1.4,0.9c0.3,0.3,0.5,0.8,0.5,1.3c0,0.3-0.1,0.6-0.2,0.9
			c-0.1,0.3-0.3,0.5-0.5,0.7s-0.5,0.3-0.8,0.4s-0.6,0.1-1,0.1C38.9,126.5,38.6,126.5,38.3,126.4z"/>
		<path class="st4" d="M42.9,122.7c0.2-0.4,0.5-0.7,0.8-0.9c0.3-0.2,0.7-0.3,1.2-0.3c0.4,0,0.8,0.1,1.1,0.3s0.5,0.4,0.7,0.7
			s0.2,0.6,0.2,1c0,0,0,0.1,0,0.1c0,0,0,0.1,0,0.1h-3.6v-0.2l2.7,0l-0.1,0.1c0,0,0-0.1,0-0.1c0,0,0-0.1,0-0.2c0-0.5-0.1-0.8-0.3-1.1
			c-0.2-0.3-0.4-0.5-0.8-0.5c-0.4,0-0.7,0.2-0.9,0.5s-0.3,0.8-0.3,1.4c0,0.5,0.1,0.9,0.2,1.3s0.4,0.6,0.7,0.9c0.3,0.2,0.6,0.3,1,0.3
			c0.3,0,0.5,0,0.7-0.1c0.2-0.1,0.4-0.2,0.5-0.4v0.2c-0.2,0.2-0.4,0.4-0.7,0.6c-0.3,0.1-0.7,0.2-1.1,0.2c-0.5,0-0.9-0.1-1.2-0.3
			c-0.4-0.2-0.6-0.5-0.9-0.9c-0.2-0.4-0.3-0.8-0.3-1.3C42.6,123.5,42.7,123,42.9,122.7z"/>
		<path class="st4" d="M48,122.1c0.2-0.2,0.4-0.4,0.7-0.5s0.6-0.2,0.9-0.2c0.3,0,0.6,0,0.9,0.1c0.3,0.1,0.4,0.1,0.5,0.2l0,1.2h-0.2
			c-0.1-0.4-0.2-0.8-0.5-1c-0.2-0.2-0.5-0.3-0.8-0.3c-0.3,0-0.6,0.1-0.7,0.2c-0.2,0.2-0.3,0.3-0.3,0.6c0,0.2,0.1,0.4,0.3,0.6
			c0.2,0.1,0.4,0.3,0.7,0.4l0.4,0.1c0.4,0.1,0.8,0.3,1,0.6c0.2,0.2,0.4,0.6,0.4,1c0,0.3-0.1,0.6-0.3,0.8c-0.2,0.2-0.4,0.4-0.7,0.5
			c-0.3,0.1-0.6,0.2-0.9,0.2c-0.4,0-0.7,0-1-0.1c-0.3-0.1-0.5-0.2-0.7-0.3l-0.1-1.3h0.2c0.1,0.3,0.2,0.6,0.3,0.8s0.3,0.4,0.6,0.5
			c0.2,0.1,0.4,0.2,0.7,0.2c0.3,0,0.6-0.1,0.8-0.2c0.2-0.2,0.3-0.4,0.3-0.6c0-0.2-0.1-0.4-0.2-0.6c-0.2-0.2-0.4-0.3-0.7-0.4
			l-0.4-0.1c-0.4-0.1-0.8-0.3-1-0.6c-0.2-0.2-0.4-0.5-0.4-0.9C47.8,122.5,47.8,122.3,48,122.1z"/>
		<path class="st4" d="M52.4,122.1c0.2-0.2,0.4-0.4,0.7-0.5s0.6-0.2,0.9-0.2c0.3,0,0.6,0,0.9,0.1c0.3,0.1,0.4,0.1,0.5,0.2l0,1.2
			h-0.2c-0.1-0.4-0.2-0.8-0.5-1c-0.2-0.2-0.5-0.3-0.8-0.3c-0.3,0-0.6,0.1-0.7,0.2c-0.2,0.2-0.3,0.3-0.3,0.6c0,0.2,0.1,0.4,0.3,0.6
			c0.2,0.1,0.4,0.3,0.7,0.4l0.4,0.1c0.4,0.1,0.8,0.3,1,0.6c0.2,0.2,0.4,0.6,0.4,1c0,0.3-0.1,0.6-0.3,0.8c-0.2,0.2-0.4,0.4-0.7,0.5
			c-0.3,0.1-0.6,0.2-0.9,0.2c-0.4,0-0.7,0-1-0.1c-0.3-0.1-0.5-0.2-0.7-0.3l-0.1-1.3h0.2c0.1,0.3,0.2,0.6,0.3,0.8s0.3,0.4,0.6,0.5
			c0.2,0.1,0.4,0.2,0.7,0.2c0.3,0,0.6-0.1,0.8-0.2c0.2-0.2,0.3-0.4,0.3-0.6c0-0.2-0.1-0.4-0.2-0.6c-0.2-0.2-0.4-0.3-0.7-0.4
			l-0.4-0.1c-0.4-0.1-0.8-0.3-1-0.6c-0.2-0.2-0.4-0.5-0.4-0.9C52.2,122.5,52.3,122.3,52.4,122.1z"/>
		<path class="st4" d="M58,125.7c0,0.2,0,0.3,0.1,0.4c0.1,0.1,0.2,0.1,0.5,0.2v0.2h-2.2v-0.2c0.3,0,0.4-0.1,0.5-0.2s0.1-0.2,0.1-0.4
			v-3.4c0-0.1,0-0.2-0.1-0.3c0,0-0.1-0.1-0.3-0.1l-0.3-0.1v-0.2l1.6-0.2V125.7z M57,120.4c-0.1-0.1-0.2-0.2-0.2-0.4
			c0-0.2,0.1-0.3,0.2-0.4c0.1-0.1,0.3-0.2,0.4-0.2c0.2,0,0.3,0.1,0.4,0.2c0.1,0.1,0.2,0.2,0.2,0.4c0,0.2-0.1,0.3-0.2,0.4
			c-0.1,0.1-0.3,0.2-0.4,0.2C57.3,120.6,57.1,120.5,57,120.4z"/>
		<path class="st4" d="M60.5,126.2c-0.4-0.2-0.7-0.5-0.9-0.9c-0.2-0.4-0.3-0.8-0.3-1.3c0-0.5,0.1-0.9,0.3-1.3
			c0.2-0.4,0.5-0.7,0.9-0.9c0.4-0.2,0.8-0.3,1.3-0.3c0.5,0,0.9,0.1,1.3,0.3c0.4,0.2,0.7,0.5,0.9,0.9c0.2,0.4,0.3,0.8,0.3,1.3
			c0,0.5-0.1,0.9-0.3,1.3c-0.2,0.4-0.5,0.7-0.9,0.9c-0.4,0.2-0.8,0.3-1.3,0.3C61.3,126.5,60.9,126.4,60.5,126.2z M62.8,125.6
			c0.2-0.4,0.4-1,0.4-1.6c0-0.5-0.1-0.9-0.2-1.2c-0.1-0.3-0.3-0.6-0.5-0.8c-0.2-0.2-0.5-0.3-0.7-0.3c-0.4,0-0.8,0.2-1,0.6
			c-0.2,0.4-0.4,0.9-0.4,1.6c0,0.5,0.1,0.9,0.2,1.2s0.3,0.6,0.5,0.8c0.2,0.2,0.5,0.3,0.7,0.3C62.2,126.2,62.5,126,62.8,125.6z"/>
		<path class="st4" d="M66.5,122.3c0.1-0.3,0.3-0.5,0.6-0.6c0.3-0.2,0.6-0.2,1-0.2c0.5,0,0.9,0.1,1.2,0.4s0.5,0.6,0.5,1.1v2.8
			c0,0.1,0,0.2,0,0.3s0.1,0.1,0.2,0.2c0.1,0,0.2,0.1,0.4,0.1v0.2h-2.2v-0.2c0.3,0,0.4-0.1,0.5-0.1c0.1-0.1,0.1-0.2,0.1-0.3v-2.6
			c0-0.4-0.1-0.7-0.3-0.9c-0.2-0.2-0.5-0.3-0.8-0.3c-0.3,0-0.5,0.1-0.7,0.2c-0.2,0.1-0.3,0.3-0.4,0.4v3.2c0,0.2,0,0.3,0.1,0.3
			c0.1,0.1,0.2,0.1,0.5,0.1v0.2h-2.2v-0.2c0.3,0,0.4-0.1,0.5-0.2s0.1-0.2,0.1-0.4v-3.4c0-0.1,0-0.2-0.1-0.3c0,0-0.1-0.1-0.3-0.1
			l-0.3-0.1v-0.2l1.6-0.2V122.3z"/>
		<path class="st4" d="M73.6,121.1c0.2-0.5,0.5-0.8,0.8-1.2c0.3-0.3,0.7-0.5,1.2-0.7s0.9-0.2,1.4-0.2c0.6,0,1.1,0.1,1.5,0.2
			s0.7,0.2,0.9,0.4l0.1,1.6h-0.2c-0.1-0.4-0.2-0.8-0.4-1c-0.2-0.3-0.4-0.5-0.7-0.6s-0.6-0.2-1-0.2c-0.5,0-1,0.1-1.4,0.4
			c-0.4,0.3-0.7,0.7-0.9,1.2c-0.2,0.5-0.3,1.1-0.3,1.8c0,0.5,0.1,0.9,0.2,1.4c0.1,0.4,0.3,0.8,0.5,1.2c0.2,0.3,0.5,0.6,0.8,0.8
			s0.7,0.3,1.1,0.3c0.3,0,0.6,0,0.9-0.1s0.5-0.2,0.6-0.3v-2c0-0.2,0-0.3-0.1-0.4c0-0.1-0.1-0.1-0.2-0.2c-0.1,0-0.3-0.1-0.5-0.1V123
			h2.5v0.2c-0.2,0-0.4,0-0.5,0.1s-0.2,0.1-0.2,0.2c0,0.1-0.1,0.2-0.1,0.4v1.9c-0.3,0.2-0.7,0.4-1.1,0.5c-0.5,0.1-0.9,0.2-1.4,0.2
			c-0.5,0-1-0.1-1.5-0.3c-0.5-0.2-0.9-0.4-1.2-0.8s-0.6-0.7-0.8-1.2c-0.2-0.5-0.3-1-0.3-1.6C73.3,122.1,73.4,121.6,73.6,121.1z"/>
		<path class="st4" d="M82.1,126.2c-0.4-0.2-0.7-0.5-0.9-0.9c-0.2-0.4-0.3-0.8-0.3-1.3c0-0.5,0.1-0.9,0.3-1.3
			c0.2-0.4,0.5-0.7,0.9-0.9c0.4-0.2,0.8-0.3,1.3-0.3c0.5,0,0.9,0.1,1.3,0.3c0.4,0.2,0.7,0.5,0.9,0.9c0.2,0.4,0.3,0.8,0.3,1.3
			c0,0.5-0.1,0.9-0.3,1.3c-0.2,0.4-0.5,0.7-0.9,0.9c-0.4,0.2-0.8,0.3-1.3,0.3C82.9,126.5,82.5,126.4,82.1,126.2z M84.4,125.6
			c0.2-0.4,0.4-1,0.4-1.6c0-0.5-0.1-0.9-0.2-1.2c-0.1-0.3-0.3-0.6-0.5-0.8c-0.2-0.2-0.5-0.3-0.7-0.3c-0.4,0-0.8,0.2-1,0.6
			c-0.2,0.4-0.4,0.9-0.4,1.6c0,0.5,0.1,0.9,0.2,1.2s0.3,0.6,0.5,0.8c0.2,0.2,0.5,0.3,0.7,0.3C83.8,126.2,84.2,126,84.4,125.6z"/>
		<path class="st4" d="M88.2,125.7c0,0.2,0,0.3,0.1,0.4c0.1,0.1,0.2,0.1,0.5,0.2v0.2h-2.2v-0.2c0.3,0,0.4-0.1,0.5-0.2
			s0.1-0.2,0.1-0.4v-5.9c0-0.1,0-0.2-0.1-0.3s-0.1-0.1-0.3-0.1l-0.3-0.1v-0.2l1.6-0.2V125.7z"/>
		<path class="st4" d="M89.7,122.7c0.2-0.4,0.5-0.7,0.8-0.9s0.7-0.3,1.2-0.3c0.3,0,0.6,0.1,0.8,0.2c0.2,0.1,0.4,0.3,0.5,0.4v-2.3
			c0-0.1,0-0.2-0.1-0.3s-0.1-0.1-0.3-0.1l-0.3-0.1v-0.2l1.6-0.2v6.7c0,0.1,0,0.2,0.1,0.3c0,0,0.1,0.1,0.3,0.1l0.3,0.1v0.2l-1.6,0.2
			v-0.9c-0.1,0.3-0.3,0.5-0.6,0.7c-0.3,0.2-0.6,0.3-1,0.3s-0.7-0.1-1-0.3s-0.6-0.5-0.7-0.8c-0.2-0.4-0.3-0.8-0.3-1.3
			C89.4,123.5,89.5,123,89.7,122.7z M90.9,125.4c0.3,0.4,0.6,0.6,1.1,0.6c0.3,0,0.5-0.1,0.7-0.2s0.3-0.3,0.5-0.5v-3.1
			c-0.1-0.2-0.2-0.3-0.4-0.4s-0.4-0.2-0.6-0.2c-0.5,0-0.8,0.2-1.1,0.6s-0.4,0.9-0.4,1.6C90.5,124.5,90.6,125,90.9,125.4z"/>
		<path class="st4" d="M95.6,122.7c0.2-0.4,0.5-0.7,0.8-0.9c0.3-0.2,0.7-0.3,1.2-0.3c0.4,0,0.8,0.1,1.1,0.3s0.5,0.4,0.7,0.7
			c0.2,0.3,0.2,0.6,0.2,1c0,0,0,0.1,0,0.1c0,0,0,0.1,0,0.1H96v-0.2l2.7,0l-0.1,0.1c0,0,0-0.1,0-0.1c0,0,0-0.1,0-0.2
			c0-0.5-0.1-0.8-0.3-1.1s-0.4-0.5-0.8-0.5c-0.4,0-0.7,0.2-0.9,0.5c-0.2,0.3-0.3,0.8-0.3,1.4c0,0.5,0.1,0.9,0.2,1.3
			c0.2,0.4,0.4,0.6,0.7,0.9c0.3,0.2,0.6,0.3,1,0.3c0.3,0,0.5,0,0.7-0.1s0.4-0.2,0.5-0.4v0.2c-0.2,0.2-0.4,0.4-0.7,0.6
			c-0.3,0.1-0.7,0.2-1.1,0.2c-0.5,0-0.9-0.1-1.2-0.3c-0.4-0.2-0.6-0.5-0.9-0.9c-0.2-0.4-0.3-0.8-0.3-1.3
			C95.3,123.5,95.4,123,95.6,122.7z"/>
		<path class="st4" d="M101.8,122.3c0.1-0.3,0.3-0.5,0.6-0.6c0.3-0.2,0.6-0.2,1-0.2c0.5,0,0.9,0.1,1.2,0.4s0.5,0.6,0.5,1.1v2.8
			c0,0.1,0,0.2,0,0.3c0,0.1,0.1,0.1,0.2,0.2c0.1,0,0.2,0.1,0.4,0.1v0.2h-2.2v-0.2c0.3,0,0.4-0.1,0.5-0.1c0.1-0.1,0.1-0.2,0.1-0.3
			v-2.6c0-0.4-0.1-0.7-0.3-0.9c-0.2-0.2-0.5-0.3-0.8-0.3c-0.3,0-0.5,0.1-0.7,0.2c-0.2,0.1-0.3,0.3-0.4,0.4v3.2c0,0.2,0,0.3,0.1,0.3
			c0.1,0.1,0.2,0.1,0.5,0.1v0.2h-2.2v-0.2c0.3,0,0.4-0.1,0.5-0.2s0.1-0.2,0.1-0.4v-3.4c0-0.1,0-0.2-0.1-0.3c0,0-0.1-0.1-0.3-0.1
			l-0.3-0.1v-0.2l1.6-0.2V122.3z"/>
		<path class="st4" d="M113.7,121.9c-0.1,0.2-0.3,0.4-0.6,0.6s-0.5,0.3-0.8,0.3v-0.2l1.1,2.2c0.2,0.4,0.4,0.7,0.5,0.8
			s0.2,0.3,0.3,0.4c0.1,0.1,0.2,0.1,0.3,0.2v0.2h-1.4l-1.8-3.4h-1.1v2.6c0,0.1,0,0.2,0.1,0.3c0,0.1,0.1,0.1,0.2,0.2s0.2,0.1,0.4,0.1
			v0.2h-2.5v-0.2c0.2,0,0.4-0.1,0.5-0.1s0.2-0.1,0.2-0.2c0-0.1,0-0.2,0-0.3v-5.6c0-0.2,0-0.3,0-0.4c0-0.1-0.1-0.1-0.2-0.2
			s-0.3-0.1-0.5-0.1v-0.2h2.6c1,0,1.7,0.2,2.2,0.5c0.5,0.3,0.7,0.8,0.7,1.4C113.9,121.4,113.8,121.6,113.7,121.9z M112.6,120.2
			c-0.1-0.3-0.3-0.5-0.6-0.6c-0.3-0.2-0.7-0.2-1.2-0.3l-0.5,0v3.5l0.7,0c0.6,0,1-0.2,1.4-0.4c0.3-0.3,0.5-0.7,0.5-1.2
			C112.8,120.8,112.7,120.5,112.6,120.2z"/>
		<path class="st4" d="M115.1,122c-0.1-0.1-0.1-0.2-0.2-0.2c-0.1,0-0.2-0.1-0.3-0.1v-0.2h2.3v0.2c-0.3,0-0.5,0.1-0.5,0.2
			c-0.1,0.1,0,0.3,0.1,0.7l1,2.8h-0.1l1-2.7c0.1-0.3,0.2-0.6,0.1-0.7c-0.1-0.1-0.2-0.2-0.5-0.2v-0.2h1.6v0.2c-0.1,0-0.3,0.1-0.3,0.1
			s-0.2,0.1-0.3,0.3s-0.2,0.3-0.3,0.6l-1.1,2.7l-0.4,1.1l-0.8,2.3h-0.8v0c0.1-0.2,0.3-0.4,0.5-0.6c0.2-0.3,0.3-0.5,0.5-0.8
			c0.2-0.3,0.3-0.6,0.4-0.8l-1.6-3.9C115.3,122.3,115.2,122.1,115.1,122z"/>
		<path class="st4" d="M119.9,122.7c0.2-0.4,0.5-0.7,0.8-0.9c0.3-0.2,0.7-0.3,1.2-0.3c0.4,0,0.8,0.1,1.1,0.3s0.5,0.4,0.7,0.7
			c0.2,0.3,0.2,0.6,0.2,1c0,0,0,0.1,0,0.1c0,0,0,0.1,0,0.1h-3.6v-0.2l2.7,0l-0.1,0.1c0,0,0-0.1,0-0.1c0,0,0-0.1,0-0.2
			c0-0.5-0.1-0.8-0.3-1.1s-0.4-0.5-0.8-0.5c-0.4,0-0.7,0.2-0.9,0.5c-0.2,0.3-0.3,0.8-0.3,1.4c0,0.5,0.1,0.9,0.2,1.3
			c0.2,0.4,0.4,0.6,0.7,0.9c0.3,0.2,0.6,0.3,1,0.3c0.3,0,0.5,0,0.7-0.1s0.4-0.2,0.5-0.4v0.2c-0.2,0.2-0.4,0.4-0.7,0.6
			c-0.3,0.1-0.7,0.2-1.1,0.2c-0.5,0-0.9-0.1-1.2-0.3c-0.4-0.2-0.6-0.5-0.9-0.9c-0.2-0.4-0.3-0.8-0.3-1.3
			C119.6,123.5,119.7,123,119.9,122.7z"/>
		<path class="st4" d="M128.7,125.9c0,0.1,0.1,0.1,0.2,0.2c0.1,0,0.3,0.1,0.5,0.1v0.2h-2.5v-0.2c0.2,0,0.4-0.1,0.5-0.1
			s0.2-0.1,0.2-0.2c0-0.1,0-0.2,0-0.3v-5.6c0-0.1,0-0.3,0-0.3c0-0.1-0.1-0.1-0.2-0.2s-0.3-0.1-0.5-0.1v-0.2h2.5v0.2
			c-0.2,0-0.4,0.1-0.5,0.1c-0.1,0-0.2,0.1-0.2,0.2c0,0.1-0.1,0.2-0.1,0.3v5.6C128.6,125.7,128.7,125.8,128.7,125.9z"/>
		<path class="st4" d="M135,122.4c-0.3,0.3-0.6,0.6-1.1,0.7c-0.5,0.2-1,0.2-1.5,0.2h-0.7v2.1c0,0.2,0,0.3,0.1,0.4
			c0,0.1,0.1,0.2,0.2,0.2c0.1,0,0.3,0.1,0.5,0.1v0.2h-2.6v-0.2c0.2,0,0.4-0.1,0.5-0.1s0.2-0.1,0.2-0.2c0-0.1,0-0.2,0-0.3v-5.6
			c0-0.1,0-0.3,0-0.3c0-0.1-0.1-0.1-0.2-0.2s-0.3-0.1-0.5-0.1v-0.2h2.5c1,0,1.7,0.2,2.3,0.5c0.5,0.4,0.8,0.9,0.8,1.5
			C135.5,121.7,135.3,122.1,135,122.4z M133.8,119.9c-0.3-0.4-0.9-0.5-1.6-0.6l-0.5,0v3.9l0.5,0c0.7,0,1.3-0.2,1.6-0.6
			c0.3-0.4,0.5-0.8,0.5-1.4C134.3,120.7,134.1,120.3,133.8,119.9z"/>
		<path class="st4" d="M141,125.8c0.1,0.1,0.2,0.2,0.3,0.3c0.1,0.1,0.2,0.1,0.4,0.1v0.2H139v-0.2c0.2,0,0.4-0.1,0.5-0.1
			c0.1-0.1,0.2-0.2,0.2-0.3s0-0.3-0.1-0.6l-1.8-5h0.1l-1.6,4.8c-0.1,0.3-0.2,0.5-0.2,0.7c0,0.2,0,0.3,0.1,0.4
			c0.1,0.1,0.3,0.1,0.5,0.2v0.2h-1.9v-0.2c0.2,0,0.3-0.1,0.4-0.1c0.1-0.1,0.2-0.2,0.3-0.4c0.1-0.2,0.2-0.4,0.3-0.8l2.1-5.8h0.5
			l2.2,6.1C140.8,125.5,140.9,125.7,141,125.8z M136.6,123.5h2.9l0.1,0.2h-3.1L136.6,123.5z"/>
	</g>
	<g>
		<path class="st4" d="M81.3,111.3c0,0-32.7-0.4-32.7-0.8c0-0.4,32.7-0.8,32.7-0.8V111.3z"/>
		<path class="st4" d="M96.8,109.7c0,0,32.7,0.4,32.7,0.8c0,0.4-32.7,0.8-32.7,0.8V109.7z"/>
		<path class="st5" d="M86.3,115.3h5.9l2.1-8.3h-1.7l0.4-1.5h-7.7l0.4,1.5h-1.7L86.3,115.3z"/>
	</g>
	<g>
		<g id="layer1_00000112600215143654406660000006882138173306053037_" transform="translate(766.43375,-142.67784)">
			<g id="g6205_00000013912804055411342750000005967689652496730808_">
				<path id="path3627_00000145036240850191671500000016456763069754306949_" class="st4" d="M-692.4,215.2l-0.2,0.1
					c-0.1,0.1-0.3,0.2-0.3,0.2c-0.1,0-0.2,0.2-0.3,0.3s-0.3,0.3-0.4,0.4c-0.1,0.1-0.3,0.3-0.3,0.3c0,0.1,0,0.2,0,0.8
					c0,0.4,0,0.7,0,0.7s0.1,0.1,0.2,0.2c0.1,0.1,0.2,0.1,0.2,0.2c0,0.1,0.1,0.2,0.1,0.2c0.1,0.2,0.3,0.7,0.3,0.7c0,0,0,0.1-0.1,0.1
					c-0.1,0-0.5,0-0.7,0l0,0c-0.1,0-0.1,0-0.2,0c-0.1,0-0.3-0.2-0.3-0.3c0-0.1,0-0.1,0-0.2c0.1-0.2,0.1-0.2,0-0.3
					c0,0-0.1-0.1-0.2-0.1c-0.2,0-0.2,0-0.2-0.3c0-0.1,0-0.3,0-0.4c0.1-0.3,0-1.3,0-1.6c0-0.1,0-0.2,0-0.2c0-0.1,0.1-0.2,0.3-0.3
					c0.2-0.1,0.4-0.2,0.5-0.6l0.1-0.3l0-0.2c0-0.1-0.1-0.3-0.1-0.4c-0.2-0.3-0.2-0.4-0.3-0.7c-0.1-0.3-0.1-0.9,0-1.4
					c0-0.1,0-0.1,0-0.1c0,0-0.1,0-0.2,0c-0.2,0-0.2,0-0.4-0.1c-0.2-0.1-0.3-0.1-0.3-0.1c-0.1,0-0.2,0-0.1,0.1c0,0.1,0.2,0.3,0.3,0.4
					c0.1,0.1,0.2,0.3,0.2,0.6c0,0.3,0,0.3-0.1,0.5c-0.1,0.1-0.1,0.3-0.1,0.4c0,0.1,0,0.2,0,0.2s-0.1,0-0.1-0.1l-0.1-0.1l-0.1,0.1
					c-0.1,0.2-0.2,0.3-0.3,0.4c-0.1,0-0.1,0.1-0.3,0.1l-0.2,0l0,0.2c0,0.3-0.1,0.5-0.3,0.7c-0.2,0.1-0.5,0.3-0.7,0.3
					c-0.1,0-0.1,0-0.1,0.1c0,0.1-0.1,0.2-0.1,0.3c-0.1,0.1-0.1,0.2-0.2,0.2c-0.1,0-0.1,0-0.2,0.1c-0.1,0.1-0.3,0.2-0.3,0.2
					c0,0,0-0.1,0-0.2c0-0.2,0-0.2-0.1-0.4c-0.1-0.2-0.2-0.2-0.4-0.2c-0.1,0-0.1,0-0.1,0s-0.1,0-0.1,0c0,0-0.1,0-0.1,0c0,0,0,0,0.1,0
					c0.1,0,0.1,0,0.2-0.1c0.2-0.2,0.5-0.2,0.7,0c0,0,0.1,0.1,0.1,0.1c0,0,0-0.1,0-0.2c-0.1-0.3-0.1-0.4-0.1-0.6c0-0.2,0-0.2,0.1-0.4
					c0.1-0.2,0.1-0.2,0.1-0.4c0-0.2,0-0.2,0.1-0.4c0.1-0.3,0.3-0.5,0.5-0.6c0.1-0.1,0.2-0.2,0.2-0.2c0.1-0.1,0.3-0.3,0.5-0.4l0.1,0
					l0-0.3c0-0.5,0.1-0.8,0.4-1.1c0.2-0.2,0.4-0.3,0.7-0.3c0.4,0,0.6,0.1,0.8,0.5c0.1,0.2,0.4,0.5,0.5,0.7c0,0.1,0,0.1,0.1,0
					c0,0,0-0.2,0.2-0.4c0.1-0.1,0.3-0.3,0.3-0.3c0,0,0.1-0.1,0.2-0.1c0.2-0.1,0.6-0.4,0.9-0.5c0.1,0,0.3-0.1,0.4-0.2
					c0.5-0.2,0.5-0.2,0.5-0.4c0-0.2,0.1-0.2,0.2-0.2c0.1,0,0.2-0.1,0.2-0.1c0-0.1,0.1-0.2,0.2-0.2c0.1,0,0.2-0.2,0.2-0.4
					c0-0.2-0.1-0.6-0.2-0.6c0,0-0.1,0-0.1,0.2c0,0.2,0,0.5,0.1,0.6c0.1,0.1,0,0.1,0,0.1c-0.2-0.1-0.4-0.4-0.4-0.9c0-0.1,0-0.2,0-0.3
					c0-0.1,0-0.1,0,0c0,0.1,0,0.3,0,0.5c0,0.3,0,0.4,0,0.4c0,0,0.1,0.1,0.1,0.1c0.1,0,0.1,0,0,0c-0.1,0.1-0.2,0-0.3,0
					c0,0-0.1-0.1-0.2-0.2c-0.1-0.2-0.1-0.2-0.3-0.3c-0.3-0.1-0.3-0.1-0.4-0.2c-0.1-0.2-0.3-0.5-0.3-0.6c0-0.1,0-0.1-0.1-0.1
					c0,0,0,0.1,0,0.3c0,0.2,0,0.3,0,0.3s-0.1-0.1-0.1-0.3c0-0.1-0.1-0.3-0.1-0.3c0,0-0.1,0-0.1,0.1s-0.1,0.1-0.1,0.1
					c0,0,0-0.1,0.1-0.2c0.1-0.1,0.1-0.3,0.1-0.4c0-0.1,0.1-0.4,0.3-0.9c0-0.1,0-0.1,0,0c0,0-0.1,0.1-0.1,0.2
					c-0.2,0.5-0.2,0.6-0.3,0.7c0,0.1-0.1,0.1-0.1,0c0,0-0.1-0.5-0.2-0.6c-0.1-0.2-0.1-0.4,0-0.6c0.1-0.1,0.1-0.2,0-0.2
					c0,0-0.1,0-0.1,0.1s-0.1,0.1-0.1,0.1c0,0,0,0-0.1-0.1c0-0.1,0-0.4,0.1-0.6c0.1-0.2,0.1-0.4,0.1-0.4c-0.1,0-0.2,0.3-0.2,0.5
					c0,0.2,0,0.1-0.1-0.1c-0.1-0.3-0.1-0.5,0-0.7c0-0.1,0.1-0.1,0-0.1c-0.1-0.1-0.1-0.4,0.1-0.5c0.1-0.1,0.1-0.2,0-0.2
					c-0.1,0-0.1,0-0.1,0c-0.1-0.1-0.1-0.1,0-0.1c0,0,0.1,0,0.1-0.1c0.1-0.1,0.1-0.1,0-0.1c-0.1,0-0.3,0-0.3-0.1c0,0,0,0,0.1,0
					c0.1,0,0.1,0,0.2-0.1c0.1-0.1,0.2-0.3,0.3-0.3c0,0,0,0,0-0.1l-0.1-0.1l0.1,0c0,0,0.1,0,0.2,0.1s0.2,0.1,0.2,0.1c0,0,0-0.1,0-0.1
					c0-0.1-0.1-0.2-0.1-0.3v-0.2l0.1,0.1c0.2,0.2,0.5,0.2,0.6,0c0.1-0.2,0.1-0.2,0.3-0.3c0.2-0.1,0.5-0.1,0.6,0c0,0,0.1,0.1,0.1,0.1
					c0.1,0,0.1,0,0.1-0.1c0.1-0.1,0.4-0.4,0.5-0.4c0,0,0,0.1,0,0.2c0,0.1,0,0.3,0,0.4c0,0.3,0,0.3,0,0.3c0.1,0,0.1-0.1,0.1-0.3
					c0-0.1,0.1-0.2,0.1-0.4c0.1-0.3,0.2-0.3,0.3-0.2c0.1,0.1,0.1,0.3,0.2,0.5c0,0.1,0,0.1,0.1,0.1c0,0,0.1,0,0.2,0
					c0.3,0,0.4-0.1,0.5-0.3c0.1-0.2,0.1-0.2,0.1,0c0,0.1-0.1,0.4-0.2,0.5c-0.1,0.1-0.1,0.1,0,0.1c0.1,0,0.3-0.2,0.3-0.3
					c0,0,0-0.1,0-0.1c0,0,0,0,0,0c0,0,0,0.1,0,0.2c0,0.1,0,0.2,0,0.3l0,0.1l0.1,0.1c0.1,0.1,0.1,0.1,0.2,0.1c0.2,0,0.1,0.1,0,0.1
					c-0.1,0-0.2,0-0.3,0c-0.1-0.1-0.1,0-0.2,0c0,0,0,0,0,0.1s0.3,0.1,0.6,0.3c0.4,0.2,0.6,0.3,0.7,0.3c0.2,0,0.3,0.1,0.3,0.3
					c0,0,0,0.1,0.1,0.2c0.1,0.1,0.1,0.1,0,0.2c0,0,0,0.1-0.1,0.2c0,0.1-0.1,0.2-0.2,0.2c0,0-0.1,0-0.2,0c-0.2-0.1-0.3,0-0.1,0.1
					c0.2,0.2-0.2,0.3-0.4,0.2c0,0-0.1,0-0.1,0c0,0,0,0.1,0,0.2c0,0.2,0,0.2,0.2,0.2c0.2,0,0.6,0.2,0.8,0.3c0.1,0.1,0.9,0.6,1.1,0.8
					c0.3,0.1,0.3,0.2,0.5,0.3l0.1,0.2l0.1-0.1c0.1-0.1,0.2-0.2,0.3-0.3c0.1-0.1,0.3-0.3,0.4-0.4c0.2-0.2,0.3-0.3,0.3-0.3
					c0.1,0,0.2-0.1,0.2-0.1c0.1-0.1,0.3-0.1,0.7,0c0.3,0.1,0.9,0.1,1.3,0.1c0.2,0,0.3,0,0.4,0c0.1,0,0.4,0,0.5,0c0,0,0.1,0,0.1,0
					c0,0,0.2,0.1,0.3,0.1c0.4,0.1,0.4,0.1,0.4,0.3c0,0.1-0.2,0.3-0.3,0.3c-0.1,0.1-0.4,0.1-0.6,0c-0.3-0.1-0.4-0.1-0.5-0.1
					c-0.1,0-0.2,0-0.2,0c-0.1,0-0.2,0-0.4-0.1c-0.2,0-0.4,0-0.6,0c-0.3,0-0.4,0-0.5,0.1c-0.1,0-0.2,0.1-0.2,0.2s-0.2,0.2-0.2,0.2
					c-0.1,0.1-0.1,0.2-0.2,0.2c0,0.2-0.3,0.7-0.5,1c-0.1,0.1-0.2,0.3-0.3,0.4l-0.2,0.2l0.1,0c0.2,0.1,0.9,0.4,1.2,0.4
					c0.5,0.2,0.6,0.3,0.6,0.6c0,0.2,0,0.3,0.1,0.5c0.1,0.3,0.3,1,0.3,1.2c0,0.2,0,0.2,0,0.5c0,0.1,0,0.4,0,0.5c0,0.1,0,0.3-0.1,0.4
					c-0.1,0.2-0.3,0.5-0.3,0.5c-0.1,0-0.2-0.1-0.3-0.2c0,0-0.1-0.1-0.1-0.2c0-0.1,0-0.2-0.1-0.2c0,0-0.1-0.1-0.1-0.2
					c0-0.1,0-0.1,0.1-0.2c0,0,0.1-0.1,0.2-0.1c0.1,0,0.1-0.1,0.2-0.1c0-0.1,0-0.1-0.1-0.1c-0.2-0.1-0.2-0.1-0.1-0.4
					c0-0.2,0-0.3,0-0.6c0-0.2-0.1-0.5-0.1-0.6l-0.1-0.2l-0.3-0.1c-0.4-0.1-0.4-0.1-1.1,0c-0.2,0-0.5,0.1-0.6,0.1
					c-0.1,0-0.1,0-0.4,0.3c-0.5,0.5-1,0.8-1.6,1.2c-0.1,0.1-0.3,0.2-0.3,0.2c0,0,0.1,0,0.1,0c0.3,0,0.6,0.2,0.7,0.4
					c0.1,0.2,0.1,0.8,0,1.3c-0.1,0.3,0,0.5,0,0.6c0.2,0.2,0.6,0.3,1.3,0.5c0.2,0,0.4,0.1,0.5,0.1c0,0,0.1,0.1,0.2,0.2
					c0.1,0.1,0.2,0.2,0.3,0.2c0.3,0.2,0.7,0.7,0.8,1c0.1,0.2,0.1,0.2,0,0.3c-0.1,0-0.1,0-0.2,0c-0.2,0-0.5-0.1-0.7-0.2
					c-0.3-0.1-0.3-0.2-0.3-0.4l0-0.2l-0.2,0c-0.1,0-0.2,0-0.4-0.1c-0.3-0.2-0.3-0.2-0.7-0.3c-0.5-0.1-0.8-0.2-1.3-0.2l-0.4,0
					l-0.1-0.1c-0.1-0.1-0.1-0.1-0.1-0.2c0,0,0-0.2,0-0.3c0-0.3,0-0.4-0.2-0.5c-0.1-0.1-0.1-0.1-0.2-0.1c-0.1,0-0.2,0.1-0.3,0.1
					c-0.2,0.1-0.4,0.1-0.8,0.2c-0.2,0-0.2,0.1-0.4,0.4c-0.1,0.1-0.3,0.3-0.4,0.4l-0.2,0.2L-692.4,215.2z M-691.4,207.9
					c-0.1-0.1-0.2-0.3-0.2-0.3c-0.5-0.5-0.9-1.2-1.1-1.6c-0.2-0.4-0.4-1.1-0.4-1.4c0-0.1,0-0.1-0.1-0.1c-0.1,0.1-0.1,0.4,0,0.6
					c0,0.1,0.1,0.2,0.1,0.3c0,0.2,0.2,0.5,0.4,0.8c0.1,0.1,0.1,0.2,0.2,0.3c0.1,0.2,0.2,0.3,0.2,0.2c0,0,0,0,0.1,0.1
					c0.1,0.2,0.5,0.7,0.8,1c0.1,0.1,0.2,0.3,0.2,0.3c0,0,0,0,0,0C-691.3,208.1-691.4,208-691.4,207.9L-691.4,207.9z M-689.6,205.5
					c0-0.1,0-0.3,0-0.3c0,0-0.1,0.2-0.1,0.3C-689.7,205.6-689.6,205.5-689.6,205.5L-689.6,205.5z M-689.8,205.4
					c0.1-0.3,0.1-0.3,0-0.3c0,0-0.2,0-0.3,0c-0.1,0-0.2,0-0.3,0.1c0,0-0.1,0.1-0.2,0.1l-0.2,0l0.1,0.1c0,0,0.2,0.1,0.3,0.1
					c0.3,0.1,0.3,0.1,0.5,0.1C-689.9,205.5-689.9,205.5-689.8,205.4z"/>
				<path id="path3627_00000093153963651075484960000016348479680510851998_" class="st4" d="M-662.8,214.9l-0.2-0.2
					c-0.1-0.1-0.3-0.3-0.4-0.4c-0.2-0.3-0.3-0.4-0.4-0.4c-0.4,0-0.6-0.1-0.8-0.2c-0.1,0-0.3-0.1-0.3-0.1c-0.1,0-0.1,0-0.2,0.1
					c-0.2,0.2-0.2,0.2-0.2,0.5c0,0.2,0,0.3,0,0.3c0,0,0,0.1-0.1,0.2l-0.1,0.1l-0.4,0c-0.5,0-0.9,0-1.3,0.2c-0.3,0.1-0.4,0.1-0.7,0.3
					c-0.2,0.1-0.2,0.1-0.4,0.1l-0.2,0l0,0.2c0,0.2-0.1,0.3-0.3,0.4c-0.2,0.1-0.5,0.2-0.7,0.2c-0.1,0-0.2,0-0.2,0
					c-0.1-0.1-0.1-0.1,0-0.3c0.1-0.2,0.6-0.8,0.8-1c0.1,0,0.2-0.1,0.3-0.2c0.1-0.1,0.2-0.2,0.2-0.2c0,0,0.2-0.1,0.5-0.1
					c0.7-0.1,1.1-0.3,1.3-0.5c0.1-0.1,0.1-0.3,0-0.6c-0.1-0.4-0.1-1.1,0-1.3c0.1-0.2,0.4-0.4,0.7-0.4c0.1,0,0.1,0,0.1,0
					c0,0-0.1-0.1-0.3-0.2c-0.6-0.4-1-0.7-1.6-1.2c-0.3-0.2-0.3-0.3-0.4-0.3c-0.1,0-0.3,0-0.6-0.1c-0.7-0.1-0.7-0.1-1.1,0l-0.3,0.1
					l-0.1,0.2c0,0.1-0.1,0.4-0.1,0.6c-0.1,0.3-0.1,0.4,0,0.6c0,0.4,0.1,0.4-0.1,0.4c-0.2,0.1-0.2,0.1-0.1,0.1c0,0,0.1,0.1,0.2,0.1
					c0.1,0,0.2,0.1,0.2,0.1c0.1,0.1,0.1,0.1,0.1,0.2c0,0.1,0,0.1-0.1,0.2s-0.1,0.1-0.1,0.2c0,0.1,0,0.2-0.1,0.2
					c-0.1,0.1-0.2,0.2-0.3,0.2c-0.1,0-0.3-0.3-0.3-0.5c0-0.1,0-0.2-0.1-0.4c0-0.1,0-0.4,0-0.5c0-0.2,0-0.3,0-0.5
					c0-0.2,0.2-0.9,0.3-1.2c0-0.1,0.1-0.3,0.1-0.5c0-0.4,0.1-0.5,0.6-0.6c0.2-0.1,1-0.4,1.2-0.4l0.1,0l-0.2-0.2
					c-0.1-0.1-0.2-0.3-0.3-0.4c-0.2-0.2-0.5-0.8-0.5-1c0-0.1-0.1-0.1-0.2-0.2c-0.1-0.1-0.2-0.2-0.2-0.2c-0.1-0.1-0.1-0.2-0.2-0.2
					c-0.1-0.1-0.1-0.1-0.5-0.1c-0.2,0-0.5,0-0.6,0s-0.3,0-0.4,0.1c-0.1,0-0.2,0-0.2,0c-0.1,0-0.2,0-0.5,0.1c-0.2,0.1-0.5,0.1-0.6,0
					c-0.1-0.1-0.3-0.3-0.3-0.3c0-0.1,0-0.1,0.4-0.3c0.1,0,0.3-0.1,0.3-0.1c0,0,0.1,0,0.1,0c0.1,0,0.4,0,0.5,0c0.1,0,0.2,0,0.4,0
					c0.3,0,0.9,0,1.3-0.1c0.3-0.1,0.5-0.1,0.7,0c0.1,0,0.2,0.1,0.2,0.1c0.1,0,0.2,0.1,0.3,0.3c0.1,0.1,0.3,0.3,0.4,0.4
					c0.1,0.1,0.3,0.2,0.3,0.3l0.1,0.1l0.1-0.2c0.1-0.1,0.2-0.2,0.5-0.3c0.3-0.1,1-0.7,1.1-0.8c0.2-0.1,0.6-0.3,0.8-0.3
					c0.2,0,0.2,0,0.2-0.2c0-0.1,0-0.2,0-0.2c0,0,0,0-0.1,0c-0.2,0.1-0.6,0-0.4-0.2c0.1-0.1,0-0.1-0.1-0.1c-0.1,0-0.1,0-0.2,0
					c-0.1,0-0.2-0.1-0.2-0.2c0-0.1,0-0.1-0.1-0.2c0-0.1,0-0.1,0-0.2c0-0.1,0.1-0.2,0.1-0.2c0-0.2,0.1-0.3,0.3-0.3
					c0.1,0,0.3-0.1,0.7-0.3c0.3-0.1,0.6-0.3,0.6-0.3s0,0,0-0.1c-0.1-0.1-0.1-0.1-0.2,0c-0.2,0.1-0.2,0.1-0.3,0
					c-0.2-0.1-0.2-0.1,0-0.1c0.1,0,0.1,0,0.2-0.1l0.1-0.1l0-0.1c0-0.1,0-0.2,0-0.3c0-0.1,0-0.1,0-0.2c0,0,0,0,0,0c0,0,0,0,0,0.1
					c0,0.1,0.2,0.3,0.3,0.3c0.1,0,0-0.1,0-0.1c-0.1-0.1-0.2-0.4-0.2-0.5c0-0.2,0-0.2,0.1,0c0.1,0.2,0.2,0.3,0.5,0.3
					c0.1,0,0.2,0,0.2,0c0.1,0,0.1,0,0.1-0.1c0-0.1,0.1-0.4,0.2-0.5c0.1-0.1,0.1-0.1,0.3,0.2c0.1,0.1,0.1,0.3,0.1,0.4
					c0,0.2,0.1,0.3,0.1,0.3c0,0,0.1,0,0-0.3c0-0.2,0-0.3,0-0.4c0-0.1,0-0.2,0-0.2c0.1,0,0.4,0.2,0.5,0.4c0,0.1,0.1,0.1,0.1,0.1
					c0,0,0.1,0,0.1-0.1c0.1-0.1,0.4-0.1,0.6,0c0.1,0.1,0.2,0.1,0.3,0.3c0.1,0.2,0.4,0.1,0.6,0l0.1-0.1v0.2c0,0.1,0,0.2-0.1,0.3
					c0,0.1,0,0.1,0,0.1c0,0,0.1,0,0.2-0.1s0.2-0.1,0.2-0.1l0.1,0l-0.1,0.1c-0.1,0.1-0.1,0.1,0,0.1c0.1,0,0.2,0.2,0.3,0.3
					c0.1,0.1,0.1,0.1,0.2,0.1c0.1,0,0.1,0,0.1,0c0,0-0.2,0.1-0.3,0.1c-0.1,0-0.1,0,0,0.1c0,0,0.1,0.1,0.1,0.1c0.1,0,0.1,0,0,0.1
					c-0.1,0-0.1,0.1-0.1,0c-0.1,0-0.1,0,0,0.2c0.1,0.2,0.2,0.4,0.1,0.5c0,0,0,0.1,0,0.1c0.1,0.1,0.1,0.4,0,0.7
					c-0.1,0.3-0.1,0.3-0.1,0.1c0-0.2-0.1-0.5-0.2-0.5c-0.1,0,0,0.2,0.1,0.4c0.1,0.2,0.2,0.5,0.1,0.6c0,0,0,0.1-0.1,0.1
					c0,0-0.1,0-0.1-0.1c0-0.1-0.1-0.1-0.1-0.1c0,0,0,0.1,0,0.2c0.1,0.2,0.1,0.4,0,0.6c-0.1,0.1-0.2,0.6-0.2,0.6c0,0.1,0,0.1-0.1,0
					c-0.1-0.1-0.1-0.2-0.3-0.7c0-0.1-0.1-0.2-0.1-0.2c-0.1-0.1-0.1-0.1,0,0c0.2,0.5,0.3,0.7,0.3,0.9c0,0.1,0.1,0.3,0.1,0.4
					c0.1,0.1,0.1,0.2,0.1,0.2c0,0-0.1,0-0.1-0.1s-0.1-0.1-0.1-0.1c0,0-0.1,0.1-0.1,0.3s-0.1,0.3-0.1,0.3c0,0,0-0.1,0-0.3
					c0-0.3,0-0.3,0-0.3c0,0,0,0-0.1,0.1c0,0.1-0.2,0.5-0.3,0.6c-0.1,0.1-0.1,0.1-0.4,0.2c-0.2,0.1-0.2,0.1-0.3,0.3
					c-0.1,0.1-0.1,0.2-0.2,0.2c-0.1,0.1-0.2,0.1-0.3,0c-0.1,0-0.1,0,0,0c0,0,0.1,0,0.1-0.1c0-0.1,0-0.1,0-0.4c0-0.2,0-0.4,0-0.5
					c0-0.1,0-0.1,0,0c0,0,0,0.2,0,0.3c0,0.5-0.2,0.8-0.4,0.9c-0.1,0-0.1,0,0-0.1c0,0,0.1-0.4,0.1-0.6c0-0.1,0-0.2-0.1-0.2
					c-0.1,0-0.2,0.4-0.2,0.6c0,0.2,0.2,0.4,0.2,0.4c0.1,0,0.2,0.1,0.2,0.2c0,0.1,0.1,0.1,0.2,0.1c0.1,0,0.1,0.1,0.2,0.2
					c0,0.1,0,0.1,0.5,0.4c0.1,0.1,0.3,0.1,0.4,0.2c0.2,0.1,0.7,0.4,0.9,0.5c0.1,0.1,0.2,0.1,0.2,0.1s0.2,0.1,0.3,0.3
					c0.2,0.2,0.2,0.4,0.2,0.4c0,0,0,0,0.1,0c0.1-0.2,0.3-0.6,0.5-0.7c0.3-0.4,0.5-0.5,0.8-0.5c0.3,0,0.5,0.1,0.7,0.3
					c0.3,0.3,0.4,0.6,0.4,1.1l0,0.3l0.1,0c0.2,0.1,0.4,0.2,0.5,0.4c0,0.1,0.1,0.2,0.2,0.2c0.2,0.1,0.4,0.4,0.5,0.6
					c0.1,0.2,0.1,0.2,0.1,0.4c0,0.2,0,0.2,0.1,0.4c0.1,0.1,0.1,0.2,0.1,0.4c0,0.2,0,0.4-0.1,0.6c0,0.1,0,0.2,0,0.2
					c0,0,0.1,0,0.1-0.1c0.2-0.2,0.5-0.1,0.7,0c0.1,0.1,0.1,0.1,0.2,0.1c0.1,0,0.1,0,0.1,0c0,0-0.1,0-0.1,0c0,0-0.1,0-0.1,0
					c0,0-0.1,0-0.1,0c-0.2,0-0.2,0-0.4,0.2c-0.1,0.1-0.2,0.2-0.1,0.4c0,0.2,0,0.2,0,0.2c0,0-0.2-0.1-0.3-0.2c0,0-0.1-0.1-0.2-0.1
					c-0.1,0-0.1,0-0.2-0.2c-0.1-0.1-0.1-0.2-0.1-0.3c0-0.1,0-0.1-0.1-0.1c-0.1,0-0.5-0.2-0.7-0.3c-0.2-0.2-0.3-0.4-0.3-0.7l0-0.2
					l-0.2,0c-0.2,0-0.2,0-0.3-0.1c-0.1-0.1-0.2-0.2-0.3-0.4l-0.1-0.1l-0.1,0.1c0,0-0.1,0.1-0.1,0.1s0-0.1,0-0.2c0-0.1,0-0.2-0.1-0.4
					c-0.1-0.2-0.1-0.2-0.1-0.5c0-0.3,0-0.5,0.2-0.6c0.1-0.1,0.2-0.3,0.3-0.4c0-0.1,0-0.1-0.1-0.1c-0.1,0-0.2,0-0.3,0.1
					c-0.2,0.1-0.2,0.1-0.4,0.1c-0.1,0-0.2,0-0.2,0c0,0,0,0,0,0.1c0.1,0.5,0.1,1,0,1.4c-0.1,0.3-0.1,0.3-0.3,0.7
					c-0.1,0.1-0.1,0.2-0.1,0.4l0,0.2l0.1,0.3c0.2,0.3,0.3,0.5,0.5,0.6c0.1,0,0.2,0.2,0.3,0.3c0,0,0,0.1,0,0.2
					c-0.1,0.2-0.1,1.3,0,1.6c0,0.1,0,0.3,0,0.4c0,0.3,0,0.3-0.2,0.3c-0.1,0-0.2,0-0.2,0.1c-0.1,0.1-0.1,0.1,0,0.3
					c0.1,0.1,0.1,0.1,0,0.2c0,0.1-0.3,0.3-0.3,0.3c0,0-0.1,0-0.2,0v0c-0.2,0-0.6,0.1-0.7,0c0,0-0.1-0.1-0.1-0.1
					c0-0.1,0.2-0.5,0.3-0.7c0-0.1,0.1-0.2,0.1-0.2c0-0.1,0.1-0.1,0.2-0.2c0.1-0.1,0.2-0.1,0.2-0.2s0-0.3,0-0.7c0-0.6,0-0.7,0-0.8
					c0-0.1-0.1-0.2-0.3-0.3c-0.1-0.1-0.3-0.3-0.4-0.4c-0.1-0.1-0.3-0.2-0.3-0.3c-0.1,0-0.2-0.1-0.3-0.2l-0.2-0.1L-662.8,214.9z
					 M-663.6,207.9c-0.1,0.1-0.1,0.2-0.1,0.2c0,0,0,0,0,0c0,0,0.1-0.1,0.2-0.3c0.3-0.3,0.7-0.8,0.8-1c0-0.1,0.1-0.1,0.1-0.1
					c0,0,0.1-0.1,0.2-0.2c0-0.1,0.1-0.2,0.2-0.3c0.2-0.3,0.4-0.6,0.4-0.8c0-0.1,0-0.2,0.1-0.3c0.1-0.2,0-0.5,0-0.6
					c-0.1-0.1-0.1-0.1-0.1,0.1c0,0.3-0.1,1-0.4,1.4c-0.2,0.4-0.7,1.1-1.1,1.6C-663.4,207.7-663.5,207.8-663.6,207.9L-663.6,207.9z
					 M-665.4,205.5c0,0.1,0.1,0.1,0.1,0c0-0.1-0.1-0.3-0.1-0.3C-665.4,205.1-665.4,205.4-665.4,205.5L-665.4,205.5z M-665.1,205.5
					c0.1,0,0.1,0,0.5-0.1c0.1,0,0.3-0.1,0.3-0.1l0.1-0.1l-0.2,0c-0.1,0-0.2,0-0.2-0.1c-0.1,0-0.1-0.1-0.3-0.1c-0.1,0-0.2,0-0.3,0
					c-0.1,0-0.1,0,0,0.3C-665.2,205.5-665.1,205.5-665.1,205.5z"/>
				<path id="path6203_00000136388073968956113860000001835351487539089814_" class="st4" d="M-686.2,215.7l0.8,0.3l0.2,0.2l-0.2,0
					l-0.7-0.2L-686.2,215.7L-686.2,215.7z"/>
			</g>
		</g>
		<path class="st5" d="M91.7,64.2c0.1,0.1,0.2,0.2,0.3,0.3c0-0.2,0-0.4,0-0.5c0.1,0.1,0.2,0.4,0.2,0.7c0.1,0.1,0.2,0.2,0.4,0.2
			c0-0.3,0-0.8,0-1c0.1,0.2,0.3,0.8,0.4,1.2c0.1,0.1,0.2,0.1,0.4,0.2c0-0.5-0.1-1.1-0.1-1.4c0.2,0.4,0.4,1,0.5,1.5
			c0.1,0.1,0.3,0.1,0.4,0.1c0-0.6-0.1-1.3-0.2-1.6c0.2,0.4,0.5,1.2,0.5,1.7c0.2,0,0.4,0.1,0.5,0.1c-0.4-1.5-0.7-2.4-1.4-3.2
			c-0.3-0.1-0.5-0.2-0.8-0.3c0,0,0,0,0,0.1c0,0.1-0.1,0.1-0.1,0.2l-0.2,0.3l-0.3-0.1c-0.1,0-0.2-0.1-0.4-0.2c0,0.2,0,0.4,0,0.6
			C91.9,63.5,91.8,63.9,91.7,64.2L91.7,64.2z M90.9,61.5c0-0.1,0-0.2,0.1-0.2c0.3,0.2,0.7,0.3,0.8,0.3c-0.2-0.2-0.5-0.4-0.8-0.6
			c0-0.1,0-0.2,0-0.3c0.3,0.2,0.6,0.3,0.8,0.3c-0.2-0.2-0.5-0.4-0.8-0.6c0-0.1,0-0.2,0-0.3c0.3,0.1,0.6,0.2,0.7,0.3
			c-0.2-0.2-0.5-0.4-0.7-0.6c0-0.1-0.1-0.2-0.1-0.4c0.2,0.1,0.4,0.2,0.6,0.2c-0.1,0-0.5-0.5-0.8-0.7c-0.2-0.3-0.4-0.6-0.7-0.8
			c1.6,0.5,3,2.9,2.2,4.4C91.9,62.2,91.4,61.9,90.9,61.5L90.9,61.5z M88.9,63.2c-1-1.1-1.4-2.1-1.4-3.1c0-0.9,0.5-1.8,1.1-2.4
			c-1.2,0.6-1.6,1.5-1.6,2.5c0,1.3,0.9,2.7,1.9,3.6c0.4-0.4,0.7-0.7,0.9-1c1.1-1.4,1.5-3.3,0-4.6c-0.3-0.2-0.7-0.5-1-0.5v0.4
			c0.2,0.2,0.4,0.3,0.6,0.4c-0.2,0-0.4,0-0.6,0v0.3c0.1,0.1,0.4,0.2,0.6,0.2c-0.2,0.1-0.5,0.1-0.6,0.2v0.3c0.1,0,0.4,0,0.6,0
			c-0.1,0.1-0.5,0.3-0.6,0.4v0.4c0.2-0.1,0.6-0.2,0.7-0.3c-0.1,0.2-0.4,0.5-0.7,0.7V61c0.3-0.2,0.7-0.5,0.9-0.7
			c-0.2,0.4-0.5,0.9-0.9,1.1v0.4c0.3-0.2,0.6-0.4,0.9-0.7c-0.2,0.5-0.4,0.8-0.9,1.1v0.4c0.2-0.1,0.7-0.5,1-0.8
			C89.7,62.3,89.2,62.9,88.9,63.2L88.9,63.2z M86.8,61.5c-0.5,0.4-1,0.7-1.4,0.8c-0.8-1.4,0.6-3.9,2.2-4.4c-0.2,0.2-0.3,0.3-0.5,0.5
			c-0.8,0.7-1.6,1.9-1.5,3.2c0.2-0.2,0.6-0.4,0.9-0.7C86.7,61.1,86.7,61.3,86.8,61.5L86.8,61.5z M92.9,61.6c0.2,0.1,0.5,0.3,0.9,0.3
			c-0.3-0.2-0.6-0.4-0.9-0.7c0-0.1,0-0.2,0-0.3c0.2,0.1,0.5,0.3,0.7,0.4c-0.2-0.2-0.6-0.6-0.8-0.7c0-0.1-0.1-0.2-0.1-0.3
			c0.2,0.2,0.5,0.4,0.7,0.5c-0.3-0.3-0.6-0.7-0.9-1c-0.1-0.2-0.2-0.4-0.3-0.5c-0.1-0.1-0.2-0.3-0.3-0.4c1.6,1.1,2.3,2.9,3,3.8
			c-0.5-0.1-1.6-0.4-2.1-0.7C92.9,61.9,92.9,61.7,92.9,61.6L92.9,61.6z M84.8,61.4c-0.3,0.1-0.5,0.3-0.8,0.4
			c0.2-0.3,0.4-0.6,0.6-0.9c0.2-0.3,0.4-0.6,0.6-0.8c0.1-0.3,0.3-0.6,0.5-0.9c0.1-0.1,0.2-0.3,0.3-0.4c-1.6,1.1-2.3,2.9-3,3.8
			c0.8-0.2,1.4-0.4,2-0.7C84.9,61.8,84.8,61.6,84.8,61.4L84.8,61.4z M83.9,68.8c0.3,0.9,0.5,1.5,0.7,2.4l0.6-0.6
			c-0.1-0.1-0.1-0.2-0.2-0.4l-0.2,0.2c-0.2-0.7-0.3-1.3-0.5-1.9L83.9,68.8L83.9,68.8z M83.6,66c0.2-0.1,0.4-0.1,0.5-0.2
			c0,0.3-0.2,1.3-0.2,1.4c0,0.2-0.1,0.4-0.1,0.6l0.8-0.5c0.1,0.1,0.1,0.3,0.2,0.4l-1.7,1.1C83.3,68.3,83.5,66.9,83.6,66L83.6,66z
			 M87,69.1l-0.9,2.4c-0.7-1.1-1.3-2.1-1.3-3.3l0.2-0.1c0.1,0.4,0.4,1.6,1,2.3l0.6-1.7C86.8,68.8,86.9,69,87,69.1L87,69.1z
			 M88.9,72.9c0.9-0.7,1.5-1.3,2.1-2l-0.5-1.4c-0.4,0.5-0.9,0.9-1.4,1.3L88.9,71v0.3c0.3-0.1,0.7-0.4,0.9-0.6
			c-0.2,0.4-0.5,0.7-0.9,0.9v0.3c0.4-0.2,1.1-0.7,1.4-0.9c-0.3,0.5-0.8,1-1.4,1.3c-0.5-0.4-1.2-1.2-1.6-1.5l0.3-0.9
			c-0.1-0.1-0.3-0.3-0.4-0.4l-0.5,1.4C87.4,71.6,88,72.2,88.9,72.9L88.9,72.9z M88.9,70.5c0.8-0.7,1.7-1.6,2.2-2.5l-0.9-1.4
			c-0.3,0.3-0.7,0.7-1.1,1l-0.2,0.2v0.4c0.3-0.2,0.6-0.4,0.8-0.5c-0.2,0.3-0.5,0.6-0.8,0.8v0.3c0.5-0.3,1-0.7,1.2-0.9
			c-0.2,0.4-0.7,0.9-1.2,1.3v0.3c0.5-0.2,1.3-0.9,1.6-1.2c-0.3,0.6-1,1.3-1.6,1.6c-0.7-0.6-1.3-1.2-1.6-1.9l0.7-1.1
			c-0.1-0.1-0.2-0.2-0.4-0.3L86.7,68C87.2,69,88,69.8,88.9,70.5L88.9,70.5z M87.3,66.3l-1.5,2.3c-0.9-1.2-1.1-1.8-1.1-3.1
			c0.2-0.1,0.3-0.2,0.5-0.3c0,0.3,0,0.9,0,1.1c0.1,0.5,0.3,0.9,0.6,1.4l1.1-1.9C87.1,66,87.2,66.2,87.3,66.3L87.3,66.3z M86.1,64.2
			c-0.1-0.2-0.1-0.5-0.2-0.7c-0.1,0.2-0.3,0.4-0.4,0.5c-0.6,0.5-1.2,0.8-2,1c0.2-0.7,0.5-1.4,1-2.1c0.1-0.1,0.3-0.3,0.5-0.6
			c0,0,0,0,0-0.1c0,0,0,0,0-0.1c-0.3,0.1-0.5,0.2-0.8,0.3c-0.6,0.8-1,1.7-1.4,3.2C84.1,65.5,85.1,65.1,86.1,64.2L86.1,64.2z
			 M86.3,62.3c-0.1,0.3-0.1,0.5-0.1,0.8c0,1.6,1.1,3,2.7,4.2c1.5-1.3,2.7-2.6,2.7-4.2c0-0.3,0-0.5-0.1-0.8c-0.2-0.1-0.4-0.3-0.6-0.4
			c-0.2,0.4-0.4,0.8-0.7,1.2c-0.3,0.4-0.6,0.7-1,1.1l-0.2,0.2v0.4c0.4-0.2,0.8-0.5,0.9-0.7c-0.2,0.3-0.6,0.7-0.9,1v0.4
			c0.5-0.3,1.1-0.8,1.3-1c-0.3,0.4-0.8,1-1.3,1.4v0.4c0.5-0.2,1.3-1,1.6-1.2c-0.3,0.6-1.1,1.4-1.6,1.7c-1.3-1.1-2.2-2.3-2.2-3.8
			c0-0.3,0.1-0.6,0.2-1l0,0C86.7,62,86.5,62.1,86.3,62.3L86.3,62.3z M93.9,68.8c-0.3,0.9-0.5,1.5-0.7,2.4L92.9,71
			c0.1-0.3,0.2-0.7,0.2-0.9c-0.1,0.2-0.2,0.4-0.4,0.7l-0.2-0.2c0.4-0.7,0.6-1.4,0.7-2.2L93.9,68.8L93.9,68.8z M94.2,66
			c0.1,0.9,0.3,2.3,0.4,2.9l-0.4-0.3c0-0.4,0-0.7,0-1c0,0.2-0.1,0.5-0.2,0.9l-0.3-0.2c0.1-0.3,0.1-0.7,0.1-0.9
			c0,0.2-0.2,0.5-0.3,0.8l-0.5-0.3c0.3-0.6,0.5-1.2,0.5-2C93.7,65.8,93.9,65.9,94.2,66L94.2,66z M90.7,69.1c0.2-0.3,0.4-0.5,0.5-0.8
			l0.6,0.9l0.3-0.4c0.2-0.3,0.4-0.5,0.5-0.8l0.2,0.1c0,1.2-0.6,2.2-1.3,3.3l-0.1-0.3c0.3-0.4,0.5-0.9,0.6-1.4
			c-0.2,0.3-0.4,0.7-0.7,1l-0.1-0.3c0.2-0.3,0.3-0.6,0.3-1c-0.1,0.2-0.3,0.4-0.4,0.7L91.1,70c0.1-0.2,0.1-0.5,0.2-0.7
			c-0.1,0.1-0.2,0.3-0.3,0.4L90.7,69.1L90.7,69.1z M90.4,66.3c0.5-0.5,0.9-1.1,1.2-1.8c0.5,0.4,1,0.7,1.5,1c0,1.3-0.3,1.9-1.1,3.1
			l-0.3-0.4c0.3-0.4,0.6-0.8,0.7-1.2c-0.2,0.2-0.5,0.6-0.9,0.9l-0.2-0.3c0.3-0.3,0.5-0.7,0.6-1c-0.2,0.2-0.4,0.5-0.7,0.8l-0.2-0.3
			c0.2-0.3,0.4-0.7,0.5-0.9c-0.1,0.2-0.4,0.4-0.7,0.7L90.4,66.3z"/>
	</g>
</g>
</svg>
