<?xml version="1.0" encoding="utf-8"?>
<!-- Generator: Adobe Illustrator 26.0.3, SVG Export Plug-In . SVG Version: 6.00 Build 0)  -->
<svg version="1.1" id="Layer_1" xmlns="http://www.w3.org/2000/svg" xmlns:xlink="http://www.w3.org/1999/xlink" x="0px" y="0px"
	 viewBox="0 0 180 180" style="enable-background:new 0 0 180 180;" xml:space="preserve">
<style type="text/css">
	.st0{display:none;}
	.st1{display:inline;fill:#D9B767;}
	.st2{fill:#D9B767;stroke:#002B49;stroke-width:2.5412;stroke-linecap:round;stroke-linejoin:round;stroke-miterlimit:10;}
	.st3{fill:#002B49;}
	.st4{fill:#D9B767;}
	.st5{fill-rule:evenodd;clip-rule:evenodd;fill:#D9B767;}
</style>
<g id="Backgrounds" class="st0">
	<rect class="st1" width="179.1" height="179"/>
</g>
<g id="Layer_3">
</g>
<g>
	<path class="st2" d="M171.5,55.9c0,0-29.6,0-31.7,0c-5,0-15.6-1.7-23.4-10.4c-7.8-8.4-15.2-10.9-26.4-10.9
		c-11.7,0-18.9,2.5-26.4,10.9C55.7,54.2,45,55.9,40.2,55.9c-2,0-31.7,0-31.7,0c-2.5,0-4.5,2-4.5,4.5v81.3c0,2.5,2,4.5,4.5,4.5h162.9
		c2.5,0,4.5-2,4.5-4.5V60.5C176.1,57.9,174,55.9,171.5,55.9z"/>
	<path class="st3" d="M166.7,60.9c0,0-30.2,0-32.1,0c-4.4,0-14-2.7-20.9-10.5c-6.9-7.5-13.5-9.9-23.5-9.9c-10.4,0-16.8,2.4-23.6,9.9
		c-7,7.8-16.7,10.5-20.9,10.5c-1.8,0-32.1,0-32.1,0c-2.3,0-4.1,1.8-4.1,4.1v72.3c0,2.3,1.8,4.1,4.1,4.1h153.2c2.3,0,4.1-1.8,4.1-4.1
		V64.9C170.7,62.7,168.9,60.9,166.7,60.9z"/>
	<g>
		<path class="st4" d="M17.4,86.8c0.6-1.3,1.4-2.4,2.4-3.3c1.1-1,2.3-1.6,3.6-2c1.3-0.5,2.7-0.7,4.3-0.7s3,0.1,4.1,0.4
			s1.9,0.6,2.5,1l0.1,5.3h-0.5c-0.2-1.2-0.6-2.1-1.2-3.1c-0.5-0.8-1.2-1.6-2-2c-0.7-0.4-1.7-0.6-2.7-0.6c-1.3,0-2.5,0.4-3.5,1.2
			c-1,0.8-1.8,1.9-2.3,3.3c-0.5,1.4-0.8,3.1-0.8,5c0,1.3,0.1,2.6,0.5,3.8c0.2,1.2,0.7,2.3,1.3,3.2c0.6,1,1.3,1.7,2,2.3
			c0.8,0.6,1.8,0.8,2.9,0.8c1,0,1.9-0.2,2.6-0.7c0.8-0.5,1.4-1.1,2-2c0.6-1,1-1.9,1.2-3.2h0.6l-0.1,5.4c-0.4,0.2-0.8,0.5-1.6,0.7
			c-0.7,0.2-1.4,0.4-2.3,0.6c-0.8,0.1-1.8,0.2-2.7,0.2c-1.6,0-3.1-0.2-4.4-0.7c-1.3-0.5-2.5-1.2-3.6-2.1c-1-1-1.8-2-2.4-3.3
			c-0.6-1.3-0.8-2.9-0.8-4.5C16.5,89.7,16.8,88.1,17.4,86.8z"/>
		<path class="st4" d="M43.7,100.4c0.1,0.2,0.2,0.4,0.6,0.5s0.7,0.2,1.2,0.4v0.6h-8.2v-0.6c0.6-0.1,1-0.2,1.3-0.4s0.5-0.4,0.6-0.6
			c0.1-0.2,0.1-0.6,0.1-1V83.6c0-0.5,0-0.7-0.1-1c-0.1-0.2-0.2-0.5-0.6-0.6c-0.2-0.1-0.7-0.2-1.3-0.4v-0.6h8.2v0.6
			c-0.5,0.1-1,0.2-1.2,0.4c-0.2,0.1-0.5,0.2-0.6,0.5c-0.1,0.2-0.1,0.6-0.1,1v16C43.5,99.8,43.5,100.2,43.7,100.4z M41.4,90.7h13.5
			v0.8H41.4V90.7z M57.2,100.3c0.1,0.2,0.2,0.5,0.6,0.6c0.2,0.1,0.7,0.2,1.2,0.4v0.6h-8.2v-0.6c0.6-0.1,1-0.2,1.2-0.4
			c0.2-0.1,0.5-0.2,0.6-0.5c0.1-0.2,0.1-0.6,0.1-1v-16c0-0.5,0-0.7-0.1-1c-0.1-0.2-0.2-0.4-0.6-0.5c-0.2-0.1-0.7-0.2-1.2-0.4v-0.6
			h8.2v0.6c-0.6,0.1-1,0.2-1.2,0.4c-0.2,0.1-0.5,0.4-0.6,0.6c-0.1,0.2-0.1,0.6-0.1,1v15.8C56.9,99.7,57,100.1,57.2,100.3z"/>
		<path class="st4" d="M62.6,82.5c-0.1-0.2-0.2-0.4-0.6-0.5c-0.2-0.1-0.7-0.2-1.2-0.4v-0.6h8.2v0.6c-0.6,0.1-1,0.2-1.3,0.4
			c-0.2,0.1-0.5,0.4-0.6,0.6c-0.1,0.2-0.1,0.6-0.1,1v10.2c0,1.6,0.2,2.9,0.7,3.9c0.5,1.1,1.2,1.8,2,2.3c0.8,0.5,1.8,0.7,2.9,0.7
			c1.7,0,3.1-0.6,4.1-1.8c1.1-1.2,1.6-2.9,1.6-5l-0.1-9c0-0.8-0.1-1.4-0.1-1.8c0-0.4-0.4-0.7-0.6-1c-0.4-0.2-0.7-0.4-1.4-0.5v-0.6
			h5.4v0.6c-0.6,0.1-1,0.2-1.2,0.5c-0.2,0.2-0.5,0.5-0.6,1c-0.1,0.5-0.1,1.1-0.1,1.8L79.2,94c0,1.7-0.4,3.1-1,4.3s-1.6,2.1-2.7,2.9
			s-2.6,1.1-4.4,1.1c-1.1,0-2.1-0.1-3.2-0.5c-1.1-0.4-1.9-0.8-2.7-1.4c-0.8-0.7-1.4-1.6-1.9-2.6c-0.5-1.1-0.7-2.4-0.7-3.8V83.6
			C62.8,83.1,62.8,82.7,62.6,82.5z"/>
		<path class="st4" d="M100.5,98h-0.4l-0.2-13.3c0-0.8-0.1-1.4-0.1-1.9c-0.1-0.5-0.4-0.7-0.6-1c-0.2-0.2-0.7-0.4-1.3-0.4V81h5.5v0.6
			c-0.6,0.1-1.1,0.2-1.3,0.5c-0.2,0.2-0.5,0.5-0.6,1s-0.1,1.1-0.1,1.8l-0.4,17.1h-3.5l-12.2-19h0.5L86.1,98c0,0.8,0.1,1.4,0.2,1.8
			c0.1,0.5,0.4,0.7,0.6,1c0.2,0.2,0.7,0.4,1.3,0.4v0.6h-5.5v-0.6c0.6-0.1,1.1-0.2,1.3-0.5c0.2-0.2,0.5-0.5,0.6-1
			c0.1-0.5,0.1-1.1,0.1-1.8l0.2-14c0-0.5,0-1-0.1-1.2c-0.1-0.4-0.4-0.6-0.6-0.7c-0.2-0.1-0.7-0.4-1.2-0.5V81h6.6L100.5,98z"/>
		<path class="st4" d="M111.6,100.4c0.1,0.2,0.2,0.4,0.6,0.5c0.2,0.1,0.7,0.2,1.2,0.4v0.6h-8.2v-0.6c0.6-0.1,1-0.2,1.3-0.4
			c0.2-0.1,0.5-0.4,0.6-0.6c0.1-0.2,0.1-0.6,0.1-1V83.6c0-0.5,0-0.7-0.1-1c-0.1-0.2-0.2-0.5-0.6-0.6c-0.2-0.1-0.7-0.2-1.3-0.4v-0.6
			h8.2v0.6c-0.5,0.1-1,0.2-1.2,0.4c-0.2,0.1-0.5,0.2-0.6,0.5s-0.1,0.6-0.1,1v16C111.4,99.8,111.5,100.2,111.6,100.4z M110.4,91.5
			v-0.7h3.1v0.8L110.4,91.5z M112.8,91.1l5.1-6.1c0.7-0.8,1.1-1.4,1.3-1.9c0.2-0.5,0.2-0.8,0-1c-0.2-0.2-0.6-0.4-1.3-0.5v-0.6h6.1
			v0.6c-0.6,0.1-1.1,0.4-1.6,0.6c-0.5,0.2-1,0.6-1.6,1.1c-0.6,0.5-1.2,1.1-1.9,1.8s-1.3,1.4-2,2.1c-0.6,0.7-1.2,1.3-1.8,1.9l0.5-1.1
			l5.4,9.2c0.6,1,1.1,1.8,1.4,2.3c0.4,0.5,0.7,1,1.1,1.2c0.4,0.2,0.6,0.5,1,0.6v0.6H119L112.8,91.1z"/>
		<path class="st4" d="M141.8,86.4h-0.6c-0.2-0.8-0.5-1.6-0.7-2.1c-0.2-0.6-0.7-1-1.1-1.3c-0.5-0.4-1.1-0.6-1.7-0.7
			c-0.7-0.1-1.6-0.2-2.5-0.4l-2.7-0.1v9.1l3.3-0.1c0.6,0,1.1-0.1,1.4-0.4c0.4-0.2,0.6-0.5,0.7-1c0.1-0.5,0.4-1,0.5-1.7h0.6v6.8h-0.6
			c-0.1-0.7-0.2-1.3-0.5-1.7c-0.1-0.5-0.5-0.7-0.7-1c-0.4-0.2-0.8-0.4-1.4-0.4l-3.3-0.1v9.6l3.2-0.1c1.1,0,1.9-0.1,2.6-0.4
			c0.7-0.2,1.3-0.5,1.8-0.8c0.5-0.4,0.8-0.8,1.1-1.6c0.2-0.6,0.6-1.4,0.7-2.4h0.6l-0.2,5.9h-16.2V101c0.6-0.1,1-0.2,1.3-0.4
			c0.2-0.1,0.5-0.4,0.6-0.6c0.1-0.2,0.1-0.6,0.1-1V83.6c0-0.5,0-0.7-0.1-1c-0.1-0.2-0.2-0.5-0.6-0.6c-0.2-0.1-0.7-0.2-1.3-0.4v-0.6
			h15.5L141.8,86.4z"/>
		<path class="st4" d="M161.4,88.8c-0.4,0.7-1,1.2-1.6,1.7c-0.6,0.5-1.4,0.7-2.3,1v-0.7l3.3,6.7c0.5,1,1,1.8,1.3,2.3
			c0.4,0.5,0.6,0.8,1,1.1c0.2,0.2,0.5,0.4,0.8,0.5v0.6h-5.3l-4.7-9.7h-2.7v7.2c0,0.4,0,0.7,0.1,1c0.1,0.2,0.2,0.4,0.6,0.5
			c0.2,0.1,0.7,0.2,1.2,0.4v0.6h-8.4v-0.6c0.6-0.1,1-0.2,1.3-0.4c0.2-0.1,0.5-0.4,0.6-0.6c0.1-0.2,0.1-0.6,0.1-1V83.6
			c0-0.5,0-0.8-0.1-1.1c-0.1-0.2-0.2-0.5-0.6-0.6c-0.2-0.1-0.7-0.2-1.3-0.4V81h8.5c2.9,0,5,0.5,6.4,1.4c1.4,1,2.1,2.4,2.1,4.1
			C162,87.4,161.8,88.2,161.4,88.8z M157.1,84.3c-0.4-0.7-1-1.3-1.7-1.8c-0.7-0.5-1.8-0.7-3-0.7h-1.3v9.8h1.6c1.4,0,2.6-0.5,3.6-1.3
			c0.8-0.8,1.3-1.9,1.3-3.5C157.7,85.9,157.5,85,157.1,84.3z"/>
	</g>
	<g>
		<path class="st4" d="M29.4,133.4c-0.4-0.1-0.6-0.1-0.8-0.2c-0.2-0.1-0.5-0.2-0.6-0.4l-0.1-1.9h0.2c0.1,0.5,0.4,1,0.6,1.3
			c0.2,0.4,0.6,0.6,1,0.7c0.4,0.1,0.7,0.2,1.2,0.2c0.6,0,1-0.1,1.3-0.5c0.4-0.4,0.5-0.7,0.5-1.2s-0.1-0.8-0.5-1.1
			c-0.2-0.2-0.7-0.6-1.3-0.8l-0.6-0.2c-0.7-0.2-1.2-0.6-1.6-1c-0.4-0.4-0.6-1-0.6-1.6c0-0.5,0.1-1,0.4-1.3s0.6-0.6,1.1-0.8
			c0.5-0.1,1-0.2,1.4-0.2c0.5,0,1,0,1.3,0.1s0.7,0.2,0.8,0.4l0.1,1.8H33c-0.1-0.5-0.2-0.8-0.5-1.2c-0.2-0.4-0.5-0.6-0.7-0.7
			c-0.2-0.1-0.6-0.2-1-0.2c-0.6,0-1.1,0.1-1.3,0.4c-0.4,0.2-0.5,0.6-0.5,1.1c0,0.5,0.1,0.8,0.5,1.1c0.4,0.2,0.7,0.5,1.3,0.7l0.6,0.2
			c0.7,0.2,1.3,0.6,1.7,1.1c0.4,0.4,0.6,1,0.6,1.6c0,0.4-0.1,0.7-0.2,1.1c-0.1,0.4-0.4,0.6-0.6,0.8c-0.2,0.2-0.6,0.4-1,0.5
			s-0.7,0.1-1.2,0.1C30.2,133.5,29.8,133.5,29.4,133.4z"/>
		<path class="st4" d="M34.9,129c0.2-0.5,0.6-0.8,1-1.1c0.4-0.2,0.8-0.4,1.4-0.4c0.5,0,1,0.1,1.3,0.4s0.6,0.5,0.8,0.8
			c0.2,0.4,0.2,0.7,0.2,1.2v0.1v0.1h-4.3v-0.2h3.2l-0.1,0.1v-0.1c0,0,0-0.1,0-0.2c0-0.6-0.1-1-0.4-1.3c-0.2-0.4-0.5-0.6-1-0.6
			s-0.8,0.2-1.1,0.6c-0.2,0.4-0.4,1-0.4,1.7c0,0.6,0.1,1.1,0.2,1.6c0.1,0.5,0.5,0.7,0.8,1.1c0.4,0.2,0.7,0.4,1.2,0.4
			c0.4,0,0.6,0,0.8-0.1c0.2-0.1,0.5-0.2,0.6-0.5v0.2c-0.2,0.2-0.5,0.5-0.8,0.7c-0.4,0.1-0.8,0.2-1.3,0.2c-0.6,0-1.1-0.1-1.4-0.4
			c-0.5-0.2-0.7-0.6-1.1-1.1c-0.2-0.5-0.4-1-0.4-1.6C34.6,129.9,34.7,129.3,34.9,129z"/>
		<path class="st4" d="M41,128.3c0.2-0.2,0.5-0.5,0.8-0.6c0.4-0.1,0.7-0.2,1.1-0.2c0.4,0,0.7,0,1.1,0.1c0.4,0.1,0.5,0.1,0.6,0.2v1.4
			h-0.2c-0.1-0.5-0.2-1-0.6-1.2c-0.2-0.2-0.6-0.4-1-0.4s-0.7,0.1-0.8,0.2c-0.2,0.2-0.4,0.4-0.4,0.7c0,0.2,0.1,0.5,0.4,0.7
			c0.2,0.1,0.5,0.4,0.8,0.5l0.5,0.1c0.5,0.1,1,0.4,1.2,0.7c0.2,0.2,0.5,0.7,0.5,1.2c0,0.4-0.1,0.7-0.4,1c-0.2,0.2-0.5,0.5-0.8,0.6
			c-0.4,0.1-0.7,0.2-1.1,0.2c-0.5,0-0.8,0-1.2-0.1c-0.4-0.1-0.6-0.2-0.8-0.4l-0.1-1.6h0.2c0.1,0.4,0.2,0.7,0.4,1
			c0.1,0.2,0.4,0.5,0.7,0.6c0.2,0.1,0.5,0.2,0.8,0.2s0.7-0.1,1-0.2c0.2-0.2,0.4-0.5,0.4-0.7s-0.1-0.5-0.2-0.7
			c-0.2-0.2-0.5-0.4-0.8-0.5l-0.5-0.1c-0.5-0.1-1-0.4-1.2-0.7c-0.2-0.2-0.5-0.6-0.5-1.1C40.8,128.7,40.8,128.5,41,128.3z"/>
		<path class="st4" d="M46.3,128.3c0.2-0.2,0.5-0.5,0.8-0.6c0.4-0.1,0.7-0.2,1.1-0.2c0.4,0,0.7,0,1.1,0.1c0.4,0.1,0.5,0.1,0.6,0.2
			v1.4h-0.2c-0.1-0.5-0.2-1-0.6-1.2c-0.2-0.2-0.6-0.4-1-0.4s-0.7,0.1-0.8,0.2c-0.2,0.2-0.4,0.4-0.4,0.7c0,0.2,0.1,0.5,0.4,0.7
			c0.2,0.1,0.5,0.4,0.8,0.5l0.5,0.1c0.5,0.1,1,0.4,1.2,0.7c0.2,0.2,0.5,0.7,0.5,1.2c0,0.4-0.1,0.7-0.4,1c-0.2,0.2-0.5,0.5-0.8,0.6
			c-0.4,0.1-0.7,0.2-1.1,0.2c-0.5,0-0.8,0-1.2-0.1c-0.4-0.1-0.6-0.2-0.8-0.4l-0.1-1.6H46c0.1,0.4,0.2,0.7,0.4,1
			c0.1,0.2,0.4,0.5,0.7,0.6c0.2,0.1,0.5,0.2,0.8,0.2s0.7-0.1,1-0.2c0.2-0.2,0.4-0.5,0.4-0.7s-0.1-0.5-0.2-0.7
			c-0.2-0.2-0.5-0.4-0.8-0.5l-0.5-0.1c-0.5-0.1-1-0.4-1.2-0.7c-0.2-0.2-0.5-0.6-0.5-1.1C46,128.7,46.2,128.5,46.3,128.3z"/>
		<path class="st4" d="M53,132.6c0,0.2,0,0.4,0.1,0.5c0.1,0.1,0.2,0.1,0.6,0.2v0.2h-2.6v-0.2c0.4,0,0.5-0.1,0.6-0.2
			c0.1-0.1,0.1-0.2,0.1-0.5v-4.1c0-0.1,0-0.2-0.1-0.4c0,0-0.1-0.1-0.4-0.1l-0.4-0.1v-0.2l1.9-0.2v5.1H53z M51.8,126.2
			c-0.1-0.1-0.2-0.2-0.2-0.5c0-0.2,0.1-0.4,0.2-0.5c0.1-0.1,0.4-0.2,0.5-0.2c0.2,0,0.4,0.1,0.5,0.2s0.2,0.2,0.2,0.5
			c0,0.2-0.1,0.4-0.2,0.5c-0.1,0.1-0.4,0.2-0.5,0.2C52.1,126.5,51.9,126.3,51.8,126.2z"/>
		<path class="st4" d="M56,133.1c-0.5-0.2-0.8-0.6-1.1-1.1c-0.2-0.5-0.4-1-0.4-1.6c0-0.6,0.1-1.1,0.4-1.6c0.2-0.5,0.6-0.8,1.1-1.1
			s1-0.4,1.6-0.4c0.6,0,1.1,0.1,1.6,0.4c0.5,0.2,0.8,0.6,1.1,1.1c0.2,0.5,0.4,1,0.4,1.6c0,0.6-0.1,1.1-0.4,1.6
			c-0.2,0.5-0.6,0.8-1.1,1.1s-1,0.4-1.6,0.4C56.9,133.5,56.4,133.4,56,133.1z M58.7,132.4c0.2-0.5,0.5-1.2,0.5-1.9
			c0-0.6-0.1-1.1-0.2-1.4c-0.1-0.4-0.4-0.7-0.6-1s-0.6-0.4-0.8-0.4c-0.5,0-1,0.2-1.2,0.7c-0.2,0.5-0.5,1.1-0.5,1.9
			c0,0.6,0.1,1.1,0.2,1.4c0.1,0.4,0.4,0.7,0.6,1c0.2,0.2,0.6,0.4,0.8,0.4C58,133.1,58.3,132.9,58.7,132.4z"/>
		<path class="st4" d="M63.1,128.5c0.1-0.4,0.4-0.6,0.7-0.7c0.4-0.2,0.7-0.2,1.2-0.2c0.6,0,1.1,0.1,1.4,0.5c0.4,0.4,0.6,0.7,0.6,1.3
			v3.3c0,0.1,0,0.2,0,0.4s0.1,0.1,0.2,0.2c0.1,0,0.2,0.1,0.5,0.1v0.2h-2.6v-0.2c0.4,0,0.5-0.1,0.6-0.1c0.1-0.1,0.1-0.2,0.1-0.4v-3.1
			c0-0.5-0.1-0.8-0.4-1.1c-0.2-0.2-0.6-0.4-1-0.4c-0.4,0-0.6,0.1-0.8,0.2s-0.4,0.4-0.5,0.5v3.8c0,0.2,0,0.4,0.1,0.4
			c0.1,0.1,0.2,0.1,0.6,0.1v0.2h-2.6v-0.2c0.4,0,0.5-0.1,0.6-0.2c0.1-0.1,0.1-0.2,0.1-0.5v-4.1c0-0.1,0-0.2-0.1-0.4
			c0,0-0.1-0.1-0.4-0.1l-0.4-0.1v-0.2l1.9-0.2L63.1,128.5L63.1,128.5z"/>
		<path class="st4" d="M71.6,127.1c0.2-0.6,0.6-1,1-1.4c0.4-0.4,0.8-0.6,1.4-0.8c0.6-0.2,1.1-0.2,1.7-0.2c0.7,0,1.3,0.1,1.8,0.2
			c0.5,0.1,0.8,0.2,1.1,0.5l0.1,1.9h-0.2c-0.1-0.5-0.2-1-0.5-1.2c-0.2-0.4-0.5-0.6-0.8-0.7s-0.7-0.2-1.2-0.2c-0.6,0-1.2,0.1-1.7,0.5
			c-0.5,0.4-0.8,0.8-1.1,1.4s-0.4,1.3-0.4,2.1c0,0.6,0.1,1.1,0.2,1.7c0.1,0.5,0.4,1,0.6,1.4c0.2,0.4,0.6,0.7,1,1
			c0.4,0.2,0.8,0.4,1.3,0.4c0.4,0,0.7,0,1.1-0.1c0.4-0.1,0.6-0.2,0.7-0.4v-2.4c0-0.2,0-0.4-0.1-0.5c0-0.1-0.1-0.1-0.2-0.2
			c-0.1,0-0.4-0.1-0.6-0.1v-0.5h3v0.2c-0.2,0-0.5,0-0.6,0.1c-0.1,0.1-0.2,0.1-0.2,0.2s-0.1,0.2-0.1,0.5v2.3
			c-0.4,0.2-0.8,0.5-1.3,0.6c-0.6,0.1-1.1,0.2-1.7,0.2s-1.2-0.1-1.8-0.4c-0.6-0.2-1.1-0.5-1.4-1c-0.4-0.5-0.7-0.8-1-1.4
			c-0.2-0.6-0.4-1.2-0.4-1.9C71.2,128.3,71.4,127.7,71.6,127.1z"/>
		<path class="st4" d="M81.8,133.1c-0.5-0.2-0.8-0.6-1.1-1.1c-0.2-0.5-0.4-1-0.4-1.6c0-0.6,0.1-1.1,0.4-1.6c0.2-0.5,0.6-0.8,1.1-1.1
			c0.5-0.2,1-0.4,1.6-0.4s1.1,0.1,1.6,0.4c0.5,0.2,0.8,0.6,1.1,1.1c0.2,0.5,0.4,1,0.4,1.6c0,0.6-0.1,1.1-0.4,1.6
			c-0.2,0.5-0.6,0.8-1.1,1.1s-1,0.4-1.6,0.4S82.2,133.4,81.8,133.1z M84.5,132.4c0.2-0.5,0.5-1.2,0.5-1.9c0-0.6-0.1-1.1-0.2-1.4
			c-0.1-0.4-0.4-0.7-0.6-1s-0.6-0.4-0.8-0.4c-0.5,0-1,0.2-1.2,0.7s-0.5,1.1-0.5,1.9c0,0.6,0.1,1.1,0.2,1.4s0.4,0.7,0.6,1
			c0.2,0.2,0.6,0.4,0.8,0.4C83.8,133.1,84.3,132.9,84.5,132.4z"/>
		<path class="st4" d="M89,132.6c0,0.2,0,0.4,0.1,0.5c0.1,0.1,0.2,0.1,0.6,0.2v0.2h-2.6v-0.2c0.4,0,0.5-0.1,0.6-0.2
			c0.1-0.1,0.1-0.2,0.1-0.5v-7c0-0.1,0-0.2-0.1-0.4c-0.1-0.1-0.1-0.1-0.4-0.1l-0.4-0.1v-0.2l1.9-0.2v8.1H89z"/>
		<path class="st4" d="M90.8,129c0.2-0.5,0.6-0.8,1-1.1c0.4-0.2,0.8-0.4,1.4-0.4c0.4,0,0.7,0.1,1,0.2s0.5,0.4,0.6,0.5v-2.7
			c0-0.1,0-0.2-0.1-0.4c-0.1-0.1-0.1-0.1-0.4-0.1l-0.4-0.1v-0.2l1.9-0.2v8c0,0.1,0,0.2,0.1,0.4c0,0,0.1,0.1,0.4,0.1l0.4,0.1v0.2
			l-1.9,0.2v-1.1c-0.1,0.4-0.4,0.6-0.7,0.8c-0.4,0.2-0.7,0.4-1.2,0.4c-0.5,0-0.8-0.1-1.2-0.4c-0.4-0.2-0.7-0.6-0.8-1
			c-0.2-0.5-0.4-1-0.4-1.6C90.5,129.9,90.6,129.3,90.8,129z M92.3,132.2c0.4,0.5,0.7,0.7,1.3,0.7c0.4,0,0.6-0.1,0.8-0.2
			c0.2-0.1,0.4-0.4,0.6-0.6v-3.7c-0.1-0.2-0.2-0.4-0.5-0.5c-0.2-0.1-0.5-0.2-0.7-0.2c-0.6,0-1,0.2-1.3,0.7c-0.4,0.5-0.5,1.1-0.5,1.9
			C91.8,131.1,91.9,131.7,92.3,132.2z"/>
		<path class="st4" d="M97.9,129c0.2-0.5,0.6-0.8,1-1.1c0.4-0.2,0.8-0.4,1.4-0.4c0.5,0,1,0.1,1.3,0.4c0.4,0.2,0.6,0.5,0.8,0.8
			c0.2,0.4,0.2,0.7,0.2,1.2v0.1v0.1h-4.3v-0.2h3.2l-0.1,0.1v-0.1c0,0,0-0.1,0-0.2c0-0.6-0.1-1-0.4-1.3c-0.2-0.4-0.5-0.6-1-0.6
			c-0.5,0-0.8,0.2-1.1,0.6c-0.2,0.4-0.4,1-0.4,1.7c0,0.6,0.1,1.1,0.2,1.6c0.2,0.5,0.5,0.7,0.8,1.1c0.4,0.2,0.7,0.4,1.2,0.4
			c0.4,0,0.6,0,0.8-0.1c0.2-0.1,0.5-0.2,0.6-0.5v0.2c-0.2,0.2-0.5,0.5-0.8,0.7c-0.4,0.1-0.8,0.2-1.3,0.2c-0.6,0-1.1-0.1-1.4-0.4
			c-0.5-0.2-0.7-0.6-1.1-1.1c-0.2-0.5-0.4-1-0.4-1.6C97.5,129.9,97.6,129.3,97.9,129z"/>
		<path class="st4" d="M105.3,128.5c0.1-0.4,0.4-0.6,0.7-0.7c0.4-0.2,0.7-0.2,1.2-0.2c0.6,0,1.1,0.1,1.4,0.5
			c0.4,0.4,0.6,0.7,0.6,1.3v3.3c0,0.1,0,0.2,0,0.4c0,0.1,0.1,0.1,0.2,0.2c0.1,0,0.2,0.1,0.5,0.1v0.2h-2.6v-0.2
			c0.4,0,0.5-0.1,0.6-0.1c0.1-0.1,0.1-0.2,0.1-0.4v-3.1c0-0.5-0.1-0.8-0.4-1.1c-0.2-0.2-0.6-0.4-1-0.4c-0.4,0-0.6,0.1-0.8,0.2
			c-0.2,0.1-0.4,0.4-0.5,0.5v3.8c0,0.2,0,0.4,0.1,0.4c0.1,0.1,0.2,0.1,0.6,0.1v0.2h-2.6v-0.2c0.4,0,0.5-0.1,0.6-0.2
			c0.1-0.1,0.1-0.2,0.1-0.5v-4.1c0-0.1,0-0.2-0.1-0.4c0,0-0.1-0.1-0.4-0.1l-0.4-0.1v-0.2l1.9-0.2L105.3,128.5L105.3,128.5z"/>
		<path class="st4" d="M119.5,128c-0.1,0.2-0.4,0.5-0.7,0.7c-0.4,0.2-0.6,0.4-1,0.4v-0.2l1.3,2.6c0.2,0.5,0.5,0.8,0.6,1
			c0.1,0.1,0.2,0.4,0.4,0.5c0.1,0.1,0.2,0.1,0.4,0.2v0.2h-1.7l-2.1-4.1h-1.3v3.1c0,0.1,0,0.2,0.1,0.4c0,0.1,0.1,0.1,0.2,0.2
			c0.1,0.1,0.2,0.1,0.5,0.1v0.2h-3v-0.2c0.2,0,0.5-0.1,0.6-0.1s0.2-0.1,0.2-0.2s0-0.2,0-0.4v-6.7c0-0.2,0-0.4,0-0.5
			s-0.1-0.1-0.2-0.2s-0.4-0.1-0.6-0.1v-0.2h3.1c1.2,0,2,0.2,2.6,0.6c0.6,0.4,0.8,1,0.8,1.7C119.7,127.4,119.6,127.7,119.5,128z
			 M118.2,126c-0.1-0.4-0.4-0.6-0.7-0.7c-0.4-0.2-0.8-0.2-1.4-0.4h-0.6v4.2h0.8c0.7,0,1.2-0.2,1.7-0.5c0.4-0.4,0.6-0.8,0.6-1.4
			C118.4,126.7,118.3,126.3,118.2,126z"/>
		<path class="st4" d="M121.2,128.1c-0.1-0.1-0.1-0.2-0.2-0.2s-0.2-0.1-0.4-0.1v-0.2h2.7v0.2c-0.4,0-0.6,0.1-0.6,0.2
			c-0.1,0.1,0,0.4,0.1,0.8l1.2,3.3h-0.1l1.2-3.2c0.1-0.4,0.2-0.7,0.1-0.8c-0.1-0.1-0.2-0.2-0.6-0.2v-0.2h1.9v0.2
			c-0.1,0-0.4,0.1-0.4,0.1s-0.2,0.1-0.4,0.4c-0.1,0.2-0.2,0.4-0.4,0.7l-1.3,3.2l-0.5,1.3l-1,2.7h-1l0,0c0.1-0.2,0.4-0.5,0.6-0.7
			c0.2-0.4,0.4-0.6,0.6-1c0.2-0.4,0.4-0.7,0.5-1l-1.9-4.7C121.4,128.5,121.3,128.3,121.2,128.1z"/>
		<path class="st4" d="M126.9,129c0.2-0.5,0.6-0.8,1-1.1c0.4-0.2,0.8-0.4,1.4-0.4c0.5,0,1,0.1,1.3,0.4s0.6,0.5,0.8,0.8
			c0.2,0.4,0.2,0.7,0.2,1.2v0.1v0.1h-4.3v-0.2h3.2l-0.1,0.1v-0.1c0,0,0-0.1,0-0.2c0-0.6-0.1-1-0.4-1.3c-0.2-0.4-0.5-0.6-1-0.6
			s-0.8,0.2-1.1,0.6c-0.2,0.4-0.4,1-0.4,1.7c0,0.6,0.1,1.1,0.2,1.6c0.2,0.5,0.5,0.7,0.8,1.1c0.4,0.2,0.7,0.4,1.2,0.4
			c0.4,0,0.6,0,0.8-0.1s0.5-0.2,0.6-0.5v0.2c-0.2,0.2-0.5,0.5-0.8,0.7c-0.4,0.1-0.8,0.2-1.3,0.2c-0.6,0-1.1-0.1-1.4-0.4
			c-0.5-0.2-0.7-0.6-1.1-1.1c-0.2-0.5-0.4-1-0.4-1.6C126.5,129.9,126.7,129.3,126.9,129z"/>
		<path class="st4" d="M137.4,132.8c0,0.1,0.1,0.1,0.2,0.2c0.1,0,0.4,0.1,0.6,0.1v0.2h-3v-0.2c0.2,0,0.5-0.1,0.6-0.1
			s0.2-0.1,0.2-0.2s0-0.2,0-0.4v-6.7c0-0.1,0-0.4,0-0.4c0-0.1-0.1-0.1-0.2-0.2s-0.4-0.1-0.6-0.1v-0.2h3v0.2c-0.2,0-0.5,0.1-0.6,0.1
			s-0.2,0.1-0.2,0.2c0,0.1-0.1,0.2-0.1,0.4v6.7C137.3,132.6,137.4,132.7,137.4,132.8z"/>
		<path class="st4" d="M144.9,128.6c-0.4,0.4-0.7,0.7-1.3,0.8c-0.6,0.2-1.2,0.2-1.8,0.2H141v2.5c0,0.2,0,0.4,0.1,0.5
			c0,0.1,0.1,0.2,0.2,0.2c0.1,0,0.4,0.1,0.6,0.1v0.2h-3.1V133c0.2,0,0.5-0.1,0.6-0.1s0.2-0.1,0.2-0.2s0-0.2,0-0.4v-6.7
			c0-0.1,0-0.4,0-0.4c0-0.1-0.1-0.1-0.2-0.2c-0.1-0.1-0.4-0.1-0.6-0.1v-0.2h3c1.2,0,2,0.2,2.7,0.6c0.6,0.5,1,1.1,1,1.8
			S145.3,128.3,144.9,128.6z M143.5,125.6c-0.4-0.5-1.1-0.6-1.9-0.7H141v4.7h0.6c0.8,0,1.6-0.2,1.9-0.7c0.4-0.5,0.6-1,0.6-1.7
			C144.1,126.6,143.9,126.1,143.5,125.6z"/>
		<path class="st4" d="M152.1,132.7c0.1,0.1,0.2,0.2,0.4,0.4s0.2,0.1,0.5,0.1v0.2h-3.2v-0.2c0.2,0,0.5-0.1,0.6-0.1
			c0.1-0.1,0.2-0.2,0.2-0.4s0-0.4-0.1-0.7l-2.1-6h0.1l-1.9,5.7c-0.1,0.4-0.2,0.6-0.2,0.8s0,0.4,0.1,0.5c0.1,0.1,0.4,0.1,0.6,0.2v0.2
			h-2.3v-0.2c0.2,0,0.4-0.1,0.5-0.1c0.1-0.1,0.2-0.2,0.4-0.5s0.2-0.5,0.4-1l2.5-6.9h0.6l2.6,7.3C151.9,132.3,152,132.6,152.1,132.7z
			 M146.9,129.9h3.5l0.1,0.2h-3.7L146.9,129.9z"/>
	</g>
	<g>
		<path class="st4" d="M80.8,115.4c0,0-39.1-0.5-39.1-1c0-0.5,39.1-1,39.1-1V115.4z"/>
		<path class="st4" d="M99.3,113.4c0,0,39.1,0.5,39.1,1c0,0.5-39.1,1-39.1,1V113.4z"/>
		<path class="st5" d="M86.8,120.1h7l2.5-9.9h-2l0.5-1.8h-9.2l0.5,1.8h-2L86.8,120.1z"/>
	</g>
	<g>
		<g id="layer1_00000112600215143654406660000006882138173306053037_" transform="translate(766.43375,-142.67784)">
			<g id="g6205_00000013912804055411342750000005967689652496730808_">
				<path id="path3627_00000145036240850191671500000016456763069754306949_" class="st4" d="M-694.3,211.7l-0.2,0.1
					c-0.1,0.1-0.4,0.2-0.4,0.2c-0.1,0-0.2,0.2-0.4,0.4s-0.4,0.4-0.5,0.5c-0.1,0.1-0.4,0.4-0.4,0.4c0,0.1,0,0.2,0,1
					c0,0.5,0,0.8,0,0.8s0.1,0.1,0.2,0.2c0.1,0.1,0.2,0.1,0.2,0.2c0,0.1,0.1,0.2,0.1,0.2c0.1,0.2,0.4,0.8,0.4,0.8s0,0.1-0.1,0.1
					s-0.6,0-0.8,0l0,0c-0.1,0-0.1,0-0.2,0s-0.4-0.2-0.4-0.4s0-0.1,0-0.2c0.1-0.2,0.1-0.2,0-0.4c0,0-0.1-0.1-0.2-0.1
					c-0.2,0-0.2,0-0.2-0.4c0-0.1,0-0.4,0-0.5c0.1-0.4,0-1.6,0-1.9c0-0.1,0-0.2,0-0.2c0-0.1,0.1-0.2,0.4-0.4s0.5-0.2,0.6-0.7l0.1-0.4
					V211c0-0.1-0.1-0.4-0.1-0.5c-0.2-0.4-0.2-0.5-0.4-0.8c-0.1-0.4-0.1-1.1,0-1.7c0-0.1,0-0.1,0-0.1s-0.1,0-0.2,0
					c-0.2,0-0.2,0-0.5-0.1s-0.4-0.1-0.4-0.1c-0.1,0-0.2,0-0.1,0.1c0,0.1,0.2,0.4,0.4,0.5c0.1,0.1,0.2,0.4,0.2,0.7
					c0,0.4,0,0.4-0.1,0.6c-0.1,0.1-0.1,0.4-0.1,0.5c0,0.1,0,0.2,0,0.2s-0.1,0-0.1-0.1l-0.1-0.1l-0.1,0.1c-0.1,0.2-0.2,0.4-0.4,0.5
					c-0.1,0-0.1,0.1-0.4,0.1h-0.2v0.2c0,0.4-0.1,0.6-0.4,0.8c-0.2,0.1-0.6,0.4-0.8,0.4c-0.1,0-0.1,0-0.1,0.1s-0.1,0.2-0.1,0.4
					c-0.1,0.1-0.1,0.2-0.2,0.2s-0.1,0-0.2,0.1s-0.4,0.2-0.4,0.2s0-0.1,0-0.2c0-0.2,0-0.2-0.1-0.5s-0.2-0.2-0.5-0.2
					c-0.1,0-0.1,0-0.1,0h-0.1h-0.1c0,0,0,0,0.1,0c0.1,0,0.1,0,0.2-0.1c0.2-0.2,0.6-0.2,0.8,0l0.1,0.1c0,0,0-0.1,0-0.2
					c-0.1-0.4-0.1-0.5-0.1-0.7c0-0.2,0-0.2,0.1-0.5s0.1-0.2,0.1-0.5c0-0.2,0-0.2,0.1-0.5c0.1-0.4,0.4-0.6,0.6-0.7
					c0.1-0.1,0.2-0.2,0.2-0.2c0.1-0.1,0.4-0.4,0.6-0.5h0.1v-0.4c0-0.6,0.1-1,0.5-1.3c0.2-0.2,0.5-0.4,0.8-0.4c0.5,0,0.7,0.1,1,0.6
					c0.1,0.2,0.5,0.6,0.6,0.8c0,0.1,0,0.1,0.1,0c0,0,0-0.2,0.2-0.5c0.1-0.1,0.4-0.4,0.4-0.4s0.1-0.1,0.2-0.1
					c0.2-0.1,0.7-0.5,1.1-0.6c0.1,0,0.4-0.1,0.5-0.2c0.6-0.2,0.6-0.2,0.6-0.5s0.1-0.2,0.2-0.2s0.2-0.1,0.2-0.1
					c0-0.1,0.1-0.2,0.2-0.2s0.2-0.2,0.2-0.5s-0.1-0.7-0.2-0.7c0,0-0.1,0-0.1,0.2s0,0.6,0.1,0.7c0.1,0.1,0,0.1,0,0.1
					c-0.2-0.1-0.5-0.5-0.5-1.1c0-0.1,0-0.2,0-0.4s0-0.1,0,0s0,0.4,0,0.6c0,0.4,0,0.5,0,0.5l0.1,0.1c0.1,0,0.1,0,0,0
					c-0.1,0.1-0.2,0-0.4,0c0,0-0.1-0.1-0.2-0.2c-0.1-0.2-0.1-0.2-0.4-0.4c-0.4-0.1-0.4-0.1-0.5-0.2c-0.1-0.2-0.4-0.6-0.4-0.7
					s0-0.1-0.1-0.1c0,0,0,0.1,0,0.4s0,0.4,0,0.4s-0.1-0.1-0.1-0.4c0-0.1-0.1-0.4-0.1-0.4s-0.1,0-0.1,0.1s-0.1,0.1-0.1,0.1
					s0-0.1,0.1-0.2c0.1-0.1,0.1-0.4,0.1-0.5c0-0.1,0.1-0.5,0.4-1.1c0-0.1,0-0.1,0,0c0,0-0.1,0.1-0.1,0.2c-0.2,0.6-0.2,0.7-0.4,0.8
					c0,0.1-0.1,0.1-0.1,0c0,0-0.1-0.6-0.2-0.7c-0.1-0.2-0.1-0.5,0-0.7c0.1-0.1,0.1-0.2,0-0.2c0,0-0.1,0-0.1,0.1s-0.1,0.1-0.1,0.1
					s0,0-0.1-0.1c0-0.1,0-0.5,0.1-0.7c0.1-0.2,0.1-0.5,0.1-0.5c-0.1,0-0.2,0.4-0.2,0.6s0,0.1-0.1-0.1c-0.1-0.4-0.1-0.6,0-0.8
					c0-0.1,0.1-0.1,0-0.1c-0.1-0.1-0.1-0.5,0.1-0.6c0.1-0.1,0.1-0.2,0-0.2s-0.1,0-0.1,0c-0.1-0.1-0.1-0.1,0-0.1c0,0,0.1,0,0.1-0.1
					c0.1-0.1,0.1-0.1,0-0.1s-0.4,0-0.4-0.1c0,0,0,0,0.1,0s0.1,0,0.2-0.1c0.1-0.1,0.2-0.4,0.4-0.4c0,0,0,0,0-0.1l-0.1-0.1h0.1
					c0,0,0.1,0,0.2,0.1c0.1,0.1,0.2,0.1,0.2,0.1v-0.1c0-0.1-0.1-0.2-0.1-0.4v-0.2l0.1,0.1c0.2,0.2,0.6,0.2,0.7,0
					c0.1-0.2,0.1-0.2,0.4-0.4s0.6-0.1,0.7,0l0.1,0.1c0.1,0,0.1,0,0.1-0.1c0.1-0.1,0.5-0.5,0.6-0.5c0,0,0,0.1,0,0.2
					c0,0.1,0,0.4,0,0.5c0,0.4,0,0.4,0,0.4c0.1,0,0.1-0.1,0.1-0.4c0-0.1,0.1-0.2,0.1-0.5c0.1-0.4,0.2-0.4,0.4-0.2
					c0.1,0.1,0.1,0.4,0.2,0.6c0,0.1,0,0.1,0.1,0.1c0,0,0.1,0,0.2,0c0.4,0,0.5-0.1,0.6-0.4c0.1-0.2,0.1-0.2,0.1,0
					c0,0.1-0.1,0.5-0.2,0.6c-0.1,0.1-0.1,0.1,0,0.1s0.4-0.2,0.4-0.4v-0.1l0,0c0,0,0,0.1,0,0.2c0,0.1,0,0.2,0,0.4v0.1l0.1,0.1
					c0.1,0.1,0.1,0.1,0.2,0.1c0.2,0,0.1,0.1,0,0.1c-0.1,0-0.2,0-0.4,0c-0.1-0.1-0.1,0-0.2,0c0,0,0,0,0,0.1s0.4,0.1,0.7,0.4
					c0.5,0.2,0.7,0.4,0.8,0.4c0.2,0,0.4,0.1,0.4,0.4c0,0,0,0.1,0.1,0.2c0.1,0.1,0.1,0.1,0,0.2c0,0,0,0.1-0.1,0.2
					c0,0.1-0.1,0.2-0.2,0.2c0,0-0.1,0-0.2,0c-0.2-0.1-0.4,0-0.1,0.1c0.2,0.2-0.2,0.4-0.5,0.2h-0.1c0,0,0,0.1,0,0.2
					c0,0.2,0,0.2,0.2,0.2s0.7,0.2,1,0.4c0.1,0.1,1.1,0.7,1.3,1c0.4,0.1,0.4,0.2,0.6,0.4l0.1,0.2l0.1-0.1c0.1-0.1,0.2-0.2,0.4-0.4
					c0.1-0.1,0.4-0.4,0.5-0.5c0.2-0.2,0.4-0.4,0.4-0.4c0.1,0,0.2-0.1,0.2-0.1c0.1-0.1,0.4-0.1,0.8,0c0.4,0.1,1.1,0.1,1.6,0.1
					c0.2,0,0.4,0,0.5,0c0.1,0,0.5,0,0.6,0h0.1c0,0,0.2,0.1,0.4,0.1c0.5,0.1,0.5,0.1,0.5,0.4c0,0.1-0.2,0.4-0.4,0.4
					c-0.1,0.1-0.5,0.1-0.7,0c-0.4-0.1-0.5-0.1-0.6-0.1c-0.1,0-0.2,0-0.2,0c-0.1,0-0.2,0-0.5-0.1c-0.2,0-0.5,0-0.7,0
					c-0.4,0-0.5,0-0.6,0.1c-0.1,0-0.2,0.1-0.2,0.2c0,0.1-0.2,0.2-0.2,0.2c-0.1,0.1-0.1,0.2-0.2,0.2c0,0.2-0.4,0.8-0.6,1.2
					c-0.1,0.1-0.2,0.4-0.4,0.5l-0.2,0.2h0.1c0.2,0.1,1.1,0.5,1.4,0.5c0.6,0.2,0.7,0.4,0.7,0.7c0,0.2,0,0.4,0.1,0.6
					c0.1,0.4,0.4,1.2,0.4,1.4c0,0.2,0,0.2,0,0.6c0,0.1,0,0.5,0,0.6s0,0.4-0.1,0.5c-0.1,0.2-0.4,0.6-0.4,0.6c-0.1,0-0.2-0.1-0.4-0.2
					c0,0-0.1-0.1-0.1-0.2c0-0.1,0-0.2-0.1-0.2c0,0-0.1-0.1-0.1-0.2c0-0.1,0-0.1,0.1-0.2c0,0,0.1-0.1,0.2-0.1c0.1,0,0.1-0.1,0.2-0.1
					c0-0.1,0-0.1-0.1-0.1c-0.2-0.1-0.2-0.1-0.1-0.5c0-0.2,0-0.4,0-0.7c0-0.2-0.1-0.6-0.1-0.7l-0.1-0.2l-0.4-0.1
					c-0.5-0.1-0.5-0.1-1.3,0c-0.2,0-0.6,0.1-0.7,0.1s-0.1,0-0.5,0.4c-0.6,0.6-1.2,1-1.9,1.4c-0.1,0.1-0.4,0.2-0.4,0.2h0.1
					c0.4,0,0.7,0.2,0.8,0.5c0.1,0.2,0.1,1,0,1.6c-0.1,0.4,0,0.6,0,0.7c0.2,0.2,0.7,0.4,1.6,0.6c0.2,0,0.5,0.1,0.6,0.1
					c0,0,0.1,0.1,0.2,0.2c0.1,0.1,0.2,0.2,0.4,0.2c0.4,0.2,0.8,0.8,1,1.2c0.1,0.2,0.1,0.2,0,0.4c-0.1,0-0.1,0-0.2,0
					c-0.2,0-0.6-0.1-0.8-0.2c-0.4-0.1-0.4-0.2-0.4-0.5V213h-0.2c-0.1,0-0.2,0-0.5-0.1c-0.4-0.2-0.4-0.2-0.8-0.4
					c-0.6-0.1-1-0.2-1.6-0.2h-0.5l-0.1-0.1c-0.1-0.1-0.1-0.1-0.1-0.2c0,0,0-0.2,0-0.4c0-0.4,0-0.5-0.2-0.6c-0.1-0.1-0.1-0.1-0.2-0.1
					s-0.2,0.1-0.4,0.1c-0.2,0.1-0.5,0.1-1,0.2c-0.2,0-0.2,0.1-0.5,0.5c-0.1,0.1-0.4,0.4-0.5,0.5l-0.2,0.2L-694.3,211.7z M-693.1,203
					c-0.1-0.1-0.2-0.4-0.2-0.4c-0.6-0.6-1.1-1.4-1.3-1.9c-0.2-0.5-0.5-1.3-0.5-1.7c0-0.1,0-0.1-0.1-0.1c-0.1,0.1-0.1,0.5,0,0.7
					c0,0.1,0.1,0.2,0.1,0.4c0,0.2,0.2,0.6,0.5,1c0.1,0.1,0.1,0.2,0.2,0.4c0.1,0.2,0.2,0.4,0.2,0.2c0,0,0,0,0.1,0.1
					c0.1,0.2,0.6,0.8,1,1.2c0.1,0.1,0.2,0.4,0.2,0.4l0,0C-693,203.2-693.1,203.1-693.1,203L-693.1,203z M-691,200.1
					c0-0.1,0-0.4,0-0.4s-0.1,0.2-0.1,0.4C-691.1,200.2-691,200.1-691,200.1L-691,200.1z M-691.2,200c0.1-0.4,0.1-0.4,0-0.4
					c0,0-0.2,0-0.4,0s-0.2,0-0.4,0.1c0,0-0.1,0.1-0.2,0.1h-0.2l0.1,0.1c0,0,0.2,0.1,0.4,0.1c0.4,0.1,0.4,0.1,0.6,0.1
					C-691.3,200.1-691.3,200.1-691.2,200z"/>
				<path id="path3627_00000093153963651075484960000016348479680510851998_" class="st4" d="M-659,211.4l-0.2-0.2
					c-0.1-0.1-0.4-0.4-0.5-0.5c-0.2-0.4-0.4-0.5-0.5-0.5c-0.5,0-0.7-0.1-1-0.2c-0.1,0-0.4-0.1-0.4-0.1c-0.1,0-0.1,0-0.2,0.1
					c-0.2,0.2-0.2,0.2-0.2,0.6c0,0.2,0,0.4,0,0.4s0,0.1-0.1,0.2l-0.1,0.1h-0.5c-0.6,0-1.1,0-1.6,0.2c-0.4,0.1-0.5,0.1-0.8,0.4
					c-0.2,0.1-0.2,0.1-0.5,0.1h-0.2v0.2c0,0.2-0.1,0.4-0.4,0.5c-0.2,0.1-0.6,0.2-0.8,0.2c-0.1,0-0.2,0-0.2,0c-0.1-0.1-0.1-0.1,0-0.4
					c0.1-0.2,0.7-1,1-1.2c0.1,0,0.2-0.1,0.4-0.2c0.1-0.1,0.2-0.2,0.2-0.2s0.2-0.1,0.6-0.1c0.8-0.1,1.3-0.4,1.6-0.6
					c0.1-0.1,0.1-0.4,0-0.7c-0.1-0.5-0.1-1.3,0-1.6c0.1-0.2,0.5-0.5,0.8-0.5c0.1,0,0.1,0,0.1,0s-0.1-0.1-0.4-0.2
					c-0.7-0.5-1.2-0.8-1.9-1.4c-0.4-0.2-0.4-0.4-0.5-0.4s-0.4,0-0.7-0.1c-0.8-0.1-0.8-0.1-1.3,0l-0.4,0.1l-0.1,0.2
					c0,0.1-0.1,0.5-0.1,0.7c-0.1,0.4-0.1,0.5,0,0.7c0,0.5,0.1,0.5-0.1,0.5c-0.2,0.1-0.2,0.1-0.1,0.1c0,0,0.1,0.1,0.2,0.1
					c0.1,0,0.2,0.1,0.2,0.1c0.1,0.1,0.1,0.1,0.1,0.2c0,0.1,0,0.1-0.1,0.2c-0.1,0.1-0.1,0.1-0.1,0.2c0,0.1,0,0.2-0.1,0.2
					c-0.1,0.1-0.2,0.2-0.4,0.2c-0.1,0-0.4-0.4-0.4-0.6c0-0.1,0-0.2-0.1-0.5c0-0.1,0-0.5,0-0.6c0-0.2,0-0.4,0-0.6
					c0-0.2,0.2-1.1,0.4-1.4c0-0.1,0.1-0.4,0.1-0.6c0-0.5,0.1-0.6,0.7-0.7c0.2-0.1,1.2-0.5,1.4-0.5h0.1l-0.2-0.2
					c-0.1-0.1-0.2-0.4-0.4-0.5c-0.2-0.2-0.6-1-0.6-1.2c0-0.1-0.1-0.1-0.2-0.2c-0.1-0.1-0.2-0.2-0.2-0.2c-0.1-0.1-0.1-0.2-0.2-0.2
					c-0.1-0.1-0.1-0.1-0.6-0.1c-0.2,0-0.6,0-0.7,0c-0.1,0-0.4,0-0.5,0.1c-0.1,0-0.2,0-0.2,0c-0.1,0-0.2,0-0.6,0.1
					c-0.2,0.1-0.6,0.1-0.7,0c-0.1-0.1-0.4-0.4-0.4-0.4c0-0.1,0-0.1,0.5-0.4c0.1,0,0.4-0.1,0.4-0.1h0.1c0.1,0,0.5,0,0.6,0
					c0.1,0,0.2,0,0.5,0c0.4,0,1.1,0,1.6-0.1c0.4-0.1,0.6-0.1,0.8,0c0.1,0,0.2,0.1,0.2,0.1c0.1,0,0.2,0.1,0.4,0.4
					c0.1,0.1,0.4,0.4,0.5,0.5c0.1,0.1,0.4,0.2,0.4,0.4l0.1,0.1l0.1-0.2c0.1-0.1,0.2-0.2,0.6-0.4c0.4-0.1,1.2-0.8,1.3-1
					c0.2-0.1,0.7-0.4,1-0.4s0.2,0,0.2-0.2c0-0.1,0-0.2,0-0.2s0,0-0.1,0c-0.2,0.1-0.7,0-0.5-0.2c0.1-0.1,0-0.1-0.1-0.1s-0.1,0-0.2,0
					c-0.1,0-0.2-0.1-0.2-0.2c0-0.1,0-0.1-0.1-0.2c0-0.1,0-0.1,0-0.2c0-0.1,0.1-0.2,0.1-0.2c0-0.2,0.1-0.4,0.4-0.4
					c0.1,0,0.4-0.1,0.8-0.4c0.4-0.1,0.7-0.4,0.7-0.4s0,0,0-0.1c-0.1-0.1-0.1-0.1-0.2,0c-0.2,0.1-0.2,0.1-0.4,0
					c-0.2-0.1-0.2-0.1,0-0.1c0.1,0,0.1,0,0.2-0.1l0.1-0.1v-0.1c0-0.1,0-0.2,0-0.4s0-0.1,0-0.2l0,0c0,0,0,0,0,0.1s0.2,0.4,0.4,0.4
					s0-0.1,0-0.1c-0.1-0.1-0.2-0.5-0.2-0.6c0-0.2,0-0.2,0.1,0c0.1,0.2,0.2,0.4,0.6,0.4c0.1,0,0.2,0,0.2,0c0.1,0,0.1,0,0.1-0.1
					s0.1-0.5,0.2-0.6s0.1-0.1,0.4,0.2c0.1,0.1,0.1,0.4,0.1,0.5c0,0.2,0.1,0.4,0.1,0.4s0.1,0,0-0.4c0-0.2,0-0.4,0-0.5
					c0-0.1,0-0.2,0-0.2c0.1,0,0.5,0.2,0.6,0.5c0,0.1,0.1,0.1,0.1,0.1s0.1,0,0.1-0.1c0.1-0.1,0.5-0.1,0.7,0c0.1,0.1,0.2,0.1,0.4,0.4
					c0.1,0.2,0.5,0.1,0.7,0l0.1-0.1v0.2c0,0.1,0,0.2-0.1,0.4c0,0.1,0,0.1,0,0.1s0.1,0,0.2-0.1c0.1-0.1,0.2-0.1,0.2-0.1h0.1l-0.1,0.1
					c-0.1,0.1-0.1,0.1,0,0.1c0.1,0,0.2,0.2,0.4,0.4c0.1,0.1,0.1,0.1,0.2,0.1c0.1,0,0.1,0,0.1,0s-0.2,0.1-0.4,0.1c-0.1,0-0.1,0,0,0.1
					l0.1,0.1c0.1,0,0.1,0,0,0.1c-0.1,0-0.1,0.1-0.1,0c-0.1,0-0.1,0,0,0.2c0.1,0.2,0.2,0.5,0.1,0.6v0.1c0.1,0.1,0.1,0.5,0,0.8
					c-0.1,0.4-0.1,0.4-0.1,0.1c0-0.2-0.1-0.6-0.2-0.6c-0.1,0,0,0.2,0.1,0.5c0.1,0.2,0.2,0.6,0.1,0.7c0,0,0,0.1-0.1,0.1
					c0,0-0.1,0-0.1-0.1s-0.1-0.1-0.1-0.1s0,0.1,0,0.2c0.1,0.2,0.1,0.5,0,0.7c-0.1,0.1-0.2,0.7-0.2,0.7c0,0.1,0,0.1-0.1,0
					c-0.1-0.1-0.1-0.2-0.4-0.8c0-0.1-0.1-0.2-0.1-0.2c-0.1-0.1-0.1-0.1,0,0c0.2,0.6,0.4,0.8,0.4,1.1c0,0.1,0.1,0.4,0.1,0.5
					c0.1,0.1,0.1,0.2,0.1,0.2s-0.1,0-0.1-0.1s-0.1-0.1-0.1-0.1s-0.1,0.1-0.1,0.4s-0.1,0.4-0.1,0.4s0-0.1,0-0.4c0-0.4,0-0.4,0-0.4
					s0,0-0.1,0.1c0,0.1-0.2,0.6-0.4,0.7c-0.1,0.1-0.1,0.1-0.5,0.2c-0.2,0.1-0.2,0.1-0.4,0.4c-0.1,0.1-0.1,0.2-0.2,0.2
					c-0.1,0.1-0.2,0.1-0.4,0c-0.1,0-0.1,0,0,0c0,0,0.1,0,0.1-0.1s0-0.1,0-0.5c0-0.2,0-0.5,0-0.6s0-0.1,0,0c0,0,0,0.2,0,0.4
					c0,0.6-0.2,1-0.5,1.1c-0.1,0-0.1,0,0-0.1c0,0,0.1-0.5,0.1-0.7c0-0.1,0-0.2-0.1-0.2c-0.1,0-0.2,0.5-0.2,0.7
					c0,0.2,0.2,0.5,0.2,0.5c0.1,0,0.2,0.1,0.2,0.2c0,0.1,0.1,0.1,0.2,0.1c0.1,0,0.1,0.1,0.2,0.2c0,0.1,0,0.1,0.6,0.5
					c0.1,0.1,0.4,0.1,0.5,0.2c0.2,0.1,0.8,0.5,1.1,0.6c0.1,0.1,0.2,0.1,0.2,0.1s0.2,0.1,0.4,0.4c0.2,0.2,0.2,0.5,0.2,0.5s0,0,0.1,0
					c0.1-0.2,0.4-0.7,0.6-0.8c0.4-0.5,0.6-0.6,1-0.6c0.4,0,0.6,0.1,0.8,0.4c0.4,0.4,0.5,0.7,0.5,1.3v0.4h0.1
					c0.2,0.1,0.5,0.2,0.6,0.5c0,0.1,0.1,0.2,0.2,0.2c0.2,0.1,0.5,0.5,0.6,0.7c0.1,0.2,0.1,0.2,0.1,0.5s0,0.2,0.1,0.5
					c0.1,0.1,0.1,0.2,0.1,0.5s0,0.5-0.1,0.7c0,0.1,0,0.2,0,0.2s0.1,0,0.1-0.1c0.2-0.2,0.6-0.1,0.8,0c0.1,0.1,0.1,0.1,0.2,0.1
					c0.1,0,0.1,0,0.1,0h-0.1h-0.1h-0.1c-0.2,0-0.2,0-0.5,0.2c-0.1,0.1-0.2,0.2-0.1,0.5c0,0.2,0,0.2,0,0.2s-0.2-0.1-0.4-0.2
					c0,0-0.1-0.1-0.2-0.1c-0.1,0-0.1,0-0.2-0.2c-0.1-0.1-0.1-0.2-0.1-0.4s0-0.1-0.1-0.1c-0.1,0-0.6-0.2-0.8-0.4
					c-0.2-0.2-0.4-0.5-0.4-0.8v-0.2h-0.2c-0.2,0-0.2,0-0.4-0.1s-0.2-0.2-0.4-0.5l-0.1-0.1l-0.1,0.1l-0.1,0.1c0,0,0-0.1,0-0.2
					c0-0.1,0-0.2-0.1-0.5s-0.1-0.2-0.1-0.6c0-0.4,0-0.6,0.2-0.7c0.1-0.1,0.2-0.4,0.4-0.5c0-0.1,0-0.1-0.1-0.1c-0.1,0-0.2,0-0.4,0.1
					c-0.2,0.1-0.2,0.1-0.5,0.1c-0.1,0-0.2,0-0.2,0s0,0,0,0.1c0.1,0.6,0.1,1.2,0,1.7c-0.1,0.4-0.1,0.4-0.4,0.8
					c-0.1,0.1-0.1,0.2-0.1,0.5v0.2l0.1,0.4c0.2,0.4,0.4,0.6,0.6,0.7c0.1,0,0.2,0.2,0.4,0.4c0,0,0,0.1,0,0.2c-0.1,0.2-0.1,1.6,0,1.9
					c0,0.1,0,0.4,0,0.5c0,0.4,0,0.4-0.2,0.4c-0.1,0-0.2,0-0.2,0.1c-0.1,0.1-0.1,0.1,0,0.4c0.1,0.1,0.1,0.1,0,0.2
					c0,0.1-0.4,0.4-0.4,0.4s-0.1,0-0.2,0l0,0c-0.2,0-0.7,0.1-0.8,0l-0.1-0.1c0-0.1,0.2-0.6,0.4-0.8c0-0.1,0.1-0.2,0.1-0.2
					c0-0.1,0.1-0.1,0.2-0.2c0.1-0.1,0.2-0.1,0.2-0.2c0-0.1,0-0.4,0-0.8c0-0.7,0-0.8,0-1s-0.1-0.2-0.4-0.4c-0.1-0.1-0.4-0.4-0.5-0.5
					c-0.1-0.1-0.4-0.2-0.4-0.4c-0.1,0-0.2-0.1-0.4-0.2l-0.2-0.1L-659,211.4z M-659.9,203c-0.1,0.1-0.1,0.2-0.1,0.2l0,0
					c0,0,0.1-0.1,0.2-0.4c0.4-0.4,0.8-1,1-1.2c0-0.1,0.1-0.1,0.1-0.1s0.1-0.1,0.2-0.2c0-0.1,0.1-0.2,0.2-0.4c0.2-0.4,0.5-0.7,0.5-1
					c0-0.1,0-0.2,0.1-0.4c0.1-0.2,0-0.6,0-0.7c-0.1-0.1-0.1-0.1-0.1,0.1c0,0.4-0.1,1.2-0.5,1.7c-0.2,0.5-0.8,1.3-1.3,1.9
					C-659.7,202.8-659.8,202.9-659.9,203L-659.9,203z M-662.1,200.1c0,0.1,0.1,0.1,0.1,0s-0.1-0.4-0.1-0.4
					C-662.1,199.7-662.1,200-662.1,200.1L-662.1,200.1z M-661.7,200.1c0.1,0,0.1,0,0.6-0.1c0.1,0,0.4-0.1,0.4-0.1l0.1-0.1h-0.2
					c-0.1,0-0.2,0-0.2-0.1c-0.1,0-0.1-0.1-0.4-0.1c-0.1,0-0.2,0-0.4,0s-0.1,0,0,0.4C-661.8,200.1-661.7,200.1-661.7,200.1z"/>
				<path id="path6203_00000136388073968956113860000001835351487539089814_" class="st4" d="M-686.9,212.3l1,0.4l0.2,0.2h-0.2
					l-0.8-0.2L-686.9,212.3L-686.9,212.3z"/>
			</g>
		</g>
		<path class="st5" d="M93.2,59.1c0.1,0.1,0.2,0.2,0.4,0.4c0-0.2,0-0.5,0-0.6c0.1,0.1,0.2,0.5,0.2,0.8c0.1,0.1,0.2,0.2,0.5,0.2
			c0-0.4,0-1,0-1.2c0.1,0.2,0.4,1,0.5,1.4c0.1,0.1,0.2,0.1,0.5,0.2c0-0.6-0.1-1.3-0.1-1.7c0.2,0.5,0.5,1.2,0.6,1.8
			c0.1,0.1,0.4,0.1,0.5,0.1c0-0.7-0.1-1.6-0.2-1.9c0.2,0.5,0.6,1.4,0.6,2c0.2,0,0.5,0.1,0.6,0.1c-0.5-1.8-0.8-2.9-1.7-3.8
			c-0.4-0.1-0.6-0.2-1-0.4c0,0,0,0,0,0.1s-0.1,0.1-0.1,0.2l-0.2,0.4l-0.4-0.1c-0.1,0-0.2-0.1-0.5-0.2c0,0.2,0,0.5,0,0.7
			C93.5,58.3,93.3,58.7,93.2,59.1L93.2,59.1z M92.3,55.9c0-0.1,0-0.2,0.1-0.2c0.4,0.2,0.8,0.4,1,0.4c-0.2-0.2-0.6-0.5-1-0.7
			c0-0.1,0-0.2,0-0.4c0.4,0.2,0.7,0.4,1,0.4c-0.2-0.2-0.6-0.5-1-0.7c0-0.1,0-0.2,0-0.4c0.4,0.1,0.7,0.2,0.8,0.4
			c-0.2-0.2-0.6-0.5-0.8-0.7c0-0.1-0.1-0.2-0.1-0.5c0.2,0.1,0.5,0.2,0.7,0.2c-0.1,0-0.6-0.6-1-0.8c-0.2-0.4-0.5-0.7-0.8-1
			c1.9,0.6,3.6,3.5,2.6,5.3C93.5,56.7,92.9,56.4,92.3,55.9L92.3,55.9z M89.9,57.9c-1.2-1.3-1.7-2.5-1.7-3.7c0-1.1,0.6-2.1,1.3-2.9
			c-1.4,0.7-1.9,1.8-1.9,3c0,1.6,1.1,3.2,2.3,4.3c0.5-0.5,0.8-0.8,1.1-1.2c1.3-1.7,1.8-3.9,0-5.5c-0.4-0.2-0.8-0.6-1.2-0.6v0.5
			c0.2,0.2,0.5,0.4,0.7,0.5c-0.2,0-0.5,0-0.7,0v0.4c0.1,0.1,0.5,0.2,0.7,0.2c-0.2,0.1-0.6,0.1-0.7,0.2v0.4c0.1,0,0.5,0,0.7,0
			c-0.1,0.1-0.6,0.4-0.7,0.5v0.5c0.2-0.1,0.7-0.2,0.8-0.4c-0.1,0.2-0.5,0.6-0.8,0.8v0.4c0.4-0.2,0.8-0.6,1.1-0.8
			c-0.2,0.5-0.6,1.1-1.1,1.3v0.5c0.4-0.2,0.7-0.5,1.1-0.8c-0.2,0.6-0.5,1-1.1,1.3v0.5c0.2-0.1,0.8-0.6,1.2-1
			C90.8,56.8,90.2,57.5,89.9,57.9L89.9,57.9z M87.4,55.9c-0.6,0.5-1.2,0.8-1.7,1c-1-1.7,0.7-4.7,2.6-5.3c-0.2,0.2-0.4,0.4-0.6,0.6
			c-1,0.8-1.9,2.3-1.8,3.8c0.2-0.2,0.7-0.5,1.1-0.8C87.3,55.4,87.3,55.6,87.4,55.9L87.4,55.9z M94.7,56c0.2,0.1,0.6,0.4,1.1,0.4
			c-0.4-0.2-0.7-0.5-1.1-0.8c0-0.1,0-0.2,0-0.4c0.2,0.1,0.6,0.4,0.8,0.5c-0.2-0.2-0.7-0.7-1-0.8c0-0.1-0.1-0.2-0.1-0.4
			c0.2,0.2,0.6,0.5,0.8,0.6c-0.4-0.4-0.7-0.8-1.1-1.2c-0.1-0.2-0.2-0.5-0.4-0.6c-0.1-0.1-0.2-0.4-0.4-0.5c1.9,1.3,2.7,3.5,3.6,4.5
			c-0.6-0.1-1.9-0.5-2.5-0.8C94.7,56.4,94.7,56.1,94.7,56L94.7,56z M85,55.8c-0.4,0.1-0.6,0.4-1,0.5c0.2-0.4,0.5-0.7,0.7-1.1
			c0.2-0.4,0.5-0.7,0.7-1c0.1-0.4,0.4-0.7,0.6-1.1c0.1-0.1,0.2-0.4,0.4-0.5c-1.9,1.3-2.7,3.5-3.6,4.5c1-0.2,1.7-0.5,2.4-0.8
			C85.1,56.2,85,56,85,55.8L85,55.8z M83.9,64.6c0.4,1.1,0.6,1.8,0.8,2.9l0.7-0.7c-0.1-0.1-0.1-0.2-0.2-0.5L85,66.5
			c-0.2-0.8-0.4-1.6-0.6-2.3L83.9,64.6L83.9,64.6z M83.5,61.2c0.2-0.1,0.5-0.1,0.6-0.2c0,0.4-0.2,1.6-0.2,1.7c0,0.2-0.1,0.5-0.1,0.7
			l1-0.6c0.1,0.1,0.1,0.4,0.2,0.5l-2,1.3C83.2,64,83.4,62.3,83.5,61.2L83.5,61.2z M87.6,64.9l-1.1,2.9c-0.8-1.3-1.6-2.5-1.6-3.9
			l0.2-0.1c0.1,0.5,0.5,1.9,1.2,2.7l0.7-2C87.4,64.6,87.5,64.8,87.6,64.9L87.6,64.9z M89.9,69.5c1.1-0.8,1.8-1.6,2.5-2.4l-0.6-1.7
			c-0.5,0.6-1.1,1.1-1.7,1.6l-0.2,0.2v0.4c0.4-0.1,0.8-0.5,1.1-0.7c-0.2,0.5-0.6,0.8-1.1,1.1v0.4c0.5-0.2,1.3-0.8,1.7-1.1
			c-0.4,0.6-1,1.2-1.7,1.6c-0.6-0.5-1.4-1.4-1.9-1.8l0.4-1.1c-0.1-0.1-0.4-0.4-0.5-0.5l-0.6,1.7C88.1,67.9,88.8,68.7,89.9,69.5
			L89.9,69.5z M89.9,66.6c1-0.8,2-1.9,2.6-3L91.4,62c-0.4,0.4-0.8,0.8-1.3,1.2l-0.2,0.2v0.5c0.4-0.2,0.7-0.5,1-0.6
			c-0.2,0.4-0.6,0.7-1,1v0.4c0.6-0.4,1.2-0.8,1.4-1.1c-0.2,0.5-0.8,1.1-1.4,1.6v0.4c0.6-0.2,1.6-1.1,1.9-1.4
			c-0.4,0.7-1.2,1.6-1.9,1.9c-0.8-0.7-1.6-1.4-1.9-2.3l0.8-1.3c-0.1-0.1-0.2-0.2-0.5-0.4l-1.1,1.7C87.8,64.8,88.8,65.8,89.9,66.6
			L89.9,66.6z M88,61.6l-1.8,2.7c-1.1-1.4-1.3-2.1-1.3-3.7c0.2-0.1,0.4-0.2,0.6-0.4c0,0.4,0,1.1,0,1.3c0.1,0.6,0.4,1.1,0.7,1.7
			l1.3-2.3C87.7,61.2,87.8,61.5,88,61.6L88,61.6z M86.5,59.1c-0.1-0.2-0.1-0.6-0.2-0.8c-0.1,0.2-0.4,0.5-0.5,0.6
			c-0.7,0.6-1.4,1-2.4,1.2c0.2-0.8,0.6-1.7,1.2-2.5c0.1-0.1,0.4-0.4,0.6-0.7c0,0,0,0,0-0.1c0,0,0,0,0-0.1c-0.4,0.1-0.6,0.2-1,0.4
			c-0.7,1-1.2,2-1.7,3.8C84.1,60.7,85.3,60.2,86.5,59.1L86.5,59.1z M86.8,56.8c-0.1,0.4-0.1,0.6-0.1,1c0,1.9,1.3,3.6,3.2,5
			c1.8-1.6,3.2-3.1,3.2-5c0-0.4,0-0.6-0.1-1c-0.2-0.1-0.5-0.4-0.7-0.5c-0.2,0.5-0.5,1-0.8,1.4s-0.7,0.8-1.2,1.3L90,59.3v0.5
			c0.5-0.2,1-0.6,1.1-0.8c-0.2,0.4-0.7,0.8-1.1,1.2v0.5c0.6-0.4,1.3-1,1.6-1.2c-0.4,0.5-1,1.2-1.6,1.7v0.5c0.6-0.2,1.6-1.2,1.9-1.4
			c-0.4,0.7-1.3,1.7-1.9,2c-1.6-1.3-2.6-2.7-2.6-4.5c0-0.4,0.1-0.7,0.2-1.2l0,0C87.3,56.5,87,56.6,86.8,56.8L86.8,56.8z M95.9,64.6
			c-0.4,1.1-0.6,1.8-0.8,2.9l-0.4-0.2c0.1-0.4,0.2-0.8,0.2-1.1c-0.1,0.2-0.2,0.5-0.5,0.8l-0.2-0.2c0.5-0.8,0.7-1.7,0.8-2.6
			L95.9,64.6L95.9,64.6z M96.2,61.2c0.1,1.1,0.4,2.7,0.5,3.5l-0.5-0.4c0-0.5,0-0.8,0-1.2c0,0.2-0.1,0.6-0.2,1.1L95.6,64
			c0.1-0.4,0.1-0.8,0.1-1.1c0,0.2-0.2,0.6-0.4,1l-0.6-0.4c0.4-0.7,0.6-1.4,0.6-2.4C95.6,61,95.9,61.1,96.2,61.2L96.2,61.2z M92,64.9
			c0.2-0.4,0.5-0.6,0.6-1l0.7,1.1l0.4-0.5c0.2-0.4,0.5-0.6,0.6-1l0.2,0.1c0,1.4-0.7,2.6-1.6,3.9l-0.1-0.4c0.4-0.5,0.6-1.1,0.7-1.7
			c-0.2,0.4-0.5,0.8-0.8,1.2l-0.1-0.4c0.2-0.4,0.4-0.7,0.4-1.2c-0.1,0.2-0.4,0.5-0.5,0.8V66c0.1-0.2,0.1-0.6,0.2-0.8
			c-0.1,0.1-0.2,0.4-0.4,0.5L92,64.9L92,64.9z M91.7,61.6c0.6-0.6,1.1-1.3,1.4-2.1c0.6,0.5,1.2,0.8,1.8,1.2c0,1.6-0.4,2.3-1.3,3.7
			l-0.4-0.5c0.4-0.5,0.7-1,0.8-1.4c-0.2,0.2-0.6,0.7-1.1,1.1l-0.2-0.4c0.4-0.4,0.6-0.8,0.7-1.2c-0.2,0.2-0.5,0.6-0.8,1l-0.2-0.4
			c0.2-0.4,0.5-0.8,0.6-1.1c-0.1,0.2-0.5,0.5-0.8,0.8L91.7,61.6z"/>
	</g>
</g>
</svg>
