<?xml version="1.0" encoding="utf-8"?>
<!-- Generator: Adobe Illustrator 26.0.2, SVG Export Plug-In . SVG Version: 6.00 Build 0)  -->
<svg version="1.1" xmlns="http://www.w3.org/2000/svg" xmlns:xlink="http://www.w3.org/1999/xlink" x="0px" y="0px"
	 viewBox="0 0 180 180" style="enable-background:new 0 0 180 180;" xml:space="preserve">
<style type="text/css">
	.st0{display:none;}
	.st1{display:inline;fill:#F18A00;}
	.st2{display:inline;fill:#490E67;}
	.st3{display:inline;fill:#D9B767;}
	.st4{display:inline;fill:#5B6670;}
	.st5{display:inline;fill:#7A5FA8;}
	.st6{display:inline;fill:#A12B2A;}
	.st7{display:inline;fill:#092628;}
	.st8{display:inline;fill:#003B71;}
	.st9{fill-rule:evenodd;clip-rule:evenodd;fill:#092628;}
	.st10{fill:#7A5FA8;}
	.st11{opacity:0.3;}
	.st12{fill:none;stroke:#D9B767;stroke-width:1.1175;stroke-linecap:round;stroke-miterlimit:10;}
	.st13{fill:#FFFFFF;}
	.st14{fill-rule:evenodd;clip-rule:evenodd;fill:#D9B767;}
	.st15{fill:#000F9F;}
	.st16{fill-rule:evenodd;clip-rule:evenodd;fill:#191F41;}
	.st17{fill:#003B71;}
	.st18{fill-rule:evenodd;clip-rule:evenodd;fill:#D7DEDB;}
	.st19{fill:#231F20;}
	.st20{fill:#D7DEDB;}
	.st21{opacity:0.35;}
	.st22{fill:none;stroke:#000000;stroke-width:0.6113;stroke-linecap:round;stroke-linejoin:round;stroke-miterlimit:10;}
	.st23{fill:none;stroke:#092628;stroke-width:0.6113;stroke-linecap:round;stroke-linejoin:round;stroke-miterlimit:10;}
	.st24{fill:#D9B767;}
	.st25{clip-path:url(#SVGID_00000034769283048227270690000000543032927753886085_);fill:#A2A9AD;}
	.st26{display:none;clip-path:url(#SVGID_00000034769283048227270690000000543032927753886085_);}
	.st27{display:inline;fill:#A7AEB4;}
	.st28{clip-path:url(#SVGID_00000034769283048227270690000000543032927753886085_);}
	.st29{fill:#A2A9AD;}
	.st30{clip-path:url(#SVGID_00000034769283048227270690000000543032927753886085_);fill:#7B868C;}
	.st31{fill:#5B6670;}
	.st32{clip-path:url(#SVGID_00000034769283048227270690000000543032927753886085_);fill:#323E48;}
	.st33{clip-path:url(#SVGID_00000034769283048227270690000000543032927753886085_);fill:#5B6670;}
	.st34{clip-path:url(#SVGID_00000034769283048227270690000000543032927753886085_);fill:#FFFFFF;}
	.st35{clip-path:url(#SVGID_00000034769283048227270690000000543032927753886085_);fill:#1D252C;}
	.st36{clip-path:url(#SVGID_00000034769283048227270690000000543032927753886085_);fill:#E5E5E4;}
	.st37{fill:#201747;}
	.st38{fill:#252832;}
	.st39{fill:#242731;}
	.st40{fill:#84C346;stroke:#84C346;stroke-width:0.7255;stroke-miterlimit:10;}
	.st41{fill:#002B49;}
	.st42{fill:none;stroke:#FFFFFF;stroke-width:0.678;stroke-miterlimit:10;}
	.st43{fill:#092628;}
	.st44{display:inline;}
	.st45{display:inline;clip-path:url(#SVGID_00000077309030760110151740000012192082431120651184_);}
	.st46{fill:url(#SVGID_00000117642733658268610700000015159804548437207441_);}
	.st47{fill:#323E48;}
</style>
<g id="Backgrounds" class="st0">
</g>
<g id="Icons">
	<g>
		<path class="st9" d="M173.7,96.9c0,0.7-0.6,1.5-1.3,1.7l-162.9,40c-0.7,0.2-1.3-0.3-1.3-1v-32.7c0-0.7,0.6-1.5,1.3-1.7l162.9-40
			c0.7-0.2,1.3,0.3,1.3,1V96.9z"/>
	</g>
	<g>
		<g>
			<defs>
				<path id="SVGID_1_" d="M5.2-196.7v77.8c-0.2,2.5-0.4,5.1-0.4,7.7c0,46.9,38,84.9,84.9,84.9s84.9-38,84.9-84.9v-85.5H5.2z"/>
			</defs>
			<clipPath id="SVGID_00000069386654115021591390000002940011631002070170_">
				<use xlink:href="#SVGID_1_"  style="overflow:visible;"/>
			</clipPath>
			<polygon style="clip-path:url(#SVGID_00000069386654115021591390000002940011631002070170_);fill:#FFFFFF;" points="184.9,6.5 
				18.5,6.5 18.5,-57.2 90.5,-58.5 184.9,-57.2 			"/>
		</g>
	</g>
	<path class="st9" d="M115.7,80.4c1,0.9,2,1.8,3.1,2.6c0-1.8,0-3.6-0.2-5c1.1,2.1,1.9,4.4,2.5,6.7c1.1,0.8,2.3,1.6,3.5,2.4
		c0-2.8,0-8.1-0.2-9.5c1.7,3.6,3,7.5,3.6,11.5c1.2,0.6,2.1,1.1,3.5,1.7c-0.1-4.6-0.6-9.3-1.4-13.8c2.5,4.8,4.1,9.9,4.9,15.2
		c1.3,0.5,2.6,1,4,1.4c-0.2-5.4-0.9-10.8-2-16.2c2.8,5.4,4.6,11.2,5.3,17.2c1.7,0.5,3.6,0.9,5.4,1.3c-4-14.7-7.4-23.4-13.6-31.6
		c-2.7-0.9-5.4-2-8.1-3.2l-0.3,0.7c-0.2,0.5-0.5,1.1-0.8,1.5l-1.5,2.7l-2.9-1.2c-1.2-0.5-2.5-1.1-3.6-1.7c0.3,1.9,0.4,3.7,0.4,5.6
		c0,4-0.6,7.9-1.8,11.6L115.7,80.4z M108.3,53.2c0.2-0.7,0.5-1.5,0.7-2.2c2.5,1.4,5.3,2.5,8.1,3.3c-2.7-1.9-5.2-4-7.5-6.3
		c0-0.9,0.3-1.9,0.4-2.8c2.4,1.3,5,2.4,7.7,3c-2.6-1.9-5.1-4-7.4-6.2c0.1-1.1,0.1-2.3,0-3.4c2.2,1.1,4.5,2,6.9,2.6
		c-2.6-1.9-5.1-4-7.4-6.2c-0.2-1.2-0.6-2.4-1-3.5c1.7,0.9,3.5,1.5,5.4,1.9c-0.6-0.5-5.1-4.6-7.6-6.7c-1.8-3-4.1-5.8-6.8-8.1
		c16.2,4.8,29.9,29.1,22.1,43.1C117.1,59.5,112.5,56.7,108.3,53.2L108.3,53.2z M87.8,70.5C77.9,60,73.5,50.3,73.5,40.1
		c0.6-9,4.6-17.5,11.2-23.6c-11.4,6.4-16.2,15.2-16.2,24.3c0,13,8.6,26.8,19.2,35.7c3.6-2.8,6.8-6,9.4-9.7
		c10.8-14.1,15.4-32.9,0.4-45.8c-2.7-2.5-6-4.1-9.6-4.8v3.6c1.4,1.8,3.3,3.2,5.4,4c-1.8,0.4-3.7,0.3-5.4-0.3v3.4
		c1.9,1,4,1.7,6.1,2.2c-2,0.7-4,1.2-6.1,1.5v3.1c2.1,0.2,4.2,0.1,6.3-0.4c-1.8,1.7-3.9,2.9-6.3,3.6v4c2.6-0.8,5-1.9,7.4-3.3
		c-2,2.8-4.5,5.1-7.4,6.9v4.1c3.3-2,6.3-4.4,9-7.1c-2,4.5-5.1,8.4-9,11.4v4c3.3-1.9,6.3-4.3,9-7c-1.6,4.7-4.8,8.7-9,11.3v4
		c3.6-2.3,6.8-5,9.7-8.1c-2.5,4.8-5.8,9.2-9.7,12.9L87.8,70.5z M67.2,53.2c-4.2,3.4-8.8,6.2-13.7,8.4c-7.8-14,6-38.3,22.1-43.1
		C74,20,72.4,21.7,71,23.5c-7.8,7.1-16.2,19.3-14.5,31.7c3.2-2.2,6.3-4.7,9.3-7.3C66.2,49.6,66.6,51.5,67.2,53.2z M127.5,54.7
		c2.7,1.6,5.6,2.7,8.7,3.4c-3-1.9-5.9-4.2-8.5-6.6c0.1-0.9,0.1-1.8,0-2.7c2.1,1.6,4.4,2.8,6.9,3.6c-2-1.6-5.8-5.5-7.6-7.4
		c-0.2-1.2-0.6-2.3-1-3.4c2,2,4.3,3.6,6.8,4.8c-2.7-3-6-6.5-9.1-10.4c-0.9-1.9-2-3.7-3.2-5.4c-0.9-1.3-1.8-2.5-2.8-3.8
		c15.5,10.8,22.6,28.7,30,37.7c-7-1.5-13.8-3.9-20.2-7c0.2-0.9,0.4-1.9,0.4-2.9H127.5z M47.8,52.6c-2.6,1.4-5.3,2.6-8.1,3.6
		c1.8-2.9,3.6-5.8,5.5-8.6c1.9-2.8,4-5.9,5.6-8.4c1.2-3,2.8-5.9,4.6-8.5c0.9-1.3,1.8-2.5,2.8-3.8C42.7,37.7,35.6,55.6,28.3,64.6
		c7-1.6,13.7-3.9,20.2-6.9C48.2,56,48,54.3,48,52.6H47.8z M38.3,125.6c3,7.9,5.3,16,7,24.3l5.9-5.9c-0.7-1.3-1.3-2.5-1.9-3.7
		l-2.2,2.3c-1.4-6.5-3.1-12.9-5.1-19.2L38.3,125.6L38.3,125.6z M35.2,97.7c1.7-0.5,3.5-1.1,5.1-1.7c-0.4,3.3-1.6,12.7-1.8,14.1
		c-0.2,2-0.5,4-0.8,6l8.1-5.3c0.6,1.5,1.3,3,2.1,4.4l-16.7,10.8c0.9-5.3,3-19.6,4-28.3L35.2,97.7z M69.2,128.9l-8.5,23.3
		c-7.4-10.8-12.5-20.7-12.9-32.7l2.1-1.3c2.1,8.2,5.3,16,9.7,23.2l6.4-17.3c1.1,1.6,2.2,3.2,3.4,4.7L69.2,128.9z M87.8,165.8
		c7.7-5.9,14.8-12.7,21-20.2l-5-13.6c-4.2,4.8-8.8,9.2-13.8,13.3l-2.2,1.9v3.2c3.2-1.6,6.2-3.5,9-5.7c-2.1,3.7-5.2,6.7-9,8.7v2.6
		c5-2.4,9.5-5.5,13.6-9.3c-3.3,5.5-8,10-13.6,13.1c-5.5-4.7-10.7-9.8-15.5-15.2l3.2-8.5c-1.3-1.3-2.5-2.6-3.8-4l-5,13.5
		C73,153.1,80,159.8,87.8,165.8L87.8,165.8z M87.8,142.6c8.8-6.8,16.2-15.3,21.8-24.9l-9.1-14c-3.3,3.4-6.8,6.5-10.5,9.5l-2.2,1.8v4
		c2.8-1.7,6.1-3.8,7.6-5c-2.1,3.1-4.6,5.8-7.6,8.1v2.8c4.1-2.6,8.1-5.5,11.8-8.7c-3.2,4.9-7.2,9.2-11.8,12.7v3
		c5.7-3.1,11-7,15.6-11.6c-3.9,6.5-9.2,12.1-15.6,16.2c-6.3-5.3-11.7-11.6-16.2-18.6l7-10.6c-1.2-1.1-2.4-2.3-3.6-3.5L66,117.7
		C71.6,127.4,79,135.8,87.8,142.6z M72.8,101.2l-15.1,22.7c-8.6-11.9-11.3-17.9-11.4-30.4c1.7-0.8,3.4-1.7,5.1-2.7
		c-0.3,3.6-0.1,7.2,0.4,10.8c0.9,4.9,2.8,9.6,5.7,13.7l11.2-18.4c1.2,1.5,2.5,3,3.8,4.4H72.8z M60,80.4c-0.7-2.3-1.3-4.6-1.5-7
		c-0.9,2.1-2.3,4-4,5.4c-5.8,4.6-12.3,8.1-19.4,10.3c2-7.4,5.2-14.4,9.5-20.7c0.8-1.1,2.8-3.3,5.4-6l-0.2-0.6
		c-0.1-0.2-0.2-0.5-0.3-0.7c-2.6,1.2-5.2,2.3-7.9,3.2c-6.1,8.1-9.7,16.9-13.6,31.6c11.9-2.1,22.9-7.5,31.9-15.5H60z M62.8,60.8
		c-0.7,2.6-1.1,5.4-1.1,8.1c0,16.2,11.1,29.5,26.3,41.8c15.1-12.4,26.3-25.9,26.3-41.8c0-2.7-0.4-5.5-1.1-8.1c-1.6-1-4-2.8-6-4
		c-1.9,4.3-4.3,8.4-7.2,12.1c-2.8,3.9-6.1,7.4-9.8,10.4L88,81.2V85c3.1-2,6.2-4.3,9.1-6.6c-2.6,3.8-5.8,7.3-9.4,10.2V93
		c4.7-2.9,9.2-6.2,13.4-9.7c-3.6,5.2-8,9.8-13.1,13.5v3.8c5.7-3.4,11-7.5,15.8-12.1c-3.9,6.6-9.3,12.2-15.8,16.5
		c-12.8-11.3-21.8-22.6-21.8-38c0.1-3.2,0.8-6.4,1.9-9.4v-0.2c-1.7,1.3-3.6,2.6-5.4,3.8L62.8,60.8z M137.4,125.5
		c-3,7.9-5.3,16-7,24.3l-2.4-2.4c1-2.7,1.6-5.6,1.8-8.4c-1.1,2.3-2.4,4.4-3.7,6.5l-1.6-1.6c3.9-6.8,6.2-14.3,7-22.1l5.9,4
		L137.4,125.5z M140.6,97.6c0.8,8.7,3,23.1,4,28.3l-4.4-2.9c0.3-3.4,0.2-6.8-0.2-10.1c-0.4,1.9-1.1,5.2-2,8.7l-3.3-2.1
		c0.6-3,0.8-6.1,0.7-9.2c-0.5,1.8-1.7,4.6-2.8,7.8l-4.6-3c3.4-6.2,5.1-13.2,5-20.2c2.5,1,5.1,1.9,7.8,2.6L140.6,97.6z M106.5,128.8
		c2-2.5,3.8-5.2,5.4-8.1l6,9.1l3-4c2-2.8,3.8-5.4,5.2-7.8l2.1,1.3c-0.4,12.1-5.5,22-12.9,32.7l-1.1-2.8c2.7-4,4.5-8.5,5.4-13.2
		c-2,3.6-4.3,7.1-6.8,10.4l-1.2-3.2c1.5-3,2.6-6.3,3.2-9.7c-1.1,1.9-2.6,4-4.3,6.8l-1.3-3.4c0.8-2.4,1.4-4.8,1.8-7.2
		c-0.9,1.5-1.8,3-2.9,4.4l-2-5.3L106.5,128.8z M103.1,101.1c4.8-5.1,8.7-10.9,11.5-17.3c4.5,3.9,9.4,7.1,14.8,9.6
		c0,12.6-2.8,18.6-11.4,30.4l-2.5-4c2.9-3.5,5.3-7.4,7.2-11.6c-2.7,3.2-5.7,6.1-8.9,8.9l-2-3c2.3-3.1,4.1-6.4,5.6-9.9
		c-2.3,2.7-4.8,5.2-7.4,7.6l-2.2-3.4c2.1-2.9,3.8-6,5.2-9.3c-1.4,1.5-4,4-6.8,6.8L103.1,101.1z"/>
	<g>
		<path class="st14" d="M172.4,95.5c0,0.7-0.6,1.5-1.3,1.7l-162.9,40c-0.7,0.2-1.3-0.3-1.3-1v-32.7c0-0.7,0.6-1.5,1.3-1.7l162.9-40
			c0.7-0.2,1.3,0.3,1.3,1V95.5z"/>
		<path class="st42" d="M172.4,95.5c0,0.7-0.6,1.5-1.3,1.7l-162.9,40c-0.7,0.2-1.3-0.3-1.3-1v-32.7c0-0.7,0.6-1.5,1.3-1.7l162.9-40
			c0.7-0.2,1.3,0.3,1.3,1V95.5z"/>
	</g>
	<g>
		<g>
			<path class="st43" d="M21.9,125.8l-1.6-19.2l5-1.2c2.2-0.5,4-0.3,5.5,0.9c1.4,1.1,2.3,2.9,2.5,5.4l0.3,3.1
				c0.2,2.5-0.3,4.7-1.5,6.4c-1.2,1.8-3,2.9-5.3,3.4L21.9,125.8z M24.4,108.9l1.1,12.8l1.1-0.3c1.3-0.3,2.2-0.9,2.6-1.7
				c0.5-0.8,0.6-2.1,0.5-3.7l-0.3-3.3c-0.2-1.8-0.5-3-1.1-3.6c-0.6-0.6-1.4-0.8-2.6-0.5L24.4,108.9z"/>
			<path class="st43" d="M42.9,113.7l-1.9,0.5l0.6,7.1l-3.8,0.9l-1.6-19.3l6.1-1.5c1.9-0.5,3.5-0.3,4.6,0.4c1.1,0.8,1.8,2.1,1.9,4
				c0.2,2.6-0.5,4.6-2.3,6.1l4,7.2l0,0.2l-4.1,1L42.9,113.7z M40.7,110.9l2.2-0.5c0.8-0.2,1.3-0.6,1.7-1.2c0.3-0.6,0.5-1.4,0.4-2.2
				c-0.2-1.9-1-2.7-2.5-2.4l-2.2,0.5L40.7,110.9z"/>
			<path class="st43" d="M61.9,112.4l-5.2,1.2l-0.7,4.2l-4.1,0.9l4.3-20.9l3.5-0.9l7.6,18.2l-4.1,1L61.9,112.4z M57.3,110.1l3.6-0.8
				l-2.4-6.5L57.3,110.1z"/>
			<path class="st43" d="M79,104.3l-6,1.4l0.7,8l-3.8,0.9L68.2,95l10.5-2.6l0.3,3.3l-6.7,1.6l0.4,5l6-1.4L79,104.3z"/>
			<path class="st43" d="M94.2,92.1l-4.7,1.1l1.4,16.5l-3.9,0.9l-1.4-16.5L81,95.3l-0.3-3.3l13.2-3.2L94.2,92.1z"/>
			<path class="st43" d="M117.9,94.9c0.2,2.7-0.2,4.9-1.3,6.7c-1.1,1.8-2.7,2.9-4.8,3.4c-2.1,0.5-3.9,0.2-5.2-1
				c-1.3-1.2-2.1-3.1-2.4-5.7l-0.3-3.4c-0.2-2.7,0.2-5,1.3-6.9c1.1-1.8,2.7-3,4.8-3.5c2.1-0.5,3.8-0.2,5.2,1.1
				c1.3,1.2,2.1,3.2,2.4,6L117.9,94.9z M113.8,92.5c-0.2-1.8-0.5-3.1-1.1-3.9c-0.6-0.8-1.4-1-2.4-0.8c-1,0.2-1.7,0.9-2.2,1.8
				c-0.4,1-0.6,2.3-0.4,4.1l0.3,3.6c0.1,1.8,0.5,3,1.1,3.7c0.6,0.7,1.4,0.9,2.4,0.7c1-0.2,1.7-0.8,2.1-1.7c0.4-0.9,0.6-2.2,0.4-4
				L113.8,92.5z"/>
			<path class="st43" d="M135.3,99.3l-3.8,0.9l-6.7-11.9l1.1,13.2l-3.8,0.9l-1.7-20.1l3.8-0.9l6.7,11.9l-1.1-13.3l3.8-0.9
				L135.3,99.3z"/>
			<path class="st43" d="M142.7,94.1l6.7-1.6l0.3,3.4l-10.6,2.5l-1.7-20.3l3.8-0.9L142.7,94.1z"/>
			<path class="st43" d="M157.4,82.6l2.1-9.9l4.2-1l-4,14.3l0.6,7.4l-3.9,0.9l-0.6-7.4l-6.2-11.8l4.2-1L157.4,82.6z"/>
		</g>
	</g>
</g>
<g id="Layer_3">
</g>
</svg>
