<svg xmlns="http://www.w3.org/2000/svg" viewBox="0 0 81.39 82.64"><defs><style>.cls-1{opacity:0.3;}.cls-2{fill:none;stroke:#d9b767;stroke-linecap:round;stroke-miterlimit:10;stroke-width:0.62px;}.cls-3{fill:#fff;}.cls-4{fill:#d9b767;fill-rule:evenodd;}.cls-5{fill:#092628;}</style></defs><g id="Layer_2" data-name="Layer 2"><g id="Layer_1-2" data-name="Layer 1"><g class="cls-1"><line class="cls-2" x1="40.7" y1="2.11" x2="40.7" y2="0.31"/><line class="cls-2" x1="40.73" y1="7.59" x2="40.7" y2="4.33"/><line class="cls-2" x1="40.77" y1="13.4" x2="40.74" y2="9.82"/><line class="cls-2" x1="38.14" y1="12.06" x2="37.83" y2="8.55"/><line class="cls-2" x1="38.62" y1="17.75" x2="38.34" y2="14.41"/><line class="cls-2" x1="34.75" y1="7.63" x2="34.41" y2="5.64"/><line class="cls-2" x1="35.7" y1="12.87" x2="35.15" y2="9.87"/><line class="cls-2" x1="37.14" y1="21.45" x2="36.15" y2="15.39"/><line class="cls-2" x1="32.61" y1="11.16" x2="32.18" y2="9.54"/><line class="cls-2" x1="34.26" y1="17.5" x2="33.21" y2="13.39"/><line class="cls-2" x1="36" y1="23.74" x2="34.86" y2="19.73"/><path class="cls-2" d="M40.77,31.88c0-7.85,0-16.09,0-16.09"/><path class="cls-2" d="M39.84,31.92c-.53-6-1-11.65-1-11.65"/><path class="cls-2" d="M37.53,23.8s.63,3.86,1.41,8.24"/><path class="cls-2" d="M38.17,32.22C37.3,28.81,36.63,26,36.63,26"/><line class="cls-2" x1="27.29" y1="4.47" x2="26.67" y2="2.78"/><line class="cls-2" x1="29.19" y1="9.62" x2="28.05" y2="6.56"/><line class="cls-2" x1="31.21" y1="15.06" x2="29.97" y2="11.71"/><line class="cls-2" x1="28.28" y1="14.7" x2="26.79" y2="11.51"/><line class="cls-2" x1="30.69" y1="19.88" x2="29.28" y2="16.84"/><line class="cls-2" x1="23.59" y1="11.69" x2="22.58" y2="9.95"/><line class="cls-2" x1="26.27" y1="16.3" x2="24.73" y2="13.66"/><line class="cls-2" x1="30.56" y1="23.86" x2="27.55" y2="18.51"/><line class="cls-2" x1="22.79" y1="15.74" x2="21.83" y2="14.37"/><line class="cls-2" x1="26.5" y1="21.14" x2="24.11" y2="17.63"/><line class="cls-2" x1="30.27" y1="26.41" x2="27.83" y2="23.02"/><path class="cls-2" d="M37.53,32.42C34.88,25,32,17.3,32,17.3"/><path class="cls-2" d="M36.67,32.78c-2.52-5.41-4.92-10.6-4.92-10.6"/><path class="cls-2" d="M31.73,25.94s1.91,3.41,4.14,7.26"/><path class="cls-2" d="M35.21,33.63c-2-2.91-3.57-5.33-3.57-5.33"/><line class="cls-2" x1="15.49" y1="11.28" x2="14.34" y2="9.9"/><line class="cls-2" x1="19.04" y1="15.46" x2="16.92" y2="12.99"/><line class="cls-2" x1="22.8" y1="19.89" x2="20.49" y2="17.16"/><line class="cls-2" x1="19.92" y1="20.55" x2="17.44" y2="18.06"/><line class="cls-2" x1="23.96" y1="24.6" x2="21.6" y2="22.22"/><line class="cls-2" x1="14.49" y1="19.33" x2="12.95" y2="18.03"/><line class="cls-2" x1="18.59" y1="22.74" x2="16.23" y2="20.79"/><line class="cls-2" x1="25.2" y1="28.38" x2="20.54" y2="24.38"/><line class="cls-2" x1="15.12" y1="23.41" x2="13.75" y2="22.45"/><line class="cls-2" x1="20.45" y1="27.21" x2="17.01" y2="24.73"/><line class="cls-2" x1="25.8" y1="30.87" x2="22.35" y2="28.53"/><path class="cls-2" d="M34.68,34c-5-6-10.33-12.33-10.33-12.33"/><path class="cls-2" d="M34,34.67c-4.22-4.22-8.25-8.28-8.25-8.28"/><path class="cls-2" d="M27,29.94s3,2.54,6.37,5.4"/><path class="cls-2" d="M32.91,36c-2.86-2-5.18-3.78-5.18-3.78"/><line class="cls-2" x1="6.74" y1="21.71" x2="5.18" y2="20.81"/><line class="cls-2" x1="11.5" y1="24.43" x2="8.67" y2="22.83"/><line class="cls-2" x1="16.55" y1="27.3" x2="13.44" y2="25.53"/><line class="cls-2" x1="14.07" y1="28.9" x2="10.88" y2="27.42"/><line class="cls-2" x1="19.25" y1="31.33" x2="16.22" y2="29.9"/><line class="cls-2" x1="8.55" y1="29.62" x2="6.65" y2="28.93"/><line class="cls-2" x1="13.57" y1="31.42" x2="10.69" y2="30.4"/><line class="cls-2" x1="21.71" y1="34.46" x2="15.96" y2="32.29"/><line class="cls-2" x1="10.54" y1="33.24" x2="8.92" y2="32.8"/><line class="cls-2" x1="16.85" y1="34.99" x2="12.77" y2="33.83"/><line class="cls-2" x1="23.12" y1="36.6" x2="19.08" y2="35.57"/><path class="cls-2" d="M32.56,36.53c-6.79-4-13.93-8-13.93-8"/><path class="cls-2" d="M32.12,37.36l-10.59-5"/><path class="cls-2" d="M23.94,35.31s3.66,1.37,7.84,2.89"/><path class="cls-2" d="M31.55,39c-3.39-1-6.16-1.79-6.16-1.79"/><line class="cls-2" x1="2.08" y1="34.51" x2="0.31" y2="34.2"/><line class="cls-2" x1="7.49" y1="35.43" x2="4.27" y2="34.9"/><line class="cls-2" x1="13.21" y1="36.4" x2="9.69" y2="35.8"/><line class="cls-2" x1="11.43" y1="38.76" x2="7.93" y2="38.45"/><line class="cls-2" x1="17.13" y1="39.27" x2="13.79" y2="38.96"/><line class="cls-2" x1="6.48" y1="41.32" x2="4.47" y2="41.32"/><line class="cls-2" x1="11.82" y1="41.3" x2="8.76" y2="41.32"/><line class="cls-2" x1="20.51" y1="41.37" x2="14.37" y2="41.3"/><line class="cls-2" x1="9.59" y1="44.04" x2="7.93" y2="44.19"/><line class="cls-2" x1="16.12" y1="43.52" x2="11.89" y2="43.84"/><line class="cls-2" x1="22.57" y1="42.89" x2="18.42" y2="43.31"/><path class="cls-2" d="M31.41,39.61c-7.73-1.39-15.84-2.8-15.84-2.8"/><path class="cls-2" d="M31.29,40.53c-5.95-.51-11.65-1-11.65-1"/><path class="cls-2" d="M22.9,41.4s3.9,0,8.35,0"/><path class="cls-2" d="M31.3,42.23c-3.51.26-6.41.43-6.41.43"/><line class="cls-2" x1="2.08" y1="48.13" x2="0.31" y2="48.44"/><line class="cls-2" x1="7.48" y1="47.15" x2="4.27" y2="47.74"/><line class="cls-2" x1="13.19" y1="46.1" x2="9.67" y2="46.74"/><line class="cls-2" x1="12.32" y1="48.92" x2="8.92" y2="49.83"/><line class="cls-2" x1="17.85" y1="47.45" x2="14.61" y2="48.31"/><line class="cls-2" x1="8.55" y1="53.02" x2="6.65" y2="53.71"/><line class="cls-2" x1="13.55" y1="51.18" x2="10.69" y2="52.24"/><line class="cls-2" x1="21.74" y1="48.27" x2="15.95" y2="50.3"/><line class="cls-2" x1="12.4" y1="54.51" x2="10.88" y2="55.22"/><line class="cls-2" x1="18.36" y1="51.8" x2="14.49" y2="53.54"/><line class="cls-2" x1="24.2" y1="49" x2="20.44" y2="50.81"/><path class="cls-2" d="M31.38,42.89c-7.73,1.33-15.84,2.78-15.84,2.78"/><path class="cls-2" d="M31.58,43.8c-5.76,1.55-11.29,3-11.29,3"/><path class="cls-2" d="M24,47.48s3.68-1.29,7.86-2.82"/><path class="cls-2" d="M32.17,45.39C29,46.83,26.3,48,26.3,48"/><line class="cls-2" x1="6.74" y1="60.92" x2="5.18" y2="61.82"/><line class="cls-2" x1="11.47" y1="58.16" x2="8.67" y2="59.81"/><line class="cls-2" x1="16.48" y1="55.22" x2="13.4" y2="57.03"/><line class="cls-2" x1="16.63" y1="58.17" x2="13.75" y2="60.19"/><line class="cls-2" x1="21.32" y1="54.9" x2="18.57" y2="56.81"/><line class="cls-2" x1="14.49" y1="63.31" x2="12.95" y2="64.6"/><line class="cls-2" x1="18.56" y1="59.87" x2="16.23" y2="61.85"/><line class="cls-2" x1="25.26" y1="54.33" x2="20.51" y2="58.23"/><line class="cls-2" x1="18.62" y1="63.4" x2="17.44" y2="64.58"/><line class="cls-2" x1="23.29" y1="58.8" x2="20.25" y2="61.77"/><line class="cls-2" x1="27.82" y1="54.17" x2="24.91" y2="57.17"/><path class="cls-2" d="M32.48,46c-6.81,3.9-13.93,8-13.93,8"/><path class="cls-2" d="M33,46.76c-4.89,3.43-9.58,6.7-9.58,6.7"/><path class="cls-2" d="M27.11,52.82s3-2.48,6.43-5.34"/><path class="cls-2" d="M34.08,48.06c-2.52,2.45-4.63,4.44-4.63,4.44"/><line class="cls-2" x1="15.49" y1="71.35" x2="14.34" y2="72.73"/><line class="cls-2" x1="18.99" y1="67.14" x2="16.92" y2="69.65"/><line class="cls-2" x1="22.7" y1="62.66" x2="20.41" y2="65.42"/><line class="cls-2" x1="23.85" y1="65.38" x2="21.83" y2="68.27"/><line class="cls-2" x1="27.14" y1="60.7" x2="25.2" y2="63.44"/><line class="cls-2" x1="23.59" y1="70.95" x2="22.58" y2="72.69"/><line class="cls-2" x1="26.24" y1="66.32" x2="24.73" y2="68.98"/><line class="cls-2" x1="30.64" y1="58.82" x2="27.51" y2="64.11"/><line class="cls-2" x1="27.5" y1="69.62" x2="26.79" y2="71.13"/><line class="cls-2" x1="30.32" y1="63.7" x2="28.48" y2="67.52"/><line class="cls-2" x1="32.99" y1="57.8" x2="31.29" y2="61.61"/><path class="cls-2" d="M34.57,48.51c-5.07,6-10.35,12.31-10.35,12.31"/><path class="cls-2" d="M35.31,49.07c-3.42,4.9-6.72,9.57-6.72,9.57"/><path class="cls-2" d="M31.86,56.77s2-3.36,4.22-7.21"/><path class="cls-2" d="M36.78,49.91C35.25,53.08,34,55.67,34,55.67"/><line class="cls-2" x1="27.29" y1="78.16" x2="26.67" y2="79.85"/><line class="cls-2" x1="29.13" y1="73" x2="28.05" y2="76.07"/><line class="cls-2" x1="31.08" y1="67.53" x2="29.88" y2="70.9"/><line class="cls-2" x1="33.09" y1="69.69" x2="32.18" y2="73.09"/><line class="cls-2" x1="34.58" y1="64.17" x2="33.71" y2="67.41"/><line class="cls-2" x1="34.75" y1="75.01" x2="34.41" y2="76.99"/><line class="cls-2" x1="35.66" y1="69.76" x2="35.15" y2="72.77"/><line class="cls-2" x1="37.24" y1="61.21" x2="36.1" y2="67.24"/><line class="cls-2" x1="37.97" y1="72.42" x2="37.83" y2="74.09"/><line class="cls-2" x1="38.6" y1="65.9" x2="38.18" y2="70.12"/><line class="cls-2" x1="39.1" y1="59.44" x2="38.79" y2="63.6"/><path class="cls-2" d="M37.4,50.17c-2.71,7.36-5.51,15.11-5.51,15.11"/><path class="cls-2" d="M38.29,50.45c-1.55,5.77-3,11.29-3,11.29"/><path class="cls-2" d="M37.68,58.86s.73-3.84,1.5-8.22"/><path class="cls-2" d="M40,50.73c-.35,3.5-.69,6.38-.69,6.38"/><line class="cls-2" x1="40.7" y1="80.53" x2="40.7" y2="82.33"/><line class="cls-2" x1="40.67" y1="75.05" x2="40.7" y2="78.3"/><line class="cls-2" x1="40.63" y1="69.24" x2="40.65" y2="72.82"/><line class="cls-2" x1="43.26" y1="70.58" x2="43.56" y2="74.09"/><line class="cls-2" x1="42.77" y1="64.89" x2="43.05" y2="68.22"/><line class="cls-2" x1="46.64" y1="75.01" x2="46.99" y2="76.99"/><line class="cls-2" x1="45.69" y1="69.76" x2="46.24" y2="72.77"/><line class="cls-2" x1="44.25" y1="61.19" x2="45.25" y2="67.25"/><line class="cls-2" x1="48.78" y1="71.48" x2="49.21" y2="73.09"/><line class="cls-2" x1="47.13" y1="65.13" x2="48.18" y2="69.25"/><line class="cls-2" x1="45.39" y1="58.9" x2="46.53" y2="62.91"/><path class="cls-2" d="M40.62,50.76c0,7.85,0,16.09,0,16.09"/><path class="cls-2" d="M41.55,50.72c.53,6,1,11.65,1,11.65"/><path class="cls-2" d="M43.86,58.83s-.63-3.85-1.4-8.23"/><path class="cls-2" d="M43.22,50.42c.87,3.41,1.54,6.23,1.54,6.23"/><line class="cls-2" x1="54.11" y1="78.16" x2="54.72" y2="79.85"/><line class="cls-2" x1="52.2" y1="73.02" x2="53.35" y2="76.07"/><line class="cls-2" x1="50.18" y1="67.58" x2="51.42" y2="70.93"/><line class="cls-2" x1="53.11" y1="67.94" x2="54.6" y2="71.13"/><line class="cls-2" x1="50.7" y1="62.76" x2="52.11" y2="65.8"/><line class="cls-2" x1="57.8" y1="70.95" x2="58.81" y2="72.69"/><line class="cls-2" x1="55.12" y1="66.34" x2="56.66" y2="68.98"/><line class="cls-2" x1="50.83" y1="58.78" x2="53.84" y2="64.13"/><line class="cls-2" x1="58.6" y1="66.89" x2="59.56" y2="68.27"/><line class="cls-2" x1="54.89" y1="61.5" x2="57.28" y2="65"/><line class="cls-2" x1="51.12" y1="56.23" x2="53.56" y2="59.61"/><path class="cls-2" d="M43.86,50.22c2.65,7.38,5.49,15.11,5.49,15.11"/><path class="cls-2" d="M44.72,49.86c2.53,5.41,4.93,10.6,4.93,10.6"/><path class="cls-2" d="M49.66,56.69s-1.91-3.4-4.14-7.25"/><path class="cls-2" d="M46.18,49c2,2.9,3.57,5.33,3.57,5.33"/><line class="cls-2" x1="65.9" y1="71.35" x2="67.06" y2="72.73"/><line class="cls-2" x1="62.35" y1="67.17" x2="64.47" y2="69.65"/><line class="cls-2" x1="58.59" y1="62.75" x2="60.91" y2="65.48"/><line class="cls-2" x1="61.47" y1="62.09" x2="63.96" y2="64.58"/><line class="cls-2" x1="57.43" y1="58.04" x2="59.79" y2="60.42"/><line class="cls-2" x1="66.9" y1="63.31" x2="68.45" y2="64.6"/><line class="cls-2" x1="62.8" y1="59.9" x2="65.16" y2="61.85"/><line class="cls-2" x1="56.19" y1="54.26" x2="60.85" y2="58.26"/><line class="cls-2" x1="66.27" y1="59.23" x2="67.64" y2="60.19"/><line class="cls-2" x1="60.94" y1="55.42" x2="64.38" y2="57.9"/><line class="cls-2" x1="55.59" y1="51.77" x2="59.04" y2="54.11"/><path class="cls-2" d="M46.71,48.6c5,6,10.33,12.33,10.33,12.33"/><path class="cls-2" d="M47.4,48c4.22,4.22,8.25,8.28,8.25,8.28"/><path class="cls-2" d="M54.38,52.7s-3-2.55-6.37-5.41"/><path class="cls-2" d="M48.48,46.67c2.86,2,5.18,3.78,5.18,3.78"/><line class="cls-2" x1="74.65" y1="60.92" x2="76.21" y2="61.82"/><line class="cls-2" x1="69.89" y1="58.21" x2="72.73" y2="59.81"/><line class="cls-2" x1="64.84" y1="55.34" x2="67.95" y2="57.11"/><line class="cls-2" x1="67.32" y1="53.73" x2="70.51" y2="55.22"/><line class="cls-2" x1="62.14" y1="51.31" x2="65.17" y2="52.73"/><line class="cls-2" x1="72.85" y1="53.02" x2="74.74" y2="53.71"/><line class="cls-2" x1="67.83" y1="51.22" x2="70.71" y2="52.24"/><line class="cls-2" x1="59.68" y1="48.18" x2="65.43" y2="50.34"/><line class="cls-2" x1="70.85" y1="49.4" x2="72.47" y2="49.83"/><line class="cls-2" x1="64.54" y1="47.65" x2="68.63" y2="48.8"/><line class="cls-2" x1="58.27" y1="46.04" x2="62.31" y2="47.06"/><path class="cls-2" d="M48.84,46.1c6.78,3.95,13.92,8,13.92,8"/><path class="cls-2" d="M49.27,45.28l10.59,4.95"/><path class="cls-2" d="M57.45,47.33s-3.66-1.38-7.84-2.9"/><path class="cls-2" d="M49.84,43.68c3.39,1,6.16,1.79,6.16,1.79"/><line class="cls-2" x1="79.31" y1="48.13" x2="81.08" y2="48.44"/><line class="cls-2" x1="73.91" y1="47.2" x2="77.12" y2="47.74"/><line class="cls-2" x1="68.18" y1="46.24" x2="71.71" y2="46.83"/><line class="cls-2" x1="69.96" y1="43.88" x2="73.47" y2="44.19"/><line class="cls-2" x1="64.26" y1="43.37" x2="67.6" y2="43.67"/><line class="cls-2" x1="74.91" y1="41.32" x2="76.92" y2="41.32"/><line class="cls-2" x1="69.57" y1="41.34" x2="72.63" y2="41.32"/><line class="cls-2" x1="60.88" y1="41.27" x2="67.02" y2="41.34"/><line class="cls-2" x1="71.8" y1="38.6" x2="73.47" y2="38.45"/><line class="cls-2" x1="65.27" y1="39.11" x2="69.5" y2="38.8"/><line class="cls-2" x1="58.82" y1="39.75" x2="62.97" y2="39.32"/><path class="cls-2" d="M50,43c7.73,1.39,15.84,2.8,15.84,2.8"/><path class="cls-2" d="M50.11,42.11c5.94.51,11.64,1,11.64,1"/><path class="cls-2" d="M58.5,41.24s-3.91-.05-8.36,0"/><path class="cls-2" d="M50.1,40.41c3.5-.26,6.4-.43,6.4-.43"/><line class="cls-2" x1="79.31" y1="34.51" x2="81.08" y2="34.2"/><line class="cls-2" x1="73.92" y1="35.49" x2="77.12" y2="34.9"/><line class="cls-2" x1="68.2" y1="36.54" x2="71.72" y2="35.9"/><line class="cls-2" x1="69.07" y1="33.72" x2="72.47" y2="32.8"/><line class="cls-2" x1="63.54" y1="35.18" x2="66.78" y2="34.33"/><line class="cls-2" x1="72.85" y1="29.62" x2="74.74" y2="28.93"/><line class="cls-2" x1="67.84" y1="31.46" x2="70.71" y2="30.4"/><line class="cls-2" x1="59.65" y1="34.37" x2="65.44" y2="32.33"/><line class="cls-2" x1="68.99" y1="28.12" x2="70.51" y2="27.42"/><line class="cls-2" x1="63.03" y1="30.84" x2="66.9" y2="29.1"/><line class="cls-2" x1="57.19" y1="33.64" x2="60.95" y2="31.82"/><path class="cls-2" d="M50,39.75C57.74,38.42,65.85,37,65.85,37"/><path class="cls-2" d="M49.81,38.84c5.76-1.55,11.29-3,11.29-3"/><path class="cls-2" d="M57.39,35.16S53.71,36.45,49.53,38"/><path class="cls-2" d="M49.22,37.25c3.21-1.45,5.87-2.59,5.87-2.59"/><line class="cls-2" x1="74.65" y1="21.71" x2="76.21" y2="20.81"/><line class="cls-2" x1="69.92" y1="24.48" x2="72.73" y2="22.83"/><line class="cls-2" x1="64.91" y1="27.42" x2="68" y2="25.61"/><line class="cls-2" x1="64.76" y1="24.47" x2="67.64" y2="22.45"/><line class="cls-2" x1="60.07" y1="27.74" x2="62.82" y2="25.83"/><line class="cls-2" x1="66.9" y1="19.33" x2="68.45" y2="18.03"/><line class="cls-2" x1="62.83" y1="22.77" x2="65.16" y2="20.79"/><line class="cls-2" x1="56.13" y1="28.31" x2="60.88" y2="24.41"/><line class="cls-2" x1="62.77" y1="19.24" x2="63.96" y2="18.06"/><line class="cls-2" x1="58.1" y1="23.83" x2="61.14" y2="20.87"/><line class="cls-2" x1="53.57" y1="28.46" x2="56.48" y2="25.47"/><path class="cls-2" d="M48.91,36.66c6.81-3.9,13.93-8,13.93-8"/><path class="cls-2" d="M48.41,35.87C53.3,32.44,58,29.18,58,29.18"/><path class="cls-2" d="M54.28,29.82s-3,2.47-6.43,5.34"/><path class="cls-2" d="M47.31,34.58c2.52-2.46,4.63-4.44,4.63-4.44"/><line class="cls-2" x1="65.9" y1="11.28" x2="67.06" y2="9.9"/><line class="cls-2" x1="62.4" y1="15.5" x2="64.47" y2="12.99"/><line class="cls-2" x1="58.69" y1="19.98" x2="60.98" y2="17.22"/><line class="cls-2" x1="57.54" y1="17.26" x2="59.56" y2="14.37"/><line class="cls-2" x1="54.26" y1="21.93" x2="56.19" y2="19.2"/><line class="cls-2" x1="57.8" y1="11.69" x2="58.81" y2="9.95"/><line class="cls-2" x1="55.15" y1="16.32" x2="56.66" y2="13.66"/><line class="cls-2" x1="50.75" y1="23.81" x2="53.88" y2="18.53"/><line class="cls-2" x1="53.89" y1="13.02" x2="54.6" y2="11.51"/><line class="cls-2" x1="51.07" y1="18.94" x2="52.92" y2="15.11"/><line class="cls-2" x1="48.4" y1="24.83" x2="50.11" y2="21.03"/><path class="cls-2" d="M46.82,34.13c5.07-6,10.35-12.31,10.35-12.31"/><path class="cls-2" d="M46.08,33.56C49.5,28.67,52.8,24,52.8,24"/><path class="cls-2" d="M49.53,25.86s-2,3.36-4.22,7.22"/><path class="cls-2" d="M44.61,32.72C46.14,29.55,47.44,27,47.44,27"/><line class="cls-2" x1="54.11" y1="4.47" x2="54.72" y2="2.78"/><line class="cls-2" x1="52.26" y1="9.64" x2="53.35" y2="6.56"/><line class="cls-2" x1="50.31" y1="15.11" x2="51.51" y2="11.74"/><line class="cls-2" x1="48.3" y1="12.95" x2="49.21" y2="9.54"/><line class="cls-2" x1="46.81" y1="18.46" x2="47.69" y2="15.23"/><line class="cls-2" x1="46.64" y1="7.63" x2="46.99" y2="5.64"/><line class="cls-2" x1="45.73" y1="12.88" x2="46.24" y2="9.87"/><line class="cls-2" x1="44.16" y1="21.43" x2="45.29" y2="15.39"/><line class="cls-2" x1="43.42" y1="10.22" x2="43.56" y2="8.55"/><line class="cls-2" x1="42.79" y1="16.74" x2="43.22" y2="12.51"/><line class="cls-2" x1="42.29" y1="23.19" x2="42.6" y2="19.03"/><path class="cls-2" d="M44,32.47c2.72-7.37,5.51-15.11,5.51-15.11"/><path class="cls-2" d="M43.1,32.19c1.55-5.77,3-11.29,3-11.29"/><path class="cls-2" d="M43.71,23.78S43,27.62,42.22,32"/><path class="cls-2" d="M41.44,31.9c.35-3.5.68-6.38.68-6.38"/></g><path class="cls-3" d="M40.7,61.88a.52.52,0,0,1-.32-.11,33,33,0,0,1-5.28-5.09L35,56.6l-.6,1.61a.51.51,0,0,1-.42.34.55.55,0,0,1-.5-.22c-.48-.71-1-1.44-1.39-2.21a.42.42,0,0,1-.11.18l-1.46,1.48a.53.53,0,0,1-.51.14.56.56,0,0,1-.37-.39l-.09-.38A36.9,36.9,0,0,0,28,51.61a.46.46,0,0,1,0-.26L27,52a.53.53,0,0,1-.57,0,.55.55,0,0,1-.23-.53c.24-1.33.75-4.85,1-7a.47.47,0,0,1,0-.16L26,44.58a.52.52,0,0,1-.49-.15.5.5,0,0,1-.13-.49c1-3.74,1.9-5.89,3.35-7.87-.82.27-1.7.53-2.69.76a.51.51,0,0,1-.56-.22.53.53,0,0,1,0-.61,24.94,24.94,0,0,0,1.66-2.49c1.38-2.24,3.1-5,5.86-6.94a.53.53,0,0,1,.68.08.52.52,0,0,1,.13.28,8.5,8.5,0,0,1,3.69-2.49.53.53,0,0,1,.61.25.58.58,0,0,1,.06.26,10.59,10.59,0,0,1,1.46-1,.51.51,0,0,1,.6.07.5.5,0,0,1,.42-.21A4.9,4.9,0,0,1,43.17,25a.48.48,0,0,1,.07-.26.52.52,0,0,1,.6-.25,8.45,8.45,0,0,1,3.69,2.49.6.6,0,0,1,.13-.28.53.53,0,0,1,.68-.08c2.76,1.92,4.48,4.7,5.86,6.94A24.94,24.94,0,0,0,55.86,36a.54.54,0,0,1,0,.61.53.53,0,0,1-.57.22c-.6-.14-1.64-.41-2.67-.74,1.44,2,2.35,4.13,3.33,7.85a.5.5,0,0,1-.13.49.51.51,0,0,1-.48.15l-1.2-.29a.47.47,0,0,1,0,.16c.22,2.14.73,5.66,1,7a.52.52,0,0,1-.8.53l-.94-.62a.46.46,0,0,1,0,.26,37.37,37.37,0,0,0-1.61,5.55l-.09.37a.56.56,0,0,1-.37.39.53.53,0,0,1-.51-.14l-.59-.6a.5.5,0,0,1-.15-.32.56.56,0,0,1-.32-.15l-.4-.41a.42.42,0,0,1-.11-.18c-.43.77-.91,1.5-1.39,2.21a.53.53,0,0,1-.5.22.51.51,0,0,1-.42-.34l-.26-.7a.51.51,0,0,1,.06-.48v0a.53.53,0,0,1-.38-.32l0-.09a.35.35,0,0,1-.05.08A33.5,33.5,0,0,1,41,61.77.51.51,0,0,1,40.7,61.88Z"/><path class="cls-4" d="M47.6,40.24c.25.23.5.44.76.64,0-.44,0-.88-.06-1.24a7,7,0,0,1,.61,1.66c.28.21.58.4.87.59,0-.69,0-2-.06-2.36a10.68,10.68,0,0,1,.9,2.84c.3.16.51.27.87.43a24.33,24.33,0,0,0-.35-3.42,11.68,11.68,0,0,1,1.2,3.77c.32.13.65.24,1,.35a23.8,23.8,0,0,0-.49-4,12.52,12.52,0,0,1,1.31,4.26c.43.12.88.23,1.34.33-1-3.64-1.84-5.79-3.36-7.82a21,21,0,0,1-2-.8l-.07.18c-.06.13-.13.26-.2.38l-.36.67-.71-.29a8.92,8.92,0,0,1-.9-.42,9.09,9.09,0,0,1,.11,1.39,9.43,9.43,0,0,1-.45,2.88Zm-1.83-6.72c.06-.18.12-.37.17-.55a8.26,8.26,0,0,0,2,.81,17.08,17.08,0,0,1-1.86-1.56c0-.23.08-.46.11-.69a7.44,7.44,0,0,0,1.9.74,14.87,14.87,0,0,1-1.84-1.54,5.9,5.9,0,0,0,0-.84,7.94,7.94,0,0,0,1.71.65A16.58,16.58,0,0,1,46.14,29a7,7,0,0,0-.24-.87,6.17,6.17,0,0,0,1.34.48c-.16-.12-1.27-1.13-1.88-1.66a8.06,8.06,0,0,0-1.67-2c4,1.19,7.4,7.19,5.47,10.66a15.76,15.76,0,0,1-3.39-2.08ZM40.7,37.79c-2.44-2.59-3.54-5-3.54-7.52a8.71,8.71,0,0,1,2.77-5.84c-2.83,1.58-4,3.75-4,6,0,3.21,2.13,6.62,4.74,8.83A11.7,11.7,0,0,0,43,36.86c2.66-3.49,3.8-8.14.09-11.32a4.76,4.76,0,0,0-2.37-1.19v.89a3.37,3.37,0,0,0,1.34,1,2.48,2.48,0,0,1-1.34-.07V27a6.57,6.57,0,0,0,1.51.55,6.92,6.92,0,0,1-1.51.37v.77a4.71,4.71,0,0,0,1.56-.09,3.65,3.65,0,0,1-1.56.89v1a9.81,9.81,0,0,0,1.82-.81,6.29,6.29,0,0,1-1.82,1.71V32.4a11.87,11.87,0,0,0,2.22-1.76,7.4,7.4,0,0,1-2.22,2.81v1a10.63,10.63,0,0,0,2.23-1.74,5.29,5.29,0,0,1-2.23,2.79v1a12.81,12.81,0,0,0,2.41-2,11.56,11.56,0,0,1-2.41,3.2Zm-5.08-4.27a15.93,15.93,0,0,1-3.39,2.08c-1.93-3.47,1.48-9.47,5.47-10.66a8.55,8.55,0,0,0-1.14,1.21c-1.92,1.76-4,4.77-3.58,7.83a22.36,22.36,0,0,0,2.29-1.81,9.58,9.58,0,0,0,.35,1.35Zm14.91.36a7.76,7.76,0,0,0,2.14.84,14.52,14.52,0,0,1-2.1-1.64,4.89,4.89,0,0,0,0-.66,5.43,5.43,0,0,0,1.71.89c-.5-.4-1.44-1.37-1.88-1.82a6.18,6.18,0,0,0-.24-.84,5.81,5.81,0,0,0,1.69,1.18c-.66-.73-1.48-1.61-2.26-2.56a11.53,11.53,0,0,0-.79-1.34c-.22-.32-.45-.63-.7-.93,3.84,2.67,5.6,7.1,7.41,9.33a21.15,21.15,0,0,1-5-1.74,4.09,4.09,0,0,0,.11-.71Zm-19.72-.53a17.13,17.13,0,0,1-2,.89c.44-.71.89-1.43,1.37-2.12s1-1.45,1.38-2.08a11.45,11.45,0,0,1,1.13-2.11c.22-.32.45-.63.7-.93-3.84,2.67-5.6,7.1-7.4,9.33a24.71,24.71,0,0,0,5-1.71,6.77,6.77,0,0,1-.14-1.27ZM28.46,51.42a40.17,40.17,0,0,1,1.73,6l1.46-1.47c-.17-.31-.32-.61-.46-.92l-.55.56a47.15,47.15,0,0,0-1.27-4.75l-.91.59Zm-.77-6.91c.43-.13.86-.26,1.27-.41-.1.81-.39,3.15-.44,3.48-.06.49-.13,1-.2,1.48l2-1.3a11.91,11.91,0,0,0,.52,1.09l-4.12,2.68c.23-1.31.75-4.86,1-7Zm8.41,7.73L34,58c-1.83-2.67-3.08-5.11-3.19-8.1l.51-.33a20.92,20.92,0,0,0,2.4,5.74l1.58-4.27c.26.4.55.79.85,1.17Zm4.6,9.12a32.7,32.7,0,0,0,5.2-5L44.66,53a29.91,29.91,0,0,1-3.41,3.28l-.55.47v.8a11.55,11.55,0,0,0,2.22-1.41,5.63,5.63,0,0,1-2.22,2.14v.64a13.8,13.8,0,0,0,3.36-2.3,9,9,0,0,1-3.36,3.25,41.56,41.56,0,0,1-3.83-3.77l.79-2.1c-.32-.32-.63-.65-.93-1l-1.24,3.35a32.36,32.36,0,0,0,5.21,5Zm0-5.73a21.75,21.75,0,0,0,5.39-6.16L43.84,46a31.52,31.52,0,0,1-2.6,2.35l-.54.44v1c.7-.43,1.5-.93,1.87-1.23a9.09,9.09,0,0,1-1.87,2v.69a25.42,25.42,0,0,0,2.92-2.14,12.76,12.76,0,0,1-2.92,3.14V53a17.46,17.46,0,0,0,3.87-2.87,12,12,0,0,1-3.87,4,20.57,20.57,0,0,1-4-4.59l1.72-2.63c-.3-.28-.59-.57-.88-.86L35.3,49.47a21.64,21.64,0,0,0,5.4,6.16ZM37,45.39,33.26,51c-2.12-2.94-2.79-4.42-2.81-7.53q.64-.3,1.26-.66a11.64,11.64,0,0,0,.11,2.66,8.62,8.62,0,0,0,1.41,3.38L36,44.29c.3.38.61.74.94,1.1Zm-3.16-5.15a9.14,9.14,0,0,1-.38-1.74,3.35,3.35,0,0,1-1,1.33,14.35,14.35,0,0,1-4.8,2.54A17.32,17.32,0,0,1,30,37.25c.19-.26.7-.82,1.33-1.48l-.06-.14a1.42,1.42,0,0,1-.08-.18,21,21,0,0,1-1.95.8c-1.52,2-2.4,4.18-3.36,7.82a16.22,16.22,0,0,0,7.89-3.83Zm.67-4.85a7.57,7.57,0,0,0-.26,2c0,4,2.75,7.29,6.5,10.35,3.74-3.06,6.5-6.4,6.5-10.35a7.72,7.72,0,0,0-.27-2c-.39-.25-1-.7-1.48-1a14.54,14.54,0,0,1-1.77,3,12.87,12.87,0,0,1-2.43,2.57l-.55.48v.94A26.29,26.29,0,0,0,43,39.74a12.67,12.67,0,0,1-2.32,2.53v1.07A31.35,31.35,0,0,0,44,40.94a13.79,13.79,0,0,1-3.25,3.33v.95a20.11,20.11,0,0,0,3.9-3,12.45,12.45,0,0,1-3.9,4.07c-3.17-2.8-5.39-5.59-5.39-9.41a7.21,7.21,0,0,1,.47-2.33l0-.06c-.43.32-.88.64-1.34.93Zm18.47,16a40.17,40.17,0,0,0-1.73,6l-.59-.6a8,8,0,0,0,.45-2.09,16,16,0,0,1-.92,1.62l-.4-.4a13.65,13.65,0,0,0,1.72-5.47l1.47,1Zm.78-6.91c.21,2.16.73,5.71,1,7l-1.09-.71a10.79,10.79,0,0,0-.06-2.51c-.09.47-.27,1.29-.5,2.15l-.81-.53a11.12,11.12,0,0,0,.18-2.27c-.12.44-.41,1.14-.69,1.94l-1.15-.75a10.22,10.22,0,0,0,1.24-5c.61.24,1.25.46,1.92.65Zm-8.42,7.73a14.61,14.61,0,0,0,1.33-2l1.48,2.24.73-1c.5-.7.93-1.33,1.29-1.92l.51.33c-.11,3-1.36,5.43-3.19,8.1l-.26-.7A8.73,8.73,0,0,0,48.56,54a17.75,17.75,0,0,1-1.69,2.56l-.29-.78a8.74,8.74,0,0,0,.8-2.39c-.26.46-.64,1-1.06,1.69L46,54.25a10.91,10.91,0,0,0,.45-1.79,10,10,0,0,1-.71,1.09l-.49-1.31Zm-.85-6.85a14.86,14.86,0,0,0,2.84-4.28,15.83,15.83,0,0,0,3.66,2.38c0,3.11-.69,4.59-2.81,7.53l-.63-1a12,12,0,0,0,1.77-2.86,19.85,19.85,0,0,1-2.21,2.19l-.49-.74A11.16,11.16,0,0,0,48,46.12,26.49,26.49,0,0,1,46.17,48l-.54-.83a10.77,10.77,0,0,0,1.28-2.3c-.34.38-1,1-1.68,1.69Z"/><path class="cls-5" d="M14.84,66a7,7,0,0,1-.76-.4l3.3-2.26a4.2,4.2,0,0,0,.72.41Zm.4-12.85V42.34l.47-.31V52.85Zm.69,8.18a3.78,3.78,0,0,1-.69-2.22v-4L19,52.56v.92l-3.3,2.28V60A4.25,4.25,0,0,0,15.93,61.37Zm7.79,10.88L23.25,72V41.27l.47-.31Z"/><path class="cls-5" d="M29.4,64.21l-.8-.36,7.47-5.19v.93Zm-.4-9V49.73l.44-.27a2.53,2.53,0,0,1,.65.45l-.62.43v4.53Zm.69,3.94A3.67,3.67,0,0,1,29,57.21l6.59-4.59V50.33a4.11,4.11,0,0,0-.25-1.5,4,4,0,0,1,.73,2.37v2l-6.6,4.59A4.31,4.31,0,0,0,29.69,59.15Z"/><path class="cls-5" d="M41.75,62.66,41,62.3l5.37-3.72v.93ZM42,57.58a3.89,3.89,0,0,1-.69-2.24V38.85l.47-.32V56.21A4.57,4.57,0,0,0,42,57.58Z"/><path class="cls-5" d="M50.15,61.61l-.79-.37,5.36-3.73v.93Zm.29-5.1a3.92,3.92,0,0,1-.69-2.25V37.72l.48-.31V55.14A4.6,4.6,0,0,0,50.44,56.51Z"/><path class="cls-5" d="M58.56,60.55l-.8-.37L65.22,55v.94Zm-.4-9.09V45.92l.43-.27a2.37,2.37,0,0,1,.65.45l-.61.44v4.57Zm.69,4a3.69,3.69,0,0,1-.69-2l6.59-4.63V46.53A4.2,4.2,0,0,0,64.5,45a4.09,4.09,0,0,1,.72,2.39v2l-6.59,4.63A4.16,4.16,0,0,0,58.85,55.44Z"/><path class="cls-5" d="M70.91,59l-.8-.37,7-4.9V52.5A4.31,4.31,0,0,0,76.85,51a4.23,4.23,0,0,1,.72,2.41v.94Zm.29-12.73a3.57,3.57,0,0,1-.69-2l.43-.27a2.41,2.41,0,0,1,.65.46l-.61.44A3.92,3.92,0,0,0,71.2,46.27Zm0,7.59a3.48,3.48,0,0,1-.55-1.15l.33-.23A4.33,4.33,0,0,0,71.2,53.86Zm3.07-5.74a3.55,3.55,0,0,0-.1-.86l2.93-2.08a5,5,0,0,0-.25-1.78,4.16,4.16,0,0,1,.72,2.41Z"/><path class="cls-5" d="M21.58,70.56c-.44-.3-1.81-.92-2-1.12s-.11-3.82-.11-5.53v-9.2l0-2.17a4.81,4.81,0,0,1,.11-1s0,0,0,0l-.29.07c-.18,0-.22-.22-.29-.21s-.11.08-.11.19-.32.54-.76.73-.83.75-1.12.86-1.23.89-2.18,1.33v.64c0,.32,0,.92,0,1.35,0,.68,0,.75-.26,1.06a1.07,1.07,0,0,0-.25.46l0,0c.07,0,.18-.16.5-.38,0,0,0,0,.08.1a5.72,5.72,0,0,1-.11,1.11c0,.36.25.93.25,1.28s.26.65.65,1.24c.22.43.66.73,1.53,1.23-.55.42-1.31.87-1.74,1.24-.22.24-.26.07-1,.69a2.24,2.24,0,0,1-.54.35,3.21,3.21,0,0,1-1.82-1.7c-.61-1.23-.61-1.09-.61-8.71,0-3.9,0-6.92.07-7A6.84,6.84,0,0,1,12.92,47a.76.76,0,0,0,.36-.16c0-.07-.14,0-.36,0-.4,0-.9.22-1.16.25a.26.26,0,0,1-.18,0,18.69,18.69,0,0,1-.07-2.37c0-1.7,0-1.6.94-2.21s1.2-.83,2.28-1.5a3.71,3.71,0,0,1,.07,1,8.37,8.37,0,0,1-.14,2c0,.17.22.36.22.57a6.08,6.08,0,0,0-.08,1.43l0,2.66,0,2.17a12,12,0,0,0,.19,2.7l.1,0c.29,0,1-.8,1.85-1.33a20.56,20.56,0,0,0,2.39-1.65c.22-.14.22-.17.22-1.7,0-.85,0-2.24,0-3.09,0-1.6,0-2-.07-2.48,0-.78.29-1.49.65-1.54s.91-.83,1.31-.88.9-.86,1.23-.9c.07,0,.11,0,.14,0s0,4.69,0,10.28V60.7c0,5.48,0,10.14,0,10.18l-.07.05A2.49,2.49,0,0,1,21.58,70.56ZM13.17,57.73c0-.1-.07-.13-.14-.12s-.11,0-.15.16H13ZM13.65,43c0-.1,0-.07-.08-.13s-.07,0-.07.15a.06.06,0,0,0,.07.06h0Zm6.26-.09c0-.14,0-.17-.07-.17s-.07.05-.11.16l.07.13.08,0S19.91,43,19.91,42.93Zm.36,23.63c0-.11,0-.14-.07-.14s-.11,0-.11.09,0,.1.11.13h0ZM20.64,47v0l-.15,0-.07,0,.14.06Zm.21,15.33a.47.47,0,0,0,0-.17s-.07.08-.11.23l0,.1h0S20.85,62.43,20.85,62.36ZM22.09,64S22,64,22,64a.12.12,0,0,0-.11.12l0,.07Zm.36-15.24c-.07-.09-.11-.16-.22-.15s0,0,0,0a.25.25,0,0,0,.15.27h0S22.45,48.86,22.45,48.79Z"/><path class="cls-5" d="M27.44,62.56A4.56,4.56,0,0,1,25.27,60V58.8a15.58,15.58,0,0,1,0-1.57l-.08-3.31,0-.75a1.86,1.86,0,0,0,.07-.54c-.11-1.13-.11-1.8-.11-1.94a22.06,22.06,0,0,1,2.07-1.58c.33-.36.83-.11,1.09-.67s1.34-.89,2.64-1.94a3.61,3.61,0,0,1,.76-.49,4.43,4.43,0,0,1,1.74.74,5.68,5.68,0,0,1,1.34,1.83c.29.75.22,1.23.29,3.5-.8.6-1.45.93-1.88,1.31a14.46,14.46,0,0,1-2.1,1.47c-.55.21-1,.88-1.38,1a4,4,0,0,0-1.3,1.06c0,.14.36.84.43,1.33A2.52,2.52,0,0,0,30.34,60a3.41,3.41,0,0,0,.8.36c.14,0,1.09-.92,1.63-1.2a4.68,4.68,0,0,0,1-.66,4.3,4.3,0,0,1,1.2-.79c.18,0,.18.16.25.58,0,.25-.21.35-1.16.93-.54.32-1,.77-1.37,1s-.76.63-1.38,1a5.36,5.36,0,0,0-1.16.78A5,5,0,0,1,28.35,63C28.17,63,28.17,62.9,27.44,62.56Zm-1.55-8a.09.09,0,0,0-.11-.1c-.07.08-.07,0-.07.12a.06.06,0,0,0,.07.06C25.85,54.63,25.89,54.59,25.89,54.56Zm5-.44a3.28,3.28,0,0,1,1-.59V52A1.75,1.75,0,0,0,31.57,51l-.36-.85c-.18-.3-1.3-1.54-1.77-1.49s-.47.28-.91.69l0,1.78v2.24a16.48,16.48,0,0,0,.07,2.24h0A9.52,9.52,0,0,0,30.85,54.12ZM29.4,60.18a.81.81,0,0,0-.51-.08c-.1,0-.21,0-.21.1s.36.42.47.41S29.4,60.25,29.4,60.18Z"/><path class="cls-5" d="M39.43,60.75a6.17,6.17,0,0,1-1.3-1.56,7.24,7.24,0,0,1-.51-1.73c0-.28.22-.53.22-.81a11.3,11.3,0,0,1-.11-2.06,8.58,8.58,0,0,0-.11-1.67c0-.21.22-.63.22-.88a5.5,5.5,0,0,1-.15-1.13l0-.65a15.07,15.07,0,0,0-.07-2c0-.32.18-.53.18-.81a10.9,10.9,0,0,1-.11-2.06,8.71,8.71,0,0,0-.11-1.67c0-.21.22-.63.22-.88a7.87,7.87,0,0,1-.11-1.38v-.54c0-1.29,0-1.29,1.41-2.19l1.27-.87a.94.94,0,0,1,.44-.24c.1,0,.14,0,.14.16l0,6.47c0,5.16,0,6.27-.11,6.28s-.15.06-.15.09.26-.39.26,2.8c0,2.57,0,2.68.25,3.08a3.18,3.18,0,0,1,.29.68c.11.42,1.2,1.72,1.81,1.64.44,0,1-.73,1.31-.77s.65-.47.79-.49.07,0,.07.17c-.07.59,0,.64-.5,1-.36.19-1.31.94-1.38.95s-.72.52-1.38,1a4.9,4.9,0,0,0-1.19.93A9.56,9.56,0,0,1,39.43,60.75Zm-.61-18.42c-.08-.21,0-.36-.22-.33,0,0-.07,0-.07.11a.4.4,0,0,0,.14.24l.11,0Zm1.77,5-.07-.06c-.11.12-.07,0-.11.19s0,.1.07.1S40.59,47.43,40.59,47.29Zm3.41,12s-.08-.06-.11-.06l-.07,0,.1.13A.11.11,0,0,0,44,59.26Z"/><path class="cls-5" d="M47.83,59.73a6.4,6.4,0,0,1-1.3-1.57A7.24,7.24,0,0,1,46,56.43c0-.29.22-.53.22-.81a12.69,12.69,0,0,1-.11-2.07A8.58,8.58,0,0,0,46,51.88c0-.22.22-.64.22-.89a6.39,6.39,0,0,1-.14-1.13l0-.65a15.24,15.24,0,0,0-.07-2c0-.32.18-.52.18-.81a12.1,12.1,0,0,1-.11-2.07A8.84,8.84,0,0,0,46,42.66c0-.21.22-.64.22-.89a8.91,8.91,0,0,1-.11-1.38v-.54c0-1.29,0-1.29,1.41-2.19l1.27-.88a1.12,1.12,0,0,1,.44-.24c.11,0,.14,0,.14.17l0,6.49c0,5.17,0,6.28-.11,6.29s-.14.06-.14.09.25-.39.25,2.81c0,2.58,0,2.69.25,3.09a2.4,2.4,0,0,1,.29.68c.11.42,1.2,1.72,1.81,1.65.44-.05,1-.74,1.31-.77s.65-.48.79-.5.08,0,.08.18c-.08.58,0,.64-.51,1-.36.19-1.3.95-1.38,1s-.72.52-1.37,1a5.07,5.07,0,0,0-1.2.93A9.19,9.19,0,0,1,47.83,59.73Zm-.61-18.48c-.07-.2,0-.35-.22-.33a.12.12,0,0,0-.07.12.38.38,0,0,0,.14.23l.11.06Zm1.77,5-.07-.06c-.11.12-.07,0-.11.19s0,.11.08.1S49,46.38,49,46.23Zm3.41,12s-.07-.07-.11-.06l-.07,0,.11.13S52.4,58.31,52.4,58.24Z"/><path class="cls-5" d="M56.6,59a4.52,4.52,0,0,1-2.17-2.58V55.22c0-.65,0-1.37,0-1.59l-.07-3.33,0-.76A2.31,2.31,0,0,0,54.5,49c-.11-1.14-.11-1.82-.11-2a20.76,20.76,0,0,1,2.06-1.59c.33-.37.84-.11,1.09-.68s1.34-.89,2.65-1.95a3.32,3.32,0,0,1,.76-.5,4.42,4.42,0,0,1,1.74.76A5.64,5.64,0,0,1,64,44.92c.29.75.22,1.23.29,3.53-.79.61-1.44.94-1.88,1.32a13.23,13.23,0,0,1-2.1,1.48c-.54.21-1,.88-1.38,1a4.16,4.16,0,0,0-1.3,1.06c0,.15.36.86.43,1.35a2.55,2.55,0,0,0,1.42,1.78,4,4,0,0,0,.79.37c.15,0,1.09-.93,1.63-1.21a4.94,4.94,0,0,0,1-.67,3.85,3.85,0,0,1,1.19-.79c.18,0,.18.16.26.58,0,.25-.22.35-1.16.93-.54.32-1,.78-1.38,1s-.76.63-1.37,1a5.17,5.17,0,0,0-1.16.79,5.13,5.13,0,0,1-1.81,1.09C57.32,59.51,57.32,59.36,56.6,59ZM55,50.94c0-.07,0-.11-.11-.1s-.07,0-.07.12a.06.06,0,0,0,.07.06C55,51,55,51,55,50.94Zm5-.44a3.41,3.41,0,0,1,1-.59V48.4a1.8,1.8,0,0,0-.25-1.09l-.36-.85c-.18-.3-1.31-1.57-1.78-1.51s-.47.28-.9.69l0,1.8V49.7A16.66,16.66,0,0,0,57.79,52h0A9.31,9.31,0,0,0,60,50.5Zm-1.44,6.12c0-.07-.29-.11-.51-.08s-.22,0-.22.1.36.42.47.41S58.56,56.69,58.56,56.62Z"/><path class="cls-5" d="M69.06,57.51a3.81,3.81,0,0,1-2.21-3.71L70,51.69c.22,0,.11,1.21,1.34,2.91.15.19.62.28,1,.53a.76.76,0,0,0,.47.16,1,1,0,0,0,.69-.88,3.73,3.73,0,0,0-.22-1c-.29-.94-.29-.94-1.19-1.77a5.38,5.38,0,0,0-2.25-1.31,3.75,3.75,0,0,1-2.57-2.61,7.27,7.27,0,0,1-.4-2c.08-.37.4-.51,2.07-1.81.47-.42.83-.14,1.08-.68a5.91,5.91,0,0,1,1.45-1,12.83,12.83,0,0,0,1.24-.88,3.94,3.94,0,0,1,.76-.53A3.89,3.89,0,0,1,75,41.4a5,5,0,0,1,1.7,2.94,1.31,1.31,0,0,1-.8,1.11c-.36.19-.94.81-1.23.91s-.83.62-1,.64-.14-.63-.43-1.25A3.56,3.56,0,0,0,72.06,44c-.5-.44-.76-.66-1-.63a1.35,1.35,0,0,0-.61.44c-.22.21-.33.33-.33.55a5.48,5.48,0,0,0,2,3.22c.69.31,1,.52,1,.74l-.15.45a.08.08,0,0,0,.07.07c.18,0,.37-.37.69-.41s1.12.29,1.12.58c0,.11,0,.14.15.13l.11,0c.4-.05,1.52,1.3,1.59,2.7l.11,1.3c0,.39-1,.84-1.92,1.53-.25.29-.87.54-1.12.83A22.32,22.32,0,0,0,71.63,57,5.71,5.71,0,0,1,70,58C69.75,58,69.67,57.87,69.06,57.51ZM72.43,50c0-.07,0-.07-.08-.06a2,2,0,0,0-.83,1v0A6.28,6.28,0,0,0,72.43,50Zm.36-6.55c0-.11,0-.14-.07-.14a.54.54,0,0,0-.29.36c0,.07,0,.11.11.1h0A.29.29,0,0,0,72.79,43.42Zm3.48.83c0-.08,0-.11-.08-.1a.11.11,0,0,0-.1.12s0,.07.1.06S76.27,44.28,76.27,44.25Z"/><path class="cls-5" d="M33.38,70.17a1.33,1.33,0,0,1-.26-.5c0-.08-.08.23-.08-2.31v-2.1c-.14-.48-.14-.53-.43-.72a.64.64,0,0,1-.19-.14c0-.06.23-.19.6-.46a1,1,0,0,1,.25-.14,1,1,0,0,1,.46.27,1.46,1.46,0,0,1,.28.87c0,.16,0,.3,0,.71,0,.23,0,.51,0,.61V68a5.64,5.64,0,0,0,.09,1.1,2,2,0,0,0,.35.46.46.46,0,0,0,.28.11c.1,0,.22-.16.41-.28s.21-.09.21-.34v-.51a.73.73,0,0,1,0-.21v-.14l0-.42a.4.4,0,0,1,0-.15,1.6,1.6,0,0,1,.48-.38c.14-.07.23-.18.35-.21s.1,0,.1.06,0,.94,0,1.28v.06a1.67,1.67,0,0,1-.06.49s-.48.3-.54.37-.53.34-.57.39c-.24.17-.35.23-.4.28s-.16.09-.27.19-.22.13-.33.22-.08.06-.11.06A1.55,1.55,0,0,1,33.38,70.17Zm.18-5.75s0,0-.05,0a0,0,0,0,0,0,0,.07.07,0,0,0,0,0A0,0,0,0,0,33.56,64.42ZM33.7,70a0,0,0,0,0,0,0h0s0,0,0,0A0,0,0,0,0,33.7,70Zm2-2.16c0-.08,0-.14-.05-.14s0,0,0,.09,0,.11.06.11S35.7,67.91,35.7,67.87Z"/><path class="cls-5" d="M39.06,69.38c0-.09-.07-.12-.11-.12l-.26.17c-.23.11-.7.5-.8.52a2.22,2.22,0,0,1-.55-.31c-.05-.06-.07-.08-.07-.1s0-.07,0-.13,0-.17-.09-.16,0,.09-.07.1,0,0-.1-.12-.06-.15-.06-.6a5.9,5.9,0,0,1,0-.71v0a4.79,4.79,0,0,1,0-.74v-.74c.13-.06.18-.11.22-.12a.58.58,0,0,1,.19.25.56.56,0,0,0,.32.15c.05,0,.06-.07.07-.16s0,0-.06,0-.38-.24-.38-.32.1-.07.2-.17.2-.07.33-.21a.54.54,0,0,1,.19-.16l.19-.11c.1-.1.13-.08.35-.25a1,1,0,0,1,.23-.16,1.42,1.42,0,0,1,.45.17,1.55,1.55,0,0,1,.39.5.67.67,0,0,1,.09.38l0,1a1.88,1.88,0,0,1,0,.32v.06a7.44,7.44,0,0,0,.07,1c0,.06.17.24.19.3s.38.3.38.35a3.69,3.69,0,0,1-.88.64A1,1,0,0,1,39.06,69.38Zm-1.74-1.25s0,0,0,0,0,0,0,0,0,0,0,0S37.32,68.14,37.32,68.13Zm.37.6s0-.06,0-.06,0,0-.07.11,0,0,.06,0S37.69,68.78,37.69,68.73Zm1.18.31,0-2.39a.9.9,0,0,1-.16-.36,3.55,3.55,0,0,0-.49-.47c-.05,0-.14.1-.28.24a4.12,4.12,0,0,0,0,1.1,2.39,2.39,0,0,0,0,.63,2.64,2.64,0,0,0,.11.8.75.75,0,0,0,.26.41,1.44,1.44,0,0,0,.37.19A.83.83,0,0,0,38.87,69Zm.78-2.47s0,0,0,0,0,0,0,0a0,0,0,0,0,0,0S39.65,66.58,39.65,66.57Zm.49,2.57c0-.11,0-.18-.12-.17S40,69,40,69s.11.16.15.16S40.14,69.16,40.14,69.14Z"/><path class="cls-5" d="M40.85,71.26a1.62,1.62,0,0,1-.31-.76v0a3.4,3.4,0,0,1,.56-.42c.09,0,.26-.23.31-.23s0,0,0,.08v0a1.33,1.33,0,0,0,.17.51c.09.14.43.44.51.43a.67.67,0,0,0,.26-.17V69c0-.09,0-.12,0-.11s-.08,0-.2.12-.28.14-.35.25a.3.3,0,0,1-.14.11l-.18.08a.12.12,0,0,1-.08,0,1,1,0,0,1-.57-.33,1.35,1.35,0,0,1-.26-.47,5.59,5.59,0,0,1,0-1.44c0-.71,0-1.31,0-1.32s.29-.18.42-.31c.38-.32.94-.62,1.34-.94l.08,0c.06,0,.25.14.3.13a.34.34,0,0,1,.27.16l.19.24c.21.25.15.39.2,1.45s0,1.1,0,1.81c0,.4,0,.57,0,.84s0,.28-.12.31-.1,0-.13,0-.06,0-.06.08,0,.1.12.09.06,0,.11-.06,0,.09,0,.35v.31a1.52,1.52,0,0,0-.47.31c-.15.08-.6.43-.78.53s-.4.31-.44.32l-.2.1A1.27,1.27,0,0,1,40.85,71.26Zm.33-5.39s0-.06,0-.06,0,0,0,0l0,.06h0S41.18,65.89,41.18,65.87Zm.12,3a.07.07,0,0,0,0-.05,0,0,0,0,0,0,0s0,0,0,0Zm1.11-.33c0-.69,0-1.3,0-2.17a.91.91,0,0,0-.22-.6c-.14-.2-.1-.25-.26-.32a.44.44,0,0,0-.18,0c-.08,0-.12.07-.27.16v2a1.89,1.89,0,0,0,.1.67c0,.11.09.17.28.35s.26.23.33.22S42.28,68.67,42.41,68.54Zm-.19-3.47s0-.06,0,0,0,0,0,0a.07.07,0,0,0,0,0h0S42.22,65.08,42.22,65.07Zm0,.17s0,0,0,0,0,0,0,0,0,0,0,0A0,0,0,0,0,42.24,65.24Z"/><path class="cls-5" d="M44.63,68.94a1.33,1.33,0,0,1-.62-.73v-.35c0-.18,0-.39,0-.45l0-1v-.21a.63.63,0,0,0,0-.16c0-.32,0-.51,0-.55a5,5,0,0,1,.59-.46c.09-.1.24,0,.31-.19s.38-.26.75-.56a1,1,0,0,1,.21-.14,1.22,1.22,0,0,1,.5.21,1.71,1.71,0,0,1,.38.52,3.31,3.31,0,0,1,.08,1c-.23.17-.41.27-.53.37a4.08,4.08,0,0,1-.6.43c-.15.06-.29.25-.39.28s-.37.26-.37.31.1.24.12.38a.71.71,0,0,0,.4.5.67.67,0,0,0,.23.1S46,68,46.14,68a1.43,1.43,0,0,0,.29-.19,1.16,1.16,0,0,1,.34-.23s0,0,.07.17-.06.1-.33.26-.29.23-.39.28-.21.18-.39.28a1.94,1.94,0,0,0-.33.23,1.35,1.35,0,0,1-.51.31S44.84,69,44.63,68.94Zm-.44-2.3s0,0,0,0,0,0,0,0a0,0,0,0,0,0,0A0,0,0,0,0,44.19,66.64Zm1.41-.13a.76.76,0,0,1,.28-.16v-.43a.51.51,0,0,0-.08-.31l-.1-.24c-.05-.09-.37-.45-.5-.43s-.14.08-.26.2v1.15a4.67,4.67,0,0,0,0,.64h0A2.54,2.54,0,0,0,45.6,66.51Zm-.41,1.74a.3.3,0,0,0-.15,0s-.06,0-.06,0a.3.3,0,0,0,.13.12A.35.35,0,0,0,45.19,68.25Z"/><path class="cls-5" d="M48,68.44a1.21,1.21,0,0,1-.48-.26v-.56c0-.28,0-.27,0-.6s-.05-1.13-.05-1.28v-.83a1.37,1.37,0,0,0,0-.36.19.19,0,0,1,.15-.17c.09,0,.24-.16.34-.22s.34-.29.42-.3.06.47.08.46.89-.6,1-.6a.66.66,0,0,1,.24.11,1.33,1.33,0,0,1,.63,1c0,.19-.23.24-.41.42a2.35,2.35,0,0,1-.5.29s-.06,0-.08-.19a.75.75,0,0,0-.13-.38c-.14-.22-.44-.44-.56-.42a.27.27,0,0,0-.15.13c0,.06,0,.11,0,.41v.7c0,.28,0,.33,0,.38a.66.66,0,0,0-.12.29s0,0,0,0l.13,0v1.64a3,3,0,0,1,0,.57ZM48.42,65s0,0-.05,0a.05.05,0,0,0,0,0s0,0,0,0A.05.05,0,0,0,48.42,65Zm1-.25c0-.11,0-.18-.11-.17s-.06,0-.08.08a.36.36,0,0,0,.15.2A.14.14,0,0,0,49.41,64.76Z"/></g></g></svg>