<?xml version="1.0" encoding="utf-8"?>
<!-- Generator: Adobe Illustrator 26.0.2, SVG Export Plug-In . SVG Version: 6.00 Build 0)  -->
<svg version="1.1" xmlns="http://www.w3.org/2000/svg" xmlns:xlink="http://www.w3.org/1999/xlink" x="0px" y="0px"
	 viewBox="0 0 180 180" style="enable-background:new 0 0 180 180;" xml:space="preserve">
<style type="text/css">
	.st0{display:none;}
	.st1{display:inline;fill:#F18A00;}
	.st2{display:inline;fill:#490E67;}
	.st3{display:inline;fill:#D9B767;}
	.st4{display:inline;fill:#5B6670;}
	.st5{display:inline;fill:#7A5FA8;}
	.st6{display:inline;fill:#A12B2A;}
	.st7{display:inline;fill:#092628;}
	.st8{display:inline;fill:#003B71;}
	.st9{fill:#7A5FA8;}
	.st10{opacity:0.3;}
	.st11{fill:none;stroke:#D9B767;stroke-width:1.1175;stroke-linecap:round;stroke-miterlimit:10;}
	.st12{fill:#FFFFFF;}
	.st13{fill-rule:evenodd;clip-rule:evenodd;fill:#D9B767;}
	.st14{fill:#000F9F;}
	.st15{fill-rule:evenodd;clip-rule:evenodd;fill:#191F41;}
	.st16{fill:#003B71;}
	.st17{fill-rule:evenodd;clip-rule:evenodd;fill:#D7DEDB;}
	.st18{fill:#231F20;}
	.st19{fill:#D7DEDB;}
	.st20{opacity:0.35;}
	.st21{fill:none;stroke:#000000;stroke-width:0.6113;stroke-linecap:round;stroke-linejoin:round;stroke-miterlimit:10;}
	.st22{fill:none;stroke:#092628;stroke-width:0.6113;stroke-linecap:round;stroke-linejoin:round;stroke-miterlimit:10;}
	.st23{fill:#D9B767;}
	.st24{clip-path:url(#SVGID_00000121262008336191400020000004341683056018391738_);fill:#A2A9AD;}
	.st25{display:none;clip-path:url(#SVGID_00000121262008336191400020000004341683056018391738_);}
	.st26{display:inline;fill:#A7AEB4;}
	.st27{clip-path:url(#SVGID_00000121262008336191400020000004341683056018391738_);}
	.st28{fill:#A2A9AD;}
	.st29{clip-path:url(#SVGID_00000121262008336191400020000004341683056018391738_);fill:#7B868C;}
	.st30{fill:#5B6670;}
	.st31{clip-path:url(#SVGID_00000121262008336191400020000004341683056018391738_);fill:#323E48;}
	.st32{clip-path:url(#SVGID_00000121262008336191400020000004341683056018391738_);fill:#5B6670;}
	.st33{clip-path:url(#SVGID_00000121262008336191400020000004341683056018391738_);fill:#FFFFFF;}
	.st34{clip-path:url(#SVGID_00000121262008336191400020000004341683056018391738_);fill:#1D252C;}
	.st35{clip-path:url(#SVGID_00000121262008336191400020000004341683056018391738_);fill:#E5E5E4;}
	.st36{fill:#201747;}
	.st37{fill:#252832;}
	.st38{fill:#242731;}
	.st39{fill:#84C346;stroke:#84C346;stroke-width:0.7255;stroke-miterlimit:10;}
	.st40{fill:none;}
	.st41{fill:#002B49;}
	.st42{fill:#092628;}
	.st43{fill:#CAD5DA;stroke:#CAD5DA;stroke-width:2.1515;stroke-miterlimit:10;}
	.st44{fill:#6D52A1;}
	.st45{fill:#CAD5DA;}
	.st46{display:inline;}
	.st47{display:inline;clip-path:url(#SVGID_00000029765815733777184870000007932498349826461335_);}
	.st48{fill:url(#SVGID_00000114765713038010489250000008487887606611425944_);}
	.st49{fill:#F9B5C3;}
	.st50{fill:#F26178;}
	.st51{fill:#323E48;}
</style>
<g id="Backgrounds" class="st0">
	
		<rect y="0.03" transform="matrix(-1 -1.224647e-16 1.224647e-16 -1 179.1528 179.0345)" class="st3" width="179.15" height="178.97"/>
</g>
<g id="Icons">
	<path class="st41" d="M156.84,52.62h-30.09c-7.51-2.27-22.75-13.56-35-13.56c-12.25,0-24.88,11.29-34.21,13.56H26.67
		c-1.99,0-3.6,1.61-3.6,3.6v70.01c0,1.99,1.61,3.6,3.6,3.6h130.17c1.99,0,3.6-1.61,3.6-3.6V56.22
		C160.45,54.23,158.83,52.62,156.84,52.62z"/>
	<g>
		<g id="layer1_00000115487401056467239590000009167906006976505484_" transform="translate(766.43375,-142.67784)">
			<g id="g6205_00000036962970303082006960000010276487406587314333_">
				<path id="path3627_00000163776761795385771110000018105985807848973953_" class="st23" d="M-661.9,199.02
					c-0.01,0-0.1-0.05-0.19-0.11c-0.25-0.17-0.43-0.37-0.59-0.67c-0.06-0.11-0.13-0.19-0.19-0.25c-0.1-0.08-0.32-0.16-0.5-0.19
					c-0.05-0.01-0.19-0.05-0.31-0.09c-0.38-0.13-0.38-0.13-0.46-0.05c-0.13,0.14-0.15,0.21-0.14,0.46c0.01,0.13,0.02,0.25,0.03,0.27
					c0.01,0.03-0.01,0.07-0.07,0.14l-0.09,0.1l-0.37-0.02c-0.45-0.02-0.74,0.02-1.14,0.14c-0.29,0.09-0.3,0.09-0.55,0.24
					c-0.15,0.09-0.19,0.1-0.32,0.1l-0.14,0l-0.01,0.16c-0.01,0.19-0.05,0.23-0.27,0.35c-0.18,0.1-0.42,0.17-0.63,0.2
					c-0.12,0.02-0.16,0.01-0.2-0.02c-0.07-0.04-0.07-0.1,0-0.24c0.1-0.21,0.5-0.66,0.71-0.81c0.04-0.03,0.15-0.12,0.24-0.2
					s0.18-0.15,0.21-0.16c0.03-0.01,0.21-0.04,0.4-0.08c0.57-0.12,0.97-0.26,1.1-0.4c0.07-0.08,0.09-0.27,0.03-0.5
					c-0.08-0.37-0.08-0.91,0.01-1.09c0.09-0.17,0.34-0.32,0.58-0.33c0.05,0,0.1-0.01,0.1-0.02c0-0.01-0.1-0.07-0.21-0.15
					c-0.5-0.31-0.88-0.6-1.34-1c-0.24-0.21-0.25-0.22-0.36-0.22c-0.06,0-0.28-0.03-0.48-0.06c-0.61-0.1-0.6-0.1-0.92,0.02l-0.28,0.1
					l-0.05,0.16c-0.03,0.09-0.08,0.3-0.11,0.47c-0.05,0.28-0.05,0.34-0.03,0.51c0.04,0.32,0.05,0.3-0.11,0.38
					c-0.13,0.06-0.14,0.07-0.12,0.13c0.01,0.03,0.07,0.08,0.13,0.12c0.06,0.03,0.14,0.09,0.17,0.12c0.05,0.05,0.06,0.07,0.05,0.16
					c-0.01,0.05-0.03,0.13-0.05,0.16c-0.02,0.03-0.05,0.11-0.06,0.16c-0.01,0.06-0.04,0.14-0.06,0.18
					c-0.06,0.09-0.17,0.19-0.23,0.19c-0.05,0-0.25-0.26-0.29-0.4c-0.02-0.06-0.04-0.2-0.04-0.32c0-0.12-0.02-0.32-0.04-0.44
					c-0.03-0.19-0.03-0.24,0-0.39c0.04-0.19,0.2-0.78,0.3-1.05c0.04-0.1,0.07-0.26,0.08-0.4c0.03-0.33,0.1-0.41,0.5-0.55
					c0.21-0.07,0.83-0.31,0.98-0.38l0.08-0.03l-0.13-0.14c-0.07-0.07-0.18-0.22-0.25-0.31c-0.13-0.19-0.39-0.7-0.42-0.83
					c-0.01-0.05-0.06-0.12-0.13-0.19c-0.06-0.06-0.15-0.15-0.19-0.21s-0.13-0.14-0.19-0.18c-0.1-0.07-0.11-0.07-0.41-0.07
					c-0.17,0-0.41,0.01-0.54,0.03s-0.29,0.04-0.34,0.05c-0.05,0.01-0.14,0-0.2-0.02c-0.12-0.04-0.19-0.03-0.43,0.06
					c-0.2,0.07-0.41,0.08-0.54,0.02c-0.11-0.06-0.26-0.22-0.26-0.29c0-0.1,0.03-0.12,0.36-0.23c0.13-0.04,0.25-0.08,0.28-0.09
					s0.08-0.01,0.12,0c0.12,0.03,0.33,0.02,0.44-0.01c0.09-0.03,0.17-0.03,0.35-0.02c0.27,0.02,0.78-0.04,1.07-0.11
					c0.26-0.07,0.44-0.06,0.56,0.03c0.05,0.04,0.14,0.09,0.2,0.11c0.08,0.03,0.15,0.1,0.29,0.27c0.11,0.13,0.27,0.29,0.37,0.37
					c0.1,0.08,0.23,0.2,0.29,0.27l0.12,0.13l0.12-0.13c0.1-0.11,0.17-0.16,0.39-0.26c0.22-0.11,0.26-0.14,0.25-0.17
					c-0.01-0.02,0-0.06,0.01-0.09c0.02-0.04,0.04-0.05,0.11-0.04c0.07,0.01,0.09,0,0.21-0.11c0.07-0.07,0.15-0.13,0.17-0.13
					s0.11-0.05,0.19-0.1c0.17-0.12,0.55-0.28,0.74-0.32l0.14-0.03l-0.01-0.13c-0.01-0.07-0.01-0.14-0.02-0.14
					c-0.01-0.01-0.04,0.01-0.08,0.03c-0.1,0.06-0.28,0.05-0.34-0.01c-0.06-0.06-0.07-0.14,0-0.18c0.03-0.02,0.04-0.04,0.02-0.06
					c-0.02-0.02-0.05-0.01-0.12,0.01c-0.2,0.08-0.3,0.03-0.35-0.18c-0.01-0.06-0.04-0.13-0.05-0.15c-0.02-0.03-0.02-0.06,0.02-0.14
					c0.03-0.06,0.05-0.15,0.06-0.2c0.02-0.14,0.09-0.21,0.21-0.21c0.06,0,0.15-0.03,0.26-0.08c0.09-0.04,0.32-0.15,0.51-0.24
					c0.19-0.09,0.35-0.17,0.35-0.17c0-0.02-0.14-0.09-0.17-0.09c-0.02,0-0.07,0.02-0.12,0.05c-0.11,0.06-0.13,0.06-0.26,0.01
					c-0.13-0.05-0.14-0.11-0.01-0.09c0.09,0.01,0.1,0.01,0.18-0.07c0.07-0.07,0.08-0.09,0.07-0.14c-0.01-0.03-0.02-0.12-0.02-0.21
					s-0.01-0.18-0.02-0.2c-0.03-0.07,0.02-0.04,0.07,0.04c0.04,0.08,0.21,0.22,0.24,0.19c0.01-0.01-0.01-0.04-0.03-0.07
					c-0.07-0.07-0.18-0.34-0.2-0.45c-0.01-0.12,0.01-0.12,0.06,0c0.09,0.19,0.18,0.26,0.42,0.29c0.07,0.01,0.15,0.03,0.18,0.04
					c0.05,0.01,0.06,0.01,0.06-0.03c0-0.02,0.02-0.12,0.05-0.21c0.05-0.18,0.16-0.33,0.21-0.3c0.05,0.03,0.25,0.48,0.27,0.59
					c0.02,0.12,0.07,0.21,0.11,0.21c0.02,0,0.03-0.05,0.02-0.25c0-0.14-0.02-0.29-0.03-0.33c-0.03-0.1-0.03-0.14,0-0.18
					c0.04-0.07,0.32,0.14,0.45,0.34l0.04,0.06l0.09-0.05c0.05-0.03,0.12-0.06,0.16-0.09c0.12-0.06,0.26-0.05,0.43,0.03
					c0.12,0.06,0.16,0.1,0.21,0.19c0.07,0.14,0.14,0.16,0.31,0.12c0.11-0.03,0.21-0.08,0.29-0.16c0.03-0.03,0.04-0.02,0.04,0.11
					c0.01,0.11,0,0.16-0.04,0.23c-0.03,0.05-0.04,0.09-0.04,0.09c0.01,0.01,0.07-0.02,0.13-0.05s0.15-0.07,0.19-0.07l0.07-0.01
					l-0.05,0.08l-0.05,0.08l0.06,0.03c0.09,0.05,0.17,0.14,0.23,0.25c0.04,0.09,0.05,0.1,0.15,0.09c0.05,0,0.1,0,0.1,0.01
					c0,0.03-0.2,0.08-0.25,0.06c-0.03-0.01-0.05-0.01-0.05,0.01c0,0.05,0.11,0.14,0.17,0.14c0.08,0,0.09,0.04,0.04,0.09
					c-0.04,0.04-0.07,0.05-0.13,0.03c-0.1-0.02-0.11,0.02-0.01,0.13c0.14,0.16,0.17,0.28,0.1,0.43c-0.04,0.08-0.04,0.09,0.01,0.16
					c0.07,0.12,0.06,0.35-0.03,0.58c-0.04,0.1-0.07,0.19-0.08,0.19s-0.02-0.06-0.02-0.13c-0.01-0.15-0.08-0.32-0.14-0.33
					c-0.07-0.01-0.05,0.11,0.05,0.34c0.09,0.21,0.13,0.41,0.11,0.54c-0.02,0.1-0.06,0.09-0.14-0.02c-0.04-0.05-0.07-0.09-0.09-0.09
					c-0.03,0-0.01,0.12,0.04,0.25c0.05,0.12,0.03,0.24-0.04,0.45c-0.06,0.17-0.13,0.47-0.12,0.5c0.01,0.01,0,0.03-0.01,0.03
					c-0.01,0.01-0.02,0-0.02-0.02c0-0.02-0.02-0.06-0.04-0.09c-0.02-0.03-0.06-0.11-0.08-0.18c-0.05-0.15-0.13-0.32-0.15-0.32
					c-0.01,0,0.01,0.08,0.04,0.18c0.03,0.1,0.06,0.23,0.06,0.3c0,0.07,0.01,0.12,0.02,0.12s0.02,0.01,0.02,0.03s0.04,0.09,0.08,0.15
					c0.05,0.07,0.08,0.13,0.07,0.13s-0.06-0.03-0.13-0.07l-0.12-0.08l-0.05,0.14c-0.1,0.29-0.12,0.34-0.14,0.34
					c-0.01,0-0.01-0.13-0.01-0.28c0.01-0.23,0-0.28-0.02-0.28c-0.02,0-0.04,0.03-0.05,0.1c-0.01,0.1-0.05,0.19-0.16,0.38
					c-0.1,0.18-0.17,0.25-0.3,0.31c-0.07,0.03-0.15,0.07-0.17,0.08s-0.07,0.02-0.1,0.03c-0.05,0.01-0.09,0.05-0.14,0.12
					c-0.15,0.24-0.27,0.32-0.42,0.3c-0.09-0.02-0.11-0.06-0.04-0.06c0.03,0,0.06-0.03,0.09-0.06c0.04-0.05,0.04-0.11,0.04-0.41
					c0-0.19-0.01-0.37-0.03-0.41c-0.02-0.05-0.02-0.04-0.03,0.06c0,0.2-0.05,0.5-0.1,0.63c-0.05,0.12-0.14,0.22-0.25,0.27
					c-0.08,0.03-0.09,0.01-0.04-0.1c0.02-0.06,0.04-0.19,0.05-0.34c0.01-0.21,0-0.24-0.03-0.24c-0.05,0-0.11,0.2-0.1,0.32
					c0.01,0.06,0,0.08-0.04,0.09c-0.06,0.02-0.06,0.02,0,0.17c0.06,0.16,0.1,0.23,0.15,0.23c0.05,0,0.14,0.11,0.14,0.16
					c0,0.06,0.07,0.12,0.14,0.12c0.08,0,0.11,0.04,0.13,0.18c0.02,0.12,0.01,0.12,0.41,0.3c0.1,0.05,0.25,0.11,0.32,0.15
					c0.2,0.09,0.58,0.31,0.73,0.43c0.07,0.05,0.14,0.1,0.15,0.1c0.01,0,0.04,0,0.05,0.01s0.12,0.1,0.24,0.21
					c0.19,0.19,0.21,0.21,0.19,0.26c-0.02,0.04-0.02,0.06,0,0.08c0.02,0.03,0.03,0.02,0.07-0.04c0.1-0.2,0.28-0.49,0.4-0.64
					c0.25-0.31,0.4-0.39,0.72-0.39c0.27,0,0.44,0.07,0.62,0.27c0.25,0.27,0.33,0.51,0.3,0.95l-0.02,0.27l0.12,0.04
					c0.17,0.06,0.36,0.2,0.41,0.31c0.03,0.06,0.09,0.13,0.18,0.2c0.16,0.12,0.31,0.33,0.42,0.54c0.06,0.13,0.07,0.18,0.07,0.34
					c0,0.17,0.01,0.2,0.08,0.34c0.11,0.22,0.12,0.47,0.02,0.84c-0.02,0.07-0.03,0.14-0.02,0.15s0.05-0.01,0.09-0.05
					c0.17-0.13,0.44-0.12,0.59,0.03c0.05,0.05,0.09,0.07,0.15,0.07c0.05,0,0.07,0.01,0.06,0.02c-0.01,0.01-0.05,0.02-0.09,0.02
					c-0.04,0-0.09,0-0.09,0.01c-0.01,0.01-0.06,0.02-0.12,0.02c-0.13,0-0.2,0.04-0.33,0.17c-0.12,0.12-0.14,0.2-0.1,0.33
					c0.03,0.13,0.03,0.19,0,0.19c-0.04,0-0.2-0.08-0.27-0.14c-0.03-0.03-0.1-0.05-0.15-0.05c-0.08-0.01-0.1-0.02-0.19-0.14
					c-0.06-0.07-0.11-0.18-0.13-0.23c-0.03-0.08-0.03-0.09-0.11-0.09c-0.11,0-0.42-0.15-0.56-0.28c-0.16-0.14-0.23-0.3-0.24-0.56
					l-0.01-0.21l-0.18,0c-0.13,0-0.19-0.01-0.25-0.05c-0.08-0.05-0.2-0.19-0.27-0.34l-0.05-0.1l-0.06,0.06
					c-0.03,0.03-0.07,0.05-0.09,0.05c-0.01-0.01-0.03-0.07-0.03-0.14c-0.01-0.08-0.04-0.19-0.1-0.31c-0.09-0.17-0.09-0.2-0.1-0.43
					c-0.01-0.27,0.03-0.4,0.14-0.51c0.06-0.06,0.21-0.28,0.23-0.36c0.02-0.06-0.02-0.08-0.12-0.08c-0.05,0-0.15,0.04-0.28,0.12
					c-0.19,0.11-0.21,0.12-0.34,0.11c-0.08-0.01-0.16-0.02-0.18-0.03c-0.04-0.02-0.04-0.01-0.03,0.05c0.09,0.4,0.08,0.89-0.02,1.18
					c-0.08,0.22-0.1,0.27-0.28,0.56c-0.04,0.07-0.09,0.19-0.11,0.29c-0.02,0.09-0.05,0.18-0.06,0.19c-0.04,0.02,0.04,0.22,0.2,0.5
					c0.14,0.24,0.21,0.32,0.45,0.47c0.06,0.04,0.15,0.12,0.19,0.17c0.09,0.12,0.1,0.2,0.04,0.52c-0.05,0.28-0.02,0.76,0.1,1.34
					c0.03,0.17,0.06,0.32,0.06,0.35c0,0.07-0.06,0.13-0.13,0.11c-0.03-0.01-0.06-0.01-0.06,0.01c0,0.01-0.04,0.06-0.08,0.11
					c-0.06,0.07-0.08,0.1-0.06,0.13c0.01,0.02,0.02,0.06,0.02,0.07c0,0.06,0.08,0.23,0.13,0.24c0.02,0.01,0.04,0.02,0.04,0.03
					c0,0.01-0.03,0.06-0.05,0.12c-0.04,0.11-0.05,0.11-0.23,0.17c-0.27,0.09-0.5,0.1-0.67,0.02l0,0c-0.17-0.07-0.18-0.1-0.11-0.21
					c0.03-0.05,0.06-0.1,0.06-0.12c0-0.02,0.04-0.07,0.08-0.11c0.08-0.08,0.29-0.51,0.34-0.69c0.04-0.18,0.05-0.59,0.01-0.86
					c-0.03-0.23-0.05-0.29-0.13-0.44c-0.12-0.21-0.33-0.48-0.46-0.58c-0.06-0.04-0.18-0.15-0.27-0.23c-0.2-0.18-0.38-0.32-0.4-0.32
					L-661.9,199.02z M-662.68,192.65c0.07-0.08,0.16-0.17,0.2-0.2c0.11-0.11,0.42-0.52,0.45-0.61c0.02-0.05,0.04-0.08,0.05-0.08
					c0.02,0.01,0.07-0.04,0.15-0.17c0.03-0.06,0.1-0.16,0.14-0.23c0.15-0.23,0.26-0.48,0.28-0.59c0.01-0.06,0.03-0.16,0.05-0.22
					c0.04-0.12,0.04-0.38,0-0.45c-0.04-0.07-0.07-0.05-0.05,0.04c0.03,0.21-0.11,0.74-0.29,1.07c-0.14,0.27-0.51,0.78-0.85,1.19
					c-0.09,0.11-0.29,0.39-0.28,0.39C-662.82,192.79-662.75,192.73-662.68,192.65L-662.68,192.65z M-664.25,190.68
					c0-0.08-0.06-0.28-0.09-0.29c-0.03-0.01-0.04,0.17-0.01,0.27C-664.33,190.71-664.25,190.73-664.25,190.68z M-663.67,190.59
					c0.12-0.04,0.25-0.1,0.28-0.12l0.06-0.05l-0.15-0.01c-0.1-0.01-0.17-0.03-0.21-0.06c-0.05-0.04-0.1-0.05-0.23-0.05
					c-0.21,0-0.31,0.02-0.31,0.06c0,0.02,0.02,0.09,0.04,0.15c0.02,0.07,0.04,0.13,0.05,0.15
					C-664.13,190.7-663.94,190.67-663.67,190.59L-663.67,190.59z M-687.41,198.86l-0.16,0.11c-0.09,0.06-0.21,0.13-0.28,0.16
					c-0.06,0.03-0.19,0.13-0.28,0.22c-0.09,0.09-0.26,0.25-0.37,0.35c-0.12,0.1-0.22,0.22-0.24,0.27c-0.03,0.07-0.04,0.17-0.03,0.64
					c0,0.31,0.01,0.58,0.02,0.6c0.01,0.02,0.07,0.08,0.14,0.13c0.1,0.07,0.13,0.11,0.15,0.19c0.01,0.06,0.05,0.14,0.09,0.19
					c0.09,0.14,0.29,0.56,0.28,0.6c0,0.02-0.03,0.05-0.07,0.07c-0.08,0.04-0.42,0.04-0.57-0.01l0,0c-0.06-0.02-0.12-0.03-0.13-0.03
					c-0.05,0-0.25-0.19-0.28-0.27c-0.04-0.09-0.04-0.09,0.02-0.21c0.09-0.18,0.1-0.21,0.03-0.27c-0.04-0.04-0.1-0.06-0.17-0.07
					c-0.17-0.02-0.18-0.03-0.18-0.25c0-0.11,0.02-0.27,0.03-0.36c0.05-0.24,0.04-1.15-0.02-1.36c-0.02-0.09-0.03-0.18-0.03-0.21
					c0.03-0.11,0.12-0.21,0.22-0.25c0.16-0.05,0.3-0.21,0.44-0.5l0.12-0.25l-0.04-0.18c-0.02-0.12-0.06-0.22-0.11-0.3
					c-0.18-0.29-0.21-0.34-0.29-0.56c-0.1-0.29-0.11-0.78-0.02-1.18c0.01-0.06,0.01-0.07-0.03-0.05c-0.02,0.01-0.11,0.02-0.18,0.03
					c-0.13,0.01-0.15,0-0.34-0.11c-0.13-0.08-0.23-0.12-0.28-0.12c-0.1,0-0.14,0.03-0.12,0.08c0.03,0.07,0.17,0.29,0.23,0.36
					c0.11,0.12,0.15,0.25,0.14,0.51c-0.01,0.23-0.01,0.25-0.1,0.43c-0.06,0.12-0.09,0.22-0.1,0.31c-0.01,0.07-0.02,0.13-0.03,0.14
					c-0.01,0.01-0.05-0.01-0.09-0.05l-0.06-0.06l-0.05,0.1c-0.07,0.15-0.19,0.29-0.27,0.34c-0.06,0.03-0.12,0.05-0.25,0.05l-0.18,0
					l-0.01,0.21c-0.01,0.26-0.09,0.42-0.25,0.56c-0.14,0.12-0.45,0.28-0.56,0.28c-0.08,0-0.09,0.01-0.11,0.09
					c-0.01,0.05-0.07,0.15-0.13,0.23c-0.09,0.12-0.11,0.14-0.19,0.14c-0.05,0-0.12,0.03-0.15,0.05c-0.07,0.05-0.23,0.14-0.27,0.14
					c-0.04,0-0.04-0.06,0-0.19c0.04-0.13,0.01-0.21-0.1-0.33c-0.12-0.13-0.2-0.17-0.33-0.17c-0.06,0-0.11-0.01-0.12-0.02
					c-0.01-0.01-0.05-0.01-0.09-0.01c-0.04,0-0.08,0-0.09-0.02c-0.01-0.02,0.01-0.02,0.06-0.02c0.06,0,0.1-0.02,0.15-0.07
					c0.14-0.15,0.41-0.16,0.59-0.03c0.04,0.03,0.08,0.05,0.09,0.05c0.01-0.01,0-0.07-0.02-0.15c-0.06-0.21-0.07-0.33-0.07-0.52
					c0.01-0.14,0.02-0.2,0.08-0.32c0.07-0.13,0.08-0.17,0.08-0.34c0-0.16,0.01-0.2,0.07-0.34c0.1-0.22,0.26-0.42,0.42-0.54
					c0.09-0.07,0.15-0.14,0.18-0.2c0.05-0.11,0.24-0.25,0.41-0.31l0.12-0.04l-0.02-0.27c-0.03-0.44,0.05-0.68,0.3-0.95
					c0.18-0.19,0.35-0.27,0.62-0.27c0.32,0,0.47,0.08,0.72,0.39c0.12,0.15,0.3,0.43,0.4,0.64c0.03,0.07,0.04,0.07,0.07,0.04
					c0.02-0.03,0.02-0.05,0-0.08c-0.02-0.04,0-0.07,0.19-0.26c0.12-0.11,0.22-0.21,0.24-0.21c0.01,0,0.04,0,0.05-0.01
					c0.01,0,0.08-0.05,0.15-0.1c0.15-0.11,0.53-0.34,0.73-0.43c0.08-0.03,0.22-0.1,0.32-0.15c0.4-0.18,0.39-0.18,0.41-0.3
					c0.02-0.14,0.05-0.18,0.13-0.18c0.07,0,0.14-0.06,0.14-0.12c0-0.05,0.09-0.16,0.14-0.16c0.05,0,0.15-0.19,0.18-0.32
					c0.01-0.06,0.01-0.07-0.04-0.09c-0.04-0.01-0.05-0.03-0.04-0.09c0.02-0.11-0.05-0.32-0.1-0.32c-0.04,0-0.04,0.02-0.04,0.13
					c0,0.18,0.04,0.45,0.07,0.48c0.04,0.04,0.03,0.09-0.03,0.07c-0.21-0.07-0.34-0.33-0.34-0.73c0-0.1-0.01-0.2-0.02-0.23
					c-0.02-0.05-0.02-0.05-0.04,0.03c-0.01,0.05-0.02,0.23-0.02,0.41c0,0.26,0.01,0.32,0.04,0.38c0.02,0.04,0.06,0.06,0.09,0.06
					c0.05,0,0.05,0,0.01,0.04c-0.06,0.04-0.17,0.03-0.27-0.04c-0.04-0.03-0.11-0.11-0.16-0.19c-0.09-0.14-0.1-0.15-0.29-0.22
					c-0.25-0.09-0.28-0.11-0.35-0.2c-0.1-0.13-0.25-0.45-0.26-0.55c-0.01-0.06-0.02-0.1-0.05-0.1c-0.03,0-0.03,0.05-0.03,0.28
					c0,0.15,0,0.28-0.01,0.28c-0.01,0-0.05-0.1-0.09-0.23c-0.04-0.12-0.08-0.23-0.08-0.24c-0.01-0.01-0.06,0.02-0.13,0.06
					c-0.06,0.04-0.12,0.08-0.13,0.07c0,0,0.03-0.06,0.07-0.13c0.05-0.07,0.08-0.14,0.08-0.15c0-0.02,0.01-0.03,0.02-0.03
					s0.02-0.06,0.02-0.13c0-0.11,0.08-0.35,0.23-0.74c0.02-0.05,0.02-0.05-0.03,0c-0.03,0.03-0.08,0.11-0.11,0.2
					c-0.15,0.4-0.2,0.53-0.24,0.61c-0.04,0.08-0.06,0.09-0.05,0.03c0.01-0.04-0.09-0.4-0.14-0.53c-0.07-0.17-0.07-0.35-0.01-0.48
					c0.04-0.1,0.05-0.19,0.01-0.19c-0.01,0-0.05,0.04-0.08,0.09c-0.04,0.05-0.07,0.09-0.08,0.09c-0.01,0-0.03-0.03-0.04-0.06
					c-0.04-0.1,0.01-0.34,0.1-0.55c0.08-0.17,0.11-0.36,0.06-0.36c-0.07,0-0.17,0.22-0.17,0.39c0,0.14-0.03,0.11-0.11-0.11
					c-0.08-0.23-0.08-0.45-0.01-0.56c0.04-0.06,0.04-0.09,0.03-0.12c-0.09-0.11-0.07-0.3,0.06-0.45c0.1-0.12,0.11-0.17,0.02-0.15
					c-0.05,0.01-0.08,0-0.13-0.03c-0.07-0.06-0.06-0.09,0.03-0.09c0.04,0,0.09-0.02,0.11-0.05c0.07-0.07,0.07-0.12,0-0.1
					c-0.06,0.02-0.22-0.02-0.22-0.05c0-0.01,0.04-0.02,0.09-0.02c0.08,0,0.09,0,0.14-0.1c0.05-0.11,0.2-0.25,0.26-0.25
					c0.04,0,0.04-0.02-0.02-0.11l-0.05-0.08l0.05,0.01c0.03,0.01,0.12,0.04,0.19,0.07c0.07,0.03,0.14,0.06,0.15,0.05
					c0.01-0.01-0.01-0.05-0.04-0.1c-0.03-0.06-0.05-0.13-0.05-0.22v-0.13l0.1,0.08c0.2,0.15,0.44,0.17,0.52,0.03
					c0.07-0.13,0.12-0.18,0.24-0.24c0.2-0.1,0.4-0.1,0.52,0.01c0.03,0.02,0.07,0.05,0.11,0.06c0.05,0.01,0.07,0,0.11-0.07
					c0.08-0.13,0.33-0.34,0.4-0.34c0.03,0,0.04,0.08,0.01,0.18c-0.01,0.06-0.03,0.22-0.03,0.36c-0.01,0.23-0.01,0.25,0.03,0.25
					c0.05,0,0.08-0.07,0.12-0.23c0.01-0.06,0.07-0.21,0.13-0.33c0.11-0.24,0.15-0.27,0.23-0.17c0.05,0.07,0.13,0.27,0.15,0.39
					c0.02,0.09,0.02,0.09,0.09,0.07c0.04-0.01,0.12-0.02,0.19-0.04c0.23-0.04,0.31-0.1,0.39-0.28c0.06-0.13,0.07-0.13,0.06,0
					c-0.01,0.1-0.12,0.35-0.18,0.41c-0.05,0.05-0.07,0.11-0.02,0.11c0.05,0,0.22-0.16,0.24-0.22c0.01-0.03,0.03-0.06,0.04-0.06
					c0.01,0,0.02,0.02,0.01,0.04c-0.01,0.02-0.02,0.09-0.01,0.14c0,0.06-0.01,0.15-0.03,0.22l-0.03,0.11l0.09,0.08
					c0.08,0.07,0.1,0.08,0.18,0.07c0.14-0.02,0.12,0.04-0.02,0.09c-0.12,0.04-0.17,0.03-0.3-0.03c-0.09-0.04-0.11-0.04-0.2,0.04
					c-0.02,0.02-0.04,0.04-0.03,0.05s0.24,0.12,0.52,0.24c0.33,0.15,0.54,0.23,0.59,0.23c0.13,0,0.23,0.11,0.23,0.25
					c0,0.04,0.02,0.12,0.05,0.17c0.04,0.09,0.05,0.1,0.01,0.16c-0.02,0.03-0.04,0.1-0.05,0.14c-0.02,0.1-0.11,0.21-0.18,0.21
					c-0.03,0-0.08-0.02-0.13-0.03c-0.15-0.06-0.22-0.04-0.12,0.05c0.15,0.14-0.15,0.3-0.35,0.18c-0.04-0.02-0.07-0.03-0.08-0.03
					s-0.02,0.07-0.02,0.14c-0.02,0.15-0.03,0.13,0.18,0.17c0.15,0.02,0.49,0.17,0.68,0.29c0.09,0.06,0.19,0.11,0.22,0.11
					c0.02,0,0.1,0.06,0.17,0.13c0.12,0.12,0.13,0.13,0.21,0.11c0.07-0.01,0.09,0,0.11,0.04c0.01,0.03,0.02,0.07,0.01,0.09
					c-0.01,0.03,0.03,0.07,0.25,0.17c0.21,0.11,0.29,0.16,0.39,0.26l0.12,0.13l0.12-0.13c0.06-0.07,0.2-0.19,0.29-0.27
					c0.1-0.08,0.26-0.24,0.37-0.37c0.14-0.17,0.22-0.24,0.29-0.27c0.06-0.02,0.15-0.08,0.2-0.11c0.12-0.09,0.3-0.1,0.56-0.03
					c0.28,0.07,0.79,0.13,1.07,0.11c0.17-0.01,0.26-0.01,0.35,0.02c0.12,0.04,0.32,0.04,0.44,0.01c0.04-0.01,0.09-0.01,0.12,0
					c0.03,0.01,0.15,0.05,0.28,0.09c0.33,0.1,0.36,0.12,0.36,0.23c0,0.07-0.14,0.23-0.26,0.29c-0.13,0.07-0.34,0.06-0.54-0.02
					c-0.23-0.09-0.31-0.1-0.43-0.06c-0.06,0.02-0.15,0.03-0.2,0.02c-0.05-0.01-0.2-0.03-0.34-0.05c-0.13-0.02-0.38-0.03-0.54-0.03
					c-0.3,0-0.3,0-0.41,0.07c-0.06,0.04-0.14,0.12-0.19,0.18c-0.04,0.06-0.13,0.15-0.19,0.21c-0.07,0.06-0.12,0.13-0.13,0.19
					c-0.04,0.13-0.29,0.64-0.42,0.83c-0.07,0.1-0.18,0.24-0.25,0.31l-0.13,0.14l0.08,0.03c0.15,0.06,0.78,0.3,0.98,0.38
					c0.39,0.14,0.47,0.22,0.5,0.55c0.01,0.14,0.04,0.29,0.08,0.4c0.09,0.27,0.26,0.86,0.3,1.05c0.03,0.15,0.03,0.21,0,0.39
					c-0.02,0.12-0.04,0.32-0.04,0.44c0,0.12-0.02,0.27-0.04,0.32c-0.05,0.13-0.24,0.4-0.29,0.4c-0.05,0-0.17-0.1-0.23-0.19
					c-0.02-0.04-0.05-0.12-0.06-0.18c-0.01-0.06-0.04-0.13-0.06-0.16c-0.02-0.03-0.05-0.1-0.05-0.16c-0.01-0.09,0-0.11,0.05-0.16
					c0.03-0.03,0.11-0.09,0.17-0.12c0.06-0.04,0.12-0.09,0.13-0.12c0.02-0.05,0.01-0.06-0.12-0.13c-0.16-0.08-0.15-0.06-0.11-0.38
					c0.02-0.17,0.02-0.23-0.03-0.51c-0.03-0.17-0.08-0.38-0.11-0.47l-0.05-0.16l-0.28-0.1c-0.32-0.12-0.31-0.12-0.92-0.02
					c-0.2,0.03-0.42,0.06-0.48,0.06c-0.11,0-0.12,0.01-0.36,0.22c-0.46,0.4-0.85,0.69-1.34,1c-0.12,0.07-0.21,0.14-0.21,0.15
					s0.04,0.02,0.1,0.02c0.23,0.01,0.49,0.16,0.58,0.33c0.09,0.18,0.1,0.71,0.01,1.09c-0.05,0.23-0.04,0.42,0.03,0.5
					c0.13,0.14,0.54,0.29,1.1,0.4c0.19,0.04,0.37,0.08,0.4,0.08c0.03,0.01,0.12,0.08,0.21,0.16c0.09,0.08,0.19,0.17,0.24,0.2
					c0.22,0.15,0.62,0.61,0.71,0.81c0.06,0.14,0.06,0.19,0,0.24c-0.04,0.03-0.08,0.03-0.2,0.02c-0.21-0.03-0.44-0.11-0.63-0.2
					c-0.22-0.12-0.26-0.16-0.27-0.35l-0.01-0.16l-0.14,0c-0.13,0-0.16-0.01-0.32-0.1c-0.26-0.15-0.27-0.15-0.55-0.24
					c-0.41-0.12-0.7-0.16-1.14-0.14l-0.37,0.02l-0.09-0.1c-0.06-0.07-0.08-0.11-0.07-0.14c0.01-0.02,0.02-0.14,0.03-0.27
					c0.01-0.26-0.01-0.33-0.14-0.46c-0.07-0.07-0.07-0.07-0.18-0.04c-0.06,0.02-0.19,0.06-0.28,0.09c-0.15,0.06-0.37,0.1-0.7,0.14
					c-0.13,0.02-0.17,0.06-0.36,0.33c-0.08,0.12-0.22,0.29-0.3,0.37l-0.16,0.15L-687.41,198.86z M-686.63,192.56
					c-0.06-0.09-0.14-0.19-0.18-0.24c-0.34-0.41-0.71-0.93-0.85-1.19c-0.18-0.33-0.32-0.86-0.29-1.07c0.01-0.09-0.01-0.11-0.05-0.04
					c-0.04,0.06-0.04,0.33,0,0.45c0.02,0.06,0.04,0.15,0.05,0.22c0.02,0.11,0.13,0.36,0.28,0.59c0.04,0.07,0.11,0.17,0.14,0.23
					c0.08,0.13,0.12,0.19,0.15,0.17c0.01-0.01,0.03,0.03,0.05,0.08c0.05,0.12,0.35,0.5,0.57,0.73c0.1,0.1,0.18,0.19,0.18,0.2
					c0,0.01,0.02,0.02,0.03,0.02C-686.53,192.72-686.57,192.65-686.63,192.56L-686.63,192.56z M-685,190.58
					c0.03-0.1,0.02-0.28-0.01-0.27c-0.02,0.01-0.08,0.21-0.09,0.29C-685.11,190.66-685.02,190.64-685,190.58L-685,190.58z
					 M-685.18,190.48c0.06-0.23,0.06-0.24-0.02-0.25c-0.04-0.01-0.15-0.01-0.23-0.01c-0.13,0-0.17,0.01-0.23,0.05
					c-0.04,0.03-0.12,0.05-0.21,0.06l-0.15,0.01l0.06,0.05c0.03,0.03,0.16,0.08,0.28,0.12c0.27,0.09,0.29,0.09,0.39,0.09
					C-685.22,190.6-685.21,190.59-685.18,190.48z"/>
				<path id="path6203_00000070076371411295205740000003682426157978471829_" class="st23" d="M-682.11,199.31l0.72,0.22l0.14,0.19
					l-0.21,0.03l-0.58-0.19L-682.11,199.31L-682.11,199.31z"/>
			</g>
		</g>
		<path class="st13" d="M94.11,49.14c0.09,0.08,0.18,0.15,0.26,0.22c0-0.15-0.01-0.31-0.02-0.43c0.06,0.09,0.14,0.33,0.21,0.58
			c0.1,0.07,0.2,0.14,0.3,0.21c0-0.24,0-0.68-0.02-0.82c0.09,0.14,0.26,0.66,0.31,0.99c0.1,0.06,0.18,0.09,0.3,0.15
			c-0.01-0.45-0.08-0.94-0.12-1.19c0.18,0.34,0.35,0.84,0.42,1.31c0.11,0.04,0.23,0.08,0.34,0.12c0-0.48-0.11-1.12-0.17-1.4
			c0.21,0.37,0.4,0.98,0.46,1.48c0.15,0.04,0.31,0.08,0.47,0.11c-0.33-1.27-0.64-2.01-1.17-2.72c-0.23-0.08-0.46-0.18-0.68-0.28
			c-0.01,0.02-0.02,0.04-0.03,0.06c-0.02,0.05-0.04,0.09-0.07,0.13l-0.13,0.23l-0.24-0.1c-0.1-0.04-0.21-0.09-0.32-0.15
			c0.03,0.16,0.04,0.32,0.04,0.49C94.26,48.48,94.21,48.82,94.11,49.14L94.11,49.14z M93.47,46.8c0.02-0.06,0.04-0.13,0.06-0.19
			c0.27,0.15,0.58,0.27,0.71,0.28c-0.2-0.15-0.47-0.36-0.65-0.54c0.02-0.08,0.03-0.16,0.04-0.24c0.26,0.14,0.54,0.24,0.66,0.26
			c-0.2-0.14-0.46-0.36-0.64-0.54c0-0.1,0-0.2-0.01-0.29c0.24,0.12,0.48,0.21,0.59,0.22c-0.2-0.14-0.46-0.35-0.64-0.53
			c-0.02-0.1-0.05-0.2-0.08-0.3c0.2,0.09,0.38,0.15,0.47,0.17c-0.06-0.04-0.44-0.39-0.66-0.58c-0.15-0.26-0.35-0.5-0.58-0.7
			c1.39,0.41,2.58,2.5,1.91,3.71C94.29,47.38,93.88,47.11,93.47,46.8L93.47,46.8z M91.7,48.28c-0.85-0.9-1.23-1.76-1.23-2.62
			c0-0.75,0.42-1.49,0.97-2.03c-0.99,0.55-1.38,1.31-1.38,2.1c0,1.12,0.74,2.31,1.65,3.08c0.38-0.32,0.62-0.58,0.8-0.84
			c0.92-1.22,1.32-2.84,0.03-3.94c-0.22-0.19-0.6-0.41-0.83-0.41v0.31c0.15,0.19,0.34,0.28,0.47,0.34
			c-0.18,0.04-0.37,0.01-0.47-0.03v0.29c0.1,0.06,0.36,0.15,0.53,0.19c-0.13,0.06-0.41,0.12-0.53,0.13v0.27
			c0.13,0.03,0.38,0,0.54-0.03c-0.12,0.13-0.41,0.29-0.54,0.31v0.34c0.18-0.05,0.5-0.2,0.64-0.28c-0.11,0.19-0.38,0.43-0.64,0.6
			v0.37c0.26-0.16,0.58-0.41,0.77-0.61c-0.14,0.34-0.45,0.74-0.77,0.98v0.36c0.26-0.16,0.5-0.31,0.78-0.6
			c-0.16,0.43-0.38,0.69-0.78,0.97v0.36c0.19-0.09,0.61-0.46,0.84-0.7C92.41,47.49,92.01,48,91.7,48.28L91.7,48.28z M89.94,46.8
			c-0.41,0.31-0.83,0.58-1.18,0.72c-0.67-1.21,0.52-3.3,1.91-3.71c-0.15,0.13-0.28,0.27-0.4,0.42c-0.67,0.61-1.39,1.66-1.25,2.72
			c0.2-0.13,0.48-0.36,0.8-0.63C89.84,46.48,89.88,46.64,89.94,46.8L89.94,46.8z M95.13,46.92c0.17,0.11,0.47,0.24,0.74,0.29
			c-0.23-0.16-0.55-0.38-0.73-0.57c0-0.08-0.01-0.15-0.02-0.23c0.13,0.1,0.4,0.26,0.59,0.31c-0.17-0.14-0.5-0.48-0.65-0.64
			c-0.03-0.12-0.05-0.18-0.08-0.29c0.16,0.15,0.39,0.34,0.59,0.41c-0.23-0.25-0.51-0.56-0.79-0.89c-0.08-0.17-0.18-0.32-0.27-0.47
			c-0.07-0.11-0.16-0.22-0.24-0.32c1.34,0.93,1.95,2.47,2.58,3.25c-0.43-0.1-1.4-0.36-1.75-0.61C95.11,47.1,95.12,47.01,95.13,46.92
			L95.13,46.92z M88.26,46.74c-0.23,0.12-0.47,0.22-0.71,0.31c0.15-0.25,0.31-0.5,0.48-0.74c0.18-0.26,0.34-0.5,0.48-0.72
			c0.11-0.27,0.25-0.51,0.4-0.74c0.07-0.11,0.16-0.22,0.24-0.32c-1.34,0.93-1.95,2.47-2.58,3.25c0.66-0.16,1.23-0.35,1.75-0.59
			C88.28,47.03,88.26,46.89,88.26,46.74L88.26,46.74z M87.44,53.03c0.29,0.73,0.42,1.3,0.6,2.09l0.51-0.52
			c-0.06-0.1-0.11-0.21-0.16-0.32l-0.19,0.19c-0.15-0.63-0.26-1.11-0.44-1.65L87.44,53.03L87.44,53.03z M87.17,50.62
			c0.15-0.04,0.3-0.09,0.44-0.14c-0.04,0.28-0.14,1.1-0.15,1.21c-0.02,0.17-0.05,0.34-0.07,0.51l0.7-0.45
			c0.05,0.13,0.11,0.25,0.18,0.38l-1.44,0.93C86.92,52.61,87.1,51.38,87.17,50.62L87.17,50.62z M90.1,53.32l-0.75,2.02
			c-0.64-0.93-1.07-1.78-1.11-2.82l0.18-0.12c0.1,0.36,0.37,1.33,0.84,2l0.55-1.49C89.9,53.05,90,53.18,90.1,53.32L90.1,53.32z
			 M91.7,56.49c0.73-0.56,1.28-1.11,1.81-1.75l-0.43-1.16c-0.37,0.42-0.79,0.81-1.19,1.14l-0.19,0.16v0.28
			c0.25-0.12,0.59-0.34,0.77-0.49c-0.18,0.34-0.46,0.55-0.77,0.75v0.22c0.35-0.13,0.91-0.57,1.17-0.8
			c-0.26,0.46-0.71,0.88-1.17,1.13c-0.39-0.32-1.05-0.99-1.33-1.31l0.28-0.73c-0.11-0.11-0.22-0.23-0.32-0.35l-0.43,1.16
			C90.42,55.38,90.97,55.93,91.7,56.49L91.7,56.49z M91.7,54.49c0.72-0.61,1.46-1.33,1.88-2.14l-0.78-1.2
			c-0.29,0.29-0.6,0.57-0.9,0.82l-0.19,0.15v0.35c0.24-0.15,0.52-0.32,0.65-0.43c-0.14,0.22-0.39,0.49-0.65,0.7v0.24
			c0.39-0.23,0.82-0.58,1.02-0.75c-0.21,0.34-0.63,0.8-1.02,1.09v0.25c0.44-0.18,1.1-0.77,1.35-1c-0.26,0.48-0.89,1.13-1.35,1.38
			c-0.56-0.5-1.08-1.06-1.39-1.6l0.6-0.92c-0.1-0.1-0.21-0.2-0.31-0.3l-0.78,1.2C90.24,53.16,90.98,53.89,91.7,54.49L91.7,54.49z
			 M90.4,50.93l-1.28,1.96c-0.74-1.02-0.97-1.54-0.98-2.62c0.15-0.07,0.29-0.15,0.44-0.23c-0.03,0.28,0.01,0.75,0.04,0.93
			c0.08,0.44,0.24,0.78,0.49,1.18l0.97-1.6C90.17,50.68,90.28,50.81,90.4,50.93L90.4,50.93z M89.3,49.14
			c-0.06-0.2-0.11-0.4-0.13-0.61c-0.07,0.19-0.22,0.36-0.34,0.46c-0.53,0.42-1.06,0.69-1.67,0.89c0.19-0.63,0.44-1.23,0.83-1.78
			c0.07-0.09,0.24-0.29,0.46-0.52c-0.01-0.02-0.02-0.03-0.02-0.05c-0.01-0.02-0.02-0.04-0.03-0.06c-0.22,0.1-0.44,0.2-0.68,0.28
			c-0.53,0.71-0.84,1.45-1.17,2.72C87.6,50.24,88.46,49.89,89.3,49.14L89.3,49.14z M89.53,47.45c-0.06,0.23-0.09,0.46-0.09,0.69
			c0,1.38,0.96,2.54,2.26,3.61c1.3-1.07,2.26-2.23,2.26-3.61c0-0.22-0.03-0.45-0.09-0.69c-0.14-0.09-0.36-0.25-0.52-0.36
			c-0.15,0.36-0.36,0.71-0.62,1.05c-0.23,0.34-0.53,0.63-0.85,0.9l-0.19,0.16v0.33c0.31-0.19,0.65-0.43,0.81-0.56
			c-0.18,0.27-0.49,0.61-0.81,0.88v0.37c0.42-0.24,0.92-0.66,1.13-0.84c-0.23,0.36-0.71,0.87-1.13,1.16v0.33
			c0.43-0.19,1.1-0.82,1.36-1.06c-0.26,0.48-0.9,1.16-1.36,1.42c-1.1-0.98-1.88-1.95-1.88-3.28c0-0.28,0.07-0.51,0.16-0.81L90,47.13
			C89.85,47.24,89.69,47.35,89.53,47.45L89.53,47.45z M95.96,53.03c-0.29,0.73-0.42,1.3-0.6,2.09l-0.21-0.21
			c0.1-0.29,0.16-0.6,0.16-0.73c-0.08,0.17-0.2,0.38-0.32,0.57l-0.14-0.14c0.32-0.59,0.54-1.21,0.6-1.9L95.96,53.03L95.96,53.03z
			 M96.23,50.62c0.08,0.75,0.26,1.99,0.34,2.45l-0.38-0.25c0.04-0.31,0.01-0.64-0.02-0.87c-0.03,0.16-0.09,0.45-0.18,0.75
			l-0.28-0.18c0.05-0.29,0.07-0.57,0.06-0.79c-0.04,0.15-0.14,0.4-0.24,0.68l-0.4-0.26c0.3-0.55,0.42-1.04,0.43-1.74
			C95.78,50.48,96,50.56,96.23,50.62L96.23,50.62z M93.3,53.32c0.17-0.22,0.33-0.45,0.46-0.68l0.51,0.78l0.25-0.35
			c0.18-0.24,0.33-0.46,0.45-0.67l0.18,0.12c-0.04,1.04-0.47,1.89-1.11,2.82l-0.09-0.24c0.24-0.35,0.4-0.76,0.48-1.18
			c-0.13,0.24-0.35,0.61-0.59,0.89l-0.1-0.27c0.13-0.26,0.22-0.54,0.28-0.83c-0.09,0.16-0.22,0.36-0.37,0.59l-0.1-0.27
			c0.07-0.18,0.12-0.43,0.16-0.62c-0.06,0.11-0.16,0.26-0.25,0.38L93.3,53.32L93.3,53.32z M93.01,50.93
			c0.41-0.45,0.76-0.95,0.99-1.49c0.4,0.35,0.82,0.62,1.27,0.83c-0.01,1.08-0.24,1.6-0.98,2.62l-0.22-0.34
			c0.27-0.32,0.49-0.7,0.62-1c-0.15,0.17-0.45,0.5-0.77,0.76l-0.17-0.26c0.22-0.28,0.39-0.62,0.5-0.88
			c-0.13,0.14-0.37,0.42-0.64,0.67l-0.19-0.29c0.2-0.26,0.35-0.57,0.45-0.8c-0.12,0.13-0.35,0.36-0.59,0.59L93.01,50.93z"/>
	</g>
	<g>
		<path class="st23" d="M36.61,71.96c0.45-1.04,1.08-1.91,1.89-2.63s1.74-1.25,2.8-1.62c1.06-0.36,2.2-0.54,3.42-0.54
			c1.26,0,2.33,0.1,3.19,0.31c0.86,0.21,1.51,0.46,1.95,0.77L50,72.43h-0.47c-0.19-0.92-0.49-1.72-0.91-2.4s-0.94-1.22-1.57-1.59
			s-1.35-0.57-2.17-0.57c-1.07,0-2,0.31-2.77,0.94s-1.36,1.5-1.78,2.62c-0.41,1.12-0.62,2.45-0.62,3.97c0,1.06,0.11,2.07,0.34,3.02
			c0.23,0.96,0.56,1.81,1,2.55c0.44,0.75,0.99,1.33,1.63,1.76c0.65,0.43,1.39,0.64,2.23,0.64c0.76,0,1.46-0.18,2.08-0.54
			s1.15-0.88,1.59-1.57c0.43-0.69,0.76-1.54,0.98-2.54h0.46l-0.14,4.18c-0.27,0.2-0.67,0.39-1.19,0.57
			c-0.52,0.17-1.11,0.32-1.79,0.43c-0.67,0.11-1.39,0.17-2.16,0.17c-1.26,0-2.42-0.19-3.5-0.58c-1.08-0.39-2.02-0.95-2.81-1.69
			c-0.8-0.74-1.42-1.63-1.87-2.68s-0.67-2.24-0.67-3.57C35.93,74.19,36.15,73,36.61,71.96z"/>
		<path class="st23" d="M56.67,82.65c0.08,0.18,0.22,0.32,0.43,0.41c0.21,0.09,0.52,0.18,0.93,0.26v0.49h-6.46v-0.49
			c0.45-0.08,0.78-0.16,1-0.27c0.22-0.1,0.37-0.25,0.45-0.44s0.11-0.46,0.11-0.79V69.41c0-0.33-0.04-0.6-0.11-0.79
			s-0.22-0.34-0.45-0.44c-0.22-0.1-0.56-0.19-1-0.27v-0.49h6.46v0.5c-0.41,0.07-0.72,0.15-0.93,0.24c-0.21,0.09-0.36,0.23-0.43,0.41
			s-0.11,0.44-0.11,0.76v12.55C56.56,82.22,56.59,82.47,56.67,82.65z M54.85,75.11h10.58v0.64H54.85V75.11z M67.26,82.62
			c0.08,0.19,0.23,0.33,0.45,0.44c0.22,0.1,0.55,0.19,0.98,0.27v0.49h-6.46v-0.49c0.42-0.08,0.74-0.16,0.95-0.26
			c0.21-0.09,0.35-0.23,0.42-0.41c0.07-0.18,0.11-0.44,0.11-0.76V69.34c0-0.33-0.04-0.59-0.11-0.77c-0.07-0.18-0.21-0.32-0.42-0.41
			c-0.21-0.1-0.53-0.18-0.95-0.25v-0.49h6.46v0.49c-0.43,0.08-0.76,0.16-0.98,0.27c-0.22,0.1-0.37,0.25-0.45,0.44
			c-0.08,0.19-0.12,0.45-0.12,0.79v12.41C67.14,82.16,67.18,82.43,67.26,82.62z"/>
		<path class="st23" d="M71.05,68.58c-0.08-0.18-0.22-0.32-0.43-0.41s-0.52-0.18-0.93-0.26v-0.49h6.46v0.49
			c-0.44,0.08-0.77,0.16-1,0.27c-0.23,0.1-0.38,0.25-0.45,0.44c-0.08,0.19-0.11,0.46-0.11,0.79v8.02c0,1.24,0.19,2.26,0.57,3.07
			c0.38,0.81,0.9,1.4,1.56,1.79s1.42,0.58,2.29,0.58c1.34,0,2.42-0.48,3.23-1.44c0.81-0.96,1.21-2.29,1.19-3.99l-0.11-7.02
			c-0.01-0.62-0.05-1.1-0.14-1.43c-0.08-0.33-0.24-0.58-0.48-0.73c-0.24-0.16-0.6-0.27-1.08-0.33v-0.5h4.22v0.5
			c-0.43,0.07-0.76,0.18-0.98,0.33s-0.37,0.39-0.44,0.73c-0.08,0.33-0.12,0.81-0.14,1.42l-0.1,7.21c-0.02,1.29-0.28,2.42-0.76,3.39
			c-0.48,0.97-1.19,1.72-2.13,2.26c-0.93,0.54-2.09,0.81-3.46,0.81c-0.89,0-1.74-0.12-2.54-0.37c-0.8-0.25-1.51-0.64-2.12-1.17
			c-0.62-0.53-1.1-1.21-1.46-2.04c-0.36-0.83-0.53-1.83-0.53-3.01v-8.11C71.16,69.02,71.12,68.76,71.05,68.58z"/>
		<path class="st23" d="M100.29,80.85h-0.25l-0.23-10.42c-0.01-0.64-0.05-1.12-0.14-1.46c-0.08-0.34-0.24-0.58-0.48-0.73
			s-0.59-0.26-1.08-0.32v-0.5h4.31v0.49c-0.46,0.08-0.81,0.19-1.03,0.34c-0.23,0.15-0.38,0.4-0.46,0.73s-0.12,0.81-0.13,1.42
			l-0.15,13.4h-2.7l-9.6-14.94h0.33l0.2,11.94c0.02,0.63,0.06,1.11,0.14,1.45c0.08,0.34,0.24,0.59,0.48,0.74s0.6,0.26,1.07,0.32v0.5
			h-4.3v-0.49c0.46-0.08,0.81-0.19,1.03-0.34c0.23-0.15,0.38-0.4,0.46-0.73c0.08-0.34,0.12-0.81,0.12-1.42l0.14-11.06
			c0-0.4-0.04-0.72-0.12-0.96s-0.24-0.43-0.46-0.56c-0.22-0.14-0.54-0.25-0.94-0.33v-0.49h5.16L100.29,80.85z"/>
		<path class="st23" d="M108.39,82.65c0.08,0.18,0.22,0.32,0.43,0.41c0.21,0.09,0.52,0.18,0.93,0.26v0.49h-6.46v-0.49
			c0.45-0.08,0.78-0.16,1-0.27c0.22-0.1,0.37-0.25,0.45-0.44s0.11-0.46,0.11-0.79V69.41c0-0.33-0.04-0.6-0.11-0.79
			s-0.22-0.34-0.45-0.44c-0.22-0.1-0.56-0.19-1-0.27v-0.49h6.46v0.5c-0.41,0.07-0.72,0.15-0.93,0.24c-0.21,0.09-0.36,0.23-0.43,0.41
			s-0.11,0.44-0.11,0.76v12.55C108.28,82.22,108.32,82.47,108.39,82.65z M107.52,75.66v-0.58l2.49-0.02v0.62L107.52,75.66z
			 M109.41,75.31l4.03-4.79c0.53-0.64,0.88-1.13,1.05-1.48c0.17-0.35,0.17-0.61,0-0.78c-0.17-0.17-0.5-0.29-1-0.35v-0.49h4.79v0.49
			c-0.42,0.1-0.82,0.25-1.2,0.45c-0.38,0.2-0.78,0.48-1.2,0.84c-0.42,0.36-0.92,0.83-1.48,1.4c-0.55,0.57-1.08,1.12-1.58,1.66
			c-0.5,0.54-0.96,1.05-1.38,1.52l0.36-0.85l4.19,7.21c0.47,0.79,0.86,1.4,1.16,1.83c0.31,0.44,0.58,0.75,0.82,0.95
			s0.48,0.34,0.73,0.43v0.47h-4.33L109.41,75.31z"/>
		<path class="st23" d="M131.63,71.66h-0.46c-0.15-0.67-0.34-1.23-0.57-1.67c-0.23-0.44-0.52-0.8-0.87-1.06
			c-0.36-0.26-0.8-0.46-1.34-0.6s-1.2-0.21-2-0.24l-2.15-0.09v7.15l2.64-0.07c0.48-0.02,0.85-0.1,1.11-0.25s0.46-0.4,0.6-0.73
			c0.14-0.34,0.27-0.79,0.38-1.36h0.43v5.38h-0.43c-0.11-0.58-0.23-1.03-0.37-1.36c-0.14-0.33-0.34-0.58-0.61-0.73
			c-0.27-0.15-0.64-0.24-1.11-0.26l-2.64-0.06v7.53l2.54-0.11c0.83-0.04,1.52-0.12,2.07-0.26s1.02-0.34,1.38-0.62
			c0.37-0.28,0.66-0.68,0.89-1.18c0.23-0.5,0.42-1.14,0.59-1.91h0.46l-0.18,4.65h-12.74v-0.49c0.45-0.08,0.78-0.16,1-0.27
			c0.22-0.1,0.37-0.25,0.45-0.44c0.08-0.19,0.11-0.46,0.11-0.79V69.41c0-0.33-0.04-0.6-0.11-0.79c-0.08-0.19-0.23-0.34-0.45-0.44
			c-0.22-0.1-0.56-0.19-1-0.27v-0.49h12.21L131.63,71.66z"/>
		<path class="st23" d="M146.48,73.59c-0.31,0.53-0.73,0.97-1.26,1.32s-1.14,0.58-1.81,0.71v-0.56l2.6,5.3
			c0.4,0.78,0.73,1.37,1,1.78s0.5,0.69,0.71,0.85s0.42,0.28,0.64,0.36v0.47h-4.11l-3.67-7.57h-2.14v5.65c0,0.32,0.04,0.57,0.11,0.74
			s0.22,0.32,0.43,0.42c0.21,0.1,0.52,0.19,0.93,0.27v0.49h-6.46v-0.49c0.45-0.09,0.78-0.19,1-0.28c0.22-0.1,0.37-0.24,0.45-0.43
			c0.08-0.19,0.11-0.45,0.11-0.78V69.41c0-0.35-0.04-0.62-0.11-0.81c-0.08-0.19-0.22-0.33-0.45-0.44c-0.22-0.1-0.56-0.19-1-0.26
			v-0.49h6.68c2.28,0,3.98,0.39,5.11,1.17c1.13,0.78,1.69,1.84,1.69,3.17C146.94,72.45,146.79,73.06,146.48,73.59z M143.11,69.99
			c-0.28-0.58-0.72-1.04-1.32-1.39c-0.6-0.35-1.38-0.54-2.34-0.58l-1.01-0.03v7.69l1.25-0.05c1.17-0.05,2.1-0.38,2.79-1
			c0.7-0.62,1.04-1.52,1.04-2.68C143.53,71.23,143.38,70.57,143.11,69.99z"/>
	</g>
	<g>
		<path class="st23" d="M46.19,110.06h-0.27c-0.12-0.57-0.28-1.01-0.49-1.33c-0.21-0.32-0.5-0.54-0.87-0.68
			c-0.38-0.14-0.88-0.23-1.51-0.27l-0.39-0.02v8.93c0,0.24,0.03,0.43,0.08,0.57c0.05,0.14,0.16,0.24,0.32,0.32
			c0.16,0.07,0.4,0.13,0.72,0.18v0.29h-4.16v-0.29c0.32-0.04,0.56-0.1,0.71-0.18c0.16-0.07,0.26-0.18,0.31-0.32
			c0.05-0.14,0.08-0.33,0.08-0.57v-8.93l-0.4,0.02c-0.62,0.04-1.12,0.13-1.5,0.27c-0.38,0.14-0.67,0.36-0.87,0.67
			c-0.2,0.31-0.37,0.76-0.49,1.33h-0.27l0.1-2.64h8.79L46.19,110.06z"/>
		<path class="st23" d="M46.12,117.69c-0.39-0.33-0.59-0.75-0.59-1.28c0-0.36,0.1-0.68,0.29-0.97c0.19-0.28,0.5-0.53,0.93-0.73
			c0.43-0.21,0.99-0.38,1.68-0.53l1.94-0.41v0.35l-1.16,0.26c-0.72,0.16-1.22,0.38-1.49,0.67c-0.27,0.28-0.41,0.64-0.41,1.08
			c0,0.43,0.12,0.76,0.37,0.99c0.25,0.23,0.55,0.35,0.91,0.35c0.29,0,0.55-0.06,0.78-0.17s0.4-0.29,0.54-0.51v-3.67
			c0-0.69-0.16-1.18-0.49-1.47c-0.32-0.29-0.77-0.43-1.32-0.43c-0.34,0-0.65,0.05-0.95,0.16c-0.29,0.11-0.53,0.25-0.72,0.44
			c-0.19,0.19-0.3,0.41-0.33,0.67h-0.2c0-0.25,0.09-0.47,0.25-0.65c0.16-0.18,0.34-0.26,0.56-0.26c0.23,0,0.42,0.08,0.58,0.25
			c0.16,0.17,0.25,0.37,0.25,0.61s-0.09,0.44-0.26,0.6s-0.38,0.24-0.62,0.24c-0.24,0-0.45-0.08-0.62-0.24
			c-0.17-0.16-0.26-0.36-0.26-0.6c0-0.32,0.12-0.6,0.38-0.86c0.25-0.25,0.6-0.45,1.04-0.6c0.45-0.15,0.96-0.22,1.54-0.22
			c0.89,0,1.6,0.18,2.12,0.55c0.53,0.37,0.79,0.95,0.79,1.74v3.67c0,0.32,0.07,0.55,0.21,0.69s0.32,0.21,0.54,0.21
			c0.11,0,0.22-0.01,0.31-0.04v0.26c-0.12,0.09-0.29,0.17-0.51,0.23c-0.22,0.07-0.47,0.1-0.74,0.1c-0.26,0-0.5-0.04-0.71-0.13
			c-0.21-0.08-0.39-0.21-0.53-0.38c-0.14-0.16-0.24-0.37-0.29-0.61c-0.16,0.33-0.44,0.61-0.86,0.82c-0.42,0.22-0.9,0.32-1.46,0.32
			C47.01,118.18,46.51,118.01,46.12,117.69z"/>
		<path class="st23" d="M53.83,111.71c0.25-0.32,0.59-0.57,1.03-0.74s0.95-0.25,1.52-0.25c0.51,0,0.96,0.05,1.34,0.14
			c0.38,0.09,0.66,0.19,0.84,0.3l0.04,1.86h-0.28c-0.12-0.62-0.35-1.09-0.7-1.41c-0.35-0.32-0.76-0.49-1.23-0.49
			c-0.45,0-0.8,0.1-1.05,0.31s-0.38,0.47-0.38,0.8c0,0.32,0.12,0.58,0.36,0.77c0.24,0.19,0.58,0.35,1.01,0.49l0.57,0.18
			c0.66,0.21,1.17,0.49,1.52,0.86c0.35,0.37,0.53,0.85,0.53,1.43c0,0.46-0.14,0.86-0.41,1.18c-0.27,0.33-0.64,0.58-1.09,0.75
			c-0.45,0.17-0.94,0.26-1.46,0.26c-0.53,0-1.02-0.05-1.47-0.16s-0.8-0.25-1.05-0.41l-0.08-2h0.27c0.1,0.46,0.27,0.85,0.5,1.18
			s0.5,0.57,0.82,0.74c0.32,0.17,0.65,0.26,0.99,0.26c0.45,0,0.81-0.11,1.07-0.33c0.26-0.22,0.39-0.5,0.39-0.84
			c0-0.33-0.11-0.6-0.32-0.81c-0.21-0.21-0.55-0.38-1.01-0.53l-0.57-0.19c-0.65-0.21-1.16-0.49-1.53-0.83s-0.55-0.79-0.55-1.35
			C53.45,112.42,53.58,112.03,53.83,111.71z"/>
		<path class="st23" d="M60.7,111.41h-0.89v-0.23l2.49-1.89h0.18v1.66l1.88-0.1v0.56l-1.88-0.1v4.72c0,0.5,0.1,0.86,0.31,1.07
			c0.21,0.21,0.47,0.32,0.79,0.32c0.17,0,0.33-0.03,0.49-0.09c0.15-0.06,0.28-0.13,0.39-0.23v0.29c-0.13,0.2-0.36,0.38-0.68,0.54
			c-0.32,0.16-0.69,0.24-1.11,0.24c-0.37,0-0.71-0.07-1-0.22c-0.3-0.15-0.53-0.38-0.7-0.69c-0.17-0.31-0.26-0.72-0.26-1.23V111.41z"
			/>
		<path class="st23" d="M65.39,112.53c0.29-0.56,0.69-1,1.22-1.32c0.53-0.32,1.14-0.48,1.85-0.48c0.64,0,1.18,0.13,1.63,0.38
			c0.45,0.25,0.8,0.6,1.04,1.05c0.24,0.45,0.36,0.97,0.36,1.56c0,0.07,0,0.15-0.01,0.23c-0.01,0.08-0.02,0.14-0.03,0.2H66.2v-0.33
			l3.75-0.04l-0.12,0.12c0-0.07,0.01-0.15,0.01-0.23c0-0.08,0.01-0.18,0.01-0.28c0-0.66-0.12-1.2-0.35-1.62
			c-0.23-0.42-0.58-0.64-1.05-0.64c-0.53,0-0.94,0.23-1.24,0.7c-0.3,0.47-0.45,1.13-0.45,2c0,0.72,0.12,1.34,0.35,1.88
			s0.56,0.95,0.98,1.24c0.42,0.29,0.9,0.44,1.46,0.44c0.4,0,0.75-0.07,1.06-0.2c0.31-0.13,0.55-0.3,0.75-0.5l0.01,0.29
			c-0.24,0.36-0.6,0.66-1.09,0.88c-0.49,0.22-1.04,0.33-1.68,0.33c-0.69,0-1.31-0.15-1.86-0.46c-0.55-0.31-0.99-0.74-1.3-1.3
			c-0.32-0.56-0.47-1.21-0.47-1.96C64.96,113.73,65.1,113.09,65.39,112.53z"/>
		<path class="st23" d="M76.55,111.41h-0.89v-0.23l2.49-1.89h0.18v1.66l1.88-0.1v0.56l-1.88-0.1v4.72c0,0.5,0.1,0.86,0.31,1.07
			c0.21,0.21,0.47,0.32,0.79,0.32c0.17,0,0.33-0.03,0.49-0.09c0.15-0.06,0.28-0.13,0.39-0.23v0.29c-0.13,0.2-0.36,0.38-0.68,0.54
			c-0.32,0.16-0.69,0.24-1.11,0.24c-0.37,0-0.71-0.07-1-0.22c-0.3-0.15-0.53-0.38-0.7-0.69c-0.17-0.31-0.26-0.72-0.26-1.23V111.41z"
			/>
		<path class="st23" d="M83.39,112.04c0.2-0.39,0.51-0.71,0.93-0.96c0.42-0.25,0.91-0.37,1.47-0.37c0.73,0,1.32,0.19,1.77,0.56
			c0.46,0.37,0.68,0.94,0.68,1.71v3.99c0,0.17,0.02,0.3,0.06,0.4s0.12,0.18,0.25,0.23c0.12,0.05,0.31,0.1,0.56,0.14v0.29h-3.46
			v-0.29c0.35-0.06,0.57-0.13,0.67-0.22c0.09-0.09,0.14-0.26,0.14-0.5v-3.79c0-0.57-0.13-1-0.4-1.28c-0.27-0.28-0.65-0.42-1.14-0.42
			c-0.35,0-0.66,0.07-0.92,0.22c-0.26,0.15-0.46,0.34-0.6,0.58v4.7c0,0.25,0.04,0.41,0.14,0.5c0.09,0.09,0.31,0.17,0.67,0.22v0.29
			h-3.46v-0.29c0.37-0.06,0.61-0.14,0.72-0.24s0.16-0.27,0.16-0.53v-8.52c0-0.21-0.03-0.35-0.08-0.43
			c-0.05-0.08-0.18-0.15-0.39-0.22l-0.41-0.12v-0.26l2.66-0.31V112.04z"/>
		<path class="st23" d="M90.42,112.53c0.29-0.56,0.69-1,1.22-1.32c0.53-0.32,1.14-0.48,1.85-0.48c0.64,0,1.18,0.13,1.63,0.38
			c0.45,0.25,0.8,0.6,1.04,1.05c0.24,0.45,0.36,0.97,0.36,1.56c0,0.07,0,0.15-0.01,0.23c-0.01,0.08-0.02,0.14-0.03,0.2h-5.26v-0.33
			l3.75-0.04l-0.12,0.12c0-0.07,0.01-0.15,0.01-0.23c0-0.08,0.01-0.18,0.01-0.28c0-0.66-0.12-1.2-0.35-1.62
			c-0.23-0.42-0.58-0.64-1.05-0.64c-0.53,0-0.94,0.23-1.24,0.7c-0.3,0.47-0.45,1.13-0.45,2c0,0.72,0.12,1.34,0.35,1.88
			s0.56,0.95,0.98,1.24c0.42,0.29,0.9,0.44,1.46,0.44c0.4,0,0.75-0.07,1.06-0.2c0.31-0.13,0.55-0.3,0.75-0.5l0.01,0.29
			c-0.24,0.36-0.6,0.66-1.09,0.88c-0.49,0.22-1.04,0.33-1.68,0.33c-0.69,0-1.31-0.15-1.86-0.46c-0.55-0.31-0.99-0.74-1.3-1.3
			c-0.32-0.56-0.47-1.21-0.47-1.96C89.99,113.73,90.13,113.09,90.42,112.53z"/>
		<path class="st23" d="M100.82,118.04v-0.29c0.29-0.05,0.51-0.11,0.66-0.17s0.24-0.16,0.29-0.28c0.05-0.12,0.07-0.29,0.07-0.51
			v-8.13c0-0.22-0.02-0.38-0.07-0.51c-0.05-0.12-0.15-0.22-0.29-0.28s-0.36-0.12-0.66-0.17v-0.29h4.08v0.29
			c-0.32,0.04-0.56,0.1-0.72,0.18c-0.16,0.07-0.26,0.18-0.32,0.31c-0.05,0.13-0.08,0.32-0.08,0.56v8.94l1.26-0.05
			c0.5-0.02,0.92-0.08,1.28-0.17s0.64-0.23,0.88-0.42s0.43-0.46,0.59-0.79c0.16-0.33,0.29-0.76,0.41-1.28h0.27l-0.12,3.04H100.82z"
			/>
		<path class="st23" d="M109.81,112.53c0.29-0.56,0.69-1,1.22-1.32c0.53-0.32,1.14-0.48,1.85-0.48c0.64,0,1.18,0.13,1.63,0.38
			c0.45,0.25,0.8,0.6,1.04,1.05c0.24,0.45,0.36,0.97,0.36,1.56c0,0.07,0,0.15-0.01,0.23c-0.01,0.08-0.02,0.14-0.03,0.2h-5.26v-0.33
			l3.75-0.04l-0.12,0.12c0-0.07,0.01-0.15,0.01-0.23c0-0.08,0.01-0.18,0.01-0.28c0-0.66-0.12-1.2-0.35-1.62
			c-0.23-0.42-0.58-0.64-1.05-0.64c-0.53,0-0.94,0.23-1.24,0.7c-0.3,0.47-0.45,1.13-0.45,2c0,0.72,0.12,1.34,0.35,1.88
			s0.56,0.95,0.98,1.24c0.42,0.29,0.9,0.44,1.46,0.44c0.4,0,0.75-0.07,1.06-0.2c0.31-0.13,0.55-0.3,0.75-0.5l0.01,0.29
			c-0.24,0.36-0.6,0.66-1.09,0.88c-0.49,0.22-1.04,0.33-1.68,0.33c-0.69,0-1.31-0.15-1.86-0.46c-0.55-0.31-0.99-0.74-1.3-1.3
			c-0.32-0.56-0.47-1.21-0.47-1.96C109.38,113.73,109.52,113.09,109.81,112.53z"/>
		<path class="st23" d="M119.47,112.04c0.2-0.39,0.51-0.71,0.93-0.96c0.42-0.25,0.91-0.37,1.47-0.37c0.73,0,1.32,0.19,1.77,0.56
			c0.46,0.37,0.68,0.94,0.68,1.71v3.99c0,0.17,0.02,0.3,0.06,0.4s0.12,0.18,0.25,0.23c0.12,0.05,0.31,0.1,0.56,0.14v0.29h-3.46
			v-0.29c0.35-0.06,0.57-0.13,0.67-0.22c0.09-0.09,0.14-0.26,0.14-0.5v-3.79c0-0.57-0.13-1-0.4-1.28c-0.27-0.28-0.65-0.42-1.14-0.42
			c-0.35,0-0.66,0.07-0.92,0.22c-0.26,0.15-0.46,0.34-0.6,0.58v4.7c0,0.25,0.04,0.41,0.14,0.5c0.09,0.09,0.31,0.17,0.67,0.22v0.29
			h-3.46v-0.29c0.37-0.06,0.61-0.14,0.72-0.24s0.16-0.27,0.16-0.53v-8.52c0-0.21-0.03-0.35-0.08-0.43
			c-0.05-0.08-0.18-0.15-0.39-0.22l-0.41-0.12v-0.26l2.66-0.31V112.04z"/>
		<path class="st23" d="M128.48,116.98c0,0.26,0.05,0.44,0.16,0.53s0.34,0.18,0.72,0.24v0.29h-3.54v-0.29
			c0.37-0.06,0.61-0.14,0.72-0.24s0.16-0.27,0.16-0.53v-4.86c0-0.21-0.03-0.36-0.08-0.43c-0.05-0.08-0.18-0.15-0.39-0.21l-0.41-0.12
			v-0.26l2.66-0.31V116.98z M126.75,109.32c-0.2-0.18-0.29-0.41-0.29-0.68c0-0.27,0.1-0.5,0.29-0.68c0.2-0.18,0.43-0.27,0.7-0.27
			c0.28,0,0.51,0.09,0.71,0.27c0.19,0.18,0.29,0.41,0.29,0.68c0,0.27-0.1,0.49-0.29,0.68s-0.43,0.27-0.71,0.27
			C127.18,109.59,126.94,109.5,126.75,109.32z"/>
		<path class="st23" d="M130.75,111.86c0.28-0.36,0.67-0.64,1.15-0.84s1.01-0.3,1.6-0.3c0.29,0,0.57,0.03,0.83,0.08
			c0.26,0.05,0.5,0.12,0.71,0.2l2.43-0.15v0.55l-2.03-0.12c0.38,0.16,0.68,0.39,0.9,0.71c0.22,0.32,0.33,0.69,0.33,1.11
			c0,0.49-0.14,0.91-0.43,1.27c-0.29,0.36-0.67,0.63-1.15,0.82c-0.48,0.19-1,0.29-1.57,0.29c-0.14,0-0.27-0.01-0.41-0.02
			s-0.28-0.03-0.44-0.06c-0.29,0.06-0.52,0.16-0.68,0.3s-0.24,0.31-0.24,0.52c0,0.48,0.43,0.71,1.28,0.71h1.26
			c0.94,0,1.65,0.18,2.14,0.54s0.74,0.87,0.74,1.54c0,0.53-0.17,0.99-0.51,1.39c-0.34,0.4-0.79,0.7-1.34,0.92
			c-0.55,0.21-1.16,0.32-1.82,0.32c-1.05,0-1.89-0.16-2.53-0.49s-0.95-0.75-0.95-1.29c0-0.4,0.2-0.74,0.6-1.02
			c0.4-0.28,1.02-0.45,1.85-0.51c-0.62,0-1.12-0.13-1.51-0.38c-0.39-0.25-0.58-0.59-0.58-1.03c0-0.42,0.18-0.77,0.54-1.06
			c0.36-0.28,0.84-0.47,1.46-0.56c-0.39-0.08-0.75-0.22-1.06-0.41c-0.31-0.19-0.56-0.43-0.74-0.73c-0.18-0.3-0.27-0.64-0.27-1.03
			C130.33,112.65,130.47,112.22,130.75,111.86z M132.07,120.81c0.36,0.29,0.85,0.43,1.48,0.43c0.65,0,1.18-0.14,1.58-0.43
			c0.41-0.29,0.61-0.67,0.61-1.16c0-0.39-0.13-0.7-0.4-0.92c-0.27-0.22-0.69-0.33-1.28-0.33h-1.26c-0.42,0.05-0.74,0.2-0.95,0.43
			c-0.21,0.23-0.32,0.53-0.32,0.89C131.54,120.16,131.72,120.52,132.07,120.81z M132.48,114.55c0.26,0.38,0.61,0.56,1.05,0.56
			c0.44,0,0.78-0.18,1.03-0.53c0.25-0.36,0.37-0.84,0.37-1.45c0-0.6-0.12-1.1-0.38-1.48c-0.25-0.38-0.61-0.57-1.07-0.57
			c-0.45,0-0.8,0.18-1.04,0.54s-0.36,0.84-0.36,1.44C132.09,113.68,132.22,114.17,132.48,114.55z"/>
		<path class="st23" d="M140.64,112.04c0.2-0.39,0.51-0.71,0.93-0.96s0.91-0.37,1.47-0.37c0.73,0,1.32,0.19,1.77,0.56
			c0.46,0.37,0.68,0.94,0.68,1.71v3.99c0,0.17,0.02,0.3,0.06,0.4c0.04,0.1,0.12,0.18,0.25,0.23c0.12,0.05,0.31,0.1,0.56,0.14v0.29
			h-3.46v-0.29c0.35-0.06,0.58-0.13,0.67-0.22c0.09-0.09,0.14-0.26,0.14-0.5v-3.79c0-0.57-0.13-1-0.4-1.28
			c-0.27-0.28-0.65-0.42-1.14-0.42c-0.35,0-0.66,0.07-0.92,0.22s-0.46,0.34-0.6,0.58v4.7c0,0.25,0.04,0.41,0.14,0.5
			c0.09,0.09,0.31,0.17,0.67,0.22v0.29h-3.46v-0.29c0.37-0.06,0.61-0.14,0.72-0.24s0.16-0.27,0.16-0.53v-8.52
			c0-0.21-0.03-0.35-0.08-0.43c-0.05-0.08-0.18-0.15-0.39-0.22l-0.41-0.12v-0.26l2.66-0.31V112.04z"/>
	</g>
	<g>
		<path class="st23" d="M81.39,97.07c0,0-43.95-0.51-43.95-1.07c0-0.56,43.95-1.07,43.95-1.07V97.07z"/>
		<path class="st23" d="M102.12,94.92c0,0,43.95,0.51,43.95,1.07c0,0.56-43.95,1.07-43.95,1.07V94.92z"/>
		<path class="st13" d="M88.02,102.55h7.91l2.88-11.14h-2.25l0.57-1.96h-10.3l0.57,1.96h-2.25L88.02,102.55z"/>
	</g>
</g>
<g id="Layer_3">
</g>
</svg>
