<?xml version="1.0" encoding="utf-8"?>
<!-- Generator: Adobe Illustrator 26.0.2, SVG Export Plug-In . SVG Version: 6.00 Build 0)  -->
<svg version="1.1" xmlns="http://www.w3.org/2000/svg" xmlns:xlink="http://www.w3.org/1999/xlink" x="0px" y="0px"
	 viewBox="0 0 180 180" style="enable-background:new 0 0 180 180;" xml:space="preserve">
<style type="text/css">
	.st0{display:none;}
	.st1{display:inline;fill:#F18A00;}
	.st2{display:inline;fill:#490E67;}
	.st3{display:inline;fill:#D9B767;}
	.st4{display:inline;fill:#5B6670;}
	.st5{display:inline;fill:#7A5FA8;}
	.st6{display:inline;fill:#A12B2A;}
	.st7{display:inline;fill:#092628;}
	.st8{display:inline;fill:#003B71;}
	.st9{fill:#7A5FA8;}
	.st10{opacity:0.3;}
	.st11{fill:none;stroke:#D9B767;stroke-width:1.1175;stroke-linecap:round;stroke-miterlimit:10;}
	.st12{fill:#FFFFFF;}
	.st13{fill-rule:evenodd;clip-rule:evenodd;fill:#D9B767;}
	.st14{fill:#000F9F;}
	.st15{fill-rule:evenodd;clip-rule:evenodd;fill:#191F41;}
	.st16{fill:#003B71;}
	.st17{fill-rule:evenodd;clip-rule:evenodd;fill:#D7DEDB;}
	.st18{fill:#231F20;}
	.st19{fill:#D7DEDB;}
	.st20{opacity:0.35;}
	.st21{fill:none;stroke:#000000;stroke-width:0.6113;stroke-linecap:round;stroke-linejoin:round;stroke-miterlimit:10;}
	.st22{fill:none;stroke:#092628;stroke-width:0.6113;stroke-linecap:round;stroke-linejoin:round;stroke-miterlimit:10;}
	.st23{fill:#D9B767;}
	.st24{clip-path:url(#SVGID_00000128446211484028562210000013206715222515954601_);fill:#A2A9AD;}
	.st25{display:none;clip-path:url(#SVGID_00000128446211484028562210000013206715222515954601_);}
	.st26{display:inline;fill:#A7AEB4;}
	.st27{clip-path:url(#SVGID_00000128446211484028562210000013206715222515954601_);}
	.st28{fill:#A2A9AD;}
	.st29{clip-path:url(#SVGID_00000128446211484028562210000013206715222515954601_);fill:#7B868C;}
	.st30{fill:#5B6670;}
	.st31{clip-path:url(#SVGID_00000128446211484028562210000013206715222515954601_);fill:#323E48;}
	.st32{clip-path:url(#SVGID_00000128446211484028562210000013206715222515954601_);fill:#5B6670;}
	.st33{clip-path:url(#SVGID_00000128446211484028562210000013206715222515954601_);fill:#FFFFFF;}
	.st34{clip-path:url(#SVGID_00000128446211484028562210000013206715222515954601_);fill:#1D252C;}
	.st35{clip-path:url(#SVGID_00000128446211484028562210000013206715222515954601_);fill:#E5E5E4;}
	.st36{fill:#201747;}
	.st37{fill:#252832;}
	.st38{fill:#242731;}
	.st39{fill:#84C346;stroke:#84C346;stroke-width:0.7255;stroke-miterlimit:10;}
	.st40{fill:none;}
	.st41{fill:#002B49;}
	.st42{fill:#092628;}
	.st43{fill:#CAD5DA;stroke:#CAD5DA;stroke-width:2.1515;stroke-miterlimit:10;}
	.st44{fill:#6D52A1;}
	.st45{fill:#CAD5DA;}
	.st46{display:inline;}
	.st47{display:inline;clip-path:url(#SVGID_00000106853934314801286910000001259531497374366850_);}
	.st48{fill:url(#SVGID_00000113317142998207609710000000919685548153514411_);}
	.st49{fill:#F9B5C3;}
	.st50{fill:#F26178;}
	.st51{fill:#323E48;}
</style>
<g id="Backgrounds" class="st0">
	
		<rect x="0.14" y="0.14" transform="matrix(-1 -1.224647e-16 1.224647e-16 -1 180.1361 180.1361)" class="st6" width="179.86" height="179.86"/>
</g>
<g id="Icons">
	<g>
		<path class="st18" d="M162.26,84.63c-0.1-0.49-0.44-2.32-1.4-3.17c-0.54,0.86-1.44,3.4-2.25,4.45c-0.71,0.88-1.61,1.93-2.73,3.14
			c-1.11,1.22-2.46,2.55-4.03,3.99c-0.81,0.78-1.47,1.1-1.95,0.95c-0.49-0.14,0.63,0.26,1.12-1.03c0.98-2.64,2.17-5.28,3.58-7.93
			c1.41-2.65,2.71-4.98,3.91-7c0.38-0.58,0.7-1.07,0.98-1.48c0.27-0.4,0.62-0.84,1.06-1.32c0.43-0.53,0.85-1.09,1.22-1.7
			c0.47-0.77,0.05-3.28-0.78-3.94c-0.51-0.37-0.76,0.33-1.11,0.55c-0.35,0.22-0.61,0.48-0.77,0.77c-0.11,0.23-0.18,0.42-0.2,0.59
			c-0.03,0.17-0.1,0.31-0.2,0.43c-1.03,1.18-2.23,1.93-3.58,2.25c-1.36,0.32-1.51,2.77-2.71,2.89c-0.16,0.02-0.24,0.1-0.24,0.27
			c0.22,0.63,0.23,1.31,0.04,2.03c-0.19,0.72-0.75,1.91-1.67,3.57c0.22-0.67,0.38-1.35,0.49-2.04c0.11-0.69,0.13-1.33,0.08-1.92
			c-0.05-0.59-0.05-1.16-0.2-1.64c-0.2-0.61-0.54-2.29-1.29-2.69c-0.7-0.4-1.97,1.71-3.02,1.92c-1.06,0.21-2.23,0.74-3.5,1.59
			c-1.28,0.85-2.6,2.03-3.99,3.54c-1.38,1.51-2.81,3.47-4.27,5.88c-0.81,1.29-1.5,2.64-2.11,4.02c-0.61,0.59-1.23,1.19-1.88,1.78
			c-1.46,1.32-2.86,2.41-4.19,3.26c-1.33,0.85-2.18,1.11-2.56,0.76c-0.33-0.29-0.15-1.05,0.53-2.27c0.68-1.22,1.89-3.16,3.62-5.8
			c1.08-1.67,1.87-3.13,2.36-4.39c0.49-1.26,0.69-2.33,0.81-3.2c0.22-1.48-0.17-3.73-1.02-4.68c-0.35-0.39-0.8-0.9-1.29-1.02
			c-0.76-0.25-1.53-0.12-2.54,0.25c-1,0.37-0.04,1.13-0.63,1.56c-1.09,0.7-2.08,1.48-2.97,2.34c-0.9,0.87-1.48,1.47-1.75,1.82
			c0.92-1.65,0.54-0.73,1.08-1.73c0.54-0.99,0.81-1.52,0.81-1.57c0.11-0.01,0.27-0.15,0.49-0.41c0.22-0.26,0.41-0.56,0.57-0.9
			c0.16-0.34,0.27-0.66,0.33-0.96c0.05-0.3,0.02-1.23-0.15-1.72c-0.07-0.21-0.53-1.54-1.02-1.72c-0.28-0.1-0.27,1.27-0.86,2.41
			c-0.38,0.68-0.87,1.22-1.47,1.6c-0.6,0.38-1.24,0.67-1.91,0.87c-0.68,0.2-1.38,2.56-2.12,2.6c-0.73,0.04-1.4,0.09-1.99,0.15
			c-0.22,0.02-0.27,0.11-0.16,0.26c0.11,0.31,0.16,0.63,0.16,0.95c0,0.32-0.08,0.72-0.24,1.19c-0.16,0.47-0.39,1.03-0.69,1.68
			c-0.3,0.65-0.72,1.46-1.26,2.42c-0.71,1.31-1.67,3.04-2.89,5.2c0,0.01-0.01,0.01-0.01,0.02c-1.05,1.1-2.15,2.19-3.37,3.28
			c-1.47,1.32-2.86,2.4-4.19,3.25c-1.33,0.85-2.18,1.1-2.56,0.76c-0.33-0.29-0.15-1.05,0.53-2.27c0.68-1.22,1.89-3.15,3.62-5.78
			c1.08-1.66,1.87-3.12,2.36-4.38c0.49-1.26,0.74-2.32,0.81-3.18c0.11-1.25,0.08-3.3-0.86-4.64c-0.34-0.48-0.64-0.68-1.18-0.94
			c-0.76-0.25-1.64-0.19-2.65,0.17c-1,0.37-1.31,3.34-1.9,3.77c-1.09,0.69-0.96-0.77-1.85,0.1c-0.9,0.86-1.48,1.47-1.75,1.82
			c0.92-1.65,0.54-0.72,1.08-1.72c0.54-0.99,0.81-1.51,0.81-1.57c0.11-0.01,0.27-0.15,0.49-0.41c0.22-0.26,0.41-0.56,0.57-0.9
			c0.16-0.34,0.27-0.66,0.33-0.96c0.05-0.3-0.26-2.76-1.02-3.28c-0.28-0.19-1.54,1.12-2.14,2.25c-0.38,0.68-0.87,1.21-1.47,1.59
			c-0.6,0.38-1.24,0.67-1.91,0.87c-0.68,0.2-0.26,2.56-1,2.6c-0.73,0.04-1.4,0.09-1.99,0.15c-0.22,0.02-0.27,0.11-0.16,0.26
			c0.11,0.31,0.16,0.63,0.16,0.95c0,0.32-0.08,0.72-0.24,1.19c-0.16,0.47-0.39,1.03-0.69,1.68c-0.3,0.65-0.72,1.45-1.26,2.41
			c-0.71,1.3-1.67,3.03-2.89,5.18c-0.6,1.06-1.21,2.1-1.81,3.12c-0.49,0.55-0.99,1.1-1.52,1.61c-1.28,1.24-2.58,2.25-3.91,3.01
			c-1.33,0.77-2.56,0.99-3.7,0.66c-0.71-0.1-1.14-0.75-1.3-1.97c0.54,0.16,1.17,0.11,1.87-0.17c0.71-0.28,1.41-0.69,2.12-1.24
			c0.7-0.55,1.38-1.19,2.03-1.92c0.65-0.73,1.22-1.44,1.71-2.13c1.36-1.9,2.33-3.61,2.93-5.14c0.6-1.53,0.85-2.84,0.94-3.91
			c0.12-1.38-0.45-3.86-1.22-5.01c-0.46-0.69-0.58-0.89-1.36-1.26c-0.44-0.07-1.34,0.39-2.26,0.58c-0.92,0.2-1.44,2.83-2.69,3.6
			c-1.25,0.76-2.58,1.86-3.99,3.31c-1.41,1.45-2.77,3.38-4.07,5.8c-0.8,1.49-1.42,1.77-1.88,3.09c-0.22,0.25-0.45,0.5-0.69,0.76
			c-1.11,1.23-2.46,2.53-4.03,3.9c-0.87,0.78-1.53,2.21-1.99,2.06c-0.46-0.14-0.45-0.85,0.04-2.13c0.98-2.55,2.17-5.15,3.58-7.79
			c1.41-2.65,2.71-4.93,3.91-6.87c0.38-0.62,0.7-1.12,0.98-1.5c0.27-0.37,0.62-0.82,1.06-1.34c0.43-0.52,0.81-1.1,1.22-1.68
			c0.48-0.67-0.14-3.92-0.88-3.9c-0.42,0.01-1.62,3.25-1.79,3.53c-0.11,0.23-0.18,0.42-0.2,0.58c-0.03,0.16-0.1,0.3-0.2,0.42
			c-1.03,1.22-1.11,1.99-2.46,2.31c-1.36,0.32-2.66,0.51-3.91,0.57c-0.11,0.01-0.16,0.1-0.16,0.26c0.11,0.31,0.16,0.64,0.16,0.99
			c0,0.35-0.07,0.74-0.2,1.18c-0.14,0.44-0.37,1-0.69,1.67c-0.33,0.67-0.73,1.49-1.22,2.44c-1.19,2.3-2.31,4.49-3.34,6.56
			c-1.03,2.07-2.98,2.24-3.52,3.89c-0.54,1.65-0.77,3.01-0.69,4.07c0.08,1.06,1.29,3.35,2.75,3.63c1.13,0.17,2.2-0.33,3.5-1.2
			c1.3-0.87,2.69-2.04,4.15-3.51c1.22-1.23,2.46-2.61,3.73-4.12c-0.19,1.41-0.65,2.47-0.44,3.52c0.27,1.37,1.29,2.57,2.13,3.27
			c0.84,0.7,1.83,1,2.97,0.89c2.28-0.21,4.42-0.99,6.43-2.35c0.37-0.25,0.37-0.25,0.73-0.52c-0.47,0.75-0.57,1.23-1.06,2l8.38-0.76
			c-0.11-0.36-0.03-0.99,0.24-1.87c0.22-0.77,0.64-1.84,1.26-3.21c0.62-1.37,1.59-3.22,2.89-5.54c0.43-0.74,0.84-1.46,1.22-2.17
			c0.38-0.71,0.76-1.43,1.14-2.16c0.65-0.81,1.4-1.63,2.24-2.47c0.84-0.83,1.65-1.58,2.44-2.24c0.79-0.66,1.48-1.21,2.08-1.65
			c0.6-0.43,0.98-0.63,1.14-0.59c0.49,0.06,0.76,0.25,0.81,0.57c0.05,0.32-0.04,0.76-0.28,1.32c-0.24,0.56-0.6,1.2-1.06,1.91
			c-0.46,0.72-0.96,1.5-1.51,2.36c-1.3,2.06-2.44,3.89-3.42,5.52c-0.98,1.62-2.75,1.62-3.21,2.84c-0.46,1.22-0.64,2.26-0.53,3.11
			c0.11,0.85,1.45,2.82,2.6,3.3c0.92,0.45,2.04,0.4,3.34-0.14c1.3-0.55,2.65-1.37,4.03-2.46c1.37-1.09,2.74-2.32,4.12-3.7
			c-1.14,1.89-2.32,3.82-3.59,5.83l8.38-0.76c-0.11-0.37-0.03-0.99,0.24-1.88c0.22-0.77,0.64-1.85,1.26-3.23
			c0.62-1.38,1.59-3.23,2.89-5.56c0.43-0.74,0.84-1.46,1.22-2.17c0.38-0.71,0.76-1.43,1.14-2.17c0.65-0.81,1.4-1.64,2.24-2.47
			c0.84-0.83,1.65-1.58,2.44-2.25c0.79-0.67,1.48-1.22,2.08-1.65c0.6-0.43,0.98-0.63,1.14-0.59c0.49,0.06,0.76,0.25,0.81,0.57
			c0.05,0.32-0.04,0.76-0.28,1.32c-0.24,0.56-0.6,1.2-1.06,1.92c-0.46,0.72-0.96,1.51-1.51,2.37c-1.3,2.06-2.44,3.91-3.42,5.54
			c-0.98,1.63-2.87,1.35-3.33,2.57c-0.46,1.23-0.64,2.27-0.53,3.12c0.11,0.85,1.44,3.09,2.72,3.59c0.92,0.45,2.04,0.41,3.34-0.14
			c1.3-0.55,2.65-1.37,4.03-2.47c1.38-1.1,2.77-2.35,4.15-3.74c0.57-0.57,1.09-1.13,1.61-1.69c-0.06,0.29-0.11,0.58-0.15,0.86
			c-0.19,1.42-1.24,1.03-0.89,2.08c0.35,1.05,1.96,3.27,3.29,3.62c0.81,0.25,1.7,0.21,2.65-0.12c0.95-0.33,1.91-0.86,2.89-1.6
			c0.98-0.74,1.95-1.61,2.93-2.62c0.98-1.01,1.93-2.1,2.85-3.27c-0.71,1.91-2.15,2.05-2.13,3.26c0.03,1.22,1.37,3.31,2.78,3.58
			c1.16,0.12,2.2-0.25,3.5-1.13c1.3-0.88,2.69-2.06,4.15-3.55c1.47-1.49,2.96-3.2,4.48-5.13c1.52-1.93,3.01-3.89,4.48-5.87
			C162.33,85.86,162.39,85.24,162.26,84.63z M74.9,93.81c0.49-0.96,1.06-1.92,1.71-2.89c0.65-0.97,1.3-1.82,1.95-2.55
			c0.65-0.73,1.29-1.31,1.91-1.75c0.62-0.43,1.15-0.56,1.59-0.39c0.49,0.17,0.49,0.88,0,2.13c-0.49,1.25-1.22,2.6-2.2,4.03
			c-0.98,1.43-2.06,2.73-3.26,3.88c-1.19,1.16-2.25,1.75-3.17,1.78C73.65,96.74,74.14,95.33,74.9,93.81z M145.76,90.52
			c-1,1.39-1.97,2.56-2.89,3.52c-0.92,0.95-1.76,1.68-2.52,2.18c-0.76,0.5-1.38,0.72-1.87,0.66c-0.44-0.07-0.67-0.36-0.69-0.87
			c-0.03-0.51,0.11-1.16,0.41-1.94c0.3-0.78,0.69-1.69,1.18-2.71c0.49-1.02,1.03-2.1,1.63-3.23c0.49-0.97,1.07-1.93,1.75-2.88
			c0.68-0.96,1.37-1.83,2.08-2.63c0.7-0.8,1.34-1.43,1.91-1.89c0.57-0.46,1.02-0.68,1.34-0.66c0.43,0.07,0.64,0.54,0.61,1.4
			c-0.03,0.87-0.12,4.8,0.2,4.45C147.81,87.6,146.76,89.13,145.76,90.52z M65.3,77.9c-0.15,0.85-1.46-0.46,0.28,2.15
			c0.44,0.66,1.02,0.97,1.83,0.9c0.81-0.08,1.61-0.51,2.4-1.3c0.79-0.79,1.32-1.7,1.59-2.73c0.27-0.98,0.41-3.22-0.33-4.25
			c-0.46-0.64-1.02-0.97-1.83-0.9c-0.07,0.01-0.02,1.8-0.09,1.82c1.04-1.09,2.06-2.12,3.07-3.05c2.33-2.37,4.6-4.38,6.8-6.05
			c2.2-1.66,4.19-3.01,5.98-4.04c1.79-1.03,3.35-1.78,4.68-2.23c1.33-0.45,2.35-0.69,3.05-0.7c0.7-0.02,1.22-0.2,1.55-0.56
			c0.33-0.35,0.46-0.73,0.41-1.13c-0.05-0.4-0.57-2.72-0.97-3.03c-0.41-0.31-1.8,0.43-2.51,0.5c-0.98,0.04-2.2,0.42-3.66,1.13
			c-1.47,0.71-3.13,1.73-5.01,3.07c-1.87,1.34-3.88,2.94-6.02,4.81c-2.14,1.87-4.35,3.93-6.63,6.19
			C64.45,73.83,59.6,79.27,55.34,84.8c-4.26,5.53-8.1,11.3-11.52,17.33c0.92-2.27,2.98-3.64,3.93-6.34c0.95-2.7,1.83-5.45,2.65-8.25
			c0.81-2.8,1.53-5.59,2.16-8.37c0.62-2.78,1.03-5.37,1.22-7.76c0.19-2.39,0-4.52-0.12-6.43c-0.14-2.12-0.82-4.7-1.74-5.78
			c-0.98-1.5-2.82-1.19-5.32-0.62c-2.5,0.57-5.05,1.58-8.09,3.8c-3.04,2.22-6.26,6.07-9.36,9.75c-3.09,3.68-5.75,7.85-7.98,12.53
			c-1.19,2.61-2.55,4.33-2.82,6.08c-0.27,1.75-0.78,1.92-0.43,2.92c0.35,1,2.12,3.36,2.96,3.7c0.84,0.35,1.82,0.41,2.93,0.2
			c1.11-0.21,2.27-0.66,3.46-1.36c1.19-0.7,2.31-1.6,3.34-2.71c1.08-1.59,2.39-3.76,3.91-6.52c1.52-2.75,3.23-6.35,5.13-10.8
			c1.11-2.01-0.91-3.58-1.45-3.42c-0.49,0.05-1.11,0.92-1.21,1.41c-0.27,0.77-0.73,1.84-1.38,3.21c-0.65,1.37-1.42,2.83-2.32,4.38
			c-0.9,1.55-1.83,3.09-2.81,4.62c-0.98,1.53-1.94,2.84-2.89,3.94c-0.95,1.1-1.82,1.87-2.61,2.32c-0.79,0.45-0.8,0.47-0.83-0.14
			c-0.03-0.61,0.03-0.71,0.2-1.68c0.16-0.97,0.47-2.17,0.94-3.6c0.46-1.43,1.18-3.12,2.16-5.07c1.63-3.4,3.34-6.33,5.13-8.79
			c1.79-2.46,3.49-4.5,5.09-6.13c1.6-1.62,3.01-2.81,4.23-3.57c1.22-0.76,2.08-1.14,2.56-1.13c0.87-0.14,1.53,0.33,1.99,1.4
			c0.46,1.07,0.73,2.45,0.81,4.12c0.08,1.67-0.01,3.47-0.28,5.39c-0.27,1.92-0.68,3.6-1.22,5.04c-1.25,5.24-2.44,9.71-3.58,13.41
			c-1.14,3.7-2.2,6.81-3.17,9.33c-0.98,2.51-1.86,4.5-2.65,5.96c-0.79,1.46-4.54,1.77-5.08,2.54c-0.54,0.77,1.3,2.68,1.3,2.68
			l9.93-0.91c0.11-0.49,0.61-1.56,1.51-3.22c0.9-1.65,2.09-3.66,3.58-6.01c1.49-2.35,3.22-4.95,5.17-7.8
			c1.95-2.85,4.02-5.72,6.19-8.59C61.01,83.1,63.13,80.46,65.3,77.9z"/>
		<g>
			<path class="st19" d="M91.18,51.82c0.71-0.07,1.27,0.05,1.68,0.36c0.41,0.31,0.64,0.67,0.7,1.07c0.05,0.4-0.08,0.78-0.41,1.14
				c-0.33,0.36-0.85,0.54-1.56,0.56c-0.71,0.02-1.13,0.09-2.47,0.54c-1.34,0.46-2.91,1.21-4.72,2.25c-1.81,1.04-3.82,2.4-6.03,4.08
				c-2.22,1.67-4.5,3.71-6.85,6.09c-2.13,1.99-4.35,4.33-6.65,7.03c-2.3,2.7-4.54,5.5-6.73,8.4c-2.19,2.9-4.27,5.79-6.24,8.66
				c-1.97,2.87-3.71,5.5-5.21,7.87c-1.5,2.37-2.71,4.39-3.61,6.06c-0.9,1.67-1.41,2.75-1.52,3.24l-10.01,0.91
				c0.66-0.49,1.26-1.12,1.81-1.89c0.55-0.77,1.22-1.89,2.01-3.36c0.79-1.47,1.68-3.47,2.67-6c0.98-2.53,2.05-5.67,3.2-9.4
				c1.15-3.73,2.35-8.24,3.61-13.52c0.55-1.45,0.96-3.14,1.23-5.08c0.27-1.93,0.37-3.75,0.29-5.43c-0.08-1.69-0.36-3.07-0.82-4.15
				c-0.47-1.08-1.14-1.55-2.01-1.41c-0.49,0-1.35,0.38-2.58,1.14c-1.23,0.77-2.65,1.97-4.27,3.6c-1.61,1.64-3.32,3.69-5.13,6.18
				c-1.81,2.48-3.53,5.44-5.17,8.86c-0.98,1.97-1.71,3.67-2.17,5.11c-0.47,1.44-0.78,2.65-0.94,3.63c-0.16,0.98-0.23,1.78-0.21,2.39
				c0.03,0.61,0.04,1.08,0.04,1.4c0.49,0.65,1.13,0.75,1.93,0.3c0.79-0.45,1.67-1.23,2.63-2.34c0.96-1.11,1.93-2.43,2.91-3.97
				c0.98-1.54,1.93-3.09,2.83-4.65c0.9-1.56,1.68-3.03,2.34-4.41c0.66-1.38,1.12-2.46,1.4-3.23c0.11-0.49,0.41-0.76,0.9-0.81
				c0.55-0.16,0.77,0.03,0.66,0.58c-1.92,4.48-3.64,8.11-5.17,10.88c-1.53,2.77-2.85,4.96-3.94,6.57c-1.04,1.12-2.16,2.03-3.36,2.73
				c-1.2,0.7-2.37,1.16-3.49,1.37c-1.12,0.21-2.11,0.14-2.95-0.21c-0.85-0.35-1.45-1.03-1.81-2.04c-0.36-1.01-0.4-2.4-0.12-4.16
				c0.27-1.76,1.01-3.96,2.22-6.59c2.24-4.71,4.92-8.92,8.04-12.63c3.12-3.71,6.21-6.68,9.27-8.92c3.06-2.24,5.85-3.64,8.37-4.21
				c2.52-0.57,3.98,0.24,4.96,1.75c0.93,1.09,1.82,2.26,2.09,4.17c0.27,1.91,0.17,4.04-0.02,6.45c-0.19,2.41-0.46,5.06-1.09,7.86
				c-0.63,2.8-1.35,5.62-2.17,8.44c-0.82,2.82-1.71,5.59-2.67,8.32c-0.96,2.72-1.9,5.23-2.83,7.52c3.45-6.07,7.32-11.89,11.61-17.47
				c4.29-5.58,9.18-11.06,14.65-16.44c2.3-2.27,4.53-4.35,6.69-6.24c2.16-1.89,4.18-3.5,6.07-4.85c1.89-1.35,3.57-2.38,5.05-3.09
				C89.57,52.08,90.2,51.87,91.18,51.82z"/>
			<path class="st19" d="M70.43,90.16c0.11,0.26,0.22,0.49,0.33,0.7c0.11,0.21,0.16,0.44,0.16,0.71c0,0.27-0.08,0.52-0.25,0.75
				c-1.48,1.97-2.98,3.91-4.51,5.8c-1.53,1.89-3.04,3.58-4.51,5.07c-1.48,1.48-2.87,2.66-4.18,3.53c-1.31,0.87-2.49,1.28-3.53,1.21
				c-0.98-0.23-1.52-0.88-1.6-1.95c-0.08-1.07,0.15-2.44,0.7-4.1c0.55-1.66,1.34-3.54,2.38-5.63c1.04-2.09,2.16-4.29,3.36-6.61
				c0.49-0.96,0.9-1.78,1.23-2.46c0.33-0.68,0.56-1.24,0.7-1.68c0.14-0.44,0.21-0.84,0.21-1.19c0-0.35-0.06-0.68-0.16-0.99
				c0-0.16,0.05-0.25,0.16-0.26c1.26-0.06,2.57-0.26,3.94-0.58c1.37-0.32,2.57-1.09,3.61-2.32c0.11-0.12,0.18-0.26,0.21-0.42
				c0.03-0.16,0.1-0.36,0.21-0.59c0.16-0.28,0.42-0.54,0.78-0.76c0.35-0.22,0.62-0.29,0.78-0.2c0.38,0.29,0.38,0.73,0,1.34
				c-0.38,0.6-0.79,1.17-1.23,1.7c-0.44,0.53-0.79,0.98-1.07,1.36c-0.27,0.38-0.6,0.88-0.98,1.51c-1.2,1.95-2.52,4.25-3.94,6.92
				c-1.42,2.67-2.63,5.28-3.61,7.85c-0.49,1.29-0.51,2-0.04,2.14c0.46,0.15,1.13-0.17,2.01-0.95c1.59-1.39,2.94-2.7,4.06-3.93
				c1.12-1.24,2.04-2.29,2.75-3.17C69.2,91.89,69.88,90.97,70.43,90.16z M66.33,78.41c-0.82,0.08-1.44-0.22-1.85-0.9
				c-0.41-0.68-0.48-1.54-0.21-2.58c0.27-0.99,0.81-1.88,1.6-2.67c0.79-0.8,1.6-1.24,2.42-1.31c0.82-0.08,1.44,0.22,1.85,0.9
				c0.41,0.68,0.48,1.51,0.21,2.5c-0.27,1.04-0.81,1.96-1.6,2.76C67.96,77.9,67.15,78.33,66.33,78.41z"/>
			<path class="st19" d="M87.14,88.99c0.16,0.15,0.29,0.43,0.37,0.86c0.08,0.43,0.07,0.75-0.04,0.98c-0.16,0.83-0.75,2.09-1.76,3.77
				c-1.01,1.69-2.3,3.4-3.86,5.14c-1.56,1.74-3.35,3.29-5.37,4.67c-2.02,1.37-4.18,2.16-6.48,2.37c-1.15,0.1-2.15-0.19-2.99-0.9
				c-0.85-0.7-1.41-1.74-1.68-3.12c-0.27-1.38-0.21-3.05,0.21-5.03c0.41-1.98,1.27-4.19,2.58-6.63c1.31-2.44,2.68-4.39,4.1-5.85
				c1.42-1.46,2.76-2.57,4.02-3.34c1.26-0.77,2.35-1.25,3.28-1.45c0.93-0.2,1.61-0.26,2.05-0.19c0.71,0.15,1.27,0.54,1.68,1.18
				c0.41,0.64,0.6,1.5,0.57,2.58c-0.03,1.08-0.34,2.4-0.94,3.94c-0.6,1.54-1.59,3.27-2.95,5.18c-0.49,0.69-1.07,1.41-1.72,2.15
				c-0.66,0.74-1.34,1.38-2.05,1.93c-0.71,0.55-1.42,0.97-2.13,1.25c-0.71,0.28-1.34,0.34-1.89,0.17c0.16,1.23,0.6,1.89,1.31,1.98
				c1.15,0.33,2.39,0.1,3.73-0.67c1.34-0.77,2.65-1.78,3.94-3.04c1.28-1.25,2.46-2.61,3.53-4.06C85.7,91.43,86.53,90.13,87.14,88.99
				z M80.98,83.73c-0.44-0.17-0.97-0.04-1.6,0.39c-0.63,0.44-1.27,1.03-1.93,1.76c-0.66,0.74-1.31,1.6-1.97,2.57
				c-0.66,0.98-1.23,1.95-1.72,2.92c-0.77,1.53-1.26,2.95-1.48,4.27c0.93-0.03,2-0.63,3.2-1.8c1.2-1.16,2.3-2.47,3.28-3.91
				c0.98-1.44,1.72-2.8,2.22-4.06C81.47,84.62,81.47,83.9,80.98,83.73z"/>
			<path class="st19" d="M111.69,86.15c0.11,0.26,0.22,0.5,0.33,0.7c0.22,0.47,0.25,0.9,0.08,1.3c-0.11,0.23-0.55,0.85-1.31,1.87
				c-0.77,1.02-1.71,2.19-2.83,3.52c-1.12,1.32-2.38,2.69-3.77,4.09c-1.4,1.4-2.79,2.66-4.19,3.76c-1.39,1.1-2.75,1.93-4.06,2.48
				c-1.31,0.55-2.43,0.6-3.36,0.14c-0.93-0.4-1.45-1.03-1.56-1.89c-0.11-0.86,0.07-1.9,0.53-3.13c0.46-1.23,1.19-2.67,2.17-4.3
				c0.98-1.63,2.13-3.49,3.45-5.56c0.55-0.86,1.05-1.66,1.52-2.38c0.46-0.72,0.82-1.36,1.07-1.93c0.25-0.56,0.34-1.01,0.29-1.33
				c-0.05-0.32-0.33-0.51-0.82-0.57c-0.16-0.04-0.55,0.16-1.15,0.6c-0.6,0.44-1.3,0.99-2.09,1.66c-0.79,0.67-1.61,1.43-2.46,2.26
				c-0.85,0.84-1.6,1.67-2.26,2.48c-0.38,0.74-0.77,1.47-1.15,2.18c-0.38,0.71-0.79,1.44-1.23,2.18c-1.31,2.34-2.28,4.2-2.91,5.58
				c-0.63,1.38-1.05,2.46-1.27,3.24c-0.27,0.89-0.35,1.52-0.25,1.89L76,105.78c1.64-2.58,3.17-5.07,4.6-7.47
				c1.26-2.01,2.5-4.1,3.73-6.27c1.23-2.17,2.2-3.91,2.91-5.22c0.55-0.97,0.97-1.78,1.27-2.43c0.3-0.65,0.53-1.21,0.7-1.69
				c0.16-0.47,0.25-0.88,0.25-1.2s-0.06-0.64-0.16-0.96c-0.11-0.15-0.05-0.24,0.16-0.26c0.6-0.06,1.27-0.11,2.01-0.15
				c0.74-0.04,1.45-0.16,2.13-0.36c0.68-0.2,1.33-0.49,1.93-0.87c0.6-0.38,1.09-0.92,1.48-1.6c0.6-1.14,1.04-1.77,1.31-1.87
				c0.27-0.11,0.46-0.11,0.57-0.01c0.16,0.15,0.22,0.37,0.16,0.68c-0.06,0.3-0.16,0.63-0.33,0.97c-0.16,0.34-0.36,0.64-0.57,0.91
				c-0.22,0.27-0.38,0.4-0.49,0.41c0,0.05-0.27,0.58-0.82,1.58c-0.55,1-1.29,2.33-2.22,3.99c0.27-0.35,0.86-0.96,1.76-1.83
				c0.9-0.87,1.9-1.66,3-2.36c0.6-0.44,1.41-0.84,2.42-1.21c1.01-0.37,1.9-0.42,2.67-0.17c0.49,0.12,0.89,0.43,1.19,0.95
				c0.3,0.51,0.42,1.21,0.37,2.08c-0.06,0.87-0.33,1.94-0.82,3.21c-0.49,1.27-1.29,2.74-2.38,4.41c-1.75,2.66-2.97,4.6-3.65,5.83
				c-0.68,1.23-0.86,1.99-0.53,2.28c0.38,0.34,1.24,0.09,2.58-0.77c1.34-0.86,2.75-1.95,4.23-3.28c1.48-1.33,2.83-2.66,4.06-4
				C110.75,87.75,111.47,86.77,111.69,86.15z"/>
			<path class="st19" d="M136.17,83.98c0.11,0.26,0.22,0.5,0.33,0.7c0.22,0.47,0.25,0.9,0.08,1.3c-0.11,0.23-0.55,0.86-1.31,1.88
				c-0.77,1.03-1.71,2.2-2.83,3.53c-1.12,1.33-2.38,2.7-3.77,4.11c-1.4,1.41-2.79,2.66-4.19,3.77c-1.39,1.11-2.75,1.94-4.06,2.49
				c-1.31,0.55-2.43,0.6-3.36,0.14c-0.93-0.4-1.45-1.04-1.56-1.89c-0.11-0.86,0.07-1.91,0.53-3.15c0.46-1.24,1.19-2.68,2.17-4.32
				c0.98-1.64,2.13-3.5,3.45-5.58c0.55-0.87,1.05-1.66,1.52-2.39c0.46-0.72,0.82-1.37,1.07-1.94c0.25-0.57,0.34-1.01,0.29-1.33
				c-0.05-0.32-0.33-0.51-0.82-0.58c-0.16-0.04-0.55,0.16-1.15,0.6c-0.6,0.44-1.3,0.99-2.09,1.66c-0.79,0.67-1.61,1.43-2.46,2.27
				c-0.85,0.84-1.6,1.67-2.26,2.49c-0.38,0.74-0.77,1.47-1.15,2.18c-0.38,0.72-0.79,1.45-1.23,2.19c-1.31,2.35-2.28,4.22-2.91,5.6
				c-0.63,1.39-1.05,2.47-1.27,3.25c-0.27,0.89-0.35,1.53-0.25,1.89l-8.45,0.77c1.64-2.59,3.17-5.09,4.6-7.5
				c1.26-2.01,2.5-4.11,3.73-6.29c1.23-2.18,2.2-3.92,2.91-5.24c0.55-0.97,0.97-1.79,1.27-2.44c0.3-0.65,0.53-1.22,0.7-1.7
				c0.16-0.48,0.25-0.88,0.25-1.2s-0.06-0.65-0.16-0.96c-0.11-0.15-0.05-0.24,0.16-0.26c0.6-0.06,1.27-0.11,2.01-0.15
				c0.74-0.04,1.45-0.16,2.13-0.37c0.68-0.2,1.33-0.49,1.93-0.88c0.6-0.38,1.09-0.92,1.48-1.61c0.6-1.14,1.04-1.77,1.31-1.88
				c0.27-0.11,0.46-0.11,0.57-0.01c0.16,0.15,0.22,0.37,0.16,0.68c-0.06,0.3-0.16,0.63-0.33,0.97c-0.16,0.34-0.36,0.65-0.57,0.91
				c-0.22,0.27-0.38,0.4-0.49,0.41c0,0.05-0.27,0.58-0.82,1.59c-0.55,1-1.29,2.34-2.22,4c0.27-0.35,0.86-0.96,1.76-1.84
				c0.9-0.87,1.9-1.66,3-2.36c0.6-0.44,1.41-0.84,2.42-1.21c1.01-0.37,1.9-0.43,2.67-0.17c0.49,0.12,0.89,0.43,1.19,0.95
				c0.3,0.52,0.42,1.21,0.37,2.09c-0.06,0.88-0.33,1.95-0.82,3.22c-0.49,1.27-1.29,2.75-2.38,4.43c-1.75,2.67-2.97,4.62-3.65,5.85
				c-0.68,1.23-0.86,2-0.53,2.29c0.38,0.35,1.24,0.09,2.58-0.77c1.34-0.86,2.75-1.95,4.23-3.29c1.48-1.33,2.83-2.67,4.06-4.01
				C135.23,85.58,135.95,84.6,136.17,83.98z"/>
			<path class="st19" d="M160.76,81.64c0.16,0.26,0.3,0.49,0.41,0.7c0.22,0.53,0.16,1.02-0.16,1.49c-1.48,2-2.98,3.97-4.51,5.91
				c-1.53,1.95-3.04,3.67-4.51,5.17c-1.48,1.5-2.87,2.69-4.18,3.58c-1.31,0.89-2.49,1.26-3.53,1.14c-1.09-0.23-1.66-0.95-1.68-2.18
				c-0.03-1.22,0.31-2.8,1.03-4.72c-0.93,1.18-1.89,2.27-2.87,3.29c-0.98,1.02-1.97,1.9-2.95,2.64c-0.98,0.74-1.96,1.28-2.91,1.61
				c-0.96,0.33-1.85,0.37-2.67,0.12c-1.09-0.28-1.82-0.95-2.17-2.01c-0.35-1.06-0.44-2.3-0.25-3.73c0.19-1.43,0.63-3,1.31-4.7
				c0.68-1.7,1.52-3.33,2.5-4.89c1.48-2.43,2.91-4.4,4.31-5.92c1.4-1.52,2.73-2.71,4.02-3.57c1.28-0.86,2.46-1.39,3.53-1.6
				c1.07-0.21,2.01-0.22,2.83-0.02c0.55,0.17,0.96,0.47,1.23,0.91c0.27,0.44,0.44,0.96,0.49,1.55c0.05,0.6,0.03,1.24-0.08,1.93
				c-0.11,0.69-0.27,1.38-0.49,2.05c0.93-1.67,1.49-2.87,1.68-3.6c0.19-0.73,0.18-1.41-0.04-2.04c0-0.16,0.08-0.25,0.25-0.27
				c1.2-0.11,2.49-0.33,3.86-0.65c1.37-0.32,2.57-1.08,3.61-2.27c0.11-0.12,0.18-0.26,0.21-0.43c0.03-0.17,0.09-0.36,0.21-0.59
				c0.16-0.29,0.42-0.55,0.78-0.77c0.35-0.22,0.62-0.29,0.78-0.2c0.38,0.29,0.38,0.74,0,1.35c-0.38,0.61-0.79,1.18-1.23,1.72
				c-0.44,0.48-0.79,0.92-1.07,1.33c-0.27,0.41-0.6,0.91-0.98,1.49c-1.2,2.03-2.52,4.38-3.94,7.05c-1.42,2.67-2.63,5.34-3.61,8
				c-0.49,1.3-0.49,2.03,0,2.17c0.49,0.15,1.15-0.17,1.97-0.96c1.59-1.46,2.94-2.8,4.06-4.02c1.12-1.22,2.04-2.28,2.75-3.17
				C159.53,83.48,160.21,82.51,160.76,81.64z M137.29,94.47c0.49,0.06,1.12-0.16,1.89-0.66c0.77-0.51,1.61-1.24,2.54-2.2
				c0.93-0.96,1.9-2.14,2.91-3.54c1.01-1.4,2.06-2.95,3.16-4.63c-0.33,0.36-0.63,0.58-0.9,0.66c-0.16,0.07-0.4,0.11-0.7,0.11
				c-0.3,0-0.56-0.1-0.78-0.3c-0.27-0.25-0.41-0.53-0.41-0.86c0-0.38,0.14-0.72,0.41-1.02c0.27-0.3,0.6-0.47,0.98-0.5
				c0.22-0.02,0.46,0.04,0.74,0.18c0.27-0.95,0.42-1.87,0.45-2.74c0.03-0.88-0.18-1.35-0.62-1.42c-0.33-0.02-0.78,0.2-1.35,0.66
				c-0.57,0.46-1.22,1.1-1.93,1.9c-0.71,0.8-1.41,1.69-2.09,2.65c-0.68,0.96-1.27,1.93-1.76,2.91c-0.6,1.15-1.15,2.23-1.64,3.26
				c-0.49,1.03-0.89,1.94-1.19,2.73c-0.3,0.79-0.44,1.44-0.41,1.96C136.62,94.11,136.85,94.4,137.29,94.47z"/>
		</g>
		<g>
			<g class="st20">
				<path class="st21" d="M64.47,75.86c-0.15,0.85-0.07,1.57,0.28,2.15c0.41,0.68,1.02,0.97,1.83,0.9c0.81-0.08,1.61-0.51,2.4-1.3
					c0.79-0.79,1.32-1.7,1.59-2.73c0.27-0.98,0.2-1.8-0.2-2.48c-0.41-0.68-1.02-0.97-1.83-0.9c-0.07,0.01-0.15,0.03-0.22,0.05
					c1.04-1.09,2.06-2.12,3.07-3.05c2.33-2.37,4.6-4.38,6.8-6.05c2.2-1.66,4.19-3.01,5.98-4.04c1.79-1.03,3.35-1.78,4.68-2.23
					c1.33-0.45,2.35-0.69,3.05-0.7c0.7-0.02,1.22-0.2,1.55-0.56c0.33-0.35,0.46-0.73,0.41-1.13c-0.05-0.4-0.28-0.75-0.69-1.06
					c-0.41-0.31-0.96-0.43-1.67-0.36c-0.98,0.04-2.2,0.42-3.66,1.13c-1.47,0.71-3.13,1.73-5.01,3.07c-1.87,1.34-3.88,2.94-6.02,4.81
					c-2.14,1.87-4.35,3.93-6.63,6.19c-5.43,5.34-10.27,10.78-14.53,16.31c-4.26,5.53-8.1,11.3-11.52,17.33
					c0.92-2.27,1.86-4.76,2.81-7.46c0.95-2.7,1.83-5.45,2.65-8.25c0.81-2.8,1.53-5.59,2.16-8.37c0.62-2.78,1.03-5.37,1.22-7.76
					c0.19-2.39,0.15-4.54-0.12-6.43c-0.27-1.9-0.87-3.38-1.79-4.47c-0.98-1.5-2.71-1.97-5.21-1.4c-2.5,0.57-5.26,1.96-8.3,4.18
					c-3.04,2.22-6.11,5.16-9.2,8.84c-3.09,3.68-5.75,7.85-7.98,12.53c-1.19,2.61-1.93,4.79-2.2,6.54c-0.27,1.75-0.23,3.13,0.12,4.13
					c0.35,1,0.95,1.68,1.79,2.02c0.84,0.35,1.82,0.41,2.93,0.2c1.11-0.21,2.27-0.66,3.46-1.36c1.19-0.7,2.31-1.6,3.34-2.71
					c1.08-1.59,2.39-3.76,3.91-6.52c1.52-2.75,3.23-6.35,5.13-10.8c0.11-0.54-0.11-0.73-0.65-0.58c-0.49,0.05-0.79,0.32-0.9,0.81
					c-0.27,0.77-0.73,1.84-1.38,3.21c-0.65,1.37-1.42,2.83-2.32,4.38c-0.9,1.55-1.83,3.09-2.81,4.62c-0.98,1.53-1.94,2.84-2.89,3.94
					c-0.95,1.1-1.82,1.87-2.61,2.32c-0.79,0.45-1.42,0.35-1.91-0.3c-0.23-0.46-0.32-0.73-0.27-1.34c0.05-0.58,0.27-1.45,0.43-2.42
					c0.16-0.97,0.47-2.17,0.94-3.6c0.46-1.43,1.18-3.12,2.16-5.07c1.63-3.4,3.34-6.33,5.13-8.79c1.79-2.46,3.49-4.5,5.09-6.13
					c1.6-1.62,3.01-2.81,4.23-3.57c1.22-0.76,2.08-1.14,2.56-1.13c0.87-0.14,1.53,0.33,1.99,1.4c0.46,1.07,0.73,2.45,0.81,4.12
					c0.08,1.67-0.01,3.47-0.28,5.39c-0.27,1.92-0.68,3.6-1.22,5.04c-1.25,5.24-2.44,9.71-3.58,13.41c-1.14,3.7-2.2,6.81-3.17,9.33
					c-0.98,2.51-1.86,4.5-2.65,5.96c-0.79,1.46-1.45,2.57-1.99,3.34c-0.54,0.77-1.14,1.4-1.79,1.88l9.93-0.91
					c0.11-0.49,0.61-1.56,1.51-3.22c0.9-1.65,2.09-3.66,3.58-6.01c1.49-2.35,3.22-4.95,5.17-7.8c1.95-2.85,4.02-5.72,6.19-8.59
					C60.18,81.07,62.3,78.42,64.47,75.86z M161.33,82.81c-0.11-0.21-0.24-0.44-0.41-0.69c-0.54,0.86-1.22,1.82-2.04,2.88
					c-0.71,0.88-1.61,1.93-2.73,3.14c-1.11,1.22-2.46,2.55-4.03,3.99c-0.81,0.78-1.47,1.1-1.95,0.95c-0.49-0.14-0.49-0.86,0-2.15
					c0.98-2.64,2.17-5.28,3.58-7.93c1.41-2.65,2.71-4.98,3.91-7c0.38-0.58,0.7-1.07,0.98-1.48c0.27-0.4,0.62-0.84,1.06-1.32
					c0.43-0.53,0.84-1.1,1.22-1.7c0.38-0.61,0.38-1.05,0-1.34c-0.16-0.09-0.42-0.03-0.77,0.2c-0.35,0.22-0.61,0.48-0.77,0.77
					c-0.11,0.23-0.18,0.42-0.2,0.59c-0.03,0.17-0.1,0.31-0.2,0.43c-1.03,1.18-2.23,1.93-3.58,2.25c-1.36,0.32-2.63,0.53-3.83,0.65
					c-0.16,0.02-0.24,0.1-0.24,0.27c0.22,0.63,0.23,1.31,0.04,2.03c-0.19,0.72-0.75,1.91-1.67,3.57c0.22-0.67,0.38-1.35,0.49-2.04
					c0.11-0.69,0.13-1.33,0.08-1.92c-0.05-0.59-0.22-1.1-0.49-1.54c-0.27-0.43-0.68-0.73-1.22-0.9c-0.81-0.19-1.75-0.19-2.81,0.02
					c-1.06,0.21-2.23,0.74-3.5,1.59c-1.28,0.85-2.6,2.03-3.99,3.54c-1.38,1.51-2.81,3.47-4.27,5.88c-0.81,1.29-1.5,2.64-2.11,4.02
					c-0.61,0.59-1.23,1.19-1.88,1.78c-1.46,1.32-2.86,2.41-4.19,3.26c-1.33,0.85-2.18,1.11-2.56,0.76
					c-0.33-0.29-0.15-1.05,0.53-2.27c0.68-1.22,1.89-3.16,3.62-5.8c1.08-1.67,1.87-3.13,2.36-4.39c0.49-1.26,0.76-2.33,0.81-3.2
					c0.05-0.87-0.07-1.56-0.37-2.07c-0.3-0.51-0.69-0.83-1.18-0.94c-0.76-0.25-1.64-0.2-2.65,0.17c-1,0.37-1.8,0.77-2.4,1.2
					c-1.09,0.7-2.08,1.48-2.97,2.34c-0.9,0.87-1.48,1.47-1.75,1.82c0.92-1.65,1.65-2.97,2.2-3.97c0.54-0.99,1.08-1.72,1.3-1.98
					c0.22-0.26,0.41-0.56,0.57-0.9c0.16-0.34,0.27-0.66,0.33-0.96c0.05-0.3,0-0.53-0.16-0.67c-0.11-0.1-0.3-0.09-0.57,0.01
					c-0.27,0.11-0.71,0.73-1.3,1.86c-0.38,0.68-0.87,1.22-1.47,1.6c-0.6,0.38-1.24,0.67-1.91,0.87c-0.68,0.2-1.38,0.32-2.12,0.36
					c-0.73,0.04-1.4,0.09-1.99,0.15c-0.22,0.02-0.27,0.11-0.16,0.26c0.11,0.31,0.16,0.63,0.16,0.95c0,0.32-0.08,0.72-0.24,1.19
					c-0.16,0.47-0.39,1.03-0.69,1.68c-0.3,0.65-0.72,1.46-1.26,2.42c-0.71,1.31-1.67,3.04-2.89,5.2c0,0.01-0.01,0.01-0.01,0.02
					c-1.05,1.1-2.15,2.19-3.37,3.28c-1.46,1.32-2.86,2.4-4.19,3.25c-1.33,0.85-2.18,1.1-2.56,0.76c-0.33-0.29-0.15-1.05,0.53-2.27
					c0.68-1.22,1.89-3.15,3.62-5.78c1.08-1.66,1.87-3.12,2.36-4.38c0.49-1.26,0.76-2.32,0.81-3.18c0.05-0.87-0.07-1.55-0.37-2.06
					c-0.3-0.51-0.69-0.82-1.18-0.94c-0.76-0.25-1.64-0.19-2.65,0.17c-1,0.37-1.8,0.76-2.4,1.2c-1.09,0.69-2.08,1.47-2.97,2.34
					c-0.9,0.86-1.48,1.47-1.75,1.82c0.92-1.65,1.65-2.96,2.2-3.96c0.54-0.99,1.08-1.72,1.3-1.98c0.22-0.26,0.41-0.56,0.57-0.9
					c0.16-0.34,0.27-0.66,0.33-0.96c0.05-0.3,0-0.52-0.16-0.67c-0.11-0.1-0.3-0.09-0.57,0.01c-0.27,0.11-0.71,0.73-1.3,1.86
					c-0.38,0.68-0.87,1.21-1.47,1.59c-0.6,0.38-1.24,0.67-1.91,0.87c-0.68,0.2-1.38,0.32-2.12,0.36c-0.73,0.04-1.4,0.09-1.99,0.15
					c-0.22,0.02-0.27,0.11-0.16,0.26c0.11,0.31,0.16,0.63,0.16,0.95c0,0.32-0.08,0.72-0.24,1.19c-0.16,0.47-0.39,1.03-0.69,1.68
					c-0.3,0.65-0.72,1.45-1.26,2.41c-0.71,1.3-1.67,3.03-2.89,5.18c-0.6,1.06-1.21,2.1-1.81,3.12c-0.49,0.55-0.99,1.1-1.52,1.61
					c-1.28,1.24-2.58,2.25-3.91,3.01c-1.33,0.77-2.56,0.99-3.7,0.66c-0.71-0.1-1.14-0.75-1.3-1.97c0.54,0.16,1.17,0.11,1.87-0.17
					c0.71-0.28,1.41-0.69,2.12-1.24c0.7-0.55,1.38-1.19,2.03-1.92c0.65-0.73,1.22-1.44,1.71-2.13c1.36-1.9,2.33-3.61,2.93-5.14
					c0.6-1.53,0.91-2.83,0.94-3.91c0.03-1.07-0.16-1.93-0.57-2.56c-0.41-0.63-0.96-1.02-1.67-1.17c-0.44-0.07-1.11,0-2.04,0.19
					c-0.92,0.2-2.01,0.67-3.26,1.43c-1.25,0.76-2.58,1.86-3.99,3.31c-1.41,1.45-2.77,3.38-4.07,5.8c-0.8,1.49-1.42,2.89-1.88,4.21
					c-0.22,0.25-0.45,0.5-0.69,0.76c-1.11,1.23-2.46,2.53-4.03,3.9c-0.87,0.78-1.53,1.09-1.99,0.95c-0.46-0.14-0.45-0.85,0.04-2.13
					c0.98-2.55,2.17-5.15,3.58-7.79c1.41-2.65,2.71-4.93,3.91-6.87c0.38-0.62,0.7-1.12,0.98-1.5c0.27-0.37,0.62-0.82,1.06-1.34
					c0.43-0.52,0.84-1.08,1.22-1.68c0.38-0.6,0.38-1.04,0-1.32c-0.16-0.09-0.42-0.03-0.77,0.19c-0.35,0.22-0.61,0.47-0.77,0.76
					c-0.11,0.23-0.18,0.42-0.2,0.58c-0.03,0.16-0.1,0.3-0.2,0.42c-1.03,1.22-2.23,1.99-3.58,2.31c-1.36,0.32-2.66,0.51-3.91,0.57
					c-0.11,0.01-0.16,0.1-0.16,0.26c0.11,0.31,0.16,0.64,0.16,0.99c0,0.35-0.07,0.74-0.2,1.18c-0.14,0.44-0.37,1-0.69,1.67
					c-0.33,0.67-0.73,1.49-1.22,2.44c-1.19,2.3-2.31,4.49-3.34,6.56c-1.03,2.07-1.82,3.93-2.36,5.58c-0.54,1.65-0.77,3.01-0.69,4.07
					c0.08,1.06,0.61,1.71,1.59,1.94c1.03,0.07,2.2-0.33,3.5-1.2c1.3-0.87,2.69-2.04,4.15-3.51c1.22-1.23,2.46-2.61,3.73-4.12
					c-0.19,1.41-0.19,2.64,0.02,3.69c0.27,1.37,0.83,2.4,1.67,3.1c0.84,0.7,1.83,1,2.97,0.89c2.28-0.21,4.42-0.99,6.43-2.35
					c0.37-0.25,0.73-0.52,1.09-0.79c-0.47,0.75-0.93,1.5-1.42,2.26l8.38-0.76c-0.11-0.36-0.03-0.99,0.24-1.87
					c0.22-0.77,0.64-1.84,1.26-3.21c0.62-1.37,1.59-3.22,2.89-5.54c0.43-0.74,0.84-1.46,1.22-2.17c0.38-0.71,0.76-1.43,1.14-2.16
					c0.65-0.81,1.4-1.63,2.24-2.47c0.84-0.83,1.65-1.58,2.44-2.24c0.79-0.66,1.48-1.21,2.08-1.65c0.6-0.43,0.98-0.63,1.14-0.59
					c0.49,0.06,0.76,0.25,0.81,0.57c0.05,0.32-0.04,0.76-0.28,1.32c-0.24,0.56-0.6,1.2-1.06,1.91c-0.46,0.72-0.96,1.5-1.51,2.36
					c-1.3,2.06-2.44,3.89-3.42,5.52c-0.98,1.62-1.7,3.04-2.16,4.27c-0.46,1.22-0.64,2.26-0.53,3.11c0.11,0.85,0.62,1.47,1.55,1.87
					c0.92,0.45,2.04,0.4,3.34-0.14c1.3-0.55,2.65-1.37,4.03-2.46c1.37-1.09,2.74-2.32,4.12-3.7c-1.14,1.89-2.32,3.82-3.59,5.83
					l8.38-0.76c-0.11-0.37-0.03-0.99,0.24-1.88c0.22-0.77,0.64-1.85,1.26-3.23c0.62-1.38,1.59-3.23,2.89-5.56
					c0.43-0.74,0.84-1.46,1.22-2.17c0.38-0.71,0.76-1.43,1.14-2.17c0.65-0.82,1.4-1.64,2.24-2.47c0.84-0.83,1.65-1.58,2.44-2.25
					c0.79-0.67,1.48-1.22,2.08-1.65c0.6-0.43,0.98-0.63,1.14-0.59c0.49,0.06,0.76,0.25,0.81,0.57c0.05,0.32-0.04,0.76-0.28,1.32
					c-0.24,0.56-0.6,1.2-1.06,1.92c-0.46,0.72-0.96,1.51-1.51,2.37c-1.3,2.06-2.44,3.91-3.42,5.54c-0.98,1.63-1.7,3.06-2.16,4.28
					c-0.46,1.23-0.64,2.27-0.53,3.12c0.11,0.85,0.62,1.48,1.55,1.88c0.92,0.45,2.04,0.41,3.34-0.14c1.3-0.55,2.65-1.37,4.03-2.47
					c1.38-1.1,2.77-2.35,4.15-3.74c0.57-0.57,1.09-1.13,1.61-1.69c-0.06,0.29-0.11,0.58-0.15,0.87c-0.19,1.42-0.11,2.66,0.24,3.7
					c0.35,1.05,1.07,1.71,2.16,1.99c0.81,0.25,1.7,0.21,2.65-0.12c0.95-0.33,1.91-0.86,2.89-1.6c0.98-0.74,1.95-1.61,2.93-2.62
					c0.98-1.01,1.93-2.1,2.85-3.27c-0.71,1.91-1.05,3.47-1.02,4.68c0.03,1.22,0.58,1.94,1.67,2.16c1.03,0.12,2.2-0.25,3.5-1.13
					c1.3-0.88,2.69-2.06,4.15-3.55c1.46-1.49,2.96-3.2,4.48-5.13c1.52-1.93,3.01-3.89,4.48-5.87
					C161.49,83.82,161.54,83.33,161.33,82.81z M74.07,91.77c0.49-0.96,1.06-1.92,1.71-2.89c0.65-0.97,1.3-1.82,1.95-2.55
					c0.65-0.73,1.29-1.31,1.91-1.75c0.62-0.43,1.15-0.56,1.59-0.39c0.49,0.17,0.49,0.88,0,2.13c-0.49,1.25-1.22,2.6-2.2,4.03
					c-0.98,1.43-2.06,2.73-3.26,3.88c-1.19,1.16-2.25,1.75-3.17,1.78C72.82,94.7,73.31,93.29,74.07,91.77z M144.93,88.48
					c-1,1.39-1.97,2.56-2.89,3.52c-0.92,0.95-1.76,1.68-2.52,2.18c-0.76,0.5-1.38,0.72-1.87,0.66c-0.44-0.07-0.67-0.36-0.69-0.87
					c-0.03-0.51,0.11-1.16,0.41-1.94c0.3-0.78,0.69-1.69,1.18-2.71c0.49-1.02,1.03-2.1,1.63-3.23c0.49-0.97,1.07-1.93,1.75-2.88
					c0.68-0.96,1.37-1.83,2.08-2.63c0.7-0.8,1.34-1.43,1.91-1.89c0.57-0.46,1.02-0.68,1.34-0.66c0.43,0.07,0.64,0.54,0.61,1.4
					c-0.03,0.87-0.18,1.78-0.45,2.72c-0.27-0.14-0.52-0.2-0.73-0.17c-0.38,0.04-0.71,0.2-0.98,0.5c-0.27,0.3-0.41,0.63-0.41,1.01
					c0,0.33,0.13,0.61,0.41,0.86c0.22,0.2,0.47,0.29,0.77,0.29c0.3,0,0.53-0.04,0.69-0.11c0.27-0.08,0.57-0.3,0.9-0.65
					C146.97,85.56,145.93,87.09,144.93,88.48z"/>
			</g>
			<g>
				<g>
					<path class="st22" d="M64.18,75.42c-0.15,0.85-0.07,1.57,0.28,2.15c0.41,0.68,1.02,0.97,1.83,0.9c0.81-0.08,1.61-0.51,2.4-1.3
						c0.79-0.79,1.32-1.7,1.59-2.73c0.27-0.98,0.2-1.8-0.2-2.48c-0.41-0.68-1.02-0.97-1.83-0.9c-0.07,0.01-0.15,0.03-0.22,0.05
						c1.04-1.09,2.06-2.12,3.07-3.05c2.33-2.37,4.6-4.38,6.8-6.05c2.2-1.66,4.19-3.01,5.98-4.04c1.79-1.03,3.35-1.78,4.68-2.23
						c1.33-0.45,2.35-0.69,3.05-0.7c0.7-0.02,1.22-0.2,1.55-0.56c0.33-0.35,0.46-0.73,0.41-1.13c-0.05-0.4-0.28-0.75-0.69-1.06
						c-0.41-0.31-0.96-0.43-1.67-0.36c-0.98,0.04-2.2,0.42-3.66,1.13c-1.47,0.71-3.13,1.73-5.01,3.07
						c-1.87,1.34-3.88,2.94-6.02,4.81c-2.14,1.87-4.35,3.93-6.63,6.19C64.45,72.47,59.6,77.9,55.34,83.44
						c-4.26,5.53-8.1,11.3-11.52,17.33c0.92-2.27,1.86-4.76,2.81-7.46c0.95-2.7,1.83-5.45,2.65-8.25c0.81-2.8,1.53-5.59,2.16-8.37
						c0.62-2.78,1.03-5.37,1.22-7.76c0.19-2.39,0.15-4.54-0.12-6.43c-0.27-1.9-0.87-3.38-1.79-4.47c-0.98-1.5-2.71-1.97-5.21-1.4
						c-2.5,0.57-5.26,1.96-8.3,4.18c-3.04,2.22-6.11,5.16-9.2,8.84c-3.09,3.68-5.75,7.85-7.98,12.53c-1.19,2.61-1.93,4.79-2.2,6.54
						c-0.27,1.75-0.23,3.13,0.12,4.13c0.35,1,0.95,1.68,1.79,2.02c0.84,0.35,1.82,0.41,2.93,0.2c1.11-0.21,2.27-0.66,3.46-1.36
						c1.19-0.7,2.31-1.6,3.34-2.71c1.08-1.59,2.39-3.76,3.91-6.52c1.52-2.75,3.23-6.35,5.13-10.8c0.11-0.54-0.11-0.73-0.65-0.58
						c-0.49,0.05-0.79,0.32-0.9,0.81c-0.27,0.77-0.73,1.84-1.38,3.21c-0.65,1.37-1.42,2.83-2.32,4.38c-0.9,1.55-1.83,3.09-2.81,4.62
						c-0.98,1.53-1.94,2.84-2.89,3.94c-0.95,1.1-1.82,1.87-2.61,2.32c-0.79,0.45-1.42,0.35-1.91-0.3c-0.23-0.46-0.32-0.73-0.27-1.34
						c0.05-0.58,0.27-1.45,0.43-2.42c0.16-0.97,0.47-2.17,0.94-3.6c0.46-1.43,1.18-3.12,2.16-5.07c1.63-3.4,3.34-6.33,5.13-8.79
						c1.79-2.46,3.49-4.5,5.09-6.13c1.6-1.62,3.01-2.81,4.23-3.57c1.22-0.76,2.08-1.14,2.56-1.13c0.87-0.14,1.53,0.33,1.99,1.4
						c0.46,1.07,0.73,2.45,0.81,4.12c0.08,1.67-0.01,3.47-0.28,5.39c-0.27,1.92-0.68,3.6-1.22,5.04c-1.25,5.24-2.44,9.71-3.58,13.41
						c-1.14,3.7-2.2,6.81-3.17,9.33c-0.98,2.51-1.86,4.5-2.65,5.96c-0.79,1.46-1.45,2.57-1.99,3.34c-0.54,0.77-1.14,1.4-1.79,1.88
						l9.93-0.91c0.11-0.49,0.61-1.56,1.51-3.22c0.9-1.65,2.09-3.66,3.58-6.01c1.49-2.35,3.22-4.95,5.17-7.8
						c1.95-2.85,4.02-5.72,6.19-8.59C59.89,80.62,62.01,77.98,64.18,75.42z M161.04,82.36c-0.11-0.21-0.24-0.44-0.41-0.69
						c-0.54,0.86-1.22,1.82-2.04,2.88c-0.71,0.88-1.61,1.93-2.73,3.14c-1.11,1.22-2.46,2.55-4.03,3.99
						c-0.81,0.78-1.47,1.1-1.95,0.95c-0.49-0.14-0.49-0.86,0-2.15c0.98-2.64,2.17-5.28,3.58-7.93c1.41-2.65,2.71-4.98,3.91-7
						c0.38-0.58,0.7-1.07,0.98-1.48c0.27-0.4,0.62-0.84,1.06-1.32c0.43-0.53,0.84-1.1,1.22-1.7c0.38-0.61,0.38-1.05,0-1.34
						c-0.16-0.09-0.42-0.03-0.77,0.2c-0.35,0.22-0.61,0.48-0.77,0.77c-0.11,0.23-0.18,0.42-0.2,0.59c-0.03,0.17-0.1,0.31-0.2,0.43
						c-1.03,1.18-2.23,1.93-3.58,2.25c-1.36,0.32-2.63,0.53-3.83,0.65c-0.16,0.02-0.24,0.1-0.24,0.27c0.22,0.63,0.23,1.31,0.04,2.03
						c-0.19,0.72-0.75,1.91-1.67,3.57c0.22-0.67,0.38-1.35,0.49-2.04c0.11-0.69,0.13-1.33,0.08-1.92c-0.05-0.59-0.22-1.1-0.49-1.54
						c-0.27-0.43-0.68-0.73-1.22-0.9c-0.81-0.19-1.75-0.19-2.81,0.02c-1.06,0.21-2.23,0.74-3.5,1.59c-1.28,0.85-2.6,2.03-3.99,3.54
						c-1.38,1.51-2.81,3.47-4.27,5.88c-0.81,1.29-1.5,2.64-2.11,4.02c-0.61,0.59-1.23,1.19-1.88,1.78
						c-1.46,1.32-2.86,2.41-4.19,3.26c-1.33,0.85-2.18,1.11-2.56,0.76c-0.33-0.29-0.15-1.05,0.53-2.27c0.68-1.22,1.89-3.16,3.62-5.8
						c1.08-1.67,1.87-3.13,2.36-4.39c0.49-1.26,0.76-2.33,0.81-3.2c0.05-0.87-0.07-1.56-0.37-2.07c-0.3-0.51-0.69-0.83-1.18-0.94
						c-0.76-0.25-1.64-0.2-2.65,0.17c-1,0.37-1.8,0.77-2.4,1.2c-1.09,0.7-2.08,1.48-2.97,2.34c-0.9,0.87-1.48,1.47-1.75,1.82
						c0.92-1.65,1.65-2.97,2.2-3.97c0.54-0.99,1.08-1.72,1.3-1.98c0.22-0.26,0.41-0.56,0.57-0.9c0.16-0.34,0.27-0.66,0.33-0.96
						c0.05-0.3,0-0.53-0.16-0.67c-0.11-0.1-0.3-0.09-0.57,0.01c-0.27,0.11-0.71,0.73-1.3,1.86c-0.38,0.68-0.87,1.22-1.47,1.6
						c-0.6,0.38-1.24,0.67-1.91,0.87c-0.68,0.2-1.38,0.32-2.12,0.36c-0.73,0.04-1.4,0.09-1.99,0.15c-0.22,0.02-0.27,0.11-0.16,0.26
						c0.11,0.31,0.16,0.63,0.16,0.95c0,0.32-0.08,0.72-0.24,1.19c-0.16,0.47-0.39,1.03-0.69,1.68c-0.3,0.65-0.72,1.46-1.26,2.42
						c-0.71,1.31-1.67,3.04-2.89,5.2c0,0.01-0.01,0.01-0.01,0.02c-1.05,1.1-2.15,2.19-3.37,3.28c-1.46,1.32-2.86,2.4-4.19,3.25
						c-1.33,0.85-2.18,1.1-2.56,0.76c-0.33-0.29-0.15-1.05,0.53-2.27c0.68-1.22,1.89-3.15,3.62-5.78c1.08-1.66,1.87-3.12,2.36-4.38
						c0.49-1.26,0.76-2.32,0.81-3.18c0.05-0.87-0.07-1.55-0.37-2.06c-0.3-0.51-0.69-0.82-1.18-0.94c-0.76-0.25-1.64-0.19-2.65,0.17
						c-1,0.37-1.8,0.76-2.4,1.2c-1.09,0.69-2.08,1.47-2.97,2.34c-0.9,0.86-1.48,1.47-1.75,1.82c0.92-1.65,1.65-2.96,2.2-3.96
						c0.54-0.99,1.08-1.72,1.3-1.98c0.22-0.26,0.41-0.56,0.57-0.9c0.16-0.34,0.27-0.66,0.33-0.96c0.05-0.3,0-0.52-0.16-0.67
						c-0.11-0.1-0.3-0.09-0.57,0.01c-0.27,0.11-0.71,0.73-1.3,1.86c-0.38,0.68-0.87,1.21-1.47,1.59c-0.6,0.38-1.24,0.67-1.91,0.87
						c-0.68,0.2-1.38,0.32-2.12,0.36c-0.73,0.04-1.4,0.09-1.99,0.15c-0.22,0.02-0.27,0.11-0.16,0.26c0.11,0.31,0.16,0.63,0.16,0.95
						c0,0.32-0.08,0.72-0.24,1.19c-0.16,0.47-0.39,1.03-0.69,1.68c-0.3,0.65-0.72,1.45-1.26,2.41c-0.71,1.3-1.67,3.03-2.89,5.18
						c-0.6,1.06-1.21,2.1-1.81,3.12c-0.49,0.55-0.99,1.1-1.52,1.61c-1.28,1.24-2.58,2.25-3.91,3.01c-1.33,0.77-2.56,0.99-3.7,0.66
						c-0.71-0.1-1.14-0.75-1.3-1.97c0.54,0.16,1.17,0.11,1.87-0.17c0.71-0.28,1.41-0.69,2.12-1.24c0.7-0.55,1.38-1.19,2.03-1.92
						c0.65-0.73,1.22-1.44,1.71-2.13c1.36-1.9,2.33-3.61,2.93-5.14c0.6-1.53,0.91-2.83,0.94-3.91c0.03-1.07-0.16-1.93-0.57-2.56
						c-0.41-0.63-0.96-1.02-1.67-1.17c-0.44-0.07-1.11,0-2.04,0.19c-0.92,0.2-2.01,0.67-3.26,1.43c-1.25,0.76-2.58,1.86-3.99,3.31
						c-1.41,1.45-2.77,3.38-4.07,5.8c-0.8,1.49-1.42,2.89-1.88,4.21c-0.22,0.25-0.45,0.5-0.69,0.76c-1.11,1.23-2.46,2.53-4.03,3.9
						c-0.87,0.78-1.53,1.09-1.99,0.95c-0.46-0.14-0.45-0.85,0.04-2.13c0.98-2.55,2.17-5.15,3.58-7.79c1.41-2.65,2.71-4.93,3.91-6.87
						c0.38-0.62,0.7-1.12,0.98-1.5c0.27-0.37,0.62-0.82,1.06-1.34c0.43-0.52,0.84-1.08,1.22-1.68c0.38-0.6,0.38-1.04,0-1.32
						c-0.16-0.09-0.42-0.03-0.77,0.19c-0.35,0.22-0.61,0.47-0.77,0.76c-0.11,0.23-0.18,0.42-0.2,0.58c-0.03,0.16-0.1,0.3-0.2,0.42
						c-1.03,1.22-2.23,1.99-3.58,2.31c-1.36,0.32-2.66,0.51-3.91,0.57c-0.11,0.01-0.16,0.1-0.16,0.26c0.11,0.31,0.16,0.64,0.16,0.99
						c0,0.35-0.07,0.74-0.2,1.18c-0.14,0.44-0.37,1-0.69,1.67c-0.33,0.67-0.73,1.49-1.22,2.44c-1.19,2.3-2.31,4.49-3.34,6.56
						c-1.03,2.07-1.82,3.93-2.36,5.58c-0.54,1.65-0.77,3.01-0.69,4.07c0.08,1.06,0.61,1.71,1.59,1.94c1.03,0.07,2.2-0.33,3.5-1.2
						c1.3-0.87,2.69-2.04,4.15-3.51c1.22-1.23,2.46-2.61,3.73-4.12c-0.19,1.41-0.19,2.64,0.02,3.69c0.27,1.37,0.83,2.4,1.67,3.1
						c0.84,0.7,1.83,1,2.97,0.89c2.28-0.21,4.42-0.99,6.43-2.35c0.37-0.25,0.73-0.52,1.09-0.79c-0.47,0.75-0.93,1.5-1.42,2.26
						l8.38-0.76c-0.11-0.36-0.03-0.99,0.24-1.87c0.22-0.77,0.64-1.84,1.26-3.21c0.62-1.37,1.59-3.22,2.89-5.54
						c0.43-0.74,0.84-1.46,1.22-2.17c0.38-0.71,0.76-1.43,1.14-2.16c0.65-0.81,1.4-1.63,2.24-2.47c0.84-0.83,1.65-1.58,2.44-2.24
						c0.79-0.66,1.48-1.21,2.08-1.65c0.6-0.43,0.98-0.63,1.14-0.59c0.49,0.06,0.76,0.25,0.81,0.57c0.05,0.32-0.04,0.76-0.28,1.32
						c-0.24,0.56-0.6,1.2-1.06,1.91c-0.46,0.72-0.96,1.5-1.51,2.36c-1.3,2.06-2.44,3.89-3.42,5.52c-0.98,1.62-1.7,3.04-2.16,4.27
						c-0.46,1.22-0.64,2.26-0.53,3.11c0.11,0.85,0.62,1.47,1.55,1.87c0.92,0.45,2.04,0.4,3.34-0.14c1.3-0.55,2.65-1.37,4.03-2.46
						c1.37-1.09,2.74-2.32,4.12-3.7c-1.14,1.89-2.32,3.82-3.59,5.83l8.38-0.76c-0.11-0.37-0.03-0.99,0.24-1.88
						c0.22-0.77,0.64-1.85,1.26-3.23c0.62-1.38,1.59-3.23,2.89-5.56c0.43-0.74,0.84-1.46,1.22-2.17c0.38-0.71,0.76-1.43,1.14-2.17
						c0.65-0.82,1.4-1.64,2.24-2.47c0.84-0.83,1.65-1.58,2.44-2.25c0.79-0.67,1.48-1.22,2.08-1.65c0.6-0.43,0.98-0.63,1.14-0.59
						c0.49,0.06,0.76,0.25,0.81,0.57c0.05,0.32-0.04,0.76-0.28,1.32c-0.24,0.56-0.6,1.2-1.06,1.92c-0.46,0.72-0.96,1.51-1.51,2.37
						c-1.3,2.06-2.44,3.91-3.42,5.54c-0.98,1.63-1.7,3.06-2.16,4.28c-0.46,1.23-0.64,2.27-0.53,3.12c0.11,0.85,0.62,1.48,1.55,1.88
						c0.92,0.45,2.04,0.41,3.34-0.14c1.3-0.55,2.65-1.37,4.03-2.47c1.38-1.1,2.77-2.35,4.15-3.74c0.57-0.57,1.09-1.13,1.61-1.69
						c-0.06,0.29-0.11,0.58-0.15,0.87c-0.19,1.42-0.11,2.66,0.24,3.7c0.35,1.05,1.07,1.71,2.16,1.99c0.81,0.25,1.7,0.21,2.65-0.12
						c0.95-0.33,1.91-0.86,2.89-1.6c0.98-0.74,1.95-1.61,2.93-2.62c0.98-1.01,1.93-2.1,2.85-3.27c-0.71,1.91-1.05,3.47-1.02,4.68
						c0.03,1.22,0.58,1.94,1.67,2.16c1.03,0.12,2.2-0.25,3.5-1.13c1.3-0.88,2.69-2.06,4.15-3.55c1.46-1.49,2.96-3.2,4.48-5.13
						c1.52-1.93,3.01-3.89,4.48-5.87C161.21,83.38,161.26,82.89,161.04,82.36z M73.78,91.33c0.49-0.96,1.06-1.92,1.71-2.89
						c0.65-0.97,1.3-1.82,1.95-2.55c0.65-0.73,1.29-1.31,1.91-1.75c0.62-0.43,1.15-0.56,1.59-0.39c0.49,0.17,0.49,0.88,0,2.13
						c-0.49,1.25-1.22,2.6-2.2,4.03c-0.98,1.43-2.06,2.73-3.26,3.88c-1.19,1.16-2.25,1.75-3.17,1.78
						C72.53,94.26,73.02,92.85,73.78,91.33z M144.64,88.04c-1,1.39-1.97,2.56-2.89,3.52c-0.92,0.95-1.76,1.68-2.52,2.18
						c-0.76,0.5-1.38,0.72-1.87,0.66c-0.44-0.07-0.67-0.36-0.69-0.87c-0.03-0.51,0.11-1.16,0.41-1.94c0.3-0.78,0.69-1.69,1.18-2.71
						c0.49-1.02,1.03-2.1,1.63-3.23c0.49-0.97,1.07-1.93,1.75-2.88c0.68-0.96,1.37-1.83,2.08-2.63c0.7-0.8,1.34-1.43,1.91-1.89
						c0.57-0.46,1.02-0.68,1.34-0.66c0.43,0.07,0.64,0.54,0.61,1.4c-0.03,0.87-0.18,1.78-0.45,2.72c-0.27-0.14-0.52-0.2-0.73-0.17
						c-0.38,0.04-0.71,0.2-0.98,0.5c-0.27,0.3-0.41,0.63-0.41,1.01c0,0.33,0.13,0.61,0.41,0.86c0.22,0.2,0.47,0.29,0.77,0.29
						c0.3,0,0.53-0.04,0.69-0.11c0.27-0.08,0.57-0.3,0.9-0.65C146.69,85.12,145.64,86.65,144.64,88.04z"/>
				</g>
			</g>
		</g>
		<g>
			<path class="st18" d="M61.81,116.78c0.22-1.05,0.44-2.09,0.65-3.13c0.02-0.12,0.05-0.25,0.08-0.37c0.01-0.06,0.04-0.11,0.04-0.16
				c0.05-0.12,0.16-0.22,0.29-0.25c0.02,0,0.05-0.01,0.07-0.02c0.13-0.02,0.26-0.03,0.39-0.02c0.04,0,0.07,0.01,0.1,0.02
				c0.08,0.02,0.14,0.08,0.15,0.17c0,0.04,0,0.09,0,0.12c-0.02,0.08-0.03,0.16-0.05,0.23c-0.05,0.22-0.09,0.42-0.13,0.64
				c-0.34,1.62-0.68,3.25-1.01,4.86c-0.02,0.09-0.04,0.2-0.05,0.3c-0.01,0.05-0.02,0.11-0.02,0.16c0.01,0.13,0.07,0.21,0.2,0.24
				c0.03,0.01,0.08,0.01,0.12,0.01c0.1,0.01,0.2,0,0.31-0.01c0.79-0.04,1.58-0.09,2.37-0.13c0.11-0.01,0.2-0.01,0.3-0.02
				c0.05,0,0.08,0.01,0.13,0c0.09,0.03,0.13,0.09,0.16,0.17c0,0.04,0,0.06,0,0.1c-0.01,0.17-0.05,0.34-0.12,0.51
				c0,0.01,0,0.01,0,0.02c-0.06,0.11-0.14,0.18-0.26,0.22c-0.05,0.01-0.1,0.03-0.15,0.03c-0.08,0-0.17,0.01-0.25,0.01
				c-0.77,0.04-1.55,0.1-2.32,0.14c-0.39,0.02-0.79,0.04-1.18,0.07c-0.08,0-0.17,0.01-0.25,0c-0.05,0-0.08,0-0.12-0.01
				c-0.14-0.03-0.2-0.11-0.21-0.24c0.01-0.04,0-0.06,0.01-0.1c0.01-0.06,0.03-0.12,0.04-0.18c0.02-0.11,0.04-0.22,0.07-0.33
				C61.38,118.82,61.59,117.79,61.81,116.78z"/>
			<path class="st18" d="M71.7,112.34c0.08,0.01,0.16,0,0.25,0c0.05,0,0.1,0.01,0.16,0.03c0.06,0.03,0.11,0.08,0.12,0.15
				c0.02,0.07,0.04,0.15,0.06,0.22c0.02,0.13,0.03,0.27,0.04,0.4c0.04,0.39,0.09,0.77,0.13,1.16c0.05,0.44,0.1,0.88,0.15,1.33
				c0.11,0.92,0.22,1.86,0.34,2.78c0.03,0.36,0.08,0.71,0.12,1.07c0,0.06,0.01,0.12,0.01,0.17c0,0.05-0.01,0.11-0.02,0.16
				c-0.02,0.1-0.11,0.19-0.2,0.21c-0.04,0.01-0.07,0.02-0.11,0.03c-0.15,0.02-0.3,0.03-0.44,0.02c-0.17-0.01-0.27-0.1-0.3-0.26
				c-0.02-0.07-0.03-0.14-0.04-0.21c-0.02-0.23-0.05-0.44-0.07-0.66c-0.02-0.08-0.03-0.15-0.04-0.24c-0.04-0.15-0.14-0.23-0.32-0.23
				c-0.05,0-0.09,0.01-0.14,0.01c-0.64,0.04-1.27,0.07-1.9,0.11c-0.07,0-0.13,0.01-0.21,0.02c-0.12,0.02-0.23,0.08-0.31,0.2
				c-0.06,0.08-0.1,0.15-0.14,0.22c-0.06,0.11-0.12,0.22-0.18,0.34c-0.08,0.16-0.16,0.32-0.26,0.49c-0.02,0.05-0.06,0.11-0.09,0.16
				c-0.02,0.04-0.04,0.06-0.07,0.1c-0.06,0.07-0.13,0.13-0.22,0.17c-0.05,0.01-0.1,0.03-0.15,0.03c-0.13,0.02-0.25,0.03-0.38,0.02
				c-0.05,0-0.09-0.01-0.13-0.03c-0.08-0.02-0.11-0.09-0.11-0.17c0.01-0.06,0.03-0.12,0.05-0.18c0.02-0.06,0.06-0.13,0.1-0.2
				c0.21-0.42,0.42-0.82,0.62-1.23c0.34-0.66,0.66-1.31,1-1.98c0.18-0.34,0.36-0.69,0.53-1.03c0.32-0.65,0.66-1.31,1-1.97
				c0.12-0.22,0.22-0.44,0.34-0.68c0.02-0.05,0.06-0.11,0.08-0.16c0.12-0.22,0.26-0.35,0.52-0.36c0.06,0,0.13-0.01,0.2-0.01
				L71.7,112.34z M70.66,117.47c0.17-0.01,0.32-0.02,0.48-0.03c0.07,0,0.13-0.01,0.2-0.02c0.04,0,0.09-0.02,0.12-0.03
				c0.1-0.04,0.19-0.14,0.21-0.25c0.01-0.04,0.01-0.06,0.01-0.1c-0.01-0.08-0.01-0.17-0.02-0.24c-0.04-0.27-0.07-0.53-0.09-0.81
				c-0.04-0.35-0.09-0.71-0.13-1.07c-0.01-0.07-0.01-0.15-0.04-0.22c0-0.04-0.02-0.07-0.04-0.1c-0.01-0.02-0.01-0.05-0.03-0.06
				c-0.04-0.05-0.11-0.04-0.16,0.01c-0.03,0.02-0.06,0.05-0.07,0.07c-0.05,0.05-0.08,0.11-0.1,0.16c-0.07,0.12-0.13,0.25-0.19,0.37
				c-0.24,0.45-0.46,0.91-0.68,1.35c-0.1,0.2-0.2,0.38-0.28,0.58c-0.03,0.05-0.04,0.1-0.07,0.15c-0.04,0.12,0.02,0.2,0.11,0.24
				c0.02,0.01,0.05,0.02,0.09,0.02c0.06,0.01,0.13,0,0.2,0C70.32,117.49,70.49,117.48,70.66,117.47z"/>
			<path class="st18" d="M79.38,115.88c0.25-0.01,0.5-0.03,0.75-0.04c0.08,0,0.16-0.01,0.22,0c0.07,0.01,0.12,0.04,0.16,0.09
				c0.02,0.04,0.03,0.07,0.04,0.1c0.01,0.07,0.01,0.14-0.01,0.22c-0.02,0.2-0.06,0.4-0.12,0.59c-0.09,0.34-0.23,0.67-0.42,0.99
				c-0.13,0.23-0.27,0.46-0.44,0.66c-0.36,0.45-0.78,0.81-1.27,1.08c-0.36,0.19-0.71,0.33-1.09,0.36c-0.17,0.01-0.33,0.02-0.5,0.03
				c-0.4,0.01-0.76-0.09-1.07-0.27c-0.29-0.17-0.54-0.4-0.71-0.7c-0.15-0.23-0.28-0.47-0.35-0.74c-0.13-0.48-0.18-0.99-0.13-1.52
				c0.01-0.23,0.04-0.44,0.09-0.66c0.1-0.47,0.27-0.94,0.48-1.41c0.19-0.41,0.43-0.78,0.72-1.14c0.17-0.22,0.36-0.44,0.58-0.63
				c0.05-0.04,0.1-0.09,0.16-0.13c0.55-0.48,1.15-0.78,1.8-0.9c0.66-0.11,1.22-0.01,1.7,0.32c0.18,0.13,0.33,0.29,0.44,0.49
				c0.03,0.05,0.05,0.09,0.06,0.14c0,0.04,0.01,0.08,0,0.12c-0.01,0.06-0.04,0.12-0.08,0.17c-0.05,0.05-0.1,0.09-0.16,0.13
				c-0.12,0.08-0.23,0.16-0.36,0.21c-0.03,0.01-0.07,0.03-0.1,0.04c-0.09,0.03-0.17,0.01-0.23-0.03c-0.03-0.02-0.05-0.05-0.08-0.08
				c-0.05-0.06-0.09-0.11-0.14-0.17c-0.11-0.11-0.24-0.2-0.4-0.26c-0.23-0.07-0.48-0.07-0.75-0.02c-0.36,0.08-0.7,0.24-1,0.47
				c-0.28,0.21-0.53,0.45-0.73,0.73c-0.29,0.39-0.51,0.8-0.67,1.23c-0.13,0.33-0.2,0.67-0.24,0.99c-0.06,0.47-0.04,0.92,0.07,1.34
				c0.09,0.31,0.23,0.57,0.43,0.8c0.17,0.17,0.37,0.31,0.63,0.37c0.21,0.05,0.43,0.07,0.68,0.03c0.12-0.03,0.26-0.05,0.39-0.1
				c0.24-0.08,0.46-0.22,0.67-0.4c0.28-0.23,0.5-0.51,0.69-0.81c0.05-0.08,0.08-0.15,0.12-0.22c0.04-0.06,0.05-0.13,0.05-0.21
				c0.01-0.08-0.03-0.14-0.11-0.17c-0.03-0.01-0.07-0.02-0.1-0.02c-0.06,0-0.13,0-0.19,0c-0.14,0.01-0.27,0.02-0.41,0.02
				c-0.06,0-0.12,0.01-0.18,0.01c-0.03-0.01-0.08-0.01-0.11-0.02c-0.1-0.03-0.14-0.1-0.15-0.21c-0.01-0.02,0-0.05,0-0.07
				c0.01-0.14,0.05-0.29,0.08-0.43c0.02-0.02,0.02-0.05,0.04-0.07c0.05-0.12,0.15-0.2,0.26-0.23c0.04,0,0.07-0.02,0.11-0.02
				c0.07,0,0.14-0.01,0.23-0.01C78.93,115.91,79.16,115.9,79.38,115.88z"/>
			<path class="st18" d="M81.92,115.63c0.22-1.04,0.43-2.09,0.65-3.14c0.02-0.12,0.05-0.24,0.08-0.36c0.02-0.05,0.03-0.11,0.07-0.17
				c0.05-0.12,0.15-0.2,0.26-0.23c0.05-0.01,0.09-0.02,0.13-0.02c0.07,0,0.14-0.01,0.23-0.01c1.06-0.07,2.13-0.13,3.2-0.19
				c0.06,0,0.13,0.01,0.19,0c0.04,0,0.07,0,0.11-0.01c0.15,0.02,0.22,0.12,0.21,0.27c-0.02,0.14-0.05,0.3-0.1,0.46
				c0,0.03-0.02,0.05-0.04,0.07c-0.04,0.09-0.12,0.16-0.22,0.2c-0.05,0.01-0.1,0.03-0.15,0.03c-0.07,0.02-0.13,0.02-0.21,0.02
				c-0.13,0.01-0.25,0.01-0.38,0.02c-0.57,0.03-1.14,0.06-1.73,0.1c-0.09,0.01-0.19,0.01-0.3,0.02c-0.04,0-0.09,0.02-0.12,0.02
				c-0.12,0.03-0.22,0.11-0.28,0.23c-0.02,0.04-0.03,0.07-0.05,0.12c-0.01,0.06-0.02,0.12-0.04,0.18c-0.08,0.4-0.17,0.81-0.25,1.21
				c-0.01,0.06-0.02,0.11-0.03,0.16c-0.01,0.04,0,0.07-0.01,0.1c-0.01,0.14,0.08,0.25,0.2,0.26c0.03,0.01,0.08,0.01,0.11,0.02
				c0.08,0,0.17-0.01,0.25-0.01c0.37-0.02,0.74-0.04,1.11-0.06c0.08,0,0.17-0.01,0.25-0.01c0.03,0.01,0.08,0.01,0.11,0.02
				c0.1,0.03,0.14,0.1,0.16,0.19c0.01,0.02,0,0.05,0,0.07c-0.02,0.15-0.05,0.29-0.09,0.43c0,0.02-0.02,0.05-0.03,0.07
				c-0.06,0.11-0.13,0.19-0.25,0.22c-0.05,0.03-0.1,0.04-0.15,0.04c-0.08,0-0.17,0.01-0.25,0.01c-0.36,0.02-0.7,0.04-1.06,0.06
				c-0.08,0-0.18,0.02-0.28,0.03c-0.04,0-0.08,0-0.12,0.02c-0.13,0.02-0.25,0.12-0.3,0.26c-0.02,0.04-0.03,0.07-0.04,0.1
				c-0.01,0.07-0.03,0.15-0.04,0.21c-0.09,0.42-0.18,0.84-0.26,1.27c-0.02,0.07-0.03,0.13-0.04,0.21c0,0.05-0.01,0.1,0,0.14
				c0.01,0.11,0.07,0.16,0.17,0.19c0.04,0,0.08,0.01,0.12,0c0.1-0.01,0.2-0.01,0.3-0.02c0.65-0.04,1.3-0.07,1.95-0.11
				c0.1-0.01,0.2-0.01,0.29,0c0.05,0,0.08,0.01,0.13,0.02c0.08,0.02,0.13,0.09,0.14,0.18c0.01,0.02,0.01,0.06,0,0.09
				c-0.02,0.13-0.04,0.27-0.08,0.4c-0.01,0.05-0.03,0.09-0.05,0.14c-0.05,0.07-0.11,0.12-0.19,0.17c-0.04,0.01-0.09,0.03-0.12,0.04
				c-0.05,0-0.11,0.01-0.16,0.01c-0.09,0.02-0.17,0.02-0.25,0.03c-0.96,0.05-1.93,0.11-2.9,0.16c-0.11,0.01-0.21,0-0.32,0.01
				c-0.05,0-0.09-0.01-0.14-0.02c-0.09-0.03-0.14-0.09-0.15-0.18c0-0.04-0.01-0.08,0-0.12c0-0.06,0.01-0.12,0.03-0.18
				c0.02-0.1,0.04-0.21,0.06-0.3C81.48,117.72,81.7,116.68,81.92,115.63z"/>
			<path class="st18" d="M87.78,115.31c0.22-1.06,0.44-2.11,0.66-3.17c0.02-0.11,0.04-0.22,0.07-0.33c0.02-0.06,0.04-0.12,0.06-0.18
				c0.06-0.12,0.16-0.2,0.29-0.23c0.04-0.01,0.09-0.02,0.12-0.02c0.09-0.02,0.17-0.02,0.25-0.03c0.58-0.03,1.16-0.05,1.75-0.09
				c0.08,0,0.15-0.01,0.22-0.01c0.28,0,0.53,0.04,0.76,0.14c0.2,0.08,0.35,0.19,0.48,0.34c0.04,0.05,0.06,0.08,0.1,0.13
				c0.1,0.13,0.18,0.28,0.24,0.45c0.08,0.2,0.12,0.42,0.12,0.66c-0.01,0.57-0.19,1.13-0.55,1.66c-0.2,0.3-0.44,0.55-0.72,0.77
				c-0.03,0.04-0.07,0.06-0.11,0.09c-0.03,0.03-0.07,0.06-0.1,0.09c-0.12,0.11-0.17,0.24-0.16,0.37c0,0.1,0.02,0.2,0.04,0.3
				c0.05,0.22,0.08,0.45,0.13,0.67c0.11,0.49,0.2,1,0.31,1.51c0.01,0.06,0.03,0.13,0.04,0.2c-0.01,0.04,0,0.07-0.01,0.11
				c-0.01,0.07-0.05,0.12-0.12,0.17c-0.04,0.03-0.08,0.05-0.12,0.07c-0.04,0-0.07,0.02-0.11,0.02c-0.13,0.01-0.27,0.02-0.42,0.02
				c-0.05,0-0.08-0.01-0.13,0c-0.12-0.03-0.2-0.1-0.24-0.2c-0.02-0.04-0.03-0.07-0.04-0.12c-0.02-0.11-0.05-0.21-0.06-0.32
				c-0.12-0.59-0.23-1.19-0.34-1.79c-0.01-0.09-0.04-0.18-0.06-0.27c-0.01-0.06-0.03-0.12-0.07-0.16c-0.06-0.07-0.12-0.1-0.21-0.11
				c-0.03-0.01-0.07-0.01-0.1-0.01c-0.24,0.01-0.48,0.03-0.73,0.04c-0.04,0-0.08,0-0.12,0.02c-0.11,0.03-0.2,0.09-0.26,0.19
				c-0.03,0.05-0.04,0.1-0.07,0.15c-0.02,0.08-0.04,0.17-0.05,0.25c-0.11,0.52-0.22,1.04-0.32,1.54c-0.04,0.17-0.07,0.33-0.1,0.48
				c-0.01,0.06-0.03,0.12-0.05,0.18c-0.05,0.13-0.15,0.24-0.29,0.28c-0.01,0.01-0.03,0.01-0.05,0.01c-0.15,0.03-0.3,0.04-0.45,0.03
				s-0.22-0.11-0.21-0.26c0-0.06,0.01-0.12,0.01-0.18c0.02-0.1,0.04-0.19,0.06-0.3C87.34,117.43,87.56,116.37,87.78,115.31z
				 M89.15,113.7c-0.03,0.13-0.06,0.26-0.09,0.41c-0.03,0.14-0.06,0.3-0.09,0.45c-0.01,0.06-0.03,0.12-0.03,0.18
				c-0.01,0.14,0.07,0.25,0.19,0.26c0.08,0.02,0.15,0.02,0.22,0.01c0.18-0.01,0.36-0.02,0.52-0.03c0.13-0.01,0.25-0.01,0.38-0.02
				c0.12-0.01,0.25-0.03,0.38-0.07c0.15-0.04,0.31-0.11,0.44-0.22c0.22-0.17,0.41-0.38,0.54-0.61c0.14-0.26,0.19-0.51,0.21-0.76
				c0-0.01,0-0.02,0.01-0.05c-0.01-0.21-0.07-0.4-0.17-0.56c-0.04-0.07-0.09-0.14-0.16-0.18c-0.16-0.12-0.35-0.19-0.59-0.18
				c-0.38,0.01-0.76,0.03-1.14,0.05c-0.05,0.02-0.09,0.02-0.13,0.03c-0.09,0.02-0.16,0.08-0.22,0.16c-0.02,0.04-0.05,0.09-0.06,0.12
				c-0.01,0.07-0.04,0.16-0.06,0.23C89.26,113.18,89.2,113.43,89.15,113.7z"/>
		</g>
		<g>
			<g>
				<g>
					<g>
						<path class="st23" d="M143.56,114.21c-3.08-0.01-5.61-2.42-5.76-5.5c-0.12-2.47,1.79-4.57,4.25-4.69
							c1.86-0.08,3.4,1.39,3.49,3.37c0.07,1.52-1.1,2.82-2.62,2.89l-0.05-1.11c0.91-0.05,1.61-0.82,1.57-1.73
							c-0.07-1.38-1.07-2.38-2.33-2.31c-1.85,0.09-3.29,1.67-3.2,3.53c0.12,2.49,2.17,4.44,4.66,4.45L143.56,114.21z"/>
					</g>
				</g>
				<g>
					<g>
						<path class="st23" d="M106.59,127.77c-0.84,0-1.66-0.18-2.4-0.54c-1.28-0.62-2.21-1.73-2.62-3.11
							c-1.06-3.64,1.57-7.3,4.73-8.73c6.45-3.27,15.48-2.75,24.22-2.24c6.76,0.39,13.75,0.8,19.24-0.63l0.28,1.07
							c-5.66,1.47-12.74,1.06-19.58,0.67c-8.59-0.5-17.47-1.01-23.67,2.13c-2.75,1.24-5.04,4.35-4.14,7.42
							c0.32,1.08,1.04,1.94,2.04,2.42c0.99,0.48,2.16,0.56,3.3,0.23c1.64-0.48,2.59-2.2,2.11-3.85l1.07-0.31
							c0.65,2.23-0.64,4.57-2.86,5.22C107.73,127.69,107.16,127.77,106.59,127.77z"/>
					</g>
				</g>
				<g>
					<g>
						<path class="st23" d="M151.48,109.02c-0.02-0.41,0.21-0.85,0.6-1.11c0.19-0.13,0.43-0.22,0.67-0.24
							c0.12-0.01,0.25-0.01,0.38,0l0.07,0.01l0.09,0.02c0.06,0.01,0.12,0.03,0.17,0.04c0.46,0.13,0.9,0.42,1.19,0.85
							c0.3,0.43,0.41,1.01,0.31,1.53l0.01-0.06c-0.03,0.47-0.22,0.92-0.47,1.27c-0.25,0.36-0.56,0.63-0.87,0.87
							c-0.63,0.48-1.31,0.79-2,1.06c-1.38,0.51-2.8,0.76-4.22,0.89c-2.84,0.25-5.68,0.06-8.45-0.5c-1.38-0.29-2.74-0.68-4.06-1.2
							c-1.31-0.52-2.58-1.18-3.72-2.02c-1.14-0.84-2.16-1.86-2.9-3.06c-0.75-1.2-1.21-2.56-1.35-3.94c0.25,1.36,0.79,2.67,1.59,3.77
							c0.8,1.11,1.82,2.04,2.96,2.78c2.29,1.47,4.95,2.3,7.64,2.73c2.69,0.42,5.45,0.47,8.13,0.12c1.33-0.19,2.66-0.45,3.89-0.88
							c0.61-0.22,1.2-0.48,1.7-0.82c0.49-0.34,0.86-0.76,0.93-1.2l0.01-0.07l0,0.01c0.07-0.24,0.07-0.5-0.04-0.75
							c-0.11-0.25-0.31-0.48-0.59-0.63l-0.1-0.06l-0.05-0.02l-0.07-0.03c-0.06-0.03-0.14-0.05-0.21-0.07
							c-0.15-0.03-0.31-0.02-0.47,0.02C151.97,108.42,151.66,108.65,151.48,109.02z"/>
					</g>
				</g>
				<g>
					<g>
						<path class="st23" d="M144.75,108.46c0,1-0.81,1.81-1.81,1.81c-1,0-1.81-0.81-1.81-1.81c0-1,0.81-1.81,1.81-1.81
							C143.94,106.65,144.75,107.46,144.75,108.46z"/>
					</g>
				</g>
				<g>
					<g>
						<path class="st23" d="M111.25,122.85c0,1-0.81,1.81-1.81,1.81c-1,0-1.81-0.81-1.81-1.81c0-1,0.81-1.81,1.81-1.81
							C110.44,121.04,111.25,121.85,111.25,122.85z"/>
					</g>
				</g>
				<g>
					<g>
						<path class="st19" d="M99.64,115.76l-0.23-0.15c0.17-0.25,4.3-6.15,21.11-5.75l-0.01,0.28
							C103.86,109.73,99.68,115.69,99.64,115.76z"/>
					</g>
				</g>
				<g>
					<g>
						<path class="st23" d="M125.03,111.35c2.2,0.81,4.5,0.07,4.5,0.07s-1.26-2.06-3.46-2.88c-2.2-0.81-4.5-0.07-4.5-0.07
							S122.83,110.53,125.03,111.35z"/>
					</g>
				</g>
			</g>
			<g>
				<g>
					<path class="st19" d="M110.82,119.51l-0.22-0.17c2.55-3.36,8.97-2.97,16.4-2.53c4.28,0.26,8.7,0.52,12.93,0.13l0.03,0.28
						c-4.25,0.4-8.68,0.13-12.97-0.13C119.63,116.65,113.28,116.27,110.82,119.51z"/>
				</g>
			</g>
		</g>
		<g>
			<g>
				<g>
					<g>
						<path class="st23" d="M86.9,129.66c-0.52,0.37-0.64,1.09-0.27,1.61c0.37,0.52,1.09,0.64,1.61,0.27
							c0.52-0.37,0.64-1.09,0.27-1.61C88.15,129.41,87.42,129.29,86.9,129.66z"/>
					</g>
				</g>
			</g>
			<g>
				<g>
					<path class="st23" d="M84.75,126.64c0.8-0.51,1.77-0.78,2.75-0.77c0.49,0.01,0.98,0.08,1.46,0.22
						c0.47,0.14,0.93,0.35,1.35,0.62c0.84,0.54,1.54,1.32,1.97,2.24c0.44,0.93,0.53,2.04,0.25,3.03c-0.29,1-0.94,1.9-1.82,2.46
						c-0.22,0.14-0.45,0.26-0.71,0.36c-0.25,0.1-0.52,0.16-0.79,0.19c-0.55,0.06-1.11-0.04-1.6-0.26c-0.49-0.22-0.92-0.57-1.26-0.98
						c-0.17-0.21-0.31-0.43-0.43-0.66c-0.04-0.08-0.05-0.11-0.08-0.18c-0.03-0.07-0.05-0.14-0.08-0.2c-0.04-0.13-0.08-0.27-0.1-0.41
						c-0.09-0.55,0.01-1.13,0.26-1.62c0.25-0.49,0.67-0.89,1.16-1.13l0.32,0.63c-0.35,0.19-0.63,0.49-0.8,0.84
						c-0.17,0.35-0.22,0.76-0.15,1.14c0.02,0.09,0.04,0.19,0.08,0.28c0.02,0.05,0.03,0.09,0.05,0.13c0.01,0.03,0.05,0.11,0.07,0.14
						c0.1,0.18,0.22,0.36,0.35,0.51c0.26,0.32,0.59,0.57,0.96,0.73c0.37,0.16,0.77,0.23,1.16,0.19c0.4-0.04,0.77-0.19,1.13-0.42
						c0.71-0.45,1.26-1.16,1.5-1.97c0.25-0.81,0.2-1.71-0.14-2.49c-0.36-0.79-0.93-1.51-1.65-2.02c-0.36-0.26-0.75-0.48-1.17-0.64
						c-0.42-0.17-0.86-0.28-1.31-0.33C86.57,126.16,85.63,126.29,84.75,126.64z"/>
				</g>
			</g>
		</g>
		<g>
			<g>
				<g>
					<path class="st23" d="M48.24,112.98c-0.84,0.07-1.64,0.32-2.35,0.73c-1.23,0.73-2.06,1.9-2.35,3.32
						c-0.76,3.72,2.16,7.14,5.42,8.31c6.7,2.73,15.66,1.47,24.32,0.25c6.7-0.94,13.64-1.92,19.22-0.95l0.19-1.09
						c-5.76-1-12.78-0.01-19.57,0.94c-8.52,1.2-17.33,2.44-23.77-0.19c-2.84-1.02-5.38-3.93-4.73-7.05c0.23-1.1,0.88-2.02,1.83-2.58
						c0.95-0.56,2.11-0.73,3.27-0.5c1.68,0.34,2.76,1.99,2.42,3.66l1.09,0.22c0.46-2.28-1.01-4.51-3.28-4.97
						C49.37,112.97,48.8,112.93,48.24,112.98z"/>
				</g>
			</g>
			<g>
				<g>
					<path class="st23" d="M94.51,127.99c0.02,0.41,0.28,0.83,0.69,1.05c0.2,0.12,0.44,0.18,0.69,0.19c0.12,0,0.25-0.01,0.37-0.04
						l0.07-0.01l0.09-0.02c0.06-0.02,0.11-0.04,0.17-0.06c0.45-0.16,0.86-0.49,1.12-0.95c0.26-0.45,0.33-1.04,0.19-1.55l0.02,0.06
						c-0.07-0.47-0.3-0.89-0.57-1.22c-0.28-0.33-0.5-0.53-0.89-0.79c-0.39-0.25-2.34-0.99-3.77-1.1c-1.43-0.08-1.45,0.76-0.19,1.09
						c1.43,0.31,2.63,0.79,3.22,1.13s0.9,0.73,1.03,1.12c0.13,0.38,0.12,0.56,0.04,0.81c-0.09,0.25-0.27,0.5-0.53,0.68l-0.1,0.06
						l-0.05,0.03l-0.07,0.03c-0.06,0.03-0.13,0.06-0.2,0.08c-0.14,0.04-0.3,0.05-0.47,0.02C95.05,128.55,94.72,128.34,94.51,127.99z
						"/>
				</g>
			</g>
			<g>
				<g>
					<path class="st23" d="M53.27,117.51c-0.08-1-0.96-1.74-1.95-1.65c-1,0.08-1.74,0.95-1.66,1.95c0.08,1,0.96,1.74,1.95,1.66
						C52.62,119.38,53.36,118.5,53.27,117.51z"/>
				</g>
			</g>
			<g>
				<g>
					<path class="st19" d="M42.29,125.52l-0.22,0.17c0.19,0.24,4.79,5.78,21.51,4l-0.03-0.28
						C46.99,131.18,42.34,125.58,42.29,125.52z"/>
				</g>
			</g>
		</g>
	</g>
</g>
<g id="Layer_3">
</g>
</svg>
