<?xml version="1.0" encoding="UTF-8"?><svg id="Icons" xmlns="http://www.w3.org/2000/svg" viewBox="0 0 180 180"><defs><style>.cls-1{fill:#d9b767;}.cls-2{fill:none;stroke:#fff;stroke-miterlimit:10;stroke-width:.68px;}.cls-3{fill:#092628;fill-rule:evenodd;}</style></defs><path class="cls-3" d="m173.73,96.89c0,.75-.59,1.5-1.32,1.68L9.52,138.61c-.72.18-1.32-.29-1.32-1.03v-32.69c0-.75.59-1.5,1.32-1.68l162.9-40.04c.72-.18,1.32.29,1.32,1.03v32.69Z"/><path class="cls-3" d="m115.68,80.42c1.01.93,2.02,1.78,3.07,2.59,0-1.78,0-3.56-.24-5.01,1.1,2.12,1.93,4.38,2.47,6.71,1.13.85,2.34,1.62,3.52,2.39,0-2.79,0-8.09-.24-9.54,1.74,3.64,2.97,7.5,3.64,11.48,1.21.65,2.06,1.09,3.52,1.74-.15-4.64-.62-9.26-1.42-13.83,2.47,4.77,4.11,9.92,4.85,15.24,1.29.53,2.63.97,4.04,1.42-.2-5.44-.86-10.85-1.98-16.17,2.78,5.38,4.58,11.21,5.3,17.22,1.74.49,3.56.93,5.42,1.33-4.04-14.72-7.44-23.41-13.58-31.62-2.75-.94-5.45-2.02-8.09-3.23l-.28.73c-.24.53-.53,1.05-.81,1.54l-1.46,2.71-2.87-1.17c-1.24-.5-2.46-1.06-3.64-1.7.29,1.86.44,3.74.44,5.62,0,3.95-.61,7.88-1.82,11.64l.16-.08Zm-7.4-27.17c.24-.73.49-1.5.69-2.22,2.54,1.44,5.26,2.54,8.09,3.27-2.65-1.92-5.17-4.03-7.52-6.31,0-.93.32-1.86.44-2.79,2.41,1.35,5,2.35,7.68,2.99-2.64-1.87-5.13-3.95-7.44-6.23.08-1.13.08-2.27,0-3.4,2.2,1.14,4.52,2.02,6.91,2.63-2.6-1.9-5.06-3.98-7.36-6.23-.25-1.19-.57-2.37-.97-3.52,1.72.85,3.54,1.5,5.42,1.94-.65-.49-5.13-4.57-7.6-6.71-1.8-3.04-4.08-5.77-6.75-8.09,16.17,4.81,29.92,29.07,22.12,43.1-4.91-2.21-9.51-5.04-13.71-8.41v-.04Zm-20.5,17.26c-9.86-10.47-14.31-20.22-14.31-30.4.57-9.02,4.58-17.47,11.2-23.61-11.44,6.39-16.17,15.16-16.17,24.26,0,12.98,8.61,26.76,19.16,35.7,3.59-2.77,6.76-6.03,9.42-9.7,10.75-14.11,15.36-32.91.36-45.77-2.67-2.48-6-4.15-9.58-4.81v3.6c1.44,1.78,3.3,3.17,5.42,4.04-1.8.41-3.67.31-5.42-.28v3.36c1.94.99,3.99,1.74,6.1,2.22-1.97.73-4.02,1.23-6.1,1.5v3.11c2.11.23,4.24.11,6.31-.36-1.77,1.71-3.94,2.94-6.31,3.6v4.04c2.56-.84,5.02-1.94,7.36-3.27-1.97,2.77-4.47,5.12-7.36,6.91v4.08c3.27-2.01,6.28-4.39,8.98-7.12-2.02,4.46-5.1,8.37-8.98,11.36v4.04c3.31-1.93,6.34-4.3,9.02-7.03-1.61,4.69-4.79,8.68-9.02,11.28v4.04c3.57-2.29,6.84-5,9.74-8.09-2.47,4.85-5.77,9.23-9.74,12.94l-.08.36Zm-20.54-17.26c-4.2,3.36-8.8,6.19-13.71,8.41-7.8-14.03,5.98-38.29,22.12-43.1-1.69,1.48-3.24,3.12-4.61,4.89-7.76,7.12-16.17,19.29-14.47,31.66,3.24-2.24,6.34-4.68,9.26-7.32.34,1.85.81,3.68,1.42,5.46Zm60.28,1.46c2.7,1.56,5.62,2.7,8.65,3.4-3.03-1.95-5.87-4.16-8.49-6.63.06-.89.06-1.78,0-2.67,2.07,1.6,4.41,2.82,6.91,3.6-2.02-1.62-5.82-5.54-7.6-7.36-.24-1.15-.57-2.29-.97-3.4,1.98,1.98,4.29,3.6,6.83,4.77-2.67-2.95-5.98-6.51-9.14-10.35-.94-1.88-2.01-3.69-3.19-5.42-.89-1.29-1.82-2.55-2.83-3.76,15.53,10.79,22.64,28.71,29.96,37.72-7.01-1.49-13.8-3.85-20.22-7.03.23-.94.38-1.9.44-2.87h-.36Zm-79.73-2.14c-2.62,1.37-5.32,2.57-8.09,3.6,1.78-2.87,3.6-5.78,5.54-8.57s4.04-5.86,5.58-8.41c1.22-3,2.75-5.85,4.57-8.53.89-1.29,1.82-2.55,2.83-3.76-15.53,10.79-22.64,28.71-29.92,37.72,6.97-1.58,13.74-3.89,20.22-6.91-.35-1.69-.54-3.41-.57-5.13h-.16Zm-9.5,73.06c2.96,7.89,5.3,16,6.99,24.26l5.9-5.94c-.69-1.25-1.29-2.47-1.86-3.72l-2.22,2.26c-1.38-6.49-3.09-12.9-5.13-19.2l-3.68,2.39v-.04Zm-3.11-27.94c1.74-.53,3.48-1.05,5.13-1.66-.4,3.27-1.58,12.74-1.78,14.07-.24,1.98-.53,4.04-.81,5.98l8.09-5.26c.63,1.5,1.33,2.97,2.1,4.41l-16.66,10.84c.93-5.3,3.03-19.65,4.04-28.3l-.12-.08Zm34,31.25l-8.49,23.29c-7.4-10.79-12.45-20.66-12.9-32.75l2.06-1.33c2.06,8.18,5.33,16,9.7,23.21l6.39-17.26c1.05,1.62,2.22,3.19,3.44,4.73l-.2.12Zm18.6,36.87c7.73-5.94,14.78-12.72,21.02-20.22l-5.01-13.58c-4.24,4.78-8.85,9.21-13.79,13.26l-2.22,1.9v3.23c3.2-1.55,6.21-3.46,8.98-5.7-2.13,3.66-5.24,6.66-8.98,8.65v2.59c4.96-2.41,9.54-5.54,13.58-9.3-3.29,5.5-7.98,10.03-13.58,13.14-5.49-4.74-10.66-9.83-15.48-15.24l3.19-8.49c-1.29-1.29-2.55-2.63-3.76-4.04l-5.01,13.54c6.25,7.5,13.31,14.28,21.06,20.22v.04Zm0-23.17c8.77-6.85,16.17-15.3,21.79-24.91l-9.1-14.03c-3.33,3.36-6.83,6.53-10.51,9.5l-2.18,1.78v4.04c2.83-1.74,6.06-3.76,7.56-4.97-2.1,3.06-4.65,5.79-7.56,8.09v2.79c4.14-2.6,8.08-5.49,11.81-8.65-3.19,4.87-7.18,9.16-11.81,12.7v3.03c5.73-3.13,10.99-7.03,15.65-11.6-3.88,6.54-9.24,12.08-15.65,16.17-6.28-5.35-11.73-11.6-16.17-18.56l6.95-10.63c-1.21-1.13-2.39-2.3-3.56-3.48l-9.06,13.83c5.63,9.62,13.04,18.07,21.83,24.91Zm-14.96-41.4l-15.12,22.68c-8.57-11.89-11.28-17.87-11.36-30.44,1.73-.81,3.42-1.7,5.09-2.67-.26,3.59-.11,7.2.44,10.75.9,4.91,2.84,9.57,5.7,13.67l11.2-18.44c1.21,1.54,2.47,2.99,3.8,4.45h.24Zm-12.78-20.82c-.74-2.29-1.25-4.65-1.54-7.03-.87,2.1-2.26,3.95-4.04,5.38-5.76,4.63-12.34,8.11-19.41,10.27,2-7.37,5.2-14.36,9.46-20.7.77-1.05,2.83-3.32,5.38-5.98l-.24-.57c-.12-.23-.23-.48-.32-.73-2.57,1.21-5.2,2.29-7.88,3.23-6.15,8.09-9.7,16.9-13.58,31.62,11.85-2.13,22.89-7.49,31.9-15.48h.28Zm2.71-19.61c-.71,2.64-1.06,5.36-1.05,8.09,0,16.17,11.12,29.47,26.28,41.85,15.12-12.37,26.28-25.88,26.28-41.85,0-2.73-.38-5.45-1.09-8.09-1.58-1.01-4.04-2.83-5.98-4.04-1.89,4.32-4.29,8.39-7.16,12.13-2.78,3.9-6.09,7.4-9.82,10.39l-2.22,1.94v3.8c3.15-2.05,6.18-4.26,9.1-6.63-2.65,3.82-5.8,7.26-9.38,10.23v4.33c4.68-2.94,9.16-6.18,13.42-9.7-3.59,5.2-8.03,9.75-13.14,13.46v3.84c5.73-3.38,11.03-7.46,15.77-12.13-3.93,6.62-9.32,12.25-15.77,16.46-12.82-11.32-21.79-22.6-21.79-38.04.11-3.22.75-6.41,1.9-9.42v-.24c-1.74,1.29-3.56,2.59-5.42,3.76l.08-.12Zm74.67,64.69c-2.96,7.89-5.3,16-6.99,24.26l-2.39-2.43c.98-2.72,1.59-5.56,1.82-8.45-1.11,2.25-2.35,4.44-3.72,6.55l-1.62-1.62c3.86-6.8,6.23-14.33,6.95-22.12l5.94,4.04v-.24Zm3.15-27.94c.85,8.73,2.95,23.09,4.04,28.3l-4.41-2.87c.31-3.38.23-6.79-.24-10.15-.36,1.9-1.09,5.22-2.02,8.69l-3.27-2.14c.56-3.03.8-6.1.73-9.18-.49,1.78-1.66,4.61-2.79,7.84l-4.65-3.03c3.37-6.2,5.1-13.16,5.01-20.22,2.47.97,5.05,1.86,7.76,2.63l-.16.12Zm-34.04,31.25c2.01-2.54,3.81-5.25,5.38-8.09l5.98,9.06,2.95-4.04c2.02-2.83,3.76-5.38,5.22-7.76l2.06,1.33c-.44,12.13-5.5,21.95-12.9,32.75l-1.05-2.83c2.67-3.98,4.5-8.47,5.38-13.18-1.97,3.64-4.26,7.1-6.83,10.35l-1.17-3.15c1.54-3.05,2.63-6.3,3.23-9.66-1.05,1.86-2.59,4.04-4.29,6.83l-1.29-3.36c.81-2.36,1.42-4.78,1.82-7.24-.86,1.53-1.82,3-2.87,4.41l-1.98-5.3.36-.12Zm-3.44-27.69c4.8-5.06,8.69-10.91,11.48-17.3,4.46,3.88,9.44,7.11,14.8,9.62,0,12.57-2.79,18.56-11.36,30.44l-2.55-4.04c2.92-3.5,5.33-7.39,7.16-11.56-2.74,3.18-5.73,6.14-8.94,8.85l-1.98-2.99c2.27-3.07,4.15-6.41,5.58-9.95-2.34,2.65-4.81,5.19-7.4,7.6l-2.18-3.36c2.1-2.88,3.84-6,5.18-9.3-1.37,1.54-4.04,4.04-6.79,6.83l-2.99-4.85Z"/><path class="cls-3" d="m172.37,95.54c0,.75-.59,1.5-1.32,1.68L8.16,137.25c-.72.18-1.32-.29-1.32-1.03v-32.69c0-.75.59-1.5,1.32-1.68l162.9-40.04c.72-.18,1.32.29,1.32,1.03v32.69Z"/><path class="cls-2" d="m172.37,95.54c0,.75-.59,1.5-1.32,1.68L8.16,137.25c-.72.18-1.32-.29-1.32-1.03v-32.69c0-.75.59-1.5,1.32-1.68l162.9-40.04c.72-.18,1.32.29,1.32,1.03v32.69Z"/><path class="cls-1" d="m23.5,125.07l-3.03.74.46-8.16-4.47,1.1-.47,8.15-3.04.74,1.12-19.04,3.02-.75-.45,7.71,4.47-1.11.44-7.71,3.01-.75-1.07,19.07Z"/><path class="cls-1" d="m33.51,118.76l-4.14,1.02-1.02,4.1-3.21.79,5.73-20.24,2.76-.69,3.71,17.94-3.24.79-.6-3.71Zm-3.3-2.36l2.8-.69-1.04-6.46-1.77,7.15Z"/><path class="cls-1" d="m49.26,118.76l-3.04.74-3.8-11.46-.64,12.55-3.04.74.99-19.12,3.02-.75,3.8,11.46.63-12.57,3.01-.75-.94,19.15Z"/><path class="cls-1" d="m51.7,118.16l.93-19.15,3.96-.99c1.75-.43,3.1-.07,4.08,1.09.97,1.16,1.41,2.98,1.32,5.45l-.14,3.11c-.12,2.52-.73,4.63-1.84,6.32-1.11,1.69-2.58,2.76-4.41,3.21l-3.89.95Zm3.8-16.68l-.61,12.73.91-.22c1.01-.25,1.74-.76,2.18-1.55.44-.78.72-2.01.81-3.68l.16-3.33c.08-1.79-.05-2.99-.41-3.6-.36-.61-1.01-.82-1.94-.62l-1.1.27Z"/><path class="cls-1" d="m71.84,106.54l-.29,6.76-3.04.74.85-19.2,5.1-1.27c1.48-.37,2.63-.07,3.46.89.83.96,1.21,2.38,1.13,4.27-.08,1.88-.58,3.48-1.49,4.79-.92,1.31-2.15,2.15-3.7,2.53l-2.02.5Zm.14-3.23l2.08-.51c.58-.14,1.03-.5,1.37-1.06.34-.56.52-1.31.56-2.23.04-.96-.09-1.68-.39-2.17-.3-.49-.72-.67-1.26-.54l-2.11.52-.26,5.99Z"/><path class="cls-1" d="m91.05,89.43l-.51,13.34c-.09,2.01-.58,3.64-1.47,4.91-.89,1.27-2.12,2.1-3.7,2.49-1.61.4-2.82.16-3.63-.71-.81-.87-1.17-2.31-1.08-4.35l.54-13.22,3.04-.76-.53,13.24c-.04,1.09.06,1.84.32,2.24.26.4.75.51,1.47.33.72-.18,1.23-.53,1.51-1.06.29-.53.45-1.32.5-2.38l.52-13.32,3.02-.75Z"/><path class="cls-1" d="m97.29,87.87l2.32,13.25,3.32-14.65,3.94-.98-.66,19.31-3.04.75.18-5.22.56-8.12-3.47,14.01-2.06.51-2.51-12.52-.02,7.97-.19,5.22-3.03.75.73-19.27,3.94-.98Z"/><path class="cls-1" d="m111.9,96.65l-.22,6.8-3.03.74.65-19.32,5.09-1.27c1.48-.37,2.64-.07,3.48.9.84.97,1.23,2.4,1.18,4.29-.06,1.9-.54,3.5-1.45,4.82-.91,1.31-2.13,2.16-3.68,2.54l-2.02.5Zm.11-3.25l2.08-.52c.58-.14,1.03-.5,1.36-1.06.33-.57.51-1.31.54-2.24.03-.97-.11-1.69-.41-2.18-.3-.49-.73-.67-1.27-.55l-2.11.52-.2,6.03Z"/><path class="cls-1" d="m136.32,89.49c-.07,2.6-.6,4.74-1.59,6.41-.99,1.67-2.33,2.71-4.03,3.13-1.68.41-2.99.03-3.91-1.16-.92-1.19-1.35-3.06-1.29-5.62l.1-3.31c.08-2.66.61-4.85,1.61-6.58.99-1.73,2.34-2.81,4.03-3.23,1.66-.42,2.95,0,3.87,1.22.92,1.23,1.35,3.17,1.29,5.82l-.09,3.32Zm-2.95-2.5c.05-1.75-.11-3-.47-3.76-.36-.76-.94-1.03-1.75-.83-.8.2-1.41.76-1.81,1.67-.41.92-.64,2.21-.7,3.89l-.1,3.45c-.05,1.69.11,2.89.48,3.6.37.71.96.96,1.78.76.79-.2,1.39-.73,1.8-1.61.41-.88.64-2.15.69-3.8l.09-3.37Z"/><path class="cls-1" d="m148.78,94.33l-3.03.75-4.11-11.64-.32,12.73-3.03.74.51-19.4,3.02-.75,4.12,11.65.31-12.75,3.01-.75-.46,19.43Z"/><path class="cls-1" d="m154.32,89.72l5.32-1.31-.07,3.26-8.36,2.05.44-19.44,3.02-.75-.36,16.19Z"/><path class="cls-1" d="m163.19,80.11l2.42-9.31,3.28-.82-4.24,13.41-.14,7.06-3.07.76.14-7.06-3.76-11.4,3.28-.82,2.09,8.18Z"/></svg>