<?xml version="1.0" encoding="utf-8"?>
<!-- Generator: Adobe Illustrator 26.0.2, SVG Export Plug-In . SVG Version: 6.00 Build 0)  -->
<svg version="1.1" xmlns="http://www.w3.org/2000/svg" xmlns:xlink="http://www.w3.org/1999/xlink" x="0px" y="0px"
	 viewBox="0 0 180 180" style="enable-background:new 0 0 180 180;" xml:space="preserve">
<style type="text/css">
	.st0{display:none;}
	.st1{display:inline;fill:#F18A00;}
	.st2{display:inline;fill:#490E67;}
	.st3{display:inline;fill:#D9B767;}
	.st4{display:inline;fill:#5B6670;}
	.st5{display:inline;fill:#7A5FA8;}
	.st6{display:inline;fill:#A12B2A;}
	.st7{display:inline;fill:#092628;}
	.st8{display:inline;fill:#003B71;}
	.st9{fill:#7A5FA8;}
	.st10{opacity:0.3;}
	.st11{fill:none;stroke:#D9B767;stroke-width:1.1175;stroke-linecap:round;stroke-miterlimit:10;}
	.st12{fill:#FFFFFF;}
	.st13{fill-rule:evenodd;clip-rule:evenodd;fill:#D9B767;}
	.st14{fill:#000F9F;}
	.st15{fill-rule:evenodd;clip-rule:evenodd;fill:#191F41;}
	.st16{fill:#003B71;}
	.st17{fill-rule:evenodd;clip-rule:evenodd;fill:#D7DEDB;}
	.st18{fill:#231F20;}
	.st19{fill:#D7DEDB;}
	.st20{opacity:0.35;}
	.st21{fill:none;stroke:#000000;stroke-width:0.6113;stroke-linecap:round;stroke-linejoin:round;stroke-miterlimit:10;}
	.st22{fill:none;stroke:#092628;stroke-width:0.6113;stroke-linecap:round;stroke-linejoin:round;stroke-miterlimit:10;}
	.st23{fill:#D9B767;}
	.st24{clip-path:url(#SVGID_00000121999367454537282770000016658930635973849472_);fill:#A2A9AD;}
	.st25{display:none;clip-path:url(#SVGID_00000121999367454537282770000016658930635973849472_);}
	.st26{display:inline;fill:#A7AEB4;}
	.st27{clip-path:url(#SVGID_00000121999367454537282770000016658930635973849472_);}
	.st28{fill:#A2A9AD;}
	.st29{clip-path:url(#SVGID_00000121999367454537282770000016658930635973849472_);fill:#7B868C;}
	.st30{fill:#5B6670;}
	.st31{clip-path:url(#SVGID_00000121999367454537282770000016658930635973849472_);fill:#323E48;}
	.st32{clip-path:url(#SVGID_00000121999367454537282770000016658930635973849472_);fill:#5B6670;}
	.st33{clip-path:url(#SVGID_00000121999367454537282770000016658930635973849472_);fill:#FFFFFF;}
	.st34{clip-path:url(#SVGID_00000121999367454537282770000016658930635973849472_);fill:#1D252C;}
	.st35{clip-path:url(#SVGID_00000121999367454537282770000016658930635973849472_);fill:#E5E5E4;}
	.st36{fill:#201747;}
	.st37{fill:#252832;}
	.st38{fill:#242731;}
	.st39{fill:#84C346;stroke:#84C346;stroke-width:0.7255;stroke-miterlimit:10;}
	.st40{fill:none;}
	.st41{fill:#002B49;}
	.st42{fill:#092628;}
	.st43{fill:#CAD5DA;stroke:#CAD5DA;stroke-width:2.1515;stroke-miterlimit:10;}
	.st44{fill:#6D52A1;}
	.st45{fill:#CAD5DA;}
	.st46{display:inline;}
	.st47{display:inline;clip-path:url(#SVGID_00000019662879223090299480000013540937501190977711_);}
	.st48{fill:url(#SVGID_00000023968605136168301870000008468251387903167632_);}
	.st49{fill:#F9B5C3;}
	.st50{fill:#F26178;}
	.st51{fill:#323E48;}
</style>
<g id="Backgrounds" class="st0">
	
		<rect x="-0.51" y="-0.51" transform="matrix(-1 -1.224647e-16 1.224647e-16 -1 179.4888 179.4888)" class="st7" width="180.51" height="180.51"/>
</g>
<g id="Icons">
	<g class="st10">
		<line class="st11" x1="90.01" y1="19.33" x2="90.01" y2="16.08"/>
		<line class="st11" x1="90.06" y1="29.21" x2="90.01" y2="23.33"/>
		<line class="st11" x1="90.14" y1="39.68" x2="90.08" y2="33.23"/>
		<line class="st11" x1="85.39" y1="37.26" x2="84.84" y2="30.94"/>
		<line class="st11" x1="86.26" y1="47.52" x2="85.76" y2="41.5"/>
		<line class="st11" x1="79.28" y1="29.28" x2="78.67" y2="25.69"/>
		<line class="st11" x1="81" y1="38.72" x2="80.01" y2="33.32"/>
		<line class="st11" x1="83.59" y1="54.19" x2="81.81" y2="43.26"/>
		<line class="st11" x1="75.43" y1="35.64" x2="74.65" y2="32.72"/>
		<line class="st11" x1="78.4" y1="47.07" x2="76.51" y2="39.66"/>
		<line class="st11" x1="81.54" y1="58.31" x2="79.48" y2="51.09"/>
		<path class="st11" d="M90.14,72.99c0-14.15,0-29,0-29"/>
		<path class="st11" d="M88.46,73.06c-0.96-10.81-1.8-21-1.8-21"/>
		<path class="st11" d="M84.3,58.42c0,0,1.14,6.96,2.54,14.85"/>
		<path class="st11" d="M85.45,73.6c-1.57-6.15-2.78-11.21-2.78-11.21"/>
		<line class="st11" x1="65.84" y1="23.58" x2="64.72" y2="20.54"/>
		<line class="st11" x1="69.26" y1="32.86" x2="67.21" y2="27.35"/>
		<line class="st11" x1="72.9" y1="42.67" x2="70.67" y2="36.63"/>
		<line class="st11" x1="67.62" y1="42.02" x2="64.94" y2="36.27"/>
		<line class="st11" x1="71.97" y1="51.36" x2="69.43" y2="45.88"/>
		<line class="st11" x1="59.17" y1="36.6" x2="57.35" y2="33.46"/>
		<line class="st11" x1="64" y1="44.9" x2="61.23" y2="40.15"/>
		<line class="st11" x1="71.73" y1="58.53" x2="66.31" y2="48.89"/>
		<line class="st11" x1="57.73" y1="43.9" x2="56" y2="41.43"/>
		<line class="st11" x1="64.42" y1="53.63" x2="60.11" y2="47.3"/>
		<line class="st11" x1="71.21" y1="63.13" x2="66.81" y2="57.02"/>
		<path class="st11" d="M84.3,73.96c-4.78-13.37-9.97-27.25-9.97-27.25"/>
		<path class="st11" d="M82.75,74.61c-4.54-9.75-8.87-19.11-8.87-19.11"/>
		<path class="st11" d="M73.84,62.28c0,0,3.44,6.15,7.46,13.09"/>
		<path class="st11" d="M80.11,76.14c-3.6-5.24-6.43-9.61-6.43-9.61"/>
		<line class="st11" x1="44.57" y1="35.86" x2="42.5" y2="33.37"/>
		<line class="st11" x1="50.97" y1="43.39" x2="47.15" y2="38.94"/>
		<line class="st11" x1="57.75" y1="51.38" x2="53.58" y2="46.45"/>
		<line class="st11" x1="52.56" y1="52.56" x2="48.09" y2="48.08"/>
		<line class="st11" x1="59.84" y1="59.86" x2="55.58" y2="55.57"/>
		<line class="st11" x1="42.77" y1="50.37" x2="39.99" y2="48.02"/>
		<line class="st11" x1="50.16" y1="56.51" x2="45.9" y2="53"/>
		<line class="st11" x1="62.07" y1="66.68" x2="53.67" y2="59.47"/>
		<line class="st11" x1="43.9" y1="57.72" x2="41.43" y2="55.99"/>
		<line class="st11" x1="53.51" y1="64.57" x2="47.31" y2="60.1"/>
		<line class="st11" x1="63.15" y1="71.17" x2="56.94" y2="66.95"/>
		<path class="st11" d="M79.16,76.81c-9.01-10.81-18.62-22.22-18.62-22.22"/>
		<path class="st11" d="M77.93,78.01c-7.61-7.61-14.87-14.92-14.87-14.92"/>
		<path class="st11" d="M65.32,69.49c0,0,5.41,4.58,11.48,9.73"/>
		<path class="st11" d="M75.97,80.41c-5.15-3.6-9.34-6.81-9.34-6.81"/>
		<line class="st11" x1="28.8" y1="54.66" x2="25.99" y2="53.03"/>
		<line class="st11" x1="37.38" y1="59.56" x2="32.28" y2="56.67"/>
		<line class="st11" x1="46.48" y1="64.73" x2="40.88" y2="61.54"/>
		<line class="st11" x1="42.01" y1="67.61" x2="36.26" y2="64.95"/>
		<line class="st11" x1="51.35" y1="71.99" x2="45.89" y2="69.42"/>
		<line class="st11" x1="32.06" y1="68.91" x2="28.64" y2="67.67"/>
		<line class="st11" x1="41.11" y1="72.16" x2="35.92" y2="70.32"/>
		<line class="st11" x1="55.78" y1="77.64" x2="45.42" y2="73.72"/>
		<line class="st11" x1="35.65" y1="75.44" x2="32.73" y2="74.64"/>
		<line class="st11" x1="47.02" y1="78.59" x2="39.67" y2="76.5"/>
		<line class="st11" x1="58.32" y1="81.49" x2="51.04" y2="79.64"/>
		<path class="st11" d="M75.34,81.37C63.1,74.16,50.23,66.95,50.23,66.95"/>
		<path class="st11" d="M74.54,82.86l-19.09-9.01"/>
		<path class="st11" d="M59.8,79.17c0,0,6.6,2.47,14.13,5.21"/>
		<path class="st11" d="M73.52,85.82c-6.11-1.8-11.1-3.23-11.1-3.23"/>
		<line class="st11" x1="20.4" y1="77.73" x2="17.21" y2="77.17"/>
		<line class="st11" x1="30.15" y1="79.38" x2="24.35" y2="78.43"/>
		<line class="st11" x1="40.46" y1="81.13" x2="34.12" y2="80.05"/>
		<line class="st11" x1="37.25" y1="85.39" x2="30.95" y2="84.83"/>
		<line class="st11" x1="47.53" y1="86.31" x2="41.51" y2="85.75"/>
		<line class="st11" x1="28.33" y1="90" x2="24.71" y2="90"/>
		<line class="st11" x1="37.96" y1="89.96" x2="32.44" y2="90"/>
		<line class="st11" x1="53.62" y1="90.09" x2="42.55" y2="89.96"/>
		<line class="st11" x1="33.94" y1="94.9" x2="30.95" y2="95.17"/>
		<line class="st11" x1="45.71" y1="93.97" x2="38.08" y2="94.54"/>
		<line class="st11" x1="57.33" y1="92.83" x2="49.85" y2="93.59"/>
		<path class="st11" d="M73.26,86.92c-13.93-2.51-28.55-5.05-28.55-5.05"/>
		<path class="st11" d="M73.05,88.58c-10.72-0.92-21-1.8-21-1.8"/>
		<path class="st11" d="M57.93,90.14c0,0,7.03,0,15.05,0"/>
		<path class="st11" d="M73.07,91.64c-6.33,0.47-11.55,0.78-11.55,0.78"/>
		<line class="st11" x1="20.4" y1="102.27" x2="17.21" y2="102.83"/>
		<line class="st11" x1="30.13" y1="100.51" x2="24.35" y2="101.57"/>
		<line class="st11" x1="40.43" y1="98.62" x2="34.08" y2="99.77"/>
		<line class="st11" x1="38.86" y1="103.7" x2="32.73" y2="105.34"/>
		<line class="st11" x1="48.82" y1="101.05" x2="42.99" y2="102.6"/>
		<line class="st11" x1="32.06" y1="111.09" x2="28.64" y2="112.33"/>
		<line class="st11" x1="41.07" y1="107.77" x2="35.92" y2="109.68"/>
		<line class="st11" x1="55.84" y1="102.53" x2="45.4" y2="106.19"/>
		<line class="st11" x1="39" y1="113.77" x2="36.26" y2="115.05"/>
		<line class="st11" x1="49.74" y1="108.89" x2="42.77" y2="112.03"/>
		<line class="st11" x1="60.27" y1="103.84" x2="53.49" y2="107.1"/>
		<path class="st11" d="M73.21,92.83c-13.93,2.4-28.55,5.01-28.55,5.01"/>
		<path class="st11" d="M73.57,94.47c-10.38,2.79-20.35,5.41-20.35,5.41"/>
		<path class="st11" d="M59.91,101.1c0,0,6.63-2.33,14.17-5.08"/>
		<path class="st11" d="M74.63,97.34c-5.71,2.6-10.58,4.7-10.58,4.7"/>
		<line class="st11" x1="28.8" y1="125.33" x2="25.99" y2="126.95"/>
		<line class="st11" x1="37.33" y1="120.35" x2="32.28" y2="123.33"/>
		<line class="st11" x1="46.36" y1="115.05" x2="40.8" y2="118.32"/>
		<line class="st11" x1="46.63" y1="120.37" x2="41.43" y2="124.01"/>
		<line class="st11" x1="55.08" y1="114.48" x2="50.12" y2="117.92"/>
		<line class="st11" x1="42.77" y1="129.63" x2="39.99" y2="131.96"/>
		<line class="st11" x1="50.1" y1="123.43" x2="45.9" y2="127"/>
		<line class="st11" x1="62.18" y1="113.45" x2="53.62" y2="120.48"/>
		<line class="st11" x1="50.21" y1="129.8" x2="48.09" y2="131.92"/>
		<line class="st11" x1="58.63" y1="121.51" x2="53.15" y2="126.86"/>
		<line class="st11" x1="66.79" y1="113.16" x2="61.55" y2="118.57"/>
		<path class="st11" d="M75.19,98.44c-12.27,7.03-25.11,14.42-25.11,14.42"/>
		<path class="st11" d="M76.13,99.8c-8.81,6.18-17.27,12.08-17.27,12.08"/>
		<path class="st11" d="M65.51,110.73c0,0,5.41-4.47,11.59-9.62"/>
		<path class="st11" d="M78.08,102.15c-4.54,4.42-8.35,8-8.35,8"/>
		<line class="st11" x1="44.57" y1="144.13" x2="42.5" y2="146.61"/>
		<line class="st11" x1="50.88" y1="136.54" x2="47.15" y2="141.06"/>
		<line class="st11" x1="57.57" y1="128.46" x2="53.44" y2="133.44"/>
		<line class="st11" x1="59.64" y1="133.37" x2="56" y2="138.57"/>
		<line class="st11" x1="65.57" y1="124.93" x2="62.07" y2="129.87"/>
		<line class="st11" x1="59.17" y1="143.4" x2="57.35" y2="146.54"/>
		<line class="st11" x1="63.95" y1="135.06" x2="61.23" y2="139.85"/>
		<line class="st11" x1="71.88" y1="121.54" x2="66.24" y2="131.08"/>
		<line class="st11" x1="66.22" y1="141.01" x2="64.94" y2="143.73"/>
		<line class="st11" x1="71.3" y1="130.34" x2="67.98" y2="137.22"/>
		<line class="st11" x1="76.11" y1="119.7" x2="73.05" y2="126.57"/>
		<path class="st11" d="M78.96,102.96c-9.14,10.81-18.65,22.19-18.65,22.19"/>
		<path class="st11" d="M80.29,103.97c-6.16,8.83-12.11,17.25-12.11,17.25"/>
		<path class="st11" d="M74.08,117.85c0,0,3.6-6.06,7.61-13"/>
		<path class="st11" d="M82.94,105.48c-2.76,5.71-5.01,10.38-5.01,10.38"/>
		<line class="st11" x1="65.84" y1="156.4" x2="64.72" y2="159.45"/>
		<line class="st11" x1="69.16" y1="147.1" x2="67.21" y2="152.63"/>
		<line class="st11" x1="72.67" y1="137.24" x2="70.51" y2="143.31"/>
		<line class="st11" x1="76.29" y1="141.13" x2="74.65" y2="147.26"/>
		<line class="st11" x1="78.98" y1="131.18" x2="77.41" y2="137.02"/>
		<line class="st11" x1="79.28" y1="150.72" x2="78.67" y2="154.29"/>
		<line class="st11" x1="80.93" y1="141.26" x2="80.01" y2="146.68"/>
		<line class="st11" x1="83.77" y1="125.85" x2="81.72" y2="136.72"/>
		<line class="st11" x1="85.09" y1="146.05" x2="84.84" y2="149.06"/>
		<line class="st11" x1="86.22" y1="134.3" x2="85.47" y2="141.91"/>
		<line class="st11" x1="87.13" y1="122.66" x2="86.57" y2="130.16"/>
		<path class="st11" d="M84.06,105.95c-4.88,13.27-9.93,27.23-9.93,27.23"/>
		<path class="st11" d="M85.67,106.46c-2.79,10.4-5.41,20.35-5.41,20.35"/>
		<path class="st11" d="M84.57,121.61c0,0,1.32-6.92,2.7-14.82"/>
		<path class="st11" d="M88.75,106.96c-0.63,6.31-1.24,11.5-1.24,11.5"/>
		<line class="st11" x1="90.01" y1="160.67" x2="90.01" y2="163.92"/>
		<line class="st11" x1="89.95" y1="150.79" x2="90.01" y2="156.65"/>
		<line class="st11" x1="89.88" y1="140.32" x2="89.92" y2="146.77"/>
		<line class="st11" x1="94.62" y1="142.74" x2="95.16" y2="149.06"/>
		<line class="st11" x1="93.74" y1="132.48" x2="94.24" y2="138.48"/>
		<line class="st11" x1="100.72" y1="150.72" x2="101.35" y2="154.29"/>
		<line class="st11" x1="99" y1="141.26" x2="99.99" y2="146.68"/>
		<line class="st11" x1="96.41" y1="125.81" x2="98.21" y2="136.74"/>
		<line class="st11" x1="104.57" y1="144.36" x2="105.35" y2="147.26"/>
		<line class="st11" x1="101.6" y1="132.91" x2="103.49" y2="140.34"/>
		<line class="st11" x1="98.46" y1="121.69" x2="100.52" y2="128.91"/>
		<path class="st11" d="M89.86,107.01c0,14.15,0,29,0,29"/>
		<path class="st11" d="M91.54,106.94c0.96,10.81,1.8,21,1.8,21"/>
		<path class="st11" d="M95.7,121.56c0,0-1.14-6.94-2.52-14.83"/>
		<path class="st11" d="M94.55,106.4c1.57,6.15,2.78,11.23,2.78,11.23"/>
		<line class="st11" x1="114.18" y1="156.4" x2="115.28" y2="159.45"/>
		<line class="st11" x1="110.74" y1="147.14" x2="112.81" y2="152.63"/>
		<line class="st11" x1="107.1" y1="137.33" x2="109.33" y2="143.37"/>
		<line class="st11" x1="112.38" y1="137.98" x2="115.06" y2="143.73"/>
		<line class="st11" x1="108.03" y1="128.64" x2="110.57" y2="134.12"/>
		<line class="st11" x1="120.83" y1="143.4" x2="122.65" y2="146.54"/>
		<line class="st11" x1="116" y1="135.1" x2="118.77" y2="139.85"/>
		<line class="st11" x1="108.27" y1="121.47" x2="113.69" y2="131.11"/>
		<line class="st11" x1="122.27" y1="136.09" x2="124" y2="138.57"/>
		<line class="st11" x1="115.58" y1="126.37" x2="119.89" y2="132.68"/>
		<line class="st11" x1="108.79" y1="116.87" x2="113.19" y2="122.97"/>
		<path class="st11" d="M95.7,106.04c4.78,13.3,9.9,27.23,9.9,27.23"/>
		<path class="st11" d="M97.25,105.39c4.56,9.75,8.89,19.11,8.89,19.11"/>
		<path class="st11" d="M106.16,117.7c0,0-3.44-6.13-7.46-13.07"/>
		<path class="st11" d="M99.89,103.84c3.6,5.23,6.43,9.61,6.43,9.61"/>
		<line class="st11" x1="135.43" y1="144.13" x2="137.52" y2="146.61"/>
		<line class="st11" x1="129.03" y1="136.59" x2="132.85" y2="141.06"/>
		<line class="st11" x1="122.25" y1="128.62" x2="126.44" y2="133.55"/>
		<line class="st11" x1="127.44" y1="127.44" x2="131.93" y2="131.92"/>
		<line class="st11" x1="120.16" y1="120.14" x2="124.42" y2="124.43"/>
		<line class="st11" x1="137.23" y1="129.63" x2="140.02" y2="131.96"/>
		<line class="st11" x1="129.84" y1="123.49" x2="134.1" y2="127"/>
		<line class="st11" x1="117.93" y1="113.32" x2="126.33" y2="120.53"/>
		<line class="st11" x1="136.1" y1="122.28" x2="138.57" y2="124.01"/>
		<line class="st11" x1="126.49" y1="115.41" x2="132.69" y2="119.88"/>
		<line class="st11" x1="116.85" y1="108.83" x2="123.06" y2="113.05"/>
		<path class="st11" d="M100.84,103.12c9.01,10.81,18.62,22.22,18.62,22.22"/>
		<path class="st11" d="M102.08,102.04c7.61,7.61,14.87,14.92,14.87,14.92"/>
		<path class="st11" d="M114.67,110.51c0,0-5.41-4.6-11.48-9.75"/>
		<path class="st11" d="M104.03,99.64c5.15,3.6,9.34,6.81,9.34,6.81"/>
		<line class="st11" x1="151.2" y1="125.33" x2="154.01" y2="126.95"/>
		<line class="st11" x1="142.62" y1="120.44" x2="147.74" y2="123.33"/>
		<line class="st11" x1="133.52" y1="115.27" x2="139.12" y2="118.46"/>
		<line class="st11" x1="137.99" y1="112.37" x2="143.74" y2="115.05"/>
		<line class="st11" x1="128.65" y1="108.01" x2="134.11" y2="110.57"/>
		<line class="st11" x1="147.96" y1="111.09" x2="151.36" y2="112.33"/>
		<line class="st11" x1="138.91" y1="107.84" x2="144.1" y2="109.68"/>
		<line class="st11" x1="124.22" y1="102.36" x2="134.58" y2="106.26"/>
		<line class="st11" x1="144.35" y1="104.56" x2="147.27" y2="105.34"/>
		<line class="st11" x1="132.98" y1="101.41" x2="140.35" y2="103.48"/>
		<line class="st11" x1="121.68" y1="98.51" x2="128.96" y2="100.35"/>
		<path class="st11" d="M104.68,98.62c12.22,7.12,25.09,14.42,25.09,14.42"/>
		<path class="st11" d="M105.46,97.14l19.09,8.92"/>
		<path class="st11" d="M120.2,100.83c0,0-6.6-2.49-14.13-5.23"/>
		<path class="st11" d="M106.48,94.25c6.11,1.8,11.1,3.23,11.1,3.23"/>
		<line class="st11" x1="159.6" y1="102.27" x2="162.79" y2="102.83"/>
		<line class="st11" x1="149.87" y1="100.6" x2="155.65" y2="101.57"/>
		<line class="st11" x1="139.54" y1="98.87" x2="145.9" y2="99.93"/>
		<line class="st11" x1="142.75" y1="94.61" x2="149.07" y2="95.17"/>
		<line class="st11" x1="132.47" y1="93.69" x2="138.49" y2="94.24"/>
		<line class="st11" x1="151.67" y1="90" x2="155.29" y2="90"/>
		<line class="st11" x1="142.04" y1="90.04" x2="147.56" y2="90"/>
		<line class="st11" x1="126.38" y1="89.91" x2="137.45" y2="90.04"/>
		<line class="st11" x1="146.06" y1="85.1" x2="149.07" y2="84.83"/>
		<line class="st11" x1="134.29" y1="86.02" x2="141.92" y2="85.46"/>
		<line class="st11" x1="122.67" y1="87.17" x2="130.15" y2="86.4"/>
		<path class="st11" d="M106.77,93.03c13.93,2.51,28.55,5.05,28.55,5.05"/>
		<path class="st11" d="M106.97,91.42c10.71,0.92,20.98,1.8,20.98,1.8"/>
		<path class="st11" d="M122.09,89.86c0,0-7.05-0.09-15.07,0"/>
		<path class="st11" d="M106.95,88.36c6.31-0.47,11.54-0.78,11.54-0.78"/>
		<line class="st11" x1="159.6" y1="77.73" x2="162.79" y2="77.17"/>
		<line class="st11" x1="149.88" y1="79.49" x2="155.65" y2="78.43"/>
		<line class="st11" x1="139.57" y1="81.38" x2="145.92" y2="80.23"/>
		<line class="st11" x1="141.14" y1="76.3" x2="147.27" y2="74.64"/>
		<line class="st11" x1="131.18" y1="78.93" x2="137.01" y2="77.4"/>
		<line class="st11" x1="147.96" y1="68.91" x2="151.36" y2="67.67"/>
		<line class="st11" x1="138.93" y1="72.23" x2="144.1" y2="70.32"/>
		<line class="st11" x1="124.16" y1="77.47" x2="134.6" y2="73.8"/>
		<line class="st11" x1="141" y1="66.21" x2="143.74" y2="64.95"/>
		<line class="st11" x1="130.26" y1="71.11" x2="137.23" y2="67.97"/>
		<line class="st11" x1="119.73" y1="76.16" x2="126.51" y2="72.88"/>
		<path class="st11" d="M106.77,87.17c13.95-2.4,28.57-4.96,28.57-4.96"/>
		<path class="st11" d="M106.43,85.53c10.38-2.79,20.35-5.41,20.35-5.41"/>
		<path class="st11" d="M120.09,78.9c0,0-6.63,2.33-14.17,5.12"/>
		<path class="st11" d="M105.37,82.66c5.79-2.61,10.58-4.67,10.58-4.67"/>
		<line class="st11" x1="151.2" y1="54.66" x2="154.01" y2="53.03"/>
		<line class="st11" x1="142.67" y1="59.65" x2="147.74" y2="56.67"/>
		<line class="st11" x1="133.64" y1="64.95" x2="139.21" y2="61.68"/>
		<line class="st11" x1="133.37" y1="59.63" x2="138.57" y2="55.99"/>
		<line class="st11" x1="124.92" y1="65.52" x2="129.88" y2="62.08"/>
		<line class="st11" x1="137.23" y1="50.37" x2="140.02" y2="48.02"/>
		<line class="st11" x1="129.9" y1="56.57" x2="134.1" y2="53"/>
		<line class="st11" x1="117.82" y1="66.55" x2="126.38" y2="59.52"/>
		<line class="st11" x1="129.79" y1="50.2" x2="131.93" y2="48.08"/>
		<line class="st11" x1="121.37" y1="58.48" x2="126.85" y2="53.14"/>
		<line class="st11" x1="113.21" y1="66.82" x2="118.45" y2="61.43"/>
		<path class="st11" d="M104.81,81.6c12.27-7.03,25.11-14.42,25.11-14.42"/>
		<path class="st11" d="M103.91,80.18c8.81-6.18,17.28-12.06,17.28-12.06"/>
		<path class="st11" d="M114.49,69.27c0,0-5.41,4.45-11.59,9.62"/>
		<path class="st11" d="M101.92,77.85c4.54-4.43,8.35-8,8.35-8"/>
		<line class="st11" x1="135.43" y1="35.86" x2="137.52" y2="33.37"/>
		<line class="st11" x1="129.12" y1="43.46" x2="132.85" y2="38.94"/>
		<line class="st11" x1="122.43" y1="51.54" x2="126.56" y2="46.56"/>
		<line class="st11" x1="120.36" y1="46.63" x2="124" y2="41.43"/>
		<line class="st11" x1="114.45" y1="55.05" x2="117.93" y2="50.13"/>
		<line class="st11" x1="120.83" y1="36.6" x2="122.65" y2="33.46"/>
		<line class="st11" x1="116.05" y1="44.94" x2="118.77" y2="40.15"/>
		<line class="st11" x1="108.12" y1="58.44" x2="113.76" y2="48.92"/>
		<line class="st11" x1="113.78" y1="38.99" x2="115.06" y2="36.27"/>
		<line class="st11" x1="108.7" y1="49.66" x2="112.03" y2="42.76"/>
		<line class="st11" x1="103.89" y1="60.28" x2="106.97" y2="53.43"/>
		<path class="st11" d="M101.04,77.04c9.14-10.81,18.65-22.19,18.65-22.19"/>
		<path class="st11" d="M99.71,76.01c6.16-8.81,12.11-17.23,12.11-17.23"/>
		<path class="st11" d="M105.92,62.14c0,0-3.6,6.06-7.61,13.01"/>
		<path class="st11" d="M97.06,74.5c2.76-5.71,5.1-10.31,5.1-10.31"/>
		<line class="st11" x1="114.18" y1="23.58" x2="115.28" y2="20.54"/>
		<line class="st11" x1="110.84" y1="32.9" x2="112.81" y2="27.35"/>
		<line class="st11" x1="107.33" y1="42.76" x2="109.49" y2="36.69"/>
		<line class="st11" x1="103.71" y1="38.87" x2="105.35" y2="32.72"/>
		<line class="st11" x1="101.02" y1="48.8" x2="102.61" y2="42.98"/>
		<line class="st11" x1="100.72" y1="29.28" x2="101.35" y2="25.69"/>
		<line class="st11" x1="99.07" y1="38.74" x2="99.99" y2="33.32"/>
		<line class="st11" x1="96.25" y1="54.15" x2="98.28" y2="43.26"/>
		<line class="st11" x1="94.91" y1="33.95" x2="95.16" y2="30.94"/>
		<line class="st11" x1="93.78" y1="45.7" x2="94.55" y2="38.07"/>
		<line class="st11" x1="92.87" y1="57.32" x2="93.43" y2="49.83"/>
		<path class="st11" d="M95.96,74.05c4.9-13.28,9.93-27.23,9.93-27.23"/>
		<path class="st11" d="M94.33,73.54c2.79-10.4,5.41-20.35,5.41-20.35"/>
		<path class="st11" d="M95.43,58.39c0,0-1.28,6.92-2.69,14.82"/>
		<path class="st11" d="M91.34,73.02c0.63-6.31,1.23-11.5,1.23-11.5"/>
	</g>
	<path class="st12" d="M90.01,127.06c-0.21,0-0.41-0.07-0.58-0.2c-3.5-2.69-6.7-5.77-9.52-9.17l-0.18-0.14l-1.08,2.9
		c-0.11,0.33-0.41,0.57-0.76,0.61c-0.35,0.04-0.69-0.11-0.9-0.4c-0.87-1.28-1.8-2.6-2.51-3.98c-0.04,0.12-0.11,0.23-0.2,0.32
		l-2.63,2.67c-0.24,0.24-0.59,0.34-0.92,0.25c-0.33-0.11-0.58-0.37-0.67-0.7l-0.16-0.68c-0.67-3.4-1.6-6.73-2.79-9.99
		c-0.05-0.15-0.05-0.32,0-0.47l-1.8,1.17c-0.31,0.2-0.71,0.2-1.03,0c-0.31-0.21-0.47-0.58-0.41-0.96c0.43-2.4,1.35-8.74,1.8-12.62
		c-0.02-0.1-0.02-0.19,0-0.29l-2.16,0.49c-0.32,0.07-0.66-0.03-0.88-0.27c-0.23-0.23-0.32-0.57-0.23-0.88
		c1.8-6.74,3.42-10.62,6.04-14.18c-1.48,0.49-3.06,0.96-4.85,1.37c-0.39,0.1-0.79-0.06-1.01-0.4c-0.23-0.33-0.23-0.77,0-1.1
		c1.09-1.43,2.09-2.93,2.99-4.49c2.49-4.04,5.59-9.01,10.56-12.51c0.39-0.26,0.91-0.2,1.23,0.14c0.13,0.14,0.21,0.32,0.23,0.5
		c1.78-2.06,4.07-3.61,6.65-4.49c0.43-0.12,0.88,0.06,1.1,0.45c0.07,0.15,0.11,0.31,0.11,0.47c0.83-0.67,1.71-1.28,2.63-1.8
		c0.35-0.2,0.79-0.15,1.08,0.13c0.17-0.24,0.46-0.39,0.76-0.38c1.69,0.26,3.27,1.01,4.54,2.14c0-0.17,0.04-0.33,0.13-0.47
		c0.21-0.38,0.66-0.57,1.08-0.45c2.58,0.87,4.87,2.42,6.65,4.49c0.03-0.19,0.11-0.36,0.23-0.5c0.32-0.34,0.84-0.4,1.23-0.14
		c4.97,3.46,8.07,8.47,10.56,12.51c0.91,1.52,1.91,2.99,2.99,4.4c0.23,0.33,0.23,0.77,0,1.1c-0.22,0.34-0.64,0.49-1.03,0.4
		c-1.08-0.25-2.96-0.74-4.81-1.33c2.6,3.6,4.24,7.44,6,14.15c0.09,0.32,0,0.65-0.23,0.88c-0.22,0.24-0.55,0.34-0.87,0.27l-2.16-0.52
		c0.02,0.1,0.02,0.19,0,0.29c0.4,3.86,1.32,10.2,1.8,12.62c0.1,0.51-0.24,1-0.74,1.1c-0.24,0.05-0.49,0-0.7-0.14l-1.69-1.12
		c0.05,0.15,0.05,0.32,0,0.47c-1.22,3.25-2.19,6.6-2.9,10l-0.16,0.67c-0.09,0.33-0.34,0.6-0.67,0.7c-0.33,0.09-0.68-0.01-0.92-0.25
		l-1.06-1.08c-0.16-0.15-0.25-0.36-0.27-0.58c-0.22-0.03-0.42-0.12-0.58-0.27l-0.72-0.74c-0.09-0.09-0.16-0.2-0.2-0.32
		c-0.78,1.39-1.64,2.7-2.51,3.98c-0.2,0.29-0.55,0.44-0.9,0.4c-0.35-0.04-0.64-0.28-0.76-0.61l-0.47-1.26
		c-0.11-0.29-0.07-0.61,0.11-0.87l0,0c-0.31-0.07-0.57-0.28-0.68-0.58v-0.16c-0.02,0.05-0.05,0.1-0.09,0.14
		c-2.85,3.38-6.06,6.44-9.57,9.12C90.4,126.98,90.21,127.05,90.01,127.06z"/>
	<path class="st13" d="M102.45,88.05c0.45,0.41,0.9,0.79,1.37,1.15c0-0.79,0-1.59-0.11-2.23c0.49,0.95,0.86,1.95,1.1,2.99
		c0.5,0.38,1.05,0.72,1.57,1.06c0-1.24,0-3.6-0.11-4.25c0.78,1.62,1.32,3.35,1.62,5.12c0.54,0.29,0.92,0.49,1.57,0.78
		c-0.06-2.07-0.28-4.13-0.63-6.16c1.1,2.13,1.83,4.42,2.16,6.79c0.58,0.23,1.17,0.43,1.8,0.63c-0.09-2.42-0.39-4.84-0.88-7.21
		c1.24,2.4,2.04,5,2.36,7.68c0.78,0.22,1.59,0.41,2.42,0.59c-1.8-6.56-3.32-10.44-6.06-14.09c-1.23-0.42-2.43-0.9-3.6-1.44
		l-0.13,0.32c-0.11,0.23-0.23,0.47-0.36,0.68l-0.65,1.21l-1.28-0.52c-0.55-0.22-1.1-0.47-1.62-0.76c0.13,0.83,0.2,1.67,0.2,2.51
		c0,1.76-0.27,3.51-0.81,5.19L102.45,88.05z M99.15,75.94c0.11-0.32,0.22-0.67,0.31-0.99c1.13,0.64,2.34,1.13,3.6,1.46
		c-1.18-0.86-2.3-1.8-3.35-2.81c0-0.41,0.14-0.83,0.2-1.24c1.07,0.6,2.23,1.05,3.42,1.33c-1.18-0.83-2.29-1.76-3.32-2.78
		c0.04-0.5,0.04-1.01,0-1.51c0.98,0.51,2.01,0.9,3.08,1.17c-1.16-0.85-2.25-1.77-3.28-2.78c-0.11-0.53-0.25-1.06-0.43-1.57
		c0.77,0.38,1.58,0.67,2.42,0.87c-0.29-0.22-2.29-2.04-3.39-2.99c-0.8-1.36-1.82-2.57-3.01-3.6c7.21,2.14,13.34,12.96,9.86,19.21
		c-2.19-0.99-4.24-2.25-6.11-3.75L99.15,75.94z M90.01,83.64c-4.4-4.67-6.38-9.01-6.38-13.55c0.25-4.02,2.04-7.79,4.99-10.53
		c-5.1,2.85-7.21,6.76-7.21,10.81c0,5.79,3.84,11.93,8.54,15.91c1.6-1.23,3.01-2.69,4.2-4.33c4.79-6.29,6.85-14.67,0.16-20.4
		c-1.19-1.11-2.67-1.85-4.27-2.14v1.6c0.64,0.79,1.47,1.41,2.42,1.8c-0.8,0.18-1.64,0.14-2.42-0.13v1.5
		c0.86,0.44,1.78,0.77,2.72,0.99c-0.88,0.32-1.79,0.55-2.72,0.67v1.39c0.94,0.1,1.89,0.05,2.81-0.16c-0.79,0.76-1.76,1.31-2.81,1.6
		v1.8c1.14-0.37,2.24-0.86,3.28-1.46c-0.88,1.24-1.99,2.28-3.28,3.08v1.82c1.46-0.89,2.8-1.96,4-3.17c-0.9,1.99-2.27,3.73-4,5.06
		v1.8c1.47-0.86,2.83-1.92,4.02-3.14c-0.72,2.09-2.14,3.87-4.02,5.03v1.8c1.59-1.02,3.05-2.23,4.34-3.6
		c-1.1,2.16-2.57,4.11-4.34,5.77L90.01,83.64z M80.85,75.94c-1.87,1.5-3.92,2.76-6.11,3.75c-3.48-6.25,2.67-17.07,9.86-19.21
		c-0.75,0.66-1.44,1.39-2.05,2.18c-3.46,3.17-7.21,8.6-6.45,14.11c1.45-1,2.82-2.09,4.13-3.26C80.37,74.33,80.58,75.15,80.85,75.94z
		 M107.73,76.59c1.2,0.69,2.5,1.2,3.86,1.51c-1.35-0.87-2.62-1.86-3.78-2.96c0.03-0.4,0.03-0.79,0-1.19
		c0.92,0.71,1.97,1.26,3.08,1.6c-0.9-0.72-2.6-2.47-3.39-3.28c-0.11-0.51-0.25-1.02-0.43-1.51c0.88,0.88,1.91,1.61,3.05,2.13
		c-1.19-1.32-2.67-2.9-4.07-4.61c-0.42-0.84-0.9-1.64-1.42-2.42c-0.4-0.58-0.81-1.14-1.26-1.68c6.92,4.81,10.09,12.8,13.36,16.82
		c-3.12-0.66-6.15-1.72-9.01-3.14c0.1-0.42,0.17-0.85,0.2-1.28H107.73z M72.18,75.64c-1.17,0.61-2.37,1.15-3.6,1.6
		c0.79-1.28,1.6-2.58,2.47-3.82s1.8-2.61,2.49-3.75c0.54-1.34,1.23-2.61,2.04-3.8c0.4-0.58,0.81-1.14,1.26-1.68
		C69.91,69,66.74,76.99,63.5,81.01c3.11-0.7,6.13-1.74,9.01-3.08c-0.16-0.75-0.24-1.52-0.25-2.29H72.18z M67.95,108.2
		c1.32,3.52,2.36,7.13,3.12,10.81l2.63-2.65c-0.31-0.56-0.58-1.1-0.83-1.66l-0.99,1.01c-0.61-2.89-1.38-5.75-2.29-8.56l-1.64,1.06
		V108.2z M66.56,95.75c0.78-0.23,1.55-0.47,2.29-0.74c-0.18,1.46-0.7,5.68-0.79,6.27c-0.11,0.88-0.23,1.8-0.36,2.67l3.6-2.34
		c0.28,0.67,0.59,1.33,0.94,1.96l-7.43,4.83c0.41-2.36,1.35-8.76,1.8-12.62L66.56,95.75z M81.72,109.68l-3.78,10.38
		c-3.3-4.81-5.55-9.21-5.75-14.6l0.92-0.59c0.92,3.64,2.38,7.13,4.33,10.35l2.85-7.7c0.47,0.72,0.99,1.42,1.53,2.11L81.72,109.68z
		 M90.01,126.12c3.45-2.65,6.59-5.67,9.37-9.01l-2.23-6.06c-1.89,2.13-3.94,4.11-6.15,5.91l-0.99,0.85v1.44
		c1.43-0.69,2.77-1.54,4-2.54c-0.95,1.63-2.33,2.97-4,3.86v1.15c2.21-1.07,4.25-2.47,6.06-4.15c-1.47,2.45-3.56,4.47-6.06,5.86
		c-2.45-2.11-4.75-4.38-6.9-6.79l1.42-3.78c-0.58-0.58-1.14-1.17-1.68-1.8l-2.23,6.04c2.78,3.34,5.93,6.37,9.39,9.01L90.01,126.12z
		 M90.01,115.79c3.91-3.05,7.21-6.82,9.71-11.1l-4.06-6.25c-1.48,1.5-3.05,2.91-4.69,4.24l-0.97,0.79v1.8
		c1.26-0.78,2.7-1.68,3.37-2.22c-0.94,1.36-2.07,2.58-3.37,3.6v1.24c1.84-1.16,3.6-2.45,5.26-3.86c-1.42,2.17-3.2,4.08-5.26,5.66
		v1.35c2.55-1.39,4.9-3.13,6.98-5.17c-1.73,2.92-4.12,5.39-6.98,7.21c-2.8-2.38-5.23-5.17-7.21-8.27l3.1-4.74
		c-0.54-0.5-1.06-1.03-1.59-1.55l-4.04,6.16C82.78,108.98,86.09,112.74,90.01,115.79z M83.34,97.34l-6.74,10.11
		c-3.82-5.3-5.03-7.97-5.06-13.57c0.77-0.36,1.53-0.76,2.27-1.19c-0.12,1.6-0.05,3.21,0.2,4.79c0.4,2.19,1.27,4.27,2.54,6.09
		l4.99-8.22c0.54,0.68,1.1,1.33,1.69,1.98H83.34z M77.64,88.05c-0.33-1.02-0.56-2.07-0.68-3.14c-0.39,0.94-1.01,1.76-1.8,2.4
		c-2.57,2.06-5.5,3.62-8.65,4.58c0.89-3.29,2.32-6.4,4.22-9.23c0.34-0.47,1.26-1.48,2.4-2.67l-0.11-0.25
		c-0.06-0.1-0.1-0.21-0.14-0.32c-1.15,0.54-2.32,1.02-3.51,1.44c-2.74,3.6-4.33,7.53-6.06,14.09c5.28-0.95,10.2-3.34,14.22-6.9
		H77.64z M78.85,79.31c-0.32,1.18-0.47,2.39-0.47,3.6c0,7.21,4.96,13.14,11.72,18.65c6.74-5.52,11.72-11.54,11.72-18.65
		c0-1.22-0.17-2.43-0.49-3.6c-0.7-0.45-1.8-1.26-2.67-1.8c-0.84,1.92-1.91,3.74-3.19,5.41c-1.24,1.74-2.71,3.3-4.38,4.63l-0.99,0.87
		v1.69c1.4-0.91,2.76-1.9,4.06-2.96c-1.18,1.7-2.59,3.24-4.18,4.56v1.93c2.09-1.31,4.09-2.75,5.98-4.33c-1.6,2.32-3.58,4.35-5.86,6
		v1.71c2.56-1.51,4.92-3.32,7.03-5.41c-1.75,2.95-4.16,5.46-7.03,7.34c-5.71-5.05-9.71-10.08-9.71-16.96
		c0.05-1.44,0.33-2.86,0.85-4.2v-0.11c-0.78,0.58-1.59,1.15-2.42,1.68L78.85,79.31z M112.14,108.15c-1.32,3.52-2.36,7.13-3.12,10.81
		l-1.06-1.08c0.44-1.21,0.71-2.48,0.81-3.77c-0.5,1-1.05,1.98-1.66,2.92l-0.72-0.72c1.72-3.03,2.78-6.39,3.1-9.86l2.65,1.8
		L112.14,108.15z M113.55,95.7c0.38,3.89,1.32,10.29,1.8,12.62l-1.96-1.28c0.14-1.51,0.1-3.03-0.11-4.52
		c-0.16,0.85-0.49,2.33-0.9,3.88l-1.46-0.96c0.25-1.35,0.36-2.72,0.32-4.09c-0.22,0.79-0.74,2.05-1.24,3.5l-2.07-1.35
		c1.5-2.76,2.27-5.87,2.23-9.01c1.1,0.43,2.25,0.83,3.46,1.17L113.55,95.7z M98.37,109.63c0.9-1.13,1.7-2.34,2.4-3.6l2.67,4.04
		l1.32-1.8c0.9-1.26,1.68-2.4,2.33-3.46l0.92,0.59c-0.2,5.41-2.45,9.79-5.75,14.6l-0.47-1.26c1.19-1.78,2.01-3.77,2.4-5.88
		c-0.88,1.62-1.9,3.17-3.05,4.61l-0.52-1.41c0.69-1.36,1.17-2.81,1.44-4.31c-0.47,0.83-1.15,1.8-1.91,3.05l-0.58-1.5
		c0.36-1.05,0.63-2.13,0.81-3.23c-0.38,0.68-0.81,1.34-1.28,1.96l-0.88-2.36L98.37,109.63z M96.84,97.28
		c2.14-2.25,3.87-4.87,5.12-7.71c1.99,1.73,4.21,3.17,6.6,4.29c0,5.61-1.24,8.27-5.06,13.57l-1.14-1.8c1.3-1.56,2.37-3.3,3.19-5.15
		c-1.22,1.42-2.55,2.74-3.98,3.95l-0.88-1.33c1.01-1.37,1.85-2.86,2.49-4.43c-1.04,1.18-2.14,2.31-3.3,3.39l-0.97-1.5
		c0.94-1.28,1.71-2.67,2.31-4.15c-0.61,0.68-1.8,1.8-3.03,3.05L96.84,97.28z"/>
</g>
<g id="Layer_3">
	<g>
		<path class="st42" d="M43.4,134.48c-0.47-0.21-0.93-0.45-1.37-0.72l5.95-4.07c0.41,0.29,0.84,0.54,1.3,0.74L43.4,134.48z
			 M44.12,111.32V91.84l0.85-0.56v19.5L44.12,111.32z M45.36,126.07c-0.82-1.17-1.26-2.57-1.24-4v-7.21l6.78-4.6v1.66l-5.95,4.11
			v7.64c0,0.84,0.14,1.67,0.41,2.47V126.07z M59.4,145.68l-0.85-0.38V89.91l0.85-0.56V145.68z"/>
		<path class="st42" d="M69.64,131.26l-1.44-0.65l13.46-9.35v1.68L69.64,131.26z M68.92,115.04v-9.88l0.79-0.49
			c0.43,0.21,0.83,0.48,1.17,0.81l-1.12,0.78v8.16L68.92,115.04z M70.16,122.14c-0.74-1.02-1.17-2.24-1.24-3.5l11.88-8.27v-4.13
			c0.02-0.92-0.13-1.84-0.45-2.7c0.88,1.25,1.34,2.74,1.32,4.27v3.6l-11.9,8.27C69.77,120.52,69.9,121.35,70.16,122.14z"/>
		<path class="st42" d="M91.9,128.46l-1.35-0.65l9.68-6.7v1.68L91.9,128.46z M92.35,119.31c-0.82-1.19-1.25-2.6-1.24-4.04V85.55
			l0.85-0.58v31.87C91.96,117.68,92.1,118.51,92.35,119.31z"/>
		<path class="st42" d="M107.04,126.57l-1.42-0.67l9.66-6.72v1.68L107.04,126.57z M107.56,117.38c-0.82-1.19-1.25-2.61-1.24-4.06
			V83.51l0.87-0.56v31.96C107.19,115.75,107.31,116.58,107.56,117.38z"/>
		<path class="st42" d="M122.2,124.66l-1.44-0.67l13.45-9.34v1.69L122.2,124.66z M121.48,108.28v-9.99l0.78-0.49
			c0.43,0.2,0.83,0.48,1.17,0.81l-1.1,0.79v8.24L121.48,108.28z M122.72,115.49c-0.76-1.05-1.19-2.31-1.24-3.6l11.88-8.35v-4.15
			c0.02-0.94-0.13-1.87-0.45-2.76c0.87,1.27,1.32,2.77,1.3,4.31v3.6l-11.88,8.35c-0.02,0.87,0.12,1.74,0.4,2.56V115.49z"/>
		<path class="st42" d="M144.46,121.87l-1.44-0.67l12.62-8.83v-2.22c0.01-0.92-0.15-1.84-0.47-2.7c0.86,1.28,1.32,2.8,1.3,4.34v1.69
			L144.46,121.87z M144.98,98.92c-0.77-1.05-1.2-2.31-1.24-3.6l0.78-0.49c0.43,0.21,0.83,0.49,1.17,0.83l-1.1,0.79
			C144.57,97.29,144.7,98.13,144.98,98.92z M144.98,112.6c-0.46-0.62-0.79-1.33-0.99-2.07l0.59-0.41
			C144.58,110.96,144.72,111.8,144.98,112.6z M150.51,102.26c0-0.52-0.06-1.04-0.18-1.55l5.28-3.75c0.04-1.09-0.11-2.17-0.45-3.21
			c0.87,1.28,1.32,2.8,1.3,4.34L150.51,102.26z"/>
		<path class="st42" d="M55.55,142.7c-0.79-0.54-3.26-1.66-3.6-2.02c-0.34-0.36-0.2-6.89-0.2-9.97v-16.58v-3.91
			c0-0.61,0.07-1.21,0.2-1.8l0,0l-0.52,0.13c-0.32,0-0.4-0.4-0.52-0.38c-0.13,0.02-0.2,0.14-0.2,0.34c0,0.2-0.58,0.97-1.37,1.32
			c-0.79,0.34-1.5,1.35-2.02,1.55c-0.52,0.2-2.22,1.6-3.93,2.4v1.15c0,0.58,0,1.66,0,2.43c0,1.23,0,1.35-0.47,1.91
			c-0.22,0.23-0.37,0.52-0.45,0.83l0,0c0.13,0,0.32-0.29,0.9-0.68c0,0,0,0,0.14,0.18c0,0.67-0.07,1.34-0.2,2
			c0,0.65,0.45,1.68,0.45,2.31s0.47,1.17,1.17,2.23c0.4,0.78,1.19,1.32,2.76,2.22c-0.99,0.76-2.36,1.57-3.14,2.23
			c-0.4,0.43-0.47,0.13-1.8,1.24c-0.29,0.26-0.62,0.47-0.97,0.63c-1.46-0.54-2.64-1.64-3.28-3.06c-1.1-2.22-1.1-1.96-1.1-15.7
			c0-7.03,0-12.47,0.13-12.62c0.77-0.37,1.58-0.65,2.42-0.85c0.24-0.04,0.46-0.14,0.65-0.29c0-0.13-0.25,0-0.65,0
			c-0.72,0-1.62,0.4-2.09,0.45c-0.1,0.04-0.22,0.04-0.32,0c-0.13-1.42-0.17-2.85-0.13-4.27c0-3.06,0-2.88,1.69-3.98
			s2.16-1.5,4.11-2.7c0.12,0.59,0.17,1.2,0.13,1.8c0.06,1.21-0.02,2.42-0.25,3.6c0,0.31,0.4,0.65,0.4,1.03
			c-0.15,0.85-0.2,1.72-0.14,2.58v4.79v3.91c-0.07,1.63,0.05,3.26,0.34,4.87h0.18c0.52,0,1.8-1.44,3.33-2.4
			c1.5-0.89,2.94-1.88,4.31-2.97c0.4-0.25,0.4-0.31,0.4-3.06c0-1.53,0-4.04,0-5.57c0-2.88,0-3.6-0.13-4.47
			c0-1.41,0.52-2.69,1.17-2.78c0.65-0.09,1.64-1.5,2.36-1.59c0.72-0.09,1.62-1.55,2.22-1.62c0.13,0,0.2,0,0.25,0s0,8.45,0,18.53
			v18.83c0,9.88,0,18.28,0,18.35l-0.13,0.09C56.9,143.32,56.18,143.09,55.55,142.7z M40.39,119.58c0-0.18-0.13-0.23-0.25-0.22
			s-0.2,0-0.27,0.29h0.22L40.39,119.58z M41.25,93.03c0-0.18,0-0.13-0.14-0.23c-0.14-0.11-0.13,0-0.13,0.27
			c0,0.06,0.05,0.11,0.11,0.11c0.01,0,0.01,0,0.02,0l0,0L41.25,93.03z M52.54,92.87c0-0.25,0-0.31-0.13-0.31
			c-0.13,0-0.13,0.09-0.2,0.29l0.13,0.23h0.14c0,0,0.05-0.05,0.05-0.18V92.87z M53.19,135.46c0-0.2,0-0.25-0.13-0.25
			c-0.13,0-0.2,0-0.2,0.16c0,0.16,0,0.18,0.2,0.23l0,0L53.19,135.46z M53.85,100.24L53.85,100.24h-0.27h-0.13l0.25,0.11
			L53.85,100.24z M54.23,127.87c0.02-0.1,0.02-0.21,0-0.31c0,0-0.13,0.14-0.2,0.41v0.18l0,0c0,0,0.2-0.11,0.2-0.23L54.23,127.87z
			 M56.47,130.88H56.3c-0.11,0.01-0.2,0.1-0.2,0.22v0.13L56.47,130.88z M57.12,103.41c-0.13-0.16-0.2-0.29-0.4-0.27
			c-0.2,0.02,0,0,0,0c-0.03,0.21,0.08,0.41,0.27,0.49l0,0c0,0,0.13-0.04,0.13-0.16V103.41z"/>
		<path class="st42" d="M66.11,128.28c-1.84-0.98-3.24-2.63-3.91-4.61v-2.16c-0.05-0.94-0.05-1.89,0-2.83l-0.14-5.97v-1.35
			c0.09-0.32,0.13-0.64,0.13-0.97c-0.2-2.04-0.2-3.24-0.2-3.5c1.19-1.02,2.43-1.97,3.73-2.85c0.59-0.65,1.5-0.2,1.96-1.21
			c0.47-1.01,2.42-1.6,4.76-3.5c0.42-0.35,0.88-0.65,1.37-0.88c1.13,0.21,2.2,0.67,3.14,1.33c1.02,0.93,1.84,2.05,2.42,3.3
			c0.52,1.35,0.4,2.22,0.52,6.31c-1.44,1.08-2.61,1.68-3.39,2.36c-1.18,0.99-2.45,1.88-3.78,2.65c-0.99,0.38-1.8,1.59-2.49,1.8
			c-0.91,0.46-1.71,1.12-2.34,1.91c0,0.25,0.65,1.51,0.78,2.4c0.34,1.42,1.34,2.6,2.69,3.15c0.45,0.28,0.94,0.5,1.44,0.65
			c0.25,0,1.96-1.66,2.94-2.16c0.65-0.32,1.26-0.72,1.8-1.19c0.64-0.59,1.37-1.07,2.16-1.42c0.32,0,0.32,0.29,0.45,1.05
			c0,0.45-0.38,0.63-2.09,1.68c-0.97,0.58-1.8,1.39-2.47,1.8c-0.67,0.41-1.37,1.14-2.49,1.8c-0.76,0.38-1.46,0.85-2.09,1.41
			c-0.94,0.82-2.05,1.43-3.24,1.8C67.43,129.08,67.43,128.9,66.11,128.28z M63.32,113.86c0.01-0.09-0.05-0.17-0.14-0.18
			c-0.02,0-0.04,0-0.06,0c-0.13,0.14-0.13,0-0.13,0.22c0,0.06,0.05,0.11,0.11,0.11c0.01,0,0.01,0,0.02,0
			C63.24,113.99,63.32,113.92,63.32,113.86z M72.33,113.07c0.53-0.46,1.14-0.82,1.8-1.06v-2.76c0-0.65-0.2-1.27-0.58-1.8l-0.65-1.53
			c-0.32-0.54-2.34-2.78-3.19-2.69c-0.85,0.09-0.85,0.5-1.64,1.24v3.21v4.04c-0.05,1.35-0.01,2.7,0.13,4.04l0,0
			c1.47-0.7,2.84-1.6,4.06-2.69L72.33,113.07z M69.64,123.99c-0.28-0.15-0.61-0.2-0.92-0.14c-0.18,0-0.38,0-0.38,0.18
			c0,0.18,0.65,0.76,0.85,0.74S69.64,124.12,69.64,123.99z"/>
		<path class="st42" d="M87.72,125.02c-0.93-0.8-1.72-1.75-2.34-2.81c-0.44-1-0.74-2.04-0.92-3.12c0-0.5,0.4-0.96,0.4-1.46
			c-0.18-1.23-0.25-2.47-0.2-3.71c0.03-1.01-0.03-2.02-0.2-3.01c0-0.38,0.4-1.14,0.4-1.59c-0.16-0.67-0.25-1.35-0.27-2.04v-1.17
			c0.04-1.2,0-2.41-0.13-3.6c0-0.58,0.32-0.96,0.32-1.46c-0.18-1.23-0.25-2.47-0.2-3.71c0.03-1.01-0.04-2.02-0.2-3.01
			c0-0.38,0.4-1.14,0.4-1.59c-0.14-0.82-0.21-1.65-0.2-2.49v-0.97c0-2.33,0-2.33,2.54-3.95l2.29-1.57c0.22-0.21,0.49-0.36,0.79-0.43
			c0.18,0,0.25,0,0.25,0.29v11.66c0,9.3,0,11.3-0.2,11.32c-0.2,0.02-0.27,0.11-0.27,0.16s0.47-0.7,0.47,5.05
			c0,4.63,0,4.83,0.45,5.55c0.22,0.39,0.4,0.8,0.52,1.23c0.2,0.76,2.16,3.1,3.26,2.96c0.79,0,1.8-1.32,2.36-1.39
			s1.17-0.85,1.42-0.88c0.25-0.04,0.13,0,0.13,0.31c-0.13,1.06,0,1.15-0.9,1.8c-0.65,0.34-2.36,1.69-2.49,1.71s-1.3,0.94-2.49,1.8
			c-0.8,0.44-1.52,1.01-2.14,1.68C89.58,126.15,88.62,125.63,87.72,125.02z M86.62,91.82c-0.14-0.38,0-0.65-0.4-0.59
			c0,0-0.13,0-0.13,0.2c0.03,0.17,0.12,0.32,0.25,0.43h0.2L86.62,91.82z M89.81,100.83l-0.13-0.11c-0.2,0.22-0.13,0-0.2,0.34
			c-0.07,0.34,0,0.18,0.13,0.18s0.2-0.23,0.2-0.49V100.83z M95.96,122.46c0,0-0.14-0.11-0.2-0.11h-0.13l0.18,0.23
			c0.11-0.02,0.17-0.13,0.15-0.24c0,0,0-0.01,0-0.01V122.46z"/>
		<path class="st42" d="M102.86,123.18c-0.93-0.81-1.72-1.77-2.34-2.83c-0.45-1-0.77-2.04-0.96-3.12c0-0.52,0.4-0.96,0.4-1.46
			c-0.17-1.24-0.23-2.48-0.2-3.73c0.03-1.01-0.03-2.02-0.2-3.01c0-0.4,0.4-1.15,0.4-1.6c-0.14-0.67-0.23-1.35-0.25-2.04v-1.17
			c0.04-1.2-0.01-2.41-0.13-3.6c0-0.58,0.32-0.94,0.32-1.46c-0.17-1.24-0.24-2.48-0.2-3.73c0.05-1.01,0-2.01-0.14-3.01
			c0-0.38,0.4-1.15,0.4-1.6c-0.13-0.82-0.2-1.65-0.2-2.49v-0.97c0-2.33,0-2.33,2.54-3.95l2.29-1.59c0.23-0.2,0.5-0.35,0.79-0.43
			c0.2,0,0.25,0,0.25,0.31v11.7c0,9.32,0,11.32-0.2,11.34c-0.2,0.02-0.25,0.11-0.25,0.16s0.45-0.7,0.45,5.06
			c0,4.65,0,4.85,0.45,5.57c0.24,0.38,0.41,0.79,0.52,1.23c0.2,0.76,2.16,3.1,3.26,2.97c0.79-0.09,1.8-1.33,2.36-1.39
			s1.17-0.87,1.42-0.9c0.25-0.04,0.14,0,0.14,0.32c-0.14,1.05,0,1.15-0.92,1.8c-0.65,0.34-2.34,1.71-2.49,1.8
			c-0.14,0.09-1.3,0.94-2.47,1.8c-0.8,0.45-1.53,1.01-2.16,1.68C104.74,124.39,103.77,123.83,102.86,123.18z M101.76,89.87
			c-0.13-0.36,0-0.63-0.4-0.59c-0.08,0.04-0.13,0.12-0.13,0.22c0.03,0.16,0.12,0.31,0.25,0.41l0.2,0.11L101.76,89.87z M104.95,98.89
			l-0.13-0.11c-0.2,0.22-0.13,0-0.2,0.34c-0.07,0.34,0,0.2,0.14,0.18c0.14-0.02,0.2-0.18,0.2-0.45L104.95,98.89z M111.1,120.51
			c0,0-0.13-0.13-0.2-0.11h-0.13l0.2,0.23c0,0,0.13-0.02,0.13-0.14V120.51z"/>
		<path class="st42" d="M118.67,121.87c-1.85-0.99-3.26-2.65-3.91-4.65v-2.16c0-1.17,0-2.47,0-2.87l-0.13-6v-1.37
			c0.12-0.31,0.21-0.64,0.25-0.97c-0.2-2.05-0.2-3.28-0.2-3.6c1.18-1.03,2.42-1.99,3.71-2.87c0.59-0.67,1.51-0.2,1.96-1.23
			c0.45-1.03,2.42-1.6,4.78-3.51c0.41-0.36,0.87-0.67,1.37-0.9c1.13,0.22,2.2,0.69,3.14,1.37c1.01,0.96,1.81,2.11,2.36,3.39
			c0.52,1.35,0.4,2.22,0.52,6.36c-1.42,1.1-2.6,1.69-3.39,2.38c-1.17,1.01-2.44,1.9-3.78,2.67c-0.97,0.38-1.8,1.59-2.49,1.8
			c-0.9,0.47-1.7,1.12-2.34,1.91c0,0.27,0.65,1.55,0.78,2.43c0.3,1.41,1.25,2.6,2.56,3.21c0.45,0.27,0.93,0.5,1.42,0.67
			c0.27,0,1.96-1.68,2.94-2.18c0.65-0.33,1.25-0.73,1.8-1.21c0.62-0.6,1.35-1.09,2.14-1.42c0.32,0,0.32,0.29,0.47,1.05
			c0,0.45-0.4,0.63-2.09,1.68c-0.97,0.58-1.8,1.41-2.49,1.8c-0.68,0.4-1.37,1.14-2.47,1.8c-0.76,0.38-1.46,0.86-2.09,1.42
			c-0.94,0.87-2.05,1.54-3.26,1.96C119.96,122.79,119.96,122.51,118.67,121.87z M115.78,107.34c0-0.13,0-0.2-0.2-0.18
			c-0.2,0.02-0.13,0-0.13,0.22c0,0.06,0.05,0.11,0.11,0.11c0.01,0,0.01,0,0.02,0C115.78,107.45,115.78,107.45,115.78,107.34z
			 M124.79,106.55c0.54-0.45,1.15-0.81,1.8-1.06v-2.72c0.06-0.69-0.1-1.37-0.45-1.96l-0.65-1.53c-0.32-0.54-2.36-2.83-3.21-2.72
			c-0.85,0.11-0.85,0.5-1.62,1.24v3.24v4.07c-0.05,1.38,0,2.77,0.14,4.15l0,0C122.26,108.54,123.6,107.63,124.79,106.55z
			 M122.2,117.58c0-0.13-0.52-0.2-0.92-0.14c-0.4,0.05-0.4,0-0.4,0.18c0,0.18,0.65,0.76,0.85,0.74
			C121.93,118.33,122.2,117.7,122.2,117.58z"/>
		<path class="st42" d="M141.12,119.18c-2.58-1.19-4.17-3.85-3.98-6.69l5.68-3.8c0.4,0,0.2,2.18,2.42,5.24
			c0.27,0.34,1.12,0.5,1.8,0.96c0.24,0.19,0.54,0.29,0.85,0.29c0.7-0.23,1.19-0.85,1.24-1.59c-0.05-0.62-0.18-1.22-0.4-1.8
			c-0.52-1.69-0.52-1.69-2.14-3.19c-1.14-1.11-2.53-1.92-4.06-2.36c-2.26-0.66-4.01-2.44-4.63-4.7c-0.41-1.16-0.65-2.38-0.72-3.6
			c0.14-0.67,0.72-0.92,3.73-3.26c0.85-0.76,1.5-0.25,1.95-1.23c0.78-0.73,1.66-1.34,2.61-1.8c0.78-0.48,1.52-1.01,2.23-1.59
			c0.42-0.37,0.88-0.69,1.37-0.96c0.98,0.15,1.92,0.51,2.76,1.05c1.61,1.35,2.69,3.23,3.06,5.3c-0.07,0.88-0.62,1.66-1.44,2
			c-0.65,0.34-1.69,1.46-2.22,1.64s-1.5,1.12-1.8,1.15s-0.25-1.14-0.78-2.25c-0.37-1.24-1.12-2.34-2.13-3.15
			c-0.9-0.79-1.37-1.19-1.8-1.14c-0.43,0.15-0.82,0.43-1.1,0.79c-0.4,0.38-0.59,0.59-0.59,0.99c0.47,2.3,1.75,4.36,3.6,5.8
			c1.24,0.56,1.8,0.94,1.8,1.33l-0.27,0.81c0.01,0.07,0.06,0.12,0.13,0.13c0.32,0,0.67-0.67,1.24-0.74
			c0.58-0.07,2.02,0.52,2.02,1.05c0,0.2,0,0.25,0.27,0.23h0.2c0.72-0.09,2.74,2.34,2.87,4.87l0.2,2.34c0,0.7-1.8,1.51-3.46,2.76
			c-0.45,0.52-1.57,0.97-2.02,1.5c-1.34,0.83-2.63,1.73-3.86,2.7c-0.87,0.76-1.86,1.37-2.94,1.8
			C142.37,120.06,142.22,119.83,141.12,119.18z M147.2,105.64c0-0.13,0-0.13-0.14-0.11c-0.69,0.42-1.21,1.05-1.5,1.8l0,0
			C146.16,106.83,146.71,106.26,147.2,105.64z M147.85,93.84c0-0.2,0-0.25-0.13-0.25c-0.26,0.13-0.45,0.37-0.52,0.65
			c0,0.13,0,0.2,0.2,0.18l0,0C147.68,94.38,147.89,94.12,147.85,93.84c0.01-0.02,0-0.04,0-0.05V93.84z M154.12,95.34
			c0-0.14,0-0.2-0.14-0.18c-0.11,0.01-0.19,0.11-0.18,0.21c0,0,0,0,0,0c0,0,0,0.13,0.18,0.11c0.18-0.02,0.14-0.14,0.14-0.2
			L154.12,95.34z"/>
		<path class="st42" d="M76.82,142c-0.22-0.26-0.38-0.57-0.47-0.9c0-0.14-0.14,0.41-0.14-4.16v-3.78c-0.25-0.87-0.25-0.96-0.78-1.3
			c-0.13-0.06-0.24-0.15-0.34-0.25c0-0.11,0.41-0.34,1.08-0.83c0.14-0.11,0.29-0.19,0.45-0.25c0.32,0.08,0.6,0.25,0.83,0.49
			c0.33,0.46,0.51,1,0.5,1.57c0,0.29,0,0.54,0,1.28c0,0.41,0,0.92,0,1.1v3.14c-0.01,0.66,0.04,1.33,0.16,1.98
			c0.17,0.31,0.38,0.58,0.63,0.83c0.14,0.12,0.32,0.19,0.5,0.2c0.18,0,0.4-0.29,0.74-0.5c0.34-0.22,0.38-0.16,0.38-0.61v-0.92
			c-0.02-0.13-0.02-0.25,0-0.38v-0.25v-0.76c-0.02-0.09-0.02-0.18,0-0.27c0.24-0.28,0.54-0.51,0.87-0.68
			c0.25-0.13,0.41-0.32,0.63-0.38c0.22-0.05,0.18,0,0.18,0.11s0,1.69,0,2.31v0.11c0.01,0.3-0.03,0.6-0.11,0.88
			c0,0-0.87,0.54-0.97,0.67s-0.96,0.61-1.03,0.7c-0.43,0.31-0.63,0.41-0.72,0.5c-0.09,0.09-0.29,0.16-0.49,0.34
			c-0.2,0.18-0.4,0.23-0.59,0.4c-0.2,0.16-0.14,0.11-0.2,0.11C77.53,142.39,77.15,142.23,76.82,142z M77.14,131.63c0,0,0,0-0.09,0
			l0,0l0,0H77.14z M77.39,141.69L77.39,141.69L77.39,141.69L77.39,141.69L77.39,141.69z M81,137.8c0-0.14,0-0.25-0.09-0.25
			s0,0,0,0.16c0,0.16,0,0.2,0.11,0.2c0.11,0-0.02,0.02-0.02-0.05V137.8z"/>
		<path class="st42" d="M87.05,140.57c0-0.16-0.13-0.22-0.2-0.22l-0.47,0.31c-0.41,0.2-1.26,0.9-1.44,0.94
			c-0.36-0.14-0.69-0.33-0.99-0.56c-0.09-0.11-0.13-0.14-0.13-0.18s0-0.13,0-0.23s0-0.31-0.16-0.29c-0.16,0.02,0,0.16-0.13,0.18
			c-0.13,0.02,0,0-0.18-0.22c-0.18-0.22-0.11-0.27-0.11-1.08c-0.03-0.43-0.03-0.85,0-1.28l0,0c-0.03-0.44-0.03-0.89,0-1.33v-1.33
			c0.23-0.11,0.32-0.2,0.4-0.22c0.15,0.12,0.27,0.27,0.34,0.45c0.16,0.15,0.36,0.24,0.58,0.27c0.09,0,0.11-0.13,0.13-0.29
			c0.02-0.16,0,0-0.11,0s-0.68-0.43-0.68-0.58s0.18-0.13,0.36-0.31c0.18-0.18,0.36-0.13,0.59-0.38c0.09-0.12,0.21-0.22,0.34-0.29
			l0.34-0.2c0.18-0.18,0.23-0.14,0.63-0.45c0.12-0.12,0.26-0.21,0.41-0.29c0.29,0.06,0.56,0.16,0.81,0.31
			c0.29,0.25,0.53,0.56,0.7,0.9c0.12,0.21,0.18,0.45,0.16,0.68v1.8c0.02,0.19,0.02,0.38,0,0.58v0.11c0,0.6,0.04,1.21,0.13,1.8
			c0,0.11,0.31,0.43,0.34,0.54s0.68,0.54,0.68,0.63c-0.47,0.46-1,0.85-1.59,1.15C87.47,141.3,87.2,140.97,87.05,140.57z
			 M83.92,138.32L83.92,138.32L83.92,138.32L83.92,138.32C83.92,138.32,83.92,138.34,83.92,138.32z M84.58,139.4v-0.11
			c0,0,0,0-0.13,0.2c-0.13,0.2,0,0,0.11,0S84.58,139.49,84.58,139.4z M86.71,139.96v-4.31c-0.14-0.19-0.24-0.41-0.29-0.65
			c-0.27-0.31-0.56-0.59-0.88-0.85c-0.09,0-0.25,0.18-0.5,0.43c-0.09,0.66-0.09,1.32,0,1.98c-0.05,0.38-0.05,0.76,0,1.14
			c-0.01,0.49,0.06,0.97,0.2,1.44c0.07,0.29,0.23,0.55,0.47,0.74c0.2,0.15,0.43,0.26,0.67,0.34c0.13-0.09,0.25-0.21,0.34-0.34
			V139.96z M88.12,135.51L88.12,135.51L88.12,135.51L88.12,135.51C88.12,135.51,88.12,135.53,88.12,135.51z M89,140.14
			c0-0.2,0-0.32-0.22-0.31c-0.22,0.02-0.04,0.05-0.04,0.05s0.2,0.29,0.27,0.29S89,140.18,89,140.14z"/>
		<path class="st42" d="M90.28,143.96c-0.3-0.4-0.49-0.87-0.56-1.37l0,0c0.31-0.29,0.65-0.54,1.01-0.76c0.16,0,0.47-0.41,0.56-0.41
			s0,0,0,0.14l0,0c0.04,0.32,0.14,0.64,0.31,0.92c0.16,0.25,0.78,0.79,0.92,0.78c0.18-0.06,0.34-0.17,0.47-0.31v-3.06
			c0-0.16,0-0.22,0-0.2c0,0.02-0.14,0-0.36,0.22c-0.22,0.22-0.5,0.25-0.63,0.45c-0.06,0.09-0.15,0.16-0.25,0.2l-0.32,0.14
			c-0.05,0.02-0.1,0.02-0.14,0c-0.4-0.08-0.76-0.29-1.03-0.59c-0.21-0.25-0.37-0.54-0.47-0.85c-0.11-0.86-0.11-1.73,0-2.6
			c0-1.28,0-2.36,0-2.38c0-0.02,0.52-0.32,0.76-0.56c0.68-0.58,1.69-1.12,2.42-1.69h0.14c0.11,0,0.45,0.25,0.54,0.23
			c0.2,0.01,0.38,0.12,0.49,0.29l0.34,0.43c0.38,0.45,0.27,0.7,0.36,2.61c0.09,1.91,0,1.98,0,3.26c0,0.72,0,1.03,0,1.51
			s0,0.5-0.22,0.56c-0.22,0.05-0.18,0-0.23,0s-0.11,0-0.11,0.14s0,0.18,0.22,0.16c0.22-0.02,0.11,0,0.2-0.11s0,0.16,0,0.63v0.56
			c-0.31,0.13-0.6,0.32-0.85,0.56c-0.27,0.14-1.08,0.78-1.41,0.96c-0.32,0.18-0.72,0.56-0.79,0.58l-0.36,0.18
			C90.89,144.47,90.55,144.26,90.28,143.96z M90.87,134.25v-0.11l0,0V134.25L90.87,134.25C90.87,134.25,90.87,134.28,90.87,134.25z
			 M91.09,139.66c0.01-0.03,0.01-0.06,0-0.09l0,0l0,0V139.66z M93.09,139.06c0-1.24,0-2.34,0-3.91c0-0.4-0.14-0.78-0.4-1.08
			c-0.25-0.36-0.18-0.45-0.47-0.58c-0.11-0.02-0.22-0.02-0.32,0c-0.14,0-0.22,0.13-0.49,0.29v3.6c-0.01,0.41,0.05,0.82,0.18,1.21
			c0,0.2,0.16,0.31,0.5,0.63c0.34,0.32,0.47,0.41,0.59,0.4C92.82,139.6,92.86,139.29,93.09,139.06z M92.75,132.81
			C92.75,132.81,92.75,132.7,92.75,132.81S92.75,132.81,92.75,132.81L92.75,132.81L92.75,132.81
			C92.75,132.81,92.75,132.82,92.75,132.81z M92.75,133.11L92.75,133.11L92.75,133.11L92.75,133.11z"/>
		<path class="st42" d="M97.09,139.78c-0.52-0.28-0.92-0.75-1.12-1.32v-0.63c0-0.32,0-0.7,0-0.81v-1.8v-0.38
			c0.01-0.1,0.01-0.19,0-0.29c0-0.58,0-0.92,0-0.99c0.33-0.3,0.69-0.58,1.06-0.83c0.16-0.18,0.43,0,0.56-0.34s0.68-0.47,1.35-1.01
			c0.11-0.1,0.24-0.18,0.38-0.25c0.32,0.06,0.63,0.19,0.9,0.38c0.29,0.27,0.52,0.58,0.68,0.94c0.14,0.59,0.19,1.2,0.14,1.8
			c-0.41,0.31-0.74,0.49-0.96,0.67c-0.34,0.29-0.7,0.55-1.08,0.78c-0.27,0.11-0.52,0.45-0.7,0.5c-0.18,0.05-0.67,0.47-0.67,0.56
			c0,0.09,0.18,0.43,0.22,0.68c0.08,0.4,0.35,0.73,0.72,0.9c0.13,0.09,0.27,0.15,0.41,0.18c0,0,0.56-0.43,0.81-0.43
			c0.19-0.09,0.36-0.21,0.52-0.34c0.18-0.17,0.39-0.31,0.61-0.41c0,0,0,0,0.13,0.31c0.13,0.31-0.11,0.18-0.59,0.47
			c-0.49,0.29-0.52,0.41-0.7,0.5c-0.18,0.09-0.38,0.32-0.7,0.5c-0.21,0.12-0.41,0.26-0.59,0.41c-0.26,0.25-0.57,0.44-0.92,0.56
			C97.56,140.09,97.47,139.89,97.09,139.78z M96.3,135.64L96.3,135.64L96.3,135.64L96.3,135.64z M98.84,135.4
			c0.15-0.13,0.32-0.23,0.5-0.29v-0.78c0.01-0.2-0.04-0.39-0.14-0.56l-0.18-0.43c-0.09-0.16-0.67-0.81-0.9-0.78
			c-0.23,0.04-0.25,0.14-0.47,0.36v2.07c-0.03,0.38-0.03,0.77,0,1.15l0,0C98.08,135.97,98.49,135.71,98.84,135.4z M98.1,138.54
			c-0.09-0.02-0.18-0.02-0.27,0h-0.11c0.05,0.09,0.14,0.17,0.23,0.22C98.02,138.69,98.07,138.62,98.1,138.54z"/>
		<path class="st42" d="M103.17,138.88c-0.32-0.09-0.62-0.25-0.87-0.47v-1.01c0-0.5,0-0.49,0-1.08s-0.09-2.04-0.09-2.31v-1.5
			c0.03-0.22,0.03-0.43,0-0.65c0.01-0.15,0.12-0.28,0.27-0.31c0.16,0,0.43-0.29,0.61-0.4s0.61-0.52,0.76-0.54s0.11,0.85,0.14,0.83
			c0.04-0.02,1.6-1.08,1.8-1.08c0.16,0.04,0.3,0.1,0.43,0.2c0.64,0.39,1.06,1.06,1.14,1.8c0,0.34-0.41,0.43-0.74,0.76
			c-0.28,0.21-0.58,0.39-0.9,0.52c0,0-0.11,0-0.14-0.34c-0.01-0.25-0.1-0.48-0.23-0.68c-0.25-0.4-0.79-0.79-1.01-0.76
			c-0.12,0.04-0.21,0.12-0.27,0.23c0,0.11,0,0.2,0,0.74v1.26c0,0.5,0,0.59,0,0.68c-0.11,0.15-0.19,0.33-0.22,0.52l0,0h0.23v2.96
			c0.03,0.34,0.03,0.69,0,1.03L103.17,138.88z M103.92,132.68c0,0,0,0-0.09,0l0,0l0,0C103.86,132.7,103.9,132.7,103.92,132.68z
			 M105.73,132.23c0-0.2,0-0.32-0.2-0.31c-0.2,0.02-0.11,0-0.14,0.14c0.04,0.15,0.14,0.28,0.27,0.36c0.04-0.05,0.06-0.12,0.05-0.18
			L105.73,132.23z"/>
	</g>
</g>
</svg>
