<?xml version="1.0" encoding="UTF-8"?><svg id="Icons" xmlns="http://www.w3.org/2000/svg" viewBox="0 0 180 180"><defs><style>.cls-1,.cls-2{fill:#d9b767;}.cls-3{fill:none;stroke:#fff;stroke-miterlimit:10;stroke-width:.68px;}.cls-4{fill:#092628;}.cls-4,.cls-2{fill-rule:evenodd;}</style></defs><path class="cls-2" d="m173.73,96.89c0,.75-.59,1.5-1.32,1.68L9.52,138.61c-.72.18-1.32-.29-1.32-1.03v-32.69c0-.75.59-1.5,1.32-1.68l162.9-40.04c.72-.18,1.32.29,1.32,1.03v32.69Z"/><path class="cls-2" d="m115.68,80.42c1.01.93,2.02,1.78,3.07,2.59,0-1.78,0-3.56-.24-5.01,1.1,2.12,1.93,4.38,2.47,6.71,1.13.85,2.34,1.62,3.52,2.39,0-2.79,0-8.09-.24-9.54,1.74,3.64,2.97,7.5,3.64,11.48,1.21.65,2.06,1.09,3.52,1.74-.15-4.64-.62-9.26-1.42-13.83,2.47,4.77,4.11,9.92,4.85,15.24,1.29.53,2.63.97,4.04,1.42-.2-5.44-.86-10.85-1.98-16.17,2.78,5.38,4.58,11.21,5.3,17.22,1.74.49,3.56.93,5.42,1.33-4.04-14.72-7.44-23.41-13.58-31.62-2.75-.94-5.45-2.02-8.09-3.23l-.28.73c-.24.53-.53,1.05-.81,1.54l-1.46,2.71-2.87-1.17c-1.24-.5-2.46-1.06-3.64-1.7.29,1.86.44,3.74.44,5.62,0,3.95-.61,7.88-1.82,11.64l.16-.08Zm-7.4-27.17c.24-.73.49-1.5.69-2.22,2.54,1.44,5.26,2.54,8.09,3.27-2.65-1.92-5.17-4.03-7.52-6.31,0-.93.32-1.86.44-2.79,2.41,1.35,5,2.35,7.68,2.99-2.64-1.87-5.13-3.95-7.44-6.23.08-1.13.08-2.27,0-3.4,2.2,1.14,4.52,2.02,6.91,2.63-2.6-1.9-5.06-3.98-7.36-6.23-.25-1.19-.57-2.37-.97-3.52,1.72.85,3.54,1.5,5.42,1.94-.65-.49-5.13-4.57-7.6-6.71-1.8-3.04-4.08-5.77-6.75-8.09,16.17,4.81,29.92,29.07,22.12,43.1-4.91-2.21-9.51-5.04-13.71-8.41v-.04Zm-20.5,17.26c-9.86-10.47-14.31-20.22-14.31-30.4.57-9.02,4.58-17.47,11.2-23.61-11.44,6.39-16.17,15.16-16.17,24.26,0,12.98,8.61,26.76,19.16,35.7,3.59-2.77,6.76-6.03,9.42-9.7,10.75-14.11,15.36-32.91.36-45.77-2.67-2.48-6-4.15-9.58-4.81v3.6c1.44,1.78,3.3,3.17,5.42,4.04-1.8.41-3.67.31-5.42-.28v3.36c1.94.99,3.99,1.74,6.1,2.22-1.97.73-4.02,1.23-6.1,1.5v3.11c2.11.23,4.24.11,6.31-.36-1.77,1.71-3.94,2.94-6.31,3.6v4.04c2.56-.84,5.02-1.94,7.36-3.27-1.97,2.77-4.47,5.12-7.36,6.91v4.08c3.27-2.01,6.28-4.39,8.98-7.12-2.02,4.46-5.1,8.37-8.98,11.36v4.04c3.31-1.93,6.34-4.3,9.02-7.03-1.61,4.69-4.79,8.68-9.02,11.28v4.04c3.57-2.29,6.84-5,9.74-8.09-2.47,4.85-5.77,9.23-9.74,12.94l-.08.36Zm-20.54-17.26c-4.2,3.36-8.8,6.19-13.71,8.41-7.8-14.03,5.98-38.29,22.12-43.1-1.69,1.48-3.24,3.12-4.61,4.89-7.76,7.12-16.17,19.29-14.47,31.66,3.24-2.24,6.34-4.68,9.26-7.32.34,1.85.81,3.68,1.42,5.46Zm60.28,1.46c2.7,1.56,5.62,2.7,8.65,3.4-3.03-1.95-5.87-4.16-8.49-6.63.06-.89.06-1.78,0-2.67,2.07,1.6,4.41,2.82,6.91,3.6-2.02-1.62-5.82-5.54-7.6-7.36-.24-1.15-.57-2.29-.97-3.4,1.98,1.98,4.29,3.6,6.83,4.77-2.67-2.95-5.98-6.51-9.14-10.35-.94-1.88-2.01-3.69-3.19-5.42-.89-1.29-1.82-2.55-2.83-3.76,15.53,10.79,22.64,28.71,29.96,37.72-7.01-1.49-13.8-3.85-20.22-7.03.23-.94.38-1.9.44-2.87h-.36Zm-79.73-2.14c-2.62,1.37-5.32,2.57-8.09,3.6,1.78-2.87,3.6-5.78,5.54-8.57s4.04-5.86,5.58-8.41c1.22-3,2.75-5.85,4.57-8.53.89-1.29,1.82-2.55,2.83-3.76-15.53,10.79-22.64,28.71-29.92,37.72,6.97-1.58,13.74-3.89,20.22-6.91-.35-1.69-.54-3.41-.57-5.13h-.16Zm-9.5,73.06c2.96,7.89,5.3,16,6.99,24.26l5.9-5.94c-.69-1.25-1.29-2.47-1.86-3.72l-2.22,2.26c-1.38-6.49-3.09-12.9-5.13-19.2l-3.68,2.39v-.04Zm-3.11-27.94c1.74-.53,3.48-1.05,5.13-1.66-.4,3.27-1.58,12.74-1.78,14.07-.24,1.98-.53,4.04-.81,5.98l8.09-5.26c.63,1.5,1.33,2.97,2.1,4.41l-16.66,10.84c.93-5.3,3.03-19.65,4.04-28.3l-.12-.08Zm34,31.25l-8.49,23.29c-7.4-10.79-12.45-20.66-12.9-32.75l2.06-1.33c2.06,8.18,5.33,16,9.7,23.21l6.39-17.26c1.05,1.62,2.22,3.19,3.44,4.73l-.2.12Zm18.6,36.87c7.73-5.94,14.78-12.72,21.02-20.22l-5.01-13.58c-4.24,4.78-8.85,9.21-13.79,13.26l-2.22,1.9v3.23c3.2-1.55,6.21-3.46,8.98-5.7-2.13,3.66-5.24,6.66-8.98,8.65v2.59c4.96-2.41,9.54-5.54,13.58-9.3-3.29,5.5-7.98,10.03-13.58,13.14-5.49-4.74-10.66-9.83-15.48-15.24l3.19-8.49c-1.29-1.29-2.55-2.63-3.76-4.04l-5.01,13.54c6.25,7.5,13.31,14.28,21.06,20.22v.04Zm0-23.17c8.77-6.85,16.17-15.3,21.79-24.91l-9.1-14.03c-3.33,3.36-6.83,6.53-10.51,9.5l-2.18,1.78v4.04c2.83-1.74,6.06-3.76,7.56-4.97-2.1,3.06-4.65,5.79-7.56,8.09v2.79c4.14-2.6,8.08-5.49,11.81-8.65-3.19,4.87-7.18,9.16-11.81,12.7v3.03c5.73-3.13,10.99-7.03,15.65-11.6-3.88,6.54-9.24,12.08-15.65,16.17-6.28-5.35-11.73-11.6-16.17-18.56l6.95-10.63c-1.21-1.13-2.39-2.3-3.56-3.48l-9.06,13.83c5.63,9.62,13.04,18.07,21.83,24.91Zm-14.96-41.4l-15.12,22.68c-8.57-11.89-11.28-17.87-11.36-30.44,1.73-.81,3.42-1.7,5.09-2.67-.26,3.59-.11,7.2.44,10.75.9,4.91,2.84,9.57,5.7,13.67l11.2-18.44c1.21,1.54,2.47,2.99,3.8,4.45h.24Zm-12.78-20.82c-.74-2.29-1.25-4.65-1.54-7.03-.87,2.1-2.26,3.95-4.04,5.38-5.76,4.63-12.34,8.11-19.41,10.27,2-7.37,5.2-14.36,9.46-20.7.77-1.05,2.83-3.32,5.38-5.98l-.24-.57c-.12-.23-.23-.48-.32-.73-2.57,1.21-5.2,2.29-7.88,3.23-6.15,8.09-9.7,16.9-13.58,31.62,11.85-2.13,22.89-7.49,31.9-15.48h.28Zm2.71-19.61c-.71,2.64-1.06,5.36-1.05,8.09,0,16.17,11.12,29.47,26.28,41.85,15.12-12.37,26.28-25.88,26.28-41.85,0-2.73-.38-5.45-1.09-8.09-1.58-1.01-4.04-2.83-5.98-4.04-1.89,4.32-4.29,8.39-7.16,12.13-2.78,3.9-6.09,7.4-9.82,10.39l-2.22,1.94v3.8c3.15-2.05,6.18-4.26,9.1-6.63-2.65,3.82-5.8,7.26-9.38,10.23v4.33c4.68-2.94,9.16-6.18,13.42-9.7-3.59,5.2-8.03,9.75-13.14,13.46v3.84c5.73-3.38,11.03-7.46,15.77-12.13-3.93,6.62-9.32,12.25-15.77,16.46-12.82-11.32-21.79-22.6-21.79-38.04.11-3.22.75-6.41,1.9-9.42v-.24c-1.74,1.29-3.56,2.59-5.42,3.76l.08-.12Zm74.67,64.69c-2.96,7.89-5.3,16-6.99,24.26l-2.39-2.43c.98-2.72,1.59-5.56,1.82-8.45-1.11,2.25-2.35,4.44-3.72,6.55l-1.62-1.62c3.86-6.8,6.23-14.33,6.95-22.12l5.94,4.04v-.24Zm3.15-27.94c.85,8.73,2.95,23.09,4.04,28.3l-4.41-2.87c.31-3.38.23-6.79-.24-10.15-.36,1.9-1.09,5.22-2.02,8.69l-3.27-2.14c.56-3.03.8-6.1.73-9.18-.49,1.78-1.66,4.61-2.79,7.84l-4.65-3.03c3.37-6.2,5.1-13.16,5.01-20.22,2.47.97,5.05,1.86,7.76,2.63l-.16.12Zm-34.04,31.25c2.01-2.54,3.81-5.25,5.38-8.09l5.98,9.06,2.95-4.04c2.02-2.83,3.76-5.38,5.22-7.76l2.06,1.33c-.44,12.13-5.5,21.95-12.9,32.75l-1.05-2.83c2.67-3.98,4.5-8.47,5.38-13.18-1.97,3.64-4.26,7.1-6.83,10.35l-1.17-3.15c1.54-3.05,2.63-6.3,3.23-9.66-1.05,1.86-2.59,4.04-4.29,6.83l-1.29-3.36c.81-2.36,1.42-4.78,1.82-7.24-.86,1.53-1.82,3-2.87,4.41l-1.98-5.3.36-.12Zm-3.44-27.69c4.8-5.06,8.69-10.91,11.48-17.3,4.46,3.88,9.44,7.11,14.8,9.62,0,12.57-2.79,18.56-11.36,30.44l-2.55-4.04c2.92-3.5,5.33-7.39,7.16-11.56-2.74,3.18-5.73,6.14-8.94,8.85l-1.98-2.99c2.27-3.07,4.15-6.41,5.58-9.95-2.34,2.65-4.81,5.19-7.4,7.6l-2.18-3.36c2.1-2.88,3.84-6,5.18-9.3-1.37,1.54-4.04,4.04-6.79,6.83l-2.99-4.85Z"/><path class="cls-4" d="m172.37,95.54c0,.75-.59,1.5-1.32,1.68L8.16,137.25c-.72.18-1.32-.29-1.32-1.03v-32.69c0-.75.59-1.5,1.32-1.68l162.9-40.04c.72-.18,1.32.29,1.32,1.03v32.69Z"/><path class="cls-3" d="m172.37,95.54c0,.75-.59,1.5-1.32,1.68L8.16,137.25c-.72.18-1.32-.29-1.32-1.03v-32.69c0-.75.59-1.5,1.32-1.68l162.9-40.04c.72-.18,1.32.29,1.32,1.03v32.69Z"/><path class="cls-1" d="m20.77,121.42c.05-.85-.09-1.45-.41-1.8-.32-.35-.92-.64-1.8-.88-1.61-.38-2.74-1.01-3.41-1.89-.66-.88-.95-2.05-.87-3.49.1-1.75.67-3.28,1.71-4.59,1.04-1.31,2.32-2.15,3.83-2.53,1.01-.25,1.89-.21,2.65.13.76.34,1.33.95,1.7,1.82.37.88.53,1.94.46,3.19l-3.31.83c.05-.97-.07-1.67-.37-2.1-.3-.43-.76-.56-1.38-.41-.58.15-1.04.48-1.39.99-.35.51-.54,1.14-.58,1.87-.03.57.12,1.04.46,1.41.34.37.95.69,1.84.96,1.57.33,2.68.94,3.35,1.83.67.89.96,2.16.87,3.81-.1,1.81-.63,3.34-1.6,4.59-.97,1.25-2.24,2.06-3.81,2.45-1.07.26-2.02.23-2.87-.11-.85-.34-1.49-.96-1.93-1.86-.44-.91-.62-2.06-.54-3.46l3.34-.83c-.07,1.2.07,2.03.41,2.48.34.45.93.58,1.77.37,1.16-.29,1.79-1.21,1.87-2.76Z"/><path class="cls-1" d="m37.84,105.44l-4.06,1.02-.9,17.35-3.34.83.91-17.34-4,1,.19-3.51,11.38-2.87-.18,3.51Z"/><path class="cls-1" d="m42.59,121.42l-3.33.82,1.05-20.89,3.32-.84-1.03,20.9Z"/><path class="cls-1" d="m57.13,110.92c-.19,2.41-.8,4.35-1.84,5.82-1.03,1.47-2.44,2.42-4.21,2.86-1.87.46-3.26.04-4.18-1.27-.92-1.31-1.31-3.41-1.17-6.29l.17-3.52c.14-2.87.76-5.21,1.86-7.03,1.1-1.81,2.56-2.95,4.38-3.41,1.79-.45,3.12-.16,3.99.89.87,1.04,1.31,2.74,1.33,5.09l-3.33.84c.04-1.47-.09-2.44-.39-2.92-.3-.48-.89-.61-1.76-.39-.89.22-1.54.78-1.94,1.66-.41.88-.67,2.23-.77,4.05l-.19,3.95c-.1,2.08.02,3.46.34,4.14.33.69.94.92,1.83.7.88-.22,1.49-.64,1.85-1.26.36-.62.59-1.65.7-3.08l3.33-.83Z"/><path class="cls-1" d="m70.66,114.47l-3.32.82.39-8.98-4.91,1.22-.4,8.97-3.33.83.95-20.95,3.32-.84-.38,8.48,4.9-1.23.37-8.49,3.3-.83-.9,20.99Z"/><path class="cls-1" d="m82.42,103.06l-5.17,1.29-.35,8.57-3.33.82.88-21,9.09-2.29-.14,3.54-5.78,1.45-.22,5.38,5.16-1.29-.14,3.53Z"/><path class="cls-1" d="m90.7,105.24l-4.54,1.13-1.05,4.53-3.52.87,5.97-22.32,3.03-.76,4.39,19.77-3.56.88-.72-4.09Zm-3.68-2.59l3.08-.77-1.25-7.12-1.83,7.89Z"/><path class="cls-1" d="m100.08,107.18l-3.2.79.58-15.94c.08-2.1.55-3.84,1.43-5.21.88-1.37,2.07-2.25,3.58-2.63,1.29-.33,2.3-.1,3.02.67.72.78,1.05,1.99,1,3.63-.04,1.04-.23,2.02-.59,2.95-.36.93-.55,1.76-.58,2.49-.01.35.06.68.22.99.16.31.48.77.96,1.38.48.61.82,1.22,1.03,1.84.21.62.3,1.29.27,2.02-.06,1.72-.47,3.15-1.22,4.28-.76,1.13-1.88,1.88-3.36,2.25-.51.12-1,.17-1.48.14-.48-.04-.84-.14-1.09-.3l.7-3.47c.55.35,1.19.44,1.93.25.84-.21,1.28-.97,1.33-2.27.01-.43-.07-.83-.24-1.18-.17-.35-.5-.78-.96-1.3-.47-.52-.8-1.07-1.01-1.65-.2-.58-.29-1.24-.27-1.98.03-.93.24-1.88.61-2.84.37-.97.57-1.83.6-2.58.02-.67-.08-1.17-.3-1.51-.22-.34-.54-.45-.94-.35-.86.22-1.34,1.34-1.44,3.37l-.58,16.18Z"/><path class="cls-1" d="m127.4,91.79c-.08,2.84-.67,5.18-1.76,7.01-1.09,1.83-2.57,2.97-4.43,3.43-1.85.46-3.28.04-4.29-1.25-1.01-1.29-1.47-3.33-1.4-6.13l.12-3.62c.09-2.9.69-5.3,1.79-7.2,1.1-1.9,2.57-3.08,4.43-3.55,1.83-.46,3.24-.02,4.24,1.32,1,1.34,1.47,3.46,1.4,6.35l-.11,3.62Zm-3.23-2.72c.06-1.91-.11-3.28-.5-4.1-.39-.82-1.03-1.12-1.92-.9-.88.22-1.54.83-1.99,1.84-.45,1-.71,2.42-.78,4.25l-.12,3.76c-.06,1.85.11,3.16.52,3.93.4.77,1.05,1.04,1.95.82.87-.22,1.53-.8,1.97-1.77.45-.96.7-2.35.77-4.15l.11-3.68Z"/><path class="cls-1" d="m141.3,96.97l-3.33.83-4.48-12.7-.39,13.91-3.33.83.61-21.19,3.31-.84,4.48,12.71.38-13.93,3.3-.83-.56,21.23Z"/><path class="cls-1" d="m147.62,91.86l5.84-1.45-.08,3.56-9.17,2.28.54-21.24,3.31-.84-.44,17.69Z"/><path class="cls-1" d="m157.61,81.26l2.68-10.18,3.61-.91-4.69,14.68-.17,7.72-3.37.84.18-7.72-4.1-12.45,3.61-.91,2.26,8.93Z"/></svg>