<?xml version="1.0" encoding="utf-8"?>
<!-- Generator: Adobe Illustrator 27.5.0, SVG Export Plug-In . SVG Version: 6.00 Build 0)  -->
<svg version="1.1" id="Layer_1" xmlns="http://www.w3.org/2000/svg" xmlns:xlink="http://www.w3.org/1999/xlink" x="0px" y="0px"
	 viewBox="0 0 180 180" style="enable-background:new 0 0 180 180;" xml:space="preserve">
<style type="text/css">
	.st0{display:none;}
	.st1{display:inline;fill:#D9B767;}
	.st2{fill:#FFEF00;}
	.st3{fill:url(#SVGID_1_);}
	.st4{fill:url(#SVGID_00000066488378946795181890000008949226938497010817_);}
	.st5{fill:#007DB4;}
</style>
<g id="Backgrounds" class="st0">
	<rect x="0" y="0" class="st1" width="179.1" height="179"/>
</g>
<g id="Layer_3">
</g>
<rect x="0.3" y="0.4" transform="matrix(-1 -1.224647e-16 1.224647e-16 -1 180.6485 180.2948)" class="st2" width="180" height="179.4"/>
<g>
	<linearGradient id="SVGID_1_" gradientUnits="userSpaceOnUse" x1="90.5302" y1="76.7854" x2="90.5302" y2="0.1474">
		<stop  offset="7.007695e-03" style="stop-color:#007DB4"/>
		<stop  offset="0.2709" style="stop-color:#4CC6E6"/>
		<stop  offset="0.3686" style="stop-color:#53C7E5"/>
		<stop  offset="0.5062" style="stop-color:#65CAE4"/>
		<stop  offset="0.6675" style="stop-color:#83D0E2"/>
		<stop  offset="0.8452" style="stop-color:#ADD7DE"/>
		<stop  offset="1" style="stop-color:#D7DEDB"/>
	</linearGradient>
	<path class="st3" d="M105.9,29.3c0-1.9-0.4-3.6-1.5-4.2c-1.1-0.6-2.4-0.9-3.1-1.2c-0.8-0.4-1.6-1.4-1.6-1.4c0,0,0,2.5,0,4.4
		c0,1.9,0.4,3.6,1.5,4.2c1.1,0.6,2.6,0.4,2.9,1.2c0.5,1,0.6,31.1,0.6,31.1s0.9-13.8,0.9-24.6C105.6,36.6,105.9,31,105.9,29.3z
		 M105.9,12.6c0-1.9-0.4-3.6-1.5-4.2c-1.1-0.6-2.4-0.9-3.1-1.2c-0.8-0.4-1.6-1.4-1.6-1.4c0,0,0,2.5,0,4.4c0,1.9,0.4,3.6,1.5,4.2
		c1.1,0.6,2.2,0.8,2.9,1.2c0.8,0.4,1.3,1.2,1.3,1.1C105.4,16.8,105.8,14.4,105.9,12.6z M105.9,21c0-1.9-0.4-3.6-1.5-4.2
		c-1.1-0.6-2.4-0.9-3.1-1.2c-0.8-0.4-1.6-1.4-1.6-1.4c0,0,0,2.5,0,4.4c0,1.9,0.4,3.6,1.5,4.2c1.1,0.6,2.2,0.8,2.9,1.2
		c0.8,0.4,1.3,1.2,1.3,1.1C105.4,25.2,105.8,22.8,105.9,21z M116,37.6c0-1.8,0-4.4,0-4.4c0,0-0.7,1-1.6,1.4c-0.8,0.3-2,0.6-3.1,1.2
		c-1.1,0.6-1.6,2.3-1.5,4.2c0,1.7,0.2,7.3,0.2,9.6c0,10.8,0.9,20.7,0.9,20.7s0.2-26.2,0.6-27.2c0.3-0.8,1.8-0.6,2.9-1.2
		C115.6,41.2,116,39.5,116,37.6z M116.4,41.4c0,0-0.5,0.8-1.1,1.2c-0.9,0.6-2,1-2,2.9c0,2.4,2.3,6.7,2.4,8.7
		c0,0.4,0.4,10.3,0.5,10.8c0,0.7,0.2,5.1,0.2,5.1s0.2-4.4,0.2-5.1c0-0.5,0.4-10.4,0.5-10.8c0.1-2.1,2.5-6.4,2.4-8.7
		c0-1.9-1.1-2.4-2-2.9C116.9,42.2,116.4,41.4,116.4,41.4z M88.6,12.6c0-1.9-0.4-3.6-1.5-4.2c-1.1-0.6-2.4-0.9-3.1-1.2
		c-0.8-0.4-1.6-1.4-1.6-1.4c0,0,0,2.5,0,4.4c0,1.9,0.4,3.6,1.5,4.2c1.1,0.6,2.2,0.8,2.9,1.2c0.8,0.4,1.3,1.2,1.3,1.1
		C88.1,16.8,88.6,14.4,88.6,12.6z M88.6,21c0-1.9-0.4-3.6-1.5-4.2c-1.1-0.6-2.4-0.9-3.1-1.2c-0.8-0.4-1.6-1.4-1.6-1.4
		c0,0,0,2.5,0,4.4c0,1.9,0.4,3.6,1.5,4.2c1.1,0.6,2.2,0.8,2.9,1.2c0.8,0.4,1.3,1.2,1.3,1.1C88.1,25.2,88.6,22.8,88.6,21z M99.2,30.7
		c0,0-0.5,0.8-1.1,1.2c-0.9,0.6-2,1-2,2.9c0,2.4,2.3,6.7,2.4,8.7c0,0.4,0.4,14.3,0.4,14.7c0,0.7,0.2,5.1,0.2,5.1s0.2-4.4,0.2-5.1
		c0-0.5,0.4-14.3,0.5-14.7c0.1-2.1,2.5-6.4,2.4-8.7c0-1.9-1.1-2.4-2-2.9C99.7,31.5,99.2,30.7,99.2,30.7z M98.8,26.9
		c0-1.8,0-4.4,0-4.4c0,0-0.7,1-1.6,1.4c-0.8,0.3-2,0.6-3.1,1.2c-1.1,0.6-1.6,2.3-1.5,4.2c0,1.7,0.2,7.3,0.2,9.6
		c0,10.8,0.9,24.6,0.9,24.6s0.2-30.1,0.6-31.1c0.3-0.8,1.8-0.6,2.9-1.2C98.3,30.5,98.8,28.8,98.8,26.9z M98.8,10.2
		c0-1.8,0-4.4,0-4.4c0,0-0.7,1-1.6,1.4c-0.8,0.3-2,0.6-3.1,1.2c-1.1,0.6-1.6,2.3-1.5,4.2c0,1.8,0.5,4.2,0.5,4.1
		c0,0.1,0.5-0.8,1.3-1.1c0.8-0.4,1.8-0.6,2.9-1.2C98.3,13.8,98.8,12.1,98.8,10.2z M98.8,18.5c0-1.8,0-4.4,0-4.4c0,0-0.7,1-1.6,1.4
		c-0.8,0.3-2,0.6-3.1,1.2c-1.1,0.6-1.6,2.3-1.5,4.2c0,1.8,0.5,4.2,0.5,4.1c0,0.1,0.5-0.8,1.3-1.1c0.8-0.4,1.8-0.6,2.9-1.2
		C98.3,22.1,98.8,20.4,98.8,18.5z M116,29.2c0-1.8,0-4.4,0-4.4c0,0-0.7,1-1.6,1.4c-0.8,0.3-2,0.6-3.1,1.2c-1.1,0.6-1.6,2.3-1.5,4.2
		c0,1.8,0.5,4.2,0.5,4.1c0,0.1,0.5-0.8,1.3-1.1c0.8-0.4,1.8-0.6,2.9-1.2C115.6,32.8,116,31.1,116,29.2z M133.3,10.2
		c0-1.8,0-4.4,0-4.4c0,0-0.7,1-1.6,1.4c-0.8,0.3-2,0.6-3.1,1.2c-1.1,0.6-1.6,2.3-1.6,4.2c0,1.8,0.5,4.2,0.5,4.1
		c0,0.1,0.5-0.8,1.3-1.1c0.8-0.4,1.8-0.6,2.9-1.2C132.8,13.8,133.3,12.1,133.3,10.2z M140.3,12.6c0-1.9-0.4-3.6-1.5-4.2
		c-1.1-0.6-2.4-0.9-3.1-1.2c-0.8-0.4-1.6-1.4-1.6-1.4c0,0,0,2.5,0,4.4c0,1.9,0.4,3.6,1.5,4.2c1.1,0.6,2.2,0.8,2.9,1.2
		c0.8,0.4,1.3,1.2,1.3,1.1C139.9,16.8,140.3,14.4,140.3,12.6z M133.3,26.9c0-1.8,0-4.4,0-4.4c0,0-0.7,1-1.6,1.4
		c-0.8,0.3-2,0.6-3.1,1.2c-1.1,0.6-1.6,2.3-1.6,4.2c0,1.7,0.2,7.3,0.2,9.6c0,10.8,0.9,27.2,0.9,27.2s0.2-32.7,0.6-33.8
		c0.3-0.8,1.8-0.6,2.9-1.2C132.8,30.5,133.3,28.8,133.3,26.9z M140.3,21c0-1.9-0.4-3.6-1.5-4.2c-1.1-0.6-2.4-0.9-3.1-1.2
		c-0.8-0.4-1.6-1.4-1.6-1.4c0,0,0,2.5,0,4.4c0,1.9,0.4,3.6,1.5,4.2c1.1,0.6,2.2,0.8,2.9,1.2c0.8,0.4,1.3,1.2,1.3,1.1
		C139.9,25.2,140.3,22.8,140.3,21z M133.7,30.7c0,0-0.5,0.8-1.1,1.2c-0.9,0.6-2,1-2,2.9c0,2.4,2.3,6.7,2.4,8.7
		c0,0.4,0.4,16.9,0.5,17.3c0,0.7,0.2,5.1,0.2,5.1s0.2-4.4,0.2-5.1c0-0.5,0.4-16.9,0.5-17.3c0.1-2.1,2.5-6.4,2.4-8.7
		c0-1.9-1.1-2.4-2-2.9C134.2,31.5,133.7,30.7,133.7,30.7z M140.3,29.3c0-1.9-0.4-3.6-1.5-4.2c-1.1-0.6-2.4-0.9-3.1-1.2
		c-0.8-0.4-1.6-1.4-1.6-1.4c0,0,0,2.5,0,4.4c0,1.9,0.4,3.6,1.5,4.2c1.1,0.6,2.6,0.4,2.9,1.2c0.5,1,0.6,33.8,0.6,33.8
		s0.9-16.4,0.9-27.2C140.1,36.6,140.3,31,140.3,29.3z M123.1,23.3c0-1.9-0.4-3.6-1.5-4.2c-1.1-0.6-2.4-0.9-3.1-1.2
		c-0.8-0.4-1.6-1.4-1.6-1.4c0,0,0,2.5,0,4.4c0,1.9,0.4,3.6,1.5,4.2c1.1,0.6,2.2,0.8,2.9,1.2c0.8,0.4,1.3,1.2,1.3,1.1
		C122.6,27.5,123.1,25.1,123.1,23.3z M123.1,40c0-1.9-0.4-3.6-1.5-4.2c-1.1-0.6-2.4-0.9-3.1-1.2c-0.8-0.4-1.6-1.4-1.6-1.4
		c0,0,0,2.5,0,4.4c0,1.9,0.4,3.6,1.5,4.2c1.1,0.6,2.6,0.4,2.9,1.2c0.5,1,0.6,27.2,0.6,27.2s0.9-9.8,0.9-20.7
		C122.9,47.3,123.1,41.7,123.1,40z M116,12.5c0-1.8,0-4.4,0-4.4c0,0-0.7,1-1.6,1.4c-0.8,0.3-2,0.6-3.1,1.2c-1.1,0.6-1.6,2.3-1.5,4.2
		c0,1.8,0.5,4.2,0.5,4.1c0,0.1,0.5-0.8,1.3-1.1c0.8-0.4,1.8-0.6,2.9-1.2C115.6,16.1,116,14.4,116,12.5z M116,20.9c0-1.8,0-4.4,0-4.4
		c0,0-0.7,1-1.6,1.4c-0.8,0.3-2,0.6-3.1,1.2c-1.1,0.6-1.6,2.3-1.5,4.2c0,1.8,0.5,4.2,0.5,4.1c0,0.1,0.5-0.8,1.3-1.1
		c0.8-0.4,1.8-0.6,2.9-1.2C115.6,24.5,116,22.8,116,20.9z M123.1,31.6c0-1.9-0.4-3.6-1.5-4.2c-1.1-0.6-2.4-0.9-3.1-1.2
		c-0.8-0.4-1.6-1.4-1.6-1.4c0,0,0,2.5,0,4.4c0,1.9,0.4,3.6,1.5,4.2c1.1,0.6,2.2,0.8,2.9,1.2c0.8,0.4,1.3,1.2,1.3,1.1
		C122.6,35.9,123.1,33.5,123.1,31.6z M123.1,14.9c0-1.9-0.4-3.6-1.5-4.2c-1.1-0.6-2.4-0.9-3.1-1.2c-0.8-0.4-1.6-1.4-1.6-1.4
		c0,0,0,2.5,0,4.4c0,1.9,0.4,3.6,1.5,4.2c1.1,0.6,2.2,0.8,2.9,1.2c0.8,0.4,1.3,1.2,1.3,1.1C122.6,19.2,123.1,16.8,123.1,14.9z
		 M133.3,18.5c0-1.8,0-4.4,0-4.4c0,0-0.7,1-1.6,1.4c-0.8,0.3-2,0.6-3.1,1.2c-1.1,0.6-1.6,2.3-1.6,4.2c0,1.8,0.5,4.2,0.5,4.1
		c0,0.1,0.5-0.8,1.3-1.1c0.8-0.4,1.8-0.6,2.9-1.2C132.8,22.1,133.3,20.4,133.3,18.5z M55,29.3c0-1.9-0.4-3.6-1.5-4.2
		c-1.1-0.6-2.4-0.9-3.1-1.2c-0.8-0.4-1.6-1.4-1.6-1.4c0,0,0,2.5,0,4.4c0,1.9,0.4,3.6,1.5,4.2c1.1,0.6,2.6,0.4,2.9,1.2
		c0.5,1,0.6,36.4,0.6,36.4s0.9-19,0.9-29.8C54.7,36.6,55,31,55,29.3z M37.7,31.6c0-1.9-0.4-3.6-1.5-4.2c-1.1-0.6-2.4-0.9-3.1-1.2
		c-0.8-0.4-1.6-1.4-1.6-1.4c0,0,0,2.5,0,4.4c0,1.9,0.4,3.6,1.5,4.2c1.1,0.6,2.2,0.8,2.9,1.2c0.8,0.4,1.3,1.2,1.3,1.1
		C37.2,35.9,37.7,33.5,37.7,31.6z M64.7,41.4c0,0-0.5,0.8-1.1,1.2c-0.9,0.6-2,1-2,2.9c0,2.4,2.3,6.7,2.4,8.7
		c0,0.4,0.4,10.3,0.4,10.8c0,0.7,0.2,5.1,0.2,5.1s0.2-4.4,0.2-5.1c0-0.5,0.4-10.4,0.5-10.8c0.1-2.1,2.5-6.4,2.4-8.7
		c0-1.9-1.1-2.4-2-2.9C65.1,42.2,64.7,41.4,64.7,41.4z M55,12.6c0-1.9-0.4-3.6-1.5-4.2c-1.1-0.6-2.4-0.9-3.1-1.2
		c-0.8-0.4-1.6-1.4-1.6-1.4c0,0,0,2.5,0,4.4c0,1.9,0.4,3.6,1.5,4.2c1.1,0.6,2.2,0.8,2.9,1.2c0.8,0.4,1.3,1.2,1.3,1.1
		C54.5,16.8,54.9,14.4,55,12.6z M47.9,10.2c0-1.8,0-4.4,0-4.4c0,0-0.7,1-1.6,1.4c-0.8,0.3-2,0.6-3.1,1.2c-1.1,0.6-1.6,2.3-1.5,4.2
		c0,1.8,0.5,4.2,0.5,4.1c0,0.1,0.5-0.8,1.3-1.1c0.8-0.4,1.8-0.6,2.9-1.2C47.4,13.8,47.9,12.1,47.9,10.2z M88.6,29.3
		c0-1.9-0.4-3.6-1.5-4.2c-1.1-0.6-2.4-0.9-3.1-1.2c-0.8-0.4-1.6-1.4-1.6-1.4c0,0,0,2.5,0,4.4c0,1.9,0.4,3.6,1.5,4.2
		c1.1,0.6,2.6,0.4,2.9,1.2c0.5,1,0.6,39,0.6,39s0.9-21.6,0.9-32.5C88.3,36.6,88.6,31,88.6,29.3z M37.7,23.3c0-1.9-0.4-3.6-1.5-4.2
		c-1.1-0.6-2.4-0.9-3.1-1.2c-0.8-0.4-1.6-1.4-1.6-1.4c0,0,0,2.5,0,4.4c0,1.9,0.4,3.6,1.5,4.2c1.1,0.6,2.2,0.8,2.9,1.2
		c0.8,0.4,1.3,1.2,1.3,1.1C37.2,27.5,37.7,25.1,37.7,23.3z M37.7,14.9c0-1.9-0.4-3.6-1.5-4.2C35,10.1,33.8,9.8,33,9.5
		c-0.8-0.4-1.6-1.4-1.6-1.4c0,0,0,2.5,0,4.4c0,1.9,0.4,3.6,1.5,4.2c1.1,0.6,2.2,0.8,2.9,1.2c0.8,0.4,1.3,1.2,1.3,1.1
		C37.2,19.2,37.7,16.8,37.7,14.9z M47.9,18.5c0-1.8,0-4.4,0-4.4c0,0-0.7,1-1.6,1.4c-0.8,0.3-2,0.6-3.1,1.2C42,17.4,41.6,19,41.6,21
		c0,1.8,0.5,4.2,0.5,4.1c0,0.1,0.5-0.8,1.3-1.1c0.8-0.4,1.8-0.6,2.9-1.2C47.4,22.1,47.9,20.4,47.9,18.5z M64.2,37.6
		c0-1.8,0-4.4,0-4.4c0,0-0.7,1-1.6,1.4c-0.8,0.3-2,0.6-3.1,1.2C58.4,36.4,58,38.1,58,40c0,1.7,0.2,7.3,0.2,9.6
		c0,10.8,0.9,20.7,0.9,20.7s0.2-26.2,0.6-27.2c0.3-0.8,1.8-0.6,2.9-1.2C63.8,41.2,64.3,39.5,64.2,37.6z M47.9,26.9
		c0-1.8,0-4.4,0-4.4c0,0-0.7,1-1.6,1.4c-0.8,0.3-2,0.6-3.1,1.2c-1.1,0.6-1.6,2.3-1.5,4.2c0,1.7,0.2,7.3,0.2,9.6
		c0,10.8,0.9,29.8,0.9,29.8s0.2-35.3,0.6-36.4c0.3-0.8,1.8-0.6,2.9-1.2C47.4,30.5,47.9,28.8,47.9,26.9z M48.3,30.7
		c0,0-0.5,0.8-1.1,1.2c-0.9,0.6-2,1-2,2.9c0,2.4,2.3,6.7,2.4,8.7c0,0.4,0.4,19.5,0.4,20c0,0.7,0.2,5.1,0.2,5.1s0.2-4.4,0.2-5.1
		c0-0.5,0.4-19.5,0.5-20c0.1-2.1,2.5-6.4,2.4-8.7c0-1.9-1.1-2.4-2-2.9C48.8,31.5,48.3,30.7,48.3,30.7z M81.5,26.9c0-1.8,0-4.4,0-4.4
		c0,0-0.7,1-1.6,1.4c-0.8,0.3-2,0.6-3.1,1.2c-1.1,0.6-1.6,2.3-1.5,4.2c0,1.7,0.2,7.3,0.2,9.6c0,10.8,0.9,32.5,0.9,32.5
		s0.2-38,0.6-39c0.3-0.8,1.8-0.6,2.9-1.2C81.1,30.5,81.5,28.8,81.5,26.9z M81.9,30.7c0,0-0.5,0.8-1.1,1.2c-0.9,0.6-2,1-2,2.9
		c0,2.4,2.3,6.7,2.4,8.7c0,0.4,0.4,22.1,0.4,22.6c0,0.7,0.2,5.1,0.2,5.1s0.2-4.4,0.2-5.1c0-0.5,0.4-22.1,0.5-22.6
		c0.1-2.1,2.5-6.4,2.4-8.7c0-1.9-1.1-2.4-2-2.9C82.4,31.5,81.9,30.7,81.9,30.7z M81.5,18.5c0-1.8,0-4.4,0-4.4c0,0-0.7,1-1.6,1.4
		c-0.8,0.3-2,0.6-3.1,1.2c-1.1,0.6-1.6,2.3-1.5,4.2c0,1.8,0.5,4.2,0.5,4.1c0,0.1,0.5-0.8,1.3-1.1c0.8-0.4,1.8-0.6,2.9-1.2
		C81.1,22.1,81.5,20.4,81.5,18.5z M81.5,10.2c0-1.8,0-4.4,0-4.4c0,0-0.7,1-1.6,1.4c-0.8,0.3-2,0.6-3.1,1.2c-1.1,0.6-1.6,2.3-1.5,4.2
		c0,1.8,0.5,4.2,0.5,4.1c0,0.1,0.5-0.8,1.3-1.1c0.8-0.4,1.8-0.6,2.9-1.2C81.1,13.8,81.5,12.1,81.5,10.2z M71.3,14.9
		c0-1.9-0.4-3.6-1.5-4.2c-1.1-0.6-2.4-0.9-3.1-1.2c-0.8-0.4-1.6-1.4-1.6-1.4c0,0,0,2.5,0,4.4c0,1.9,0.4,3.6,1.5,4.2
		c1.1,0.6,2.2,0.8,2.9,1.2c0.8,0.4,1.3,1.2,1.3,1.1C70.8,19.2,71.3,16.8,71.3,14.9z M71.3,40c0-1.9-0.4-3.6-1.5-4.2
		c-1.1-0.6-2.4-0.9-3.1-1.2c-0.8-0.4-1.6-1.4-1.6-1.4c0,0,0,2.5,0,4.4c0,1.9,0.4,3.6,1.5,4.2c1.1,0.6,2.6,0.4,2.9,1.2
		c0.5,1,0.6,27.2,0.6,27.2s0.9-9.8,0.9-20.7C71.1,47.3,71.3,41.7,71.3,40z M64.2,20.9c0-1.8,0-4.4,0-4.4c0,0-0.7,1-1.6,1.4
		c-0.8,0.3-2,0.6-3.1,1.2c-1.1,0.6-1.6,2.3-1.5,4.2c0,1.8,0.5,4.2,0.5,4.1c0,0.1,0.5-0.8,1.3-1.1c0.8-0.4,1.8-0.6,2.9-1.2
		C63.8,24.5,64.2,22.8,64.2,20.9z M64.2,12.5c0-1.8,0-4.4,0-4.4c0,0-0.7,1-1.6,1.4c-0.8,0.3-2,0.6-3.1,1.2C58.4,11.4,58,13,58,14.9
		c0,1.8,0.5,4.2,0.5,4.1c0,0.1,0.5-0.8,1.3-1.1c0.8-0.4,1.8-0.6,2.9-1.2C63.8,16.1,64.2,14.4,64.2,12.5z M71.3,31.6
		c0-1.9-0.4-3.6-1.5-4.2c-1.1-0.6-2.4-0.9-3.1-1.2c-0.8-0.4-1.6-1.4-1.6-1.4c0,0,0,2.5,0,4.4c0,1.9,0.4,3.6,1.5,4.2
		c1.1,0.6,2.2,0.8,2.9,1.2c0.8,0.4,1.3,1.2,1.3,1.1C70.8,35.9,71.3,33.5,71.3,31.6z M64.2,29.2c0-1.8,0-4.4,0-4.4c0,0-0.7,1-1.6,1.4
		c-0.8,0.3-2,0.6-3.1,1.2c-1.1,0.6-1.6,2.3-1.5,4.2c0,1.8,0.5,4.2,0.5,4.1c0,0.1,0.5-0.8,1.3-1.1c0.8-0.4,1.8-0.6,2.9-1.2
		C63.8,32.8,64.2,31.1,64.2,29.2z M71.3,23.3c0-1.9-0.4-3.6-1.5-4.2c-1.1-0.6-2.4-0.9-3.1-1.2c-0.8-0.4-1.6-1.4-1.6-1.4
		c0,0,0,2.5,0,4.4c0,1.9,0.4,3.6,1.5,4.2c1.1,0.6,2.2,0.8,2.9,1.2c0.8,0.4,1.3,1.2,1.3,1.1C70.8,27.5,71.3,25.1,71.3,23.3z M55,21
		c0-1.9-0.4-3.6-1.5-4.2c-1.1-0.6-2.4-0.9-3.1-1.2c-0.8-0.4-1.6-1.4-1.6-1.4c0,0,0,2.5,0,4.4c0,1.9,0.4,3.6,1.5,4.2
		c1.1,0.6,2.2,0.8,2.9,1.2c0.8,0.4,1.3,1.2,1.3,1.1C54.5,25.2,54.9,22.8,55,21z M150.1,41.4c0,0-0.5,0.8-1.1,1.2c-0.9,0.6-2,1-2,2.9
		c0,2.4,2.3,6.7,2.4,8.7c0,0.4,0.4,16.9,0.4,17.3c0,0.7,0.2,5.1,0.2,5.1s0.2-4.4,0.2-5.1c0-0.5,0.4-16.9,0.5-17.3
		c0.1-2.1,2.5-6.4,2.4-8.7c0-1.9-1.1-2.4-2-2.9C150.5,42.2,150.1,41.4,150.1,41.4z M166.9,18.5c0-1.8,0-4.4,0-4.4c0,0-0.7,1-1.6,1.4
		c-0.8,0.3-2,0.6-3.1,1.2c-1.1,0.6-1.6,2.3-1.5,4.2c0,1.8,0.5,4.2,0.5,4.1c0,0.1,0.5-0.8,1.3-1.1c0.8-0.4,1.8-0.6,2.9-1.2
		C166.5,22.1,166.9,20.4,166.9,18.5z M156.7,23.3c0-1.9-0.4-3.6-1.5-4.2c-1.1-0.6-2.4-0.9-3.1-1.2c-0.8-0.4-1.6-1.4-1.6-1.4
		c0,0,0,2.5,0,4.4c0,1.9,0.4,3.6,1.5,4.2c1.1,0.6,2.2,0.8,2.9,1.2c0.8,0.4,1.3,1.2,1.3,1.1C156.2,27.5,156.7,25.1,156.7,23.3z
		 M156.7,14.9c0-1.9-0.4-3.6-1.5-4.2c-1.1-0.6-2.4-0.9-3.1-1.2c-0.8-0.4-1.6-1.4-1.6-1.4c0,0,0,2.5,0,4.4c0,1.9,0.4,3.6,1.5,4.2
		c1.1,0.6,2.2,0.8,2.9,1.2c0.8,0.4,1.3,1.2,1.3,1.1C156.2,19.2,156.7,16.8,156.7,14.9z M166.9,26.9c0-1.8,0-4.4,0-4.4
		c0,0-0.7,1-1.6,1.4c-0.8,0.3-2,0.6-3.1,1.2c-1.1,0.6-1.6,2.3-1.5,4.2c0,1.7,0.2,7.3,0.2,9.6c0,10.8,0.9,29.8,0.9,29.8
		s0.2-35.3,0.6-36.4c0.3-0.8,1.8-0.6,2.9-1.2C166.5,30.5,166.9,28.8,166.9,26.9z M167.3,30.7c0,0-0.5,0.8-1.1,1.2
		c-0.9,0.6-2,1-2,2.9c0,2.4,2.3,6.7,2.4,8.7c0,0.4,0.4,19.5,0.4,20c0,0.7,0.2,5.1,0.2,5.1s0.2-4.4,0.2-5.1c0-0.5,0.4-19.5,0.5-20
		c0.1-2.1,2.5-6.4,2.4-8.7c0-1.9-1.1-2.4-2-2.9C167.8,31.5,167.3,30.7,167.3,30.7z M156.7,31.6c0-1.9-0.4-3.6-1.5-4.2
		c-1.1-0.6-2.4-0.9-3.1-1.2c-0.8-0.4-1.6-1.4-1.6-1.4c0,0,0,2.5,0,4.4c0,1.9,0.4,3.6,1.5,4.2c1.1,0.6,2.2,0.8,2.9,1.2
		c0.8,0.4,1.3,1.2,1.3,1.1C156.2,35.9,156.7,33.5,156.7,31.6z M149.6,29.2c0-1.8,0-4.4,0-4.4c0,0-0.7,1-1.6,1.4
		c-0.8,0.3-2,0.6-3.1,1.2c-1.1,0.6-1.6,2.3-1.5,4.2c0,1.8,0.5,4.2,0.5,4.1c0,0.1,0.5-0.8,1.3-1.1c0.8-0.4,1.8-0.6,2.9-1.2
		C149.2,32.8,149.6,31.1,149.6,29.2z M149.6,37.6c0-1.8,0-4.4,0-4.4c0,0-0.7,1-1.6,1.4c-0.8,0.3-2,0.6-3.1,1.2
		c-1.1,0.6-1.6,2.3-1.5,4.2c0,1.7,0.2,7.3,0.2,9.6c0,10.8,0.9,27.2,0.9,27.2s0.2-32.7,0.6-33.8c0.3-0.8,1.8-0.6,2.9-1.2
		C149.2,41.2,149.7,39.5,149.6,37.6z M149.6,12.5c0-1.8,0-4.4,0-4.4c0,0-0.7,1-1.6,1.4c-0.8,0.3-2,0.6-3.1,1.2
		c-1.1,0.6-1.6,2.3-1.5,4.2c0,1.8,0.5,4.2,0.5,4.1c0,0.1,0.5-0.8,1.3-1.1c0.8-0.4,1.8-0.6,2.9-1.2C149.2,16.1,149.6,14.4,149.6,12.5
		z M149.6,20.9c0-1.8,0-4.4,0-4.4c0,0-0.7,1-1.6,1.4c-0.8,0.3-2,0.6-3.1,1.2c-1.1,0.6-1.6,2.3-1.5,4.2c0,1.8,0.5,4.2,0.5,4.1
		c0,0.1,0.5-0.8,1.3-1.1c0.8-0.4,1.8-0.6,2.9-1.2C149.2,24.5,149.6,22.8,149.6,20.9z M156.7,40c0-1.9-0.4-3.6-1.5-4.2
		c-1.1-0.6-2.4-0.9-3.1-1.2c-0.8-0.4-1.6-1.4-1.6-1.4c0,0,0,2.5,0,4.4c0,1.9,0.4,3.6,1.5,4.2c1.1,0.6,2.6,0.4,2.9,1.2
		c0.5,1,0.6,33.8,0.6,33.8s0.9-16.4,0.9-27.2C156.5,47.3,156.7,41.7,156.7,40z M174,12.6c0-1.9-0.4-3.6-1.5-4.2
		c-1.1-0.6-2.4-0.9-3.1-1.2c-0.8-0.4-1.6-1.4-1.6-1.4c0,0,0,2.5,0,4.4c0,1.9,0.4,3.6,1.5,4.2c1.1,0.6,2.2,0.8,2.9,1.2
		c0.8,0.4,1.3,1.2,1.3,1.1C173.5,16.8,173.9,14.4,174,12.6z M174,29.3c0-1.9-0.4-3.6-1.5-4.2c-1.1-0.6-2.4-0.9-3.1-1.2
		c-0.8-0.4-1.6-1.4-1.6-1.4c0,0,0,2.5,0,4.4c0,1.9,0.4,3.6,1.5,4.2c1.1,0.6,2.6,0.4,2.9,1.2c0.5,1,0.6,36.4,0.6,36.4
		s0.9-19,0.9-29.8C173.7,36.6,174,31,174,29.3z M174,21c0-1.9-0.4-3.6-1.5-4.2c-1.1-0.6-2.4-0.9-3.1-1.2c-0.8-0.4-1.6-1.4-1.6-1.4
		c0,0,0,2.5,0,4.4c0,1.9,0.4,3.6,1.5,4.2c1.1,0.6,2.2,0.8,2.9,1.2c0.8,0.4,1.3,1.2,1.3,1.1C173.5,25.2,173.9,22.8,174,21z
		 M166.9,10.2c0-1.8,0-4.4,0-4.4c0,0-0.7,1-1.6,1.4c-0.8,0.3-2,0.6-3.1,1.2c-1.1,0.6-1.6,2.3-1.5,4.2c0,1.8,0.5,4.2,0.5,4.1
		c0,0.1,0.5-0.8,1.3-1.1c0.8-0.4,1.8-0.6,2.9-1.2C166.5,13.8,166.9,12.1,166.9,10.2z M156.7,6.6c0-1.9-0.4-3.6-1.5-4.2
		c-1.1-0.6-2.4-0.9-3.1-1.2c-0.5-0.2-1-0.7-1.3-1h-0.3c0,0.8,0,2.6,0,4c0,1.9,0.4,3.6,1.5,4.2c1.1,0.6,2.2,0.8,2.9,1.2
		c0.8,0.4,1.3,1.2,1.3,1.1C156.2,10.8,156.7,8.4,156.7,6.6z M55,4.3c0-1.8-0.4-3.4-1.4-4.1h-4.9c0,0.6,0,1.2,0,1.7
		c0,1.9,0.4,3.6,1.5,4.2c1.1,0.6,2.2,0.8,2.9,1.2c0.8,0.4,1.3,1.2,1.3,1.1C54.5,8.5,54.9,6.1,55,4.3z M64.2,4.2c0-1.4,0-3.3,0-4
		h-0.3c-0.3,0.3-0.8,0.8-1.3,1c-0.8,0.3-2,0.6-3.1,1.2C58.4,3,58,4.7,58,6.6c0,1.8,0.5,4.2,0.5,4.1c0,0.1,0.5-0.8,1.3-1.1
		c0.8-0.4,1.8-0.6,2.9-1.2C63.8,7.8,64.2,6.1,64.2,4.2z M59.7,1.3c0.7-0.4,1.7-0.6,2.8-1.1h-4.4c0.1,1.2,0.4,2.3,0.3,2.2
		C58.5,2.5,59,1.6,59.7,1.3z M47.9,1.8c0-0.5,0-1.1,0-1.7H43c-1,0.7-1.4,2.3-1.4,4.1c0,1.8,0.5,4.2,0.5,4.1c0,0.1,0.5-0.8,1.3-1.1
		c0.8-0.4,1.8-0.6,2.9-1.2C47.4,5.4,47.9,3.7,47.9,1.8z M37.7,6.6c0-1.9-0.4-3.6-1.5-4.2C35,1.7,33.8,1.5,33,1.2
		c-0.5-0.2-1-0.7-1.3-1h-0.3c0,0.8,0,2.6,0,4c0,1.9,0.4,3.6,1.5,4.2c1.1,0.6,2.2,0.8,2.9,1.2c0.8,0.4,1.3,1.2,1.3,1.1
		C37.2,10.8,37.7,8.4,37.7,6.6z M37.6,0.1h-4.4c1.1,0.6,2.1,0.7,2.8,1.1c0.8,0.3,1.3,1.2,1.3,1.1C37.2,2.4,37.4,1.4,37.6,0.1z
		 M81.5,1.8c0-0.5,0-1.1,0-1.7h-4.9c-1,0.7-1.4,2.3-1.4,4.1c0,1.8,0.5,4.2,0.5,4.1c0,0.1,0.5-0.8,1.3-1.1c0.8-0.4,1.8-0.6,2.9-1.2
		C81.1,5.4,81.5,3.7,81.5,1.8z M98.8,1.8c0-0.5,0-1.1,0-1.7h-4.9c-1,0.7-1.4,2.3-1.4,4.1c0,1.8,0.5,4.2,0.5,4.1
		c0,0.1,0.5-0.8,1.3-1.1c0.8-0.4,1.8-0.6,2.9-1.2C98.3,5.4,98.8,3.7,98.8,1.8z M105.9,4.3c0-1.8-0.4-3.4-1.4-4.1h-4.9
		c0,0.6,0,1.2,0,1.7c0,1.9,0.4,3.6,1.5,4.2c1.1,0.6,2.2,0.8,2.9,1.2c0.8,0.4,1.3,1.2,1.3,1.1C105.4,8.5,105.8,6.1,105.9,4.3z
		 M88.6,4.3c0-1.8-0.4-3.4-1.4-4.1h-4.9c0,0.6,0,1.2,0,1.7c0,1.9,0.4,3.6,1.5,4.2C85,6.7,86,6.9,86.8,7.3c0.8,0.4,1.3,1.2,1.3,1.1
		C88.1,8.5,88.6,6.1,88.6,4.3z M30.6,4.2c0-1.4,0-3.3,0-4h-0.3c-0.3,0.3-0.8,0.8-1.3,1c-0.8,0.3-2,0.6-3.1,1.2
		c-1.1,0.6-1.6,2.3-1.5,4.2c0,1.8,0.5,4.2,0.5,4.1c0,0.1,0.5-0.8,1.3-1.1c0.8-0.4,1.8-0.6,2.9-1.2C30.2,7.8,30.6,6.1,30.6,4.2z
		 M71.2,0.1h-4.4c1.1,0.6,2.1,0.7,2.8,1.1c0.8,0.3,1.3,1.2,1.3,1.1C70.8,2.4,71.1,1.4,71.2,0.1z M71.3,6.6c0-1.9-0.4-3.6-1.5-4.2
		c-1.1-0.6-2.4-0.9-3.1-1.2c-0.5-0.2-1-0.7-1.3-1h-0.3c0,0.8,0,2.6,0,4c0,1.9,0.4,3.6,1.5,4.2c1.1,0.6,2.2,0.8,2.9,1.2
		c0.8,0.4,1.3,1.2,1.3,1.1C70.8,10.8,71.3,8.4,71.3,6.6z M20.4,4.3c0-1.8-0.4-3.4-1.4-4.1h-4.9c0,0.6,0,1.2,0,1.7
		c0,1.9,0.4,3.6,1.5,4.2c1.1,0.6,2.2,0.8,2.9,1.2c0.8,0.4,1.3,1.2,1.3,1.1C19.9,8.5,20.4,6.1,20.4,4.3z M13.3,1.8c0-0.5,0-1.1,0-1.7
		H8.5c-1,0.7-1.4,2.3-1.4,4.1c0,1.8,0.5,4.2,0.5,4.1c0,0.1,0.5-0.8,1.3-1.1c0.8-0.4,1.8-0.6,2.9-1.2C12.9,5.4,13.4,3.7,13.3,1.8z
		 M26.1,1.3c0.7-0.4,1.7-0.6,2.8-1.1h-4.4c0.1,1.2,0.4,2.3,0.3,2.2C24.9,2.5,25.3,1.6,26.1,1.3z M123.1,6.6c0-1.9-0.4-3.6-1.5-4.2
		c-1.1-0.6-2.4-0.9-3.1-1.2c-0.5-0.2-1-0.7-1.3-1h-0.3c0,0.8,0,2.6,0,4c0,1.9,0.4,3.6,1.5,4.2c1.1,0.6,2.2,0.8,2.9,1.2
		c0.8,0.4,1.3,1.2,1.3,1.1C122.6,10.8,123.1,8.4,123.1,6.6z M133.3,1.8c0-0.5,0-1.1,0-1.7h-4.9c-1,0.7-1.4,2.3-1.4,4.1
		c0,1.8,0.5,4.2,0.5,4.1c0,0.1,0.5-0.8,1.3-1.1c0.8-0.4,1.8-0.6,2.9-1.2C132.8,5.4,133.3,3.7,133.3,1.8z M140.3,4.3
		c0-1.8-0.4-3.4-1.4-4.1h-4.9c0,0.6,0,1.2,0,1.7c0,1.9,0.4,3.6,1.5,4.2c1.1,0.6,2.2,0.8,2.9,1.2c0.8,0.4,1.3,1.2,1.3,1.1
		C139.9,8.5,140.3,6.1,140.3,4.3z M123,0.1h-4.4c1.1,0.6,2.1,0.7,2.8,1.1c0.8,0.3,1.3,1.2,1.3,1.1C122.6,2.4,122.8,1.4,123,0.1z
		 M37.7,40c0-1.9-0.4-3.6-1.5-4.2c-1.1-0.6-2.4-0.9-3.1-1.2c-0.8-0.4-1.6-1.4-1.6-1.4c0,0,0,2.5,0,4.4c0,1.9,0.4,3.6,1.5,4.2
		c1.1,0.6,2.6,0.4,2.9,1.2c0.5,1,0.6,24.6,0.6,24.6s0.9-7.2,0.9-18.1C37.5,47.3,37.7,41.7,37.7,40z M116,4.2c0-1.4,0-3.3,0-4h-0.3
		c-0.3,0.3-0.8,0.8-1.3,1c-0.8,0.3-2,0.6-3.1,1.2c-1.1,0.6-1.6,2.3-1.5,4.2c0,1.8,0.5,4.2,0.5,4.1c0,0.1,0.5-0.8,1.3-1.1
		c0.8-0.4,1.8-0.6,2.9-1.2C115.6,7.8,116,6.1,116,4.2z M145.1,1.3c0.7-0.4,1.7-0.6,2.8-1.1h-4.4c0.1,1.2,0.4,2.3,0.3,2.2
		C143.9,2.5,144.4,1.6,145.1,1.3z M166.9,1.8c0-0.5,0-1.1,0-1.7H162c-1,0.7-1.4,2.3-1.4,4.1c0,1.8,0.5,4.2,0.5,4.1
		c0,0.1,0.5-0.8,1.3-1.1c0.8-0.4,1.8-0.6,2.9-1.2C166.5,5.4,166.9,3.7,166.9,1.8z M174,4.3c0-1.8-0.4-3.4-1.4-4.1h-4.9
		c0,0.6,0,1.2,0,1.7c0,1.9,0.4,3.6,1.5,4.2c1.1,0.6,2.2,0.8,2.9,1.2c0.8,0.4,1.3,1.2,1.3,1.1C173.5,8.5,173.9,6.1,174,4.3z
		 M156.6,0.1h-4.4c1.1,0.6,2.1,0.7,2.8,1.1c0.8,0.3,1.3,1.2,1.3,1.1C156.2,2.4,156.4,1.4,156.6,0.1z M149.6,4.2c0-1.4,0-3.3,0-4
		h-0.3c-0.3,0.3-0.8,0.8-1.3,1c-0.8,0.3-2,0.6-3.1,1.2c-1.1,0.6-1.6,2.3-1.5,4.2c0,1.8,0.5,4.2,0.5,4.1c0,0.1,0.5-0.8,1.3-1.1
		c0.8-0.4,1.8-0.6,2.9-1.2C149.2,7.8,149.6,6.1,149.6,4.2z M111.5,1.3c0.7-0.4,1.7-0.6,2.8-1.1h-4.4c0.1,1.2,0.4,2.3,0.3,2.2
		C110.3,2.5,110.7,1.6,111.5,1.3z M13.8,30.7c0,0-0.5,0.8-1.1,1.2c-0.9,0.6-2,1-2,2.9c0,2.4,2.3,6.7,2.4,8.7
		c0,0.4,0.4,22.1,0.4,22.6c0,0.7,0.2,5.1,0.2,5.1s0.2-4.4,0.2-5.1c0-0.5,0.4-22.1,0.5-22.6c0.1-2.1,2.5-6.4,2.4-8.7
		c0-1.9-1.1-2.4-2-2.9C14.3,31.5,13.8,30.7,13.8,30.7z M30.6,29.2c0-1.8,0-4.4,0-4.4c0,0-0.7,1-1.6,1.4c-0.8,0.3-2,0.6-3.1,1.2
		c-1.1,0.6-1.6,2.3-1.5,4.2c0,1.8,0.5,4.2,0.5,4.1c0,0.1,0.5-0.8,1.3-1.1c0.8-0.4,1.8-0.6,2.9-1.2C30.2,32.8,30.6,31.1,30.6,29.2z
		 M30.6,37.6c0-1.8,0-4.4,0-4.4c0,0-0.7,1-1.6,1.4c-0.8,0.3-2,0.6-3.1,1.2c-1.1,0.6-1.6,2.3-1.5,4.2c0,1.7,0.2,7.3,0.2,9.6
		c0,10.8,0.9,18.1,0.9,18.1s0.2-23.6,0.6-24.6c0.3-0.8,1.8-0.6,2.9-1.2C30.2,41.2,30.7,39.5,30.6,37.6z M30.6,20.9
		c0-1.8,0-4.4,0-4.4c0,0-0.7,1-1.6,1.4c-0.8,0.3-2,0.6-3.1,1.2c-1.1,0.6-1.6,2.3-1.5,4.2c0,1.8,0.5,4.2,0.5,4.1
		c0,0.1,0.5-0.8,1.3-1.1c0.8-0.4,1.8-0.6,2.9-1.2C30.2,24.5,30.6,22.8,30.6,20.9z M30.6,12.5c0-1.8,0-4.4,0-4.4c0,0-0.7,1-1.6,1.4
		c-0.8,0.3-2,0.6-3.1,1.2c-1.1,0.6-1.6,2.3-1.5,4.2c0,1.8,0.5,4.2,0.5,4.1c0,0.1,0.5-0.8,1.3-1.1c0.8-0.4,1.8-0.6,2.9-1.2
		C30.2,16.1,30.6,14.4,30.6,12.5z M13.3,26.9c0-1.8,0-4.4,0-4.4c0,0-0.7,1-1.6,1.4c-0.8,0.3-2,0.6-3.1,1.2c-1.1,0.6-1.6,2.3-1.5,4.2
		c0,1.7,0.2,7.3,0.2,9.6c0,10.8,0.9,32.5,0.9,32.5s0.2-38,0.6-39c0.3-0.8,1.8-0.6,2.9-1.2C12.9,30.5,13.4,28.8,13.3,26.9z M31,41.4
		c0,0-0.5,0.8-1.1,1.2c-0.9,0.6-2,1-2,2.9c0,2.4,2.3,6.7,2.4,8.7c0,0.4,0.4,7.7,0.4,8.2c0,0.7,0.2,5.1,0.2,5.1s0.2-4.4,0.2-5.1
		c0-0.5,0.4-7.7,0.5-8.2c0.1-2.1,2.5-6.4,2.4-8.7c0-1.9-1.1-2.4-2-2.9C31.5,42.2,31,41.4,31,41.4z M13.3,18.5c0-1.8,0-4.4,0-4.4
		c0,0-0.7,1-1.6,1.4c-0.8,0.3-2,0.6-3.1,1.2C7.5,17.4,7.1,19,7.1,21c0,1.8,0.5,4.2,0.5,4.1c0,0.1,0.5-0.8,1.3-1.1
		c0.8-0.4,1.8-0.6,2.9-1.2C12.9,22.1,13.4,20.4,13.3,18.5z M13.3,10.2c0-1.8,0-4.4,0-4.4c0,0-0.7,1-1.6,1.4c-0.8,0.3-2,0.6-3.1,1.2
		C7.5,9,7.1,10.7,7.1,12.6c0,1.8,0.5,4.2,0.5,4.1c0,0.1,0.5-0.8,1.3-1.1c0.8-0.4,1.8-0.6,2.9-1.2C12.9,13.8,13.4,12.1,13.3,10.2z
		 M20.4,21c0-1.9-0.4-3.6-1.5-4.2c-1.1-0.6-2.4-0.9-3.1-1.2c-0.8-0.4-1.6-1.4-1.6-1.4c0,0,0,2.5,0,4.4c0,1.9,0.4,3.6,1.5,4.2
		c1.1,0.6,2.2,0.8,2.9,1.2c0.8,0.4,1.3,1.2,1.3,1.1C19.9,25.2,20.4,22.8,20.4,21z M20.4,29.3c0-1.9-0.4-3.6-1.5-4.2
		c-1.1-0.6-2.4-0.9-3.1-1.2c-0.8-0.4-1.6-1.4-1.6-1.4c0,0,0,2.5,0,4.4c0,1.9,0.4,3.6,1.5,4.2c1.1,0.6,2.6,0.4,2.9,1.2
		c0.5,1,0.6,39,0.6,39s0.9-21.6,0.9-32.5C20.2,36.6,20.4,31,20.4,29.3z M20.4,12.6c0-1.9-0.4-3.6-1.5-4.2c-1.1-0.6-2.4-0.9-3.1-1.2
		c-0.8-0.4-1.6-1.4-1.6-1.4c0,0,0,2.5,0,4.4c0,1.9,0.4,3.6,1.5,4.2c1.1,0.6,2.2,0.8,2.9,1.2c0.8,0.4,1.3,1.2,1.3,1.1
		C19.9,16.8,20.4,14.4,20.4,12.6z"/>
	
		<linearGradient id="SVGID_00000071553654217414279150000009875927283877552789_" gradientUnits="userSpaceOnUse" x1="-362.3616" y1="-208.0872" x2="-362.3616" y2="-292.5798" gradientTransform="matrix(-1 0 0 -1 -272.2433 -112.4324)">
		<stop  offset="7.007695e-03" style="stop-color:#007DB4"/>
		<stop  offset="0.2709" style="stop-color:#4CC6E6"/>
		<stop  offset="0.3686" style="stop-color:#53C7E5"/>
		<stop  offset="0.5062" style="stop-color:#65CAE4"/>
		<stop  offset="0.6675" style="stop-color:#83D0E2"/>
		<stop  offset="0.8452" style="stop-color:#ADD7DE"/>
		<stop  offset="1" style="stop-color:#D7DEDB"/>
	</linearGradient>
	<path style="fill:url(#SVGID_00000071553654217414279150000009875927283877552789_);" d="M74.8,151c0,1.9,0.4,3.6,1.5,4.2
		c1.1,0.6,2.4,0.9,3.1,1.2c0.8,0.4,1.6,1.4,1.6,1.4c0,0,0-2.5,0-4.4c0-1.9-0.4-3.6-1.5-4.2c-1.1-0.6-2.6-0.4-2.9-1.2
		c-0.5-1-0.6-36.4-0.6-36.4s-0.9,19-0.9,29.8C75,143.7,74.8,149.3,74.8,151z M74.8,167.7c0,1.9,0.4,3.6,1.5,4.2
		c1.1,0.6,2.4,0.9,3.1,1.2c0.8,0.4,1.6,1.4,1.6,1.4c0,0,0-2.5,0-4.4c0-1.9-0.4-3.6-1.5-4.2c-1.1-0.6-2.2-0.8-2.9-1.2
		c-0.8-0.4-1.3-1.2-1.3-1.1C75.3,163.5,74.8,165.8,74.8,167.7z M74.8,159.3c0,1.9,0.4,3.6,1.5,4.2c1.1,0.6,2.4,0.9,3.1,1.2
		c0.8,0.4,1.6,1.4,1.6,1.4c0,0,0-2.5,0-4.4c0-1.9-0.4-3.6-1.5-4.2c-1.1-0.6-2.2-0.8-2.9-1.2c-0.8-0.4-1.3-1.2-1.3-1.1
		C75.3,155.1,74.8,157.5,74.8,159.3z M64.6,142.7c0,1.8,0,4.4,0,4.4c0,0,0.7-1,1.6-1.4c0.8-0.3,2-0.6,3.1-1.2
		c1.1-0.6,1.6-2.3,1.5-4.2c0-1.7-0.2-7.3-0.2-9.6c0-10.8-0.9-31.1-0.9-31.1s-0.2,36.6-0.6,37.7c-0.3,0.8-1.8,0.6-2.9,1.2
		C65.1,139.1,64.6,140.8,64.6,142.7z M64.2,138.9c0,0,0.5-0.8,1.1-1.2c0.9-0.6,2-1,2-2.9c0-2.4-2.3-6.7-2.4-8.7
		c0-0.4-0.4-20.8-0.5-21.3c0-0.7-0.2-5.1-0.2-5.1s-0.2,4.4-0.2,5.1c0,0.5-0.4,20.8-0.5,21.3c-0.1,2.1-2.5,6.4-2.4,8.7
		c0,1.9,1.1,2.4,2,2.9C63.7,138.1,64.2,138.9,64.2,138.9z M92.1,167.7c0,1.9,0.4,3.6,1.5,4.2c1.1,0.6,2.4,0.9,3.1,1.2
		c0.8,0.4,1.6,1.4,1.6,1.4c0,0,0-2.5,0-4.4c0-1.9-0.4-3.6-1.5-4.2c-1.1-0.6-2.2-0.8-2.9-1.2c-0.8-0.4-1.3-1.2-1.3-1.1
		C92.6,163.5,92.1,165.8,92.1,167.7z M92.1,159.3c0,1.9,0.4,3.6,1.5,4.2c1.1,0.6,2.4,0.9,3.1,1.2c0.8,0.4,1.6,1.4,1.6,1.4
		c0,0,0-2.5,0-4.4c0-1.9-0.4-3.6-1.5-4.2c-1.1-0.6-2.2-0.8-2.9-1.2c-0.8-0.4-1.3-1.2-1.3-1.1C92.6,155.1,92.1,157.5,92.1,159.3z
		 M81.5,149.6c0,0,0.5-0.8,1.1-1.2c0.9-0.6,2-1,2-2.9c0-2.4-2.3-6.7-2.4-8.7c0-0.4-0.4-19.5-0.4-20c0-0.7-0.2-5.1-0.2-5.1
		s-0.2,4.4-0.2,5.1c0,0.5-0.4,19.5-0.5,20c-0.1,2.1-2.5,6.4-2.4,8.7c0,1.9,1.1,2.4,2,2.9C81,148.8,81.5,149.6,81.5,149.6z
		 M81.9,153.4c0,1.8,0,4.4,0,4.4c0,0,0.7-1,1.6-1.4c0.8-0.3,2-0.6,3.1-1.2c1.1-0.6,1.6-2.3,1.5-4.2c0-1.7-0.2-7.3-0.2-9.6
		c0-10.8-0.9-29.8-0.9-29.8s-0.2,35.3-0.6,36.4c-0.3,0.8-1.8,0.6-2.9,1.2C82.3,149.8,81.9,151.5,81.9,153.4z M81.9,170.1
		c0,1.8,0,4.4,0,4.4c0,0,0.7-1,1.6-1.4c0.8-0.3,2-0.6,3.1-1.2c1.1-0.6,1.6-2.3,1.5-4.2c0-1.8-0.5-4.2-0.5-4.1c0-0.1-0.5,0.8-1.3,1.1
		c-0.8,0.4-1.8,0.6-2.9,1.2C82.3,166.5,81.9,168.2,81.9,170.1z M81.9,161.8c0,1.8,0,4.4,0,4.4c0,0,0.7-1,1.6-1.4
		c0.8-0.3,2-0.6,3.1-1.2c1.1-0.6,1.6-2.3,1.5-4.2c0-1.8-0.5-4.2-0.5-4.1c0-0.1-0.5,0.8-1.3,1.1c-0.8,0.4-1.8,0.6-2.9,1.2
		C82.3,158.2,81.9,159.8,81.9,161.8z M64.6,151.1c0,1.8,0,4.4,0,4.4c0,0,0.7-1,1.6-1.4c0.8-0.3,2-0.6,3.1-1.2
		c1.1-0.6,1.6-2.3,1.5-4.2c0-1.8-0.5-4.2-0.5-4.1c0-0.1-0.5,0.8-1.3,1.1c-0.8,0.4-1.8,0.6-2.9,1.2C65.1,147.5,64.6,149.2,64.6,151.1
		z M47.4,170.1c0,1.8,0,4.4,0,4.4c0,0,0.7-1,1.6-1.4c0.8-0.3,2-0.6,3.1-1.2c1.1-0.6,1.6-2.3,1.6-4.2c0-1.8-0.5-4.2-0.5-4.1
		c0-0.1-0.5,0.8-1.3,1.1c-0.8,0.4-1.8,0.6-2.9,1.2C47.8,166.5,47.4,168.2,47.4,170.1z M40.3,167.7c0,1.9,0.4,3.6,1.5,4.2
		c1.1,0.6,2.4,0.9,3.1,1.2c0.8,0.4,1.6,1.4,1.6,1.4c0,0,0-2.5,0-4.4c0-1.9-0.4-3.6-1.5-4.2c-1.1-0.6-2.2-0.8-2.9-1.2
		c-0.8-0.4-1.3-1.2-1.3-1.1C40.8,163.5,40.3,165.8,40.3,167.7z M47.4,153.4c0,1.8,0,4.4,0,4.4c0,0,0.7-1,1.6-1.4
		c0.8-0.3,2-0.6,3.1-1.2c1.1-0.6,1.6-2.3,1.6-4.2c0-1.7-0.2-7.3-0.2-9.6c0-10.8-0.9-29.8-0.9-29.8s-0.2,35.3-0.6,36.4
		c-0.3,0.8-1.8,0.6-2.9,1.2C47.8,149.8,47.4,151.5,47.4,153.4z M40.3,159.3c0,1.9,0.4,3.6,1.5,4.2c1.1,0.6,2.4,0.9,3.1,1.2
		c0.8,0.4,1.6,1.4,1.6,1.4c0,0,0-2.5,0-4.4c0-1.9-0.4-3.6-1.5-4.2c-1.1-0.6-2.2-0.8-2.9-1.2c-0.8-0.4-1.3-1.2-1.3-1.1
		C40.8,155.1,40.3,157.5,40.3,159.3z M47,149.6c0,0,0.5-0.8,1.1-1.2c0.9-0.6,2-1,2-2.9c0-2.4-2.3-6.7-2.4-8.7c0-0.4-0.4-19.5-0.5-20
		c0-0.7-0.2-5.1-0.2-5.1s-0.2,4.4-0.2,5.1c0,0.5-0.4,19.5-0.5,20c-0.1,2.1-2.5,6.4-2.4,8.7c0,1.9,1.1,2.4,2,2.9
		C46.5,148.8,47,149.6,47,149.6z M40.3,151c0,1.9,0.4,3.6,1.5,4.2c1.1,0.6,2.4,0.9,3.1,1.2c0.8,0.4,1.6,1.4,1.6,1.4c0,0,0-2.5,0-4.4
		c0-1.9-0.4-3.6-1.5-4.2c-1.1-0.6-2.6-0.4-2.9-1.2c-0.5-1-0.6-36.4-0.6-36.4s-0.9,19-0.9,29.8C40.5,143.7,40.3,149.3,40.3,151z
		 M57.5,157c0,1.9,0.4,3.6,1.5,4.2c1.1,0.6,2.4,0.9,3.1,1.2c0.8,0.4,1.6,1.4,1.6,1.4c0,0,0-2.5,0-4.4c0-1.9-0.4-3.6-1.5-4.2
		c-1.1-0.6-2.2-0.8-2.9-1.2c-0.8-0.4-1.3-1.2-1.3-1.1C58,152.8,57.6,155.2,57.5,157z M57.5,140.3c0,1.9,0.4,3.6,1.5,4.2
		c1.1,0.6,2.4,0.9,3.1,1.2c0.8,0.4,1.6,1.4,1.6,1.4c0,0,0-2.5,0-4.4c0-1.9-0.4-3.6-1.5-4.2c-1.1-0.6-2.6-0.4-2.9-1.2
		c-0.5-1-0.6-37.7-0.6-37.7s-0.9,20.3-0.9,31.1C57.8,133,57.5,138.6,57.5,140.3z M64.6,167.8c0,1.8,0,4.4,0,4.4c0,0,0.7-1,1.6-1.4
		c0.8-0.3,2-0.6,3.1-1.2c1.1-0.6,1.6-2.3,1.5-4.2c0-1.8-0.5-4.2-0.5-4.1c0-0.1-0.5,0.8-1.3,1.1c-0.8,0.4-1.8,0.6-2.9,1.2
		C65.1,164.2,64.6,165.9,64.6,167.8z M64.6,159.4c0,1.8,0,4.4,0,4.4c0,0,0.7-1,1.6-1.4c0.8-0.3,2-0.6,3.1-1.2
		c1.1-0.6,1.6-2.3,1.5-4.2c0-1.8-0.5-4.2-0.5-4.1c0-0.1-0.5,0.8-1.3,1.1c-0.8,0.4-1.8,0.6-2.9,1.2C65.1,155.8,64.6,157.5,64.6,159.4
		z M57.5,148.6c0,1.9,0.4,3.6,1.5,4.2c1.1,0.6,2.4,0.9,3.1,1.2c0.8,0.4,1.6,1.4,1.6,1.4c0,0,0-2.5,0-4.4c0-1.9-0.4-3.6-1.5-4.2
		c-1.1-0.6-2.2-0.8-2.9-1.2c-0.8-0.4-1.3-1.2-1.3-1.1C58,144.4,57.6,146.8,57.5,148.6z M57.5,165.3c0,1.9,0.4,3.6,1.5,4.2
		c1.1,0.6,2.4,0.9,3.1,1.2c0.8,0.4,1.6,1.4,1.6,1.4c0,0,0-2.5,0-4.4c0-1.9-0.4-3.6-1.5-4.2c-1.1-0.6-2.2-0.8-2.9-1.2
		c-0.8-0.4-1.3-1.2-1.3-1.1C58,161.1,57.6,163.5,57.5,165.3z M47.4,161.8c0,1.8,0,4.4,0,4.4c0,0,0.7-1,1.6-1.4
		c0.8-0.3,2-0.6,3.1-1.2c1.1-0.6,1.6-2.3,1.6-4.2c0-1.8-0.5-4.2-0.5-4.1c0-0.1-0.5,0.8-1.3,1.1c-0.8,0.4-1.8,0.6-2.9,1.2
		C47.8,158.2,47.4,159.8,47.4,161.8z M125.7,151c0,1.9,0.4,3.6,1.5,4.2c1.1,0.6,2.4,0.9,3.1,1.2c0.8,0.4,1.6,1.4,1.6,1.4
		c0,0,0-2.5,0-4.4c0-1.9-0.4-3.6-1.5-4.2c-1.1-0.6-2.6-0.4-2.9-1.2c-0.5-1-0.6-36.4-0.6-36.4s-0.9,19-0.9,29.8
		C125.9,143.7,125.7,149.3,125.7,151z M142.9,148.6c0,1.9,0.4,3.6,1.5,4.2c1.1,0.6,2.4,0.9,3.1,1.2c0.8,0.4,1.6,1.4,1.6,1.4
		c0,0,0-2.5,0-4.4c0-1.9-0.4-3.6-1.5-4.2c-1.1-0.6-2.2-0.8-2.9-1.2c-0.8-0.4-1.3-1.2-1.3-1.1C143.4,144.4,143,146.8,142.9,148.6z
		 M116,138.9c0,0,0.5-0.8,1.1-1.2c0.9-0.6,2-1,2-2.9c0-2.4-2.3-6.7-2.4-8.7c0-0.4-0.4-23.4-0.4-23.9c0-0.7-0.2-5.1-0.2-5.1
		s-0.2,4.4-0.2,5.1c0,0.5-0.4,23.4-0.5,23.9c-0.1,2.1-2.5,6.4-2.4,8.7c0,1.9,1.1,2.4,2,2.9C115.5,138.1,116,138.9,116,138.9z
		 M125.7,167.7c0,1.9,0.4,3.6,1.5,4.2c1.1,0.6,2.4,0.9,3.1,1.2c0.8,0.4,1.6,1.4,1.6,1.4c0,0,0-2.5,0-4.4c0-1.9-0.4-3.6-1.5-4.2
		c-1.1-0.6-2.2-0.8-2.9-1.2c-0.8-0.4-1.3-1.2-1.3-1.1C126.2,163.5,125.7,165.8,125.7,167.7z M132.8,170.1c0,1.8,0,4.4,0,4.4
		c0,0,0.7-1,1.6-1.4c0.8-0.3,2-0.6,3.1-1.2c1.1-0.6,1.6-2.3,1.5-4.2c0-1.8-0.5-4.2-0.5-4.1c0-0.1-0.5,0.8-1.3,1.1
		c-0.8,0.4-1.8,0.6-2.9,1.2C133.2,166.5,132.8,168.2,132.8,170.1z M92.1,151c0,1.9,0.4,3.6,1.5,4.2c1.1,0.6,2.4,0.9,3.1,1.2
		c0.8,0.4,1.6,1.4,1.6,1.4c0,0,0-2.5,0-4.4c0-1.9-0.4-3.6-1.5-4.2c-1.1-0.6-2.6-0.4-2.9-1.2c-0.5-1-0.6-29.8-0.6-29.8
		s-0.9,12.5-0.9,23.3C92.3,143.7,92.1,149.3,92.1,151z M142.9,157c0,1.9,0.4,3.6,1.5,4.2c1.1,0.6,2.4,0.9,3.1,1.2
		c0.8,0.4,1.6,1.4,1.6,1.4c0,0,0-2.5,0-4.4c0-1.9-0.4-3.6-1.5-4.2c-1.1-0.6-2.2-0.8-2.9-1.2c-0.8-0.4-1.3-1.2-1.3-1.1
		C143.4,152.8,143,155.2,142.9,157z M142.9,165.3c0,1.9,0.4,3.6,1.5,4.2c1.1,0.6,2.4,0.9,3.1,1.2c0.8,0.4,1.6,1.4,1.6,1.4
		c0,0,0-2.5,0-4.4c0-1.9-0.4-3.6-1.5-4.2c-1.1-0.6-2.2-0.8-2.9-1.2c-0.8-0.4-1.3-1.2-1.3-1.1C143.4,161.1,143,163.5,142.9,165.3z
		 M132.8,161.8c0,1.8,0,4.4,0,4.4c0,0,0.7-1,1.6-1.4c0.8-0.3,2-0.6,3.1-1.2c1.1-0.6,1.6-2.3,1.5-4.2c0-1.8-0.5-4.2-0.5-4.1
		c0-0.1-0.5,0.8-1.3,1.1c-0.8,0.4-1.8,0.6-2.9,1.2C133.2,158.2,132.8,159.8,132.8,161.8z M116.4,142.7c0,1.8,0,4.4,0,4.4
		c0,0,0.7-1,1.6-1.4c0.8-0.3,2-0.6,3.1-1.2c1.1-0.6,1.6-2.3,1.5-4.2c0-1.7-0.2-7.3-0.2-9.6c0-10.8-0.9-33.8-0.9-33.8
		s-0.2,39.3-0.6,40.3c-0.3,0.8-1.8,0.6-2.9,1.2C116.8,139.1,116.4,140.8,116.4,142.7z M132.8,153.4c0,1.8,0,4.4,0,4.4
		c0,0,0.7-1,1.6-1.4c0.8-0.3,2-0.6,3.1-1.2c1.1-0.6,1.6-2.3,1.5-4.2c0-1.7-0.2-7.3-0.2-9.6c0-10.8-0.9-29.8-0.9-29.8
		s-0.2,35.3-0.6,36.4c-0.3,0.8-1.8,0.6-2.9,1.2C133.2,149.8,132.8,151.5,132.8,153.4z M132.4,149.6c0,0,0.5-0.8,1.1-1.2
		c0.9-0.6,2-1,2-2.9c0-2.4-2.3-6.7-2.4-8.7c0-0.4-0.4-19.5-0.4-20c0-0.7-0.2-5.1-0.2-5.1s-0.2,4.4-0.2,5.1c0,0.5-0.4,19.5-0.5,20
		c-0.1,2.1-2.5,6.4-2.4,8.7c0,1.9,1.1,2.4,2,2.9C131.9,148.8,132.4,149.6,132.4,149.6z M99.2,153.4c0,1.8,0,4.4,0,4.4
		c0,0,0.7-1,1.6-1.4c0.8-0.3,2-0.6,3.1-1.2c1.1-0.6,1.6-2.3,1.5-4.2c0-1.7-0.2-7.3-0.2-9.6c0-10.8-0.9-23.3-0.9-23.3
		s-0.2,28.8-0.6,29.8c-0.3,0.8-1.8,0.6-2.9,1.2C99.6,149.8,99.1,151.5,99.2,153.4z M98.7,149.6c0,0,0.5-0.8,1.1-1.2
		c0.9-0.6,2-1,2-2.9c0-2.4-2.3-6.7-2.4-8.7c0-0.4-0.4-13-0.4-13.4c0-0.7-0.2-5.1-0.2-5.1s-0.2,4.4-0.2,5.1c0,0.5-0.4,13-0.5,13.4
		c-0.1,2.1-2.5,6.4-2.4,8.7c0,1.9,1.1,2.4,2,2.9C98.3,148.8,98.7,149.6,98.7,149.6z M99.2,161.8c0,1.8,0,4.4,0,4.4
		c0,0,0.7-1,1.6-1.4c0.8-0.3,2-0.6,3.1-1.2c1.1-0.6,1.6-2.3,1.5-4.2c0-1.8-0.5-4.2-0.5-4.1c0-0.1-0.5,0.8-1.3,1.1
		c-0.8,0.4-1.8,0.6-2.9,1.2C99.6,158.2,99.2,159.8,99.2,161.8z M99.2,170.1c0,1.8,0,4.4,0,4.4c0,0,0.7-1,1.6-1.4
		c0.8-0.3,2-0.6,3.1-1.2c1.1-0.6,1.6-2.3,1.5-4.2c0-1.8-0.5-4.2-0.5-4.1c0-0.1-0.5,0.8-1.3,1.1c-0.8,0.4-1.8,0.6-2.9,1.2
		C99.6,166.5,99.2,168.2,99.2,170.1z M109.3,165.3c0,1.9,0.4,3.6,1.5,4.2c1.1,0.6,2.4,0.9,3.1,1.2c0.8,0.4,1.6,1.4,1.6,1.4
		c0,0,0-2.5,0-4.4c0-1.9-0.4-3.6-1.5-4.2c-1.1-0.6-2.2-0.8-2.9-1.2c-0.8-0.4-1.3-1.2-1.3-1.1C109.8,161.1,109.3,163.5,109.3,165.3z
		 M109.3,140.3c0,1.9,0.4,3.6,1.5,4.2c1.1,0.6,2.4,0.9,3.1,1.2c0.8,0.4,1.6,1.4,1.6,1.4c0,0,0-2.5,0-4.4c0-1.9-0.4-3.6-1.5-4.2
		c-1.1-0.6-2.6-0.4-2.9-1.2c-0.5-1-0.6-40.3-0.6-40.3s-0.9,22.9-0.9,33.8C109.6,133,109.3,138.6,109.3,140.3z M116.4,159.4
		c0,1.8,0,4.4,0,4.4c0,0,0.7-1,1.6-1.4c0.8-0.3,2-0.6,3.1-1.2c1.1-0.6,1.6-2.3,1.5-4.2c0-1.8-0.5-4.2-0.5-4.1c0-0.1-0.5,0.8-1.3,1.1
		c-0.8,0.4-1.8,0.6-2.9,1.2C116.8,155.8,116.4,157.5,116.4,159.4z M116.4,167.8c0,1.8,0,4.4,0,4.4c0,0,0.7-1,1.6-1.4
		c0.8-0.3,2-0.6,3.1-1.2c1.1-0.6,1.6-2.3,1.5-4.2c0-1.8-0.5-4.2-0.5-4.1c0-0.1-0.5,0.8-1.3,1.1c-0.8,0.4-1.8,0.6-2.9,1.2
		C116.8,164.2,116.4,165.9,116.4,167.8z M109.3,148.6c0,1.9,0.4,3.6,1.5,4.2c1.1,0.6,2.4,0.9,3.1,1.2c0.8,0.4,1.6,1.4,1.6,1.4
		c0,0,0-2.5,0-4.4c0-1.9-0.4-3.6-1.5-4.2c-1.1-0.6-2.2-0.8-2.9-1.2c-0.8-0.4-1.3-1.2-1.3-1.1C109.8,144.4,109.3,146.8,109.3,148.6z
		 M116.4,151.1c0,1.8,0,4.4,0,4.4c0,0,0.7-1,1.6-1.4c0.8-0.3,2-0.6,3.1-1.2c1.1-0.6,1.6-2.3,1.5-4.2c0-1.8-0.5-4.2-0.5-4.1
		c0-0.1-0.5,0.8-1.3,1.1c-0.8,0.4-1.8,0.6-2.9,1.2C116.8,147.5,116.4,149.2,116.4,151.1z M109.3,157c0,1.9,0.4,3.6,1.5,4.2
		c1.1,0.6,2.4,0.9,3.1,1.2c0.8,0.4,1.6,1.4,1.6,1.4c0,0,0-2.5,0-4.4c0-1.9-0.4-3.6-1.5-4.2c-1.1-0.6-2.2-0.8-2.9-1.2
		c-0.8-0.4-1.3-1.2-1.3-1.1C109.8,152.8,109.3,155.2,109.3,157z M125.7,159.3c0,1.9,0.4,3.6,1.5,4.2c1.1,0.6,2.4,0.9,3.1,1.2
		c0.8,0.4,1.6,1.4,1.6,1.4c0,0,0-2.5,0-4.4c0-1.9-0.4-3.6-1.5-4.2c-1.1-0.6-2.2-0.8-2.9-1.2c-0.8-0.4-1.3-1.2-1.3-1.1
		C126.2,155.1,125.7,157.5,125.7,159.3z M30.6,138.9c0,0,0.5-0.8,1.1-1.2c0.9-0.6,2-1,2-2.9c0-2.4-2.3-6.7-2.4-8.7
		c0-0.4-0.4-24.7-0.4-25.2c0-0.7-0.2-5.1-0.2-5.1s-0.2,4.4-0.2,5.1c0,0.5-0.4,24.8-0.5,25.2c-0.1,2.1-2.5,6.4-2.4,8.7
		c0,1.9,1.1,2.4,2,2.9C30.1,138.1,30.6,138.9,30.6,138.9z M13.8,161.8c0,1.8,0,4.4,0,4.4c0,0,0.7-1,1.6-1.4c0.8-0.3,2-0.6,3.1-1.2
		c1.1-0.6,1.6-2.3,1.5-4.2c0-1.8-0.5-4.2-0.5-4.1c0-0.1-0.5,0.8-1.3,1.1c-0.8,0.4-1.8,0.6-2.9,1.2C14.2,158.2,13.8,159.8,13.8,161.8
		z M23.9,157c0,1.9,0.4,3.6,1.5,4.2c1.1,0.6,2.4,0.9,3.1,1.2c0.8,0.4,1.6,1.4,1.6,1.4c0,0,0-2.5,0-4.4c0-1.9-0.4-3.6-1.5-4.2
		c-1.1-0.6-2.2-0.8-2.9-1.2c-0.8-0.4-1.3-1.2-1.3-1.1C24.4,152.8,24,155.2,23.9,157z M23.9,165.3c0,1.9,0.4,3.6,1.5,4.2
		c1.1,0.6,2.4,0.9,3.1,1.2c0.8,0.4,1.6,1.4,1.6,1.4c0,0,0-2.5,0-4.4c0-1.9-0.4-3.6-1.5-4.2c-1.1-0.6-2.2-0.8-2.9-1.2
		c-0.8-0.4-1.3-1.2-1.3-1.1C24.4,161.1,24,163.5,23.9,165.3z M13.8,153.4c0,1.8,0,4.4,0,4.4c0,0,0.7-1,1.6-1.4
		c0.8-0.3,2-0.6,3.1-1.2c1.1-0.6,1.6-2.3,1.5-4.2c0-1.7-0.2-7.3-0.2-9.6c0-10.8-0.9-28.5-0.9-28.5s-0.2,34-0.6,35.1
		c-0.3,0.8-1.8,0.6-2.9,1.2C14.2,149.8,13.7,151.5,13.8,153.4z M13.4,149.6c0,0,0.5-0.8,1.1-1.2c0.9-0.6,2-1,2-2.9
		c0-2.4-2.3-6.7-2.4-8.7c0-0.4-0.4-18.2-0.4-18.7c0-0.7-0.2-5.1-0.2-5.1s-0.2,4.4-0.2,5.1c0,0.5-0.4,18.2-0.5,18.7
		c-0.1,2.1-2.5,6.4-2.4,8.7c0,1.9,1.1,2.4,2,2.9C12.9,148.8,13.3,149.6,13.4,149.6z M23.9,148.6c0,1.9,0.4,3.6,1.5,4.2
		c1.1,0.6,2.4,0.9,3.1,1.2c0.8,0.4,1.6,1.4,1.6,1.4c0,0,0-2.5,0-4.4c0-1.9-0.4-3.6-1.5-4.2c-1.1-0.6-2.2-0.8-2.9-1.2
		c-0.8-0.4-1.3-1.2-1.3-1.1C24.4,144.4,24,146.8,23.9,148.6z M31,151.1c0,1.8,0,4.4,0,4.4c0,0,0.7-1,1.6-1.4c0.8-0.3,2-0.6,3.1-1.2
		c1.1-0.6,1.6-2.3,1.5-4.2c0-1.8-0.5-4.2-0.5-4.1c0-0.1-0.5,0.8-1.3,1.1c-0.8,0.4-1.8,0.6-2.9,1.2C31.4,147.5,31,149.2,31,151.1z
		 M31,142.7c0,1.8,0,4.4,0,4.4c0,0,0.7-1,1.6-1.4c0.8-0.3,2-0.6,3.1-1.2c1.1-0.6,1.6-2.3,1.5-4.2c0-1.7-0.2-7.3-0.2-9.6
		c0-10.8-0.9-35.1-0.9-35.1s-0.2,40.6-0.6,41.6c-0.3,0.8-1.8,0.6-2.9,1.2C31.4,139.1,31,140.8,31,142.7z M31,167.8
		c0,1.8,0,4.4,0,4.4c0,0,0.7-1,1.6-1.4c0.8-0.3,2-0.6,3.1-1.2c1.1-0.6,1.6-2.3,1.5-4.2c0-1.8-0.5-4.2-0.5-4.1c0-0.1-0.5,0.8-1.3,1.1
		c-0.8,0.4-1.8,0.6-2.9,1.2C31.4,164.2,31,165.9,31,167.8z M31,159.4c0,1.8,0,4.4,0,4.4c0,0,0.7-1,1.6-1.4c0.8-0.3,2-0.6,3.1-1.2
		c1.1-0.6,1.6-2.3,1.5-4.2c0-1.8-0.5-4.2-0.5-4.1c0-0.1-0.5,0.8-1.3,1.1c-0.8,0.4-1.8,0.6-2.9,1.2C31.4,155.8,31,157.5,31,159.4z
		 M23.9,140.3c0,1.9,0.4,3.6,1.5,4.2c1.1,0.6,2.4,0.9,3.1,1.2c0.8,0.4,1.6,1.4,1.6,1.4c0,0,0-2.5,0-4.4c0-1.9-0.4-3.6-1.5-4.2
		c-1.1-0.6-2.6-0.4-2.9-1.2c-0.5-1-0.6-41.6-0.6-41.6s-0.9,24.2-0.9,35.1C24.2,133,23.9,138.6,23.9,140.3z M6.7,167.7
		c0,1.9,0.4,3.6,1.5,4.2c1.1,0.6,2.4,0.9,3.1,1.2c0.8,0.4,1.6,1.4,1.6,1.4c0,0,0-2.5,0-4.4c0-1.9-0.4-3.6-1.5-4.2
		c-1.1-0.6-2.2-0.8-2.9-1.2c-0.8-0.4-1.3-1.2-1.3-1.1C7.2,163.5,6.7,165.8,6.7,167.7z M6.7,151c0,1.9,0.4,3.6,1.5,4.2
		c1.1,0.6,2.4,0.9,3.1,1.2c0.8,0.4,1.6,1.4,1.6,1.4c0,0,0-2.5,0-4.4c0-1.9-0.4-3.6-1.5-4.2c-1.1-0.6-2.6-0.4-2.9-1.2
		c-0.5-1-0.6-35.1-0.6-35.1s-0.9,17.7-0.9,28.5C6.9,143.7,6.7,149.3,6.7,151z M6.7,159.3c0,1.9,0.4,3.6,1.5,4.2
		c1.1,0.6,2.4,0.9,3.1,1.2c0.8,0.4,1.6,1.4,1.6,1.4c0,0,0-2.5,0-4.4c0-1.9-0.4-3.6-1.5-4.2c-1.1-0.6-2.2-0.8-2.9-1.2
		c-0.8-0.4-1.3-1.2-1.3-1.1C7.2,155.1,6.7,157.5,6.7,159.3z M13.8,170.1c0,1.8,0,4.4,0,4.4c0,0,0.7-1,1.6-1.4c0.8-0.3,2-0.6,3.1-1.2
		c1.1-0.6,1.6-2.3,1.5-4.2c0-1.8-0.5-4.2-0.5-4.1c0-0.1-0.5,0.8-1.3,1.1c-0.8,0.4-1.8,0.6-2.9,1.2C14.2,166.5,13.8,168.2,13.8,170.1
		z M23.9,173.7c0,1.9,0.4,3.6,1.5,4.2c1.1,0.6,2.4,0.9,3.1,1.2c0.5,0.2,1,0.7,1.3,1h0.3c0-0.8,0-2.6,0-4c0-1.9-0.4-3.6-1.5-4.2
		c-1.1-0.6-2.2-0.8-2.9-1.2c-0.8-0.4-1.3-1.2-1.3-1.1C24.4,169.5,24,171.8,23.9,173.7z M125.7,176c0,1.8,0.4,3.4,1.4,4.1h4.9
		c0-0.6,0-1.2,0-1.7c0-1.9-0.4-3.6-1.5-4.2c-1.1-0.6-2.2-0.8-2.9-1.2c-0.8-0.4-1.3-1.2-1.3-1.1C126.2,171.8,125.7,174.2,125.7,176z
		 M116.4,176.1c0,1.4,0,3.3,0,4h0.3c0.3-0.3,0.8-0.8,1.3-1c0.8-0.3,2-0.6,3.1-1.2c1.1-0.6,1.6-2.3,1.5-4.2c0-1.8-0.5-4.2-0.5-4.1
		c0-0.1-0.5,0.8-1.3,1.1c-0.8,0.4-1.8,0.6-2.9,1.2C116.8,172.5,116.4,174.2,116.4,176.1z M120.9,179c-0.7,0.4-1.7,0.6-2.8,1.1h4.4
		c-0.1-1.2-0.4-2.3-0.3-2.2C122.2,177.8,121.7,178.7,120.9,179z M132.8,178.5c0,0.5,0,1.1,0,1.7h4.9c1-0.7,1.4-2.3,1.4-4.1
		c0-1.8-0.5-4.2-0.5-4.1c0-0.1-0.5,0.8-1.3,1.1c-0.8,0.4-1.8,0.6-2.9,1.2C133.2,174.9,132.8,176.5,132.8,178.5z M142.9,173.7
		c0,1.9,0.4,3.6,1.5,4.2c1.1,0.6,2.4,0.9,3.1,1.2c0.5,0.2,1,0.7,1.3,1h0.3c0-0.8,0-2.6,0-4c0-1.9-0.4-3.6-1.5-4.2
		c-1.1-0.6-2.2-0.8-2.9-1.2c-0.8-0.4-1.3-1.2-1.3-1.1C143.4,169.5,143,171.8,142.9,173.7z M143.1,180.1h4.4
		c-1.1-0.6-2.1-0.7-2.8-1.1c-0.8-0.3-1.3-1.2-1.3-1.1C143.4,177.9,143.2,178.9,143.1,180.1z M99.2,178.5c0,0.5,0,1.1,0,1.7h4.9
		c1-0.7,1.4-2.3,1.4-4.1c0-1.8-0.5-4.2-0.5-4.1c0-0.1-0.5,0.8-1.3,1.1c-0.8,0.4-1.8,0.6-2.9,1.2C99.6,174.9,99.2,176.5,99.2,178.5z
		 M81.9,178.5c0,0.5,0,1.1,0,1.7h4.9c1-0.7,1.4-2.3,1.4-4.1c0-1.8-0.5-4.2-0.5-4.1c0-0.1-0.5,0.8-1.3,1.1c-0.8,0.4-1.8,0.6-2.9,1.2
		C82.3,174.9,81.9,176.5,81.9,178.5z M74.8,176c0,1.8,0.4,3.4,1.4,4.1H81c0-0.6,0-1.2,0-1.7c0-1.9-0.4-3.6-1.5-4.2
		c-1.1-0.6-2.2-0.8-2.9-1.2c-0.8-0.4-1.3-1.2-1.3-1.1C75.3,171.8,74.8,174.2,74.8,176z M92.1,176c0,1.8,0.4,3.4,1.4,4.1h4.9
		c0-0.6,0-1.2,0-1.7c0-1.9-0.4-3.6-1.5-4.2c-1.1-0.6-2.2-0.8-2.9-1.2c-0.8-0.4-1.3-1.2-1.3-1.1C92.6,171.8,92.1,174.2,92.1,176z
		 M150,176.1c0,1.4,0,3.3,0,4h0.3c0.3-0.3,0.8-0.8,1.3-1c0.8-0.3,2-0.6,3.1-1.2c1.1-0.6,1.6-2.3,1.5-4.2c0-1.8-0.5-4.2-0.5-4.1
		c0-0.1-0.5,0.8-1.3,1.1c-0.8,0.4-1.8,0.6-2.9,1.2C150.4,172.5,150,174.2,150,176.1z M109.5,180.1h4.4c-1.1-0.6-2.1-0.7-2.8-1.1
		c-0.8-0.3-1.3-1.2-1.3-1.1C109.8,177.9,109.6,178.9,109.5,180.1z M109.3,173.7c0,1.9,0.4,3.6,1.5,4.2c1.1,0.6,2.4,0.9,3.1,1.2
		c0.5,0.2,1,0.7,1.3,1h0.3c0-0.8,0-2.6,0-4c0-1.9-0.4-3.6-1.5-4.2c-1.1-0.6-2.2-0.8-2.9-1.2c-0.8-0.4-1.3-1.2-1.3-1.1
		C109.8,169.5,109.3,171.8,109.3,173.7z M160.2,176c0,1.8,0.4,3.4,1.4,4.1h4.9c0-0.6,0-1.2,0-1.7c0-1.9-0.4-3.6-1.5-4.2
		c-1.1-0.6-2.2-0.8-2.9-1.2c-0.8-0.4-1.3-1.2-1.3-1.1C160.7,171.8,160.2,174.2,160.2,176z M167.3,178.5c0,0.5,0,1.1,0,1.7h4.9
		c1-0.7,1.4-2.3,1.4-4.1c0-1.8-0.5-4.2-0.5-4.1c0-0.1-0.5,0.8-1.3,1.1c-0.8,0.4-1.8,0.6-2.9,1.2
		C167.7,174.9,167.3,176.5,167.3,178.5z M154.5,179c-0.7,0.4-1.7,0.6-2.8,1.1h4.4c-0.1-1.2-0.4-2.3-0.3-2.2
		C155.8,177.8,155.3,178.7,154.5,179z M57.5,173.7c0,1.9,0.4,3.6,1.5,4.2c1.1,0.6,2.4,0.9,3.1,1.2c0.5,0.2,1,0.7,1.3,1h0.3
		c0-0.8,0-2.6,0-4c0-1.9-0.4-3.6-1.5-4.2c-1.1-0.6-2.2-0.8-2.9-1.2c-0.8-0.4-1.3-1.2-1.3-1.1C58,169.5,57.6,171.8,57.5,173.7z
		 M47.4,178.5c0,0.5,0,1.1,0,1.7h4.9c1-0.7,1.4-2.3,1.4-4.1c0-1.8-0.5-4.2-0.5-4.1c0-0.1-0.5,0.8-1.3,1.1c-0.8,0.4-1.8,0.6-2.9,1.2
		C47.8,174.9,47.4,176.5,47.4,178.5z M40.3,176c0,1.8,0.4,3.4,1.4,4.1h4.9c0-0.6,0-1.2,0-1.7c0-1.9-0.4-3.6-1.5-4.2
		c-1.1-0.6-2.2-0.8-2.9-1.2c-0.8-0.4-1.3-1.2-1.3-1.1C40.8,171.8,40.3,174.2,40.3,176z M57.7,180.1h4.4c-1.1-0.6-2.1-0.7-2.8-1.1
		c-0.8-0.3-1.3-1.2-1.3-1.1C58,177.9,57.8,178.9,57.7,180.1z M142.9,140.3c0,1.9,0.4,3.6,1.5,4.2c1.1,0.6,2.4,0.9,3.1,1.2
		c0.8,0.4,1.6,1.4,1.6,1.4c0,0,0-2.5,0-4.4c0-1.9-0.4-3.6-1.5-4.2c-1.1-0.6-2.6-0.4-2.9-1.2c-0.5-1-0.6-35.1-0.6-35.1
		s-0.9,17.7-0.9,28.5C143.2,133,142.9,138.6,142.9,140.3z M64.6,176.1c0,1.4,0,3.3,0,4h0.3c0.3-0.3,0.8-0.8,1.3-1
		c0.8-0.3,2-0.6,3.1-1.2c1.1-0.6,1.6-2.3,1.5-4.2c0-1.8-0.5-4.2-0.5-4.1c0-0.1-0.5,0.8-1.3,1.1c-0.8,0.4-1.8,0.6-2.9,1.2
		C65.1,172.5,64.6,174.2,64.6,176.1z M35.5,179c-0.7,0.4-1.7,0.6-2.8,1.1h4.4c-0.1-1.2-0.4-2.3-0.3-2.2
		C36.8,177.8,36.3,178.7,35.5,179z M13.8,178.5c0,0.5,0,1.1,0,1.7h4.9c1-0.7,1.4-2.3,1.4-4.1c0-1.8-0.5-4.2-0.5-4.1
		c0-0.1-0.5,0.8-1.3,1.1c-0.8,0.4-1.8,0.6-2.9,1.2C14.2,174.9,13.8,176.5,13.8,178.5z M6.7,176c0,1.8,0.4,3.4,1.4,4.1h4.9
		c0-0.6,0-1.2,0-1.7c0-1.9-0.4-3.6-1.5-4.2c-1.1-0.6-2.2-0.8-2.9-1.2c-0.8-0.4-1.3-1.2-1.3-1.1C7.2,171.8,6.7,174.2,6.7,176z
		 M24.1,180.1h4.4c-1.1-0.6-2.1-0.7-2.8-1.1c-0.8-0.3-1.3-1.2-1.3-1.1C24.4,177.9,24.2,178.9,24.1,180.1z M31,176.1c0,1.4,0,3.3,0,4
		h0.3c0.3-0.3,0.8-0.8,1.3-1c0.8-0.3,2-0.6,3.1-1.2c1.1-0.6,1.6-2.3,1.5-4.2c0-1.8-0.5-4.2-0.5-4.1c0-0.1-0.5,0.8-1.3,1.1
		c-0.8,0.4-1.8,0.6-2.9,1.2C31.4,172.5,31,174.2,31,176.1z M69.1,179c-0.7,0.4-1.7,0.6-2.8,1.1h4.4c-0.1-1.2-0.4-2.3-0.3-2.2
		C70.4,177.8,69.9,178.7,69.1,179z M166.9,149.6c0,0,0.5-0.8,1.1-1.2c0.9-0.6,2-1,2-2.9c0-2.4-2.3-6.7-2.4-8.7
		c0-0.4-0.4-20.8-0.4-21.3c0-0.7-0.2-5.1-0.2-5.1s-0.2,4.4-0.2,5.1c0,0.5-0.4,20.8-0.5,21.3c-0.1,2.1-2.5,6.4-2.4,8.7
		c0,1.9,1.1,2.4,2,2.9C166.4,148.8,166.9,149.6,166.9,149.6z M150,151.1c0,1.8,0,4.4,0,4.4c0,0,0.7-1,1.6-1.4c0.8-0.3,2-0.6,3.1-1.2
		c1.1-0.6,1.6-2.3,1.5-4.2c0-1.8-0.5-4.2-0.5-4.1c0-0.1-0.5,0.8-1.3,1.1c-0.8,0.4-1.8,0.6-2.9,1.2C150.4,147.5,150,149.2,150,151.1z
		 M150,142.7c0,1.8,0,4.4,0,4.4c0,0,0.7-1,1.6-1.4c0.8-0.3,2-0.6,3.1-1.2c1.1-0.6,1.6-2.3,1.5-4.2c0-1.7-0.2-7.3-0.2-9.6
		c0-10.8-0.9-28.5-0.9-28.5s-0.2,34-0.6,35.1c-0.3,0.8-1.8,0.6-2.9,1.2C150.4,139.1,150,140.8,150,142.7z M150,159.4
		c0,1.8,0,4.4,0,4.4c0,0,0.7-1,1.6-1.4c0.8-0.3,2-0.6,3.1-1.2c1.1-0.6,1.6-2.3,1.5-4.2c0-1.8-0.5-4.2-0.5-4.1c0-0.1-0.5,0.8-1.3,1.1
		c-0.8,0.4-1.8,0.6-2.9,1.2C150.4,155.8,150,157.5,150,159.4z M150,167.8c0,1.8,0,4.4,0,4.4c0,0,0.7-1,1.6-1.4
		c0.8-0.3,2-0.6,3.1-1.2c1.1-0.6,1.6-2.3,1.5-4.2c0-1.8-0.5-4.2-0.5-4.1c0-0.1-0.5,0.8-1.3,1.1c-0.8,0.4-1.8,0.6-2.9,1.2
		C150.4,164.2,150,165.9,150,167.8z M167.3,153.4c0,1.8,0,4.4,0,4.4c0,0,0.7-1,1.6-1.4c0.8-0.3,2-0.6,3.1-1.2
		c1.1-0.6,1.6-2.3,1.5-4.2c0-1.7-0.2-7.3-0.2-9.6c0-10.8-0.9-31.1-0.9-31.1s-0.2,36.6-0.6,37.7c-0.3,0.8-1.8,0.6-2.9,1.2
		C167.7,149.8,167.3,151.5,167.3,153.4z M149.6,138.9c0,0,0.5-0.8,1.1-1.2c0.9-0.6,2-1,2-2.9c0-2.4-2.3-6.7-2.4-8.7
		c0-0.4-0.4-18.2-0.4-18.7c0-0.7-0.2-5.1-0.2-5.1s-0.2,4.4-0.2,5.1c0,0.5-0.4,18.2-0.5,18.7c-0.1,2.1-2.5,6.4-2.4,8.7
		c0,1.9,1.1,2.4,2,2.9C149.1,138.1,149.6,138.9,149.6,138.9z M167.3,161.8c0,1.8,0,4.4,0,4.4c0,0,0.7-1,1.6-1.4
		c0.8-0.3,2-0.6,3.1-1.2c1.1-0.6,1.6-2.3,1.5-4.2c0-1.8-0.5-4.2-0.5-4.1c0-0.1-0.5,0.8-1.3,1.1c-0.8,0.4-1.8,0.6-2.9,1.2
		C167.7,158.2,167.3,159.8,167.3,161.8z M167.3,170.1c0,1.8,0,4.4,0,4.4c0,0,0.7-1,1.6-1.4c0.8-0.3,2-0.6,3.1-1.2
		c1.1-0.6,1.6-2.3,1.5-4.2c0-1.8-0.5-4.2-0.5-4.1c0-0.1-0.5,0.8-1.3,1.1c-0.8,0.4-1.8,0.6-2.9,1.2
		C167.7,166.5,167.3,168.2,167.3,170.1z M160.2,159.3c0,1.9,0.4,3.6,1.5,4.2c1.1,0.6,2.4,0.9,3.1,1.2c0.8,0.4,1.6,1.4,1.6,1.4
		c0,0,0-2.5,0-4.4c0-1.9-0.4-3.6-1.5-4.2c-1.1-0.6-2.2-0.8-2.9-1.2c-0.8-0.4-1.3-1.2-1.3-1.1C160.7,155.1,160.2,157.5,160.2,159.3z
		 M160.2,151c0,1.9,0.4,3.6,1.5,4.2c1.1,0.6,2.4,0.9,3.1,1.2c0.8,0.4,1.6,1.4,1.6,1.4c0,0,0-2.5,0-4.4c0-1.9-0.4-3.6-1.5-4.2
		c-1.1-0.6-2.6-0.4-2.9-1.2c-0.5-1-0.6-37.7-0.6-37.7s-0.9,20.3-0.9,31.1C160.5,143.7,160.2,149.3,160.2,151z M160.2,167.7
		c0,1.9,0.4,3.6,1.5,4.2c1.1,0.6,2.4,0.9,3.1,1.2c0.8,0.4,1.6,1.4,1.6,1.4c0,0,0-2.5,0-4.4c0-1.9-0.4-3.6-1.5-4.2
		c-1.1-0.6-2.2-0.8-2.9-1.2c-0.8-0.4-1.3-1.2-1.3-1.1C160.7,163.5,160.2,165.8,160.2,167.7z"/>
	<g>
		<path class="st5" d="M37.2,91.8h2.1v0.4H29.2v-0.4h2.1v-9.5H25v9.5h2.1v0.4H17v-0.4h2.1V74.4L16.7,73h10.6L25,74.4v7.4h6.3v-7.4
			L28.9,73h10.6l-2.4,1.4V91.8z"/>
		<path class="st5" d="M52.4,89.8c-1.1,1.7-2.9,2.7-5.4,2.7c-3.8,0-6.9-2.6-6.9-6.8c0-3.9,2.6-7.1,6.9-7.1c2.5,0,4.2,1.5,4.2,3.4
			c0,2.2-1.7,4.2-4.9,5.4c1.5,1.5,3.4,2.5,5.2,2.5C51.8,89.9,52.1,89.9,52.4,89.8L52.4,89.8z M43.4,81.1c0,2.2,1.1,4.5,2.8,6.1
			c0.7-1,1-2,1-3.4c0-2.3-1.6-4.3-2.7-4.3C43.8,79.5,43.4,80.1,43.4,81.1z"/>
		<path class="st5" d="M65.2,73l-0.7,5.2h0L62.3,75c-0.8-1.1-1.6-2.5-2-2.4c-0.3,0.1-0.4,1-0.4,2.7v3.7h3.4v0.4h-3.4v12.2h2.3v0.4
			h-9v-0.4h1.3V80v-0.5h-1.6v-0.4h1.6c0.3-4.9,3-6.9,6.7-6.9C62.5,72.2,64,72.5,65.2,73z"/>
		<path class="st5" d="M76,89.8c-1.1,1.7-2.9,2.7-5.4,2.7c-3.8,0-6.9-2.6-6.9-6.8c0-3.9,2.6-7.1,6.9-7.1c2.5,0,4.2,1.5,4.2,3.4
			c0,2.2-1.7,4.2-4.9,5.4c1.5,1.5,3.4,2.5,5.2,2.5C75.4,89.9,75.7,89.9,76,89.8L76,89.8z M67,81.1c0,2.2,1.1,4.5,2.8,6.1
			c0.7-1,1-2,1-3.4c0-2.3-1.6-4.3-2.7-4.3C67.4,79.5,67,80.1,67,81.1z"/>
		<path class="st5" d="M99.8,79.1L98,80.4l-6.2,12.2h-0.6l-3.6-8.9l-4.5,8.9h-0.7L77,80.4l-1.8-1.3h9.3l-1.8,1.3l2.5,7.2l1.9-5.2
			l-1.1-2.8l5.1-1l2.8,9.1l2.8-7.2l-2.1-1.3H99.8z"/>
		<path class="st5" d="M111.2,89.8c-1.1,1.7-2.9,2.7-5.4,2.7c-3.8,0-6.9-2.6-6.9-6.8c0-3.9,2.6-7.1,6.9-7.1c2.5,0,4.2,1.5,4.2,3.4
			c0,2.2-1.7,4.2-4.9,5.4c1.5,1.5,3.4,2.5,5.2,2.5C110.7,89.9,111,89.9,111.2,89.8L111.2,89.8z M102.3,81.1c0,2.2,1.1,4.5,2.8,6.1
			c0.7-1,1-2,1-3.4c0-2.3-1.6-4.3-2.7-4.3C102.7,79.5,102.3,80.1,102.3,81.1z"/>
		<path class="st5" d="M112,91.8h1.3v-9.8l-1.5-1.3l6.9-2.4v13.5h1.3v0.4h-8V91.8z M113.1,74.9c0-1.8,1.1-3,3-3s3,1.2,3,3
			c0,1.8-1.1,3-3,3S113.1,76.7,113.1,74.9z"/>
		<path class="st5" d="M128.6,79.6h-0.3c-2,0-4.3,1.8-6.3,5.8h0v-6.3h12.3l-7.7,12.7h0.4c2.4,0,5.3-2.6,6.7-5.9h0v6.3h-12.8
			L128.6,79.6z"/>
		<path class="st5" d="M147.6,89.8c-1.1,1.7-2.9,2.7-5.4,2.7c-3.8,0-6.9-2.6-6.9-6.8c0-3.9,2.6-7.1,6.9-7.1c2.5,0,4.2,1.5,4.2,3.4
			c0,2.2-1.7,4.2-4.9,5.4c1.5,1.5,3.4,2.5,5.2,2.5C147.1,89.9,147.3,89.9,147.6,89.8L147.6,89.8z M138.6,81.1c0,2.2,1.1,4.5,2.8,6.1
			c0.7-1,1-2,1-3.4c0-2.3-1.6-4.3-2.7-4.3C139,79.5,138.6,80.1,138.6,81.1z"/>
		<path class="st5" d="M164.9,91.8v0.4h-7.7v-0.4h1.1v-8c0-2.1-0.5-2.8-1.6-2.8c-0.5,0-1.1,0.2-1.6,0.4v10.4h1.1v0.4h-7.8v-0.4h1.3
			v-9.8l-1.5-1.3l6.9-2.4V81c1.7-1.5,3.3-2.5,5.1-2.5c2.3,0,3.4,1.4,3.4,4.1v9.2H164.9z"/>
	</g>
	<g>
		<path class="st5" d="M138.5,97.2L138.5,97.2c-0.5,1.4-1.2,2.6-2.1,3.5h-0.1l-0.3-1.7c-0.3,0.5-0.7,1-1.3,1.7h-0.1l-0.5-2.8
			l-0.5-0.2l0-0.1l0.9-0.5l0,0l0.4,2.8c0.3-0.4,0.6-0.9,0.8-1.4l-0.2-1.3h0.6c0,0,0.3,2.5,0.4,2.7c0.5-0.7,1-1.7,1.1-2.2l-0.4-0.5
			l0,0H138.5z"/>
		<path class="st5" d="M142,100.3c-0.2,0.2-0.6,0.5-1,0.5c-0.3,0-0.5-0.2-0.5-0.6c0-0.1,0-0.3,0.1-0.5l0.3-1.4
			c0.1-0.4,0.1-0.7-0.3-0.7c-0.3,0-0.7,0.2-1,0.5l-0.5,2.6h-0.6l0.9-5.3l-0.5-0.2l0-0.1l1.2-0.5l0,0l-0.6,3.3
			c0.4-0.5,0.9-0.8,1.3-0.8c0.5,0,0.8,0.3,0.6,1l-0.3,1.5c0,0.1,0,0.2,0,0.3c0,0.3,0.2,0.4,0.4,0.4c0.1,0,0.3,0,0.4-0.1L142,100.3z"
			/>
		<path class="st5" d="M144.7,100l0,0.1c-0.4,0.4-0.9,0.6-1.4,0.6c-0.6,0-1-0.4-1-1.2c0-1.3,0.8-2.4,1.8-2.4c0.5,0,0.8,0.3,0.8,0.7
			c0,0.5-0.4,1-1.9,1.4v0.2c0,0.7,0.2,0.9,0.7,0.9C144,100.2,144.4,100.1,144.7,100z M143.1,98.9c0.9-0.3,1.3-0.7,1.3-1.1
			c0-0.2-0.1-0.4-0.3-0.4C143.7,97.4,143.2,97.9,143.1,98.9z"/>
		<path class="st5" d="M148.7,100.3c-0.2,0.2-0.6,0.5-1,0.5c-0.3,0-0.5-0.2-0.5-0.6c0,0,0-0.1,0-0.2c-0.4,0.4-0.8,0.7-1.2,0.7
			c-0.5,0-0.8-0.4-0.8-1.2c0-1.3,0.8-2.5,1.9-2.5c0.2,0,0.5,0.1,0.7,0.2l0.5-0.2h0l-0.4,2.5c0,0.1,0,0.2,0,0.3
			c0,0.3,0.1,0.4,0.4,0.4c0.1,0,0.3,0,0.4-0.1L148.7,100.3z M147.3,99.8l0-0.2l0.3-2c-0.2-0.2-0.4-0.3-0.5-0.3c-0.6,0-1.2,0.9-1.2,2
			c0,0.6,0.2,0.8,0.5,0.8C146.7,100.2,147,100.1,147.3,99.8z"/>
		<path class="st5" d="M149.3,99.7l0.4-2.1h-0.5l0-0.1l0.6-0.2l0.7-1.1h0.1l-0.2,1.1h0.9l-0.1,0.4h-0.9l-0.3,1.8
			c-0.1,0.7,0,0.8,0.3,0.8c0.2,0,0.5-0.1,0.7-0.2l0,0.1c-0.4,0.3-0.9,0.6-1.3,0.6C149.2,100.7,149.2,100.3,149.3,99.7z"/>
		<path class="st5" d="M156.1,98.3c0,1.3-0.8,2.5-1.9,2.5c-0.3,0-0.5-0.1-0.7-0.2l-0.5,0.2h0l0.9-5.3l-0.5-0.2l0-0.1l1.2-0.5l0,0
			c0,0-0.3,1.7-0.6,3.3c0.4-0.5,0.8-0.8,1.2-0.8C155.7,97.1,156.1,97.5,156.1,98.3z M155.4,98.4c0-0.6-0.2-0.8-0.5-0.8
			c-0.3,0-0.6,0.2-0.9,0.5c-0.2,1-0.3,1.7-0.3,2c0.2,0.2,0.4,0.4,0.6,0.4C154.8,100.4,155.4,99.5,155.4,98.4z"/>
		<path class="st5" d="M158.9,100l0,0.1c-0.4,0.4-0.9,0.6-1.4,0.6c-0.6,0-1-0.4-1-1.2c0-1.3,0.8-2.4,1.8-2.4c0.5,0,0.8,0.3,0.8,0.7
			c0,0.5-0.4,1-1.9,1.4v0.2c0,0.7,0.2,0.9,0.7,0.9C158.2,100.2,158.6,100.1,158.9,100z M157.3,98.9c0.9-0.3,1.3-0.7,1.3-1.1
			c0-0.2-0.1-0.4-0.3-0.4C157.8,97.4,157.4,97.9,157.3,98.9z"/>
		<path class="st5" d="M161.8,100l0,0.1c-0.4,0.4-0.9,0.6-1.4,0.6c-0.6,0-1-0.4-1-1.2c0-1.3,0.8-2.4,1.8-2.4c0.5,0,0.8,0.3,0.8,0.7
			c0,0.5-0.4,1-1.9,1.4v0.2c0,0.7,0.2,0.9,0.7,0.9C161.1,100.2,161.5,100.1,161.8,100z M160.2,98.9c0.9-0.3,1.3-0.7,1.3-1.1
			c0-0.2-0.1-0.4-0.3-0.4C160.8,97.4,160.3,97.9,160.2,98.9z"/>
		<path class="st5" d="M164.8,97.1l-0.1,0.8c-0.1,0-0.1,0-0.3,0c-0.3,0-0.6,0.1-0.9,0.3l-0.4,2.5h-0.6l0.5-2.7l-0.5-0.2l0-0.1
			l1.2-0.5l0,0l-0.1,0.8c0.3-0.4,0.7-0.8,1.1-0.8C164.7,97.1,164.8,97.1,164.8,97.1z"/>
	</g>
</g>
</svg>
