<?xml version="1.0" encoding="utf-8"?>
<!-- Generator: Adobe Illustrator 26.0.2, SVG Export Plug-In . SVG Version: 6.00 Build 0)  -->
<svg version="1.1" xmlns="http://www.w3.org/2000/svg" xmlns:xlink="http://www.w3.org/1999/xlink" x="0px" y="0px"
	 viewBox="0 0 180 180" style="enable-background:new 0 0 180 180;" xml:space="preserve">
<style type="text/css">
	.st0{display:none;}
	.st1{display:inline;fill:#F18A00;}
	.st2{display:inline;fill:#490E67;}
	.st3{display:inline;fill:#D9B767;}
	.st4{display:inline;fill:#5B6670;}
	.st5{display:inline;fill:#7A5FA8;}
	.st6{display:inline;fill:#A12B2A;}
	.st7{display:inline;fill:#092628;}
	.st8{display:inline;fill:#003B71;}
	.st9{fill:#7A5FA8;}
	.st10{opacity:0.3;}
	.st11{fill:none;stroke:#D9B767;stroke-width:1.1175;stroke-linecap:round;stroke-miterlimit:10;}
	.st12{fill:#FFFFFF;}
	.st13{fill-rule:evenodd;clip-rule:evenodd;fill:#D9B767;}
	.st14{fill:#000F9F;}
	.st15{fill-rule:evenodd;clip-rule:evenodd;fill:#191F41;}
	.st16{fill:#003B71;}
	.st17{fill-rule:evenodd;clip-rule:evenodd;fill:#D7DEDB;}
	.st18{fill:#231F20;}
	.st19{fill:#D7DEDB;}
	.st20{opacity:0.35;}
	.st21{fill:none;stroke:#000000;stroke-width:0.6113;stroke-linecap:round;stroke-linejoin:round;stroke-miterlimit:10;}
	.st22{fill:none;stroke:#092628;stroke-width:0.6113;stroke-linecap:round;stroke-linejoin:round;stroke-miterlimit:10;}
	.st23{fill:#D9B767;}
	.st24{clip-path:url(#SVGID_00000023985609743665902710000017841178113024522932_);fill:#A2A9AD;}
	.st25{display:none;clip-path:url(#SVGID_00000023985609743665902710000017841178113024522932_);}
	.st26{display:inline;fill:#A7AEB4;}
	.st27{clip-path:url(#SVGID_00000023985609743665902710000017841178113024522932_);}
	.st28{fill:#A2A9AD;}
	.st29{clip-path:url(#SVGID_00000023985609743665902710000017841178113024522932_);fill:#7B868C;}
	.st30{fill:#5B6670;}
	.st31{clip-path:url(#SVGID_00000023985609743665902710000017841178113024522932_);fill:#323E48;}
	.st32{clip-path:url(#SVGID_00000023985609743665902710000017841178113024522932_);fill:#5B6670;}
	.st33{clip-path:url(#SVGID_00000023985609743665902710000017841178113024522932_);fill:#FFFFFF;}
	.st34{clip-path:url(#SVGID_00000023985609743665902710000017841178113024522932_);fill:#1D252C;}
	.st35{clip-path:url(#SVGID_00000023985609743665902710000017841178113024522932_);fill:#E5E5E4;}
	.st36{fill:#201747;}
	.st37{fill:#252832;}
	.st38{fill:#242731;}
	.st39{fill:#84C346;stroke:#84C346;stroke-width:0.7255;stroke-miterlimit:10;}
	.st40{fill:none;}
	.st41{fill:#002B49;}
	.st42{fill:#092628;}
	.st43{fill:#CAD5DA;stroke:#CAD5DA;stroke-width:2.1515;stroke-miterlimit:10;}
	.st44{fill:#6D52A1;}
	.st45{fill:#CAD5DA;}
	.st46{display:inline;}
	.st47{display:inline;clip-path:url(#SVGID_00000067219988967148281350000014832415320394996130_);}
	.st48{fill:url(#SVGID_00000060008027883220069520000018009894491166951595_);}
	.st49{fill:#F9B5C3;}
	.st50{fill:#F26178;}
	.st51{fill:#323E48;}
</style>
<g id="Backgrounds" class="st0">
	<rect y="0" class="st2" width="180" height="180"/>
</g>
<g id="Icons">
	<g>
		<g>
			<defs>
				<path id="SVGID_1_" d="M-194.83,3.25v77.75c-0.23,2.54-0.35,5.12-0.35,7.72c0,46.9,38.02,84.91,84.91,84.91
					s84.91-38.02,84.91-84.91V3.25H-194.83z"/>
			</defs>
			<clipPath id="SVGID_00000028284545065900166460000002551598183627961526_">
				<use xlink:href="#SVGID_1_"  style="overflow:visible;"/>
			</clipPath>
			<g style="display:none;clip-path:url(#SVGID_00000028284545065900166460000002551598183627961526_);">
				<path class="st26" d="M-165.02,101.48c0.79-1.75,2.3-3.08,3.81-4.4c3.88-3.39,6.44-2.24,10.68-3.74
					c3.85-1.55,5.93-8.2,10.13-9.38c3.58-0.91,7.05,2.9,10.43,0.45c1.93-1.61,4.77-1.78,6.62-2.73c0.4-0.12,2.1-1.1,6.08-0.74
					c3.8,0.71,2.58-0.06,5.42,1.96c3.71,2.8,8.17,1.5,11.64-0.09c3.07-1.47,1.26-2.88,3.65-5.1c3.69-3.41,4.32-0.65,8.81-1.11
					c4.28-0.32,2.32-2.91,4.18-5.54c1.78-2.52,5.24-1.33,9.3-1.35c4.85-0.25,3.44-0.63,7.52,0.7c6.66,2.32,5.25-7.09,9.38-7.84
					c3.87-0.71,7.23-1.8,10.67-1.55c3.03,0.1,6.72,0.78,9.34,2.3c1.87,1.08,1.35,3.32,3.28,3.93c2.05,0.65,5.54,0.41,7.92-0.65
					c1.03-0.55,1.53-2.94,2.75-3.47c0.42-0.28,4.24-1.84,4.81-1.77c4.34-0.82,8.75,5.05,13.01,4.89c3.31-0.27,3.63-3.23,6.81-4.02
					c3.18-0.79,6.76-2.07,10.45-2.3l-7.86,64.99L-165.02,101.48z"/>
			</g>
			<path style="clip-path:url(#SVGID_00000028284545065900166460000002551598183627961526_);fill:#1D252C;" d="M1.08,114.79
				c-1.01-2.03-13.42,4.91-13.42,4.91s7.18-4.21,6.47-5.77c-0.7-1.56-9.2,5.15-9.2,5.15s2.81-3.67,2.03-4.13
				c-0.78-0.47-4.29,5.23-4.45,3.2c-0.16-2.03-3.2-2.81-3.2-2.81s7.33-5.15,6.55-6.63c-0.78-1.48-7.02,2.81-7.02,2.81
				s2.73-2.89,2.57-3.82c-0.16-0.94-4.29,1.95-4.29,1.95c0.7-2.96-1.95-5.93-1.95-5.93s5.3,3.98,5.93,2.57
				c0.48-1.08-1.68-2.44-2.69-3.01c1.25,0.65,4.44,2.23,4.88,1.6c0.5-0.71-1.41-1.75-1.74-1.92c0.53,0.27,5.19,2.6,5.41,0.83
				c0.23-1.87-2.89-2.42-2.89-2.42s5.69-1.72,4.99-3.2c-0.2-0.43-0.65-0.54-1.19-0.47c2.22-1.07,4.72-2.57,4.23-3.74
				c-0.86-2.03-8.97,4.29-8.97,4.29s3.43-2.96,2.57-3.85c-0.71-0.74-5.88,3.2-7.6,4.55c1.41-1.15,4.94-4.21,3.43-5.06
				c-1.87-1.05-6.9,6.01-5.81,3.23c1.09-2.77-2.53-5.11-2.53-5.11s4.71,2.57,5.49,0.55c0.78-2.03-3.35-2.42-3.35-2.42
				s8.19-0.08,8.19-1.87c0-1.38-3.19-0.63-4.66-0.22c2.11-0.66,8.12-2.66,7.86-4.07c-0.31-1.72-7.88,2.42-7.88,2.42
				s3.12-3.28,2.26-4.52c-0.86-1.25-5.93,3.35-5.93,3.35c-0.16-1.95-2.89-3.04-2.89-3.04s4.6,1.01,4.68-0.31
				c0.08-1.33-4.97-2.32-4.97-2.32s5.62,0.35,5.97-0.53c0.35-0.88-3.8-2.11-3.8-2.11s7.2,0.88,7.08-0.76
				c-0.12-1.64-5.15-1.58-5.15-1.58s6.67-0.47,6.26-2.05c-0.41-1.58-6.2,0.47-6.2,0.47s6.38-5.15,5.38-6.26
				c-0.54-0.6-2.55,1.17-4.27,2.92c0.33-0.55,0.47-1.05,0.17-1.34c-0.99-0.99-4.86,3.22-4.86,3.22c-0.09-1.84-0.93-3-1.77-3.7
				c1.2,0.56,2.6,0.98,2.82,0.07c0.41-1.64-4.09-3.33-4.09-3.33s4.04-0.76,3.74-1.87c-0.26-0.99-3.37-0.54-4.03-0.43
				c0.89-0.15,6.32-1.16,5.84-2.55c-0.43-1.25-3.06,0.22-4,0.79c1.39-0.88,6.64-4.26,5.93-4.82c-0.82-0.64-5.38,2.98-5.38,2.98
				c1.4-1.23-0.12-3.04-0.12-3.04s3.33-1.29,3.04-2.34c-0.23-0.83-1.86-0.35-2.52-0.11c0.83-0.33,3.15-1.38,2.82-2.58
				c-0.41-1.46-3.86,0.84-3.86,0.84s4.39-4.06,3.33-4.76c-1.05-0.7-3.39,3.33-3.39,3.33c-1.81-1.64-4.97,0-4.97,0
				s6.26-3.98,5.85-5.09c-0.32-0.85-3.19-0.15-4.5,0.22c0.67-0.22,1.61-0.6,1.58-0.98c-0.06-0.58-3.39-0.47-3.39-0.47
				s4.86-0.99,4.8-2.11c-0.03-0.52-0.53-0.67-1.05-0.68c1.45-0.21,3.65-0.63,3.57-1.29c-0.11-0.91-2.2-0.12-2.48-0.01
				c0.38-0.15,4.21-1.7,3.59-2.64c-0.64-0.99-5.85,1.93-5.85,1.93s1.81-1.93,0.88-3.04c-0.6-0.71-1.7,0.5-2.42,1.46
				c0.83-1.29,2.03-3.48,1.31-4.33c-1.05-1.23-3.74,5.32-3.74,5.32c0.53-1.87-1.35-2.75-1.35-2.75s4.09-3.16,3.45-3.86
				c-0.64-0.7-3.57,1.4-2.63,0.47c0.94-0.94,0-2.28,0-2.28s5.91,2.57,6.14,0.88c0.14-1.04-2.01-1.66-3.69-1.99
				c0.04-0.08,0.06-0.17,0.06-0.29c0-1.17-2.92-1.22-2.92-1.22s4.09-0.94,3.51-2.06c-0.58-1.11-6.15,0.34-6.15,0.34
				s5.39-2.45,4.69-3.62c-0.7-1.17-3.8,0.41-3.8,0.41s2.98-5.79,1.76-6.26c-0.83-0.32-2.13,2.24-2.9,3.94
				c0.14-2.67,0.69-14.88-1.08-14.46c-1.99,0.47-1.75,16.15-1.75,16.15s-1.99-5.62-3.63-4.68c-1.64,0.94,3.33,8.77,3.33,8.77
				l-0.17,1.87c0,0-1.99-4.21-2.93-4.21c-0.94,0,2.93,6.67,2.93,6.67s-2.93-2.46-4.21-1.75c-1.16,0.63,1.94,2.21,2.58,2.52
				c-0.6-0.28-3.47-1.58-4.1-0.53c-0.7,1.17,4.61,2.69,4.61,2.69s-3.21,0.12-3.21,1.17c0,1.05,3.63,0,3.63,0s0.66-0.16-0.45,0.62
				c-1.11,0.78-6.1,0.47-5.71,1.4c0.19,0.44,0.95,0.76,1.7,0.96c-0.3,0.02-0.56,0.1-0.69,0.32c-0.43,0.74,1.75,1.72,1.75,1.72
				s1.29,0.74,1.09,1.33c-0.2,0.58-2.53-1.68-3-1.56c-0.33,0.08,0.22,1.13,0.58,1.75c-0.61-1-2.07-3.24-2.8-3.12
				c-0.73,0.12,0.36,1.9,0.88,2.68c-0.66-0.95-2.45-3.41-2.99-3.07c-0.66,0.43,1.29,2.36,1.29,2.36s-3.67-2.13-4.33-1.08
				c-0.17,0.28-0.12,0.53,0.06,0.75c-1.15-0.52-2.42-0.94-2.67-0.36c-0.47,1.09,4.52,2.57,4.52,2.57s-2.03,0.43-2.14,1.29
				c-0.12,0.86,3.08,0,3.08,0s-1.44,0.97-0.58,1.56c0.77,0.52,3.05,0.11,3.54,0.02c-0.59,0.12-3.8,0.85-3.34,2.09
				c0.51,1.36,3.9-0.2,3.9-0.2s-2.18,1.4-1.64,1.83c0,0,0.01,0,0.01,0.01c-1.64,0.54-3.36,1.24-2.98,1.71
				c0.37,0.46,1.96,0.09,3.36-0.35c-1.97,0.78-4.44,1.97-4.1,2.92c0.01,0.02,0.02,0.03,0.02,0.05c-0.26-0.14-0.5-0.22-0.73-0.21
				c-1.72,0.08,1.17,3.04,1.17,3.04s-4.52-4.21-5.69-3.2s3.28,3.28,3.28,3.28s-3.36-1.09-3.47,0.16c-0.12,1.25,6.51,2.65,6.51,2.65
				s-3.67,1.87-2.65,2.5c1.01,0.62,4.68-0.94,4.68-0.94s-3.74,2.92-2.57,4.45c1.17,1.52,4.67-1.4,4.67-1.4s-0.33,2.74,1.33,3.97
				c-1.7-0.75-4.98-1.97-5.41-0.54c-0.02,0.06-0.03,0.11-0.04,0.16c-2.55-1.45-5.52-2.78-6.52-1.84c-1.87,1.75,7.37,5.73,7.37,5.73
				s-2.92-0.82-2.69,1.05c0.11,0.89,1.58,0.8,3.11,0.47c-0.52,0.48-0.83,1.19-0.65,2.22c0.58,3.39-2.92-2.92-4.45-2.11
				c-0.36,0.2-0.47,0.5-0.43,0.86c-1.43-1.94-3.38-4.09-4.72-3.55c-1.57,0.63-0.56,2.05,0.28,2.91c-1.02-0.89-2.79-2.23-3.67-1.74
				c-1.29,0.7,4.45,5.15,4.45,5.15s-6.2,1.17-5.26,2.69c0.94,1.52,7.72-0.94,7.72-0.94s-3.39,1.87-1.99,3.39
				c1.4,1.52,6.2-2.11,6.2-2.11s-1.17,1.99,1.05,3.63c0,0-7.37-1.29-7.72,0c-0.35,1.29,4.33,1.87,4.33,1.87s-10.65,2.69-10.18,4.45
				c0.47,1.75,5.03-0.82,5.03-0.82s-1.46,2.28-0.35,2.92c1.11,0.64,4.33-4.15,4.33-4.15s-0.82,2.98,0.41,3.33
				c1.01,0.29,3.07-3.43,3.79-4.78c-0.39,0.87-0.96,2.8,0.43,4.66c0,0-7.25,1.11-6.9,2.46c0.08,0.31,0.41,0.49,0.86,0.6
				c-1.92,0.19-3.68,0.55-3.43,1.27c0.53,1.52,9.65-0.29,9.65-0.29s-0.94,1.91,0.88,3.41c0,0-4.27-2.59-5.15-1.19
				c-0.88,1.4,0.99,3.98,0.99,3.98s-4.97-4.74-5.97-4.33c-0.99,0.41,1.11,3.74,1.11,3.74s-4.42-5.15-5.69-4.04
				c-1.27,1.11,3.99,5.85,3.99,5.85s-7.68-5.77-8.85-4.68c-1.17,1.09,2.73,4.68,2.73,4.68s-8.03-5.15-9.44-3.28
				c-1.4,1.87,5.23,4.6,5.23,4.6s-4.45,0.62-2.96,2.18c1.48,1.56,7.64-0.78,7.64-0.78s-3.74,2.03-3.12,3.2
				c0.62,1.17,6.24-2.57,6.24-2.57s-2.26,6.47-0.23,7.02c1.39,0.37,2.19-2.88,2.56-4.96c-0.11,1.32-0.04,2.94,1.03,2.94
				c1.79,0,1.87-5.23,1.87-5.23s1.25,3.67,2.5,3.51c0.08-0.01,0.15-0.03,0.21-0.06c-0.01,0.84,0.14,1.75,0.57,2.64
				c1.4,2.89-2.73-1.09-3.43,0c-0.54,0.84,1.1,2.15,1.88,2.7c-1.08-0.71-4.14-2.57-4.84-1.22c-0.63,1.2,1.53,1.93,2.74,2.25
				c-1.56-0.33-4.99-0.91-5.47,0.17c-0.62,1.4,5.69,1.87,5.69,1.87s-0.3,1.69,1.21,3.17c-2.27-1.47-6.42-3.82-7.84-2.23
				c-0.53,0.59-0.53,1.21-0.26,1.81c-2.16-1.73-4.61-3.46-5.35-3.09c-1.4,0.7,3.16,5.03,3.16,5.03s-8.89-5.97-10.3-5.03
				c-1.4,0.94,5.38,5.38,5.38,5.38s-5.53-0.7-5.57,0.82c-0.04,1.52,8.85,1.99,8.85,1.99s-5.38,2.46-4.21,4.45
				c0.79,1.34,4.51-0.78,6.85-2.3c-0.92,0.79-1.71,1.82-1.12,2.73c1.12,1.72,4.62-1.44,4.89-1.7c-0.35,0.33-5.54,5.18-3.84,6.77
				c1.75,1.64,6.55-6.79,6.55-6.79s-2.11,5.05-0.47,5.98c1.64,0.92,5.85-4.81,5.85-4.81s0.23,5.17,5.15,4.81
				c1.88-0.14,5.16-0.17,8.48-0.16l0,0c0,0,18.43,0.38,23.22,0.16c4.8-0.22,3.69-5.8,3.69-5.8s1.87,3.04,3.16,2.05
				c1.29-0.99-0.82-4.15-0.82-4.15s4.5,5.62,5.85,3.39c1.35-2.22-2.81-3.8-2.81-3.8s7.96,2.16,8.13,0c0.18-2.16-5.26-2.65-5.26-2.65
				s6.79-1.4,6.63-2.89c-0.09-0.87-1.88-0.56-3.34-0.15C-2.93,118.13,1.81,116.24,1.08,114.79z M-50.63,56.61
				c-0.72,0.36-2.53-2.44-4.12-3.74c1.29,0.25,4.02-0.98,4.77-1.33c-0.6,0.3-2.31,1.31-1.98,2.73c0.39,1.72,2.67,1.17,2.67,1.17
				S-49.69,56.14-50.63,56.61z"/>
		</g>
	</g>
	<g>
		<circle class="st36" cx="56.63" cy="138.47" r="14.53"/>
		<circle class="st36" cx="125.91" cy="138.17" r="14.53"/>
		<path class="st36" d="M125.91,119.1c4.74,0,9.06,1.74,12.39,4.59l28.59-47.16H13.11l29.49,48.64c3.48-3.73,8.43-6.08,13.93-6.08
			c10.53,0,19.07,8.54,19.07,19.07h31.24C106.84,127.64,115.38,119.1,125.91,119.1z"/>
		<path class="st36" d="M30.73,72.72h117.45h12.3c1.74-1.24,2.84-2.99,2.84-4.95c0-2.27-1.48-4.27-3.74-5.51
			c-0.98-0.54-2.11-0.94-3.34-1.14c0.04-0.19,0.09-0.38,0.09-0.58c0-2.69-3.36-4.87-7.51-4.87c-0.4,0-0.79,0.04-1.18,0.08
			c-0.77-3.03-4.88-5.35-9.87-5.35c-1.2,0-2.33,0.16-3.39,0.4c0.01-0.14,0.03-0.26,0.03-0.4c0-4.63-2.99-8.38-6.67-8.38
			c-2.17,0-4.08,1.32-5.29,3.33c-0.91-4.43-4.83-7.77-9.54-7.77c-0.22,0-0.43,0.05-0.65,0.07C110.4,31.48,104.68,27,97.91,27
			c-6.52,0-12.06,4.17-14.13,9.98c-2.19-2.37-5.31-3.87-8.79-3.87c-5.66,0-10.39,3.93-11.64,9.2c-3.06-2.12-7.81-3.04-12.87-2.16
			c-6.83,1.18-12.01,5.26-12.88,9.7c-0.35-0.04-0.7-0.11-1.06-0.11c-4.99,0-9.03,4.04-9.03,9.03c0,1.24,0.25,2.41,0.7,3.49
			c-1.25-0.83-2.74-1.31-4.35-1.31c-1.75,0-3.36,0.59-4.67,1.55c-1.96,1.44-3.25,3.74-3.25,6.36c0,1.41,0.4,2.71,1.04,3.85H30.73z"
			/>
	</g>
</g>
<g id="Layer_3">
	<g>
		<path class="st19" d="M114.85,86.96l-1.25-2.88l-5.91,13.68h3.21l0,0h5.32l0,0h3.32L114.85,86.96z M111.85,95.19l1.66-4.26
			l1.68,4.26H111.85z"/>
		<path class="st19" d="M96.4,84.15h5.04c2.37,0,4.94,0.5,4.94,3.44c0,1.51-0.94,2.54-2.33,2.98v0.04c1.78,0.23,2.96,1.55,2.96,3.3
			c0,2.83-2.67,3.76-5.08,3.76H96.4V84.15z M99.38,89.56h2.16c0.92,0,1.87-0.38,1.87-1.47c0-1.13-1.07-1.41-2-1.41h-2.02V89.56z
			 M99.38,95.15h2.67c0.94,0,1.99-0.4,1.99-1.58c0-1.28-1.43-1.49-2.41-1.49h-2.25V95.15z"/>
		<path class="st19" d="M129.02,87.67c-0.59-0.71-1.45-1.11-2.56-1.11c-2.25,0-3.91,1.83-3.91,4.35c0,2.52,1.66,4.35,3.82,4.35
			c1.2,0,2.18-0.53,2.79-1.45l2.48,1.85c-1.13,1.6-3.04,2.35-4.89,2.35c-4.22,0-7.29-2.77-7.29-7.1c0-4.33,3.07-7.1,7.29-7.1
			c1.51,0,3.42,0.52,4.56,1.99L129.02,87.67z"/>
		<path class="st19" d="M91.98,87.67c-0.59-0.71-1.45-1.11-2.56-1.11c-2.25,0-3.91,1.83-3.91,4.35c0,2.52,1.66,4.35,3.82,4.35
			c1.2,0,2.18-0.53,2.79-1.45l2.48,1.85c-1.13,1.6-3.04,2.35-4.89,2.35c-4.22,0-7.29-2.77-7.29-7.1c0-4.33,3.07-7.1,7.29-7.1
			c1.51,0,3.42,0.52,4.56,1.99L91.98,87.67z"/>
		<path class="st19" d="M65.84,84.15h2.98v13.52h-2.98V84.15z"/>
		<path class="st19" d="M133.74,84.15h2.98v5.61l5.25-5.61h3.89l-6.01,6.28l6.53,7.24h-4.16l-5.5-6.41v6.41h-2.98V84.15z"/>
		<path class="st19" d="M41.32,87.46c-0.48-0.61-1.43-0.9-2.16-0.9c-0.84,0-2,0.38-2,1.39c0,2.46,6.22,0.88,6.22,5.61
			c0,3.02-2.42,4.45-5.21,4.45c-1.74,0-3.26-0.52-4.54-1.7l2.12-2.33c0.61,0.8,1.6,1.28,2.6,1.28c0.97,0,2.06-0.46,2.06-1.41
			c0-2.48-6.34-1.15-6.34-5.65c0-2.88,2.5-4.39,5.15-4.39c1.53,0,3,0.4,4.14,1.41L41.32,87.46z"/>
		<path class="st19" d="M74.67,86.79h-3.86v-2.63H81.5v2.63h-3.86v10.88h-2.98V86.79z"/>
		<path class="st19" d="M45.09,84.15h3.25l2.16,8.67h0.04l2.83-8.67h2.77l2.81,8.9h0.04l2.27-8.9h3.02L60.3,97.67h-2.65l-2.98-9.35
			h-0.04l-2.98,9.35H49.1L45.09,84.15z"/>
	</g>
	<g>
		<path class="st49" d="M60.43,104.01c0-0.2-0.02-0.57-0.23-0.85c-0.13-0.16-0.35-0.32-0.75-0.32c-0.2,0-0.47,0.04-0.68,0.26
			c-0.27,0.28-0.29,0.65-0.29,0.95c0,0.23,0.01,0.64,0.2,0.94c0.16,0.22,0.42,0.36,0.61,0.42l0.71,0.26
			c0.32,0.11,0.74,0.3,0.99,0.66c0.28,0.38,0.31,0.8,0.31,1.3v0.28c0,0.77-0.21,1.34-0.51,1.67c-0.28,0.29-0.77,0.49-1.4,0.49
			c-0.77,0-1.26-0.28-1.51-0.61c-0.33-0.45-0.33-1.19-0.33-1.29v-0.28h0.84v0.22c0,0.21,0.03,0.58,0.22,0.83
			c0.25,0.29,0.58,0.32,0.77,0.32c0.51,0,0.74-0.2,0.86-0.35c0.21-0.27,0.22-0.64,0.22-0.91v-0.3c0-0.3-0.03-0.69-0.22-0.93
			c-0.19-0.26-0.5-0.38-0.64-0.42l-0.85-0.3c-0.38-0.13-0.76-0.35-0.97-0.84c-0.15-0.35-0.16-0.73-0.16-1.11v-0.23
			c0-0.63,0.23-1.09,0.56-1.4c0.35-0.33,0.79-0.45,1.28-0.45c1.07,0,1.79,0.69,1.79,1.94v0.27h-0.84V104.01z"/>
		<path class="st49" d="M63.75,102.13h3.14v0.77h-2.3v2.73h2.03v0.73h-2.03v2.83h2.33v0.77h-3.17V102.13z"/>
		<path class="st49" d="M71.81,104.01c0-0.2-0.02-0.57-0.23-0.85c-0.13-0.16-0.35-0.32-0.75-0.32c-0.2,0-0.47,0.04-0.68,0.26
			c-0.27,0.28-0.29,0.65-0.29,0.95c0,0.23,0.01,0.64,0.2,0.94c0.16,0.22,0.42,0.36,0.61,0.42l0.71,0.26
			c0.32,0.11,0.74,0.3,0.99,0.66c0.28,0.38,0.31,0.8,0.31,1.3v0.28c0,0.77-0.21,1.34-0.51,1.67c-0.28,0.29-0.77,0.49-1.4,0.49
			c-0.77,0-1.26-0.28-1.51-0.61c-0.33-0.45-0.33-1.19-0.33-1.29v-0.28h0.84v0.22c0,0.21,0.03,0.58,0.22,0.83
			c0.25,0.29,0.58,0.32,0.77,0.32c0.51,0,0.74-0.2,0.86-0.35c0.21-0.27,0.22-0.64,0.22-0.91v-0.3c0-0.3-0.03-0.69-0.22-0.93
			c-0.19-0.26-0.5-0.38-0.64-0.42l-0.85-0.3c-0.38-0.13-0.76-0.35-0.97-0.84c-0.15-0.35-0.16-0.73-0.16-1.11v-0.23
			c0-0.63,0.23-1.09,0.56-1.4c0.35-0.33,0.79-0.45,1.28-0.45c1.07,0,1.79,0.69,1.79,1.94v0.27h-0.84V104.01z"/>
		<path class="st49" d="M77.8,104.01c0-0.2-0.02-0.57-0.23-0.85c-0.13-0.16-0.35-0.32-0.75-0.32c-0.2,0-0.47,0.04-0.68,0.26
			c-0.27,0.28-0.29,0.65-0.29,0.95c0,0.23,0.01,0.64,0.2,0.94c0.16,0.22,0.42,0.36,0.61,0.42l0.71,0.26
			c0.32,0.11,0.74,0.3,0.99,0.66c0.28,0.38,0.31,0.8,0.31,1.3v0.28c0,0.77-0.21,1.34-0.51,1.67c-0.28,0.29-0.77,0.49-1.4,0.49
			c-0.77,0-1.26-0.28-1.51-0.61c-0.33-0.45-0.33-1.19-0.33-1.29v-0.28h0.84v0.22c0,0.21,0.03,0.58,0.22,0.83
			c0.25,0.29,0.58,0.32,0.77,0.32c0.51,0,0.74-0.2,0.86-0.35c0.21-0.27,0.22-0.64,0.22-0.91v-0.3c0-0.3-0.03-0.69-0.22-0.93
			c-0.19-0.26-0.5-0.38-0.64-0.42l-0.85-0.3c-0.38-0.13-0.76-0.35-0.97-0.84c-0.15-0.35-0.16-0.73-0.16-1.11v-0.23
			c0-0.63,0.23-1.09,0.56-1.4c0.35-0.33,0.79-0.45,1.28-0.45c1.07,0,1.79,0.69,1.79,1.94v0.27H77.8V104.01z"/>
		<path class="st49" d="M82,102.13v7.82h-0.84v-7.82H82z"/>
		<path class="st49" d="M84.63,104.11c0-0.58,0.04-1.14,0.56-1.62c0.31-0.3,0.76-0.47,1.32-0.47s1.01,0.17,1.32,0.47
			c0.51,0.48,0.56,1.04,0.56,1.62v3.87c0,0.58-0.04,1.14-0.56,1.62c-0.31,0.3-0.76,0.47-1.32,0.47s-1.01-0.17-1.32-0.47
			c-0.51-0.48-0.56-1.04-0.56-1.62V104.11z M87.55,103.93c0-0.28-0.02-0.56-0.29-0.82c-0.16-0.16-0.41-0.28-0.75-0.28
			s-0.59,0.12-0.75,0.28c-0.27,0.26-0.29,0.54-0.29,0.82v4.22c0,0.28,0.02,0.56,0.29,0.83c0.16,0.15,0.41,0.27,0.75,0.27
			s0.59-0.12,0.75-0.27c0.27-0.27,0.29-0.55,0.29-0.83V103.93z"/>
		<path class="st49" d="M91.81,102.13l2.21,5.82v-5.82h0.84v7.82h-0.84l-2.21-5.71v5.71h-0.84v-7.82H91.81z"/>
		<path class="st49" d="M102.05,102.13v3.5h1.89v-3.5h0.84v7.82h-0.84v-3.6h-1.89v3.6h-0.84v-7.82H102.05z"/>
		<path class="st49" d="M110.4,109.95l-0.39-1.74h-1.77l-0.38,1.74h-0.82l1.7-7.82h0.76l1.71,7.82H110.4z M109.1,103.81l-0.75,3.69
			h1.53L109.1,103.81z"/>
		<path class="st49" d="M116.51,102.13v0.74l-2.5,6.31h2.45v0.77h-3.28v-0.86l2.45-6.19h-2.28v-0.77H116.51z"/>
		<path class="st49" d="M120.91,106.66v3.29h-0.84v-3.33l-1.63-4.49h0.93l1.14,3.41h0.03l1.13-3.41h0.88L120.91,106.66z"/>
	</g>
	<g>
		<path class="st50" d="M78.67,131.61v-18.36h2.63v18.36H78.67z"/>
		<path class="st50" d="M83.85,131.61v-18.36h3.94c0.72,0,1.36,0.09,1.91,0.28c0.55,0.19,1.05,0.52,1.5,1
			c0.45,0.48,0.76,1.04,0.93,1.69c0.17,0.64,0.26,1.52,0.26,2.62c0,0.83-0.05,1.52-0.14,2.09c-0.09,0.57-0.3,1.1-0.61,1.6
			c-0.36,0.6-0.84,1.07-1.44,1.41s-1.39,0.5-2.37,0.5h-1.34v7.17H83.85z M86.48,115.73v6.24h1.26c0.53,0,0.95-0.08,1.24-0.23
			c0.29-0.16,0.51-0.37,0.64-0.64c0.14-0.26,0.22-0.58,0.25-0.95s0.04-0.8,0.04-1.26c0-0.43-0.01-0.84-0.03-1.22
			s-0.09-0.73-0.23-1.02s-0.34-0.52-0.62-0.67c-0.27-0.15-0.67-0.23-1.19-0.23H86.48z"/>
		<path class="st50" d="M92.2,131.61l4.1-18.36h2.19l4.1,18.36h-2.63l-0.77-3.94h-3.58l-0.77,3.94H92.2z M98.7,125.19l-1.29-6.65
			h-0.05l-1.29,6.65H98.7z"/>
	</g>
</g>
</svg>
