<?xml version="1.0" encoding="utf-8"?>
<!-- Generator: Adobe Illustrator 26.0.2, SVG Export Plug-In . SVG Version: 6.00 Build 0)  -->
<svg version="1.1" xmlns="http://www.w3.org/2000/svg" xmlns:xlink="http://www.w3.org/1999/xlink" x="0px" y="0px"
	 viewBox="0 0 180 180" style="enable-background:new 0 0 180 180;" xml:space="preserve">
<style type="text/css">
	.st0{display:none;}
	.st1{display:inline;fill:#F18A00;}
	.st2{display:inline;fill:#490E67;}
	.st3{display:inline;fill:#D9B767;}
	.st4{display:inline;fill:#5B6670;}
	.st5{display:inline;fill:#7A5FA8;}
	.st6{display:inline;fill:#A12B2A;}
	.st7{display:inline;fill:#092628;}
	.st8{display:inline;fill:#003B71;}
	.st9{fill:#7A5FA8;}
	.st10{opacity:0.3;}
	.st11{fill:none;stroke:#D9B767;stroke-width:1.1175;stroke-linecap:round;stroke-miterlimit:10;}
	.st12{fill:#FFFFFF;}
	.st13{fill-rule:evenodd;clip-rule:evenodd;fill:#D9B767;}
	.st14{fill:#000F9F;}
	.st15{fill-rule:evenodd;clip-rule:evenodd;fill:#191F41;}
	.st16{fill:#003B71;}
	.st17{fill-rule:evenodd;clip-rule:evenodd;fill:#D7DEDB;}
	.st18{fill:#231F20;}
	.st19{fill:#D7DEDB;}
	.st20{opacity:0.35;}
	.st21{fill:none;stroke:#000000;stroke-width:0.6113;stroke-linecap:round;stroke-linejoin:round;stroke-miterlimit:10;}
	.st22{fill:none;stroke:#092628;stroke-width:0.6113;stroke-linecap:round;stroke-linejoin:round;stroke-miterlimit:10;}
	.st23{fill:#D9B767;}
	.st24{clip-path:url(#SVGID_00000025410371077354326660000000594466101433043104_);fill:#A2A9AD;}
	.st25{display:none;clip-path:url(#SVGID_00000025410371077354326660000000594466101433043104_);}
	.st26{display:inline;fill:#A7AEB4;}
	.st27{clip-path:url(#SVGID_00000025410371077354326660000000594466101433043104_);}
	.st28{fill:#A2A9AD;}
	.st29{clip-path:url(#SVGID_00000025410371077354326660000000594466101433043104_);fill:#7B868C;}
	.st30{fill:#5B6670;}
	.st31{clip-path:url(#SVGID_00000025410371077354326660000000594466101433043104_);fill:#323E48;}
	.st32{clip-path:url(#SVGID_00000025410371077354326660000000594466101433043104_);fill:#5B6670;}
	.st33{clip-path:url(#SVGID_00000025410371077354326660000000594466101433043104_);fill:#FFFFFF;}
	.st34{clip-path:url(#SVGID_00000025410371077354326660000000594466101433043104_);fill:#1D252C;}
	.st35{clip-path:url(#SVGID_00000025410371077354326660000000594466101433043104_);fill:#E5E5E4;}
	.st36{fill:#201747;}
	.st37{fill:#252832;}
	.st38{fill:#242731;}
	.st39{fill:#84C346;stroke:#84C346;stroke-width:0.7255;stroke-miterlimit:10;}
	.st40{fill:none;}
	.st41{fill:#002B49;}
	.st42{fill:#092628;}
	.st43{fill:#CAD5DA;stroke:#CAD5DA;stroke-width:2.1515;stroke-miterlimit:10;}
	.st44{fill:#6D52A1;}
	.st45{fill:#CAD5DA;}
	.st46{display:inline;}
	.st47{display:inline;clip-path:url(#SVGID_00000116194393912590478170000003111789906749856659_);}
	.st48{fill:url(#SVGID_00000028308255840040004480000013571369345893336459_);}
	.st49{fill:#F9B5C3;}
	.st50{fill:#F26178;}
	.st51{fill:#323E48;}
</style>
<g id="Backgrounds" class="st0">
	
		<rect y="-0.51" transform="matrix(-1 -1.224647e-16 1.224647e-16 -1 182.8995 181.8771)" class="st8" width="182.9" height="182.9"/>
</g>
<g id="Icons">
	<g>
		<g>
			<g>
				<path class="st15" d="M162.69,57.89c0,0-2.89-1.44-2.95-1.47c-0.29-0.15-0.9-0.15-1.47,0.12c-0.22-0.66-0.57-1.13-1.06-1.37
					c0,0-3.08-1.53-3.13-1.56c-0.25-0.12-0.75-0.15-1.24,0.02c-0.19-0.51-0.48-0.88-0.86-1.07c0,0-4.33-2.16-4.38-2.18
					c-1.49-0.74-6.5,6.26-11.39,15.84c-0.58-0.28-1.2-0.57-1.82-0.85l-11.8-4.48c-7.13-2.28-17.03-4.04-24.93-4.68
					c-7.9-0.64-15.34,0-15.34,0s7.47-0.41,0,0.02s-17.81,2.38-24.93,4.66l-11.8,4.48c-0.62,0.28-1.24,0.57-1.82,0.85
					c-4.89-9.57-9.9-16.58-11.39-15.84c-0.05,0.02-4.38,2.18-4.38,2.18c-0.39,0.19-0.67,0.56-0.86,1.07
					c-0.48-0.18-0.99-0.15-1.24-0.02c-0.05,0.03-3.13,1.56-3.13,1.56c-0.48,0.24-0.83,0.71-1.06,1.37
					c-0.57-0.26-1.17-0.26-1.47-0.12c-0.05,0.03-2.95,1.47-2.95,1.47c-2.96,1.48-1.25,10.92,3.82,21.09
					C26.2,89.15,32.72,96.2,35.68,94.73c0,0,2.89-1.44,2.95-1.47c0.29-0.15,0.66-0.63,0.79-1.24c0.66,0.22,1.25,0.23,1.73-0.02
					c0,0,3.08-1.53,3.13-1.56c0.25-0.12,0.57-0.51,0.73-1c0.52,0.15,0.99,0.15,1.37-0.04c0,0,4.33-2.16,4.38-2.18
					c1.45-0.72-0.97-8.59-5.47-17.96c0.7-0.32,1.46-0.67,2.28-1.03c0,0,18.25-9.19,42.23-9.28c23.98-0.09,42.63,9.28,42.63,9.28
					c0.82,0.36,1.58,0.7,2.28,1.03c-4.5,9.38-6.92,17.24-5.47,17.96c0.05,0.02,4.38,2.18,4.38,2.18c0.39,0.19,0.85,0.2,1.37,0.04
					c0.15,0.49,0.48,0.88,0.73,1c0.05,0.03,3.13,1.56,3.13,1.56c0.48,0.24,1.07,0.23,1.74,0.02c0.13,0.61,0.5,1.1,0.79,1.24
					c0.06,0.03,2.95,1.47,2.95,1.47c2.96,1.48,9.47-5.57,14.54-15.75C163.94,68.81,165.65,59.36,162.69,57.89z M37.16,91.01
					c-5.23-2.5-10.59-11.48-12.36-14.83c-0.06-0.11-0.24-0.05-0.22,0.08c0.3,1.69,0.85,3.39,2.07,5.84l-1.6,0.8
					c-0.88-1.46-1.72-3.01-2.52-4.6c-2.28-4.58-4.02-9.3-4.77-13.07c-0.84-4.17-0.07-5.77,0.22-6.05l2.4-1.2
					c0.66-0.33,1.03-0.02,1.07,0.02c-0.3,3.82,1.64,10.8,5.33,18.18c3.39,6.79,7.38,12.22,10.51,14.65
					C37.4,90.9,37.28,91.07,37.16,91.01z M42.91,88.51C37.79,86.5,32.3,76.83,30.49,73.35c-0.06-0.11-0.24-0.05-0.22,0.08
					c0.3,1.68,0.85,3.38,2.07,5.82l-1.75,0.87c-0.88-1.47-1.73-3.01-2.52-4.6c-2.28-4.58-4-9.33-4.78-13.09
					c-0.87-4.15-0.11-5.73,0.16-6l2.3-1.15c0.56-0.28,1.09-0.15,1.12-0.15c-0.23,3.71,1.83,10.72,5.56,18.21
					c3.5,7.01,7.55,12.6,10.59,14.97C43.13,88.4,43.03,88.56,42.91,88.51z M47.98,85.3c0.09,0.1-0.05,0.24-0.16,0.17
					c-5.03-3.31-9.72-11.77-11.41-15.07c-0.06-0.11-0.24-0.05-0.22,0.08c0.3,1.68,0.85,3.38,2.07,5.82l-1.99,0.99
					c-0.86-1.46-1.7-3.01-2.5-4.61c-2.28-4.58-4.01-9.15-4.87-12.88c-0.95-4.11-0.48-5.71-0.23-5.97l3.33-1.66
					c0.01,0.06,0.01,0.12,0.02,0.19c0.39,3.3,2.63,10.36,6.43,17.98C41.79,77.04,45.5,82.51,47.98,85.3z M132.17,85.47
					c-0.11,0.07-0.24-0.07-0.16-0.17c2.48-2.79,6.19-8.26,9.53-14.95c3.8-7.63,6.04-14.69,6.43-17.98c0.01-0.07,0.01-0.13,0.02-0.19
					l3.33,1.66c0.25,0.26,0.71,1.86-0.23,5.97c-0.86,3.73-2.59,8.3-4.87,12.88c-0.8,1.6-1.64,3.15-2.5,4.61l-1.99-0.99
					c1.22-2.44,1.76-4.14,2.07-5.82c0.02-0.13-0.16-0.19-0.22-0.08C141.89,73.7,137.21,82.16,132.17,85.47z M137.1,88.51
					c-0.12,0.05-0.22-0.12-0.12-0.2c3.04-2.37,7.1-7.95,10.59-14.97c3.73-7.49,5.79-14.5,5.56-18.21c0.02-0.01,0.56-0.13,1.11,0.15
					l2.31,1.15c0.27,0.27,1.03,1.85,0.16,6c-0.79,3.76-2.5,8.51-4.78,13.09c-0.79,1.59-1.65,3.14-2.52,4.6l-1.75-0.87
					c1.22-2.44,1.77-4.14,2.07-5.82c0.03-0.13-0.16-0.19-0.22-0.08C147.7,76.83,142.21,86.5,137.1,88.51z M162.24,65.21
					c-0.76,3.78-2.49,8.5-4.77,13.07c-0.79,1.59-1.64,3.14-2.52,4.6l-1.6-0.8c1.22-2.45,1.77-4.15,2.07-5.84
					c0.02-0.13-0.16-0.19-0.22-0.08c-1.78,3.36-7.13,12.33-12.36,14.83c-0.12,0.06-0.24-0.11-0.13-0.19
					c3.13-2.43,7.13-7.86,10.51-14.65c3.68-7.38,5.63-14.36,5.33-18.18c0.05-0.04,0.41-0.35,1.07-0.02l2.4,1.2
					C162.31,59.44,163.08,61.04,162.24,65.21z"/>
			</g>
		</g>
		<path class="st16" d="M113.59,62.51c0.52-0.54,0.72-1.31,0.53-2.03c-1.03-3.91-2.02-6.7-3.26-9.07c0.22,0.06,0.43,0.11,0.63,0.16
			c0.89,0.21,1.82-0.16,2.31-0.94c0.49-0.78,0.43-1.78-0.14-2.49c-0.73-0.91-1.5-2.15-2.38-3.58c-2.12-3.44-4.76-7.73-9.11-10.74
			c-0.58-0.4-1.3-0.48-1.93-0.26c-1.57-1.47-3.35-2.56-5.17-3.1c-0.58-0.17-1.19-0.09-1.69,0.2c-1.17-0.72-2.89-1.53-4.17-1.03
			c-0.47-0.08-0.96,0-1.4,0.24c-0.44,0.25-0.86,0.5-1.25,0.76c-0.49-0.27-1.08-0.35-1.65-0.18c-1.82,0.54-3.6,1.63-5.17,3.1
			c-0.63-0.22-1.35-0.14-1.93,0.26c-4.35,3.01-6.99,7.3-9.11,10.74c-0.88,1.43-1.64,2.66-2.38,3.58c-0.58,0.71-0.63,1.72-0.14,2.49
			c0.49,0.77,1.42,1.15,2.31,0.94c0.21-0.05,0.42-0.1,0.63-0.16c-1.24,2.36-2.23,5.16-3.26,9.07c-0.19,0.72,0.01,1.49,0.53,2.03
			c0.49,0.51,1.19,0.74,1.88,0.63c-0.36,3.07-0.94,6.98-1.23,8.63c-0.15,0.84,0.21,1.69,0.92,2.16c0.68,0.45,1.56,0.48,2.26,0.07
			c0.8,2.26,1.27,4.24,1.89,6.84l0.13,0.57c0.18,0.76,0.76,1.36,1.51,1.57c0.75,0.21,1.56-0.01,2.1-0.56l1.14-1.15
			c0.38,0.61,0.78,1.2,1.18,1.78c0.45,0.66,1.23,1.02,2.03,0.92c0.8-0.1,1.47-0.63,1.75-1.38l0.08-0.23
			c2.05,2.26,4.15,4.21,6.64,6.13c0.39,0.3,0.85,0.45,1.31,0.45c0.46,0,0.93-0.15,1.31-0.45c2.49-1.93,4.59-3.87,6.64-6.13
			l0.08,0.22c0.28,0.75,0.95,1.29,1.75,1.38c0.79,0.1,1.58-0.26,2.03-0.92c0.41-0.59,0.81-1.2,1.19-1.81
			c0.07,0.1,0.15,0.2,0.24,0.29l0.88,0.9c0.55,0.56,1.35,0.77,2.1,0.56c0.75-0.21,1.33-0.81,1.51-1.57l0.13-0.57
			c0.61-2.6,1.08-4.58,1.89-6.84c0.7,0.41,1.58,0.38,2.26-0.07c0.71-0.47,1.07-1.32,0.92-2.17c-0.3-1.65-0.87-5.55-1.23-8.63
			C112.4,63.26,113.1,63.02,113.59,62.51z"/>
		<path class="st17" d="M100.46,55.32c0.37,0.34,0.75,0.65,1.13,0.95c-0.01-0.65-0.04-1.31-0.08-1.86c0.25,0.39,0.62,1.39,0.9,2.47
			c0.43,0.31,0.86,0.6,1.3,0.88c0-1.02,0-2.9-0.08-3.51c0.4,0.61,1.11,2.84,1.33,4.23c0.45,0.25,0.77,0.4,1.3,0.64
			c-0.04-1.93-0.33-4.03-0.51-5.09c0.79,1.45,1.51,3.61,1.78,5.62c0.48,0.19,0.97,0.36,1.47,0.52c0.01-2.04-0.49-4.8-0.73-5.98
			c0.91,1.58,1.7,4.2,1.95,6.35c0.65,0.18,1.31,0.34,1.99,0.49c-1.43-5.43-2.74-8.62-5.01-11.65c-1-0.36-1.97-0.75-2.9-1.19
			c-0.04,0.09-0.07,0.18-0.11,0.26c-0.09,0.2-0.18,0.39-0.29,0.58l-0.55,0.99l-1.05-0.42c-0.43-0.17-0.88-0.39-1.35-0.64
			c0.12,0.68,0.18,1.38,0.18,2.08C101.13,52.53,100.89,53.96,100.46,55.32L100.46,55.32z M97.73,45.31
			c0.09-0.28,0.18-0.55,0.25-0.83c1.18,0.63,2.49,1.14,3.04,1.22c-0.87-0.63-2-1.55-2.78-2.33c0.07-0.34,0.12-0.69,0.16-1.03
			c1.12,0.58,2.32,1.04,2.83,1.11c-0.86-0.62-1.97-1.52-2.75-2.3c0.01-0.42,0-0.84-0.03-1.25c1.03,0.51,2.07,0.9,2.54,0.96
			c-0.85-0.62-1.96-1.52-2.73-2.29c-0.09-0.44-0.21-0.87-0.36-1.3c0.84,0.38,1.62,0.66,2.01,0.71c-0.24-0.18-1.9-1.68-2.81-2.47
			c-0.65-1.13-1.5-2.14-2.48-2.99c5.95,1.77,11.03,10.71,8.15,15.88C101.26,47.79,99.48,46.65,97.73,45.31L97.73,45.31z
			 M90.17,51.67c-3.63-3.86-5.27-7.52-5.27-11.21c0-3.2,1.82-6.39,4.13-8.7c-4.22,2.36-5.92,5.59-5.92,8.97
			c0,4.79,3.18,9.87,7.06,13.16c1.61-1.37,2.66-2.48,3.41-3.6c3.96-5.21,5.66-12.14,0.13-16.88c-0.96-0.82-2.55-1.77-3.54-1.77v1.33
			c0.63,0.79,1.44,1.18,2.01,1.44c-0.79,0.18-1.57,0.06-2.01-0.11v1.23c0.44,0.25,1.55,0.66,2.26,0.81
			c-0.57,0.26-1.74,0.49-2.26,0.56v1.14c0.54,0.13,1.62,0.01,2.33-0.13c-0.49,0.55-1.74,1.23-2.33,1.33v1.47
			c0.79-0.2,2.14-0.86,2.72-1.2c-0.47,0.83-1.63,1.83-2.72,2.56v1.59c1.12-0.66,2.49-1.77,3.31-2.63c-0.61,1.47-1.94,3.16-3.31,4.2
			v1.56c1.1-0.67,2.13-1.35,3.33-2.59c-0.67,1.86-1.61,2.96-3.33,4.16v1.56c0.8-0.4,2.63-1.96,3.6-2.99
			C93.2,48.27,91.49,50.46,90.17,51.67L90.17,51.67z M82.61,45.3c-1.75,1.34-3.53,2.48-5.06,3.1c-2.87-5.17,2.21-14.12,8.15-15.88
			c-0.66,0.57-1.22,1.18-1.7,1.8c-2.86,2.62-5.93,7.11-5.34,11.66c0.85-0.55,2.07-1.52,3.41-2.69
			C82.21,43.97,82.39,44.64,82.61,45.3L82.61,45.3z M104.83,45.83c0.74,0.45,2.01,1.01,3.18,1.26c-0.98-0.68-2.37-1.63-3.13-2.43
			c-0.01-0.33-0.04-0.66-0.08-0.99c0.55,0.43,1.71,1.13,2.54,1.32c-0.74-0.6-2.14-2.05-2.79-2.72c-0.11-0.5-0.19-0.76-0.36-1.24
			c0.68,0.66,1.68,1.43,2.51,1.75c-0.98-1.09-2.2-2.39-3.37-3.81c-0.35-0.71-0.75-1.39-1.18-2.01c-0.32-0.47-0.67-0.93-1.04-1.38
			c5.73,3.97,8.36,10.57,11.04,13.9c-1.84-0.44-5.98-1.54-7.5-2.59C104.74,46.62,104.8,46.24,104.83,45.83L104.83,45.83z
			 M75.44,45.05c-0.98,0.51-2,0.95-3.06,1.33c0.66-1.07,1.32-2.13,2.03-3.17c0.77-1.12,1.44-2.15,2.06-3.1
			c0.46-1.13,1.05-2.2,1.69-3.15c0.32-0.47,0.67-0.93,1.04-1.38c-5.73,3.97-8.36,10.57-11.04,13.9c2.83-0.68,5.27-1.48,7.48-2.54
			C75.51,46.33,75.44,45.69,75.44,45.05L75.44,45.05z M71.93,71.99c1.23,3.12,1.78,5.55,2.58,8.93l2.17-2.21
			c-0.24-0.45-0.47-0.9-0.69-1.36l-0.81,0.82c-0.63-2.68-1.11-4.76-1.89-7.07L71.93,71.99L71.93,71.99z M70.78,61.68
			c0.65-0.19,1.29-0.39,1.9-0.61c-0.15,1.21-0.58,4.7-0.65,5.19c-0.1,0.73-0.2,1.47-0.3,2.2l2.98-1.94
			c0.22,0.54,0.47,1.08,0.77,1.63l-6.15,3.99C69.68,70.2,70.45,64.9,70.78,61.68L70.78,61.68z M83.31,73.21l-3.2,8.63
			c-2.73-3.99-4.59-7.63-4.76-12.08l0.76-0.49c0.43,1.55,1.6,5.67,3.58,8.56l2.36-6.36C82.44,72.06,82.87,72.64,83.31,73.21
			L83.31,73.21z M90.17,86.8c3.12-2.42,5.47-4.74,7.75-7.47l-1.84-4.98c-1.59,1.81-3.37,3.45-5.08,4.89l-0.82,0.69v1.2
			c1.07-0.5,2.54-1.44,3.31-2.11c-0.77,1.47-1.98,2.37-3.31,3.2v0.95c1.5-0.56,3.91-2.42,5.01-3.44c-1.12,1.97-3.03,3.77-5.01,4.85
			c-1.65-1.36-4.51-4.24-5.71-5.62l1.18-3.13c-0.47-0.48-0.93-0.98-1.38-1.49l-1.84,4.98C84.7,82.05,87.05,84.38,90.17,86.8
			L90.17,86.8z M90.17,78.25c3.09-2.59,6.23-5.7,8.04-9.18l-3.36-5.12c-1.24,1.26-2.56,2.42-3.87,3.5l-0.81,0.66v1.5
			c1.04-0.64,2.24-1.38,2.79-1.84c-0.59,0.96-1.67,2.09-2.79,2.98v1.04c1.67-1,3.52-2.5,4.36-3.2c-0.91,1.47-2.68,3.43-4.36,4.68
			v1.08c1.87-0.76,4.7-3.28,5.77-4.27c-1.12,2.04-3.79,4.82-5.77,5.9c-2.38-2.16-4.62-4.53-5.95-6.84l2.57-3.93
			c-0.44-0.41-0.88-0.84-1.31-1.27l-3.36,5.12C83.93,72.56,87.08,75.66,90.17,78.25L90.17,78.25z M84.58,63l-5.49,8.38
			C75.93,67,74.93,64.8,74.9,60.16c0.64-0.3,1.26-0.62,1.87-0.98c-0.13,1.22,0.02,3.19,0.16,3.97c0.33,1.89,1.02,3.35,2.11,5.03
			l4.14-6.83C83.63,61.92,84.1,62.47,84.58,63L84.58,63z M79.88,55.32c-0.27-0.84-0.46-1.7-0.57-2.59
			c-0.29,0.81-0.93,1.55-1.46,1.97c-2.25,1.79-4.54,2.97-7.15,3.8c0.83-2.7,1.87-5.27,3.56-7.63c0.28-0.39,1.05-1.23,1.99-2.21
			c-0.04-0.07-0.07-0.14-0.1-0.22c-0.04-0.09-0.08-0.17-0.11-0.26c-0.94,0.44-1.9,0.84-2.9,1.19c-2.27,3.03-3.58,6.22-5.01,11.65
			C72.62,60.04,76.3,58.53,79.88,55.32L79.88,55.32z M80.87,48.09c-0.26,1-0.39,1.98-0.39,2.94c0,5.89,4.11,10.87,9.69,15.43
			c5.58-4.56,9.69-9.54,9.69-15.43c0-0.96-0.13-1.94-0.39-2.95c-0.59-0.37-1.55-1.05-2.21-1.53c-0.65,1.53-1.54,3.04-2.64,4.48
			c-0.98,1.46-2.29,2.7-3.62,3.83l-0.83,0.7v1.4c1.33-0.81,2.77-1.83,3.47-2.39c-0.75,1.16-2.08,2.6-3.47,3.77v1.59
			c1.78-1.04,3.92-2.83,4.85-3.58c-1,1.55-3.03,3.72-4.85,4.97v1.41c1.83-0.8,4.71-3.5,5.82-4.52c-1.12,2.04-3.84,4.98-5.82,6.07
			c-4.72-4.18-8.03-8.32-8.03-14.02c0-1.2,0.29-2.19,0.7-3.47l0.03-0.09C82.23,47.18,81.56,47.66,80.87,48.09L80.87,48.09z
			 M108.4,71.99c-1.23,3.12-1.78,5.55-2.58,8.93l-0.88-0.9c0.41-1.24,0.69-2.58,0.68-3.12c-0.36,0.73-0.87,1.63-1.37,2.42l-0.6-0.61
			c1.37-2.54,2.32-5.17,2.56-8.15L108.4,71.99L108.4,71.99z M109.56,61.68c0.32,3.22,1.09,8.52,1.44,10.47l-1.64-1.06
			c0.16-1.32,0.05-2.72-0.08-3.74c-0.14,0.69-0.4,1.92-0.75,3.19l-1.2-0.78c0.22-1.22,0.32-2.43,0.27-3.39
			c-0.18,0.65-0.61,1.71-1.02,2.89l-1.71-1.11c1.27-2.37,1.78-4.46,1.85-7.45C107.62,61.07,108.56,61.39,109.56,61.68L109.56,61.68z
			 M97.02,73.21c0.74-0.93,1.41-1.9,1.98-2.92l2.19,3.35l1.09-1.51c0.76-1.05,1.39-1.98,1.93-2.86l0.76,0.49
			c-0.17,4.45-2.03,8.09-4.76,12.08l-0.39-1.05c1.03-1.48,1.73-3.25,2.06-5.05c-0.56,1.01-1.49,2.6-2.51,3.82l-0.43-1.15
			c0.56-1.12,0.96-2.33,1.18-3.56c-0.38,0.68-0.95,1.56-1.57,2.51l-0.43-1.16c0.3-0.79,0.53-1.83,0.68-2.66
			c-0.25,0.46-0.69,1.13-1.06,1.62L97.02,73.21L97.02,73.21z M95.75,63c1.75-1.92,3.26-4.05,4.23-6.39
			c1.72,1.49,3.51,2.64,5.45,3.55c-0.03,4.64-1.03,6.85-4.19,11.22l-0.95-1.44c1.16-1.35,2.1-2.98,2.64-4.26
			c-0.64,0.73-1.94,2.16-3.29,3.27l-0.72-1.1c0.95-1.2,1.68-2.67,2.14-3.75c-0.55,0.62-1.6,1.78-2.74,2.85l-0.81-1.24
			c0.85-1.11,1.49-2.44,1.91-3.44c-0.5,0.57-1.48,1.53-2.51,2.52L95.75,63z"/>
	</g>
</g>
<g id="Layer_3">
	<g>
		<path class="st16" d="M25.88,135.28c-0.46,0.49-0.96,0.96-1.52,1.4c-0.56,0.45-1.17,0.84-1.84,1.18
			c-0.66,0.34-1.38,0.61-2.15,0.81c-0.77,0.2-1.58,0.3-2.44,0.3c-1.4,0-2.67-0.21-3.8-0.64c-1.14-0.43-2.11-1.05-2.91-1.86
			s-1.43-1.8-1.87-2.96s-0.67-2.48-0.67-3.95c0-1.5,0.25-2.85,0.76-4.05c0.51-1.2,1.15-2.21,1.94-3.04c0.79-0.83,1.65-1.46,2.58-1.9
			s1.83-0.66,2.69-0.66c0.65,0,1.21,0.08,1.69,0.24c0.48,0.16,0.89,0.34,1.22,0.54c0.33,0.2,0.59,0.4,0.77,0.6
			c0.18,0.2,0.3,0.34,0.35,0.41l0.6-1.47h4.12v7.45h-4.69c-0.02-0.42-0.09-0.83-0.21-1.23c-0.12-0.4-0.29-0.76-0.51-1.06
			c-0.22-0.31-0.5-0.55-0.84-0.73s-0.75-0.28-1.22-0.28c-0.47,0-0.9,0.14-1.29,0.41c-0.38,0.27-0.71,0.64-0.98,1.11
			c-0.27,0.47-0.48,1.02-0.63,1.65c-0.15,0.63-0.22,1.3-0.22,2.02c0,0.65,0.08,1.27,0.25,1.86c0.17,0.59,0.41,1.12,0.73,1.57
			c0.32,0.45,0.72,0.82,1.19,1.09c0.47,0.27,1.02,0.41,1.65,0.41c0.54,0,1.06-0.12,1.55-0.37c0.49-0.24,0.92-0.52,1.28-0.83
			c0.37-0.31,0.67-0.59,0.9-0.87s0.38-0.44,0.43-0.51L25.88,135.28z"/>
		<path class="st16" d="M26.93,120.23h8.52c1.52,0,2.75,0.14,3.7,0.42c0.94,0.28,1.68,0.66,2.22,1.15s0.89,1.06,1.08,1.72
			c0.18,0.66,0.28,1.36,0.28,2.11c0,0.51-0.1,0.98-0.29,1.42s-0.46,0.82-0.8,1.14c-0.34,0.32-0.74,0.59-1.21,0.81
			c-0.46,0.22-0.97,0.36-1.51,0.43c0.45,0.07,0.89,0.21,1.3,0.43c0.41,0.22,0.77,0.49,1.09,0.83c0.31,0.33,0.57,0.71,0.76,1.13
			c0.19,0.42,0.29,0.87,0.29,1.34c0,0.56,0.04,1,0.13,1.31c0.09,0.31,0.25,0.47,0.5,0.47c0.4,0,0.6-0.28,0.6-0.84v-0.87h1.76v1.44
			c0,0.54-0.06,1.07-0.18,1.57c-0.12,0.51-0.33,0.95-0.63,1.34c-0.3,0.38-0.69,0.69-1.18,0.93c-0.49,0.24-1.1,0.35-1.84,0.35
			c-1.73,0-3.01-0.43-3.84-1.28c-0.83-0.86-1.25-2.05-1.25-3.59c0-0.59-0.03-1.08-0.08-1.47c-0.05-0.38-0.17-0.69-0.35-0.9
			c-0.18-0.22-0.45-0.37-0.8-0.46s-0.81-0.13-1.39-0.13v4.06h1.6v3.46h-8.47v-3.46h1.47v-11.43h-1.47V120.23z M33.8,123.64v4.46
			h1.18c0.77,0,1.38-0.18,1.84-0.54s0.68-0.89,0.68-1.59c0-0.79-0.21-1.37-0.62-1.76c-0.41-0.38-1-0.58-1.77-0.58H33.8z"/>
		<path class="st16" d="M46.25,120.23h15.81v5.79h-4.54v-2.33h-4.2v3.62h4.98v3.49h-4.98v4.27h4.2v-2.44h4.54v5.93H46.25v-3.49h1.65
			v-11.38h-1.65V120.23z"/>
		<path class="st16" d="M83.9,138.56H73.39v-3.44h2.49l-0.55-1.78h-5.38l-0.55,1.78h2.04v3.44h-8.34v-3.44h1.78l3.54-11.51h-1.08
			v-3.38h10.07l4.64,14.89h1.84V138.56z M70.92,130.19h3.44l-1.73-5.66L70.92,130.19z"/>
		<path class="st16" d="M103.15,124.85c-0.05,0.3-0.11,0.62-0.18,0.97c-0.07,0.35-0.14,0.69-0.21,1.01
			c-0.07,0.32-0.14,0.62-0.21,0.89s-0.12,0.48-0.16,0.64l-2.75,10.2h-5.48l-2.94-10.46c-0.04-0.1-0.08-0.28-0.13-0.51
			c-0.05-0.24-0.1-0.5-0.16-0.8c-0.05-0.3-0.1-0.61-0.16-0.94c-0.05-0.33-0.09-0.66-0.1-1h-0.1v10.33h1.49v3.38h-7.11v-3.38h1.42
			v-11.56h-1.39v-3.38h9.94l2.65,9.81l2.52-9.81h9.99v3.38h-1.44v11.54h1.44v3.41h-8.29v-3.41h1.49v-10.3H103.15z"/>
		<path class="st16" d="M138.47,138.56h-10.51v-3.44h2.49l-0.55-1.78h-5.38l-0.55,1.78h2.04v3.44h-8.34v-3.44h1.78l3.54-11.51h-1.08
			v-3.38h10.07l4.64,14.89h1.84V138.56z M125.49,130.19h3.44l-1.73-5.66L125.49,130.19z"/>
		<path class="st16" d="M139.52,120.23h8.29v3.46h-1.39v11.38h3.38v-3.33h4.41v6.82h-14.68v-3.49h1.44v-11.38h-1.44V120.23z"/>
		<path class="st16" d="M155.51,120.23h15.81v5.79h-4.54v-2.33h-4.2v3.62h4.98v3.49h-4.98v4.27h4.2v-2.44h4.54v5.93h-15.81v-3.49
			h1.65v-11.38h-1.65V120.23z"/>
	</g>
	<g>
		<path class="st16" d="M36.7,105.52c0.01-0.08,0.04-0.15,0.09-0.2c0.05-0.06,0.13-0.08,0.22-0.08h2.25c0.16,0,0.26,0.08,0.31,0.25
			l1.77,5.9l1.78-5.9c0.06-0.16,0.17-0.25,0.33-0.25h2.22c0.08,0,0.15,0.03,0.21,0.08c0.06,0.05,0.1,0.12,0.11,0.2
			c0.15,1.52,0.31,3.04,0.46,4.54s0.31,3.01,0.46,4.54v0.03c0,0.17-0.1,0.25-0.29,0.25h-1.84c-0.2,0-0.3-0.1-0.31-0.29l-0.57-5.02
			l-1.46,5.06c-0.01,0.04-0.04,0.1-0.09,0.16c-0.05,0.06-0.11,0.09-0.16,0.09h-1.71c-0.05,0-0.11-0.03-0.17-0.09
			c-0.06-0.06-0.09-0.11-0.09-0.16l-1.46-5.04l-0.56,5.01c-0.01,0.19-0.12,0.29-0.32,0.29h-1.84c-0.19,0-0.28-0.1-0.28-0.29
			L36.7,105.52z"/>
		<path class="st16" d="M58.6,105.94c0.07,0.04,0.13,0.1,0.16,0.17s0.03,0.15-0.02,0.25l-1.1,1.56c-0.05,0.07-0.1,0.12-0.15,0.13
			s-0.12-0.01-0.2-0.06c-0.21-0.16-0.45-0.28-0.7-0.37c-0.26-0.09-0.53-0.13-0.81-0.13c-0.36,0-0.68,0.07-0.98,0.2
			s-0.56,0.32-0.77,0.55c-0.22,0.23-0.39,0.51-0.51,0.82c-0.12,0.31-0.18,0.65-0.18,1c0,0.36,0.06,0.69,0.18,1
			c0.12,0.31,0.29,0.58,0.51,0.81c0.22,0.23,0.47,0.42,0.77,0.55s0.63,0.2,0.98,0.2c0.29,0,0.56-0.04,0.82-0.13
			c0.26-0.09,0.5-0.21,0.71-0.37c0.08-0.05,0.14-0.07,0.19-0.06c0.05,0.01,0.1,0.05,0.16,0.12l1.11,1.6
			c0.05,0.1,0.05,0.18,0.02,0.24c-0.03,0.07-0.09,0.12-0.16,0.16c-0.41,0.27-0.85,0.48-1.32,0.63c-0.47,0.15-0.96,0.22-1.48,0.22
			c-0.46,0-0.9-0.06-1.32-0.18c-0.42-0.12-0.82-0.28-1.19-0.5c-0.37-0.22-0.7-0.48-1-0.78c-0.3-0.3-0.56-0.63-0.78-1
			c-0.22-0.37-0.38-0.76-0.5-1.18s-0.18-0.86-0.18-1.32s0.06-0.9,0.18-1.32s0.28-0.82,0.5-1.19c0.22-0.37,0.48-0.71,0.78-1.01
			s0.64-0.56,1-0.78s0.76-0.38,1.19-0.5s0.86-0.18,1.32-0.18c0.52,0,1.01,0.07,1.47,0.22S58.19,105.66,58.6,105.94z"/>
		<path class="st16" d="M68.51,107.96c-0.22-0.16-0.46-0.28-0.71-0.36c-0.25-0.09-0.52-0.13-0.81-0.13c-0.36,0-0.69,0.07-0.99,0.21
			c-0.3,0.14-0.56,0.32-0.77,0.56c-0.21,0.23-0.38,0.51-0.5,0.82s-0.18,0.65-0.18,1s0.06,0.69,0.18,1c0.12,0.31,0.29,0.58,0.5,0.82
			c0.21,0.23,0.47,0.42,0.77,0.55c0.3,0.13,0.63,0.2,0.99,0.2c0.15,0,0.3-0.01,0.45-0.03c0.15-0.02,0.31-0.05,0.48-0.08v-1.7
			c0-0.08,0.02-0.15,0.07-0.2c0.05-0.05,0.12-0.08,0.21-0.08h1.77c0.06,0,0.13,0.03,0.21,0.08c0.07,0.05,0.11,0.12,0.11,0.21v3.15
			c0,0.12-0.06,0.21-0.19,0.29c-0.2,0.14-0.43,0.26-0.68,0.36c-0.25,0.1-0.5,0.18-0.77,0.25c-0.27,0.06-0.54,0.11-0.82,0.15
			s-0.54,0.05-0.8,0.05c-0.46,0-0.9-0.06-1.32-0.18c-0.42-0.12-0.82-0.28-1.19-0.5c-0.37-0.22-0.7-0.48-1-0.78
			c-0.3-0.3-0.56-0.63-0.78-1c-0.22-0.37-0.38-0.76-0.5-1.18c-0.12-0.42-0.18-0.86-0.18-1.32s0.06-0.9,0.18-1.32
			c0.12-0.42,0.28-0.82,0.5-1.19c0.22-0.37,0.48-0.71,0.78-1.01c0.3-0.3,0.64-0.56,1-0.78c0.37-0.21,0.76-0.38,1.19-0.5
			s0.86-0.18,1.32-0.18c0.52,0,1.01,0.07,1.47,0.22s0.9,0.35,1.3,0.63c0.07,0.04,0.13,0.1,0.17,0.17c0.04,0.07,0.03,0.15-0.03,0.24
			l-1.05,1.52c-0.06,0.07-0.11,0.12-0.17,0.14C68.68,108.04,68.6,108.02,68.51,107.96z"/>
		<path class="st16" d="M74.33,110.07c0-0.46,0.06-0.9,0.18-1.32c0.12-0.42,0.28-0.82,0.5-1.19c0.22-0.37,0.48-0.71,0.78-1.01
			c0.3-0.3,0.64-0.56,1-0.78c0.37-0.21,0.76-0.38,1.19-0.5c0.42-0.12,0.86-0.18,1.32-0.18c0.46,0,0.9,0.06,1.32,0.18
			s0.82,0.29,1.19,0.5c0.37,0.21,0.7,0.47,1.01,0.78c0.3,0.3,0.56,0.64,0.78,1.01c0.21,0.37,0.38,0.77,0.5,1.19s0.18,0.86,0.18,1.32
			s-0.06,0.9-0.18,1.32s-0.29,0.82-0.5,1.18c-0.21,0.37-0.47,0.7-0.78,1c-0.3,0.3-0.64,0.56-1.01,0.78
			c-0.37,0.22-0.77,0.38-1.19,0.5c-0.42,0.12-0.86,0.18-1.32,0.18c-0.46,0-0.9-0.06-1.32-0.18c-0.42-0.12-0.82-0.28-1.19-0.5
			c-0.37-0.22-0.7-0.48-1-0.78c-0.3-0.3-0.56-0.63-0.78-1s-0.38-0.76-0.5-1.18C74.39,110.97,74.33,110.53,74.33,110.07z
			 M76.85,110.06c0,0.36,0.06,0.69,0.18,1.01c0.12,0.31,0.29,0.58,0.51,0.82c0.22,0.23,0.48,0.41,0.78,0.55
			c0.3,0.13,0.63,0.2,0.99,0.2s0.69-0.07,0.99-0.2c0.3-0.13,0.56-0.31,0.78-0.55c0.22-0.23,0.39-0.5,0.51-0.82s0.18-0.65,0.18-1.01
			c0-0.36-0.06-0.69-0.18-1c-0.12-0.31-0.29-0.59-0.51-0.82c-0.22-0.23-0.48-0.42-0.78-0.55s-0.63-0.2-0.99-0.2s-0.69,0.07-0.99,0.2
			s-0.56,0.32-0.78,0.55c-0.22,0.23-0.39,0.51-0.51,0.82C76.91,109.37,76.85,109.71,76.85,110.06z"/>
		<path class="st16" d="M90.41,114.75c-0.04-0.07-0.08-0.15-0.12-0.23c-0.04-0.08-0.07-0.16-0.1-0.23
			c-0.56-1.47-1.12-2.93-1.67-4.38c-0.55-1.45-1.11-2.91-1.67-4.38c0-0.02,0-0.04-0.01-0.06s-0.01-0.03-0.01-0.05
			c0-0.12,0.08-0.18,0.24-0.18h2.09c0.16,0,0.28,0.08,0.34,0.25l1.99,5.92l1.84-5.92c0.06-0.16,0.18-0.25,0.36-0.25h2.11
			c0.1,0,0.17,0.02,0.21,0.06s0.06,0.09,0.06,0.15c0,0.03,0,0.06-0.01,0.07v0.02l-1.16,3.31l0.87,2.55l2.11-5.91
			c0.06-0.16,0.18-0.25,0.36-0.25h2.05c0.1,0,0.17,0.02,0.21,0.06s0.06,0.09,0.06,0.15c0,0.03,0,0.06-0.01,0.07v0.02
			c-0.29,0.76-0.6,1.52-0.9,2.28c-0.31,0.76-0.62,1.52-0.93,2.27c-0.31,0.76-0.62,1.52-0.92,2.28c-0.31,0.76-0.6,1.52-0.89,2.28
			c-0.02,0.05-0.06,0.1-0.12,0.16c-0.06,0.06-0.13,0.09-0.22,0.09h-0.02h-1.57c-0.1,0-0.17-0.02-0.22-0.06s-0.09-0.09-0.11-0.15
			l-1.03-2.7c-0.15,0.39-0.29,0.78-0.44,1.16c-0.14,0.38-0.29,0.77-0.43,1.16c-0.02,0.06-0.05,0.12-0.07,0.19s-0.06,0.13-0.1,0.19
			c-0.04,0.06-0.08,0.11-0.13,0.15s-0.11,0.06-0.17,0.06h-0.02h-1.57C90.54,114.88,90.45,114.84,90.41,114.75z"/>
		<path class="st16" d="M105.81,105.49c0-0.03,0.02-0.05,0.04-0.08s0.05-0.06,0.09-0.08c0.03-0.03,0.07-0.05,0.11-0.06
			c0.04-0.02,0.08-0.02,0.11-0.02h1.66c0.07,0,0.14,0.02,0.19,0.07c0.05,0.05,0.09,0.09,0.12,0.12l0.16,0.37l3.41,8.8
			c0.03,0.09,0.03,0.16-0.02,0.21c-0.05,0.05-0.13,0.08-0.25,0.08h-1.86c-0.1,0-0.18-0.02-0.23-0.06s-0.1-0.1-0.13-0.19
			c-0.09-0.22-0.17-0.44-0.25-0.66c-0.08-0.22-0.17-0.44-0.25-0.66h-3.45c-0.08,0.22-0.17,0.44-0.25,0.66s-0.17,0.44-0.25,0.66
			c-0.06,0.16-0.17,0.24-0.33,0.24h-1.92c-0.08,0-0.15-0.02-0.2-0.06s-0.06-0.11-0.03-0.19L105.81,105.49z M107,108.27
			c-0.08,0.22-0.17,0.46-0.25,0.71c-0.08,0.26-0.17,0.51-0.25,0.77c-0.08,0.26-0.17,0.52-0.25,0.77s-0.17,0.49-0.25,0.71h2
			L107,108.27z"/>
		<path class="st16" d="M115.63,105.52c0-0.08,0.02-0.15,0.07-0.2s0.12-0.08,0.21-0.08h2.12c0.06,0,0.12,0.02,0.19,0.05
			s0.12,0.08,0.17,0.16c0.55,0.89,1.1,1.76,1.64,2.63c0.54,0.86,1.09,1.74,1.64,2.62v-5.21c0.02-0.08,0.05-0.14,0.1-0.18
			c0.05-0.04,0.11-0.06,0.18-0.06h1.85c0.09,0,0.17,0.02,0.23,0.07c0.06,0.05,0.09,0.12,0.09,0.21v9.11c0,0.09-0.03,0.15-0.08,0.19
			c-0.05,0.04-0.12,0.06-0.21,0.06h-2.07c-0.06,0-0.11-0.02-0.15-0.06c-0.04-0.04-0.09-0.09-0.14-0.16
			c-0.58-0.95-1.15-1.9-1.71-2.83c-0.56-0.93-1.13-1.87-1.72-2.83v5.58c0,0.1-0.02,0.17-0.06,0.21c-0.04,0.05-0.12,0.07-0.23,0.07
			h-1.85c-0.1,0-0.17-0.03-0.22-0.08c-0.05-0.05-0.07-0.12-0.07-0.2V105.52z"/>
		<path class="st16" d="M128.61,105.51c0-0.09,0.02-0.16,0.07-0.21c0.05-0.05,0.12-0.08,0.21-0.08h1.57c0.07,0,0.14,0.03,0.2,0.08
			c0.06,0.05,0.09,0.12,0.09,0.21v1.4c0,0.19-0.01,0.37-0.02,0.55c-0.03,0.34-0.13,0.65-0.32,0.93c-0.19,0.28-0.45,0.52-0.79,0.72
			c0,0-0.02,0.01-0.05,0.02c-0.03,0.01-0.06,0.02-0.09,0.03s-0.06,0.02-0.09,0.02c-0.03,0.01-0.05,0.01-0.06,0.01
			c-0.03,0-0.06-0.01-0.08-0.03c-0.02-0.02-0.05-0.04-0.07-0.06l-0.25-0.19c-0.07-0.05-0.12-0.1-0.13-0.13
			c-0.01-0.04-0.02-0.07-0.02-0.11c0-0.05,0.03-0.1,0.09-0.16c0.06-0.06,0.12-0.13,0.19-0.21c0.07-0.08,0.14-0.18,0.19-0.28
			s0.09-0.22,0.09-0.36v-0.29c0-0.08-0.04-0.12-0.12-0.14h-0.37c-0.09,0-0.15-0.03-0.2-0.08c-0.05-0.05-0.07-0.12-0.07-0.21V105.51z
			"/>
		<path class="st16" d="M136.29,111.77c0.07,0.06,0.17,0.14,0.28,0.24c0.11,0.1,0.25,0.2,0.39,0.3c0.22,0.15,0.44,0.26,0.66,0.34
			c0.22,0.08,0.44,0.12,0.68,0.12c0.22,0,0.41-0.02,0.56-0.07c0.15-0.05,0.27-0.12,0.35-0.2c0.09-0.08,0.15-0.18,0.19-0.29
			c0.04-0.11,0.06-0.22,0.06-0.34c0-0.13-0.05-0.25-0.15-0.36c-0.1-0.11-0.23-0.2-0.37-0.28c-0.15-0.08-0.3-0.15-0.46-0.21
			c-0.16-0.06-0.3-0.11-0.42-0.15c-0.52-0.18-0.98-0.38-1.36-0.59c-0.39-0.21-0.71-0.44-0.97-0.7c-0.26-0.26-0.46-0.54-0.58-0.85
			s-0.19-0.65-0.19-1.04c0-0.4,0.08-0.77,0.24-1.1s0.39-0.61,0.7-0.84c0.3-0.23,0.66-0.41,1.09-0.54c0.42-0.13,0.9-0.19,1.42-0.19
			c0.39,0,0.77,0.04,1.13,0.13c0.36,0.09,0.72,0.23,1.07,0.43c0.15,0.09,0.29,0.18,0.42,0.27s0.25,0.18,0.35,0.27
			c0.1,0.09,0.18,0.17,0.24,0.25c0.06,0.08,0.09,0.15,0.09,0.2c0,0.06-0.01,0.11-0.04,0.16c-0.03,0.05-0.07,0.1-0.13,0.16
			l-0.99,1.06c-0.07,0.07-0.15,0.11-0.22,0.11c-0.06,0-0.12-0.02-0.17-0.05s-0.1-0.08-0.17-0.13l-0.06-0.05
			c-0.09-0.07-0.18-0.15-0.29-0.23s-0.22-0.15-0.34-0.21c-0.12-0.06-0.25-0.11-0.38-0.16s-0.27-0.06-0.41-0.06
			c-0.14,0-0.28,0.01-0.4,0.04c-0.13,0.02-0.24,0.06-0.33,0.11c-0.1,0.05-0.17,0.12-0.23,0.2c-0.06,0.08-0.08,0.19-0.08,0.31
			s0.03,0.23,0.09,0.31c0.06,0.09,0.15,0.17,0.27,0.25c0.12,0.08,0.27,0.15,0.45,0.21c0.18,0.07,0.39,0.14,0.63,0.22
			c0.46,0.15,0.88,0.31,1.27,0.48c0.39,0.17,0.72,0.36,1,0.59c0.28,0.23,0.5,0.5,0.66,0.82c0.16,0.32,0.24,0.7,0.24,1.15
			c0,0.48-0.1,0.91-0.29,1.3s-0.46,0.72-0.8,0.99c-0.34,0.27-0.74,0.48-1.2,0.63c-0.46,0.15-0.95,0.22-1.48,0.22
			c-0.5,0-0.99-0.09-1.47-0.27c-0.48-0.18-0.93-0.42-1.34-0.72c-0.17-0.13-0.32-0.25-0.44-0.37s-0.21-0.22-0.28-0.29l-0.02-0.02
			c0-0.01-0.01-0.01-0.01-0.02c0,0-0.01-0.01-0.01-0.01c0-0.01-0.01-0.01-0.01-0.02c0,0-0.01-0.01-0.01-0.01
			c-0.1-0.11-0.15-0.2-0.15-0.26c0-0.07,0.05-0.16,0.15-0.25l1.12-1.07c0.09-0.06,0.17-0.1,0.22-0.1c0.04,0,0.08,0.01,0.12,0.04
			C136.18,111.67,136.23,111.71,136.29,111.77z"/>
	</g>
</g>
</svg>
