<?xml version="1.0" encoding="utf-8"?>
<!-- Generator: Adobe Illustrator 28.1.0, SVG Export Plug-In . SVG Version: 6.00 Build 0)  -->
<svg version="1.1" id="Layer_1" xmlns="http://www.w3.org/2000/svg" xmlns:xlink="http://www.w3.org/1999/xlink" x="0px" y="0px"
	 viewBox="0 0 180 180" style="enable-background:new 0 0 180 180;" xml:space="preserve">
<style type="text/css">
	.st0{display:none;}
	.st1{display:inline;fill:#D9B767;}
	.st2{fill:#1B4092;}
	.st3{fill:#CE9E57;}
	.st4{fill:#E52723;}
	.st5{fill:#D7DEDB;}
	.st6{clip-path:url(#SVGID_00000027569155348844059820000015710094436695262638_);}
</style>
<g id="Backgrounds" class="st0">
	<rect class="st1" width="179.1" height="179"/>
</g>
<g id="Layer_3">
</g>
<rect x="-4.2" y="-1.5" transform="matrix(-1 -1.224647e-16 1.224647e-16 -1 180 180)" class="st2" width="188.4" height="183.1"/>
<g>
	<g>
		<path class="st3" d="M8.4,108.7V4.8h104L8.4,108.7z M9.3,5.6v101l101-101H9.3z"/>
	</g>
	<g>
		<path class="st3" d="M171.6,108.7l-104-104h104V108.7z M69.8,5.6l101,101V5.6H69.8z"/>
	</g>
	<g>
		<g>
			<path class="st4" d="M90,171l-61.6-61.6L90,47.7l61.6,61.6L90,171z M32.7,109.4L90,166.7l57.3-57.3L90,52.1L32.7,109.4z"/>
		</g>
	</g>
	<g>
		<path class="st3" d="M28.4,60.5V24.8h35.7L28.4,60.5z M29.3,25.6v32.7L62,25.6H29.3z"/>
	</g>
	<g>
		<path class="st3" d="M151.6,60.5l-35.7-35.7h35.7V60.5z M118,25.6l32.7,32.7V25.6H118z"/>
	</g>
	<polygon class="st4" points="35,31.4 48,31.4 35,44.4 	"/>
	<g>
		<g>
			<path class="st3" d="M64.1,163.6H28.4v-35.7L64.1,163.6z M29.3,162.7H62L29.3,130V162.7z"/>
		</g>
		<polygon class="st4" points="35,157 35,144 48,157 		"/>
	</g>
	<polygon class="st4" points="132,31.4 145,31.4 145,44.4 	"/>
	<g>
		<g>
			<path class="st3" d="M151.6,163.6h-35.7l35.7-35.7V163.6z M118,162.7h32.7V130L118,162.7z"/>
		</g>
		<polygon class="st4" points="132,157 145,144 145,157 		"/>
	</g>
	<g>
		<path class="st5" d="M13.9,95.3v-85h85L13.9,95.3z M14.8,11.2v82l82-82H14.8z"/>
	</g>
	<g>
		<path class="st5" d="M166.1,95.3l-85-85h85V95.3z M83.2,11.2l82,82v-82H83.2z"/>
	</g>
	<g>
		<defs>
			<rect id="SVGID_1_" x="8.4" y="-0.2" width="163.2" height="177"/>
		</defs>
		<clipPath id="SVGID_00000147222394413632453190000000785534664316024960_">
			<use xlink:href="#SVGID_1_"  style="overflow:visible;"/>
		</clipPath>
		<g style="clip-path:url(#SVGID_00000147222394413632453190000000785534664316024960_);">
			<polygon class="st3" points="-3.4,129.9 -3.4,131.2 144.2,-16.5 143,-16.5 			"/>
		</g>
		<g style="clip-path:url(#SVGID_00000147222394413632453190000000785534664316024960_);">
			<polygon class="st3" points="183.4,131.2 183.4,129.9 37,-16.5 35.8,-16.5 			"/>
		</g>
	</g>
	<g>
		<path class="st5" d="M46.2,99.2h3.2v15.7h-3.2V99.2z M49.3,99.2h4.3v2.9h-4.3V99.2z M49.3,106.1h3.5v2.7h-3.5V106.1z M49.3,112
			h4.3v2.9h-4.3V112z"/>
		<path class="st5" d="M56.1,114.9l1.8-15.7h2.7L59.9,110l-0.4,4.9H56.1z M58.2,111.6V109h5.1v2.7H58.2z M59.7,101.9v-2.7H62v2.7
			H59.7z M62.2,114.9l-0.4-4.9L61,99.2h2.7l1.8,15.7H62.2z"/>
		<path class="st5" d="M72.6,98.9c1,0,1.9,0.2,2.5,0.5s1,0.8,1.3,1.5c0.3,0.7,0.4,1.5,0.4,2.5l-0.1,1.3h-3.1v-1
			c0-0.8-0.1-1.3-0.2-1.6c-0.1-0.3-0.4-0.5-0.8-0.5c-0.4,0-0.7,0.1-0.8,0.4c-0.1,0.2-0.2,0.7-0.2,1.3c0,0.6,0.1,1,0.4,1.5
			c0.3,0.4,0.6,0.8,1,1.1c0.4,0.3,0.8,0.6,1.3,0.9c0.5,0.3,0.9,0.7,1.3,1.1c0.4,0.4,0.7,0.9,1,1.4c0.3,0.5,0.4,1.2,0.4,2
			c0,1.3-0.3,2.3-1,3c-0.7,0.7-1.8,1.1-3.4,1.1c-1.6,0-2.7-0.3-3.3-1c-0.6-0.7-1-1.7-1-3.1l0.1-0.8h3.1v0.7c0,0.7,0.1,1.1,0.2,1.4
			c0.2,0.3,0.4,0.4,0.9,0.4c0.4,0,0.7-0.1,0.9-0.3c0.2-0.2,0.3-0.6,0.3-1.2c0-0.5-0.1-0.9-0.4-1.3c-0.3-0.4-0.6-0.7-1-1
			s-0.8-0.6-1.3-0.9c-0.4-0.3-0.9-0.7-1.3-1.1c-0.4-0.4-0.7-0.9-1-1.6c-0.3-0.6-0.4-1.4-0.4-2.3c0-1.4,0.3-2.4,1-3.1
			C70,99.3,71,98.9,72.6,98.9z"/>
		<path class="st5" d="M79.3,99.2h8.5v2.9h-8.5V99.2z M81.9,99.2h3.3v15.7h-3.3V99.2z"/>
		<path class="st5" d="M99.1,98.9c1,0,1.9,0.2,2.5,0.5c0.6,0.3,1,0.8,1.3,1.5c0.3,0.7,0.4,1.5,0.4,2.5l-0.1,1.3h-3.1v-1
			c0-0.8-0.1-1.3-0.2-1.6c-0.1-0.3-0.4-0.5-0.8-0.5c-0.4,0-0.7,0.1-0.8,0.4c-0.1,0.2-0.2,0.7-0.2,1.3c0,0.6,0.1,1,0.4,1.5
			c0.3,0.4,0.6,0.8,1,1.1c0.4,0.3,0.8,0.6,1.3,0.9c0.5,0.3,0.9,0.7,1.3,1.1c0.4,0.4,0.7,0.9,1,1.4c0.3,0.5,0.4,1.2,0.4,2
			c0,1.3-0.3,2.3-1,3c-0.7,0.7-1.8,1.1-3.4,1.1c-1.6,0-2.7-0.3-3.3-1c-0.6-0.7-1-1.7-1-3.1l0.1-0.8H98v0.7c0,0.7,0.1,1.1,0.2,1.4
			c0.2,0.3,0.4,0.4,0.9,0.4c0.4,0,0.7-0.1,0.9-0.3c0.2-0.2,0.3-0.6,0.3-1.2c0-0.5-0.1-0.9-0.4-1.3c-0.3-0.4-0.6-0.7-1-1
			s-0.8-0.6-1.3-0.9s-0.9-0.7-1.3-1.1c-0.4-0.4-0.7-0.9-1-1.6c-0.3-0.6-0.4-1.4-0.4-2.3c0-1.4,0.3-2.4,1-3.1
			C96.5,99.3,97.6,98.9,99.1,98.9z"/>
		<path class="st5" d="M106.8,99.2h3.3v15.7h-3.3V99.2z"/>
		<path class="st5" d="M113.9,99.2h3.2v15.7h-3.2V99.2z M117.6,112.2c0.3,0,0.6-0.1,0.9-0.2c0.2-0.1,0.4-0.4,0.6-0.8
			c0.1-0.4,0.2-0.9,0.3-1.6c0.1-0.7,0.1-1.6,0.1-2.7c0-1.1,0-2-0.1-2.6c-0.1-0.7-0.2-1.2-0.3-1.5c-0.1-0.3-0.3-0.6-0.6-0.7
			c-0.2-0.1-0.5-0.2-0.9-0.2h-1v-2.7h0.8c1,0,1.8,0.1,2.5,0.4c0.7,0.2,1.2,0.6,1.7,1.2c0.4,0.6,0.8,1.4,1,2.4c0.2,1,0.3,2.3,0.3,3.8
			c0,1.5-0.1,2.8-0.3,3.8c-0.2,1-0.5,1.8-1,2.5c-0.4,0.6-1,1-1.7,1.3s-1.5,0.4-2.5,0.4h-0.8v-2.7H117.6z"/>
		<path class="st5" d="M126.2,99.2h3.2v15.7h-3.2V99.2z M129.2,99.2h4.3v2.9h-4.3V99.2z M129.2,106.1h3.5v2.7h-3.5V106.1z
			 M129.2,112h4.3v2.9h-4.3V112z"/>
	</g>
	<g>
		<path class="st3" d="M61.9,85.5c0.4,0,0.6,0.1,0.8,0.2c0.2,0.1,0.3,0.3,0.4,0.6c0.1,0.3,0.1,0.6,0.1,1l0,1.6h-0.6v-1.6
			c0-0.3,0-0.5-0.1-0.7c0-0.2-0.1-0.3-0.2-0.4c-0.1-0.1-0.3-0.1-0.5-0.1c-0.2,0-0.3,0-0.5,0.1c-0.1,0.1-0.2,0.2-0.2,0.4
			c0,0.2-0.1,0.4-0.1,0.7V90c0,0.3,0,0.6,0.1,0.8c0.1,0.2,0.2,0.3,0.4,0.4s0.4,0.1,0.7,0.1h0.9v0.6l-0.9,0c-0.4,0-0.8-0.1-1.1-0.2
			c-0.3-0.1-0.5-0.3-0.6-0.6c-0.1-0.3-0.2-0.7-0.2-1.2v-2.7c0-0.4,0-0.8,0.1-1c0.1-0.3,0.2-0.5,0.5-0.6
			C61.3,85.5,61.5,85.5,61.9,85.5z"/>
		<path class="st3" d="M65.4,91.3L65.4,91.3l1.6,0.1v0.6h-2.3l0-0.6l1.6-3.3l0,0h-1.5v-0.6H67l0,0.6L65.4,91.3z"/>
		<path class="st3" d="M70.9,90.1h-2.1v-0.5h1.6v-0.7c0-0.4,0-0.6-0.1-0.8c-0.1-0.2-0.2-0.2-0.5-0.2c-0.2,0-0.4,0.1-0.5,0.2
			c-0.1,0.2-0.1,0.4-0.1,0.8v1.4c0,0.3,0,0.5,0.1,0.6c0.1,0.2,0.1,0.3,0.3,0.3c0.1,0.1,0.3,0.1,0.6,0.1h0.8v0.5L70,92
			c-0.4,0-0.7-0.1-1-0.2c-0.2-0.1-0.4-0.3-0.5-0.5s-0.2-0.6-0.2-0.9v-1.4c0-0.4,0-0.6,0.1-0.9c0.1-0.2,0.2-0.4,0.4-0.5
			c0.2-0.1,0.4-0.2,0.7-0.2c0.3,0,0.5,0.1,0.7,0.2c0.2,0.1,0.3,0.3,0.4,0.5c0.1,0.2,0.1,0.5,0.1,0.9L70.9,90.1z"/>
		<path class="st3" d="M73.6,87.3c0.3,0,0.5,0.1,0.7,0.2c0.2,0.1,0.3,0.3,0.4,0.5c0.1,0.2,0.1,0.5,0.1,0.8l0,1h-0.6v-1
			c0-0.2,0-0.4,0-0.5c0-0.1-0.1-0.2-0.2-0.3c-0.1-0.1-0.2-0.1-0.3-0.1c-0.2,0-0.4,0.1-0.5,0.2c-0.1,0.1-0.1,0.4-0.1,0.7v1.5
			c0,0.3,0,0.5,0.1,0.6c0.1,0.2,0.1,0.3,0.3,0.3c0.1,0.1,0.3,0.1,0.6,0.1h0.8v0.5L74,92c-0.4,0-0.7-0.1-0.9-0.2
			c-0.2-0.1-0.4-0.3-0.5-0.5c-0.1-0.2-0.1-0.6-0.1-1v-1.5c0-0.5,0.1-0.9,0.3-1.1C72.9,87.5,73.2,87.3,73.6,87.3z"/>
		<path class="st3" d="M78,87.3c0.3,0,0.5,0.1,0.6,0.2c0.1,0.1,0.3,0.3,0.3,0.5c0.1,0.2,0.1,0.5,0.1,0.8v3.2h-0.6v-3.2
			c0-0.3,0-0.5-0.1-0.6c-0.1-0.1-0.2-0.2-0.4-0.2c-0.2,0-0.3,0.1-0.5,0.2c-0.2,0.1-0.3,0.2-0.4,0.4v3.5h-0.6v-6.3H77v1.6
			c0,0.1,0,0.2,0,0.4c0,0.1,0,0.2,0,0.3c0.1-0.1,0.1-0.2,0.2-0.2c0.1-0.1,0.2-0.2,0.3-0.2C77.7,87.4,77.8,87.3,78,87.3z"/>
		<path class="st3" d="M84.1,85.5c0.3,0,0.6,0.1,0.8,0.2c0.2,0.1,0.4,0.3,0.5,0.6c0.1,0.3,0.1,0.6,0.1,1l0,0.7h-0.6v-0.7
			c0-0.4-0.1-0.7-0.2-0.9c-0.1-0.2-0.3-0.2-0.6-0.2c-0.3,0-0.5,0.1-0.6,0.2c-0.1,0.1-0.2,0.4-0.2,0.8c0,0.3,0.1,0.5,0.2,0.7
			c0.1,0.2,0.2,0.4,0.4,0.5s0.3,0.3,0.5,0.4c0.2,0.1,0.4,0.3,0.5,0.4c0.2,0.2,0.3,0.3,0.4,0.6c0.1,0.2,0.2,0.5,0.2,0.8
			c0,0.5-0.1,0.9-0.4,1.2C85,91.9,84.6,92,84.1,92c-0.5,0-0.8-0.1-1.1-0.4c-0.2-0.2-0.4-0.6-0.4-1.2l0-0.4h0.6v0.4
			c0,0.4,0.1,0.6,0.2,0.8s0.3,0.2,0.6,0.2c0.3,0,0.5-0.1,0.6-0.2c0.1-0.1,0.2-0.4,0.2-0.7c0-0.2-0.1-0.4-0.2-0.6
			c-0.1-0.2-0.2-0.3-0.4-0.4c-0.2-0.1-0.3-0.3-0.5-0.4c-0.2-0.1-0.4-0.3-0.5-0.5c-0.2-0.2-0.3-0.4-0.4-0.6c-0.1-0.2-0.2-0.6-0.2-0.9
			c0-0.5,0.1-0.9,0.4-1.2C83.3,85.6,83.7,85.5,84.1,85.5z"/>
		<path class="st3" d="M86.9,87.4H89V88h-2.1V87.4z M88.7,91.4H89v0.5l-0.4,0c-0.4,0-0.7-0.1-0.9-0.3c-0.2-0.2-0.3-0.5-0.3-0.9v-2.9
			l0-0.2l0.1-1.4h0.6v4.4c0,0.3,0.1,0.5,0.2,0.6C88.3,91.4,88.5,91.4,88.7,91.4z"/>
		<path class="st3" d="M92.7,87.4L92,91.9c-0.1,0.4-0.2,0.7-0.3,0.9c-0.1,0.2-0.3,0.4-0.5,0.4c-0.2,0.1-0.5,0.1-0.8,0.1l-0.3,0v-0.6
			c0.3,0,0.5,0,0.6-0.1c0.2,0,0.3-0.1,0.4-0.2c0.1-0.1,0.2-0.3,0.2-0.6h-0.7L90,87.4h0.7l0.4,2.5l0.2,1.5h0.3l0.6-3.9H92.7z"/>
		<path class="st3" d="M95.2,91.4h0.2v0.5L95,92c-0.2,0-0.4,0-0.5-0.1c-0.1-0.1-0.2-0.2-0.3-0.3c-0.1-0.1-0.1-0.3-0.1-0.5v-5.4h0.6
			V91c0,0.2,0,0.3,0.1,0.4C94.9,91.4,95,91.4,95.2,91.4z"/>
		<path class="st3" d="M99.1,90.1h-2.1v-0.5h1.6v-0.7c0-0.4,0-0.6-0.1-0.8s-0.2-0.2-0.5-0.2c-0.2,0-0.4,0.1-0.5,0.2
			s-0.1,0.4-0.1,0.8v1.4c0,0.3,0,0.5,0.1,0.6c0.1,0.2,0.1,0.3,0.3,0.3c0.1,0.1,0.3,0.1,0.6,0.1H99v0.5l-0.8,0c-0.4,0-0.7-0.1-1-0.2
			c-0.2-0.1-0.4-0.3-0.5-0.5s-0.1-0.6-0.1-0.9v-1.4c0-0.4,0-0.6,0.1-0.9c0.1-0.2,0.2-0.4,0.4-0.5c0.2-0.1,0.4-0.2,0.7-0.2
			c0.3,0,0.5,0.1,0.7,0.2c0.2,0.1,0.3,0.3,0.4,0.5c0.1,0.2,0.1,0.5,0.1,0.9L99.1,90.1z"/>
		<path class="st3" d="M102.8,85.6h0.7v6.3h-0.7V85.6z M103.4,91.3h1.7v0.6h-1.7V91.3z"/>
		<path class="st3" d="M108.9,90.8l0.1,1.1l-0.6,0l-0.1-0.5c0,0.1-0.1,0.2-0.2,0.2c-0.1,0.1-0.2,0.2-0.3,0.2
			c-0.1,0.1-0.3,0.1-0.4,0.1c-0.4,0-0.7-0.1-0.8-0.4s-0.3-0.7-0.3-1.2V89c0-0.5,0.1-0.9,0.3-1.2c0.2-0.3,0.6-0.5,1-0.5
			c0.2,0,0.3,0,0.5,0c0.2,0,0.3,0.1,0.5,0.1c0.1,0,0.2,0.1,0.3,0.1V90.8z M107.5,91.4c0.1,0,0.2,0,0.3-0.1c0.1-0.1,0.2-0.1,0.3-0.2
			c0.1-0.1,0.1-0.2,0.2-0.2v-2.9c-0.1,0-0.2-0.1-0.3-0.1c-0.1,0-0.2,0-0.3,0c-0.2,0-0.4,0.1-0.5,0.3c-0.1,0.2-0.2,0.5-0.2,0.8v1.3
			c0,0.4,0,0.6,0.1,0.8C107.2,91.4,107.4,91.4,107.5,91.4z"/>
		<path class="st3" d="M111.9,93.5c-0.5,0-0.9-0.1-1.1-0.3c-0.2-0.2-0.3-0.5-0.3-0.8c0-0.2,0-0.3,0.1-0.5c0.1-0.1,0.1-0.3,0.2-0.4
			c0.1-0.1,0.2-0.2,0.3-0.2l0.4,0.3c-0.1,0.1-0.2,0.2-0.3,0.3c-0.1,0.1-0.1,0.3-0.1,0.5c0,0.2,0.1,0.4,0.2,0.5
			c0.1,0.1,0.4,0.1,0.6,0.1c0.3,0,0.5,0,0.6-0.1c0.1-0.1,0.2-0.3,0.2-0.5c0-0.2-0.1-0.4-0.2-0.4c-0.1-0.1-0.3-0.1-0.6-0.1H111
			l-0.3-0.5l0.5-0.9l0.5,0.2l-0.4,0.7l0,0h0.7c0.4,0,0.7,0.1,0.9,0.3c0.2,0.2,0.3,0.5,0.3,0.8c0,0.4-0.1,0.7-0.4,0.9
			C112.7,93.4,112.4,93.5,111.9,93.5z M111.9,90.6c-0.3,0-0.5-0.1-0.7-0.2c-0.2-0.1-0.3-0.3-0.4-0.5c-0.1-0.2-0.1-0.6-0.1-1
			c0-0.6,0.1-1,0.3-1.3c0.2-0.2,0.5-0.4,1-0.4c0.4,0,0.8,0.1,1,0.4c0.2,0.2,0.3,0.7,0.3,1.3c0,0.4,0,0.7-0.1,1s-0.2,0.4-0.4,0.5
			C112.4,90.6,112.2,90.6,111.9,90.6z M111.9,90.1c0.2,0,0.4-0.1,0.5-0.2c0.1-0.2,0.1-0.5,0.1-0.9c0-0.3,0-0.5-0.1-0.7
			c0-0.2-0.1-0.3-0.2-0.3c-0.1-0.1-0.2-0.1-0.4-0.1c-0.2,0-0.3,0-0.4,0.1c-0.1,0.1-0.2,0.2-0.2,0.3c0,0.2-0.1,0.4-0.1,0.7
			c0,0.4,0,0.7,0.1,0.9C111.5,90,111.6,90.1,111.9,90.1z M112.9,88l-0.4-0.5l0.6-0.5l0.3,0.4L112.9,88z"/>
		<path class="st3" d="M117.2,90.1H115v-0.5h1.6v-0.7c0-0.4,0-0.6-0.1-0.8c-0.1-0.2-0.2-0.2-0.5-0.2c-0.2,0-0.4,0.1-0.5,0.2
			c-0.1,0.2-0.1,0.4-0.1,0.8v1.4c0,0.3,0,0.5,0.1,0.6c0.1,0.2,0.1,0.3,0.3,0.3c0.1,0.1,0.3,0.1,0.6,0.1h0.8v0.5l-0.8,0
			c-0.4,0-0.7-0.1-1-0.2c-0.2-0.1-0.4-0.3-0.5-0.5c-0.1-0.2-0.2-0.6-0.2-0.9v-1.4c0-0.4,0-0.6,0.1-0.9s0.2-0.4,0.4-0.5
			c0.2-0.1,0.4-0.2,0.7-0.2c0.3,0,0.5,0.1,0.7,0.2c0.2,0.1,0.3,0.3,0.4,0.5c0.1,0.2,0.1,0.5,0.1,0.9L117.2,90.1z"/>
		<path class="st3" d="M120.6,88c-0.1,0-0.2,0-0.3,0c-0.2,0-0.3,0.1-0.5,0.2c-0.2,0.1-0.3,0.2-0.4,0.4v3.4h-0.7v-3.4l-0.1-1.1l0.6,0
			l0.1,0.6c0-0.1,0.1-0.2,0.2-0.3c0.1-0.1,0.2-0.2,0.3-0.2c0.1-0.1,0.3-0.1,0.4-0.1c0.1,0,0.2,0,0.2,0c0.1,0,0.1,0,0.2,0L120.6,88z"
			/>
	</g>
	<g>
		<path class="st5" d="M70.4,121.4v-1.5H74v1.5H70.4z M73,119.8h1.7v22.2H73V119.8z"/>
		<path class="st5" d="M77.8,134.5v-7.1c0-2.8,0.4-4.8,1.1-6.1c0.8-1.3,2.1-1.9,3.9-1.9c1.8,0,3.1,0.6,3.8,1.9
			c0.8,1.3,1.1,3.3,1.1,6.1v7.1c0,2.8-0.4,4.8-1.1,6.1c-0.8,1.3-2,1.9-3.8,1.9c-1.9,0-3.2-0.6-3.9-1.9
			C78.1,139.3,77.8,137.3,77.8,134.5z M79.5,134.5c0,1.6,0.1,2.9,0.3,3.8c0.2,0.9,0.6,1.6,1.1,2c0.5,0.4,1.1,0.6,1.9,0.6
			c0.8,0,1.4-0.2,1.9-0.6c0.5-0.4,0.8-1.1,1.1-2c0.2-0.9,0.3-2.2,0.3-3.8v-7.1c0-1.6-0.1-2.9-0.3-3.8c-0.2-0.9-0.6-1.6-1.1-2
			c-0.5-0.4-1.1-0.6-1.9-0.6c-0.8,0-1.4,0.2-1.9,0.6c-0.5,0.4-0.8,1.1-1.1,2c-0.2,0.9-0.3,2.2-0.3,3.8V134.5z"/>
		<path class="st5" d="M90.7,115.5c0.8,0,1.5,0.2,2,0.8c0.5,0.5,0.8,1.2,0.8,2c0,0.9-0.3,1.6-0.8,2.1c-0.5,0.5-1.2,0.8-2.1,0.8
			c-0.8,0-1.5-0.2-2-0.8c-0.5-0.5-0.8-1.2-0.8-2c0-0.9,0.3-1.6,0.8-2.1C89.1,115.7,89.8,115.5,90.7,115.5z M90.6,116.6
			c-0.4,0-0.8,0.1-1.1,0.4c-0.3,0.3-0.5,0.7-0.5,1.3c0,0.5,0.1,0.9,0.4,1.2c0.3,0.3,0.7,0.4,1.1,0.4s0.8-0.1,1.1-0.4
			c0.3-0.3,0.4-0.7,0.4-1.2c0-0.5-0.1-1-0.4-1.2C91.4,116.8,91.1,116.6,90.6,116.6z"/>
		<path class="st5" d="M99.9,119.5h1.8v22.6h-1.8V119.5z M103.2,133.8c1.4,0,2.5-0.2,3.4-0.7c0.9-0.4,1.5-1.2,1.9-2.1
			c0.4-1,0.6-2.3,0.6-3.9c0-1.6-0.2-2.9-0.5-3.8c-0.3-0.9-0.9-1.5-1.7-1.9c-0.8-0.4-1.9-0.5-3.3-0.5h-2.4v-1.4h2.4
			c1.3,0,2.3,0.1,3.3,0.4c0.9,0.3,1.7,0.7,2.3,1.3c0.6,0.6,1,1.4,1.3,2.3c0.3,1,0.4,2.2,0.4,3.6c0,1.9-0.3,3.5-0.9,4.7
			c-0.6,1.2-1.4,2.1-2.6,2.6c-1.1,0.5-2.6,0.8-4.3,0.8h-1.9v-1.4H103.2z"/>
	</g>
</g>
</svg>
