<svg xmlns="http://www.w3.org/2000/svg" viewBox="0 0 88.18 38.91"><defs><style>.cls-1{isolation:isolate;}.cls-2{mix-blend-mode:multiply;}.cls-3,.cls-4,.cls-5{fill:#003b71;}.cls-3,.cls-4,.cls-6{fill-rule:evenodd;}.cls-4,.cls-5{stroke:#003b71;stroke-linecap:round;stroke-linejoin:round;stroke-width:2.55px;}.cls-6{fill:#d7dedb;}</style></defs><g class="cls-1"><g id="Layer_2" data-name="Layer 2"><g id="Layer_1-2" data-name="Layer 1"><g class="cls-2"><path class="cls-3" d="M87.32,16.89,85.56,16a1.14,1.14,0,0,0-.87.07,1.35,1.35,0,0,0-.63-.82l-1.86-.92a1,1,0,0,0-.73,0,1.17,1.17,0,0,0-.52-.64l-2.6-1.29c-.89-.45-3.87,3.72-6.77,9.41l-1.08-.5-7-2.67a72.6,72.6,0,0,0-14.83-2.78,62.16,62.16,0,0,0-9.12,0s4.44-.24,0,0A67.48,67.48,0,0,0,24.7,18.66l-7,2.67-1.09.5c-2.9-5.69-5.88-9.86-6.77-9.41l-2.6,1.29a1.12,1.12,0,0,0-.51.64,1,1,0,0,0-.74,0l-1.86.92a1.35,1.35,0,0,0-.63.82A1.14,1.14,0,0,0,2.62,16l-1.76.88c-1.76.87-.74,6.49,2.28,12.54S10,39.67,11.79,38.8l1.75-.88a1.15,1.15,0,0,0,.47-.74,1.31,1.31,0,0,0,1,0l1.86-.93a1,1,0,0,0,.43-.59,1.09,1.09,0,0,0,.82,0l2.6-1.3c.87-.43-.58-5.1-3.25-10.68L18.86,23A61.82,61.82,0,0,1,44,17.51,61.79,61.79,0,0,1,69.32,23l1.36.61C68,29.22,66.56,33.89,67.43,34.32l2.6,1.3a1.09,1.09,0,0,0,.82,0,1,1,0,0,0,.43.59l1.86.93a1.31,1.31,0,0,0,1,0,1.15,1.15,0,0,0,.47.74l1.76.88c1.76.87,5.63-3.32,8.65-9.37S89.08,17.76,87.32,16.89ZM12.67,36.58c-3.11-1.49-6.3-6.82-7.35-8.82a.07.07,0,0,0-.13,0,12.26,12.26,0,0,0,1.23,3.47l-1,.47C4.94,30.88,4.44,30,4,29a33.1,33.1,0,0,1-2.84-7.78c-.5-2.48,0-3.43.13-3.59l1.43-.72c.39-.19.61,0,.63,0-.18,2.27,1,6.42,3.17,10.81,2,4,4.39,7.26,6.25,8.71A.07.07,0,0,1,12.67,36.58Zm3.41-1.48c-3-1.2-6.3-7-7.38-9a.07.07,0,0,0-.13.05A12.43,12.43,0,0,0,9.8,29.59l-1,.52c-.52-.87-1-1.79-1.5-2.74a33.55,33.55,0,0,1-2.84-7.78c-.52-2.47-.07-3.41.09-3.57l1.37-.68a1.15,1.15,0,0,1,.67-.09c-.14,2.21,1.08,6.38,3.3,10.83,2.08,4.17,4.49,7.5,6.3,8.9A.07.07,0,0,1,16.08,35.1Zm3-1.91c.06.06,0,.14-.09.1-3-2-5.78-7-6.79-9,0-.07-.14,0-.13.05a13,13,0,0,0,1.23,3.46l-1.18.59c-.51-.87-1-1.79-1.48-2.75A36.13,36.13,0,0,1,7.76,18c-.56-2.44-.29-3.39-.14-3.55l2-1a.37.37,0,0,1,0,.11,39.79,39.79,0,0,0,3.83,10.7A44.4,44.4,0,0,0,19.1,33.19Zm50.07.1a.07.07,0,0,1-.09-.1,44.4,44.4,0,0,0,5.66-8.89,39.44,39.44,0,0,0,3.83-10.7s0-.08,0-.11l2,1c.15.16.42,1.11-.14,3.55a36.6,36.6,0,0,1-2.89,7.66c-.48,1-1,1.88-1.49,2.75l-1.18-.59a12.65,12.65,0,0,0,1.23-3.46c0-.08-.1-.12-.13-.05C75,26.29,72.16,31.32,69.17,33.29ZM72.1,35.1A.07.07,0,0,1,72,35c1.81-1.4,4.22-4.73,6.3-8.9,2.22-4.45,3.44-8.62,3.31-10.83a1.13,1.13,0,0,1,.66.09l1.37.68c.16.16.61,1.1.1,3.57a34.09,34.09,0,0,1-2.85,7.78c-.47.95-1,1.87-1.5,2.74l-1-.52a12.11,12.11,0,0,0,1.23-3.46.07.07,0,0,0-.13-.05C78.41,28.15,75.14,33.9,72.1,35.1Zm15-13.86A33.1,33.1,0,0,1,84.21,29c-.47.94-1,1.86-1.49,2.73l-1-.47A12.66,12.66,0,0,0,83,27.81c0-.08-.1-.12-.13,0-1.06,2-4.24,7.33-7.35,8.82-.08,0-.15-.06-.08-.11,1.86-1.45,4.24-4.67,6.25-8.71C83.88,23.37,85,19.22,84.86,17c0,0,.24-.21.64,0l1.42.72C87.09,17.81,87.55,18.76,87.05,21.24Z"/></g><path class="cls-4" d="M50.21,15.36c.22.2.45.39.67.57,0-.39,0-.78-.05-1.11a6.58,6.58,0,0,1,.54,1.48c.25.18.51.36.77.52,0-.61,0-1.73,0-2.09a9.38,9.38,0,0,1,.79,2.52l.78.38a23,23,0,0,0-.31-3,10.33,10.33,0,0,1,1.06,3.34l.88.31a21,21,0,0,0-.44-3.56A11.12,11.12,0,0,1,56,18.46c.38.11.78.2,1.18.29a18.56,18.56,0,0,0-3-6.93,16.33,16.33,0,0,1-1.72-.71c0,.06,0,.11-.07.16a3.59,3.59,0,0,1-.17.34l-.33.59L51.31,12a8.09,8.09,0,0,1-.8-.38,7.32,7.32,0,0,1,.1,1.24,8.3,8.3,0,0,1-.4,2.55ZM48.59,9.41l.15-.5a7.36,7.36,0,0,0,1.81.73A14.45,14.45,0,0,1,48.9,8.25c0-.2.07-.4.1-.61a6.57,6.57,0,0,0,1.68.66,15,15,0,0,1-1.63-1.37c0-.25,0-.5,0-.74a6.64,6.64,0,0,0,1.51.57A14.87,14.87,0,0,1,48.91,5.4a5.16,5.16,0,0,0-.21-.77,5.59,5.59,0,0,0,1.2.42c-.15-.11-1.13-1-1.68-1.47A7,7,0,0,0,46.75,1.8c3.53,1.05,6.55,6.37,4.85,9.44a13.78,13.78,0,0,1-3-1.83Zm-4.5,3.78C41.93,10.89,41,8.72,41,6.52a7.74,7.74,0,0,1,2.45-5.18c-2.51,1.41-3.52,3.33-3.52,5.34,0,2.85,1.9,5.87,4.2,7.83a10.77,10.77,0,0,0,2-2.14c2.35-3.1,3.36-7.23.07-10a4.2,4.2,0,0,0-2.1-1.06v.79a3,3,0,0,0,1.2.86,2.28,2.28,0,0,1-1.2-.07v.73a6,6,0,0,0,1.35.49,6.47,6.47,0,0,1-1.35.33v.68A4.21,4.21,0,0,0,45.48,5a3.33,3.33,0,0,1-1.39.79v.87a7.77,7.77,0,0,0,1.62-.72,5.46,5.46,0,0,1-1.62,1.53v.94a10.26,10.26,0,0,0,2-1.56,6.46,6.46,0,0,1-2,2.49v.93a9,9,0,0,0,2-1.54,4.69,4.69,0,0,1-2,2.47v.93a11.28,11.28,0,0,0,2.14-1.78,9.92,9.92,0,0,1-2.14,2.84ZM39.6,9.4a13.7,13.7,0,0,1-3,1.84C34.88,8.17,37.9,2.85,41.44,1.8a7.19,7.19,0,0,0-1,1.07C38.72,4.43,36.9,7.1,37.25,9.81a21.23,21.23,0,0,0,2-1.6A8.37,8.37,0,0,0,39.6,9.4Zm13.21.32a6.6,6.6,0,0,0,1.9.75A13.14,13.14,0,0,1,52.85,9a5.87,5.87,0,0,0-.05-.59,4.92,4.92,0,0,0,1.51.79C53.87,8.86,53,8,52.65,7.6a6.84,6.84,0,0,0-.21-.74,5,5,0,0,0,1.49,1c-.58-.64-1.31-1.42-2-2.26a9.09,9.09,0,0,0-.7-1.19,9.79,9.79,0,0,0-.62-.82c3.41,2.36,5,6.28,6.56,8.26a18.1,18.1,0,0,1-4.46-1.54,3.2,3.2,0,0,0,.1-.63ZM35.33,9.25a14.91,14.91,0,0,1-1.82.79c.4-.63.79-1.26,1.21-1.88S35.58,6.88,36,6.32a10.08,10.08,0,0,1,1.62-2.69c-3.4,2.36-5,6.28-6.56,8.26a21.88,21.88,0,0,0,4.45-1.51,6.11,6.11,0,0,1-.13-1.13Zm-2.08,16a36.18,36.18,0,0,1,1.53,5.31l1.29-1.31c-.14-.27-.28-.54-.41-.81l-.48.49c-.37-1.59-.66-2.83-1.12-4.2l-.81.52Zm-.69-6.13c.39-.11.76-.23,1.13-.36-.09.72-.35,2.79-.39,3.09s-.11.87-.18,1.3L34.9,22a9.4,9.4,0,0,0,.46,1L31.7,25.37c.21-1.16.67-4.31.86-6.23ZM40,26l-1.9,5.13c-1.63-2.37-2.73-4.53-2.83-7.18l.45-.3a18.16,18.16,0,0,0,2.12,5.09L39.26,25c.24.36.49.7.76,1Zm4.07,8.08a28.76,28.76,0,0,0,4.61-4.45l-1.1-3a27.44,27.44,0,0,1-3,2.91l-.49.41v.71a10.06,10.06,0,0,0,2-1.25,5,5,0,0,1-2,1.9v.57a12.2,12.2,0,0,0,3-2,8,8,0,0,1-3,2.88,38.4,38.4,0,0,1-3.39-3.34l.7-1.86c-.28-.29-.56-.58-.82-.89l-1.1,3a28.76,28.76,0,0,0,4.61,4.45Zm0-5.08a19.21,19.21,0,0,0,4.78-5.46l-2-3.05a26.18,26.18,0,0,1-2.3,2.08l-.48.4v.89a19.31,19.31,0,0,0,1.66-1.09,7.77,7.77,0,0,1-1.66,1.77v.62a22.85,22.85,0,0,0,2.59-1.9A11.19,11.19,0,0,1,44.09,26v.65a15.86,15.86,0,0,0,3.43-2.55,10.47,10.47,0,0,1-3.43,3.51,18.7,18.7,0,0,1-3.54-4.06l1.54-2.34c-.27-.25-.53-.5-.78-.76l-2,3.05A19.37,19.37,0,0,0,44.09,29Zm-3.32-9.07-3.27,5C35.62,22.31,35,21,35,18.24c.38-.18.75-.37,1.11-.58a11.55,11.55,0,0,0,.1,2.36,7.69,7.69,0,0,0,1.26,3L39.94,19c.26.33.54.66.83,1ZM38,15.36a8.8,8.8,0,0,1-.34-1.54A2.79,2.79,0,0,1,36.76,15a12.57,12.57,0,0,1-4.25,2.26,15.41,15.41,0,0,1,2.12-4.54,15.64,15.64,0,0,1,1.18-1.31l-.06-.13-.07-.16a16.33,16.33,0,0,1-1.72.71,18.56,18.56,0,0,0-3,6.93,14.23,14.23,0,0,0,7-3.39Zm.59-4.3a7.2,7.2,0,0,0-.23,1.75c0,3.5,2.44,6.46,5.76,9.17,3.32-2.71,5.76-5.67,5.76-9.17a6.81,6.81,0,0,0-.23-1.76c-.35-.22-.92-.62-1.31-.91a12.86,12.86,0,0,1-1.57,2.67,11.39,11.39,0,0,1-2.16,2.28l-.49.42v.83a22.34,22.34,0,0,0,2.06-1.42,11,11,0,0,1-2.06,2.24v.94A26.72,26.72,0,0,0,47,16a12.2,12.2,0,0,1-2.89,2.95v.84a17.47,17.47,0,0,0,3.46-2.68,10.94,10.94,0,0,1-3.46,3.6c-2.8-2.48-4.77-5-4.77-8.33a6.56,6.56,0,0,1,.41-2.07l0,0c-.38.28-.78.56-1.19.82ZM54.93,25.27a36.18,36.18,0,0,0-1.53,5.31l-.52-.53a7.41,7.41,0,0,0,.4-1.86c-.22.44-.52,1-.81,1.44l-.36-.36a12.09,12.09,0,0,0,1.52-4.85l1.3.85Zm.69-6.13c.19,1.92.65,5.07.86,6.23l-1-.63a10.11,10.11,0,0,0,0-2.23c-.08.42-.24,1.15-.45,1.9L54.29,24a9.26,9.26,0,0,0,.16-2c-.1.39-.36,1-.61,1.73l-1-.67a9.17,9.17,0,0,0,1.1-4.43,16.76,16.76,0,0,0,1.69.58ZM48.17,26a15.65,15.65,0,0,0,1.18-1.74l1.3,2,.65-.89c.45-.63.83-1.18,1.14-1.71l.46.3c-.1,2.65-1.21,4.81-2.83,7.18l-.23-.62a7.83,7.83,0,0,0,1.22-3,15.19,15.19,0,0,1-1.5,2.27l-.25-.69A7.88,7.88,0,0,0,50,27c-.22.41-.56.93-.93,1.5l-.26-.7a9.4,9.4,0,0,0,.41-1.58,7.35,7.35,0,0,1-.64,1L48.17,26Zm-.76-6.07a13.53,13.53,0,0,0,2.52-3.8,14.28,14.28,0,0,0,3.24,2.11c0,2.76-.61,4.07-2.49,6.67l-.56-.86a10.1,10.1,0,0,0,1.57-2.53,18.93,18.93,0,0,1-2,1.94l-.43-.65a9.77,9.77,0,0,0,1.27-2.24c-.32.37-1,1.06-1.62,1.7l-.49-.74a9.44,9.44,0,0,0,1.14-2c-.3.34-.88.91-1.49,1.49Z"/><rect class="cls-5" x="35.36" y="13.82" width="17.97" height="6.69"/><path class="cls-6" d="M50.31,15.36c.22.2.45.39.67.57,0-.39,0-.78,0-1.11a6.58,6.58,0,0,1,.54,1.48c.25.18.51.36.77.52,0-.61,0-1.73-.05-2.09A9.38,9.38,0,0,1,53,17.25l.78.38a23,23,0,0,0-.31-3,10.33,10.33,0,0,1,1.06,3.34l.87.31A20.11,20.11,0,0,0,55,14.69a11.34,11.34,0,0,1,1.17,3.77c.38.11.77.2,1.18.29a18.56,18.56,0,0,0-3-6.93,16.33,16.33,0,0,1-1.72-.71c0,.06-.05.11-.07.16a3.59,3.59,0,0,1-.17.34L52,12.2,51.41,12a7.15,7.15,0,0,1-.8-.38,7.32,7.32,0,0,1,.1,1.24,8.3,8.3,0,0,1-.4,2.55ZM48.69,9.41l.15-.5a7.36,7.36,0,0,0,1.81.73A14.45,14.45,0,0,1,49,8.25a6,6,0,0,0,.09-.61,6.75,6.75,0,0,0,1.69.66,14.08,14.08,0,0,1-1.63-1.37c0-.25,0-.5,0-.74a6.64,6.64,0,0,0,1.51.57A14.87,14.87,0,0,1,49,5.4a5.16,5.16,0,0,0-.21-.77A5.75,5.75,0,0,0,50,5.05c-.14-.11-1.13-1-1.67-1.47A7,7,0,0,0,46.85,1.8c3.53,1.05,6.55,6.37,4.84,9.44a14,14,0,0,1-3-1.83Zm-4.5,3.78c-2.16-2.3-3.13-4.47-3.13-6.67a7.74,7.74,0,0,1,2.45-5.18C41,2.75,40,4.67,40,6.68c0,2.85,1.89,5.87,4.2,7.83a10.77,10.77,0,0,0,2-2.14c2.35-3.1,3.36-7.23.07-10a4.2,4.2,0,0,0-2.1-1.06v.79a3,3,0,0,0,1.2.86,2.27,2.27,0,0,1-1.2-.07v.73a6.09,6.09,0,0,0,1.34.49,6.24,6.24,0,0,1-1.34.33v.68A4.21,4.21,0,0,0,45.58,5a3.33,3.33,0,0,1-1.39.79v.87a7.77,7.77,0,0,0,1.62-.72,5.46,5.46,0,0,1-1.62,1.53v.94a10.26,10.26,0,0,0,2-1.56,6.46,6.46,0,0,1-2,2.49v.93a9,9,0,0,0,2-1.54,4.69,4.69,0,0,1-2,2.47v.93a11.28,11.28,0,0,0,2.14-1.78,10.11,10.11,0,0,1-2.14,2.84ZM39.7,9.4a13.94,13.94,0,0,1-3,1.84C35,8.17,38,2.85,41.53,1.8a7.75,7.75,0,0,0-1,1.07C38.82,4.43,37,7.1,37.35,9.81a21.23,21.23,0,0,0,2-1.6A8.37,8.37,0,0,0,39.7,9.4Zm13.21.32a6.65,6.65,0,0,0,1.89.75A13.63,13.63,0,0,1,53,9c0-.2,0-.39-.05-.59a4.92,4.92,0,0,0,1.51.79C54,8.86,53.14,8,52.75,7.6c-.07-.29-.12-.45-.21-.74A5,5,0,0,0,54,7.9c-.58-.64-1.31-1.42-2-2.26a9.09,9.09,0,0,0-.7-1.19,9.79,9.79,0,0,0-.62-.82c3.41,2.36,5,6.28,6.56,8.26a18.1,18.1,0,0,1-4.46-1.54,3.2,3.2,0,0,0,.1-.63ZM35.43,9.25a15.61,15.61,0,0,1-1.82.79c.39-.63.79-1.26,1.21-1.88s.86-1.28,1.23-1.84a10.08,10.08,0,0,1,1.62-2.69c-3.4,2.36-5,6.28-6.56,8.26a22.1,22.1,0,0,0,4.45-1.51,4.78,4.78,0,0,1-.13-1.13Zm-2.08,16a36.18,36.18,0,0,1,1.53,5.31l1.29-1.31c-.14-.27-.28-.54-.41-.81l-.48.49c-.38-1.59-.66-2.83-1.12-4.2l-.81.52Zm-.69-6.13c.39-.11.76-.23,1.13-.36-.09.72-.35,2.79-.39,3.09s-.11.87-.18,1.3L35,22a9.4,9.4,0,0,0,.46,1L31.8,25.37c.21-1.16.67-4.31.86-6.23ZM40.12,26l-1.91,5.13c-1.62-2.37-2.73-4.53-2.83-7.18l.46-.3A18.16,18.16,0,0,0,38,28.74L39.36,25c.24.36.49.7.76,1Zm4.07,8.08a28.76,28.76,0,0,0,4.61-4.45l-1.1-3a27.44,27.44,0,0,1-3,2.91l-.49.41v.71a10.06,10.06,0,0,0,2-1.25,5,5,0,0,1-2,1.9v.57a12.39,12.39,0,0,0,3-2,8,8,0,0,1-3,2.88,38.4,38.4,0,0,1-3.39-3.34l.7-1.86c-.28-.29-.56-.58-.82-.89l-1.1,3a28.76,28.76,0,0,0,4.61,4.45Zm0-5.08A19.21,19.21,0,0,0,49,23.54l-2-3.05a26.18,26.18,0,0,1-2.3,2.08l-.48.4v.89a19.31,19.31,0,0,0,1.66-1.09,7.77,7.77,0,0,1-1.66,1.77v.62a22.85,22.85,0,0,0,2.59-1.9A11.19,11.19,0,0,1,44.19,26v.65a15.86,15.86,0,0,0,3.43-2.55,10.47,10.47,0,0,1-3.43,3.51,18.7,18.7,0,0,1-3.54-4.06l1.53-2.34c-.26-.25-.52-.5-.77-.76l-2,3.05A19.21,19.21,0,0,0,44.19,29Zm-3.32-9.07-3.27,5c-1.88-2.6-2.47-3.91-2.49-6.67.38-.18.75-.37,1.11-.58a11.55,11.55,0,0,0,.1,2.36,7.69,7.69,0,0,0,1.26,3L40,19c.26.33.54.66.83,1Zm-2.8-4.57a8.8,8.8,0,0,1-.34-1.54A2.79,2.79,0,0,1,36.86,15a12.57,12.57,0,0,1-4.25,2.26,15.41,15.41,0,0,1,2.12-4.54,15.64,15.64,0,0,1,1.18-1.31l-.06-.13s-.05-.1-.07-.16a16.33,16.33,0,0,1-1.72.71,18.56,18.56,0,0,0-3,6.93,14.23,14.23,0,0,0,7-3.39Zm.59-4.3a6.74,6.74,0,0,0-.23,1.75c0,3.5,2.44,6.46,5.76,9.17C47.51,19.27,50,16.31,50,12.81a7.27,7.27,0,0,0-.23-1.76c-.35-.22-.92-.62-1.32-.91a12.38,12.38,0,0,1-1.56,2.67,11.39,11.39,0,0,1-2.16,2.28l-.49.42v.83a23.81,23.81,0,0,0,2.06-1.42,11.31,11.31,0,0,1-2.06,2.24v.94A26.72,26.72,0,0,0,47.08,16a12.2,12.2,0,0,1-2.89,2.95v.84a17.47,17.47,0,0,0,3.46-2.68,11,11,0,0,1-3.46,3.6c-2.8-2.48-4.77-5-4.77-8.33a6.56,6.56,0,0,1,.41-2.07l0,0c-.38.28-.78.56-1.19.82ZM55,25.27a36.18,36.18,0,0,0-1.53,5.31L53,30.05a7.41,7.41,0,0,0,.4-1.86c-.22.44-.52,1-.81,1.44l-.36-.36a12.09,12.09,0,0,0,1.52-4.85l1.3.85Zm.69-6.13c.19,1.92.65,5.07.86,6.23l-1-.63a10.11,10.11,0,0,0,0-2.23c-.09.42-.24,1.15-.45,1.9L54.39,24a9.26,9.26,0,0,0,.16-2c-.1.39-.36,1-.61,1.73l-1-.67A9,9,0,0,0,54,18.56a17.86,17.86,0,0,0,1.7.58ZM48.27,26a14.3,14.3,0,0,0,1.17-1.74l1.31,2,.65-.89c.45-.63.83-1.18,1.14-1.71L53,24c-.1,2.65-1.21,4.81-2.83,7.18l-.24-.62a7.69,7.69,0,0,0,1.23-3,15.19,15.19,0,0,1-1.5,2.27l-.25-.69a7.88,7.88,0,0,0,.7-2.12c-.22.41-.56.93-.93,1.5l-.26-.7a9.4,9.4,0,0,0,.41-1.58,8.51,8.51,0,0,1-.64,1L48.27,26Zm-.76-6.07A13.53,13.53,0,0,0,50,16.13a14.07,14.07,0,0,0,3.24,2.11c0,2.76-.61,4.07-2.49,6.67l-.56-.86a10.1,10.1,0,0,0,1.57-2.53,18.93,18.93,0,0,1-2,1.94l-.43-.65a9.77,9.77,0,0,0,1.27-2.24c-.32.37-1,1.06-1.62,1.7l-.49-.74a9.44,9.44,0,0,0,1.14-2c-.3.34-.88.91-1.5,1.49Z"/></g></g></g></svg>