<?xml version="1.0" encoding="UTF-8"?><svg xmlns="http://www.w3.org/2000/svg" xmlns:xlink="http://www.w3.org/1999/xlink" viewBox="0 0 180 180"><defs><style>.cls-1{fill:none;}.cls-2{letter-spacing:.1em;}.cls-3{clip-path:url(#clippath);}.cls-4{letter-spacing:.09em;}.cls-5{fill:#f9b5c3;font-family:DINCondensed-Light, 'DIN Condensed';font-size:11.14px;}.cls-6{fill:#d7dedb;}.cls-7{fill:#201747;}.cls-8{fill:#1d252c;}.cls-9{letter-spacing:-.04em;}.cls-10{fill:#f26178;font-family:DINCondensed-Bold, 'DIN Condensed';font-size:25.7px;}</style><clipPath id="clippath"><path class="cls-1" d="M-194.83,3.25V81.01c-.23,2.54-.35,5.12-.35,7.72,0,46.9,38.02,84.91,84.91,84.91S-25.36,135.62-25.36,88.73V3.25H-194.83Z"/></clipPath></defs><g id="Icons"><g class="cls-3"><path class="cls-8" d="M1.08,114.79c-1.01-2.03-13.42,4.91-13.42,4.91,0,0,7.18-4.21,6.47-5.77-.7-1.56-9.2,5.15-9.2,5.15,0,0,2.81-3.67,2.03-4.13-.78-.47-4.29,5.23-4.45,3.2-.16-2.03-3.2-2.81-3.2-2.81,0,0,7.33-5.15,6.55-6.63-.78-1.48-7.02,2.81-7.02,2.81,0,0,2.73-2.89,2.57-3.82-.16-.94-4.29,1.95-4.29,1.95,.7-2.96-1.95-5.93-1.95-5.93,0,0,5.3,3.98,5.93,2.57,.48-1.08-1.68-2.44-2.69-3.01,1.25,.65,4.44,2.23,4.88,1.6,.5-.71-1.41-1.75-1.74-1.92,.53,.27,5.19,2.6,5.41,.83,.23-1.87-2.89-2.42-2.89-2.42,0,0,5.69-1.72,4.99-3.2-.2-.43-.65-.54-1.19-.47,2.22-1.07,4.72-2.57,4.23-3.74-.86-2.03-8.97,4.29-8.97,4.29,0,0,3.43-2.96,2.57-3.85-.71-.74-5.88,3.2-7.6,4.55,1.41-1.15,4.94-4.21,3.43-5.06-1.87-1.05-6.9,6.01-5.81,3.23,1.09-2.77-2.53-5.11-2.53-5.11,0,0,4.71,2.57,5.49,.55,.78-2.03-3.35-2.42-3.35-2.42,0,0,8.19-.08,8.19-1.87,0-1.38-3.19-.63-4.66-.22,2.11-.66,8.12-2.66,7.86-4.07-.31-1.72-7.88,2.42-7.88,2.42,0,0,3.12-3.28,2.26-4.52-.86-1.25-5.93,3.35-5.93,3.35-.16-1.95-2.89-3.04-2.89-3.04,0,0,4.6,1.01,4.68-.31,.08-1.33-4.97-2.32-4.97-2.32,0,0,5.62,.35,5.97-.53,.35-.88-3.8-2.11-3.8-2.11,0,0,7.2,.88,7.08-.76-.12-1.64-5.15-1.58-5.15-1.58,0,0,6.67-.47,6.26-2.05-.41-1.58-6.2,.47-6.2,.47,0,0,6.38-5.15,5.38-6.26-.54-.6-2.55,1.17-4.27,2.92,.33-.55,.47-1.05,.17-1.34-.99-.99-4.86,3.22-4.86,3.22-.09-1.84-.93-3-1.77-3.7,1.2,.56,2.6,.98,2.82,.07,.41-1.64-4.09-3.33-4.09-3.33,0,0,4.04-.76,3.74-1.87-.26-.99-3.37-.54-4.03-.43,.89-.15,6.32-1.16,5.84-2.55-.43-1.25-3.06,.22-4,.79,1.39-.88,6.64-4.26,5.93-4.82-.82-.64-5.38,2.98-5.38,2.98,1.4-1.23-.12-3.04-.12-3.04,0,0,3.33-1.29,3.04-2.34-.23-.83-1.86-.35-2.52-.11,.83-.33,3.15-1.38,2.82-2.58-.41-1.46-3.86,.84-3.86,.84,0,0,4.39-4.06,3.33-4.76-1.05-.7-3.39,3.33-3.39,3.33-1.81-1.64-4.97,0-4.97,0,0,0,6.26-3.98,5.85-5.09-.32-.85-3.19-.15-4.5,.22,.67-.22,1.61-.6,1.58-.98-.06-.58-3.39-.47-3.39-.47,0,0,4.86-.99,4.8-2.11-.03-.52-.53-.67-1.05-.68,1.45-.21,3.65-.63,3.57-1.29-.11-.91-2.2-.12-2.48-.01,.38-.15,4.21-1.7,3.59-2.64-.64-.99-5.85,1.93-5.85,1.93,0,0,1.81-1.93,.88-3.04-.6-.71-1.7,.5-2.42,1.46,.83-1.29,2.03-3.48,1.31-4.33-1.05-1.23-3.74,5.32-3.74,5.32,.53-1.87-1.35-2.75-1.35-2.75,0,0,4.09-3.16,3.45-3.86-.64-.7-3.57,1.4-2.63,.47,.94-.94,0-2.28,0-2.28,0,0,5.91,2.57,6.14,.88,.14-1.04-2.01-1.66-3.69-1.99,.04-.08,.06-.17,.06-.29,0-1.17-2.92-1.22-2.92-1.22,0,0,4.09-.94,3.51-2.06-.58-1.11-6.15,.34-6.15,.34,0,0,5.39-2.45,4.69-3.62-.7-1.17-3.8,.41-3.8,.41,0,0,2.98-5.79,1.76-6.26-.83-.32-2.13,2.24-2.9,3.94,.14-2.67,.69-14.88-1.08-14.46-1.99,.47-1.75,16.15-1.75,16.15,0,0-1.99-5.62-3.63-4.68-1.64,.94,3.33,8.77,3.33,8.77l-.17,1.87s-1.99-4.21-2.93-4.21,2.93,6.67,2.93,6.67c0,0-2.93-2.46-4.21-1.75-1.16,.63,1.94,2.21,2.58,2.52-.6-.28-3.47-1.58-4.1-.53-.7,1.17,4.61,2.69,4.61,2.69,0,0-3.21,.12-3.21,1.17s3.63,0,3.63,0c0,0,.66-.16-.45,.62-1.11,.78-6.1,.47-5.71,1.4,.19,.44,.95,.76,1.7,.96-.3,.02-.56,.1-.69,.32-.43,.74,1.75,1.72,1.75,1.72,0,0,1.29,.74,1.09,1.33-.2,.58-2.53-1.68-3-1.56-.33,.08,.22,1.13,.58,1.75-.61-1-2.07-3.24-2.8-3.12-.73,.12,.36,1.9,.88,2.68-.66-.95-2.45-3.41-2.99-3.07-.66,.43,1.29,2.36,1.29,2.36,0,0-3.67-2.13-4.33-1.08-.17,.28-.12,.53,.06,.75-1.15-.52-2.42-.94-2.67-.36-.47,1.09,4.52,2.57,4.52,2.57,0,0-2.03,.43-2.14,1.29-.12,.86,3.08,0,3.08,0,0,0-1.44,.97-.58,1.56,.77,.52,3.05,.11,3.54,.02-.59,.12-3.8,.85-3.34,2.09,.51,1.36,3.9-.2,3.9-.2,0,0-2.18,1.4-1.64,1.83h.01c-1.64,.55-3.36,1.25-2.98,1.72,.37,.46,1.96,.09,3.36-.35-1.97,.78-4.44,1.97-4.1,2.92,0,.02,.02,.03,.02,.05-.26-.14-.5-.22-.73-.21-1.72,.08,1.17,3.04,1.17,3.04,0,0-4.52-4.21-5.69-3.2s3.28,3.28,3.28,3.28c0,0-3.36-1.09-3.47,.16-.12,1.25,6.51,2.65,6.51,2.65,0,0-3.67,1.87-2.65,2.5,1.01,.62,4.68-.94,4.68-.94,0,0-3.74,2.92-2.57,4.45,1.17,1.52,4.67-1.4,4.67-1.4,0,0-.33,2.74,1.33,3.97-1.7-.75-4.98-1.97-5.41-.54-.02,.06-.03,.11-.04,.16-2.55-1.45-5.52-2.78-6.52-1.84-1.87,1.75,7.37,5.73,7.37,5.73,0,0-2.92-.82-2.69,1.05,.11,.89,1.58,.8,3.11,.47-.52,.48-.83,1.19-.65,2.22,.58,3.39-2.92-2.92-4.45-2.11-.36,.2-.47,.5-.43,.86-1.43-1.94-3.38-4.09-4.72-3.55-1.57,.63-.56,2.05,.28,2.91-1.02-.89-2.79-2.23-3.67-1.74-1.29,.7,4.45,5.15,4.45,5.15,0,0-6.2,1.17-5.26,2.69,.94,1.52,7.72-.94,7.72-.94,0,0-3.39,1.87-1.99,3.39,1.4,1.52,6.2-2.11,6.2-2.11,0,0-1.17,1.99,1.05,3.63,0,0-7.37-1.29-7.72,0-.35,1.29,4.33,1.87,4.33,1.87,0,0-10.65,2.69-10.18,4.45,.47,1.75,5.03-.82,5.03-.82,0,0-1.46,2.28-.35,2.92,1.11,.64,4.33-4.15,4.33-4.15,0,0-.82,2.98,.41,3.33,1.01,.29,3.07-3.43,3.79-4.78-.39,.87-.96,2.8,.43,4.66,0,0-7.25,1.11-6.9,2.46,.08,.31,.41,.49,.86,.6-1.92,.19-3.68,.55-3.43,1.27,.53,1.52,9.65-.29,9.65-.29,0,0-.94,1.91,.88,3.41,0,0-4.27-2.59-5.15-1.19-.88,1.4,.99,3.98,.99,3.98,0,0-4.97-4.74-5.97-4.33-.99,.41,1.11,3.74,1.11,3.74,0,0-4.42-5.15-5.69-4.04-1.27,1.11,3.99,5.85,3.99,5.85,0,0-7.68-5.77-8.85-4.68-1.17,1.09,2.73,4.68,2.73,4.68,0,0-8.03-5.15-9.44-3.28-1.4,1.87,5.23,4.6,5.23,4.6,0,0-4.45,.62-2.96,2.18,1.48,1.56,7.64-.78,7.64-.78,0,0-3.74,2.03-3.12,3.2s6.24-2.57,6.24-2.57c0,0-2.26,6.47-.23,7.02,1.39,.37,2.19-2.88,2.56-4.96-.11,1.32-.04,2.94,1.03,2.94,1.79,0,1.87-5.23,1.87-5.23,0,0,1.25,3.67,2.5,3.51,.08,0,.15-.03,.21-.06,0,.84,.14,1.75,.57,2.64,1.4,2.89-2.73-1.09-3.43,0-.54,.84,1.1,2.15,1.88,2.7-1.08-.71-4.14-2.57-4.84-1.22-.63,1.2,1.53,1.93,2.74,2.25-1.56-.33-4.99-.91-5.47,.17-.62,1.4,5.69,1.87,5.69,1.87,0,0-.3,1.69,1.21,3.17-2.27-1.47-6.42-3.82-7.84-2.23-.53,.59-.53,1.21-.26,1.81-2.16-1.73-4.61-3.46-5.35-3.09-1.4,.7,3.16,5.03,3.16,5.03,0,0-8.89-5.97-10.3-5.03-1.4,.94,5.38,5.38,5.38,5.38,0,0-5.53-.7-5.57,.82-.04,1.52,8.85,1.99,8.85,1.99,0,0-5.38,2.46-4.21,4.45,.79,1.34,4.51-.78,6.85-2.3-.92,.79-1.71,1.82-1.12,2.73,1.12,1.72,4.62-1.44,4.89-1.7-.35,.33-5.54,5.18-3.84,6.77,1.75,1.64,6.55-6.79,6.55-6.79,0,0-2.11,5.05-.47,5.98,1.64,.92,5.85-4.81,5.85-4.81,0,0,.23,5.17,5.15,4.81,1.88-.14,5.16-.17,8.48-.16h0s18.43,.38,23.22,.16c4.8-.22,3.69-5.8,3.69-5.8,0,0,1.87,3.04,3.16,2.05,1.29-.99-.82-4.15-.82-4.15,0,0,4.5,5.62,5.85,3.39,1.35-2.22-2.81-3.8-2.81-3.8,0,0,7.96,2.16,8.13,0,.18-2.16-5.26-2.65-5.26-2.65,0,0,6.79-1.4,6.63-2.89-.09-.87-1.88-.56-3.34-.15,2.76-.96,7.49-2.85,6.77-4.3ZM-50.63,56.61c-.72,.36-2.53-2.44-4.12-3.74,1.29,.25,4.02-.98,4.77-1.33-.6,.3-2.31,1.31-1.98,2.73,.39,1.72,2.67,1.17,2.67,1.17,0,0-.41,.7-1.34,1.17Z"/></g></g><g id="Layer_3"><g><g><circle class="cls-7" cx="56.68" cy="138.14" r="14.48"/><circle class="cls-7" cx="125.74" cy="137.84" r="14.48"/><path class="cls-7" d="M125.74,118.82c4.72,0,9.03,1.73,12.36,4.58l28.5-47.01H13.29l29.4,48.49c3.47-3.72,8.4-6.06,13.89-6.06,10.5,0,19.01,8.51,19.01,19.01h31.15c0-10.5,8.51-19.01,19.01-19.01Z"/><path class="cls-7" d="M30.86,72.59H160.21c1.73-1.24,2.83-2.98,2.83-4.93,0-2.27-1.48-4.26-3.72-5.49-.98-.54-2.1-.94-3.33-1.14,.04-.19,.09-.38,.09-.58,0-2.68-3.35-4.85-7.48-4.85-.4,0-.79,.04-1.17,.08-.77-3.02-4.87-5.33-9.84-5.33-1.19,0-2.32,.16-3.38,.4,0-.13,.03-.26,.03-.4,0-4.62-2.98-8.36-6.65-8.36-2.16,0-4.06,1.32-5.28,3.32-.91-4.42-4.82-7.75-9.51-7.75-.22,0-.43,.05-.65,.07-1.87-6.14-7.57-10.61-14.32-10.61s-12.02,4.16-14.09,9.95c-2.18-2.37-5.3-3.86-8.77-3.86-5.64,0-10.35,3.92-11.6,9.18-3.05-2.11-7.79-3.03-12.83-2.16-6.81,1.18-11.97,5.25-12.84,9.67-.35-.04-.69-.11-1.06-.11-4.97,0-9,4.03-9,9,0,1.23,.25,2.4,.7,3.47-1.25-.82-2.73-1.31-4.34-1.31-1.75,0-3.34,.59-4.65,1.55-1.95,1.44-3.24,3.73-3.24,6.34,0,1.4,.4,2.7,1.04,3.84h13.7Z"/></g><g><path class="cls-6" d="M120.67,86.78l-1.25-2.87-5.89,13.63h11.82l-4.68-10.76Zm-2.99,8.21l1.66-4.24,1.68,4.24h-3.34Z"/><path class="cls-6" d="M102.28,83.99h5.02c2.36,0,4.93,.49,4.93,3.43,0,1.5-.93,2.53-2.32,2.97v.04c1.77,.23,2.95,1.54,2.95,3.29,0,2.82-2.66,3.75-5.06,3.75h-5.52v-13.47Zm2.97,5.39h2.15c.91,0,1.86-.38,1.86-1.47s-1.07-1.41-2-1.41h-2.02v2.87Zm0,5.58h2.66c.93,0,1.98-.4,1.98-1.58,0-1.28-1.43-1.48-2.4-1.48h-2.25v3.06Z"/><path class="cls-6" d="M134.41,87.49c-.59-.7-1.45-1.1-2.55-1.1-2.25,0-3.9,1.83-3.9,4.34s1.66,4.34,3.81,4.34c1.2,0,2.17-.53,2.78-1.45l2.47,1.85c-1.12,1.6-3.03,2.34-4.87,2.34-4.21,0-7.27-2.76-7.27-7.08s3.06-7.08,7.27-7.08c1.5,0,3.41,.51,4.55,1.98l-2.28,1.87Z"/><path class="cls-6" d="M84.85,87.49c-.59-.7-1.45-1.1-2.55-1.1-2.25,0-3.9,1.83-3.9,4.34s1.66,4.34,3.81,4.34c1.2,0,2.17-.53,2.78-1.45l2.47,1.85c-1.12,1.6-3.03,2.34-4.87,2.34-4.21,0-7.27-2.76-7.27-7.08s3.06-7.08,7.27-7.08c1.5,0,3.41,.51,4.55,1.98l-2.28,1.87Z"/><path class="cls-6" d="M59.62,83.99h2.97v13.47h-2.97v-13.47Z"/><path class="cls-6" d="M138.36,83.99h2.97v5.6l5.23-5.6h3.88l-5.99,6.26,6.51,7.21h-4.15l-5.48-6.39v6.39h-2.97v-13.47Z"/><path class="cls-6" d="M88.7,83.99h2.97v5.03h5.77v-5.03h2.97v13.48h-2.97v-5.83h-5.77v5.83h-2.97v-13.48Z"/><path class="cls-6" d="M36.59,87.28c-.48-.61-1.43-.89-2.15-.89-.84,0-2,.38-2,1.39,0,2.45,6.2,.88,6.2,5.6,0,3.01-2.42,4.43-5.2,4.43-1.73,0-3.25-.51-4.53-1.69l2.11-2.32c.61,.8,1.6,1.28,2.59,1.28s2.06-.46,2.06-1.41c0-2.47-6.32-1.14-6.32-5.63,0-2.87,2.49-4.38,5.14-4.38,1.52,0,2.99,.4,4.13,1.41l-2.04,2.23Z"/><path class="cls-6" d="M67.98,86.62h-3.84v-2.63h10.66v2.63h-3.84v10.85h-2.97v-10.85Z"/><path class="cls-6" d="M39.31,83.99h3.24l2.15,8.64h.04l2.82-8.64h2.76l2.8,8.87h.04l2.26-8.87h3.01l-3.94,13.47h-2.65l-2.97-9.32h-.04l-2.97,9.32h-2.55l-4-13.47Z"/></g><text class="cls-5" transform="translate(57.46 109.71)"><tspan class="cls-2" x="0" y="0">SESSION H</tspan><tspan class="cls-4" x="49.5" y="0">A</tspan><tspan class="cls-2" x="55.43" y="0">ZY </tspan></text><text class="cls-10" transform="translate(77.34 131.3)"><tspan x="0" y="0">I</tspan><tspan class="cls-9" x="5.24" y="0">P</tspan><tspan x="14.75" y="0">A</tspan></text></g></g></svg>